<?xml version="1.0" standalone="no"?>
<!DOCTYPE svg PUBLIC "-//W3C//DTD SVG 1.1//EN" "http://www.w3.org/Graphics/SVG/1.1/DTD/svg11.dtd" >
<svg xmlns="http://www.w3.org/2000/svg" xmlns:xlink="http://www.w3.org/1999/xlink" version="1.1">
<metadata>
Created by FontForge 20201107 at Wed Jun 14 12:00:55 2023
 By 
Copyright 2014 The DM Sans Project Authors (https://github.com/googlefonts/dm-fonts)
</metadata>
<defs>
<font id="DMSans-ExtraLightItalic" horiz-adv-x="0" >
  <font-face 
    font-family="DM Sans ExtraLight"
    font-weight="250"
    font-style="italic"
    font-stretch="normal"
    units-per-em="1000"
    panose-1="0 0 0 0 0 0 0 0 0 0"
    ascent="800"
    descent="-200"
    x-height="504"
    cap-height="700"
    bbox="-117.515 -256 1148 959"
    underline-thickness="50"
    underline-position="-125"
    slope="-10"
    unicode-range="U+000D-FB02"
  />
<missing-glyph horiz-adv-x="557" 
d="M34 0l124 700h401l-124 -700h-401zM114 57h260l104 586h-261z" />
    <glyph glyph-name="fi" unicode="fi" horiz-adv-x="486" 
d="M60 0l81 465h-81l7 39h81l18 103q7 37 23 62t44 38t69 13h47l-7 -39h-43q-39 0 -59.5 -17t-28.5 -59l-18 -101h258l-89 -504h-45l82 465h-212l-82 -465h-45zM459 641q-14 0 -24.5 10.5t-10.5 24.5q0 15 10.5 25t24.5 10q15 0 25 -10t10 -25q0 -14 -10.5 -24.5
t-24.5 -10.5z" />
    <glyph glyph-name="fl" unicode="fl" horiz-adv-x="504" 
d="M60 0l106 607q7 37 23 62t44 38t69 13h53l-6 -39h-49q-40 0 -60.5 -17t-28.5 -59l-106 -605h-45zM60 465l7 39h266l-7 -39h-266zM343 0l127 720h45l-127 -720h-45z" />
    <glyph glyph-name=".notdef" horiz-adv-x="557" 
d="M34 0l124 700h401l-124 -700h-401zM114 57h260l104 586h-261z" />
    <glyph glyph-name=".null" 
 />
    <glyph glyph-name="nonmarkingreturn" horiz-adv-x="333" 
 />
    <glyph glyph-name="CR" unicode="&#xd;" horiz-adv-x="600" 
 />
    <glyph glyph-name="space" unicode=" " horiz-adv-x="259" 
 />
    <glyph glyph-name="exclam" unicode="!" horiz-adv-x="203" 
d="M63 169l89 531h49l-100 -531h-38zM64 -5q-17 0 -29.5 12.5t-12.5 30.5t12.5 30t29.5 12q18 0 30 -12t12 -30t-12 -30.5t-30 -12.5z" />
    <glyph glyph-name="quotedbl" unicode="&#x22;" horiz-adv-x="255" 
d="M199 562l57 193h52l-77 -193h-32zM90 562l59 193h52l-78 -193h-33z" />
    <glyph glyph-name="numbersign" unicode="#" horiz-adv-x="764" 
d="M378 0l267 690h43l-266 -690h-44zM103 0l267 690h44l-267 -690h-44zM48 218l7 40h623l-7 -40h-623zM119 434l7 40h623l-7 -40h-623z" />
    <glyph glyph-name="dollar" unicode="$" horiz-adv-x="561" 
d="M188 -87l154 878h44l-155 -878h-43zM246 -12q-78 0 -129 28t-71.5 78t-9.5 116h47q-9 -51 6 -92.5t56 -65.5t107 -24q63 0 107 20.5t68.5 56.5t29.5 82q4 38 -7 64t-33.5 44t-52 30t-62 23t-63.5 23q-62 24 -92.5 62.5t-24.5 97.5q6 52 35.5 92.5t80 64.5t118.5 24
q60 0 104 -21.5t65.5 -63.5t9.5 -103h-47q9 50 -7 83t-50.5 49t-80.5 16q-55 0 -93.5 -18.5t-60 -49.5t-26.5 -70q-4 -32 7 -54.5t33 -38t51 -27.5t62 -23t65 -25q28 -12 51 -27.5t39 -36.5t23 -48.5t3 -62.5q-5 -58 -37.5 -104t-88 -72.5t-132.5 -26.5z" />
    <glyph glyph-name="percent" unicode="%" horiz-adv-x="696" 
d="M70 0l538 700h46l-537 -700h-47zM461 -12q-40 0 -69.5 18.5t-44 51.5t-9.5 79q5 50 30.5 88t64 60t84.5 22q40 0 69 -18.5t43.5 -51.5t9.5 -79q-5 -49 -30.5 -87.5t-64 -60.5t-83.5 -22zM214 392q-40 0 -69.5 18.5t-44 52t-9.5 78.5q6 49 31 87.5t64 60.5t84 22
q40 0 69.5 -18.5t43.5 -51.5t9 -79q-5 -49 -30.5 -87.5t-64 -60.5t-83.5 -22zM467 25q31 0 59 16t48 45.5t25 69.5q7 58 -19 86t-69 28q-30 0 -59 -15.5t-49 -45t-25 -70.5q-6 -57 20 -85.5t69 -28.5zM220 429q31 0 59 16t48 45.5t25 69.5q7 58 -19 86.5t-69 28.5
q-31 0 -59.5 -16t-48.5 -45.5t-24 -70.5q-7 -57 19 -85.5t69 -28.5z" />
    <glyph glyph-name="ampersand" unicode="&#x26;" horiz-adv-x="699" 
d="M558 0l-297 383q-37 47 -53 85.5t-10 82.5q5 48 31 84.5t68.5 56.5t97.5 20q50 0 84.5 -19t49.5 -52t6 -75h-46q8 51 -18 79t-83 28q-61 0 -99.5 -33.5t-44.5 -83.5q-4 -36 9.5 -71t45.5 -77l317 -408h-58zM226 -12q-64 0 -109.5 24t-66.5 68t-15 103q6 56 33 99.5
t74 76.5t112 56l19 7l23 -31l-31 -11q-81 -30 -128 -77.5t-55 -115.5q-5 -49 10 -84.5t50.5 -54.5t90.5 -19q61 0 111.5 26t105.5 79q28 28 59.5 64.5t65.5 80.5l63 82h50l-81 -107q-35 -46 -68 -84t-65 -68q-60 -57 -119.5 -85.5t-128.5 -28.5z" />
    <glyph glyph-name="quotesingle" unicode="'" horiz-adv-x="132" 
d="M98 562l32 193h55l-55 -193h-32z" />
    <glyph glyph-name="parenleft" unicode="(" horiz-adv-x="346" 
d="M185 -145q-41 45 -74.5 108t-49 145t-3.5 180q13 112 55.5 210t105.5 177.5t134 135.5h49l-1 -4q-79 -64 -142 -145.5t-103 -175t-51 -194.5q-10 -88 2.5 -166t45.5 -144.5t82 -121.5l-1 -5h-49z" />
    <glyph glyph-name="parenright" unicode=")" horiz-adv-x="346" 
d="M190 811q42 -44 75 -107.5t48.5 -145t3.5 -180.5q-13 -112 -55.5 -210t-105 -177.5t-134.5 -135.5h-49l1 5q80 64 142.5 145t102.5 175t51 194q11 89 -2 166.5t-45.5 144.5t-82.5 122l1 4h49z" />
    <glyph glyph-name="asterisk" unicode="*" horiz-adv-x="455" 
d="M226 361l37 164l-152 -86l-15 39l159 69l-134 69l29 39l121 -87l22 164h43l-39 -164l150 86l15 -37l-158 -70l135 -69l-28 -38l-121 85l-21 -164h-43z" />
    <glyph glyph-name="plus" unicode="+" horiz-adv-x="500" 
d="M199 80l73 420h43l-73 -420h-43zM37 271l6 39h434l-7 -39h-433z" />
    <glyph glyph-name="comma" unicode="," horiz-adv-x="132" 
d="M-74 -122l95 196h54l-113 -196h-36z" />
    <glyph glyph-name="hyphen" unicode="-" horiz-adv-x="494" 
d="M57 271l7 38h376l-7 -38h-376z" />
    <glyph glyph-name="period" unicode="." horiz-adv-x="162" 
d="M44 -5q-18 0 -30.5 12.5t-12.5 30.5t12.5 30t30.5 12q17 0 29 -12.5t12 -30.5q0 -17 -12 -29.5t-29 -12.5z" />
    <glyph glyph-name="slash" unicode="/" horiz-adv-x="362" 
d="M-27 -80l399 833h46l-399 -833h-46z" />
    <glyph glyph-name="zero" unicode="0" horiz-adv-x="667" 
d="M287 -12q-83 0 -137.5 41t-76.5 115t-10 172q8 86 38 158.5t76.5 126t106.5 82.5t130 29q84 0 138 -41t76 -114.5t11 -171.5q-9 -88 -39 -160.5t-76 -125.5t-106 -82t-131 -29zM291 29q57 0 107.5 25.5t90.5 72.5t67 111.5t35 143.5q12 90 -7 155t-63.5 99.5t-110.5 34.5
q-57 0 -107.5 -25.5t-90.5 -72.5t-66.5 -111.5t-35.5 -142.5q-11 -90 8 -155.5t63.5 -100t109.5 -34.5z" />
    <glyph glyph-name="one" unicode="1" horiz-adv-x="271" 
d="M104 0l114 648l-123 -37l6 34l141 55h31l-124 -700h-45z" />
    <glyph glyph-name="two" unicode="2" horiz-adv-x="574" 
d="M31 0l6 33q97 70 177 135.5t138.5 126.5t93 119.5t41.5 116.5q5 38 -5 70t-40 51.5t-86 19.5q-55 0 -95.5 -24t-64.5 -63t-31 -84h-45q11 63 45 110.5t85 74t113 26.5q51 0 92.5 -18t63.5 -57.5t15 -103.5q-7 -52 -33 -103.5t-67 -101.5t-93 -99t-112 -96.5t-122 -93.5
h377l-7 -39h-446z" />
    <glyph glyph-name="three" unicode="3" horiz-adv-x="574" 
d="M242 -12q-69 0 -117 24.5t-70 72t-13 115.5h47q-7 -49 8 -87.5t52.5 -61t98.5 -22.5q60 0 105 23.5t71.5 64t32.5 90.5q6 54 -16 88.5t-63.5 51t-92.5 16.5l-56 1l7 40h54q86 0 136.5 39.5t57.5 106.5q7 50 -23 85.5t-102 35.5q-68 0 -117.5 -38.5t-65.5 -100.5h-46
q11 50 43 91t81 65t110 24q62 0 101 -21t55.5 -57t11.5 -80q-3 -34 -20.5 -69t-50 -61.5t-82.5 -37.5q40 -9 70.5 -31.5t45.5 -58t9 -85.5q-6 -61 -40 -112t-90.5 -81t-131.5 -30z" />
    <glyph glyph-name="four" unicode="4" horiz-adv-x="570" 
d="M346 0l30 169h-360l6 35l441 496h54l-89 -492h112l-7 -39h-113l-30 -169h-44zM77 208h307l79 433v0z" />
    <glyph glyph-name="five" unicode="5" horiz-adv-x="598" 
d="M259 -12q-67 0 -113 25t-70.5 68.5t-25.5 96.5h46q3 -68 47 -109t122 -41q61 0 109.5 29t79.5 78t37 111q7 55 -9.5 98.5t-53 69t-91.5 25.5q-67 0 -118.5 -29.5t-84.5 -77.5h-42l124 368h351l-7 -39h-315l-92 -261q32 32 81 55.5t111 23.5q46 0 84 -16.5t64 -47
t38 -72.5t5 -93q-6 -69 -42 -129t-96 -96.5t-139 -36.5z" />
    <glyph glyph-name="six" unicode="6" horiz-adv-x="613" 
d="M270 -12q-69 0 -112.5 24.5t-66 67t-27 96.5t1.5 112q10 91 38 168t71.5 134.5t100 89.5t123.5 32q59 0 98.5 -24t59.5 -64.5t17 -92.5h-43q1 65 -35 103t-103 38q-63 0 -118 -38.5t-96 -113t-64 -182.5q-3 -12 -4.5 -22.5t-3.5 -26.5q22 44 57.5 79.5t82 56.5t101.5 21
q61 0 108 -26t71.5 -74.5t16.5 -115.5q-5 -46 -26 -89.5t-57 -78t-84 -54.5t-107 -20zM274 29q62 0 109.5 26.5t77 71t35.5 98.5q7 54 -11.5 94.5t-56.5 63t-91 22.5q-56 0 -104.5 -27.5t-80 -72t-37.5 -97.5q-6 -51 11 -91.5t55 -64t93 -23.5z" />
    <glyph glyph-name="seven" unicode="7" horiz-adv-x="530" 
d="M113 0l400 661h-416l7 39h464l-6 -36l-399 -664h-50z" />
    <glyph glyph-name="eight" unicode="8" horiz-adv-x="586" 
d="M249 -12q-68 0 -114 24t-67 66t-15 98q5 50 30 90t65 68t92 37q-60 16 -86.5 56.5t-19.5 95.5q5 52 35 94.5t82 68.5t122 26q67 0 108 -23.5t58 -62.5t12 -86q-5 -43 -26 -77t-55.5 -57t-80.5 -35q69 -14 99 -61.5t21 -113.5q-5 -61 -39.5 -108t-91 -73.5t-129.5 -26.5z
M256 29q60 0 104.5 21t71 58.5t31.5 87.5q10 76 -33 113.5t-120 37.5q-56 0 -101 -19t-74 -57t-35 -92q-8 -68 31.5 -109t124.5 -41zM321 390q46 0 85.5 16t65.5 49t31 83q6 46 -10.5 75.5t-49.5 43.5t-77 14q-49 0 -89 -17t-65 -50t-31 -80q-8 -68 31.5 -101t108.5 -33z
" />
    <glyph glyph-name="nine" unicode="9" horiz-adv-x="613" 
d="M249 -12q-58 0 -98 24t-59.5 65t-17.5 92h43q0 -65 37.5 -103t101.5 -38q47 0 87 21t73 57.5t58 85t42 104.5t25 115q-22 -43 -57.5 -79t-82 -56.5t-102.5 -20.5q-59 0 -106 26t-71.5 74.5t-16.5 114.5q4 47 25 90.5t57 77.5t84 54t107 20q69 0 112.5 -24.5t66 -67
t27.5 -96t-2 -112.5q-10 -88 -37.5 -165t-71 -135.5t-100 -91t-124.5 -32.5zM310 295q57 0 105.5 27.5t80 72.5t37.5 97t-11.5 92t-55 63.5t-93.5 23.5q-60 0 -108 -26.5t-77.5 -70.5t-35.5 -99q-7 -54 11.5 -94.5t56.5 -63t90 -22.5z" />
    <glyph glyph-name="colon" unicode=":" horiz-adv-x="158" 
d="M45 -3q-18 0 -30.5 12.5t-12.5 30.5t12.5 30t30.5 12q17 0 29 -12.5t12 -30.5q0 -17 -12 -29.5t-29 -12.5zM121 431q-18 0 -30.5 12.5t-12.5 30.5t12.5 30t30.5 12q17 0 29 -12.5t12 -30.5q0 -17 -12 -29.5t-29 -12.5z" />
    <glyph glyph-name="semicolon" unicode=";" horiz-adv-x="168" 
d="M121 431q-18 0 -30.5 12.5t-12.5 30.5t12.5 30t30.5 12q17 0 29 -12.5t12 -30.5q0 -17 -12 -29.5t-29 -12.5zM-46 -122l95 196h54l-113 -196h-36z" />
    <glyph glyph-name="less" unicode="&#x3c;" horiz-adv-x="500" 
d="M471 585l-305 -237l215 -232h-56l-219 234v0l302 235h63z" />
    <glyph glyph-name="equal" unicode="=" horiz-adv-x="500" 
d="M83 370l7 39h375l-6 -39h-376zM49 177l6 39h376l-7 -39h-375z" />
    <glyph glyph-name="greater" unicode="&#x3e;" horiz-adv-x="500" 
d="M64 116l305 237l-215 232h56l219 -234v0l-302 -235h-63z" />
    <glyph glyph-name="question" unicode="?" horiz-adv-x="508" 
d="M157 192l22 143h17q50 0 95.5 8.5t82 29.5t60 57t30.5 90q6 46 -10.5 80t-50 53t-82.5 19q-50 0 -91.5 -19t-69 -53t-35.5 -82h-44q12 62 47.5 105t88 66t111.5 23q60 0 102.5 -24t63.5 -66.5t14 -99.5q-7 -73 -47 -123t-103 -74.5t-141 -24.5l-22 -108h-38zM149 -5
q-18 0 -30.5 12.5t-12.5 30.5t12.5 30t30.5 12q17 0 29 -12.5t12 -30.5q0 -17 -12 -29.5t-29 -12.5z" />
    <glyph glyph-name="at" unicode="@" horiz-adv-x="965" 
d="M409 -187q-101 0 -179 40t-121.5 114t-43.5 175q0 102 34 190t96 154.5t148.5 104t191.5 37.5q107 0 185.5 -41.5t123 -115.5t44.5 -171q0 -56 -13 -110t-38 -98.5t-60.5 -71t-82.5 -26.5q-52 0 -74 34.5t-17 86.5l4 36l15 -9q-29 -74 -84 -111t-119 -37q-75 0 -117 47.5
t-42 126.5q0 54 17 104.5t49 90t76.5 62t98.5 22.5q63 0 101 -38t43 -102l-16 -12l23 139h42l-52 -294q-8 -51 5 -81t53 -30q35 0 62.5 25t46.5 65t29 87t10 91q0 92 -39.5 158.5t-111 102t-168.5 35.5q-93 0 -170.5 -34.5t-134.5 -95.5t-88 -142t-31 -174q0 -96 39 -162.5
t109.5 -101.5t164.5 -35q42 0 85.5 8t82.5 25l7 -34q-43 -17 -89.5 -25.5t-94.5 -8.5zM431 32q49 0 89 25.5t65.5 70.5t32.5 104q7 50 -4 90t-39 64t-75 24q-46 0 -82.5 -20.5t-62 -54.5t-38.5 -76t-13 -86q0 -65 32.5 -103t94.5 -38z" />
    <glyph glyph-name="A" unicode="A" horiz-adv-x="627" 
d="M-10 0l381 700h48l130 -700h-47l-117 645v0l-346 -645h-49zM129 222l20 38h331l8 -38h-359z" />
    <glyph glyph-name="B" unicode="B" horiz-adv-x="573" 
d="M34 0l124 700h215q71 0 113 -22.5t58.5 -60t11.5 -81.5q-6 -56 -34 -94.5t-69.5 -60t-88.5 -26.5l8 9q42 -1 76 -22t52.5 -57t12.5 -82q-5 -56 -36.5 -102t-87.5 -73.5t-134 -27.5h-221zM86 39h178q57 0 100.5 20t70.5 57t33 87q7 62 -34.5 100.5t-120.5 38.5h-174z
M146 380h174q81 0 131 42t58 110q5 39 -9.5 68.5t-47 46t-84.5 16.5h-172z" />
    <glyph glyph-name="C" unicode="C" horiz-adv-x="699" 
d="M329 -12q-95 0 -158 41.5t-91.5 116t-16.5 173.5q9 86 42 158t85 124.5t119.5 81.5t145.5 29q114 0 175 -52.5t67 -148.5h-50q-6 73 -53.5 116.5t-144.5 43.5q-66 0 -123.5 -24.5t-103 -70.5t-74.5 -110.5t-37 -144.5q-12 -92 12.5 -157t79 -100t133.5 -35q96 0 160 44.5
t94 116.5h50q-26 -64 -70 -109t-104.5 -69t-136.5 -24z" />
    <glyph glyph-name="D" unicode="D" horiz-adv-x="672" 
d="M34 0l124 700h183q118 0 188 -38t98 -110.5t15 -178.5q-8 -82 -38.5 -150t-83 -118.5t-127 -77.5t-172.5 -27h-187zM86 38h141q111 0 189 40.5t123 115.5t56 177q12 91 -10 156.5t-82 100t-166 34.5h-141z" />
    <glyph glyph-name="E" unicode="E" horiz-adv-x="536" 
d="M34 0l124 700h400l-7 -37h-355l-52 -294h325l-6 -37h-326l-51 -295h354l-6 -37h-400z" />
    <glyph glyph-name="F" unicode="F" horiz-adv-x="515" 
d="M34 0l124 700h400l-6 -37h-356l-52 -292h313l-6 -37h-313l-59 -334h-45z" />
    <glyph glyph-name="G" unicode="G" horiz-adv-x="741" 
d="M323 -12q-91 0 -153.5 43t-90 119t-15.5 175q9 85 41.5 156t85 122.5t121 80t147.5 28.5q113 0 179.5 -54t73.5 -154h-51q-6 76 -57.5 121t-150.5 45q-90 0 -163 -42.5t-120 -119.5t-58 -182q-12 -90 11.5 -157t76.5 -103t130 -36q84 0 147 34.5t105.5 101.5t64.5 162
h-226l7 37h273l-65 -365h-40l20 158v0q-33 -55 -76 -93t-96.5 -57.5t-120.5 -19.5z" />
    <glyph glyph-name="H" unicode="H" horiz-adv-x="654" 
d="M486 0l124 700h45l-124 -700h-45zM34 0l124 700h45l-124 -700h-45zM124 338l6 37h441l-7 -37h-440z" />
    <glyph glyph-name="I" unicode="I" horiz-adv-x="201" 
d="M34 0l124 700h45l-124 -700h-45z" />
    <glyph glyph-name="J" unicode="J" horiz-adv-x="462" 
d="M161 -12q-56 0 -93 22t-51 62.5t-5 95.5h46q-6 -37 0.5 -68.5t32.5 -51t76 -19.5t82 19t50.5 51t24.5 69l94 532h45l-94 -533q-14 -86 -69 -132.5t-139 -46.5z" />
    <glyph glyph-name="K" unicode="K" horiz-adv-x="528" 
d="M34 0l124 700h45l-60 -337l381 337h59l-350 -306l228 -394h-54l-211 362l-63 -57l-54 -305h-45z" />
    <glyph glyph-name="L" unicode="L" horiz-adv-x="501" 
d="M34 0l124 700h45l-118 -663h340l-6 -37h-385z" />
    <glyph glyph-name="M" unicode="M" horiz-adv-x="805" 
d="M34 0l124 700h51l177 -543v0l368 543h52l-123 -700h-46l109 616v0l-351 -518h-38l-169 516v0l-109 -614h-45z" />
    <glyph glyph-name="N" unicode="N" horiz-adv-x="658" 
d="M34 0l123 700h48l299 -628v0l111 628h45l-124 -700h-46l-300 631v0l-111 -631h-45z" />
    <glyph glyph-name="O" unicode="O" horiz-adv-x="769" 
d="M337 -12q-94 0 -159.5 42.5t-95.5 119t-19 176.5q9 83 43 153.5t88.5 122.5t123.5 81t147 29q95 0 160.5 -43t96 -119t18.5 -175q-9 -84 -43 -154.5t-88 -123t-123.5 -81t-148.5 -28.5zM344 29q66 0 125 24t106.5 70t78 109.5t39.5 142.5q11 94 -16 160t-84 101t-134 35
q-66 0 -125 -24.5t-106.5 -69.5t-78 -108.5t-38.5 -141.5q-12 -94 15.5 -160.5t84 -102t133.5 -35.5z" />
    <glyph glyph-name="P" unicode="P" horiz-adv-x="554" 
d="M34 0l124 700h203q78 0 123.5 -24.5t63.5 -66t12 -95.5q-6 -62 -38.5 -108.5t-90 -72t-139.5 -25.5h-159l-54 -308h-45zM140 347h160q94 0 149 41t64 125q9 71 -30 110t-127 39h-160z" />
    <glyph glyph-name="Q" unicode="Q" horiz-adv-x="769" 
d="M518 -89l-150 358h50l151 -358h-51zM337 -12q-94 0 -159.5 42.5t-95.5 119t-19 176.5q9 83 43.5 153.5t88.5 122.5t123 81t147 29q95 0 160.5 -43t96 -119t18.5 -175q-9 -84 -43 -154.5t-88 -123t-123.5 -81t-148.5 -28.5zM344 29q66 0 125 24t106.5 70t78 109.5
t39.5 142.5q11 94 -16 160t-84 101t-134 35q-66 0 -125 -24.5t-106.5 -69.5t-78 -108.5t-38.5 -141.5q-12 -94 15.5 -160.5t84 -102t133.5 -35.5z" />
    <glyph glyph-name="R" unicode="R" horiz-adv-x="564" 
d="M34 0l124 700h195q78 0 122.5 -25t62 -67.5t11.5 -95.5q-7 -64 -39.5 -111.5t-89.5 -73.5t-139 -26h-149l-53 -301h-45zM417 0l-106 319h48l107 -319h-49zM139 338h149q91 0 147.5 43.5t66.5 128.5q9 71 -30.5 111.5t-127.5 40.5h-148z" />
    <glyph glyph-name="S" unicode="S" horiz-adv-x="561" 
d="M246 -12q-78 0 -129 28t-71.5 78t-9.5 116h47q-9 -51 6 -92.5t56 -65.5t107 -24q63 0 107 20.5t68.5 56.5t29.5 82q4 38 -7 64t-33.5 44t-52 30t-62 23t-63.5 23q-62 24 -92.5 62.5t-24.5 97.5q6 52 35.5 92.5t80 64.5t118.5 24q60 0 104 -21.5t65.5 -63.5t9.5 -103h-47
q9 50 -7 83t-50.5 49t-80.5 16q-55 0 -93.5 -18.5t-60 -49.5t-26.5 -70q-4 -32 7 -54.5t33 -38t51 -27.5t62 -23t65 -25q28 -12 51 -27.5t39 -36.5t23 -48.5t3 -62.5q-5 -58 -37.5 -104t-88 -72.5t-132.5 -26.5z" />
    <glyph glyph-name="T" unicode="T" horiz-adv-x="527" 
d="M196 0l117 663h-211l7 37h467l-6 -37h-212l-117 -663h-45z" />
    <glyph glyph-name="U" unicode="U" horiz-adv-x="631" 
d="M270 -12q-72 0 -122.5 29t-71.5 87t-5 145l80 451h45l-80 -450q-13 -75 3 -124t57 -72.5t101 -23.5q59 0 107.5 22.5t82.5 71.5t47 127l80 449h45l-80 -451q-16 -91 -58.5 -148.5t-102.5 -85t-128 -27.5z" />
    <glyph glyph-name="V" unicode="V" horiz-adv-x="647" 
d="M252 0l-147 700h49l134 -648v0l364 648h49l-397 -700h-52z" />
    <glyph glyph-name="W" unicode="W" horiz-adv-x="929" 
d="M176 0l-70 700h48l59 -641v0l306 641h52l74 -642v0l287 642h49l-321 -700h-52l-76 633v0l-305 -633h-51z" />
    <glyph glyph-name="X" unicode="X" horiz-adv-x="551" 
d="M-2 0l268 350l-144 350h50l129 -312v0l237 312h51l-269 -351l144 -349h-50l-129 313v0l-237 -313h-50z" />
    <glyph glyph-name="Y" unicode="Y" horiz-adv-x="535" 
d="M202 0l51 293l-150 407h51l130 -364v0l254 364h52l-292 -407l-51 -293h-45z" />
    <glyph glyph-name="Z" unicode="Z" horiz-adv-x="513" 
d="M-3 0l7 37l478 623h-361l8 40h414l-7 -37l-479 -623h377l-8 -40h-429z" />
    <glyph glyph-name="bracketleft" unicode="[" horiz-adv-x="270" 
d="M11 -134l166 945h131l-7 -38h-88l-153 -868h88l-6 -39h-131z" />
    <glyph glyph-name="backslash" unicode="\" horiz-adv-x="656" 
d="M566 -80h-46l-400 833h47z" />
    <glyph glyph-name="bracketright" unicode="]" horiz-adv-x="269" 
d="M290 811l-166 -945h-132l7 38h88l153 868h-88l7 39h131z" />
    <glyph glyph-name="asciicircum" unicode="^" horiz-adv-x="577" 
d="M32 218l316 482h42l144 -482h-47l-126 428v0l-280 -428h-49z" />
    <glyph glyph-name="underscore" unicode="_" horiz-adv-x="589" 
d="M-4 -76l7 43h472l-7 -43h-472z" />
    <glyph glyph-name="grave" unicode="`" horiz-adv-x="206" 
d="M253 545l-181 117l14 40v0l178 -121z" />
    <glyph glyph-name="a" unicode="a" horiz-adv-x="516" 
d="M175 -12q-55 0 -89 21t-48.5 55t-10.5 72q6 56 36.5 93.5t80 56t113.5 18.5h151q11 55 2 93t-37 58.5t-78 20.5q-63 0 -108 -29t-66 -88h-47q17 53 51 87.5t79 52t94 17.5q68 0 106 -27t49.5 -73.5t0.5 -106.5l-54 -309h-39l12 100v0q-11 -17 -28 -36.5t-41.5 -36.5
t-56 -28t-72.5 -11zM186 28q43 0 78 17t61.5 44t43.5 59.5t23 63.5l10 53h-148q-59 0 -97 -16t-58 -44t-24 -65q-6 -50 22 -81t89 -31z" />
    <glyph glyph-name="b" unicode="b" horiz-adv-x="601" 
d="M273 -12q-48 0 -85 18.5t-61 49.5t-32 67v0l-29 -123h-39l126 717h45l-60 -339q35 62 92 100t131 38q71 0 117 -32t66 -88t12 -126q-7 -61 -30.5 -112.5t-60.5 -89.5t-86 -59t-106 -21zM277 29q60 0 109.5 29.5t82 83t40.5 124.5q8 64 -9 111t-55 72.5t-92 25.5
q-59 0 -109 -31t-82.5 -85t-40.5 -123q-8 -61 9 -107.5t55.5 -73t91.5 -26.5z" />
    <glyph glyph-name="c" unicode="c" horiz-adv-x="544" 
d="M238 -12q-65 0 -111.5 30.5t-68.5 85.5t-13 128q7 65 32.5 117t64 89t87 57.5t101.5 20.5q86 0 135 -44t51 -115h-47q-2 56 -42 87t-103 31q-54 0 -103.5 -27.5t-84.5 -81t-43 -131.5q-7 -53 2.5 -92t31.5 -64.5t52 -38t63 -12.5q43 0 80.5 13.5t66.5 40t43 64.5h47
q-17 -45 -51.5 -81t-82.5 -56.5t-107 -20.5z" />
    <glyph glyph-name="d" unicode="d" horiz-adv-x="602" 
d="M239 -12q-70 0 -116 33t-66 89t-11 126q6 61 29.5 112t61 88.5t86 58.5t105.5 21q74 0 120 -37.5t59 -102.5l61 344h45l-127 -720h-40l15 124v0q-22 -38 -54.5 -68.5t-75 -49t-92.5 -18.5zM249 29q60 0 109.5 31.5t82.5 86t40 122.5q8 61 -9 107.5t-54 72.5t-92 26
q-60 0 -110 -29.5t-82.5 -82.5t-40.5 -125q-8 -62 8.5 -109.5t55 -73.5t92.5 -26z" />
    <glyph glyph-name="e" unicode="e" horiz-adv-x="541" 
d="M230 -12q-66 0 -110.5 30.5t-63.5 86.5t-10 130q7 64 30.5 115.5t61 88.5t85 57t101.5 20q71 0 114 -30t60 -79.5t9 -108.5q0 -13 -3 -27.5t-6 -28.5h-420l7 39h377q10 66 -5.5 109t-51 64.5t-88.5 21.5q-48 0 -94 -22.5t-80.5 -68t-47.5 -116.5l-3 -18q-12 -73 3 -122.5
t52.5 -75t89.5 -25.5q64 0 110.5 30t74.5 83h45q-21 -44 -54.5 -79t-79 -54.5t-103.5 -19.5z" />
    <glyph glyph-name="f" unicode="f" horiz-adv-x="316" 
d="M60 0l106 607q7 37 23 62t44 38t69 13h53l-6 -39h-49q-40 0 -60.5 -17t-28.5 -59l-106 -605h-45zM60 465l7 39h266l-7 -39h-266z" />
    <glyph glyph-name="g" unicode="g" horiz-adv-x="549" 
d="M171 -232q-64 0 -110.5 19t-70.5 54t-19 84q4 31 17.5 57.5t40.5 51.5t69 49l36 -18q-58 -30 -84 -62.5t-31 -71.5q-4 -37 14.5 -65t55.5 -43t89 -15q84 0 138 35.5t60 92.5q6 49 -24 78t-119 34q-49 3 -85 9t-61 14.5t-43 18.5t-32 22l4 20l101 75l39 -16l-106 -77l4 24
q13 -7 26.5 -15t32 -14t49 -11.5t78.5 -8.5q76 -5 117.5 -25t56 -51.5t9.5 -71.5q-4 -47 -34.5 -86t-85 -63t-132.5 -24zM238 157q-62 0 -100 22t-53.5 60t-10.5 84q6 57 35 100t78 68t115 25q64 0 102 -21.5t53.5 -59t8.5 -87.5q-5 -53 -33.5 -96.5t-77.5 -69t-117 -25.5z
M246 197q76 0 121.5 40t53.5 109q8 66 -24.5 98t-101.5 32q-71 0 -118.5 -38t-56.5 -112q-8 -64 26 -96.5t100 -32.5zM381 464l-10 40h192l-7 -37z" />
    <glyph glyph-name="h" unicode="h" horiz-adv-x="542" 
d="M28 0l126 720h45l-57 -321v0q35 56 88.5 86.5t109.5 30.5q55 0 93 -22t54 -68t3 -118l-54 -308h-45l53 301q15 89 -15 131.5t-102 42.5q-48 0 -91.5 -24.5t-74 -70t-41.5 -111.5l-47 -269h-45z" />
    <glyph glyph-name="i" unicode="i" horiz-adv-x="203" 
d="M35 0l88 504h45l-88 -504h-45zM177 641q-15 0 -25 10t-10 25q0 16 10 25.5t24 9.5t24.5 -9.5t10.5 -25.5q0 -15 -10 -25t-24 -10z" />
    <glyph glyph-name="j" unicode="j" horiz-adv-x="217" 
d="M-110 -220l7 40h37q43 0 63.5 18t28.5 60l106 606h45l-107 -611q-6 -37 -22.5 -62t-44.5 -38t-69 -13h-44zM186 641q-14 0 -24.5 10t-10.5 25q0 16 10.5 25.5t24.5 9.5t24 -9t10 -26q0 -15 -9.5 -25t-24.5 -10z" />
    <glyph glyph-name="k" unicode="k" horiz-adv-x="449" 
d="M328 0l-215 276l278 228h62l-303 -245l5 35l231 -294h-58zM27 0l127 720h45l-127 -720h-45z" />
    <glyph glyph-name="l" unicode="l" horiz-adv-x="188" 
d="M27 0l127 720h45l-127 -720h-45z" />
    <glyph glyph-name="m" unicode="m" horiz-adv-x="849" 
d="M27 0l89 504h39l-12 -101v0q34 56 81 84.5t103 28.5q32 0 61.5 -11t50 -37t25.5 -72v0q28 53 77.5 86.5t110.5 33.5q54 0 91 -22.5t52 -69.5t2 -122l-54 -302h-44l52 299q16 91 -12 133.5t-96 42.5q-40 0 -77.5 -20t-65.5 -60t-40 -98l-52 -297h-45l53 302q15 89 -12 131
t-88 42q-46 0 -87 -24t-69.5 -70t-40.5 -115l-47 -266h-45z" />
    <glyph glyph-name="n" unicode="n" horiz-adv-x="540" 
d="M27 0l89 504h39l-13 -103v0q36 58 87.5 86.5t108.5 28.5t95 -24t53 -70t3 -113l-55 -309h-45l53 302q16 87 -14 130t-103 43q-48 0 -90 -23t-72 -67t-42 -109l-49 -276h-45z" />
    <glyph glyph-name="o" unicode="o" horiz-adv-x="580" 
d="M244 -12q-66 0 -114 30t-71 86t-14 131q7 64 32.5 115.5t64.5 88t88 57t105 20.5q67 0 115 -30t71 -85t13 -131q-7 -63 -32 -115t-64.5 -89t-88.5 -57.5t-105 -20.5zM250 28q57 0 108 28.5t86 82.5t43 129q9 68 -11 114.5t-59 69.5t-88 23q-56 0 -107 -28.5t-86 -82
t-43 -128.5q-9 -69 11 -115t58.5 -69.5t87.5 -23.5z" />
    <glyph glyph-name="p" unicode="p" horiz-adv-x="602" 
d="M-12 -220l128 724h40l-16 -126v0q21 38 53.5 69.5t75.5 50t93 18.5q71 0 117 -32t66 -87.5t11 -126.5q-6 -61 -29.5 -112t-61 -89.5t-86 -59.5t-106.5 -21q-47 0 -84.5 18t-61.5 50t-32 72l-62 -348h-45zM278 29q60 0 109.5 29.5t81.5 83t40 124.5q8 63 -9 110t-54.5 73
t-90.5 26q-61 0 -111 -31t-82.5 -85.5t-40.5 -122.5q-8 -61 9.5 -108t55.5 -73t92 -26z" />
    <glyph glyph-name="q" unicode="q" horiz-adv-x="602" 
d="M402 -220l61 347q-34 -62 -91.5 -100.5t-132.5 -38.5q-69 0 -115.5 33t-66.5 89t-11 126q6 61 29.5 112t60.5 89t85.5 58.5t105.5 20.5q50 0 87 -19t60.5 -50t31.5 -70v0l28 127h41l-128 -724h-45zM249 29q60 0 109.5 31t82 86t39.5 123q8 61 -9 107t-54 72.5t-92 26.5
q-59 0 -109.5 -29.5t-83 -82.5t-40.5 -125q-8 -63 9.5 -110t56 -73t91.5 -26z" />
    <glyph glyph-name="r" unicode="r" horiz-adv-x="340" 
d="M27 0l89 504h40l-13 -98v0q25 38 57.5 62.5t72 36t86.5 11.5l-8 -46h-18q-30 0 -63 -8t-63 -28.5t-52.5 -56.5t-32.5 -92l-50 -285h-45z" />
    <glyph glyph-name="s" unicode="s" horiz-adv-x="477" 
d="M201 -12q-56 0 -97 19t-61 56.5t-16 93.5h47q-4 -40 11.5 -69t47.5 -44t75 -15q41 0 72.5 13.5t51.5 38t23 55.5q5 34 -7.5 53.5t-41 30.5t-72.5 20q-35 7 -63 18t-46.5 26.5t-27 38t-5.5 52.5q5 41 29.5 72.5t65.5 50t93 18.5q71 0 113.5 -38t37.5 -112h-46q5 49 -24 79
t-87 30t-94 -27t-40 -69q-3 -23 6.5 -42t34.5 -32.5t69 -23.5q34 -7 64 -16.5t51.5 -24t32 -38.5t6.5 -60q-5 -45 -32 -80t-71 -54.5t-100 -19.5z" />
    <glyph glyph-name="t" unicode="t" horiz-adv-x="356" 
d="M202 0q-43 0 -69 13t-34.5 43t-0.5 79l59 330h-84l7 39h84l26 110h38l-19 -110h158l-7 -39h-158l-59 -330q-9 -53 8 -74.5t65 -21.5h62l-7 -39h-69z" />
    <glyph glyph-name="u" unicode="u" horiz-adv-x="540" 
d="M201 -12q-56 0 -94 24t-53 70t-3 113l55 309h45l-53 -302q-16 -87 13.5 -130t103.5 -43q49 0 91 22.5t72 67t41 109.5l49 276h45l-89 -504h-39l12 103v0q-35 -59 -87 -87t-109 -28z" />
    <glyph glyph-name="v" unicode="v" horiz-adv-x="510" 
d="M184 0l-111 504h48l98 -457v0l257 457h49l-288 -504h-53z" />
    <glyph glyph-name="w" unicode="w" horiz-adv-x="715" 
d="M127 0l-54 504h47l44 -454h-7l219 454h52l57 -453h-7l206 453h47l-234 -504h-48l-57 463h7l-224 -463h-48z" />
    <glyph glyph-name="x" unicode="x" horiz-adv-x="432" 
d="M-26 0l212 252l-121 252h47l109 -228v0l188 228h49l-211 -255l121 -249h-47l-109 225v0l-188 -225h-50z" />
    <glyph glyph-name="y" unicode="y" horiz-adv-x="517" 
d="M33 -220l176 275h-17l-128 449h47l117 -415v0l265 415h49l-461 -724h-48z" />
    <glyph glyph-name="z" unicode="z" horiz-adv-x="434" 
d="M-8 0l7 38l377 427h-292l7 39h344l-7 -38l-377 -428h302l-6 -38h-355z" />
    <glyph glyph-name="braceleft" unicode="{" horiz-adv-x="399" 
d="M240 -133q-58 0 -89 30.5t-24 92.5q5 38 17 71t24.5 67t17.5 75q3 26 -3 49t-26.5 41t-64.5 28l7 37q50 10 79.5 31t43.5 52.5t17 73.5q5 30 4 51.5t-1 41t4 43.5q5 54 25.5 89.5t55 53t79.5 17.5h48l-8 -41h-41q-29 0 -54 -10t-41 -35.5t-20 -73.5q-4 -24 -3 -44
t1.5 -41.5t-4.5 -51.5q-4 -49 -21.5 -84.5t-47.5 -57.5t-72 -32v-2q54 -13 74 -48t14 -83q-4 -43 -16.5 -78.5t-25 -67.5t-16.5 -65q-6 -50 16.5 -69t63.5 -19h42l-7 -41h-48z" />
    <glyph glyph-name="bar" unicode="|" horiz-adv-x="201" 
d="M17 -100l144 820h45l-144 -820h-45z" />
    <glyph glyph-name="braceright" unicode="}" horiz-adv-x="398" 
d="M190 811q57 0 88 -30.5t24 -92.5q-4 -38 -16 -71t-24.5 -67t-17.5 -75q-3 -26 2.5 -49t27 -41t63.5 -28l-7 -37q-49 -10 -78.5 -31t-43.5 -52.5t-17 -73.5q-5 -30 -4.5 -51.5t1 -41t-3.5 -43.5q-5 -54 -25.5 -89.5t-54.5 -53t-80 -17.5h-48l7 41h42q29 0 53.5 10t41 36
t19.5 73q5 24 4 44t-1.5 41.5t4.5 50.5q4 51 21.5 86t47.5 57t71 32v2q-53 13 -73 48t-15 83q5 43 17.5 78.5t25 67.5t15.5 65q7 50 -16 69t-64 19h-41l7 41h48z" />
    <glyph glyph-name="asciitilde" unicode="~" horiz-adv-x="500" 
d="M334 268q-26 0 -44.5 10.5t-34 24t-31.5 24t-37 10.5q-27 0 -48.5 -18.5t-36.5 -48.5h-37q14 34 34 58t44 36.5t52 12.5q26 0 44 -10.5t33.5 -24t31.5 -23.5t38 -10q27 0 49 19t33 47h36q-13 -34 -32.5 -58t-43 -36.5t-50.5 -12.5z" />
    <glyph glyph-name="uni00A0" unicode="&#xa0;" horiz-adv-x="259" 
 />
    <glyph glyph-name="exclamdown" unicode="&#xa1;" horiz-adv-x="203" 
d="M142 342l-88 -531h-49l100 531h37zM141 516q18 0 30 -12.5t12 -30.5q0 -17 -12 -29.5t-30 -12.5q-17 0 -29.5 12.5t-12.5 29.5q0 18 12.5 30.5t29.5 12.5z" />
    <glyph glyph-name="cent" unicode="&#xa2;" horiz-adv-x="544" 
d="M197 -105l21 124h44l-21 -124h-44zM301 486l22 123h43l-21 -123h-44zM238 -12q-65 0 -111.5 30.5t-68.5 85.5t-13 128q7 65 32.5 117t64 89t87 57.5t101.5 20.5q86 0 135 -44t51 -115h-47q-2 56 -42 87t-103 31q-54 0 -103.5 -27.5t-84.5 -81t-43 -131.5q-7 -53 2.5 -92
t31.5 -64.5t52 -38t63 -12.5q43 0 80.5 13.5t66.5 40t43 64.5h47q-17 -45 -51.5 -81t-82.5 -56.5t-107 -20.5z" />
    <glyph glyph-name="sterling" unicode="&#xa3;" horiz-adv-x="581" 
d="M52 0l6 31q31 31 56 60t41.5 63t20.5 79q5 35 0 64.5t-12.5 58.5t-12 62.5t1.5 75.5q6 64 39 113.5t85 77t116 27.5q54 0 89.5 -18t55 -47t26 -63t3.5 -68h-43q4 44 -8.5 79t-43.5 56.5t-84 21.5q-44 0 -85.5 -20t-70.5 -59.5t-36 -98.5q-5 -39 -0.5 -71.5t12 -62.5
t12.5 -61t0 -66q-6 -61 -36.5 -107t-76.5 -89h374l-7 -38h-422zM60 321l6 34h341l-5 -34h-342z" />
    <glyph glyph-name="currency" unicode="&#xa4;" horiz-adv-x="508" 
d="M230 124q-44 0 -77 20.5t-49 58t-11 85.5q6 55 34.5 96t71.5 64t93 23q44 0 77.5 -20.5t50 -57t10.5 -85.5q-6 -53 -35 -95t-72 -65.5t-93 -23.5zM63 102l-20 26l88 75l16 -29zM391 102l-58 71l26 28l61 -74zM237 163q35 0 66.5 17t53.5 49t27 77q5 43 -8 70.5
t-37.5 41.5t-53.5 14q-35 0 -66 -17t-52.5 -49t-27.5 -78q-5 -42 7.5 -70t37 -41.5t53.5 -13.5zM166 394l-63 75l29 25l59 -72zM391 393l-16 28l84 73l22 -25z" />
    <glyph glyph-name="yen" unicode="&#xa5;" horiz-adv-x="561" 
d="M46 187l6 35h445l-6 -35h-445zM272 328h-203l6 35h190zM312 328l20 35h188l-6 -35h-202zM214 0l52 293l-150 407h50l130 -364v0l254 364h52l-291 -407l-52 -293h-45z" />
    <glyph glyph-name="brokenbar" unicode="&#xa6;" horiz-adv-x="201" 
d="M101 381l60 339h45l-60 -339h-45zM17 -100l59 339h45l-59 -339h-45z" />
    <glyph glyph-name="section" unicode="&#xa7;" horiz-adv-x="563" 
d="M198 -232q-66 0 -108.5 25.5t-60 68t-7.5 94.5h46q-7 -39 4.5 -73t43.5 -54.5t87 -20.5q49 0 89.5 18.5t66 52.5t31.5 80q4 36 -9.5 58.5t-41.5 37.5t-67 28.5t-87 31.5q-44 16 -76 37.5t-48 54t-10 81.5q4 42 26.5 82t59.5 68q-10 16 -13 35t0 41q5 56 35.5 101t81.5 71
t119 26q64 0 107 -25t62 -67.5t8 -95.5h-46q7 34 -4 68.5t-43 57.5t-89 23q-48 -1 -88 -19t-65 -51.5t-31 -81.5q-4 -36 9.5 -58t41.5 -37.5t67 -29.5t86 -31q43 -17 74 -40t47 -56t11 -79q-5 -43 -25.5 -81t-57.5 -66q10 -19 13.5 -40.5t-1.5 -48.5q-9 -52 -40 -94
t-80.5 -67t-117.5 -25zM398 72q27 21 42.5 49t19.5 64q5 44 -12.5 71.5t-49 45.5t-69 31t-73.5 26q-34 13 -56 24.5t-38 25.5q-27 -21 -43.5 -51t-21.5 -67q-4 -36 7 -61t34.5 -41t54.5 -28.5t65 -23t68 -24.5q22 -10 39.5 -19t32.5 -22z" />
    <glyph glyph-name="dieresis" unicode="&#xa8;" horiz-adv-x="221" 
d="M104 574q-16 0 -28 11.5t-12 27.5q0 17 12 28.5t28 11.5t27.5 -12t11.5 -28t-11.5 -27.5t-27.5 -11.5zM245 574q-16 0 -28 11.5t-12 27.5q0 17 12 28.5t28 11.5t27.5 -12t11.5 -28t-11.5 -27.5t-27.5 -11.5z" />
    <glyph glyph-name="copyright" unicode="&#xa9;" horiz-adv-x="796" 
d="M353 -3q-89 0 -153.5 36.5t-99.5 100.5t-35 147q0 87 31 163t87 134t131 90.5t163 32.5q90 0 154.5 -36t99.5 -100t35 -147q0 -86 -31.5 -162.5t-88 -134.5t-131 -91t-162.5 -33zM373 115q-50 0 -90 21t-64 61.5t-24 99.5q0 58 20 110t55 92t83 63.5t103 23.5
q73 0 121 -38t56 -110h-45q-7 55 -45.5 82.5t-91.5 27.5q-63 0 -111 -34.5t-74.5 -91.5t-26.5 -122q0 -74 40.5 -111.5t101.5 -37.5q56 0 102 27.5t74 82.5h45q-22 -45 -57.5 -78t-79.5 -50.5t-92 -17.5zM358 24q83 0 152.5 30.5t120 84.5t78.5 124.5t28 151.5
q0 76 -31 134.5t-90 91.5t-143 33q-83 0 -152.5 -30.5t-120 -84t-78.5 -124.5t-28 -152q0 -75 31 -133.5t90 -92t143 -33.5z" />
    <glyph glyph-name="ordfeminine" unicode="&#xaa;" horiz-adv-x="444" 
d="M220 348q-46 0 -77.5 21.5t-45 59.5t-7.5 87q5 55 31.5 99.5t69 70.5t94.5 26q54 0 86.5 -27.5t38.5 -75.5l19 96h34l-62 -350h-32l11 94v0q-24 -45 -65 -73t-95 -28zM233 380q41 0 75 22t56 59t27 81q8 64 -21.5 101t-82.5 37q-40 0 -74 -20.5t-56.5 -56.5t-27.5 -84
q-8 -65 22 -102t82 -37z" />
    <glyph glyph-name="guillemotleft" unicode="&#xab;" horiz-adv-x="406" 
d="M282 120l-72 175l134 175h49l-136 -176l73 -174h-48zM126 120l-72 175l134 175h49l-136 -176l73 -174h-48z" />
    <glyph glyph-name="logicalnot" unicode="&#xac;" horiz-adv-x="500" 
d="M479 243l25 146h-504l7 39h549l-33 -185h-44z" />
    <glyph glyph-name="registered" unicode="&#xae;" horiz-adv-x="504" 
d="M264 319q-53 0 -90.5 23t-56 62.5t-13.5 90.5q5 61 37 110t82.5 78t110.5 29q53 0 90 -23t55.5 -63t12.5 -92q-5 -60 -36.5 -108.5t-81.5 -77.5t-110 -29zM327 408l-49 101h40l52 -101h-43zM267 347q53 0 96 25.5t69.5 67.5t30.5 94q7 66 -28.5 108.5t-103.5 42.5
q-54 0 -97 -25.5t-69.5 -68.5t-30.5 -97q-7 -64 28.5 -105.5t104.5 -41.5zM206 408l38 216h88q30 0 46 -15t14 -43q-3 -32 -25.5 -51t-57.5 -19h-52l-15 -88h-36zM263 530h51q16 0 28.5 7.5t13.5 26.5q1 14 -7.5 20t-23.5 6h-51z" />
    <glyph glyph-name="macron" unicode="&#xaf;" horiz-adv-x="324" 
d="M61 597l7 39h323l-6 -39h-324z" />
    <glyph glyph-name="degree" unicode="&#xb0;" horiz-adv-x="333" 
d="M224 460q-33 0 -61 15.5t-44.5 43.5t-16.5 66q0 40 16.5 68t44.5 43.5t62 15.5t61.5 -15.5t44 -43.5t16.5 -68q0 -37 -16.5 -65.5t-44.5 -44t-62 -15.5zM224 505q28 0 52 20.5t24 60.5q0 41 -23.5 61.5t-51.5 20.5q-27 0 -51 -20.5t-24 -61.5q0 -40 23.5 -60.5
t50.5 -20.5z" />
    <glyph glyph-name="plusminus" unicode="&#xb1;" horiz-adv-x="500" 
d="M-6 103l7 36h459l-7 -36h-459zM219 202l61 346h43l-61 -346h-43zM38 356l7 39h459l-7 -39h-459z" />
    <glyph glyph-name="uni00B2" unicode="&#xb2;" horiz-adv-x="306" 
d="M51 352l5 27l127 99q34 27 61 56t33 69q7 37 -10 55t-47 18q-31 0 -53 -17.5t-32 -52.5h-40q11 41 44 71.5t87 30.5q32 0 54.5 -12.5t33 -36t4.5 -55.5q-7 -41 -34.5 -74t-77.5 -71l-98 -74h180l-6 -33h-231z" />
    <glyph glyph-name="uni00B3" unicode="&#xb3;" horiz-adv-x="305" 
d="M168 347q-53 0 -81 25t-25 75h38q-1 -27 9 -42t27.5 -20.5t37.5 -5.5q34 0 59 17.5t31 51.5q5 30 -13.5 48.5t-59.5 18.5h-50l6 31h49q36 0 61.5 17t30.5 49q5 29 -13 46.5t-51 17.5q-35 0 -58 -16t-34 -40h-36q13 39 49.5 63.5t86.5 24.5q45 0 75 -25.5t22 -69.5
q-6 -33 -28 -54t-54 -28v-2q29 -5 45.5 -27.5t10.5 -56.5q-7 -41 -43.5 -69.5t-91.5 -28.5z" />
    <glyph glyph-name="acute" unicode="&#xb4;" horiz-adv-x="183" 
d="M59 545l-1 36l194 123v0l3 -43z" />
    <glyph glyph-name="uni00B5" unicode="&#xb5;" horiz-adv-x="552" 
d="M-12 -220l126 716h45l-56 -318q-12 -71 16 -110t102 -39q49 0 92 22t74.5 67t44.5 111l46 267h45l-87 -496h-40l14 101h-2q-35 -56 -88 -84.5t-112 -28.5q-47 0 -80 15t-49 39l-46 -262h-45z" />
    <glyph glyph-name="paragraph" unicode="&#xb6;" horiz-adv-x="539" 
d="M220 -100l72 406h-4q-71 0 -116.5 22.5t-67.5 60.5t-22 84q0 73 35.5 123.5t97.5 77t142 26.5h184l-142 -800h-41l134 763h-96l-135 -763h-41z" />
    <glyph glyph-name="periodcentered" unicode="&#xb7;" horiz-adv-x="162" 
d="M96 295q-17 0 -29.5 12.5t-12.5 29.5q0 18 12.5 30t29.5 12q18 0 30 -12t12 -30q0 -17 -12 -29.5t-30 -12.5z" />
    <glyph glyph-name="cedilla" unicode="&#xb8;" horiz-adv-x="200" 
d="M-89 -255l6 33h77q44 0 66.5 18t25.5 44q3 27 -14 40t-60 13h-40l20 114h35l-15 -82q41 2 67.5 -7.5t38.5 -29t9 -47.5q-3 -27 -19.5 -49t-44.5 -34.5t-65 -12.5h-87z" />
    <glyph glyph-name="uni00B9" unicode="&#xb9;" horiz-adv-x="176" 
d="M111 352l55 310l-68 -20l4 26l78 36h32l-62 -352h-39z" />
    <glyph glyph-name="ordmasculine" unicode="&#xba;" horiz-adv-x="436" 
d="M234 347q-46 0 -79.5 21t-49.5 59t-10 89q6 57 35 101.5t73 69.5t95 25q46 0 80 -20.5t50.5 -58.5t10.5 -90q-6 -56 -35 -100.5t-73.5 -70t-96.5 -25.5zM240 381q40 0 74 20t56.5 56.5t27.5 84.5q6 46 -7 76.5t-38.5 46t-60.5 15.5q-39 0 -73 -20.5t-56.5 -57
t-28.5 -84.5q-5 -45 7.5 -75.5t38.5 -46t60 -15.5z" />
    <glyph glyph-name="guillemotright" unicode="&#xbb;" horiz-adv-x="405" 
d="M139 470l72 -175l-134 -175h-49l136 176l-74 174h49zM295 470l72 -175l-134 -175h-49l136 176l-74 174h49z" />
    <glyph glyph-name="onequarter" unicode="&#xbc;" horiz-adv-x="709" 
d="M111 352l55 310l-68 -20l4 26l78 36h32l-62 -352h-39zM58 0l541 700h49l-542 -700h-48zM558 0l13 74h-178l6 32l215 242h44l-43 -241h54l-6 -33h-54l-13 -74h-38zM440 107h139l35 198v0z" />
    <glyph glyph-name="onehalf" unicode="&#xbd;" horiz-adv-x="770" 
d="M111 352l55 310l-68 -20l4 26l78 36h32l-62 -352h-39zM58 0l541 700h49l-542 -700h-48zM453 0l5 27l127 99q34 27 61 56t33 69q7 37 -10 55t-47 18q-31 0 -53 -17.5t-32 -52.5h-40q11 41 44 71.5t87 30.5q32 0 54.5 -12.5t33 -36t4.5 -55.5q-7 -41 -34.5 -74t-77.5 -71
l-98 -74h180l-6 -33h-231z" />
    <glyph glyph-name="threequarters" unicode="&#xbe;" horiz-adv-x="784" 
d="M168 347q-53 0 -81 25t-25 75h38q-1 -27 9 -42t27.5 -20.5t37.5 -5.5q34 0 59 17.5t31 51.5q5 30 -13.5 48.5t-59.5 18.5h-50l6 31h49q36 0 61.5 17t30.5 49q5 29 -13 46.5t-51 17.5q-35 0 -58 -16t-34 -40h-36q13 39 49.5 63.5t86.5 24.5q45 0 75 -25.5t22 -69.5
q-6 -33 -28 -54t-54 -28v-2q29 -5 45.5 -27.5t10.5 -56.5q-7 -41 -43.5 -69.5t-91.5 -28.5zM132 0l541 700h49l-542 -700h-48zM632 0l13 74h-178l6 32l215 242h44l-43 -241h54l-6 -33h-54l-13 -74h-38zM514 107h139l35 198v0z" />
    <glyph glyph-name="questiondown" unicode="&#xbf;" horiz-adv-x="509" 
d="M353 319l-22 -143h-18q-49 0 -94.5 -9t-82 -29.5t-60.5 -56.5t-30 -90q-5 -46 10.5 -80.5t50 -53t82.5 -18.5q51 0 92 18.5t68.5 53t35.5 81.5h43q-11 -60 -47 -103.5t-88 -66.5t-111 -23t-102.5 23.5t-64 66.5t-14.5 99q8 75 48 124.5t103 74t141 24.5l22 108h38z
M361 516q18 0 30 -12.5t12 -30.5q0 -17 -12 -29.5t-30 -12.5q-17 0 -29.5 12.5t-12.5 29.5q0 18 12.5 30.5t29.5 12.5z" />
    <glyph glyph-name="Agrave" unicode="&#xc0;" horiz-adv-x="627" 
d="M-10 0l381 700h48l130 -700h-47l-117 645v0l-346 -645h-49zM129 222l20 38h331l8 -38h-359zM501 753l-181 117l14 40v0l178 -121z" />
    <glyph glyph-name="Aacute" unicode="&#xc1;" horiz-adv-x="627" 
d="M-10 0l381 700h48l130 -700h-47l-117 645v0l-346 -645h-49zM129 222l20 38h331l8 -38h-359zM317 753l-1 36l194 123v0l3 -43z" />
    <glyph glyph-name="Acircumflex" unicode="&#xc2;" horiz-adv-x="627" 
d="M-10 0l381 700h48l130 -700h-47l-117 645v0l-346 -645h-49zM129 222l20 38h331l8 -38h-359zM274 760l7 40l144 85l114 -85l-7 -40l-112 84z" />
    <glyph glyph-name="Atilde" unicode="&#xc3;" horiz-adv-x="627" 
d="M-10 0l381 700h48l130 -700h-47l-117 645v0l-346 -645h-49zM129 222l20 38h331l8 -38h-359zM277 770q11 38 35.5 59t54.5 21q24 0 39 -12t28.5 -24t32.5 -12q17 0 30 11.5t20 33.5h32q-9 -35 -33.5 -57t-54.5 -22q-24 0 -39 12t-28.5 24t-33.5 12q-16 0 -29.5 -11.5
t-21.5 -34.5h-32z" />
    <glyph glyph-name="Adieresis" unicode="&#xc4;" horiz-adv-x="627" 
d="M-10 0l381 700h48l130 -700h-47l-117 645v0l-346 -645h-49zM129 222l20 38h331l8 -38h-359zM344 778q-16 0 -28 11.5t-12 27.5q0 17 12 28.5t28 11.5t27.5 -12t11.5 -28t-11.5 -27.5t-27.5 -11.5zM485 778q-16 0 -28 11.5t-12 27.5q0 17 12 28.5t28 11.5t27.5 -12
t11.5 -28t-11.5 -27.5t-27.5 -11.5z" />
    <glyph glyph-name="Aring" unicode="&#xc5;" horiz-adv-x="627" 
d="M-10 0l381 700h48l130 -700h-47l-117 645v0l-346 -645h-49zM129 222l20 38h331l8 -38h-359zM422 770q-40 0 -68.5 25t-28.5 69q0 45 28.5 70t68.5 25q41 0 69 -25t28 -70q0 -44 -28 -69t-69 -25zM422 799q29 0 47 17.5t18 47.5q0 31 -18 48.5t-47 17.5q-28 0 -46 -17.5
t-18 -48.5q0 -30 18 -47.5t46 -17.5z" />
    <glyph glyph-name="AE" unicode="&#xc6;" horiz-adv-x="883" 
d="M-10 0l541 700h373l-6 -37h-305l-53 -294h275l-6 -37h-275l-52 -295h305l-7 -37h-350l116 654v0l-506 -654h-50zM172 203l25 37h296l-7 -37h-314z" />
    <glyph glyph-name="Ccedilla" unicode="&#xc7;" horiz-adv-x="699" 
d="M329 -12q-95 0 -158 41.5t-91.5 116t-16.5 173.5q9 86 42 158t85 124.5t119.5 81.5t145.5 29q114 0 175 -52.5t67 -148.5h-50q-6 73 -53.5 116.5t-144.5 43.5q-66 0 -123.5 -24.5t-103 -70.5t-74.5 -110.5t-37 -144.5q-12 -92 12.5 -157t79 -100t133.5 -35q96 0 160 44.5
t94 116.5h50q-26 -64 -70 -109t-104.5 -69t-136.5 -24zM216 -255l6 33h77q44 0 66.5 18t25.5 44q3 27 -14 40t-60 13h-40l20 114h35l-15 -82q41 2 67.5 -7.5t38.5 -29t9 -47.5q-3 -27 -19.5 -49t-44.5 -34.5t-65 -12.5h-87z" />
    <glyph glyph-name="Egrave" unicode="&#xc8;" horiz-adv-x="536" 
d="M34 0l124 700h400l-7 -37h-355l-52 -294h325l-6 -37h-326l-51 -295h354l-6 -37h-400zM457 753l-181 117l14 40v0l178 -121z" />
    <glyph glyph-name="Eacute" unicode="&#xc9;" horiz-adv-x="536" 
d="M34 0l124 700h400l-7 -37h-355l-52 -294h325l-6 -37h-326l-51 -295h354l-6 -37h-400zM274 753l-1 36l194 123v0l3 -43z" />
    <glyph glyph-name="Ecircumflex" unicode="&#xca;" horiz-adv-x="536" 
d="M34 0l124 700h400l-7 -37h-355l-52 -294h325l-6 -37h-326l-51 -295h354l-6 -37h-400zM231 760l7 40l144 85l114 -85l-7 -40l-112 84z" />
    <glyph glyph-name="Edieresis" unicode="&#xcb;" horiz-adv-x="536" 
d="M34 0l124 700h400l-7 -37h-355l-52 -294h325l-6 -37h-326l-51 -295h354l-6 -37h-400zM300 778q-16 0 -28 11.5t-12 27.5q0 17 12 28.5t28 11.5t27.5 -12t11.5 -28t-11.5 -27.5t-27.5 -11.5zM441 778q-16 0 -28 11.5t-12 27.5q0 17 12 28.5t28 11.5t27.5 -12t11.5 -28
t-11.5 -27.5t-27.5 -11.5z" />
    <glyph glyph-name="Igrave" unicode="&#xcc;" horiz-adv-x="201" 
d="M34 0l124 700h45l-124 -700h-45zM288 753l-181 117l14 40v0l178 -121z" />
    <glyph glyph-name="Iacute" unicode="&#xcd;" horiz-adv-x="201" 
d="M34 0l124 700h45l-124 -700h-45zM105 753l-1 36l194 123v0l3 -43z" />
    <glyph glyph-name="Icircumflex" unicode="&#xce;" horiz-adv-x="201" 
d="M34 0l124 700h45l-124 -700h-45zM62 760l7 40l144 85l114 -85l-7 -40l-112 84z" />
    <glyph glyph-name="Idieresis" unicode="&#xcf;" horiz-adv-x="201" 
d="M34 0l124 700h45l-124 -700h-45zM131 778q-16 0 -28 11.5t-12 27.5q0 17 12 28.5t28 11.5t27.5 -12t11.5 -28t-11.5 -27.5t-27.5 -11.5zM272 778q-16 0 -28 11.5t-12 27.5q0 17 12 28.5t28 11.5t27.5 -12t11.5 -28t-11.5 -27.5t-27.5 -11.5z" />
    <glyph glyph-name="Eth" unicode="&#xd0;" horiz-adv-x="712" 
d="M24 330l7 41h367l-8 -41h-366zM74 0l124 700h183q118 0 188 -38t98 -110.5t15 -178.5q-8 -82 -38.5 -150t-83 -118.5t-127 -77.5t-172.5 -27h-187zM126 38h141q111 0 189 40.5t123 115.5t56 177q12 91 -10 156.5t-82 100t-166 34.5h-141z" />
    <glyph glyph-name="Ntilde" unicode="&#xd1;" horiz-adv-x="658" 
d="M34 0l123 700h48l299 -628v0l111 628h45l-124 -700h-46l-300 631v0l-111 -631h-45zM292 770q11 38 35.5 59t54.5 21q24 0 39 -12t28.5 -24t32.5 -12q17 0 30 11.5t20 33.5h32q-9 -35 -33.5 -57t-54.5 -22q-24 0 -39 12t-28.5 24t-33.5 12q-16 0 -29.5 -11.5t-21.5 -34.5
h-32z" />
    <glyph glyph-name="Ograve" unicode="&#xd2;" horiz-adv-x="769" 
d="M337 -12q-94 0 -159.5 42.5t-95.5 119t-19 176.5q9 83 43 153.5t88.5 122.5t123.5 81t147 29q95 0 160.5 -43t96 -119t18.5 -175q-9 -84 -43 -154.5t-88 -123t-123.5 -81t-148.5 -28.5zM344 29q66 0 125 24t106.5 70t78 109.5t39.5 142.5q11 94 -16 160t-84 101t-134 35
q-66 0 -125 -24.5t-106.5 -69.5t-78 -108.5t-38.5 -141.5q-12 -94 15.5 -160.5t84 -102t133.5 -35.5zM578 753l-181 117l14 40v0l178 -121z" />
    <glyph glyph-name="Oacute" unicode="&#xd3;" horiz-adv-x="769" 
d="M337 -12q-94 0 -159.5 42.5t-95.5 119t-19 176.5q9 83 43 153.5t88.5 122.5t123.5 81t147 29q95 0 160.5 -43t96 -119t18.5 -175q-9 -84 -43 -154.5t-88 -123t-123.5 -81t-148.5 -28.5zM344 29q66 0 125 24t106.5 70t78 109.5t39.5 142.5q11 94 -16 160t-84 101t-134 35
q-66 0 -125 -24.5t-106.5 -69.5t-78 -108.5t-38.5 -141.5q-12 -94 15.5 -160.5t84 -102t133.5 -35.5zM395 753l-1 36l194 123v0l3 -43z" />
    <glyph glyph-name="Ocircumflex" unicode="&#xd4;" horiz-adv-x="769" 
d="M337 -12q-94 0 -159.5 42.5t-95.5 119t-19 176.5q9 83 43 153.5t88.5 122.5t123.5 81t147 29q95 0 160.5 -43t96 -119t18.5 -175q-9 -84 -43 -154.5t-88 -123t-123.5 -81t-148.5 -28.5zM344 29q66 0 125 24t106.5 70t78 109.5t39.5 142.5q11 94 -16 160t-84 101t-134 35
q-66 0 -125 -24.5t-106.5 -69.5t-78 -108.5t-38.5 -141.5q-12 -94 15.5 -160.5t84 -102t133.5 -35.5zM352 760l7 40l144 85l114 -85l-7 -40l-112 84z" />
    <glyph glyph-name="Otilde" unicode="&#xd5;" horiz-adv-x="769" 
d="M337 -12q-94 0 -159.5 42.5t-95.5 119t-19 176.5q9 83 43 153.5t88.5 122.5t123.5 81t147 29q95 0 160.5 -43t96 -119t18.5 -175q-9 -84 -43 -154.5t-88 -123t-123.5 -81t-148.5 -28.5zM344 29q66 0 125 24t106.5 70t78 109.5t39.5 142.5q11 94 -16 160t-84 101t-134 35
q-66 0 -125 -24.5t-106.5 -69.5t-78 -108.5t-38.5 -141.5q-12 -94 15.5 -160.5t84 -102t133.5 -35.5zM354 770q11 38 35.5 59t54.5 21q24 0 39 -12t28.5 -24t32.5 -12q17 0 30 11.5t20 33.5h32q-9 -35 -33.5 -57t-54.5 -22q-24 0 -39 12t-28.5 24t-33.5 12
q-16 0 -29.5 -11.5t-21.5 -34.5h-32z" />
    <glyph glyph-name="Odieresis" unicode="&#xd6;" horiz-adv-x="769" 
d="M337 -12q-94 0 -159.5 42.5t-95.5 119t-19 176.5q9 83 43 153.5t88.5 122.5t123.5 81t147 29q95 0 160.5 -43t96 -119t18.5 -175q-9 -84 -43 -154.5t-88 -123t-123.5 -81t-148.5 -28.5zM344 29q66 0 125 24t106.5 70t78 109.5t39.5 142.5q11 94 -16 160t-84 101t-134 35
q-66 0 -125 -24.5t-106.5 -69.5t-78 -108.5t-38.5 -141.5q-12 -94 15.5 -160.5t84 -102t133.5 -35.5zM421 778q-16 0 -28 11.5t-12 27.5q0 17 12 28.5t28 11.5t27.5 -12t11.5 -28t-11.5 -27.5t-27.5 -11.5zM562 778q-16 0 -28 11.5t-12 27.5q0 17 12 28.5t28 11.5t27.5 -12
t11.5 -28t-11.5 -27.5t-27.5 -11.5z" />
    <glyph glyph-name="multiply" unicode="&#xd7;" horiz-adv-x="500" 
d="M84 120l-24 28l167 144l-114 138l32 27l115 -139l169 143l24 -28l-170 -143l115 -139l-33 -26l-114 139z" />
    <glyph glyph-name="Oslash" unicode="&#xd8;" horiz-adv-x="752" 
d="M0 0l711 700h54l-711 -700h-54zM333 -12q-94 0 -160 42.5t-96 119t-18 176.5q9 83 43 153.5t88 122.5t123.5 81t147.5 29q95 0 160.5 -43t95.5 -118.5t18 -175.5q-8 -84 -42.5 -154.5t-88.5 -123t-123 -81t-148 -28.5zM339 29q66 0 125.5 24t106.5 70t78 110t39 142
q12 94 -15.5 160t-84 101t-133.5 35q-66 0 -125.5 -24.5t-106.5 -69.5t-77.5 -108.5t-39.5 -141.5q-11 -94 16 -160.5t84 -102t133 -35.5z" />
    <glyph glyph-name="Ugrave" unicode="&#xd9;" horiz-adv-x="631" 
d="M270 -12q-72 0 -122.5 29t-71.5 87t-5 145l80 451h45l-80 -450q-13 -75 3 -124t57 -72.5t101 -23.5q59 0 107.5 22.5t82.5 71.5t47 127l80 449h45l-80 -451q-16 -91 -58.5 -148.5t-102.5 -85t-128 -27.5zM511 753l-181 117l14 40v0l178 -121z" />
    <glyph glyph-name="Uacute" unicode="&#xda;" horiz-adv-x="631" 
d="M270 -12q-72 0 -122.5 29t-71.5 87t-5 145l80 451h45l-80 -450q-13 -75 3 -124t57 -72.5t101 -23.5q59 0 107.5 22.5t82.5 71.5t47 127l80 449h45l-80 -451q-16 -91 -58.5 -148.5t-102.5 -85t-128 -27.5zM328 753l-1 36l194 123v0l3 -43z" />
    <glyph glyph-name="Ucircumflex" unicode="&#xdb;" horiz-adv-x="631" 
d="M270 -12q-72 0 -122.5 29t-71.5 87t-5 145l80 451h45l-80 -450q-13 -75 3 -124t57 -72.5t101 -23.5q59 0 107.5 22.5t82.5 71.5t47 127l80 449h45l-80 -451q-16 -91 -58.5 -148.5t-102.5 -85t-128 -27.5zM285 760l7 40l144 85l114 -85l-7 -40l-112 84z" />
    <glyph glyph-name="Udieresis" unicode="&#xdc;" horiz-adv-x="631" 
d="M270 -12q-72 0 -122.5 29t-71.5 87t-5 145l80 451h45l-80 -450q-13 -75 3 -124t57 -72.5t101 -23.5q59 0 107.5 22.5t82.5 71.5t47 127l80 449h45l-80 -451q-16 -91 -58.5 -148.5t-102.5 -85t-128 -27.5zM355 778q-16 0 -28 11.5t-12 27.5q0 17 12 28.5t28 11.5t27.5 -12
t11.5 -28t-11.5 -27.5t-27.5 -11.5zM496 778q-16 0 -28 11.5t-12 27.5q0 17 12 28.5t28 11.5t27.5 -12t11.5 -28t-11.5 -27.5t-27.5 -11.5z" />
    <glyph glyph-name="Yacute" unicode="&#xdd;" horiz-adv-x="535" 
d="M202 0l51 293l-150 407h51l130 -364v0l254 364h52l-292 -407l-51 -293h-45zM280 753l-1 36l194 123v0l3 -43z" />
    <glyph glyph-name="Thorn" unicode="&#xde;" horiz-adv-x="553" 
d="M34 0l124 700h45l-28 -155h159q79 0 124.5 -24t63 -65t10.5 -93q-6 -62 -38.5 -108.5t-90 -72t-137.5 -25.5h-159l-28 -157h-45zM113 196h158q100 0 153.5 44t61.5 123q9 70 -29 107t-132 37h-157z" />
    <glyph glyph-name="germandbls" unicode="&#xdf;" horiz-adv-x="619" 
d="M361 -10q-84 0 -125 47.5t-33 126.5h46q-7 -61 22 -98.5t96 -37.5q60 0 98.5 32.5t44.5 85.5q4 27 -4.5 47.5t-30 36.5t-58.5 28q-68 24 -96 48.5t-23 66.5q4 33 23 54.5t46 37.5t54 31.5t46.5 36t22.5 53.5q7 48 -28 77.5t-104 29.5q-81 0 -128.5 -46t-61.5 -124
l-93 -523h-45l94 530q10 58 40.5 103.5t80.5 72t120 26.5q63 0 102 -19.5t56.5 -52t12.5 -70.5q-3 -39 -23 -64t-47 -42t-54 -31.5t-45.5 -31t-21.5 -41.5q-3 -18 5.5 -32t32 -27t67.5 -28q65 -22 89 -56t18 -88q-4 -46 -29.5 -82t-68 -56.5t-98.5 -20.5z" />
    <glyph glyph-name="agrave" unicode="&#xe0;" horiz-adv-x="516" 
d="M175 -12q-55 0 -89 21t-48.5 55t-10.5 72q6 56 36.5 93.5t80 56t113.5 18.5h151q11 55 2 93t-37 58.5t-78 20.5q-63 0 -108 -29t-66 -88h-47q17 53 51 87.5t79 52t94 17.5q68 0 106 -27t49.5 -73.5t0.5 -106.5l-54 -309h-39l12 100v0q-11 -17 -28 -36.5t-41.5 -36.5
t-56 -28t-72.5 -11zM186 28q43 0 78 17t61.5 44t43.5 59.5t23 63.5l10 53h-148q-59 0 -97 -16t-58 -44t-24 -65q-6 -50 22 -81t89 -31zM400 545l-181 117l14 40v0l178 -121z" />
    <glyph glyph-name="aacute" unicode="&#xe1;" horiz-adv-x="516" 
d="M175 -12q-55 0 -89 21t-48.5 55t-10.5 72q6 56 36.5 93.5t80 56t113.5 18.5h151q11 55 2 93t-37 58.5t-78 20.5q-63 0 -108 -29t-66 -88h-47q17 53 51 87.5t79 52t94 17.5q68 0 106 -27t49.5 -73.5t0.5 -106.5l-54 -309h-39l12 100v0q-11 -17 -28 -36.5t-41.5 -36.5
t-56 -28t-72.5 -11zM186 28q43 0 78 17t61.5 44t43.5 59.5t23 63.5l10 53h-148q-59 0 -97 -16t-58 -44t-24 -65q-6 -50 22 -81t89 -31zM217 545l-1 36l194 123v0l3 -43z" />
    <glyph glyph-name="acircumflex" unicode="&#xe2;" horiz-adv-x="516" 
d="M175 -12q-55 0 -89 21t-48.5 55t-10.5 72q6 56 36.5 93.5t80 56t113.5 18.5h151q11 55 2 93t-37 58.5t-78 20.5q-63 0 -108 -29t-66 -88h-47q17 53 51 87.5t79 52t94 17.5q68 0 106 -27t49.5 -73.5t0.5 -106.5l-54 -309h-39l12 100v0q-11 -17 -28 -36.5t-41.5 -36.5
t-56 -28t-72.5 -11zM186 28q43 0 78 17t61.5 44t43.5 59.5t23 63.5l10 53h-148q-59 0 -97 -16t-58 -44t-24 -65q-6 -50 22 -81t89 -31zM174 555l7 40l144 85l114 -85l-7 -40l-112 84z" />
    <glyph glyph-name="atilde" unicode="&#xe3;" horiz-adv-x="516" 
d="M175 -12q-55 0 -89 21t-48.5 55t-10.5 72q6 56 36.5 93.5t80 56t113.5 18.5h151q11 55 2 93t-37 58.5t-78 20.5q-63 0 -108 -29t-66 -88h-47q17 53 51 87.5t79 52t94 17.5q68 0 106 -27t49.5 -73.5t0.5 -106.5l-54 -309h-39l12 100v0q-11 -17 -28 -36.5t-41.5 -36.5
t-56 -28t-72.5 -11zM186 28q43 0 78 17t61.5 44t43.5 59.5t23 63.5l10 53h-148q-59 0 -97 -16t-58 -44t-24 -65q-6 -50 22 -81t89 -31zM176 569q11 38 35.5 59t54.5 21q24 0 39 -12t28.5 -24t32.5 -12q17 0 30 11.5t20 33.5h32q-9 -35 -33.5 -57t-54.5 -22q-24 0 -39 12
t-28.5 24t-33.5 12q-16 0 -29.5 -11.5t-21.5 -34.5h-32z" />
    <glyph glyph-name="adieresis" unicode="&#xe4;" horiz-adv-x="516" 
d="M175 -12q-55 0 -89 21t-48.5 55t-10.5 72q6 56 36.5 93.5t80 56t113.5 18.5h151q11 55 2 93t-37 58.5t-78 20.5q-63 0 -108 -29t-66 -88h-47q17 53 51 87.5t79 52t94 17.5q68 0 106 -27t49.5 -73.5t0.5 -106.5l-54 -309h-39l12 100v0q-11 -17 -28 -36.5t-41.5 -36.5
t-56 -28t-72.5 -11zM186 28q43 0 78 17t61.5 44t43.5 59.5t23 63.5l10 53h-148q-59 0 -97 -16t-58 -44t-24 -65q-6 -50 22 -81t89 -31zM242 574q-16 0 -28 11.5t-12 27.5q0 17 12 28.5t28 11.5t27.5 -12t11.5 -28t-11.5 -27.5t-27.5 -11.5zM383 574q-16 0 -28 11.5t-12 27.5
q0 17 12 28.5t28 11.5t27.5 -12t11.5 -28t-11.5 -27.5t-27.5 -11.5z" />
    <glyph glyph-name="aring" unicode="&#xe5;" horiz-adv-x="516" 
d="M175 -12q-55 0 -89 21t-48.5 55t-10.5 72q6 56 36.5 93.5t80 56t113.5 18.5h151q11 55 2 93t-37 58.5t-78 20.5q-63 0 -108 -29t-66 -88h-47q17 53 51 87.5t79 52t94 17.5q68 0 106 -27t49.5 -73.5t0.5 -106.5l-54 -309h-39l12 100v0q-11 -17 -28 -36.5t-41.5 -36.5
t-56 -28t-72.5 -11zM186 28q43 0 78 17t61.5 44t43.5 59.5t23 63.5l10 53h-148q-59 0 -97 -16t-58 -44t-24 -65q-6 -50 22 -81t89 -31zM321 569q-40 0 -68.5 25t-28.5 69q0 45 28.5 70t68.5 25q41 0 69 -25t28 -70q0 -44 -28 -69t-69 -25zM321 598q29 0 47 17.5t18 47.5
q0 31 -18 48.5t-47 17.5q-28 0 -46 -17.5t-18 -48.5q0 -30 18 -47.5t46 -17.5z" />
    <glyph glyph-name="ae" unicode="&#xe6;" horiz-adv-x="897" 
d="M174 -12q-54 0 -88 20.5t-48.5 54.5t-10.5 72q6 56 36 93.5t79 56.5t111 19h158q10 54 1.5 92t-36.5 59t-79 21q-61 0 -106.5 -29t-66.5 -88h-47q17 53 51.5 87.5t80 52t93.5 17.5q51 0 84 -16t51 -43.5t22 -64.5q38 59 96 91.5t127 32.5q70 0 112.5 -30t59.5 -79.5
t9 -108.5q0 -9 -2 -19.5t-3.5 -20t-3.5 -16.5h-407q-11 -68 5 -116.5t53.5 -73t88.5 -24.5q65 0 112 31.5t76 87.5h45q-21 -46 -55 -82t-80.5 -56.5t-104.5 -20.5q-75 0 -122 38.5t-60 105.5q-20 -42 -54 -74.5t-79 -51t-98 -18.5zM185 29q57 0 100.5 25.5t72 67t37.5 88.5
l10 55h-155q-57 0 -94 -15.5t-57 -44t-24 -66.5q-4 -31 7 -56t37.5 -39.5t65.5 -14.5zM454 281h364q10 66 -5 109t-51 64.5t-89 21.5q-47 0 -92 -21t-78.5 -64t-48.5 -110z" />
    <glyph glyph-name="ccedilla" unicode="&#xe7;" horiz-adv-x="544" 
d="M238 -12q-65 0 -111.5 30.5t-68.5 85.5t-13 128q7 65 32.5 117t64 89t87 57.5t101.5 20.5q86 0 135 -44t51 -115h-47q-2 56 -42 87t-103 31q-54 0 -103.5 -27.5t-84.5 -81t-43 -131.5q-7 -53 2.5 -92t31.5 -64.5t52 -38t63 -12.5q43 0 80.5 13.5t66.5 40t43 64.5h47
q-17 -45 -51.5 -81t-82.5 -56.5t-107 -20.5zM131 -255l6 33h77q44 0 66.5 18t25.5 44q3 27 -14 40t-60 13h-40l20 114h35l-15 -82q41 2 67.5 -7.5t38.5 -29t9 -47.5q-3 -27 -19.5 -49t-44.5 -34.5t-65 -12.5h-87z" />
    <glyph glyph-name="egrave" unicode="&#xe8;" horiz-adv-x="541" 
d="M230 -12q-66 0 -110.5 30.5t-63.5 86.5t-10 130q7 64 30.5 115.5t61 88.5t85 57t101.5 20q71 0 114 -30t60 -79.5t9 -108.5q0 -13 -3 -27.5t-6 -28.5h-420l7 39h377q10 66 -5.5 109t-51 64.5t-88.5 21.5q-48 0 -94 -22.5t-80.5 -68t-47.5 -116.5l-3 -18q-12 -73 3 -122.5
t52.5 -75t89.5 -25.5q64 0 110.5 30t74.5 83h45q-21 -44 -54.5 -79t-79 -54.5t-103.5 -19.5zM424 545l-181 117l14 40v0l178 -121z" />
    <glyph glyph-name="eacute" unicode="&#xe9;" horiz-adv-x="541" 
d="M230 -12q-66 0 -110.5 30.5t-63.5 86.5t-10 130q7 64 30.5 115.5t61 88.5t85 57t101.5 20q71 0 114 -30t60 -79.5t9 -108.5q0 -13 -3 -27.5t-6 -28.5h-420l7 39h377q10 66 -5.5 109t-51 64.5t-88.5 21.5q-48 0 -94 -22.5t-80.5 -68t-47.5 -116.5l-3 -18q-12 -73 3 -122.5
t52.5 -75t89.5 -25.5q64 0 110.5 30t74.5 83h45q-21 -44 -54.5 -79t-79 -54.5t-103.5 -19.5zM241 545l-1 36l194 123v0l3 -43z" />
    <glyph glyph-name="ecircumflex" unicode="&#xea;" horiz-adv-x="541" 
d="M230 -12q-66 0 -110.5 30.5t-63.5 86.5t-10 130q7 64 30.5 115.5t61 88.5t85 57t101.5 20q71 0 114 -30t60 -79.5t9 -108.5q0 -13 -3 -27.5t-6 -28.5h-420l7 39h377q10 66 -5.5 109t-51 64.5t-88.5 21.5q-48 0 -94 -22.5t-80.5 -68t-47.5 -116.5l-3 -18q-12 -73 3 -122.5
t52.5 -75t89.5 -25.5q64 0 110.5 30t74.5 83h45q-21 -44 -54.5 -79t-79 -54.5t-103.5 -19.5zM199 555l7 40l144 85l114 -85l-7 -40l-112 84z" />
    <glyph glyph-name="edieresis" unicode="&#xeb;" horiz-adv-x="541" 
d="M230 -12q-66 0 -110.5 30.5t-63.5 86.5t-10 130q7 64 30.5 115.5t61 88.5t85 57t101.5 20q71 0 114 -30t60 -79.5t9 -108.5q0 -13 -3 -27.5t-6 -28.5h-420l7 39h377q10 66 -5.5 109t-51 64.5t-88.5 21.5q-48 0 -94 -22.5t-80.5 -68t-47.5 -116.5l-3 -18q-12 -73 3 -122.5
t52.5 -75t89.5 -25.5q64 0 110.5 30t74.5 83h45q-21 -44 -54.5 -79t-79 -54.5t-103.5 -19.5zM267 574q-16 0 -28 11.5t-12 27.5q0 17 12 28.5t28 11.5t27.5 -12t11.5 -28t-11.5 -27.5t-27.5 -11.5zM408 574q-16 0 -28 11.5t-12 27.5q0 17 12 28.5t28 11.5t27.5 -12t11.5 -28
t-11.5 -27.5t-27.5 -11.5z" />
    <glyph glyph-name="igrave" unicode="&#xec;" horiz-adv-x="187" 
d="M27 0l89 504h45l-89 -504h-45zM244 545l-181 117l14 40v0l178 -121z" />
    <glyph glyph-name="iacute" unicode="&#xed;" horiz-adv-x="187" 
d="M27 0l89 504h45l-89 -504h-45zM61 545l-1 36l194 123v0l3 -43z" />
    <glyph glyph-name="icircumflex" unicode="&#xee;" horiz-adv-x="187" 
d="M27 0l89 504h45l-89 -504h-45zM18 555l7 40l144 85l114 -85l-7 -40l-112 84z" />
    <glyph glyph-name="idieresis" unicode="&#xef;" horiz-adv-x="187" 
d="M27 0l89 504h45l-89 -504h-45zM87 574q-16 0 -28 11.5t-12 27.5q0 17 12 28.5t28 11.5t27.5 -12t11.5 -28t-11.5 -27.5t-27.5 -11.5zM228 574q-16 0 -28 11.5t-12 27.5q0 17 12 28.5t28 11.5t27.5 -12t11.5 -28t-11.5 -27.5t-27.5 -11.5z" />
    <glyph glyph-name="eth" unicode="&#xf0;" horiz-adv-x="588" 
d="M250 -12q-70 0 -119 31.5t-71.5 88t-13.5 130.5q7 62 32 112t64.5 86.5t89 56.5t104.5 20t100.5 -22.5t70.5 -68.5q-7 41 -19.5 76t-32 67.5t-47.5 65.5t-66 69h50q47 -43 79.5 -89t51.5 -96t24.5 -105.5t-1.5 -116.5q-7 -76 -34 -132.5t-68 -95t-91 -58t-103 -19.5z
M255 28q43 0 83 16.5t73.5 47.5t55.5 75t29 99q8 68 -12.5 114t-61 69.5t-91.5 23.5q-56 0 -107.5 -28.5t-87 -80.5t-43.5 -123q-9 -69 11 -116.5t59.5 -72t91.5 -24.5zM274 567l6 36l302 105l-6 -37z" />
    <glyph glyph-name="ntilde" unicode="&#xf1;" horiz-adv-x="540" 
d="M27 0l89 504h39l-13 -103v0q36 58 87.5 86.5t108.5 28.5t95 -24t53 -70t3 -113l-55 -309h-45l53 302q16 87 -14 130t-103 43q-48 0 -90 -23t-72 -67t-42 -109l-49 -276h-45zM197 569q11 38 35.5 59t54.5 21q24 0 39 -12t28.5 -24t32.5 -12q17 0 30 11.5t20 33.5h32
q-9 -35 -33.5 -57t-54.5 -22q-24 0 -39 12t-28.5 24t-33.5 12q-16 0 -29.5 -11.5t-21.5 -34.5h-32z" />
    <glyph glyph-name="ograve" unicode="&#xf2;" horiz-adv-x="580" 
d="M244 -12q-66 0 -114 30t-71 86t-14 131q7 64 32.5 115.5t64.5 88t88 57t105 20.5q67 0 115 -30t71 -85t13 -131q-7 -63 -32 -115t-64.5 -89t-88.5 -57.5t-105 -20.5zM250 28q57 0 108 28.5t86 82.5t43 129q9 68 -11 114.5t-59 69.5t-88 23q-56 0 -107 -28.5t-86 -82
t-43 -128.5q-9 -69 11 -115t58.5 -69.5t87.5 -23.5zM439 545l-181 117l14 40v0l178 -121z" />
    <glyph glyph-name="oacute" unicode="&#xf3;" horiz-adv-x="580" 
d="M244 -12q-66 0 -114 30t-71 86t-14 131q7 64 32.5 115.5t64.5 88t88 57t105 20.5q67 0 115 -30t71 -85t13 -131q-7 -63 -32 -115t-64.5 -89t-88.5 -57.5t-105 -20.5zM250 28q57 0 108 28.5t86 82.5t43 129q9 68 -11 114.5t-59 69.5t-88 23q-56 0 -107 -28.5t-86 -82
t-43 -128.5q-9 -69 11 -115t58.5 -69.5t87.5 -23.5zM256 545l-1 36l194 123v0l3 -43z" />
    <glyph glyph-name="ocircumflex" unicode="&#xf4;" horiz-adv-x="580" 
d="M244 -12q-66 0 -114 30t-71 86t-14 131q7 64 32.5 115.5t64.5 88t88 57t105 20.5q67 0 115 -30t71 -85t13 -131q-7 -63 -32 -115t-64.5 -89t-88.5 -57.5t-105 -20.5zM250 28q57 0 108 28.5t86 82.5t43 129q9 68 -11 114.5t-59 69.5t-88 23q-56 0 -107 -28.5t-86 -82
t-43 -128.5q-9 -69 11 -115t58.5 -69.5t87.5 -23.5zM213 555l7 40l144 85l114 -85l-7 -40l-112 84z" />
    <glyph glyph-name="otilde" unicode="&#xf5;" horiz-adv-x="580" 
d="M244 -12q-66 0 -114 30t-71 86t-14 131q7 64 32.5 115.5t64.5 88t88 57t105 20.5q67 0 115 -30t71 -85t13 -131q-7 -63 -32 -115t-64.5 -89t-88.5 -57.5t-105 -20.5zM250 28q57 0 108 28.5t86 82.5t43 129q9 68 -11 114.5t-59 69.5t-88 23q-56 0 -107 -28.5t-86 -82
t-43 -128.5q-9 -69 11 -115t58.5 -69.5t87.5 -23.5zM216 569q11 38 35.5 59t54.5 21q24 0 39 -12t28.5 -24t32.5 -12q17 0 30 11.5t20 33.5h32q-9 -35 -33.5 -57t-54.5 -22q-24 0 -39 12t-28.5 24t-33.5 12q-16 0 -29.5 -11.5t-21.5 -34.5h-32z" />
    <glyph glyph-name="odieresis" unicode="&#xf6;" horiz-adv-x="580" 
d="M244 -12q-66 0 -114 30t-71 86t-14 131q7 64 32.5 115.5t64.5 88t88 57t105 20.5q67 0 115 -30t71 -85t13 -131q-7 -63 -32 -115t-64.5 -89t-88.5 -57.5t-105 -20.5zM250 28q57 0 108 28.5t86 82.5t43 129q9 68 -11 114.5t-59 69.5t-88 23q-56 0 -107 -28.5t-86 -82
t-43 -128.5q-9 -69 11 -115t58.5 -69.5t87.5 -23.5zM282 574q-16 0 -28 11.5t-12 27.5q0 17 12 28.5t28 11.5t27.5 -12t11.5 -28t-11.5 -27.5t-27.5 -11.5zM423 574q-16 0 -28 11.5t-12 27.5q0 17 12 28.5t28 11.5t27.5 -12t11.5 -28t-11.5 -27.5t-27.5 -11.5z" />
    <glyph glyph-name="divide" unicode="&#xf7;" horiz-adv-x="500" 
d="M68 272l7 39h370l-7 -39h-370zM235 134q-17 0 -29.5 12.5t-12.5 30.5t12 30t30 12t30 -12t12 -30t-12 -30.5t-30 -12.5zM276 365q-17 0 -29.5 12.5t-12.5 30.5t12 30t30 12t30 -12t12 -30t-12 -30.5t-30 -12.5z" />
    <glyph glyph-name="oslash" unicode="&#xf8;" horiz-adv-x="578" 
d="M6 0l497 504h50l-497 -504h-50zM241 -12q-66 0 -114 30t-71 86t-14 131q7 64 32.5 115.5t64.5 88t88.5 57t104.5 20.5q67 0 115 -30t71 -85t14 -131q-7 -63 -32.5 -115t-64.5 -89t-88.5 -57.5t-105.5 -20.5zM248 28q57 0 107.5 28.5t85.5 82.5t44 129q8 68 -12 114.5
t-59 69.5t-87 23q-57 0 -108 -28.5t-85.5 -82t-43.5 -128.5q-9 -69 11 -115t59 -69.5t88 -23.5z" />
    <glyph glyph-name="ugrave" unicode="&#xf9;" horiz-adv-x="540" 
d="M201 -12q-56 0 -94 24t-53 70t-3 113l55 309h45l-53 -302q-16 -87 13.5 -130t103.5 -43q49 0 91 22.5t72 67t41 109.5l49 276h45l-89 -504h-39l12 103v0q-35 -59 -87 -87t-109 -28zM416 545l-181 117l14 40v0l178 -121z" />
    <glyph glyph-name="uacute" unicode="&#xfa;" horiz-adv-x="540" 
d="M201 -12q-56 0 -94 24t-53 70t-3 113l55 309h45l-53 -302q-16 -87 13.5 -130t103.5 -43q49 0 91 22.5t72 67t41 109.5l49 276h45l-89 -504h-39l12 103v0q-35 -59 -87 -87t-109 -28zM233 545l-1 36l194 123v0l3 -43z" />
    <glyph glyph-name="ucircumflex" unicode="&#xfb;" horiz-adv-x="540" 
d="M201 -12q-56 0 -94 24t-53 70t-3 113l55 309h45l-53 -302q-16 -87 13.5 -130t103.5 -43q49 0 91 22.5t72 67t41 109.5l49 276h45l-89 -504h-39l12 103v0q-35 -59 -87 -87t-109 -28zM190 555l7 40l144 85l114 -85l-7 -40l-112 84z" />
    <glyph glyph-name="udieresis" unicode="&#xfc;" horiz-adv-x="540" 
d="M201 -12q-56 0 -94 24t-53 70t-3 113l55 309h45l-53 -302q-16 -87 13.5 -130t103.5 -43q49 0 91 22.5t72 67t41 109.5l49 276h45l-89 -504h-39l12 103v0q-35 -59 -87 -87t-109 -28zM259 574q-16 0 -28 11.5t-12 27.5q0 17 12 28.5t28 11.5t27.5 -12t11.5 -28t-11.5 -27.5
t-27.5 -11.5zM400 574q-16 0 -28 11.5t-12 27.5q0 17 12 28.5t28 11.5t27.5 -12t11.5 -28t-11.5 -27.5t-27.5 -11.5z" />
    <glyph glyph-name="yacute" unicode="&#xfd;" horiz-adv-x="517" 
d="M33 -220l176 275h-17l-128 449h47l117 -415v0l265 415h49l-461 -724h-48zM227 545l-1 36l194 123v0l3 -43z" />
    <glyph glyph-name="thorn" unicode="&#xfe;" horiz-adv-x="600" 
d="M-11 -212l163 925h45l-57 -330q21 37 53.5 67t74.5 48t92 18q70 0 116 -32t66 -87.5t12 -126.5q-6 -61 -29.5 -112t-61 -89.5t-86 -59.5t-106.5 -21q-46 0 -83 17t-61 47t-33 68l-60 -332h-45zM276 29q60 0 109.5 29.5t81.5 83t40 124.5q8 63 -9 110t-55 73t-92 26
q-60 0 -110 -31t-82 -85.5t-40 -122.5q-8 -61 9 -108t55.5 -73t92.5 -26z" />
    <glyph glyph-name="ydieresis" unicode="&#xff;" horiz-adv-x="517" 
d="M33 -220l176 275h-17l-128 449h47l117 -415v0l265 415h49l-461 -724h-48zM252 574q-16 0 -28 11.5t-12 27.5q0 17 12 28.5t28 11.5t27.5 -12t11.5 -28t-11.5 -27.5t-27.5 -11.5zM393 574q-16 0 -28 11.5t-12 27.5q0 17 12 28.5t28 11.5t27.5 -12t11.5 -28t-11.5 -27.5
t-27.5 -11.5z" />
    <glyph glyph-name="Amacron" unicode="&#x100;" horiz-adv-x="627" 
d="M-10 0l381 700h48l130 -700h-47l-117 645v0l-346 -645h-49zM129 222l20 38h331l8 -38h-359zM252 816l7 39h323l-6 -39h-324z" />
    <glyph glyph-name="amacron" unicode="&#x101;" horiz-adv-x="516" 
d="M175 -12q-55 0 -89 21t-48.5 55t-10.5 72q6 56 36.5 93.5t80 56t113.5 18.5h151q11 55 2 93t-37 58.5t-78 20.5q-63 0 -108 -29t-66 -88h-47q17 53 51 87.5t79 52t94 17.5q68 0 106 -27t49.5 -73.5t0.5 -106.5l-54 -309h-39l12 100v0q-11 -17 -28 -36.5t-41.5 -36.5
t-56 -28t-72.5 -11zM186 28q43 0 78 17t61.5 44t43.5 59.5t23 63.5l10 53h-148q-59 0 -97 -16t-58 -44t-24 -65q-6 -50 22 -81t89 -31zM149 597l7 39h323l-6 -39h-324z" />
    <glyph glyph-name="Abreve" unicode="&#x102;" horiz-adv-x="627" 
d="M-10 0l381 700h48l130 -700h-47l-117 645v0l-346 -645h-49zM129 222l20 38h331l8 -38h-359zM404 770q-44 0 -69 16.5t-33.5 41.5t-3.5 53l2 11h33q-10 -41 10.5 -62.5t67.5 -21.5q48 0 74.5 23t34.5 61h34l-3 -11q-6 -28 -24 -53t-48.5 -41.5t-74.5 -16.5z" />
    <glyph glyph-name="abreve" unicode="&#x103;" horiz-adv-x="516" 
d="M175 -12q-55 0 -89 21t-48.5 55t-10.5 72q6 56 36.5 93.5t80 56t113.5 18.5h151q11 55 2 93t-37 58.5t-78 20.5q-63 0 -108 -29t-66 -88h-47q17 53 51 87.5t79 52t94 17.5q68 0 106 -27t49.5 -73.5t0.5 -106.5l-54 -309h-39l12 100v0q-11 -17 -28 -36.5t-41.5 -36.5
t-56 -28t-72.5 -11zM186 28q43 0 78 17t61.5 44t43.5 59.5t23 63.5l10 53h-148q-59 0 -97 -16t-58 -44t-24 -65q-6 -50 22 -81t89 -31zM303 565q-44 0 -69 16.5t-33.5 41.5t-3.5 53l2 11h33q-10 -41 10.5 -62.5t67.5 -21.5q48 0 74.5 23t34.5 61h34l-3 -11q-6 -28 -24 -53
t-48.5 -41.5t-74.5 -16.5z" />
    <glyph glyph-name="Aogonek" unicode="&#x104;" horiz-adv-x="627" 
d="M-10 0l381 700h48l130 -700h-47l-117 645v0l-346 -645h-49zM129 222l20 38h331l8 -38h-359zM446 -196q-23 0 -45 8t-33.5 26.5t-6.5 51.5q4 21 16.5 40.5t36.5 37.5t62 34l62 25l11 -27l-67 -29q-41 -18 -58.5 -37.5t-22.5 -40.5q-5 -26 9.5 -41t44.5 -15q18 -1 35.5 3.5
t33.5 10.5l-6 -35q-16 -6 -34.5 -9t-37.5 -3z" />
    <glyph glyph-name="aogonek" unicode="&#x105;" horiz-adv-x="516" 
d="M175 -12q-55 0 -89 21t-48.5 55t-10.5 72q6 56 36.5 93.5t80 56t113.5 18.5h151q11 55 2 93t-37 58.5t-78 20.5q-63 0 -108 -29t-66 -88h-47q17 53 51 87.5t79 52t94 17.5q68 0 106 -27t49.5 -73.5t0.5 -106.5l-54 -309h-39l12 100v0q-11 -17 -28 -36.5t-41.5 -36.5
t-56 -28t-72.5 -11zM186 28q43 0 78 17t61.5 44t43.5 59.5t23 63.5l10 53h-148q-59 0 -97 -16t-58 -44t-24 -65q-6 -50 22 -81t89 -31zM298 -196q-23 0 -45 8t-33.5 26.5t-6.5 51.5q4 21 16.5 40.5t36.5 37.5t62 34l62 25l11 -27l-67 -29q-41 -18 -58.5 -37.5t-22.5 -40.5
q-5 -26 9.5 -41t44.5 -15q18 -1 35.5 3.5t33.5 10.5l-6 -35q-16 -6 -34.5 -9t-37.5 -3z" />
    <glyph glyph-name="Cacute" unicode="&#x106;" horiz-adv-x="699" 
d="M329 -12q-95 0 -158 41.5t-91.5 116t-16.5 173.5q9 86 42 158t85 124.5t119.5 81.5t145.5 29q114 0 175 -52.5t67 -148.5h-50q-6 73 -53.5 116.5t-144.5 43.5q-66 0 -123.5 -24.5t-103 -70.5t-74.5 -110.5t-37 -144.5q-12 -92 12.5 -157t79 -100t133.5 -35q96 0 160 44.5
t94 116.5h50q-26 -64 -70 -109t-104.5 -69t-136.5 -24zM362 753l-1 36l194 123v0l3 -43z" />
    <glyph glyph-name="cacute" unicode="&#x107;" horiz-adv-x="544" 
d="M238 -12q-65 0 -111.5 30.5t-68.5 85.5t-13 128q7 65 32.5 117t64 89t87 57.5t101.5 20.5q86 0 135 -44t51 -115h-47q-2 56 -42 87t-103 31q-54 0 -103.5 -27.5t-84.5 -81t-43 -131.5q-7 -53 2.5 -92t31.5 -64.5t52 -38t63 -12.5q43 0 80.5 13.5t66.5 40t43 64.5h47
q-17 -45 -51.5 -81t-82.5 -56.5t-107 -20.5zM240 545l-1 36l194 123v0l3 -43z" />
    <glyph glyph-name="Cdotaccent" unicode="&#x10a;" horiz-adv-x="699" 
d="M329 -12q-95 0 -158 41.5t-91.5 116t-16.5 173.5q9 86 42 158t85 124.5t119.5 81.5t145.5 29q114 0 175 -52.5t67 -148.5h-50q-6 73 -53.5 116.5t-144.5 43.5q-66 0 -123.5 -24.5t-103 -70.5t-74.5 -110.5t-37 -144.5q-12 -92 12.5 -157t79 -100t133.5 -35q96 0 160 44.5
t94 116.5h50q-26 -64 -70 -109t-104.5 -69t-136.5 -24zM459 777q-16 0 -27.5 12t-11.5 28t11.5 27.5t27.5 11.5t27.5 -11.5t11.5 -27.5t-11.5 -28t-27.5 -12z" />
    <glyph glyph-name="cdotaccent" unicode="&#x10b;" horiz-adv-x="544" 
d="M238 -12q-65 0 -111.5 30.5t-68.5 85.5t-13 128q7 65 32.5 117t64 89t87 57.5t101.5 20.5q86 0 135 -44t51 -115h-47q-2 56 -42 87t-103 31q-54 0 -103.5 -27.5t-84.5 -81t-43 -131.5q-7 -53 2.5 -92t31.5 -64.5t52 -38t63 -12.5q43 0 80.5 13.5t66.5 40t43 64.5h47
q-17 -45 -51.5 -81t-82.5 -56.5t-107 -20.5zM336 570q-16 0 -27.5 12t-11.5 28t11.5 27.5t27.5 11.5t27.5 -11.5t11.5 -27.5t-11.5 -28t-27.5 -12z" />
    <glyph glyph-name="Ccaron" unicode="&#x10c;" horiz-adv-x="699" 
d="M329 -12q-95 0 -158 41.5t-91.5 116t-16.5 173.5q9 86 42 158t85 124.5t119.5 81.5t145.5 29q114 0 175 -52.5t67 -148.5h-50q-6 73 -53.5 116.5t-144.5 43.5q-66 0 -123.5 -24.5t-103 -70.5t-74.5 -110.5t-37 -144.5q-12 -92 12.5 -157t79 -100t133.5 -35q96 0 160 44.5
t94 116.5h50q-26 -64 -70 -109t-104.5 -69t-136.5 -24zM597 880l-7 -40l-144 -85l-114 85l7 40l112 -84z" />
    <glyph glyph-name="ccaron" unicode="&#x10d;" horiz-adv-x="544" 
d="M238 -12q-65 0 -111.5 30.5t-68.5 85.5t-13 128q7 65 32.5 117t64 89t87 57.5t101.5 20.5q86 0 135 -44t51 -115h-47q-2 56 -42 87t-103 31q-54 0 -103.5 -27.5t-84.5 -81t-43 -131.5q-7 -53 2.5 -92t31.5 -64.5t52 -38t63 -12.5q43 0 80.5 13.5t66.5 40t43 64.5h47
q-17 -45 -51.5 -81t-82.5 -56.5t-107 -20.5zM478 688l-7 -40l-144 -85l-114 85l7 40l112 -84z" />
    <glyph glyph-name="Dcaron" unicode="&#x10e;" horiz-adv-x="672" 
d="M34 0l124 700h183q118 0 188 -38t98 -110.5t15 -178.5q-8 -82 -38.5 -150t-83 -118.5t-127 -77.5t-172.5 -27h-187zM86 38h141q111 0 189 40.5t123 115.5t56 177q12 91 -10 156.5t-82 100t-166 34.5h-141zM542 880l-7 -40l-145 -85l-113 85l7 40l112 -84z" />
    <glyph glyph-name="dcaron" unicode="&#x10f;" horiz-adv-x="653" 
d="M239 -12q-70 0 -116 33t-66 89t-11 126q6 61 29.5 112t61 88.5t86 58.5t105.5 21q74 0 120 -37.5t59 -102.5l61 344h45l-127 -720h-40l15 124v0q-22 -38 -54.5 -68.5t-75 -49t-92.5 -18.5zM249 29q60 0 109.5 31.5t82.5 86t40 122.5q8 61 -9 107.5t-54 72.5t-92 26
q-60 0 -110 -29.5t-82.5 -82.5t-40.5 -125q-8 -62 8.5 -109.5t55 -73.5t92.5 -26zM633 582l5 29q23 0 33 9.5t14 28.5l4 24h-36l11 64h63q-1 -23 -2 -39.5t-3 -33.5q-9 -48 -32 -65t-57 -17z" />
    <glyph glyph-name="Dcroat" unicode="&#x110;" horiz-adv-x="712" 
d="M24 330l7 41h367l-8 -41h-366zM74 0l124 700h183q118 0 188 -38t98 -110.5t15 -178.5q-8 -82 -38.5 -150t-83 -118.5t-127 -77.5t-172.5 -27h-187zM126 38h141q111 0 189 40.5t123 115.5t56 177q12 91 -10 156.5t-82 100t-166 34.5h-141z" />
    <glyph glyph-name="dcroat" unicode="&#x111;" horiz-adv-x="642" 
d="M408 576l7 39h246l-6 -39h-247zM239 -12q-70 0 -116 33t-66 89t-11 126q6 61 29.5 112t61 88.5t86 58.5t105.5 21q74 0 120 -37.5t59 -102.5l61 344h45l-127 -720h-40l15 124v0q-22 -38 -54.5 -68.5t-75 -49t-92.5 -18.5zM249 29q60 0 109.5 31.5t82.5 86t40 122.5
q8 61 -9 107.5t-54 72.5t-92 26q-60 0 -110 -29.5t-82.5 -82.5t-40.5 -125q-8 -62 9 -109.5t55 -73.5t92 -26z" />
    <glyph glyph-name="Emacron" unicode="&#x112;" horiz-adv-x="536" 
d="M34 0l124 700h400l-7 -37h-355l-52 -294h325l-6 -37h-326l-51 -295h354l-6 -37h-400zM208 816l7 39h323l-6 -39h-324z" />
    <glyph glyph-name="emacron" unicode="&#x113;" horiz-adv-x="541" 
d="M230 -12q-66 0 -110.5 30.5t-63.5 86.5t-10 130q7 64 30.5 115.5t61 88.5t85 57t101.5 20q71 0 114 -30t60 -79.5t9 -108.5q0 -13 -3 -27.5t-6 -28.5h-420l7 39h377q10 66 -5.5 109t-51 64.5t-88.5 21.5q-48 0 -94 -22.5t-80.5 -68t-47.5 -116.5l-3 -18q-12 -73 3 -122.5
t52.5 -75t89.5 -25.5q64 0 110.5 30t74.5 83h45q-21 -44 -54.5 -79t-79 -54.5t-103.5 -19.5zM173 597l7 39h323l-6 -39h-324z" />
    <glyph glyph-name="Ebreve" unicode="&#x114;" horiz-adv-x="536" 
d="M34 0l124 700h400l-7 -37h-355l-52 -294h325l-6 -37h-326l-51 -295h354l-6 -37h-400zM361 770q-44 0 -69 16.5t-33.5 41.5t-3.5 53l2 11h33q-10 -41 10.5 -62.5t67.5 -21.5q48 0 74.5 23t34.5 61h34l-3 -11q-6 -28 -24 -53t-48.5 -41.5t-74.5 -16.5z" />
    <glyph glyph-name="ebreve" unicode="&#x115;" horiz-adv-x="541" 
d="M230 -12q-66 0 -110.5 30.5t-63.5 86.5t-10 130q7 64 30.5 115.5t61 88.5t85 57t101.5 20q71 0 114 -30t60 -79.5t9 -108.5q0 -13 -3 -27.5t-6 -28.5h-420l7 39h377q10 66 -5.5 109t-51 64.5t-88.5 21.5q-48 0 -94 -22.5t-80.5 -68t-47.5 -116.5l-3 -18q-12 -73 3 -122.5
t52.5 -75t89.5 -25.5q64 0 110.5 30t74.5 83h45q-21 -44 -54.5 -79t-79 -54.5t-103.5 -19.5zM328 565q-44 0 -69 16.5t-33.5 41.5t-3.5 53l2 11h33q-10 -41 10.5 -62.5t67.5 -21.5q48 0 74.5 23t34.5 61h34l-3 -11q-6 -28 -24 -53t-48.5 -41.5t-74.5 -16.5z" />
    <glyph glyph-name="Edotaccent" unicode="&#x116;" horiz-adv-x="536" 
d="M34 0l124 700h400l-7 -37h-355l-52 -294h325l-6 -37h-326l-51 -295h354l-6 -37h-400zM370 777q-16 0 -27.5 12t-11.5 28t11.5 27.5t27.5 11.5t27.5 -11.5t11.5 -27.5t-11.5 -28t-27.5 -12z" />
    <glyph glyph-name="edotaccent" unicode="&#x117;" horiz-adv-x="541" 
d="M230 -12q-66 0 -110.5 30.5t-63.5 86.5t-10 130q7 64 30.5 115.5t61 88.5t85 57t101.5 20q71 0 114 -30t60 -79.5t9 -108.5q0 -13 -3 -27.5t-6 -28.5h-420l7 39h377q10 66 -5.5 109t-51 64.5t-88.5 21.5q-48 0 -94 -22.5t-80.5 -68t-47.5 -116.5l-3 -18q-12 -73 3 -122.5
t52.5 -75t89.5 -25.5q64 0 110.5 30t74.5 83h45q-21 -44 -54.5 -79t-79 -54.5t-103.5 -19.5zM337 570q-16 0 -27.5 12t-11.5 28t11.5 27.5t27.5 11.5t27.5 -11.5t11.5 -27.5t-11.5 -28t-27.5 -12z" />
    <glyph glyph-name="Eogonek" unicode="&#x118;" horiz-adv-x="536" 
d="M34 0l124 700h400l-7 -37h-355l-52 -294h325l-6 -37h-326l-51 -295h354l-6 -37h-400zM331 -196q-23 0 -45 8t-33.5 26.5t-6.5 51.5q4 21 16.5 40.5t36.5 37.5t62 34l62 25l11 -27l-67 -29q-41 -18 -58.5 -37.5t-22.5 -40.5q-5 -26 9.5 -41t44.5 -15q18 -1 35.5 3.5
t33.5 10.5l-6 -35q-16 -6 -34.5 -9t-37.5 -3z" />
    <glyph glyph-name="eogonek" unicode="&#x119;" horiz-adv-x="541" 
d="M230 -12q-66 0 -110.5 30.5t-63.5 86.5t-10 130q7 64 30.5 115.5t61 88.5t85 57t101.5 20q71 0 114 -30t60 -79.5t9 -108.5q0 -13 -3 -27.5t-6 -28.5h-420l7 39h377q10 66 -5.5 109t-51 64.5t-88.5 21.5q-48 0 -94 -22.5t-80.5 -68t-47.5 -116.5l-3 -18q-12 -73 3 -122.5
t52.5 -75t89.5 -25.5q64 0 110.5 30t74.5 83h45q-21 -44 -54.5 -79t-79 -54.5t-103.5 -19.5zM235 -185q-23 0 -45 8t-33.5 26.5t-6.5 51.5q4 21 16.5 40.5t36.5 37.5t62 34l62 25l11 -27l-67 -29q-41 -18 -58.5 -37.5t-22.5 -40.5q-5 -26 9.5 -41t44.5 -15q18 -1 35.5 3.5
t33.5 10.5l-6 -35q-16 -6 -34.5 -9t-37.5 -3z" />
    <glyph glyph-name="Ecaron" unicode="&#x11a;" horiz-adv-x="536" 
d="M34 0l124 700h400l-7 -37h-355l-52 -294h325l-6 -37h-326l-51 -295h354l-6 -37h-400zM508 880l-7 -40l-144 -85l-114 85l7 40l112 -84z" />
    <glyph glyph-name="ecaron" unicode="&#x11b;" horiz-adv-x="541" 
d="M230 -12q-66 0 -110.5 30.5t-63.5 86.5t-10 130q7 64 30.5 115.5t61 88.5t85 57t101.5 20q71 0 114 -30t60 -79.5t9 -108.5q0 -13 -3 -27.5t-6 -28.5h-420l7 39h377q10 66 -5.5 109t-51 64.5t-88.5 21.5q-48 0 -94 -22.5t-80.5 -68t-47.5 -116.5l-3 -18q-12 -73 3 -122.5
t52.5 -75t89.5 -25.5q64 0 110.5 30t74.5 83h45q-21 -44 -54.5 -79t-79 -54.5t-103.5 -19.5zM480 688l-7 -40l-145 -85l-113 85l7 40l112 -84z" />
    <glyph glyph-name="Gbreve" unicode="&#x11e;" horiz-adv-x="741" 
d="M323 -12q-91 0 -153.5 43t-90 119t-15.5 175q9 85 41.5 156t85 122.5t121 80t147.5 28.5q113 0 179.5 -54t73.5 -154h-51q-6 76 -57.5 121t-150.5 45q-90 0 -163 -42.5t-120 -119.5t-58 -182q-12 -90 11.5 -157t76.5 -103t130 -36q84 0 147 34.5t105.5 101.5t64.5 162
h-226l7 37h273l-65 -365h-40l20 158v0q-33 -55 -76 -93t-96.5 -57.5t-120.5 -19.5zM468 770q-44 0 -69 16.5t-33.5 41.5t-3.5 53l2 11h33q-10 -41 10.5 -62.5t67.5 -21.5q48 0 74.5 23t34.5 61h34l-3 -11q-6 -28 -24 -53t-48.5 -41.5t-74.5 -16.5z" />
    <glyph glyph-name="gbreve" unicode="&#x11f;" horiz-adv-x="549" 
d="M171 -232q-64 0 -110.5 19t-70.5 54t-19 84q4 31 17.5 57.5t40.5 51.5t69 49l36 -18q-58 -30 -84 -62.5t-31 -71.5q-4 -37 14.5 -65t55.5 -43t89 -15q84 0 138 35.5t60 92.5q6 49 -24 78t-119 34q-49 3 -85 9t-61 14.5t-43 18.5t-32 22l4 20l101 75l39 -16l-106 -77l4 24
q13 -7 26.5 -15t32 -14t49 -11.5t78.5 -8.5q76 -5 117.5 -25t56 -51.5t9.5 -71.5q-4 -47 -34.5 -86t-85 -63t-132.5 -24zM238 157q-62 0 -100 22t-53.5 60t-10.5 84q6 57 35 100t78 68t115 25q64 0 102 -21.5t53.5 -59t8.5 -87.5q-5 -53 -33.5 -96.5t-77.5 -69t-117 -25.5z
M246 197q76 0 121.5 40t53.5 109q8 66 -24.5 98t-101.5 32q-71 0 -118.5 -38t-56.5 -112q-8 -64 26 -96.5t100 -32.5zM381 464l-10 40h192l-7 -37zM339 565q-44 0 -69 16.5t-33.5 41.5t-3.5 53l2 11h33q-10 -41 10.5 -62.5t67.5 -21.5q48 0 74.5 23t34.5 61h34l-3 -11
q-6 -28 -24 -53t-48.5 -41.5t-74.5 -16.5z" />
    <glyph glyph-name="Gdotaccent" unicode="&#x120;" horiz-adv-x="741" 
d="M323 -12q-91 0 -153.5 43t-90 119t-15.5 175q9 85 41.5 156t85 122.5t121 80t147.5 28.5q113 0 179.5 -54t73.5 -154h-51q-6 76 -57.5 121t-150.5 45q-90 0 -163 -42.5t-120 -119.5t-58 -182q-12 -90 11.5 -157t76.5 -103t130 -36q84 0 147 34.5t105.5 101.5t64.5 162
h-226l7 37h273l-65 -365h-40l20 158v0q-33 -55 -76 -93t-96.5 -57.5t-120.5 -19.5zM478 777q-16 0 -27.5 12t-11.5 28t11.5 27.5t27.5 11.5t27.5 -11.5t11.5 -27.5t-11.5 -28t-27.5 -12z" />
    <glyph glyph-name="gdotaccent" unicode="&#x121;" horiz-adv-x="549" 
d="M171 -232q-64 0 -110.5 19t-70.5 54t-19 84q4 31 17.5 57.5t40.5 51.5t69 49l36 -18q-58 -30 -84 -62.5t-31 -71.5q-4 -37 14.5 -65t55.5 -43t89 -15q84 0 138 35.5t60 92.5q6 49 -24 78t-119 34q-49 3 -85 9t-61 14.5t-43 18.5t-32 22l4 20l101 75l39 -16l-106 -77l4 24
q13 -7 26.5 -15t32 -14t49 -11.5t78.5 -8.5q76 -5 117.5 -25t56 -51.5t9.5 -71.5q-4 -47 -34.5 -86t-85 -63t-132.5 -24zM238 157q-62 0 -100 22t-53.5 60t-10.5 84q6 57 35 100t78 68t115 25q64 0 102 -21.5t53.5 -59t8.5 -87.5q-5 -53 -33.5 -96.5t-77.5 -69t-117 -25.5z
M246 197q76 0 121.5 40t53.5 109q8 66 -24.5 98t-101.5 32q-71 0 -118.5 -38t-56.5 -112q-8 -64 26 -96.5t100 -32.5zM381 464l-10 40h192l-7 -37zM348 570q-16 0 -27.5 12t-11.5 28t11.5 27.5t27.5 11.5t27.5 -11.5t11.5 -27.5t-11.5 -28t-27.5 -12z" />
    <glyph glyph-name="uni0122" unicode="&#x122;" horiz-adv-x="741" 
d="M323 -12q-91 0 -153.5 43t-90 119t-15.5 175q9 85 41.5 156t85 122.5t121 80t147.5 28.5q113 0 179.5 -54t73.5 -154h-51q-6 76 -57.5 121t-150.5 45q-90 0 -163 -42.5t-120 -119.5t-58 -182q-12 -90 11.5 -157t76.5 -103t130 -36q84 0 147 34.5t105.5 101.5t64.5 162
h-226l7 37h273l-65 -365h-40l20 158v0q-33 -55 -76 -93t-96.5 -57.5t-120.5 -19.5zM259 -205l5 29q24 0 36 13.5t16 38.5l3 13h-38l10 57h65q0 -15 -1 -29.5t-3 -26.5q-10 -56 -34.5 -75.5t-58.5 -19.5z" />
    <glyph glyph-name="uni0123" unicode="&#x123;" horiz-adv-x="549" 
d="M171 -232q-64 0 -110.5 19t-70.5 54t-19 84q4 31 17.5 57.5t40.5 51.5t69 49l36 -18q-58 -30 -84 -62.5t-31 -71.5q-4 -37 14.5 -65t55.5 -43t89 -15q84 0 138 35.5t60 92.5q6 49 -24 78t-119 34q-49 3 -85 9t-61 14.5t-43 18.5t-32 22l4 20l101 75l39 -16l-106 -77l4 24
q13 -7 26.5 -15t32 -14t49 -11.5t78.5 -8.5q76 -5 117.5 -25t56 -51.5t9.5 -71.5q-4 -47 -34.5 -86t-85 -63t-132.5 -24zM238 157q-62 0 -100 22t-53.5 60t-10.5 84q6 57 35 100t78 68t115 25q64 0 102 -21.5t53.5 -59t8.5 -87.5q-5 -53 -33.5 -96.5t-77.5 -69t-117 -25.5z
M246 197q76 0 121.5 40t53.5 109q8 66 -24.5 98t-101.5 32q-71 0 -118.5 -38t-56.5 -112q-8 -64 26 -96.5t100 -32.5zM381 464l-10 40h192l-7 -37zM405 721l-5 -29q-22 0 -32.5 -9.5t-14.5 -28.5l-4 -24h36l-11 -64h-63q1 23 2 39.5t3 33.5q9 48 32 65t57 17z" />
    <glyph glyph-name="Hbar" unicode="&#x126;" horiz-adv-x="715" 
d="M88 512l8 42h630l-8 -42h-630zM518 0l124 700h45l-124 -700h-45zM65 0l124 700h45l-124 -700h-45zM155 338l7 37h440l-6 -37h-441z" />
    <glyph glyph-name="hbar" unicode="&#x127;" horiz-adv-x="583" 
d="M102 576l6 39h247l-7 -39h-246zM68 0l126 720h45l-56 -321v0q35 56 88 86.5t110 30.5q55 0 93 -22t54 -68t3 -118l-54 -308h-45l53 301q15 89 -15.5 131.5t-101.5 42.5q-48 0 -91.5 -24.5t-74 -70t-42.5 -111.5l-47 -269h-45z" />
    <glyph glyph-name="Itilde" unicode="&#x128;" horiz-adv-x="201" 
d="M34 0l124 700h45l-124 -700h-45zM64 770q11 38 35.5 59t54.5 21q24 0 39 -12t28.5 -24t32.5 -12q17 0 30 11.5t20 33.5h32q-9 -35 -33.5 -57t-54.5 -22q-24 0 -39 12t-28.5 24t-33.5 12q-16 0 -29.5 -11.5t-21.5 -34.5h-32z" />
    <glyph glyph-name="itilde" unicode="&#x129;" horiz-adv-x="187" 
d="M27 0l89 504h45l-89 -504h-45zM20 569q11 38 35.5 59t54.5 21q24 0 39 -12t28.5 -24t32.5 -12q17 0 30 11.5t20 33.5h32q-9 -35 -33.5 -57t-54.5 -22q-24 0 -39 12t-28.5 24t-33.5 12q-16 0 -29.5 -11.5t-21.5 -34.5h-32z" />
    <glyph glyph-name="Imacron" unicode="&#x12a;" horiz-adv-x="201" 
d="M34 0l124 700h45l-124 -700h-45zM39 816l7 39h323l-6 -39h-324z" />
    <glyph glyph-name="imacron" unicode="&#x12b;" horiz-adv-x="187" 
d="M27 0l89 504h45l-89 -504h-45zM-7 597l7 39h323l-6 -39h-324z" />
    <glyph glyph-name="Ibreve" unicode="&#x12c;" horiz-adv-x="201" 
d="M34 0l124 700h45l-124 -700h-45zM192 770q-44 0 -69 16.5t-33.5 41.5t-3.5 53l2 11h33q-10 -41 10.5 -62.5t67.5 -21.5q48 0 74.5 23t34.5 61h34l-3 -11q-6 -28 -24 -53t-48.5 -41.5t-74.5 -16.5z" />
    <glyph glyph-name="ibreve" unicode="&#x12d;" horiz-adv-x="187" 
d="M27 0l89 504h45l-89 -504h-45zM147 565q-44 0 -69 16.5t-33.5 41.5t-3.5 53l2 11h33q-10 -41 10.5 -62.5t67.5 -21.5q48 0 74.5 23t34.5 61h34l-3 -11q-6 -28 -24 -53t-48.5 -41.5t-74.5 -16.5z" />
    <glyph glyph-name="Iogonek" unicode="&#x12e;" horiz-adv-x="201" 
d="M34 0l124 700h45l-124 -700h-45zM-24 -196q-23 0 -45 8t-33.5 26.5t-6.5 51.5q4 21 16.5 40.5t36.5 37.5t62 34l62 25l11 -27l-67 -29q-41 -18 -58.5 -37.5t-22.5 -40.5q-5 -26 9.5 -41t44.5 -15q18 -1 35.5 3.5t33.5 10.5l-6 -35q-16 -6 -34.5 -9t-37.5 -3z" />
    <glyph glyph-name="iogonek" unicode="&#x12f;" horiz-adv-x="187" 
d="M27 0l89 504h45l-89 -504h-45zM157 570q-16 0 -27.5 12t-11.5 28t11.5 27.5t27.5 11.5t27.5 -11.5t11.5 -27.5t-11.5 -28t-27.5 -12zM-31 -196q-23 0 -45 8t-33.5 26.5t-6.5 51.5q4 21 16.5 40.5t36.5 37.5t62 34l62 25l11 -27l-67 -29q-41 -18 -58.5 -37.5t-22.5 -40.5
q-5 -26 9.5 -41t44.5 -15q18 -1 35.5 3.5t33.5 10.5l-6 -35q-16 -6 -34.5 -9t-37.5 -3z" />
    <glyph glyph-name="Idotaccent" unicode="&#x130;" horiz-adv-x="201" 
d="M34 0l124 700h45l-124 -700h-45zM201 777q-16 0 -27.5 12t-11.5 28t11.5 27.5t27.5 11.5t27.5 -11.5t11.5 -27.5t-11.5 -28t-27.5 -12z" />
    <glyph glyph-name="dotlessi" unicode="&#x131;" horiz-adv-x="187" 
d="M27 0l89 504h45l-89 -504h-45z" />
    <glyph glyph-name="IJ" unicode="&#x132;" horiz-adv-x="626" 
d="M34 0l124 700h45l-124 -700h-45zM326 -12q-56 0 -93 22t-51 62.5t-5 95.5h46q-6 -37 0.5 -68.5t32.5 -51t76 -19.5t82 19t50.5 51t24.5 69l94 532h45l-94 -533q-14 -86 -69 -132.5t-139 -46.5z" />
    <glyph glyph-name="ij" unicode="&#x133;" horiz-adv-x="378" 
d="M35 0l88 504h45l-88 -504h-45zM177 641q-15 0 -25 10t-10 25q0 16 10 25.5t24 9.5t24.5 -9.5t10.5 -25.5q0 -15 -10 -25t-24 -10zM51 -220l7 40h37q43 0 63.5 18t28.5 60l106 606h45l-107 -611q-6 -37 -22.5 -62t-44.5 -38t-69 -13h-44zM347 641q-14 0 -24.5 10t-10.5 25
q0 16 10.5 25.5t24.5 9.5t24 -9t10 -26q0 -15 -9.5 -25t-24.5 -10z" />
    <glyph glyph-name="uni0136" unicode="&#x136;" horiz-adv-x="528" 
d="M34 0l124 700h45l-60 -337l381 337h59l-350 -306l228 -394h-54l-211 362l-63 -57l-54 -305h-45zM148 -205l5 29q24 0 36 13.5t16 38.5l3 13h-38l10 57h65q0 -15 -1 -29.5t-3 -26.5q-10 -56 -34.5 -75.5t-58.5 -19.5z" />
    <glyph glyph-name="uni0137" unicode="&#x137;" horiz-adv-x="449" 
d="M328 0l-215 276l278 228h62l-303 -245l5 35l231 -294h-58zM27 0l127 720h45l-127 -720h-45zM106 -205l5 29q24 0 36 13.5t16 38.5l3 13h-38l10 57h65q0 -15 -1 -29.5t-3 -26.5q-10 -56 -34.5 -75.5t-58.5 -19.5z" />
    <glyph glyph-name="Lacute" unicode="&#x139;" horiz-adv-x="501" 
d="M34 0l124 700h45l-118 -663h340l-6 -37h-385zM106 753l-1 36l194 123v0l3 -43z" />
    <glyph glyph-name="lacute" unicode="&#x13a;" horiz-adv-x="188" 
d="M27 0l127 720h45l-127 -720h-45zM100 762l-1 36l194 123v0l3 -43z" />
    <glyph glyph-name="uni013B" unicode="&#x13b;" horiz-adv-x="501" 
d="M34 0l124 700h45l-118 -663h340l-6 -37h-385zM133 -205l5 29q24 0 36 13.5t16 38.5l3 13h-38l10 57h65q0 -15 -1 -29.5t-3 -26.5q-10 -56 -34.5 -75.5t-58.5 -19.5z" />
    <glyph glyph-name="uni013C" unicode="&#x13c;" horiz-adv-x="188" 
d="M27 0l127 720h45l-127 -720h-45zM-25 -205l5 29q24 0 36 13.5t16 38.5l3 13h-38l10 57h65q0 -15 -1 -29.5t-3 -26.5q-10 -56 -34.5 -75.5t-58.5 -19.5z" />
    <glyph glyph-name="Lcaron" unicode="&#x13d;" horiz-adv-x="501" 
d="M34 0l124 700h45l-118 -663h340l-6 -37h-385zM245 570l5 29q23 0 33 9.5t14 28.5l4 24h-36l11 64h63q-1 -23 -2 -39.5t-3 -33.5q-9 -48 -32 -65t-57 -17z" />
    <glyph glyph-name="lcaron" unicode="&#x13e;" horiz-adv-x="244" 
d="M27 0l127 720h45l-127 -720h-45zM218 582l5 29q23 0 33 9.5t14 28.5l4 24h-36l11 64h63q-1 -23 -2 -39.5t-3 -33.5q-9 -48 -32 -65t-57 -17z" />
    <glyph glyph-name="Ldot" unicode="&#x13f;" horiz-adv-x="501" 
d="M34 0l124 700h45l-118 -663h340l-6 -37h-385zM350 309q-17 0 -29.5 12.5t-12.5 29.5q0 18 12.5 30t29.5 12q18 0 30 -12t12 -30q0 -17 -12 -29.5t-30 -12.5z" />
    <glyph glyph-name="ldot" unicode="&#x140;" horiz-adv-x="200" 
d="M27 0l127 720h45l-127 -720h-45zM209 318q-17 0 -29.5 12.5t-12.5 29.5q0 18 12.5 30t29.5 12q18 0 30 -12t12 -30q0 -17 -12 -29.5t-30 -12.5z" />
    <glyph glyph-name="Lslash" unicode="&#x141;" horiz-adv-x="535" 
d="M22 292l8 42l291 114l-7 -42zM68 0l124 700h45l-117 -663h340l-7 -37h-385z" />
    <glyph glyph-name="lslash" unicode="&#x142;" horiz-adv-x="210" 
d="M23 357l7 41l218 97l-7 -41zM38 0l127 720h45l-127 -720h-45z" />
    <glyph glyph-name="Nacute" unicode="&#x143;" horiz-adv-x="658" 
d="M34 0l123 700h48l299 -628v0l111 628h45l-124 -700h-46l-300 631v0l-111 -631h-45zM333 753l-1 36l194 123v0l3 -43z" />
    <glyph glyph-name="nacute" unicode="&#x144;" horiz-adv-x="540" 
d="M27 0l89 504h39l-13 -103v0q36 58 87.5 86.5t108.5 28.5t95 -24t53 -70t3 -113l-55 -309h-45l53 302q16 87 -14 130t-103 43q-48 0 -90 -23t-72 -67t-42 -109l-49 -276h-45zM238 545l-1 36l194 123v0l3 -43z" />
    <glyph glyph-name="uni0145" unicode="&#x145;" horiz-adv-x="658" 
d="M34 0l123 700h48l299 -628v0l111 628h45l-124 -700h-46l-300 631v0l-111 -631h-45zM211 -205l5 29q24 0 36 13.5t16 38.5l3 13h-38l10 57h65q0 -15 -1 -29.5t-3 -26.5q-10 -56 -34.5 -75.5t-58.5 -19.5z" />
    <glyph glyph-name="uni0146" unicode="&#x146;" horiz-adv-x="540" 
d="M27 0l89 504h39l-13 -103v0q36 58 87.5 86.5t108.5 28.5t95 -24t53 -70t3 -113l-55 -309h-45l53 302q16 87 -14 130t-103 43q-48 0 -90 -23t-72 -67t-42 -109l-49 -276h-45zM151 -205l5 29q24 0 36 13.5t16 38.5l3 13h-38l10 57h65q0 -15 -1 -29.5t-3 -26.5
q-10 -56 -34.5 -75.5t-58.5 -19.5z" />
    <glyph glyph-name="Ncaron" unicode="&#x147;" horiz-adv-x="658" 
d="M34 0l124 700h47l299 -628v0l111 628h45l-124 -700h-46l-300 631v0l-111 -631h-45zM567 880l-7 -40l-144 -85l-114 85l7 40l112 -84z" />
    <glyph glyph-name="ncaron" unicode="&#x148;" horiz-adv-x="540" 
d="M27 0l89 504h39l-13 -103v0q36 58 87.5 86.5t108.5 28.5t95 -24t53 -70t3 -113l-55 -309h-45l53 302q16 87 -14 130t-103 43q-48 0 -90 -23t-72 -67t-42 -109l-49 -276h-45zM476 688l-7 -40l-144 -85l-114 85l7 40l112 -84z" />
    <glyph glyph-name="Eng" unicode="&#x14a;" horiz-adv-x="658" 
d="M34 0l123 700h48l299 -623v0l110 623h45l-142 -807q-6 -37 -22.5 -62t-44.5 -38t-69 -13h-44l7 40h37q43 0 64 18t28 60l18 102l-302 628v0l-110 -628h-45z" />
    <glyph glyph-name="eng" unicode="&#x14b;" horiz-adv-x="550" 
d="M27 0l89 504h40l-13 -102v0q35 57 87 85.5t108 28.5q55 0 93 -22t54 -67.5t4 -117.5l-73 -416q-7 -37 -23 -62t-44 -38t-69 -13h-45l7 40h37q44 0 64.5 18t27.5 60l72 404q15 89 -15.5 131t-102.5 42q-48 0 -90.5 -23.5t-72.5 -68.5t-42 -111l-48 -272h-45z" />
    <glyph glyph-name="Omacron" unicode="&#x14c;" horiz-adv-x="769" 
d="M337 -12q-94 0 -159.5 42.5t-95.5 119t-19 176.5q9 83 43 153.5t88.5 122.5t123.5 81t147 29q95 0 160.5 -43t96 -119t18.5 -175q-9 -84 -43 -154.5t-88 -123t-123.5 -81t-148.5 -28.5zM344 29q66 0 125 24t106.5 70t78 109.5t39.5 142.5q11 94 -16 160t-84 101t-134 35
q-66 0 -125 -24.5t-106.5 -69.5t-78 -108.5t-38.5 -141.5q-12 -94 15.5 -160.5t84 -102t133.5 -35.5zM329 816l7 39h323l-6 -39h-324z" />
    <glyph glyph-name="omacron" unicode="&#x14d;" horiz-adv-x="580" 
d="M244 -12q-66 0 -114 30t-71 86t-14 131q7 64 32.5 115.5t64.5 88t88 57t105 20.5q67 0 115 -30t71 -85t13 -131q-7 -63 -32 -115t-64.5 -89t-88.5 -57.5t-105 -20.5zM250 28q57 0 108 28.5t86 82.5t43 129q9 68 -11 114.5t-59 69.5t-88 23q-56 0 -107 -28.5t-86 -82
t-43 -128.5q-9 -69 11 -115t58.5 -69.5t87.5 -23.5zM188 597l7 39h323l-6 -39h-324z" />
    <glyph glyph-name="Obreve" unicode="&#x14e;" horiz-adv-x="769" 
d="M337 -12q-94 0 -159.5 42.5t-95.5 119t-19 176.5q9 83 43 153.5t88.5 122.5t123.5 81t147 29q95 0 160.5 -43t96 -119t18.5 -175q-9 -84 -43 -154.5t-88 -123t-123.5 -81t-148.5 -28.5zM344 29q66 0 125 24t106.5 70t78 109.5t39.5 142.5q11 94 -16 160t-84 101t-134 35
q-66 0 -125 -24.5t-106.5 -69.5t-78 -108.5t-38.5 -141.5q-12 -94 15.5 -160.5t84 -102t133.5 -35.5zM482 770q-44 0 -69 16.5t-33.5 41.5t-3.5 53l2 11h33q-10 -41 10.5 -62.5t67.5 -21.5q48 0 74.5 23t34.5 61h34l-3 -11q-6 -28 -24 -53t-48.5 -41.5t-74.5 -16.5z" />
    <glyph glyph-name="obreve" unicode="&#x14f;" horiz-adv-x="580" 
d="M244 -12q-66 0 -114 30t-71 86t-14 131q7 64 32.5 115.5t64.5 88t88 57t105 20.5q67 0 115 -30t71 -85t13 -131q-7 -63 -32 -115t-64.5 -89t-88.5 -57.5t-105 -20.5zM250 28q57 0 108 28.5t86 82.5t43 129q9 68 -11 114.5t-59 69.5t-88 23q-56 0 -107 -28.5t-86 -82
t-43 -128.5q-9 -69 11 -115t58.5 -69.5t87.5 -23.5zM343 565q-44 0 -69 16.5t-33.5 41.5t-3.5 53l2 11h33q-10 -41 10.5 -62.5t67.5 -21.5q48 0 74.5 23t34.5 61h34l-3 -11q-6 -28 -24 -53t-48.5 -41.5t-74.5 -16.5z" />
    <glyph glyph-name="Ohungarumlaut" unicode="&#x150;" horiz-adv-x="769" 
d="M337 -12q-94 0 -159.5 42.5t-95.5 119t-19 176.5q9 83 43 153.5t88.5 122.5t123.5 81t147 29q95 0 160.5 -43t96 -119t18.5 -175q-9 -84 -43 -154.5t-88 -123t-123.5 -81t-148.5 -28.5zM344 29q66 0 125 24t106.5 70t78 109.5t39.5 142.5q11 94 -16 160t-84 101t-134 35
q-66 0 -125 -24.5t-106.5 -69.5t-78 -108.5t-38.5 -141.5q-12 -94 15.5 -160.5t84 -102t133.5 -35.5zM487 760l88 122h44l-98 -122h-34zM362 760l83 122h46l-94 -122h-35z" />
    <glyph glyph-name="ohungarumlaut" unicode="&#x151;" horiz-adv-x="580" 
d="M244 -12q-66 0 -114 30t-71 86t-14 131q7 64 32.5 115.5t64.5 88t88 57t105 20.5q67 0 115 -30t71 -85t13 -131q-7 -63 -32 -115t-64.5 -89t-88.5 -57.5t-105 -20.5zM250 28q57 0 108 28.5t86 82.5t43 129q9 68 -11 114.5t-59 69.5t-88 23q-56 0 -107 -28.5t-86 -82
t-43 -128.5q-9 -69 11 -115t58.5 -69.5t87.5 -23.5zM350 559l88 122h44l-98 -122h-34zM225 559l83 122h46l-94 -122h-35z" />
    <glyph glyph-name="OE" unicode="&#x152;" horiz-adv-x="1127" 
d="M334 -12q-92 0 -157 43.5t-95 120.5t-18 179q9 82 43 151.5t87.5 121t121.5 80t144 28.5q67 0 119 -22t87.5 -62.5t51.5 -97.5l30 170h400l-7 -38h-355l-52 -292h325l-6 -39h-325l-52 -293h355l-7 -38h-400l32 175q-36 -60 -85.5 -102t-109.5 -63.5t-127 -21.5zM340 29
q65 0 124 24.5t106 70t77.5 109.5t39.5 143q12 94 -15 160t-83.5 100.5t-134.5 34.5q-63 0 -121 -24t-105 -69t-78 -107t-39 -139q-12 -95 15 -163t82.5 -104t131.5 -36z" />
    <glyph glyph-name="oe" unicode="&#x153;" horiz-adv-x="982" 
d="M244 -12q-66 0 -114 30t-71 86t-14 131q7 64 32.5 115.5t64.5 88t88 57t105 20.5q76 0 127.5 -39t65.5 -109q38 71 100 109.5t138 38.5q70 0 112.5 -30t59.5 -79.5t10 -108.5q-1 -9 -2.5 -19.5t-3.5 -20t-3 -16.5h-407q-12 -69 4.5 -117t54 -72.5t87.5 -24.5
q66 0 113 31.5t76 87.5h45q-22 -46 -55.5 -82t-80 -56.5t-105.5 -20.5q-75 0 -121.5 39.5t-59.5 108.5q-39 -69 -104 -108.5t-142 -39.5zM250 28q58 0 108.5 28.5t85.5 82.5t43 129q9 68 -11 114.5t-59 69.5t-89 23q-56 0 -106.5 -28.5t-85 -82t-43.5 -128.5q-9 -69 11 -115
t59 -69.5t87 -23.5zM539 281h364q10 66 -5.5 109t-51.5 64.5t-88 21.5q-46 0 -91.5 -21t-79.5 -64t-48 -110z" />
    <glyph glyph-name="Racute" unicode="&#x154;" horiz-adv-x="564" 
d="M34 0l124 700h195q78 0 122.5 -25t62 -67.5t11.5 -95.5q-7 -64 -39.5 -111.5t-89.5 -73.5t-139 -26h-149l-53 -301h-45zM417 0l-106 319h48l107 -319h-49zM139 338h149q91 0 147.5 43.5t66.5 128.5q9 71 -30.5 111.5t-127.5 40.5h-148zM275 753l-1 36l194 123v0l3 -43z
" />
    <glyph glyph-name="racute" unicode="&#x155;" horiz-adv-x="340" 
d="M27 0l89 504h40l-13 -98v0q25 38 57.5 62.5t72 36t86.5 11.5l-8 -46h-18q-30 0 -63 -8t-63 -28.5t-52.5 -56.5t-32.5 -92l-50 -285h-45zM152 545l-1 36l194 123v0l3 -43z" />
    <glyph glyph-name="uni0156" unicode="&#x156;" horiz-adv-x="564" 
d="M34 0l124 700h195q78 0 122.5 -25t62 -67.5t11.5 -95.5q-7 -64 -39.5 -111.5t-89.5 -73.5t-139 -26h-149l-53 -301h-45zM417 0l-106 319h48l107 -319h-49zM139 338h149q91 0 147.5 43.5t66.5 128.5q9 71 -30.5 111.5t-127.5 40.5h-148zM168 -205l5 29q24 0 36 13.5
t16 38.5l3 13h-38l10 57h65q0 -15 -1 -29.5t-3 -26.5q-10 -56 -34.5 -75.5t-58.5 -19.5z" />
    <glyph glyph-name="uni0157" unicode="&#x157;" horiz-adv-x="340" 
d="M27 0l89 504h40l-13 -98v0q25 38 57.5 62.5t72 36t86.5 11.5l-8 -46h-18q-30 0 -63 -8t-63 -28.5t-52.5 -56.5t-32.5 -92l-50 -285h-45zM-24 -205l5 29q24 0 36 13.5t16 38.5l3 13h-38l10 57h65q0 -15 -1 -29.5t-3 -26.5q-10 -56 -34.5 -75.5t-58.5 -19.5z" />
    <glyph glyph-name="Rcaron" unicode="&#x158;" horiz-adv-x="564" 
d="M34 0l124 700h195q78 0 122.5 -25t62 -67.5t11.5 -95.5q-7 -64 -39.5 -111.5t-89.5 -73.5t-139 -26h-149l-53 -301h-45zM417 0l-106 319h48l107 -319h-49zM139 338h149q91 0 147.5 43.5t66.5 128.5q9 71 -30.5 111.5t-127.5 40.5h-148zM509 880l-7 -40l-144 -85l-114 85
l7 40l112 -84z" />
    <glyph glyph-name="rcaron" unicode="&#x159;" horiz-adv-x="340" 
d="M27 0l89 504h40l-13 -98v0q25 38 57.5 62.5t72 36t86.5 11.5l-8 -46h-18q-30 0 -63 -8t-63 -28.5t-52.5 -56.5t-32.5 -92l-50 -285h-45zM391 688l-7 -40l-145 -85l-113 85l7 40l112 -84z" />
    <glyph glyph-name="Sacute" unicode="&#x15a;" horiz-adv-x="561" 
d="M246 -12q-78 0 -129 28t-71.5 78t-9.5 116h47q-9 -51 6 -92.5t56 -65.5t107 -24q63 0 107 20.5t68.5 56.5t29.5 82q4 38 -7 64t-33.5 44t-52 30t-62 23t-63.5 23q-62 24 -92.5 62.5t-24.5 97.5q6 52 35.5 92.5t80 64.5t118.5 24q60 0 104 -21.5t65.5 -63.5t9.5 -103h-47
q9 50 -7 83t-50.5 49t-80.5 16q-55 0 -93.5 -18.5t-60 -49.5t-26.5 -70q-4 -32 7 -54.5t33 -38t51 -27.5t62 -23t65 -25q28 -12 51 -27.5t39 -36.5t23 -48.5t3 -62.5q-5 -58 -37.5 -104t-88 -72.5t-132.5 -26.5zM281 753l-1 36l194 123v0l3 -43z" />
    <glyph glyph-name="sacute" unicode="&#x15b;" horiz-adv-x="477" 
d="M201 -12q-56 0 -97 19t-61 56.5t-16 93.5h47q-4 -40 11.5 -69t47.5 -44t75 -15q41 0 72.5 13.5t51.5 38t23 55.5q5 34 -7.5 53.5t-41 30.5t-72.5 20q-35 7 -63 18t-46.5 26.5t-27 38t-5.5 52.5q5 41 29.5 72.5t65.5 50t93 18.5q71 0 113.5 -38t37.5 -112h-46q5 49 -24 79
t-87 30t-94 -27t-40 -69q-3 -23 6.5 -42t34.5 -32.5t69 -23.5q34 -7 64 -16.5t51.5 -24t32 -38.5t6.5 -60q-5 -45 -32 -80t-71 -54.5t-100 -19.5zM204 545l-1 36l194 123v0l3 -43z" />
    <glyph glyph-name="Scedilla" unicode="&#x15e;" horiz-adv-x="561" 
d="M246 -12q-78 0 -129 28t-71.5 78t-9.5 116h47q-9 -51 6 -92.5t56 -65.5t107 -24q63 0 107 20.5t68.5 56.5t29.5 82q4 38 -7 64t-33.5 44t-52 30t-62 23t-63.5 23q-62 24 -92.5 62.5t-24.5 97.5q6 52 35.5 92.5t80 64.5t118.5 24q60 0 104 -21.5t65.5 -63.5t9.5 -103h-47
q9 50 -7 83t-50.5 49t-80.5 16q-55 0 -93.5 -18.5t-60 -49.5t-26.5 -70q-4 -32 7 -54.5t33 -38t51 -27.5t62 -23t65 -25q28 -12 51 -27.5t39 -36.5t23 -48.5t3 -62.5q-5 -58 -37.5 -104t-88 -72.5t-132.5 -26.5zM128 -255l6 33h77q44 0 66.5 18t25.5 44q3 27 -14 40t-60 13
h-40l20 114h35l-15 -82q41 2 67.5 -7.5t38.5 -29t9 -47.5q-3 -27 -19.5 -49t-44.5 -34.5t-65 -12.5h-87z" />
    <glyph glyph-name="scedilla" unicode="&#x15f;" horiz-adv-x="477" 
d="M201 -12q-56 0 -97 19t-61 56.5t-16 93.5h47q-4 -40 11.5 -69t47.5 -44t75 -15q41 0 72.5 13.5t51.5 38t23 55.5q5 34 -7.5 53.5t-41 30.5t-72.5 20q-35 7 -63 18t-46.5 26.5t-27 38t-5.5 52.5q5 41 29.5 72.5t65.5 50t93 18.5q71 0 113.5 -38t37.5 -112h-46q5 49 -24 79
t-87 30t-94 -27t-40 -69q-3 -23 6.5 -42t34.5 -32.5t69 -23.5q34 -7 64 -16.5t51.5 -24t32 -38.5t6.5 -60q-5 -45 -32 -80t-71 -54.5t-100 -19.5zM100 -255l6 33h77q44 0 66.5 18t25.5 44q3 27 -14 40t-60 13h-40l20 114h35l-15 -82q41 2 67.5 -7.5t38.5 -29t9 -47.5
q-3 -27 -19.5 -49t-44.5 -34.5t-65 -12.5h-87z" />
    <glyph glyph-name="Scaron" unicode="&#x160;" horiz-adv-x="561" 
d="M246 -12q-78 0 -129 28t-71.5 78t-9.5 116h47q-9 -51 6 -92.5t56 -65.5t107 -24q63 0 107 20.5t68.5 56.5t29.5 82q4 38 -7 64t-33.5 44t-52 30t-62 23t-63.5 23q-62 24 -92.5 62.5t-24.5 97.5q6 52 35.5 92.5t80 64.5t118.5 24q60 0 104 -21.5t65.5 -63.5t9.5 -103h-47
q9 50 -7 83t-50.5 49t-80.5 16q-55 0 -93.5 -18.5t-60 -49.5t-26.5 -70q-4 -32 7 -54.5t33 -38t51 -27.5t62 -23t65 -25q28 -12 51 -27.5t39 -36.5t23 -48.5t3 -62.5q-5 -58 -37.5 -104t-88 -72.5t-132.5 -26.5zM516 880l-7 -40l-145 -85l-113 85l7 40l112 -84z" />
    <glyph glyph-name="scaron" unicode="&#x161;" horiz-adv-x="477" 
d="M201 -12q-56 0 -97 19t-61 56.5t-16 93.5h47q-4 -40 11.5 -69t47.5 -44t75 -15q41 0 72.5 13.5t51.5 38t23 55.5q5 34 -7.5 53.5t-41 30.5t-72.5 20q-35 7 -63 18t-46.5 26.5t-27 38t-5.5 52.5q5 41 29.5 72.5t65.5 50t93 18.5q71 0 113.5 -38t37.5 -112h-46q5 49 -24 79
t-87 30t-94 -27t-40 -69q-3 -23 6.5 -42t34.5 -32.5t69 -23.5q34 -7 64 -16.5t51.5 -24t32 -38.5t6.5 -60q-5 -45 -32 -80t-71 -54.5t-100 -19.5zM442 688l-7 -40l-144 -85l-114 85l7 40l112 -84z" />
    <glyph glyph-name="uni0162" unicode="&#x162;" horiz-adv-x="527" 
d="M196 0l117 663h-211l7 37h467l-6 -37h-212l-117 -663h-45zM122 -255l6 33h77q44 0 66.5 18t25.5 44q3 27 -14 40t-60 13h-40l20 114h35l-15 -82q41 2 67.5 -7.5t38.5 -29t9 -47.5q-3 -27 -19.5 -49t-44.5 -34.5t-65 -12.5h-87z" />
    <glyph glyph-name="uni0163" unicode="&#x163;" horiz-adv-x="356" 
d="M202 0q-43 0 -69 13t-34.5 43t-0.5 79l59 330h-84l7 39h84l26 110h38l-19 -110h158l-7 -39h-158l-59 -330q-9 -53 8 -74.5t65 -21.5h62l-7 -39h-69zM80 -255l6 33h77q44 0 66.5 18t25.5 44q3 27 -14 40t-60 13h-40l20 114h35l-15 -82q41 2 67.5 -7.5t38.5 -29t9 -47.5
q-3 -27 -19.5 -49t-44.5 -34.5t-65 -12.5h-87z" />
    <glyph glyph-name="Tcaron" unicode="&#x164;" horiz-adv-x="527" 
d="M196 0l117 663h-211l7 37h467l-6 -37h-212l-117 -663h-45zM504 885l-7 -41l-144 -84l-114 84l7 40l112 -84z" />
    <glyph glyph-name="tcaron" unicode="&#x165;" horiz-adv-x="356" 
d="M202 0q-43 0 -69 13t-34.5 43t-0.5 79l59 330h-84l7 39h84l26 110h38l-19 -110h158l-7 -39h-158l-59 -330q-9 -53 8 -74.5t65 -21.5h62l-7 -39h-69zM271 558l5 29q23 0 33 9.5t14 28.5l4 24h-36l11 64h63q-1 -23 -2 -39.5t-3 -33.5q-9 -48 -32 -65t-57 -17z" />
    <glyph glyph-name="Utilde" unicode="&#x168;" horiz-adv-x="631" 
d="M270 -12q-72 0 -122.5 29t-71.5 87t-5 145l80 451h45l-80 -450q-13 -75 3 -124t57 -72.5t101 -23.5q59 0 107.5 22.5t82.5 71.5t47 127l80 449h45l-80 -451q-16 -91 -58.5 -148.5t-102.5 -85t-128 -27.5zM287 770q11 38 35.5 59t54.5 21q24 0 39 -12t28.5 -24t32.5 -12
q17 0 30 11.5t20 33.5h32q-9 -35 -33.5 -57t-54.5 -22q-24 0 -39 12t-28.5 24t-33.5 12q-16 0 -29.5 -11.5t-21.5 -34.5h-32z" />
    <glyph glyph-name="utilde" unicode="&#x169;" horiz-adv-x="540" 
d="M201 -12q-56 0 -94 24t-53 70t-3 113l55 309h45l-53 -302q-16 -87 13.5 -130t103.5 -43q49 0 91 22.5t72 67t41 109.5l49 276h45l-89 -504h-39l12 103v0q-35 -59 -87 -87t-109 -28zM192 569q11 38 35.5 59t54.5 21q24 0 39 -12t28.5 -24t32.5 -12q17 0 30 11.5t20 33.5
h32q-9 -35 -33.5 -57t-54.5 -22q-24 0 -39 12t-28.5 24t-33.5 12q-16 0 -29.5 -11.5t-21.5 -34.5h-32z" />
    <glyph glyph-name="Umacron" unicode="&#x16a;" horiz-adv-x="631" 
d="M270 -12q-72 0 -122.5 29t-71.5 87t-5 145l80 451h45l-80 -450q-13 -75 3 -124t57 -72.5t101 -23.5q59 0 107.5 22.5t82.5 71.5t47 127l80 449h45l-80 -451q-16 -91 -58.5 -148.5t-102.5 -85t-128 -27.5zM262 816l7 39h323l-6 -39h-324z" />
    <glyph glyph-name="umacron" unicode="&#x16b;" horiz-adv-x="540" 
d="M201 -12q-56 0 -94 24t-53 70t-3 113l55 309h45l-53 -302q-16 -87 13.5 -130t103.5 -43q49 0 91 22.5t72 67t41 109.5l49 276h45l-89 -504h-39l12 103v0q-35 -59 -87 -87t-109 -28zM165 597l7 39h323l-6 -39h-324z" />
    <glyph glyph-name="Ubreve" unicode="&#x16c;" horiz-adv-x="631" 
d="M270 -12q-72 0 -122.5 29t-71.5 87t-5 145l80 451h45l-80 -450q-13 -75 3 -124t57 -72.5t101 -23.5q59 0 107.5 22.5t82.5 71.5t47 127l80 449h45l-80 -451q-16 -91 -58.5 -148.5t-102.5 -85t-128 -27.5zM415 770q-44 0 -69 16.5t-33.5 41.5t-3.5 53l2 11h33
q-10 -41 10.5 -62.5t67.5 -21.5q48 0 74.5 23t34.5 61h34l-3 -11q-6 -28 -24 -53t-48.5 -41.5t-74.5 -16.5z" />
    <glyph glyph-name="ubreve" unicode="&#x16d;" horiz-adv-x="540" 
d="M201 -12q-56 0 -94 24t-53 70t-3 113l55 309h45l-53 -302q-16 -87 13.5 -130t103.5 -43q49 0 91 22.5t72 67t41 109.5l49 276h45l-89 -504h-39l12 103v0q-35 -59 -87 -87t-109 -28zM319 565q-44 0 -69 16.5t-33.5 41.5t-3.5 53l2 11h33q-10 -41 10.5 -62.5t67.5 -21.5
q48 0 74.5 23t34.5 61h34l-3 -11q-6 -28 -24 -53t-48.5 -41.5t-74.5 -16.5z" />
    <glyph glyph-name="Uring" unicode="&#x16e;" horiz-adv-x="631" 
d="M270 -12q-72 0 -122.5 29t-71.5 87t-5 145l80 451h45l-80 -450q-13 -75 3 -124t57 -72.5t101 -23.5q59 0 107.5 22.5t82.5 71.5t47 127l80 449h45l-80 -451q-16 -91 -58.5 -148.5t-102.5 -85t-128 -27.5zM432 770q-40 0 -68.5 25t-28.5 69q0 45 28.5 70t68.5 25
q41 0 69 -25t28 -70q0 -44 -28 -69t-69 -25zM432 799q29 0 47 17.5t18 47.5q0 31 -18 48.5t-47 17.5q-28 0 -46 -17.5t-18 -48.5q0 -30 18 -47.5t46 -17.5z" />
    <glyph glyph-name="uring" unicode="&#x16f;" horiz-adv-x="540" 
d="M201 -12q-56 0 -94 24t-53 70t-3 113l55 309h45l-53 -302q-16 -87 13.5 -130t103.5 -43q49 0 91 22.5t72 67t41 109.5l49 276h45l-89 -504h-39l12 103v0q-35 -59 -87 -87t-109 -28zM338 569q-40 0 -68.5 25t-28.5 69q0 45 28.5 70t68.5 25q41 0 69 -25t28 -70
q0 -44 -28 -69t-69 -25zM338 598q29 0 47 17.5t18 47.5q0 31 -18 48.5t-47 17.5q-28 0 -46 -17.5t-18 -48.5q0 -30 18 -47.5t46 -17.5z" />
    <glyph glyph-name="Uhungarumlaut" unicode="&#x170;" horiz-adv-x="631" 
d="M270 -12q-72 0 -122.5 29t-71.5 87t-5 145l80 451h45l-80 -450q-13 -75 3 -124t57 -72.5t101 -23.5q59 0 107.5 22.5t82.5 71.5t47 127l80 449h45l-80 -451q-16 -91 -58.5 -148.5t-102.5 -85t-128 -27.5zM421 760l88 122h44l-98 -122h-34zM296 760l83 122h46l-94 -122
h-35z" />
    <glyph glyph-name="uhungarumlaut" unicode="&#x171;" horiz-adv-x="540" 
d="M201 -12q-56 0 -94 24t-53 70t-3 113l55 309h45l-53 -302q-16 -87 13.5 -130t103.5 -43q49 0 91 22.5t72 67t41 109.5l49 276h45l-89 -504h-39l12 103v0q-35 -59 -87 -87t-109 -28zM327 559l88 122h44l-98 -122h-34zM202 559l83 122h46l-94 -122h-35z" />
    <glyph glyph-name="Uogonek" unicode="&#x172;" horiz-adv-x="631" 
d="M270 -12q-72 0 -122.5 29t-71.5 87t-5 145l80 451h45l-80 -450q-13 -75 3 -124t57 -72.5t101 -23.5q59 0 107.5 22.5t82.5 71.5t47 127l80 449h45l-80 -451q-16 -91 -58.5 -148.5t-102.5 -85t-128 -27.5zM283 -186q-23 0 -45 8t-33.5 26.5t-6.5 51.5q4 21 16.5 40.5
t36.5 37.5t62 34l62 25l11 -27l-67 -29q-41 -18 -58.5 -37.5t-22.5 -40.5q-5 -26 9.5 -41t44.5 -15q18 -1 35.5 3.5t33.5 10.5l-6 -35q-16 -6 -34.5 -9t-37.5 -3z" />
    <glyph glyph-name="uogonek" unicode="&#x173;" horiz-adv-x="540" 
d="M201 -12q-56 0 -94 24t-53 70t-3 113l55 309h45l-53 -302q-16 -87 13.5 -130t103.5 -43q49 0 91 22.5t72 67t41 109.5l49 276h45l-89 -504h-39l12 103v0q-35 -59 -87 -87t-109 -28zM322 -196q-23 0 -45 8t-33.5 26.5t-6.5 51.5q4 21 16.5 40.5t36.5 37.5t62 34l62 25
l11 -27l-67 -29q-41 -18 -58.5 -37.5t-22.5 -40.5q-5 -26 9.5 -41t44.5 -15q18 -1 35.5 3.5t33.5 10.5l-6 -35q-16 -6 -34.5 -9t-37.5 -3z" />
    <glyph glyph-name="Wcircumflex" unicode="&#x174;" horiz-adv-x="929" 
d="M176 0l-70 700h48l59 -641v0l306 641h52l74 -642v0l287 642h49l-321 -700h-52l-76 633v0l-305 -633h-51zM428 760l7 40l144 85l114 -85l-7 -40l-112 84z" />
    <glyph glyph-name="wcircumflex" unicode="&#x175;" horiz-adv-x="715" 
d="M127 0l-54 504h47l44 -454h-7l219 454h52l57 -453h-7l206 453h47l-234 -504h-48l-57 463h7l-224 -463h-48zM282 555l7 40l144 85l114 -85l-7 -40l-112 84z" />
    <glyph glyph-name="Ycircumflex" unicode="&#x176;" horiz-adv-x="535" 
d="M202 0l51 293l-150 407h51l130 -364v0l254 364h52l-292 -407l-51 -293h-45zM237 760l7 40l144 85l114 -85l-7 -40l-112 84z" />
    <glyph glyph-name="ycircumflex" unicode="&#x177;" horiz-adv-x="517" 
d="M33 -220l176 275h-17l-128 449h47l117 -415v0l265 415h49l-461 -724h-48zM184 555l7 40l144 85l114 -85l-7 -40l-112 84z" />
    <glyph glyph-name="Ydieresis" unicode="&#x178;" horiz-adv-x="535" 
d="M202 0l51 293l-150 407h51l130 -364v0l254 364h52l-292 -407l-51 -293h-45zM307 778q-16 0 -28 11.5t-12 27.5q0 17 12 28.5t28 11.5t27.5 -12t11.5 -28t-11.5 -27.5t-27.5 -11.5zM448 778q-16 0 -28 11.5t-12 27.5q0 17 12 28.5t28 11.5t27.5 -12t11.5 -28t-11.5 -27.5
t-27.5 -11.5z" />
    <glyph glyph-name="Zacute" unicode="&#x179;" horiz-adv-x="513" 
d="M-3 0l7 37l478 623h-361l8 40h414l-7 -37l-479 -623h377l-8 -40h-429zM269 753l-1 36l194 123v0l3 -43z" />
    <glyph glyph-name="zacute" unicode="&#x17a;" horiz-adv-x="434" 
d="M-8 0l7 38l377 427h-292l7 39h344l-7 -38l-377 -428h302l-6 -38h-355zM187 545l-1 36l194 123v0l3 -43z" />
    <glyph glyph-name="Zdotaccent" unicode="&#x17b;" horiz-adv-x="513" 
d="M-3 0l7 37l478 623h-361l8 40h414l-7 -37l-479 -623h377l-8 -40h-429zM366 777q-16 0 -27.5 12t-11.5 28t11.5 27.5t27.5 11.5t27.5 -11.5t11.5 -27.5t-11.5 -28t-27.5 -12z" />
    <glyph glyph-name="zdotaccent" unicode="&#x17c;" horiz-adv-x="434" 
d="M-8 0l7 38l377 427h-292l7 39h344l-7 -38l-377 -428h302l-6 -38h-355zM283 570q-16 0 -27.5 12t-11.5 28t11.5 27.5t27.5 11.5t27.5 -11.5t11.5 -27.5t-11.5 -28t-27.5 -12z" />
    <glyph glyph-name="Zcaron" unicode="&#x17d;" horiz-adv-x="513" 
d="M-3 0l7 38l478 622h-361l8 40h414l-7 -37l-479 -623h377l-8 -40h-429zM504 880l-7 -40l-144 -85l-114 85l7 40l112 -84z" />
    <glyph glyph-name="zcaron" unicode="&#x17e;" horiz-adv-x="434" 
d="M-8 0l7 38l377 427h-292l7 39h344l-7 -38l-377 -428h302l-6 -38h-355zM426 688l-7 -40l-145 -85l-113 85l7 40l112 -84z" />
    <glyph glyph-name="uni018F" unicode="&#x18f;" horiz-adv-x="719" 
d="M307 -12q-70 0 -120.5 23t-82 63.5t-43.5 95.5t-4 119q1 19 4 36.5t8 35.5h582l-7 -43h-536q-18 -95 3.5 -159t74.5 -96.5t128 -32.5q56 0 108.5 20.5t97.5 60t75.5 97t41.5 133.5l3 25q15 100 -9 167.5t-76.5 101.5t-125.5 34q-90 0 -161 -44t-113 -128h-52
q31 64 79 112.5t112 75.5t142 27q92 0 152.5 -42t87 -117t14.5 -175q-9 -87 -41.5 -159t-83 -123.5t-116.5 -79.5t-142 -28z" />
    <glyph glyph-name="florin" unicode="&#x192;" horiz-adv-x="332" 
d="M-108 -157l10 38h20q36 0 56.5 15.5t34.5 62.5l182 645q23 82 77 118t141 36l-9 -38q-69 0 -108 -27.5t-56 -88.5l-182 -645q-11 -38 -28.5 -64t-44 -39t-68.5 -13h-25zM86 506l9 38h266l-10 -38h-265z" />
    <glyph glyph-name="AEacute" unicode="&#x1fc;" horiz-adv-x="883" 
d="M-10 0l541 700h373l-6 -37h-305l-53 -294h275l-6 -37h-275l-52 -295h305l-7 -37h-350l116 654v0l-506 -654h-50zM172 203l25 37h296l-7 -37h-314zM502 753l-1 36l194 123v0l3 -43z" />
    <glyph glyph-name="aeacute" unicode="&#x1fd;" horiz-adv-x="897" 
d="M174 -12q-54 0 -88 20.5t-48.5 54.5t-10.5 72q6 56 36 93.5t79 56.5t111 19h158q10 54 1.5 92t-36.5 59t-79 21q-61 0 -106.5 -29t-66.5 -88h-47q17 53 51.5 87.5t80 52t93.5 17.5q51 0 84 -16t51 -43.5t22 -64.5q38 59 96 91.5t127 32.5q70 0 112.5 -30t59.5 -79.5
t9 -108.5q0 -9 -2 -19.5t-3.5 -20t-3.5 -16.5h-407q-11 -68 5 -116.5t53.5 -73t88.5 -24.5q65 0 112 31.5t76 87.5h45q-21 -46 -55 -82t-80.5 -56.5t-104.5 -20.5q-75 0 -122 38.5t-60 105.5q-20 -42 -54 -74.5t-79 -51t-98 -18.5zM185 29q57 0 100.5 25.5t72 67t37.5 88.5
l10 55h-155q-57 0 -94 -15.5t-57 -44t-24 -66.5q-4 -31 7 -56t37.5 -39.5t65.5 -14.5zM454 281h364q10 66 -5 109t-51 64.5t-89 21.5q-47 0 -92 -21t-78.5 -64t-48.5 -110zM416 545l-1 36l194 123v0l3 -43z" />
    <glyph glyph-name="uni0218" unicode="&#x218;" horiz-adv-x="561" 
d="M246 -12q-78 0 -129 28t-71.5 78t-9.5 116h47q-9 -51 6 -92.5t56 -65.5t107 -24q63 0 107 20.5t68.5 56.5t29.5 82q4 38 -7 64t-33.5 44t-52 30t-62 23t-63.5 23q-62 24 -92.5 62.5t-24.5 97.5q6 52 35.5 92.5t80 64.5t118.5 24q60 0 104 -21.5t65.5 -63.5t9.5 -103h-47
q9 50 -7 83t-50.5 49t-80.5 16q-55 0 -93.5 -18.5t-60 -49.5t-26.5 -70q-4 -32 7 -54.5t33 -38t51 -27.5t62 -23t65 -25q28 -12 51 -27.5t39 -36.5t23 -48.5t3 -62.5q-5 -58 -37.5 -104t-88 -72.5t-132.5 -26.5zM150 -205l5 29q24 0 36 13.5t16 38.5l3 13h-38l10 57h65
q0 -15 -1 -29.5t-3 -26.5q-10 -56 -34.5 -75.5t-58.5 -19.5z" />
    <glyph glyph-name="uni0219" unicode="&#x219;" horiz-adv-x="477" 
d="M201 -12q-56 0 -97 19t-61 56.5t-16 93.5h47q-4 -40 11.5 -69t47.5 -44t75 -15q41 0 72.5 13.5t51.5 38t23 55.5q5 34 -7.5 53.5t-41 30.5t-72.5 20q-35 7 -63 18t-46.5 26.5t-27 38t-5.5 52.5q5 41 29.5 72.5t65.5 50t93 18.5q71 0 113.5 -38t37.5 -112h-46q5 49 -24 79
t-87 30t-94 -27t-40 -69q-3 -23 6.5 -42t34.5 -32.5t69 -23.5q34 -7 64 -16.5t51.5 -24t32 -38.5t6.5 -60q-5 -45 -32 -80t-71 -54.5t-100 -19.5zM122 -205l5 29q24 0 36 13.5t16 38.5l3 13h-38l10 57h65q0 -15 -1 -29.5t-3 -26.5q-10 -56 -34.5 -75.5t-58.5 -19.5z" />
    <glyph glyph-name="uni021A" unicode="&#x21a;" horiz-adv-x="527" 
d="M196 0l117 663h-211l7 37h467l-6 -37h-212l-117 -663h-45zM144 -205l5 29q24 0 36 13.5t16 38.5l3 13h-38l10 57h65q0 -15 -1 -29.5t-3 -26.5q-10 -56 -34.5 -75.5t-58.5 -19.5z" />
    <glyph glyph-name="uni021B" unicode="&#x21b;" horiz-adv-x="356" 
d="M202 0q-43 0 -69 13t-34.5 43t-0.5 79l59 330h-84l7 39h84l26 110h38l-19 -110h158l-7 -39h-158l-59 -330q-9 -53 8 -74.5t65 -21.5h62l-7 -39h-69zM102 -205l5 29q24 0 36 13.5t16 38.5l3 13h-38l10 57h65q0 -15 -1 -29.5t-3 -26.5q-10 -56 -34.5 -75.5t-58.5 -19.5z
" />
    <glyph glyph-name="uni0237" unicode="&#x237;" horiz-adv-x="204" 
d="M-110 -220l7 40h37q43 0 63.5 18t28.5 60l106 606h45l-107 -611q-6 -37 -22.5 -62t-44.5 -38t-69 -13h-44z" />
    <glyph glyph-name="uni0259" unicode="&#x259;" horiz-adv-x="541" 
d="M311 516q67 0 111.5 -31t63.5 -86.5t10 -129.5q-7 -64 -30.5 -116t-61 -88.5t-85 -56.5t-102.5 -20q-70 0 -113 30t-60 79.5t-10 108.5q1 14 4 28t5 27h420l-6 -38h-377q-10 -65 5 -108.5t51.5 -65t87.5 -21.5q49 0 95 22t80.5 68t46.5 117l4 18q13 73 -3 122.5t-53 75
t-90 25.5q-63 0 -109.5 -30t-75.5 -84h-45q22 45 55.5 79.5t79 54.5t102.5 20z" />
    <glyph glyph-name="circumflex" unicode="&#x2c6;" horiz-adv-x="259" 
d="M54 555l7 40l144 85l114 -85l-7 -40l-112 84z" />
    <glyph glyph-name="caron" unicode="&#x2c7;" horiz-adv-x="258" 
d="M335 688l-7 -40l-144 -85l-114 85l7 40l112 -84z" />
    <glyph glyph-name="breve" unicode="&#x2d8;" horiz-adv-x="254" 
d="M181 565q-44 0 -69 16.5t-33.5 41.5t-3.5 53l2 11h33q-10 -41 10.5 -62.5t67.5 -21.5q48 0 74.5 23t34.5 61h34l-3 -11q-6 -28 -24 -53t-48.5 -41.5t-74.5 -16.5z" />
    <glyph glyph-name="dotaccent" unicode="&#x2d9;" horiz-adv-x="80" 
d="M103 570q-16 0 -27.5 12t-11.5 28t11.5 27.5t27.5 11.5t27.5 -11.5t11.5 -27.5t-11.5 -28t-27.5 -12z" />
    <glyph glyph-name="ring" unicode="&#x2da;" horiz-adv-x="197" 
d="M171 569q-40 0 -68.5 25t-28.5 69q0 45 28.5 70t68.5 25q41 0 69 -25t28 -70q0 -44 -28 -69t-69 -25zM171 598q29 0 47 17.5t18 47.5q0 31 -18 48.5t-47 17.5q-28 0 -46 -17.5t-18 -48.5q0 -30 18 -47.5t46 -17.5z" />
    <glyph glyph-name="ogonek" unicode="&#x2db;" horiz-adv-x="170" 
d="M21 -196q-23 0 -45 8t-33.5 26.5t-6.5 51.5q4 21 16.5 40.5t36.5 37.5t62 34l62 25l11 -27l-67 -29q-41 -18 -58.5 -37.5t-22.5 -40.5q-5 -26 9.5 -41t44.5 -15q18 -1 35.5 3.5t33.5 10.5l-6 -35q-16 -6 -34.5 -9t-37.5 -3z" />
    <glyph glyph-name="tilde" unicode="&#x2dc;" horiz-adv-x="258" 
d="M56 569q11 38 35.5 59t54.5 21q24 0 39 -12t28.5 -24t32.5 -12q17 0 30 11.5t20 33.5h32q-9 -35 -33.5 -57t-54.5 -22q-24 0 -39 12t-28.5 24t-33.5 12q-16 0 -29.5 -11.5t-21.5 -34.5h-32z" />
    <glyph glyph-name="hungarumlaut" unicode="&#x2dd;" horiz-adv-x="236" 
d="M179 559l88 122h44l-98 -122h-34zM54 559l83 122h46l-94 -122h-35z" />
    <glyph glyph-name="gravecomb" unicode="&#x300;" 
d="M253 545l-181 117l14 40v0l178 -121z" />
    <glyph glyph-name="acutecomb" unicode="&#x301;" 
d="M59 545l-1 36l194 123v0l3 -43z" />
    <glyph glyph-name="uni0302" unicode="&#x302;" 
d="M54 555l7 40l144 85l114 -85l-7 -40l-112 84z" />
    <glyph glyph-name="tildecomb" unicode="&#x303;" 
d="M56 569q11 38 35.5 59t54.5 21q24 0 39 -12t28.5 -24t32.5 -12q17 0 30 11.5t20 33.5h32q-9 -35 -33.5 -57t-54.5 -22q-24 0 -39 12t-28.5 24t-33.5 12q-16 0 -29.5 -11.5t-21.5 -34.5h-32z" />
    <glyph glyph-name="uni0304" unicode="&#x304;" 
d="M61 597l7 39h323l-6 -39h-324z" />
    <glyph glyph-name="uni0306" unicode="&#x306;" 
d="M181 565q-44 0 -69 16.5t-33.5 41.5t-3.5 53l2 11h33q-10 -41 10.5 -62.5t67.5 -21.5q48 0 74.5 23t34.5 61h34l-3 -11q-6 -28 -24 -53t-48.5 -41.5t-74.5 -16.5z" />
    <glyph glyph-name="uni0307" unicode="&#x307;" 
d="M103 570q-16 0 -27.5 12t-11.5 28t11.5 27.5t27.5 11.5t27.5 -11.5t11.5 -27.5t-11.5 -28t-27.5 -12z" />
    <glyph glyph-name="uni0308" unicode="&#x308;" 
d="M104 574q-16 0 -28 11.5t-12 27.5q0 17 12 28.5t28 11.5t27.5 -12t11.5 -28t-11.5 -27.5t-27.5 -11.5zM245 574q-16 0 -28 11.5t-12 27.5q0 17 12 28.5t28 11.5t27.5 -12t11.5 -28t-11.5 -27.5t-27.5 -11.5z" />
    <glyph glyph-name="uni030A" unicode="&#x30a;" 
d="M171 569q-40 0 -68.5 25t-28.5 69q0 45 28.5 70t68.5 25q41 0 69 -25t28 -70q0 -44 -28 -69t-69 -25zM171 598q29 0 47 17.5t18 47.5q0 31 -18 48.5t-47 17.5q-28 0 -46 -17.5t-18 -48.5q0 -30 18 -47.5t46 -17.5z" />
    <glyph glyph-name="uni030B" unicode="&#x30b;" 
d="M179 559l88 122h44l-98 -122h-34zM54 559l83 122h46l-94 -122h-35z" />
    <glyph glyph-name="uni030C" unicode="&#x30c;" 
d="M335 688l-7 -40l-144 -85l-114 85l7 40l112 -84z" />
    <glyph glyph-name="uni0312" unicode="&#x312;" 
d="M157 721l-5 -29q-22 0 -32.5 -9.5t-14.5 -28.5l-4 -24h36l-11 -64h-63q1 23 2 39.5t3 33.5q9 48 32 65t57 17z" />
    <glyph glyph-name="uni0326" unicode="&#x326;" 
d="M-80 -205l5 29q24 0 36 13.5t16 38.5l3 13h-38l10 57h65q0 -15 -1 -29.5t-3 -26.5q-10 -56 -34.5 -75.5t-58.5 -19.5z" />
    <glyph glyph-name="uni0327" unicode="&#x327;" 
d="M-89 -255l6 33h77q44 0 66.5 18t25.5 44q3 27 -14 40t-60 13h-40l20 114h35l-15 -82q41 2 67.5 -7.5t38.5 -29t9 -47.5q-3 -27 -19.5 -49t-44.5 -34.5t-65 -12.5h-87z" />
    <glyph glyph-name="uni0328" unicode="&#x328;" 
d="M21 -196q-23 0 -45 8t-33.5 26.5t-6.5 51.5q4 21 16.5 40.5t36.5 37.5t62 34l62 25l11 -27l-67 -29q-41 -18 -58.5 -37.5t-22.5 -40.5q-5 -26 9.5 -41t44.5 -15q18 -1 35.5 3.5t33.5 10.5l-6 -35q-16 -6 -34.5 -9t-37.5 -3z" />
    <glyph glyph-name="pi" unicode="&#x3c0;" horiz-adv-x="646" 
d="M97 0l82 466h-84l7 38h531l-7 -38h-83l-82 -466h-45l82 466h-274l-82 -466h-45z" />
    <glyph glyph-name="Wgrave" unicode="&#x1e80;" horiz-adv-x="929" 
d="M176 0l-70 700h48l59 -641v0l306 641h52l74 -642v0l287 642h49l-321 -700h-52l-76 633v0l-305 -633h-51zM654 753l-181 117l14 40v0l178 -121z" />
    <glyph glyph-name="wgrave" unicode="&#x1e81;" horiz-adv-x="715" 
d="M127 0l-54 504h47l44 -454h-7l219 454h52l57 -453h-7l206 453h47l-234 -504h-48l-57 463h7l-224 -463h-48zM508 545l-181 117l14 40v0l178 -121z" />
    <glyph glyph-name="Wacute" unicode="&#x1e82;" horiz-adv-x="929" 
d="M176 0l-70 700h48l59 -641v0l306 641h52l74 -642v0l287 642h49l-321 -700h-52l-76 633v0l-305 -633h-51zM471 753l-1 36l194 123v0l3 -43z" />
    <glyph glyph-name="wacute" unicode="&#x1e83;" horiz-adv-x="715" 
d="M127 0l-54 504h47l44 -454h-7l219 454h52l57 -453h-7l206 453h47l-234 -504h-48l-57 463h7l-224 -463h-48zM325 545l-1 36l194 123v0l3 -43z" />
    <glyph glyph-name="Wdieresis" unicode="&#x1e84;" horiz-adv-x="929" 
d="M176 0l-70 700h48l59 -641v0l306 641h52l74 -642v0l287 642h49l-321 -700h-52l-76 633v0l-305 -633h-51zM497 778q-16 0 -28 11.5t-12 27.5q0 17 12 28.5t28 11.5t27.5 -12t11.5 -28t-11.5 -27.5t-27.5 -11.5zM638 778q-16 0 -28 11.5t-12 27.5q0 17 12 28.5t28 11.5
t27.5 -12t11.5 -28t-11.5 -27.5t-27.5 -11.5z" />
    <glyph glyph-name="wdieresis" unicode="&#x1e85;" horiz-adv-x="715" 
d="M127 0l-54 504h47l44 -454h-7l219 454h52l57 -453h-7l206 453h47l-234 -504h-48l-57 463h7l-224 -463h-48zM351 574q-16 0 -28 11.5t-12 27.5q0 17 12 28.5t28 11.5t27.5 -12t11.5 -28t-11.5 -27.5t-27.5 -11.5zM492 574q-16 0 -28 11.5t-12 27.5q0 17 12 28.5t28 11.5
t27.5 -12t11.5 -28t-11.5 -27.5t-27.5 -11.5z" />
    <glyph glyph-name="uni1E9E" unicode="&#x1e9e;" horiz-adv-x="642" 
d="M352 -5q-96 0 -137.5 53t-24.5 150h45q-8 -50 1 -86.5t39.5 -56t82.5 -19.5q44 0 82.5 20.5t67 61.5t38.5 99q16 90 -19 135t-125 45h-89l6 34l256 231h-295q-46 0 -68.5 -18t-30.5 -66l-102 -578h-45l102 582q7 40 24 66t46 39t72 13h359l-6 -36l-258 -231h31
q74 0 119.5 -25.5t63 -73.5t5.5 -116q-12 -67 -44.5 -117t-82 -78t-113.5 -28z" />
    <glyph glyph-name="uni1EBC" unicode="&#x1ebc;" horiz-adv-x="536" 
d="M34 0l124 700h400l-7 -37h-355l-52 -294h325l-6 -37h-326l-51 -295h354l-6 -37h-400zM233 770q11 38 35.5 59t54.5 21q24 0 39 -12t28.5 -24t32.5 -12q17 0 30 11.5t20 33.5h32q-9 -35 -33.5 -57t-54.5 -22q-24 0 -39 12t-28.5 24t-33.5 12q-16 0 -29.5 -11.5
t-21.5 -34.5h-32z" />
    <glyph glyph-name="uni1EBD" unicode="&#x1ebd;" horiz-adv-x="541" 
d="M230 -12q-66 0 -110.5 30.5t-63.5 86.5t-10 130q7 64 30.5 115.5t61 88.5t85 57t101.5 20q71 0 114 -30t60 -79.5t9 -108.5q0 -13 -3 -27.5t-6 -28.5h-420l7 39h377q10 66 -5.5 109t-51 64.5t-88.5 21.5q-48 0 -94 -22.5t-80.5 -68t-47.5 -116.5l-3 -18q-12 -73 3 -122.5
t52.5 -75t89.5 -25.5q64 0 110.5 30t74.5 83h45q-21 -44 -54.5 -79t-79 -54.5t-103.5 -19.5zM201 569q11 38 35.5 59t54.5 21q24 0 39 -12t28.5 -24t32.5 -12q17 0 30 11.5t20 33.5h32q-9 -35 -33.5 -57t-54.5 -22q-24 0 -39 12t-28.5 24t-33.5 12q-16 0 -29.5 -11.5
t-21.5 -34.5h-32z" />
    <glyph glyph-name="Ygrave" unicode="&#x1ef2;" horiz-adv-x="535" 
d="M202 0l51 293l-150 407h51l130 -364v0l254 364h52l-292 -407l-51 -293h-45zM464 753l-181 117l14 40v0l178 -121z" />
    <glyph glyph-name="ygrave" unicode="&#x1ef3;" horiz-adv-x="517" 
d="M33 -220l176 275h-17l-128 449h47l117 -415v0l265 415h49l-461 -724h-48zM410 545l-181 117l14 40v0l178 -121z" />
    <glyph glyph-name="uni1EF8" unicode="&#x1ef8;" horiz-adv-x="535" 
d="M202 0l51 293l-150 407h51l130 -364v0l254 364h52l-292 -407l-51 -293h-45zM239 770q11 38 35.5 59t54.5 21q24 0 39 -12t28.5 -24t32.5 -12q17 0 30 11.5t20 33.5h32q-9 -35 -33.5 -57t-54.5 -22q-24 0 -39 12t-28.5 24t-33.5 12q-16 0 -29.5 -11.5t-21.5 -34.5h-32z
" />
    <glyph glyph-name="uni1EF9" unicode="&#x1ef9;" horiz-adv-x="517" 
d="M33 -220l176 275h-17l-128 449h47l117 -415v0l265 415h49l-461 -724h-48zM186 569q11 38 35.5 59t54.5 21q24 0 39 -12t28.5 -24t32.5 -12q17 0 30 11.5t20 33.5h32q-9 -35 -33.5 -57t-54.5 -22q-24 0 -39 12t-28.5 24t-33.5 12q-16 0 -29.5 -11.5t-21.5 -34.5h-32z" />
    <glyph glyph-name="endash" unicode="&#x2013;" horiz-adv-x="627" 
d="M58 276l7 39h510l-7 -39h-510z" />
    <glyph glyph-name="emdash" unicode="&#x2014;" horiz-adv-x="819" 
d="M58 276l7 39h702l-7 -39h-702z" />
    <glyph glyph-name="quoteleft" unicode="&#x2018;" horiz-adv-x="170" 
d="M79 490l119 210h35l-96 -210h-58z" />
    <glyph glyph-name="quoteright" unicode="&#x2019;" horiz-adv-x="170" 
d="M211 700l-119 -210h-35l96 210h58z" />
    <glyph glyph-name="quotesinglbase" unicode="&#x201a;" horiz-adv-x="135" 
d="M-75 -129l96 207h58l-119 -207h-35z" />
    <glyph glyph-name="quotedblleft" unicode="&#x201c;" horiz-adv-x="296" 
d="M205 490l119 210h35l-97 -210h-57zM79 490l119 210h35l-96 -210h-58z" />
    <glyph glyph-name="quotedblright" unicode="&#x201d;" horiz-adv-x="296" 
d="M212 700l-119 -210h-36l97 210h58zM337 700l-118 -210h-36l97 210h57z" />
    <glyph glyph-name="quotedblbase" unicode="&#x201e;" horiz-adv-x="269" 
d="M-75 -129l96 207h58l-119 -207h-35zM59 -129l95 207h58l-118 -207h-35z" />
    <glyph glyph-name="dagger" unicode="&#x2020;" horiz-adv-x="477" 
d="M126 -256l139 765l-183 -4l7 39l181 -5l39 237h44l-45 -237l181 5l-7 -39l-180 4l-132 -765h-44z" />
    <glyph glyph-name="daggerdbl" unicode="&#x2021;" horiz-adv-x="478" 
d="M127 -256l46 238l-182 -4l6 39l182 -4l87 496l-182 -4l6 39l181 -5l38 237h44l-44 -237l182 5l-7 -39l-180 4l-88 -496l182 4l-7 -39l-180 4l-40 -238h-44z" />
    <glyph glyph-name="bullet" unicode="&#x2022;" horiz-adv-x="339" 
d="M184 227q-28 0 -53 14t-39.5 38t-14.5 55q0 30 14.5 54t39.5 38.5t53 14.5q30 0 54.5 -14.5t39 -38.5t14.5 -54q0 -31 -14.5 -55t-38.5 -38t-55 -14z" />
    <glyph glyph-name="ellipsis" unicode="&#x2026;" horiz-adv-x="479" 
d="M203 -5q-18 0 -30.5 12.5t-12.5 30.5t12.5 30t30.5 12q17 0 29 -12.5t12 -30.5q0 -17 -12 -29.5t-29 -12.5zM361 -5q-18 0 -30.5 12.5t-12.5 30.5t12.5 30t30.5 12q17 0 29 -12.5t12 -30.5q0 -17 -12 -29.5t-29 -12.5zM44 -5q-18 0 -30.5 12.5t-12.5 30.5t12.5 30
t30.5 12q17 0 29 -12.5t12 -30.5q0 -17 -12 -29.5t-29 -12.5z" />
    <glyph glyph-name="perthousand" unicode="&#x2030;" horiz-adv-x="1038" 
d="M803 -12q-40 0 -69.5 18.5t-44 51.5t-9.5 79q5 50 30.5 88t64.5 60t84 22q40 0 69 -18.5t43.5 -51.5t9.5 -79q-5 -49 -30.5 -87.5t-64 -60.5t-83.5 -22zM809 25q31 0 59 16t48 45.5t25 69.5q7 58 -19 86.5t-69 28.5q-30 0 -59 -16t-49 -45.5t-25 -70.5q-6 -57 20 -85.5
t69 -28.5zM70 0l538 700h46l-537 -700h-47zM461 -12q-40 0 -69.5 18.5t-44 51.5t-9.5 79q5 50 30.5 88t64 60t84.5 22q40 0 69 -18.5t43.5 -51.5t9.5 -79q-5 -49 -30.5 -87.5t-64 -60.5t-83.5 -22zM214 392q-40 0 -69.5 18.5t-44 52t-9.5 78.5q6 49 31 87.5t64 60.5t84 22
q40 0 69.5 -18.5t43.5 -51.5t9 -79q-5 -49 -30.5 -87.5t-64 -60.5t-83.5 -22zM467 25q31 0 59 16t48 45.5t25 69.5q7 58 -19 86t-69 28q-30 0 -59 -15.5t-49 -45t-25 -70.5q-6 -57 20 -85.5t69 -28.5zM220 429q31 0 59 16t48 45.5t25 69.5q7 58 -19 86.5t-69 28.5
q-31 0 -59.5 -16t-48.5 -45.5t-24 -70.5q-7 -57 19 -85.5t69 -28.5z" />
    <glyph glyph-name="guilsinglleft" unicode="&#x2039;" horiz-adv-x="250" 
d="M126 120l-72 175l134 175h49l-136 -176l73 -174h-48z" />
    <glyph glyph-name="guilsinglright" unicode="&#x203a;" horiz-adv-x="249" 
d="M139 470l72 -175l-134 -175h-49l136 176l-73 174h48z" />
    <glyph glyph-name="fraction" unicode="&#x2044;" horiz-adv-x="393" 
d="M-73 0l541 700h49l-542 -700h-48z" />
    <glyph glyph-name="uni2074" unicode="&#x2074;" horiz-adv-x="305" 
d="M216 352l13 74h-178l6 32l215 242h44l-43 -241h54l-6 -33h-54l-13 -74h-38zM98 459h139l35 198v0z" />
    <glyph glyph-name="uni20A8" unicode="&#x20a8;" horiz-adv-x="981" 
d="M34 0l124 700h195q78 0 122.5 -25t62 -67.5t11.5 -95.5q-7 -64 -39.5 -111.5t-89.5 -73.5t-139 -26h-149l-53 -301h-45zM417 0l-106 319h48l107 -319h-49zM139 338h149q91 0 147.5 43.5t66.5 128.5q9 71 -30.5 111.5t-127.5 40.5h-148zM706 -12q-56 0 -97 19t-61 56.5
t-16 93.5h47q-4 -40 11.5 -69t47.5 -44t75 -15q41 0 72.5 13.5t51.5 38t23 55.5q5 34 -7.5 53.5t-41 30.5t-72.5 20q-35 7 -63 18t-46.5 26.5t-27 38t-5.5 52.5q5 41 29.5 72.5t65.5 50t93 18.5q71 0 113.5 -38t37.5 -112h-46q5 49 -24 79t-87 30t-94 -27t-40 -69
q-3 -23 6.5 -42t34.5 -32.5t69 -23.5q34 -7 64 -16.5t51.5 -24t32 -38.5t6.5 -60q-5 -45 -32 -80t-71 -54.5t-100 -19.5z" />
    <glyph glyph-name="Euro" unicode="&#x20ac;" horiz-adv-x="767" 
d="M26 257l6 38h432l-6 -38h-432zM51 402l7 38h432l-7 -38h-432zM396 -12q-94 0 -157.5 41.5t-91.5 116t-16 173.5q8 86 41.5 158t85.5 124.5t119.5 81.5t145.5 29q114 0 175 -52.5t66 -148.5h-50q-5 73 -52.5 116.5t-145.5 43.5q-66 0 -123.5 -24.5t-102.5 -70.5
t-74.5 -110.5t-37.5 -144.5q-11 -92 13.5 -157t78.5 -100t133 -35q97 0 161 44.5t93 116.5h51q-26 -64 -70 -109t-105 -69t-137 -24z" />
    <glyph glyph-name="uni20B9" unicode="&#x20b9;" horiz-adv-x="658" 
d="M257 -11q-96 0 -132 54.5t-20 144.5l26 149q99 0 159 7.5t94 29.5t51.5 66t30.5 117l20 118h43l-22 -120q-14 -79 -35.5 -128.5t-58.5 -76.5t-96.5 -37t-148.5 -10l-19 -109q-14 -77 12.5 -122t104.5 -45q74 0 116.5 42t55.5 115h42q-17 -99 -75.5 -147t-147.5 -48z
M102 488l6 35h548l-6 -35h-548zM134 665l6 35h548l-6 -35h-548z" />
    <glyph glyph-name="uni20BA" unicode="&#x20ba;" horiz-adv-x="806" 
d="M304 -15q-31 0 -61.5 4t-61.5 12l124 700h45l-117 -665q20 -4 39 -6t38 -2q77 0 139 23t108.5 70t77.5 117t48 163h46q-23 -133 -77 -226t-140.5 -141.5t-207.5 -48.5zM35 201l7 37l450 119l-7 -37zM63 367l6 36l455 122l-6 -36z" />
    <glyph glyph-name="uni20BD" unicode="&#x20bd;" horiz-adv-x="598" 
d="M32 147l6 38h79l21 124h-78l7 38h78l63 353h198q78 0 123.5 -23.5t63.5 -65t11 -97.5q-6 -60 -38.5 -106.5t-89.5 -72.5t-139 -26h-154l-21 -124h258l-6 -38h-259l-26 -147h-45l26 147h-78zM190 347h155q95 0 149.5 43t63.5 123q10 74 -29.5 112t-127.5 38h-155z" />
    <glyph glyph-name="uni2113" unicode="&#x2113;" horiz-adv-x="202" 
d="M17 -100l144 820h45l-144 -820h-45z" />
    <glyph glyph-name="trademark" unicode="&#x2122;" horiz-adv-x="722" 
d="M101 668l5 32h226l-6 -32h-92l-57 -320h-41l58 320h-93zM325 348l63 352h48l80 -302l186 302h47l-62 -352h-39l50 285l-177 -285h-32l-75 286l-50 -286h-39z" />
    <glyph glyph-name="uni2126" unicode="&#x2126;" horiz-adv-x="792" 
d="M21 0l6 37h199l-14 -4q-53 19 -88.5 63.5t-51.5 105t-9 124.5q7 83 42.5 153t92.5 122.5t129 81.5t150 29q69 0 125 -23.5t96 -67.5t58 -103.5t11 -131.5q-6 -78 -41.5 -150t-92.5 -126t-130 -77l-13 4h200l-7 -37h-277l7 39q62 8 115.5 38t94.5 76.5t66.5 105
t31.5 123.5q7 66 -9 119.5t-51 91.5t-83.5 58.5t-107.5 20.5q-68 0 -130.5 -26t-112 -72t-81 -108.5t-38.5 -136.5q-8 -75 14.5 -138t69.5 -103.5t113 -48.5l-7 -39h-277z" />
    <glyph glyph-name="estimated" unicode="&#x212e;" horiz-adv-x="775" 
d="M350 -7q-100 0 -170 40.5t-99.5 116t-10.5 178.5q14 75 47 141.5t84 117t117 78.5t146 28q76 0 132.5 -25t92.5 -69t49 -102.5t1 -125.5l-11 -59h-558l-31 -173q28 -49 80.5 -77.5t137.5 -28.5q53 0 99 15t92 45t96 74l25 -29q-73 -69 -153 -107t-166 -38zM179 362h447
l32 184q-24 52 -76 79.5t-125 27.5q-69 0 -133.5 -29t-115.5 -93z" />
    <glyph glyph-name="arrowleft" unicode="&#x2190;" horiz-adv-x="738" 
d="M731 324h-635l326 -307l-28 -29l-354 337v38l354 336l28 -29l-326 -307h635v-39z" />
    <glyph glyph-name="arrowup" unicode="&#x2191;" horiz-adv-x="794" 
d="M36 343l357 357h39l357 -357l-29 -29l-326 327v-641h-42v642l-327 -328z" />
    <glyph glyph-name="arrowright" unicode="&#x2192;" horiz-adv-x="738" 
d="M39 324v39h635l-326 307l29 29l354 -336v-38l-354 -337l-29 29l326 307h-635z" />
    <glyph glyph-name="arrowdown" unicode="&#x2193;" horiz-adv-x="794" 
d="M39 358l29 29l327 -328v641h42v-640l326 326l29 -29l-357 -357h-39z" />
    <glyph glyph-name="arrowboth" unicode="&#x2194;" horiz-adv-x="950" 
d="M40 325v38l354 336l28 -29l-326 -307h790l-326 307l29 29l354 -336v-38l-354 -337l-29 29l326 307h-790l326 -307l-28 -29z" />
    <glyph glyph-name="arrowupdn" unicode="&#x2195;" horiz-adv-x="785" 
d="M54 252l24 26l313 -233l-1 608l-312 -233l-24 26l337 254h38l336 -254l-24 -26l-312 233v-609l312 234l24 -26l-336 -254h-38z" />
    <glyph glyph-name="uni2196" unicode="&#x2196;" horiz-adv-x="646" 
d="M571 82l-453 453v-462h-41v505l28 28h505v-42l-463 1l454 -454z" />
    <glyph glyph-name="uni2197" unicode="&#x2197;" horiz-adv-x="667" 
d="M123 88l-30 29l453 454l-463 -1v42h506l27 -28v-505h-40v462z" />
    <glyph glyph-name="uni2198" unicode="&#x2198;" horiz-adv-x="646" 
d="M106 597l453 -453v462h40v-505l-27 -28h-506v41h463l-453 453z" />
    <glyph glyph-name="uni2199" unicode="&#x2199;" horiz-adv-x="667" 
d="M576 597l30 -30l-454 -453h463v-41h-505l-28 28v505h41v-462z" />
    <glyph glyph-name="partialdiff" unicode="&#x2202;" horiz-adv-x="546" 
d="M173 -11q-49 0 -85 23.5t-51.5 72t-2.5 123.5q11 65 40.5 126.5t72.5 111.5t97 79.5t115 29.5q37 0 66 -12.5t46 -44t16 -87.5q16 87 11.5 154t-37 105.5t-98.5 38.5q-21 0 -40.5 -3t-43.5 -10l5 31q24 8 45 10.5t43 2.5q68 0 110.5 -35.5t56 -107.5t-5.5 -180
q-17 -99 -53 -178t-85 -134.5t-105.5 -85.5t-116.5 -30zM184 29q48 0 93 24.5t82.5 67t63.5 97t37 113.5q17 95 -13 140.5t-94 45.5q-47 0 -91 -24t-81 -66t-63.5 -98t-38.5 -121q-10 -62 1 -101.5t38.5 -58.5t65.5 -19z" />
    <glyph glyph-name="uni2206" unicode="&#x2206;" horiz-adv-x="677" 
d="M-10 0l6 36l401 664h39l169 -664l-7 -36h-608zM43 37h515l-150 611z" />
    <glyph glyph-name="product" unicode="&#x220f;" horiz-adv-x="716" 
d="M85 0l116 663h-84l8 37h625l-7 -37h-83l-117 -663h-45l117 663h-369l-116 -663h-45z" />
    <glyph glyph-name="summation" unicode="&#x2211;" horiz-adv-x="412" 
d="M-14 -48l9 50l335 330l-221 318l9 50h360l-7 -36h-321l222 -319l-6 -36l-332 -321h318l-6 -36h-360z" />
    <glyph glyph-name="minus" unicode="&#x2212;" horiz-adv-x="500" 
d="M65 271l7 38h376l-7 -38h-376z" />
    <glyph glyph-name="uni2215" unicode="&#x2215;" horiz-adv-x="365" 
d="M-27 -80l399 833h46l-399 -833h-46z" />
    <glyph glyph-name="radical" unicode="&#x221a;" horiz-adv-x="646" 
d="M-1 145l104 53l71 -182l584 832h38l-627 -893h-22l-76 192l-61 -30z" />
    <glyph glyph-name="infinity" unicode="&#x221e;" horiz-adv-x="673" 
d="M161 153q-53 0 -86 32.5t-26 93.5q4 44 26.5 76t57 50t72.5 18q40 0 67.5 -17t46.5 -44t34.5 -57t32 -56.5t39 -43.5t56.5 -17q46 0 78 29t37 76q5 42 -16 67.5t-64 25.5q-47 0 -89.5 -34t-72.5 -84l-19 24q18 31 46 61.5t64 50t78 19.5q55 0 87.5 -33.5t25.5 -93.5
q-4 -42 -27.5 -75t-58.5 -50.5t-76 -17.5q-39 0 -65.5 17t-45.5 43.5t-34.5 56.5t-32 56.5t-39 43.5t-56.5 17q-43 0 -74.5 -30t-36.5 -75q-5 -43 17 -68t63 -25q47 0 89 34.5t73 84.5l18 -24q-18 -32 -46 -62.5t-64.5 -50t-78.5 -18.5z" />
    <glyph glyph-name="integral" unicode="&#x222b;" horiz-adv-x="243" 
d="M-105 -157l11 38h23q32 0 48 15.5t29 62.5l242 834q11 38 28 62t42.5 36t60.5 12h24l-10 -38h-20q-29 0 -48 -14.5t-32 -57.5l-242 -834q-11 -38 -26.5 -64t-40 -39t-62.5 -13h-27z" />
    <glyph glyph-name="approxequal" unicode="&#x2248;" horiz-adv-x="500" 
d="M311 135q-26 0 -44.5 10.5t-34 24t-31.5 24t-37 10.5q-27 0 -48.5 -18.5t-36.5 -48.5h-37q14 34 34 58t44 36.5t52 12.5q26 0 44 -10.5t33.5 -24t31.5 -23.5t38 -10q27 0 49 19t33 47h36q-13 -34 -32.5 -58t-43 -36.5t-50.5 -12.5zM344 323q-26 0 -44.5 10.5t-34 24
t-31.5 24t-37 10.5q-27 0 -48.5 -18.5t-36.5 -48.5h-37q14 34 34 58t44 36.5t52 12.5q26 0 44 -10.5t33.5 -24t31.5 -23.5t38 -10q27 0 49 19t33 47h36q-13 -34 -32.5 -58t-43 -36.5t-50.5 -12.5z" />
    <glyph glyph-name="notequal" unicode="&#x2260;" horiz-adv-x="500" 
d="M109 110l258 365h46l-260 -365h-44zM84 371l7 39h375l-7 -39h-375zM50 177l6 39h375l-6 -39h-375z" />
    <glyph glyph-name="lessequal" unicode="&#x2264;" horiz-adv-x="500" 
d="M330 193l-228 196v0l297 196h63l-296 -197l225 -195h-61zM68 103l7 36h327l-7 -36h-327z" />
    <glyph glyph-name="greaterequal" unicode="&#x2265;" horiz-adv-x="500" 
d="M87 193l294 197l-224 195h61l228 -196v0l-297 -196h-62zM52 103l6 36h328l-7 -36h-327z" />
    <glyph glyph-name="lozenge" unicode="&#x25ca;" horiz-adv-x="548" 
d="M250 119l-188 230l270 229l188 -229zM258 171l210 179l-144 176l-209 -178z" />
    <glyph glyph-name="Q.ss06" horiz-adv-x="769" 
d="M550 -134l-139 156l47 15l153 -171h-61zM337 -12q-94 0 -159.5 42.5t-95.5 119t-19 176.5q9 83 43.5 153.5t88.5 122.5t123 81t147 29q95 0 160.5 -43t96 -119t18.5 -175q-9 -84 -43 -154.5t-88 -123t-123.5 -81t-148.5 -28.5zM344 29q66 0 125 24t106.5 70t78 109.5
t39.5 142.5q11 94 -16 160t-84 101t-134 35q-66 0 -125 -24.5t-106.5 -69.5t-78 -108.5t-38.5 -141.5q-12 -94 15.5 -160.5t84 -102t133.5 -35.5z" />
    <glyph glyph-name="i.loclTRK" horiz-adv-x="187" 
d="M27 0l89 504h45l-89 -504h-45zM157 570q-16 0 -27.5 12t-11.5 28t11.5 27.5t27.5 11.5t27.5 -11.5t11.5 -27.5t-11.5 -28t-27.5 -12z" />
    <glyph glyph-name="a.ss02" horiz-adv-x="601" 
d="M240 -12q-70 0 -116.5 33t-66.5 89t-11 126q6 61 29.5 112t61 88.5t86 58.5t105.5 21q74 0 120 -37.5t59 -102.5l25 128h43l-89 -504h-41l16 123v0q-23 -39 -56 -69.5t-74.5 -48t-90.5 -17.5zM248 29q60 0 110 31.5t82.5 86t40.5 122.5q8 61 -9 107.5t-54 72.5t-92 26
q-59 0 -109.5 -29.5t-83 -82.5t-40.5 -125q-8 -64 8.5 -111t54 -72.5t92.5 -25.5z" />
    <glyph glyph-name="aacute.ss02" horiz-adv-x="601" 
d="M240 -12q-70 0 -116.5 33t-66.5 89t-11 126q6 61 29.5 112t61 88.5t86 58.5t105.5 21q74 0 120 -37.5t59 -102.5l25 128h43l-89 -504h-41l16 123v0q-23 -39 -56 -69.5t-74.5 -48t-90.5 -17.5zM248 29q60 0 110 31.5t82.5 86t40.5 122.5q8 61 -9 107.5t-54 72.5t-92 26
q-59 0 -109.5 -29.5t-83 -82.5t-40.5 -125q-8 -64 8.5 -111t54 -72.5t92.5 -25.5zM261 545l-1 36l194 123v0l3 -43z" />
    <glyph glyph-name="abreve.ss02" horiz-adv-x="601" 
d="M240 -12q-70 0 -116.5 33t-66.5 89t-11 126q6 61 29.5 112t61 88.5t86 58.5t105.5 21q74 0 120 -37.5t59 -102.5l25 128h43l-89 -504h-41l16 123v0q-23 -39 -56 -69.5t-74.5 -48t-90.5 -17.5zM248 29q60 0 110 31.5t82.5 86t40.5 122.5q8 61 -9 107.5t-54 72.5t-92 26
q-59 0 -109.5 -29.5t-83 -82.5t-40.5 -125q-8 -64 8.5 -111t54 -72.5t92.5 -25.5zM347 565q-44 0 -69 16.5t-33.5 41.5t-3.5 53l2 11h33q-10 -41 10.5 -62.5t67.5 -21.5q48 0 74.5 23t34.5 61h34l-3 -11q-6 -28 -24 -53t-48.5 -41.5t-74.5 -16.5z" />
    <glyph glyph-name="acircumflex.ss02" horiz-adv-x="601" 
d="M240 -12q-70 0 -116.5 33t-66.5 89t-11 126q6 61 29.5 112t61 88.5t86 58.5t105.5 21q74 0 120 -37.5t59 -102.5l25 128h43l-89 -504h-41l16 123v0q-23 -39 -56 -69.5t-74.5 -48t-90.5 -17.5zM248 29q60 0 110 31.5t82.5 86t40.5 122.5q8 61 -9 107.5t-54 72.5t-92 26
q-59 0 -109.5 -29.5t-83 -82.5t-40.5 -125q-8 -64 8.5 -111t54 -72.5t92.5 -25.5zM218 555l7 40l144 85l114 -85l-7 -40l-112 84z" />
    <glyph glyph-name="adieresis.ss02" horiz-adv-x="601" 
d="M240 -12q-70 0 -116.5 33t-66.5 89t-11 126q6 61 29.5 112t61 88.5t86 58.5t105.5 21q74 0 120 -37.5t59 -102.5l25 128h43l-89 -504h-41l16 123v0q-23 -39 -56 -69.5t-74.5 -48t-90.5 -17.5zM248 29q60 0 110 31.5t82.5 86t40.5 122.5q8 61 -9 107.5t-54 72.5t-92 26
q-59 0 -109.5 -29.5t-83 -82.5t-40.5 -125q-8 -64 8.5 -111t54 -72.5t92.5 -25.5zM286 574q-16 0 -28 11.5t-12 27.5q0 17 12 28.5t28 11.5t27.5 -12t11.5 -28t-11.5 -27.5t-27.5 -11.5zM427 574q-16 0 -28 11.5t-12 27.5q0 17 12 28.5t28 11.5t27.5 -12t11.5 -28
t-11.5 -27.5t-27.5 -11.5z" />
    <glyph glyph-name="agrave.ss02" horiz-adv-x="601" 
d="M240 -12q-70 0 -116.5 33t-66.5 89t-11 126q6 61 29.5 112t61 88.5t86 58.5t105.5 21q74 0 120 -37.5t59 -102.5l25 128h43l-89 -504h-41l16 123v0q-23 -39 -56 -69.5t-74.5 -48t-90.5 -17.5zM248 29q60 0 110 31.5t82.5 86t40.5 122.5q8 61 -9 107.5t-54 72.5t-92 26
q-59 0 -109.5 -29.5t-83 -82.5t-40.5 -125q-8 -64 8.5 -111t54 -72.5t92.5 -25.5zM444 545l-181 117l14 40v0l178 -121z" />
    <glyph glyph-name="amacron.ss02" horiz-adv-x="601" 
d="M240 -12q-70 0 -116.5 33t-66.5 89t-11 126q6 61 29.5 112t61 88.5t86 58.5t105.5 21q74 0 120 -37.5t59 -102.5l25 128h43l-89 -504h-41l16 123v0q-23 -39 -56 -69.5t-74.5 -48t-90.5 -17.5zM248 29q60 0 110 31.5t82.5 86t40.5 122.5q8 61 -9 107.5t-54 72.5t-92 26
q-59 0 -109.5 -29.5t-83 -82.5t-40.5 -125q-8 -64 8.5 -111t54 -72.5t92.5 -25.5zM192 597l7 39h323l-6 -39h-324z" />
    <glyph glyph-name="aogonek.ss02" horiz-adv-x="601" 
d="M240 -12q-70 0 -116.5 33t-66.5 89t-11 126q6 61 29.5 112t61 88.5t86 58.5t105.5 21q74 0 120 -37.5t59 -102.5l25 128h43l-89 -504h-41l16 123v0q-23 -39 -56 -69.5t-74.5 -48t-90.5 -17.5zM248 29q60 0 110 31.5t82.5 86t40.5 122.5q8 61 -9 107.5t-54 72.5t-92 26
q-59 0 -109.5 -29.5t-83 -82.5t-40.5 -125q-8 -64 8.5 -111t54 -72.5t92.5 -25.5zM383 -196q-23 0 -45 8t-33.5 26.5t-6.5 51.5q4 21 16.5 40.5t36.5 37.5t62 34l62 25l11 -27l-67 -29q-41 -18 -58.5 -37.5t-22.5 -40.5q-5 -26 9.5 -41t44.5 -15q18 -1 35.5 3.5t33.5 10.5
l-6 -35q-16 -6 -34.5 -9t-37.5 -3z" />
    <glyph glyph-name="aring.ss02" horiz-adv-x="601" 
d="M240 -12q-70 0 -116.5 33t-66.5 89t-11 126q6 61 29.5 112t61 88.5t86 58.5t105.5 21q74 0 120 -37.5t59 -102.5l25 128h43l-89 -504h-41l16 123v0q-23 -39 -56 -69.5t-74.5 -48t-90.5 -17.5zM248 29q60 0 110 31.5t82.5 86t40.5 122.5q8 61 -9 107.5t-54 72.5t-92 26
q-59 0 -109.5 -29.5t-83 -82.5t-40.5 -125q-8 -64 8.5 -111t54 -72.5t92.5 -25.5zM365 569q-40 0 -68.5 25t-28.5 69q0 45 28.5 70t68.5 25q41 0 69 -25t28 -70q0 -44 -28 -69t-69 -25zM365 598q29 0 47 17.5t18 47.5q0 31 -18 48.5t-47 17.5q-28 0 -46 -17.5t-18 -48.5
q0 -30 18 -47.5t46 -17.5z" />
    <glyph glyph-name="atilde.ss02" horiz-adv-x="601" 
d="M240 -12q-70 0 -116.5 33t-66.5 89t-11 126q6 61 29.5 112t61 88.5t86 58.5t105.5 21q74 0 120 -37.5t59 -102.5l25 128h43l-89 -504h-41l16 123v0q-23 -39 -56 -69.5t-74.5 -48t-90.5 -17.5zM248 29q60 0 110 31.5t82.5 86t40.5 122.5q8 61 -9 107.5t-54 72.5t-92 26
q-59 0 -109.5 -29.5t-83 -82.5t-40.5 -125q-8 -64 8.5 -111t54 -72.5t92.5 -25.5zM220 569q11 38 35.5 59t54.5 21q24 0 39 -12t28.5 -24t32.5 -12q17 0 30 11.5t20 33.5h32q-9 -35 -33.5 -57t-54.5 -22q-24 0 -39 12t-28.5 24t-33.5 12q-16 0 -29.5 -11.5t-21.5 -34.5h-32z
" />
    <glyph glyph-name="ae.ss02" horiz-adv-x="978" 
d="M240 -12q-70 0 -116.5 33t-66.5 89t-11 126q6 61 29.5 112t61 88.5t86 58.5t105.5 21q72 0 118 -36.5t60 -100.5l25 125h40l-16 -91q38 50 91 76.5t115 26.5q71 0 113.5 -30t60 -79.5t9.5 -108.5q0 -13 -3 -27.5t-6 -28.5h-407q-11 -70 5 -118t53 -72t89 -24q63 0 109 30
t75 83h45q-21 -44 -54.5 -79t-79 -54.5t-103.5 -19.5q-63 0 -105.5 28.5t-62.5 79.5l-17 -96h-38l16 123v0q-22 -38 -54.5 -68.5t-74.5 -48.5t-91 -18zM250 29q60 0 109.5 31.5t81.5 86t40 122.5q8 61 -9 107.5t-54 72.5t-92 26q-59 0 -109.5 -29.5t-83 -82.5t-40.5 -125
q-8 -62 9 -109.5t55.5 -73.5t92.5 -26zM535 281h364q10 66 -5.5 109t-51 64.5t-88.5 21.5q-46 0 -91.5 -21t-79 -64t-48.5 -110z" />
    <glyph glyph-name="aeacute.ss02" horiz-adv-x="978" 
d="M240 -12q-70 0 -116.5 33t-66.5 89t-11 126q6 61 29.5 112t61 88.5t86 58.5t105.5 21q72 0 118 -36.5t60 -100.5l25 125h40l-16 -91q38 50 91 76.5t115 26.5q71 0 113.5 -30t60 -79.5t9.5 -108.5q0 -13 -3 -27.5t-6 -28.5h-407q-11 -70 5 -118t53 -72t89 -24q63 0 109 30
t75 83h45q-21 -44 -54.5 -79t-79 -54.5t-103.5 -19.5q-63 0 -105.5 28.5t-62.5 79.5l-17 -96h-38l16 123v0q-22 -38 -54.5 -68.5t-74.5 -48.5t-91 -18zM250 29q60 0 109.5 31.5t81.5 86t40 122.5q8 61 -9 107.5t-54 72.5t-92 26q-59 0 -109.5 -29.5t-83 -82.5t-40.5 -125
q-8 -62 9 -109.5t55.5 -73.5t92.5 -26zM535 281h364q10 66 -5.5 109t-51 64.5t-88.5 21.5q-46 0 -91.5 -21t-79 -64t-48.5 -110zM457 545l-1 36l194 123v0l3 -43z" />
    <glyph glyph-name="g.ss03" horiz-adv-x="612" 
d="M216 -232q-51 0 -89 13.5t-64 38t-39.5 57t-13.5 70.5h44q3 -39 22 -70.5t55 -49.5t90 -18q56 0 105 25.5t83.5 75t47.5 121.5l19 104q-23 -42 -58 -75t-79.5 -52t-97.5 -19q-70 0 -117 32t-67 88t-12 127q7 59 31 110t62 89t87.5 59t107.5 21q72 0 121 -39t62 -98v0
l33 126h37l-84 -477q-11 -59 -36.5 -106.5t-63 -82t-84.5 -52.5t-102 -18zM253 29q61 0 112.5 31.5t85 86t41.5 122.5q7 60 -11.5 106.5t-57 73t-93.5 26.5q-62 0 -113 -30.5t-83.5 -84t-40.5 -122.5q-8 -64 8.5 -111t55 -72.5t96.5 -25.5z" />
    <glyph glyph-name="gbreve.ss03" horiz-adv-x="612" 
d="M216 -232q-51 0 -89 13.5t-64 38t-39.5 57t-13.5 70.5h44q3 -39 22 -70.5t55 -49.5t90 -18q56 0 105 25.5t83.5 75t47.5 121.5l19 104q-23 -42 -58 -75t-79.5 -52t-97.5 -19q-70 0 -117 32t-67 88t-12 127q7 59 31 110t62 89t87.5 59t107.5 21q72 0 121 -39t62 -98v0
l33 126h37l-84 -477q-11 -59 -36.5 -106.5t-63 -82t-84.5 -52.5t-102 -18zM253 29q61 0 112.5 31.5t85 86t41.5 122.5q7 60 -11.5 106.5t-57 73t-93.5 26.5q-62 0 -113 -30.5t-83.5 -84t-40.5 -122.5q-8 -64 8.5 -111t55 -72.5t96.5 -25.5zM327 565q-44 0 -69 16.5
t-33.5 41.5t-3.5 53l2 11h33q-10 -41 10.5 -62.5t67.5 -21.5q48 0 74.5 23t34.5 61h34l-3 -11q-6 -28 -24 -53t-48.5 -41.5t-74.5 -16.5z" />
    <glyph glyph-name="uni0123.ss03" horiz-adv-x="612" 
d="M216 -232q-51 0 -89 13.5t-64 38t-39.5 57t-13.5 70.5h44q3 -39 22 -70.5t55 -49.5t90 -18q56 0 105 25.5t83.5 75t47.5 121.5l19 104q-23 -42 -58 -75t-79.5 -52t-97.5 -19q-70 0 -117 32t-67 88t-12 127q7 59 31 110t62 89t87.5 59t107.5 21q72 0 121 -39t62 -98v0
l33 126h37l-84 -477q-11 -59 -36.5 -106.5t-63 -82t-84.5 -52.5t-102 -18zM253 29q61 0 112.5 31.5t85 86t41.5 122.5q7 60 -11.5 106.5t-57 73t-93.5 26.5q-62 0 -113 -30.5t-83.5 -84t-40.5 -122.5q-8 -64 8.5 -111t55 -72.5t96.5 -25.5zM393 721l-5 -29q-22 0 -32.5 -9.5
t-14.5 -28.5l-4 -24h36l-11 -64h-63q1 23 2 39.5t3 33.5q9 48 32 65t57 17z" />
    <glyph glyph-name="gdotaccent.ss03" horiz-adv-x="612" 
d="M216 -232q-51 0 -89 13.5t-64 38t-39.5 57t-13.5 70.5h44q3 -39 22 -70.5t55 -49.5t90 -18q56 0 105 25.5t83.5 75t47.5 121.5l19 104q-23 -42 -58 -75t-79.5 -52t-97.5 -19q-70 0 -117 32t-67 88t-12 127q7 59 31 110t62 89t87.5 59t107.5 21q72 0 121 -39t62 -98v0
l33 126h37l-84 -477q-11 -59 -36.5 -106.5t-63 -82t-84.5 -52.5t-102 -18zM253 29q61 0 112.5 31.5t85 86t41.5 122.5q7 60 -11.5 106.5t-57 73t-93.5 26.5q-62 0 -113 -30.5t-83.5 -84t-40.5 -122.5q-8 -64 8.5 -111t55 -72.5t96.5 -25.5zM336 570q-16 0 -27.5 12t-11.5 28
t11.5 27.5t27.5 11.5t27.5 -11.5t11.5 -27.5t-11.5 -28t-27.5 -12z" />
    <glyph glyph-name="u.ss04" horiz-adv-x="523" 
d="M216 -12q-94 0 -137.5 56.5t-23.5 170.5l51 289h45l-50 -284q-11 -59 -3 -102t38 -66t85 -23t94 23t62.5 66t34.5 103l50 283h45l-51 -289q-20 -114 -83 -170.5t-157 -56.5z" />
    <glyph glyph-name="uacute.ss04" horiz-adv-x="523" 
d="M216 -12q-94 0 -137.5 56.5t-23.5 170.5l51 289h45l-50 -284q-11 -59 -3 -102t38 -66t85 -23t94 23t62.5 66t34.5 103l50 283h45l-51 -289q-20 -114 -83 -170.5t-157 -56.5zM230 545l-1 36l194 123v0l3 -43z" />
    <glyph glyph-name="ubreve.ss04" horiz-adv-x="523" 
d="M216 -12q-94 0 -137.5 56.5t-23.5 170.5l51 289h45l-50 -284q-11 -59 -3 -102t38 -66t85 -23t94 23t62.5 66t34.5 103l50 283h45l-51 -289q-20 -114 -83 -170.5t-157 -56.5zM316 565q-44 0 -69 16.5t-33.5 41.5t-3.5 53l2 11h33q-10 -41 10.5 -62.5t67.5 -21.5
q48 0 74.5 23t34.5 61h34l-3 -11q-6 -28 -24 -53t-48.5 -41.5t-74.5 -16.5z" />
    <glyph glyph-name="ucircumflex.ss04" horiz-adv-x="523" 
d="M216 -12q-94 0 -137.5 56.5t-23.5 170.5l51 289h45l-50 -284q-11 -59 -3 -102t38 -66t85 -23t94 23t62.5 66t34.5 103l50 283h45l-51 -289q-20 -114 -83 -170.5t-157 -56.5zM187 555l7 40l144 85l114 -85l-7 -40l-112 84z" />
    <glyph glyph-name="udieresis.ss04" horiz-adv-x="523" 
d="M216 -12q-94 0 -137.5 56.5t-23.5 170.5l51 289h45l-50 -284q-11 -59 -3 -102t38 -66t85 -23t94 23t62.5 66t34.5 103l50 283h45l-51 -289q-20 -114 -83 -170.5t-157 -56.5zM256 574q-16 0 -28 11.5t-12 27.5q0 17 12 28.5t28 11.5t27.5 -12t11.5 -28t-11.5 -27.5
t-27.5 -11.5zM397 574q-16 0 -28 11.5t-12 27.5q0 17 12 28.5t28 11.5t27.5 -12t11.5 -28t-11.5 -27.5t-27.5 -11.5z" />
    <glyph glyph-name="ugrave.ss04" horiz-adv-x="523" 
d="M216 -12q-94 0 -137.5 56.5t-23.5 170.5l51 289h45l-50 -284q-11 -59 -3 -102t38 -66t85 -23t94 23t62.5 66t34.5 103l50 283h45l-51 -289q-20 -114 -83 -170.5t-157 -56.5zM413 545l-181 117l14 40v0l178 -121z" />
    <glyph glyph-name="uhungarumlaut.ss04" horiz-adv-x="523" 
d="M216 -12q-94 0 -137.5 56.5t-23.5 170.5l51 289h45l-50 -284q-11 -59 -3 -102t38 -66t85 -23t94 23t62.5 66t34.5 103l50 283h45l-51 -289q-20 -114 -83 -170.5t-157 -56.5zM324 559l88 122h44l-98 -122h-34zM199 559l83 122h46l-94 -122h-35z" />
    <glyph glyph-name="umacron.ss04" horiz-adv-x="523" 
d="M216 -12q-94 0 -137.5 56.5t-23.5 170.5l51 289h45l-50 -284q-11 -59 -3 -102t38 -66t85 -23t94 23t62.5 66t34.5 103l50 283h45l-51 -289q-20 -114 -83 -170.5t-157 -56.5zM162 597l7 39h323l-6 -39h-324z" />
    <glyph glyph-name="uogonek.ss04" horiz-adv-x="523" 
d="M216 -12q-94 0 -137.5 56.5t-23.5 170.5l51 289h45l-50 -284q-11 -59 -3 -102t38 -66t85 -23t94 23t62.5 66t34.5 103l50 283h45l-51 -289q-20 -114 -83 -170.5t-157 -56.5zM219 -186q-23 0 -45 8t-33.5 26.5t-6.5 51.5q4 21 16.5 40.5t36.5 37.5t62 34l62 25l11 -27
l-67 -29q-41 -18 -58.5 -37.5t-22.5 -40.5q-5 -26 9.5 -41t44.5 -15q18 -1 35.5 3.5t33.5 10.5l-6 -35q-16 -6 -34.5 -9t-37.5 -3z" />
    <glyph glyph-name="uring.ss04" horiz-adv-x="523" 
d="M216 -12q-94 0 -137.5 56.5t-23.5 170.5l51 289h45l-50 -284q-11 -59 -3 -102t38 -66t85 -23t94 23t62.5 66t34.5 103l50 283h45l-51 -289q-20 -114 -83 -170.5t-157 -56.5zM335 569q-40 0 -68.5 25t-28.5 69q0 45 28.5 70t68.5 25q41 0 69 -25t28 -70q0 -44 -28 -69
t-69 -25zM335 598q29 0 47 17.5t18 47.5q0 31 -18 48.5t-47 17.5q-28 0 -46 -17.5t-18 -48.5q0 -30 18 -47.5t46 -17.5z" />
    <glyph glyph-name="utilde.ss04" horiz-adv-x="523" 
d="M216 -12q-94 0 -137.5 56.5t-23.5 170.5l51 289h45l-50 -284q-11 -59 -3 -102t38 -66t85 -23t94 23t62.5 66t34.5 103l50 283h45l-51 -289q-20 -114 -83 -170.5t-157 -56.5zM189 569q11 38 35.5 59t54.5 21q24 0 39 -12t28.5 -24t32.5 -12q17 0 30 11.5t20 33.5h32
q-9 -35 -33.5 -57t-54.5 -22q-24 0 -39 12t-28.5 24t-33.5 12q-16 0 -29.5 -11.5t-21.5 -34.5h-32z" />
    <glyph glyph-name="y.ss05" horiz-adv-x="540" 
d="M177 -232q-43 0 -75 13t-52.5 36t-30 54t-7.5 68h44q0 -46 15.5 -74.5t45 -42.5t67.5 -14q58 0 97.5 26.5t64.5 74.5t37 114l15 78v0q-37 -57 -88.5 -85t-107.5 -28q-53 0 -92 22t-55 68t-3 119l54 307h45l-53 -299q-10 -59 -2 -98.5t36 -58.5t78 -19q48 0 91.5 23.5
t75.5 69.5t44 113l48 269h45l-85 -481q-14 -77 -46 -134.5t-83 -89t-123 -31.5z" />
    <glyph glyph-name="yacute.ss05" horiz-adv-x="540" 
d="M177 -232q-43 0 -75 13t-52.5 36t-30 54t-7.5 68h44q0 -46 15.5 -74.5t45 -42.5t67.5 -14q58 0 97.5 26.5t64.5 74.5t37 114l15 78v0q-37 -57 -88.5 -85t-107.5 -28q-53 0 -92 22t-55 68t-3 119l54 307h45l-53 -299q-10 -59 -2 -98.5t36 -58.5t78 -19q48 0 91.5 23.5
t75.5 69.5t44 113l48 269h45l-85 -481q-14 -77 -46 -134.5t-83 -89t-123 -31.5zM238 545l-1 36l194 123v0l3 -43z" />
    <glyph glyph-name="ycircumflex.ss05" horiz-adv-x="540" 
d="M177 -232q-43 0 -75 13t-52.5 36t-30 54t-7.5 68h44q0 -46 15.5 -74.5t45 -42.5t67.5 -14q58 0 97.5 26.5t64.5 74.5t37 114l15 78v0q-37 -57 -88.5 -85t-107.5 -28q-53 0 -92 22t-55 68t-3 119l54 307h45l-53 -299q-10 -59 -2 -98.5t36 -58.5t78 -19q48 0 91.5 23.5
t75.5 69.5t44 113l48 269h45l-85 -481q-14 -77 -46 -134.5t-83 -89t-123 -31.5zM195 555l7 40l144 85l114 -85l-7 -40l-112 84z" />
    <glyph glyph-name="ydieresis.ss05" horiz-adv-x="540" 
d="M177 -232q-43 0 -75 13t-52.5 36t-30 54t-7.5 68h44q0 -46 15.5 -74.5t45 -42.5t67.5 -14q58 0 97.5 26.5t64.5 74.5t37 114l15 78v0q-37 -57 -88.5 -85t-107.5 -28q-53 0 -92 22t-55 68t-3 119l54 307h45l-53 -299q-10 -59 -2 -98.5t36 -58.5t78 -19q48 0 91.5 23.5
t75.5 69.5t44 113l48 269h45l-85 -481q-14 -77 -46 -134.5t-83 -89t-123 -31.5zM264 574q-16 0 -28 11.5t-12 27.5q0 17 12 28.5t28 11.5t27.5 -12t11.5 -28t-11.5 -27.5t-27.5 -11.5zM405 574q-16 0 -28 11.5t-12 27.5q0 17 12 28.5t28 11.5t27.5 -12t11.5 -28t-11.5 -27.5
t-27.5 -11.5z" />
    <glyph glyph-name="ygrave.ss05" horiz-adv-x="540" 
d="M177 -232q-43 0 -75 13t-52.5 36t-30 54t-7.5 68h44q0 -46 15.5 -74.5t45 -42.5t67.5 -14q58 0 97.5 26.5t64.5 74.5t37 114l15 78v0q-37 -57 -88.5 -85t-107.5 -28q-53 0 -92 22t-55 68t-3 119l54 307h45l-53 -299q-10 -59 -2 -98.5t36 -58.5t78 -19q48 0 91.5 23.5
t75.5 69.5t44 113l48 269h45l-85 -481q-14 -77 -46 -134.5t-83 -89t-123 -31.5zM421 545l-181 117l14 40v0l178 -121z" />
    <glyph glyph-name="uni1EF9.ss05" horiz-adv-x="540" 
d="M177 -232q-43 0 -75 13t-52.5 36t-30 54t-7.5 68h44q0 -46 15.5 -74.5t45 -42.5t67.5 -14q58 0 97.5 26.5t64.5 74.5t37 114l15 78v0q-37 -57 -88.5 -85t-107.5 -28q-53 0 -92 22t-55 68t-3 119l54 307h45l-53 -299q-10 -59 -2 -98.5t36 -58.5t78 -19q48 0 91.5 23.5
t75.5 69.5t44 113l48 269h45l-85 -481q-14 -77 -46 -134.5t-83 -89t-123 -31.5zM198 569q11 38 35.5 59t54.5 21q24 0 39 -12t28.5 -24t32.5 -12q17 0 30 11.5t20 33.5h32q-9 -35 -33.5 -57t-54.5 -22q-24 0 -39 12t-28.5 24t-33.5 12q-16 0 -29.5 -11.5t-21.5 -34.5h-32z
" />
    <glyph glyph-name="one.ss07" horiz-adv-x="301" 
d="M94 0l114 649l-113 -28l5 29l131 50h32l-124 -700h-45zM12 37h221l-7 -37h-220z" />
    <glyph glyph-name="three.ss07" horiz-adv-x="585" 
d="M244 -5q-49 0 -87.5 14t-64.5 40t-38 63.5t-10 85.5h44q-3 -77 38.5 -120t124.5 -43q61 0 109 23t78 67.5t37 106.5q10 80 -31.5 122t-128.5 42h-91l5 34l300 251l17 -20h-374l7 39h392l-7 -35l-297 -250l-21 17h76q104 0 156.5 -52.5t40.5 -146.5q-7 -70 -42.5 -124
t-94.5 -84t-138 -30z" />
    <glyph glyph-name="four.ss07" horiz-adv-x="610" 
d="M369 0l28 158h-366l6 35l412 507h53l-412 -503h315l40 221l45 11l-42 -232h104l-7 -39h-104l-28 -158h-44z" />
    <glyph glyph-name="six.ss07" horiz-adv-x="576" 
d="M244 -7q-73 0 -120.5 30t-68 80.5t-13.5 112.5q3 36 13.5 67.5t25.5 59t32.5 52t35.5 44.5l226 266h56l-255 -297l7 18q20 13 44 23t50.5 15.5t51.5 5.5q68 0 114.5 -28.5t68.5 -78.5t14 -116q-7 -73 -44.5 -131t-98.5 -90.5t-139 -32.5zM251 35q61 0 109.5 26t80 73
t39.5 110q6 55 -10.5 97t-54 65.5t-93.5 23.5q-63 0 -113 -27t-81.5 -74.5t-38.5 -109.5q-11 -84 33.5 -134t128.5 -50z" />
    <glyph glyph-name="nine.ss07" horiz-adv-x="576" 
d="M180 0l253 297l-6 -19q-18 -12 -42 -22t-51 -15.5t-52 -5.5q-67 0 -114 28.5t-69 79t-15 115.5q8 73 45.5 130.5t98.5 90.5t139 33q73 0 120.5 -30.5t68.5 -81.5t13 -113q-2 -33 -12 -63t-24.5 -57.5t-32 -51.5t-34.5 -44l-232 -271h-54zM291 275q62 0 111.5 27t81 74.5
t38.5 108.5q11 84 -33.5 134t-129.5 50q-61 0 -110 -25.5t-79.5 -72t-38.5 -111.5q-10 -82 32.5 -133.5t127.5 -51.5z" />
    <glyph glyph-name="one.dnom" horiz-adv-x="176" 
d="M49 0l55 310l-68 -20l4 26l78 36h32l-62 -352h-39z" />
    <glyph glyph-name="two.dnom" horiz-adv-x="306" 
d="M-11 0l5 27l127 99q34 27 61 56t33 69q7 37 -10 55t-47 18q-31 0 -53 -17.5t-32 -52.5h-40q11 41 44 71.5t87 30.5q32 0 54.5 -12.5t33 -36t4.5 -55.5q-7 -41 -34.5 -74t-77.5 -71l-98 -74h180l-6 -33h-231z" />
    <glyph glyph-name="three.dnom" horiz-adv-x="305" 
d="M106 -5q-53 0 -81 25t-25 75h38q-1 -27 9 -42t27.5 -20.5t37.5 -5.5q34 0 59 17.5t31 51.5q5 30 -13.5 48.5t-59.5 18.5h-50l6 31h49q36 0 61.5 17t30.5 49q5 29 -13 46.5t-51 17.5q-35 0 -58 -16t-34 -40h-36q13 39 49.5 63.5t86.5 24.5q45 0 75 -25.5t22 -69.5
q-6 -33 -28 -54t-54 -28v-2q29 -5 45.5 -27.5t10.5 -56.5q-7 -41 -43.5 -69.5t-91.5 -28.5z" />
    <glyph glyph-name="four.dnom" horiz-adv-x="305" 
d="M154 0l13 74h-178l6 32l215 242h44l-43 -241h54l-6 -33h-54l-13 -74h-38zM36 107h139l35 198v0z" />
    <glyph glyph-name="one.numr" horiz-adv-x="176" 
d="M111 352l55 310l-68 -20l4 26l78 36h32l-62 -352h-39z" />
    <glyph glyph-name="two.numr" horiz-adv-x="306" 
d="M51 352l5 27l127 99q34 27 61 56t33 69q7 37 -10 55t-47 18q-31 0 -53 -17.5t-32 -52.5h-40q11 41 44 71.5t87 30.5q32 0 54.5 -12.5t33 -36t4.5 -55.5q-7 -41 -34.5 -74t-77.5 -71l-98 -74h180l-6 -33h-231z" />
    <glyph glyph-name="three.numr" horiz-adv-x="305" 
d="M168 347q-53 0 -81 25t-25 75h38q-1 -27 9 -42t27.5 -20.5t37.5 -5.5q34 0 59 17.5t31 51.5q5 30 -13.5 48.5t-59.5 18.5h-50l6 31h49q36 0 61.5 17t30.5 49q5 29 -13 46.5t-51 17.5q-35 0 -58 -16t-34 -40h-36q13 39 49.5 63.5t86.5 24.5q45 0 75 -25.5t22 -69.5
q-6 -33 -28 -54t-54 -28v-2q29 -5 45.5 -27.5t10.5 -56.5q-7 -41 -43.5 -69.5t-91.5 -28.5z" />
    <glyph glyph-name="four.numr" horiz-adv-x="305" 
d="M216 352l13 74h-178l6 32l215 242h44l-43 -241h54l-6 -33h-54l-13 -74h-38zM98 459h139l35 198v0z" />
    <glyph glyph-name="comma.ss01" horiz-adv-x="145" 
d="M-36 -94l6 28q26 0 37.5 12.5t15.5 36.5l4 27h-41l11 64h69q0 -23 -2 -42.5t-4 -35.5q-9 -52 -34 -71t-62 -19z" />
    <glyph glyph-name="semicolon.ss01" horiz-adv-x="148" 
d="M111 431q-18 0 -30.5 12.5t-12.5 30.5t12.5 30t30.5 12q17 0 29 -12.5t12 -30.5q0 -17 -12 -29.5t-29 -12.5zM-27 -94l6 28q26 0 37.5 12.5t15.5 36.5l4 27h-41l11 64h69q0 -23 -2 -42.5t-4 -35.5q-9 -52 -34 -71t-62 -19z" />
    <glyph glyph-name="quotesinglbase.ss01" horiz-adv-x="145" 
d="M-36 -95l6 29q25 0 37 12t16 36l4 27h-40l11 64h67q1 -23 -1 -42.5t-4 -36.5q-8 -52 -33 -70.5t-63 -18.5z" />
    <glyph glyph-name="quotedblbase.ss01" horiz-adv-x="250" 
d="M69 -95l6 29q25 0 37 12t16 36l4 27h-40l11 64h67q1 -23 -1 -42.5t-4 -36.5q-8 -52 -33 -70.5t-63 -18.5zM-36 -95l6 29q25 0 37 12t16 36l4 27h-40l11 64h67q1 -23 -1 -42.5t-4 -36.5q-8 -52 -33 -70.5t-63 -18.5z" />
    <glyph glyph-name="quotedblleft.ss01" horiz-adv-x="238" 
d="M192 738l-5 -28q-25 0 -37.5 -12.5t-16.5 -36.5l-4 -27h40l-11 -64h-67q-1 23 1 43t4 37q8 51 33.5 69.5t62.5 18.5zM297 738l-6 -28q-24 0 -36.5 -12.5t-16.5 -36.5l-4 -27h40l-11 -64h-67q-1 23 1 43t4 37q8 51 33.5 69.5t62.5 18.5z" />
    <glyph glyph-name="quotedblright.ss01" horiz-adv-x="238" 
d="M188 570l6 29q25 0 37 12t16 36l4 27h-40l11 64h67q1 -23 -1 -42.5t-4 -36.5q-8 -52 -33 -70.5t-63 -18.5zM83 570l6 29q25 0 37 12t16 36l4 27h-40l11 64h67q1 -23 -1 -42.5t-4 -36.5q-8 -52 -33 -70.5t-63 -18.5z" />
    <glyph glyph-name="quoteleft.ss01" horiz-adv-x="133" 
d="M192 738l-5 -28q-25 0 -37.5 -12.5t-16.5 -36.5l-4 -27h40l-11 -64h-67q-1 23 1 43t4 37q8 51 33.5 69.5t62.5 18.5z" />
    <glyph glyph-name="quoteright.ss01" horiz-adv-x="133" 
d="M83 570l6 29q25 0 37 12t16 36l4 27h-40l11 64h67q1 -23 -1 -42.5t-4 -36.5q-8 -52 -33 -70.5t-63 -18.5z" />
    <glyph glyph-name="quotedblleft.ss08" horiz-adv-x="776" 
d="M405 -12q75 0 140.5 28t115.5 78t78 115.5t28 140.5t-28 140.5t-78 115.5t-115.5 78t-140.5 28t-140.5 -28t-115.5 -78t-78 -115.5t-28 -140.5t28 -140.5t78 -115.5t115.5 -78t140.5 -28zM400 459l-7 -36q-33 0 -48.5 -16.5t-20.5 -47.5l-6 -34h53l-15 -84h-88
q0 30 2 55.5t6 48.5q10 66 43 90t81 24zM536 459l-7 -36q-33 0 -48.5 -16.5t-20.5 -47.5l-6 -34h53l-15 -84h-87q-1 30 1.5 55.5t5.5 48.5q11 66 43.5 90t80.5 24z" />
    <glyph glyph-name="quotedblright.ss08" horiz-adv-x="776" 
d="M405 712q-75 0 -140.5 -28t-115.5 -78t-78 -115.5t-28 -140.5t28 -140.5t78 -115.5t115.5 -78t140.5 -28t140.5 28t115.5 78t78 115.5t28 140.5t-28 140.5t-78 115.5t-115.5 78t-140.5 28zM411 241l6 37q34 0 49.5 16t20.5 47l6 34h-53l15 84h87q1 -30 -1.5 -55.5
t-5.5 -48.5q-11 -66 -43.5 -90t-80.5 -24zM275 241l6 37q33 0 48.5 16t21.5 47l6 34h-53l15 84h87q0 -30 -2 -55.5t-5 -48.5q-11 -66 -44 -90t-80 -24z" />
    <glyph glyph-name="arrowup.ss08" horiz-adv-x="776" 
d="M405 -12q-75 0 -140.5 28t-115.5 78t-78 115.5t-28 140.5t28 140.5t78 115.5t115.5 78t140.5 28t140.5 -28t115.5 -78t78 -115.5t28 -140.5t-28 -140.5t-78 -115.5t-115.5 -78t-140.5 -28zM388 176h35v298l151 -149l23 24l-178 176h-26l-179 -175l24 -24l150 147v-297z
" />
    <glyph glyph-name="uni2197.ss08" horiz-adv-x="776" 
d="M405 -12q-75 0 -140.5 28t-115.5 78t-78 115.5t-28 140.5t28 140.5t78 115.5t115.5 78t140.5 28t140.5 -28t115.5 -77.5t78 -115.5t28 -141t-28 -140.5t-78 -115.5t-115.5 -78t-140.5 -28zM294 218l214 212v-213h34v250l-19 19h-252v-33h213l-215 -211z" />
    <glyph glyph-name="arrowright.ss08" horiz-adv-x="776" 
d="M405 -12q-75 0 -140.5 28t-115.5 78t-78 115.5t-28 140.5t28 140.5t78 115.5t115.5 78t140.5 28t140.5 -28t115.5 -78t78 -115.5t28 -140.5t-28 -140.5t-78 -115.5t-115.5 -78t-140.5 -28zM403 163l177 175v26l-176 174l-23 -23l149 -147h-299v-34h300l-151 -147z" />
    <glyph glyph-name="uni2198.ss08" horiz-adv-x="776" 
d="M405 712q75 0 140.5 -28t115.5 -78t78 -115.5t28 -140.5t-28 -141t-78 -115.5t-115.5 -77.5t-140.5 -28t-140.5 28t-115.5 78t-78 115.5t-28 140.5t28 140.5t78 115.5t115.5 78t140.5 28zM294 482l-25 -23l215 -212h-213v-32h252l19 18v251h-34v-213z" />
    <glyph glyph-name="arrowdown.ss08" horiz-adv-x="776" 
d="M405 712q75 0 140.5 -28t115.5 -78t78 -115.5t28 -140.5t-28 -140.5t-78 -115.5t-115.5 -78t-140.5 -28t-140.5 28t-115.5 78t-78 115.5t-28 140.5t28 140.5t78 115.5t115.5 78t140.5 28zM388 525v-298l-150 148l-24 -24l179 -176h26l178 177l-23 23l-151 -148v298h-35z
" />
    <glyph glyph-name="uni2199.ss08" horiz-adv-x="776" 
d="M405 712q75 0 140.5 -28t115.5 -78t78 -115.5t28 -140.5t-28 -140.5t-78 -115.5t-115.5 -78t-140.5 -28t-140.5 28t-115.5 77.5t-78 115.5t-28 141t28 140.5t78 115.5t115.5 78t140.5 28zM517 482l-215 -211v213h-33v-251l19 -18h251v32h-212l214 212z" />
    <glyph glyph-name="arrowleft.ss08" horiz-adv-x="776" 
d="M405 -12q-75 0 -140.5 28t-115.5 78t-78 115.5t-28 140.5t28 140.5t78 115.5t115.5 78t140.5 28t140.5 -28t115.5 -78t78 -115.5t28 -140.5t-28 -140.5t-78 -115.5t-115.5 -78t-140.5 -28zM407 163l23 24l-150 147h300v34h-299l149 147l-24 23l-176 -174v-26z" />
    <glyph glyph-name="uni2196.ss08" horiz-adv-x="776" 
d="M405 -12q-75 0 -140.5 28t-115.5 78t-78 115.5t-28 140.5t28 141t78 115.5t115.5 77.5t140.5 28t140.5 -28t115.5 -78t78 -115.5t28 -140.5t-28 -140.5t-78 -115.5t-115.5 -78t-140.5 -28zM517 218l24 24l-214 211h212v33h-251l-19 -19v-250h33v213z" />
    <glyph glyph-name="arrowboth.ss08" horiz-adv-x="776" 
d="M405 -12q-75 0 -140.5 28t-115.5 78t-78 115.5t-28 140.5t28 140.5t78 115.5t115.5 78t140.5 28t140.5 -28t115.5 -77.5t78 -115.5t28 -141t-28 -140.5t-78 -115.5t-115.5 -78t-140.5 -28zM342 168l27 21l-123 145h319l-123 -145l26 -21l143 169v26l-143 170l-26 -21
l123 -145h-319l123 145l-27 21l-142 -170v-26z" />
    <glyph glyph-name="arrowupdn.ss08" horiz-adv-x="776" 
d="M405 -12q-75 0 -140.5 28t-115.5 78t-78 115.5t-28 140.5t28 140.5t78 115.5t115.5 78t140.5 28t140.5 -28t115.5 -78t78 -115.5t28 -140.5t-28 -140.5t-77.5 -115.5t-115.5 -78t-141 -28zM392 147h26l172 141l-21 26l-147 -121v314l147 -121l21 27l-172 141h-26
l-171 -141l21 -27l146 121v-314l-146 121l-21 -26z" />
    <glyph glyph-name="uni030C.alt" 
d="M56 570l5 29q23 0 33 9.5t14 28.5l4 24h-36l11 64h63q-1 -23 -2 -39.5t-3 -33.5q-9 -48 -32 -65t-57 -17z" />
    <glyph glyph-name="uni0308.case" 
d="M140 778q-16 0 -28 11.5t-12 27.5q0 17 12 28.5t28 11.5t27.5 -12t11.5 -28t-11.5 -27.5t-27.5 -11.5zM281 778q-16 0 -28 11.5t-12 27.5q0 17 12 28.5t28 11.5t27.5 -12t11.5 -28t-11.5 -27.5t-27.5 -11.5z" />
    <glyph glyph-name="uni0307.case" 
d="M140 777q-16 0 -27.5 12t-11.5 28t11.5 27.5t27.5 11.5t27.5 -11.5t11.5 -27.5t-11.5 -28t-27.5 -12z" />
    <glyph glyph-name="gravecomb.case" 
d="M290 753l-181 117l14 40v0l178 -121z" />
    <glyph glyph-name="acutecomb.case" 
d="M96 753l-1 36l194 123v0l3 -43z" />
    <glyph glyph-name="uni030B.case" 
d="M214 760l88 122h44l-98 -122h-34zM89 760l83 122h46l-94 -122h-35z" />
    <glyph glyph-name="uni0302.case" 
d="M90 760l7 40l144 85l114 -85l-7 -40l-112 84z" />
    <glyph glyph-name="uni030C.case" 
d="M369 880l-7 -40l-144 -85l-114 85l7 40l112 -84z" />
    <glyph glyph-name="uni0306.case" 
d="M217 770q-44 0 -69 16.5t-33.5 41.5t-3.5 53l2 11h33q-10 -41 10.5 -62.5t67.5 -21.5q48 0 74.5 23t34.5 61h34l-3 -11q-6 -28 -24 -53t-48.5 -41.5t-74.5 -16.5z" />
    <glyph glyph-name="uni030A.case" 
d="M207 770q-40 0 -68.5 25t-28.5 69q0 45 28.5 70t68.5 25q41 0 69 -25t28 -70q0 -44 -28 -69t-69 -25zM207 799q29 0 47 17.5t18 47.5q0 31 -18 48.5t-47 17.5q-28 0 -46 -17.5t-18 -48.5q0 -30 18 -47.5t46 -17.5z" />
    <glyph glyph-name="tildecomb.case" 
d="M92 770q11 38 35.5 59t54.5 21q24 0 39 -12t28.5 -24t32.5 -12q17 0 30 11.5t20 33.5h32q-9 -35 -33.5 -57t-54.5 -22q-24 0 -39 12t-28.5 24t-33.5 12q-16 0 -29.5 -11.5t-21.5 -34.5h-32z" />
    <glyph glyph-name="uni0304.case" 
d="M100 816l7 39h323l-6 -39h-324z" />
    <glyph glyph-name="uni0327.case" 
d="M-89 -255l6 33h77q44 0 66.5 18t25.5 44q3 27 -14 40t-60 13h-40l20 114h35l-15 -82q41 2 67.5 -7.5t38.5 -29t9 -47.5q-3 -27 -19.5 -49t-44.5 -34.5t-65 -12.5h-87z" />
    <glyph glyph-name="uni0328.case" 
d="M21 -196q-23 0 -45 8t-33.5 26.5t-6.5 51.5q4 21 16.5 40.5t36.5 37.5t62 34l62 25l11 -27l-67 -29q-41 -18 -58.5 -37.5t-22.5 -40.5q-5 -26 9.5 -41t44.5 -15q18 -1 35.5 3.5t33.5 10.5l-6 -35q-16 -6 -34.5 -9t-37.5 -3z" />
    </font>
</defs>
</svg>
