<?xml version="1.0" standalone="no"?>
<!DOCTYPE svg PUBLIC "-//W3C//DTD SVG 1.1//EN" "http://www.w3.org/Graphics/SVG/1.1/DTD/svg11.dtd" >
<svg xmlns="http://www.w3.org/2000/svg" xmlns:xlink="http://www.w3.org/1999/xlink" version="1.1">
<metadata>
Created by FontForge 20201107 at Wed Jun 14 12:00:55 2023
 By 
Copyright 2014 The DM Sans Project Authors (https://github.com/googlefonts/dm-fonts)
</metadata>
<defs>
<font id="DMSans-ExtraBoldItalic" horiz-adv-x="0" >
  <font-face 
    font-family="DM Sans ExtraBold"
    font-weight="800"
    font-style="italic"
    font-stretch="normal"
    units-per-em="1000"
    panose-1="0 0 0 0 0 0 0 0 0 0"
    ascent="800"
    descent="-200"
    x-height="504"
    cap-height="700"
    bbox="-143 -284 1249.41 999"
    underline-thickness="50"
    underline-position="-125"
    slope="-10"
    unicode-range="U+000D-FB02"
  />
<missing-glyph horiz-adv-x="538" 
d="M24 0l124 700h401l-124 -700h-401zM104 57h261l104 586h-261z" />
    <glyph glyph-name="fi" unicode="fi" horiz-adv-x="616" 
d="M44 0l69 387h-69l20 117h69l7 42q12 64 40.5 102t71.5 55t97 17h55l-21 -119h-34q-31 0 -47 -12.5t-22 -41.5l-7 -43h318l-89 -504h-140l68 387h-178l-68 -387h-140zM548 570q-38 0 -62 23t-24 56q0 35 24 57.5t62 22.5t62 -22.5t24 -57.5q0 -33 -24 -56t-62 -23z" />
    <glyph glyph-name="fl" unicode="fl" horiz-adv-x="647" 
d="M44 0l97 546q11 64 39.5 102t71.5 55t97 17h62l-21 -119h-41q-31 0 -47 -12.5t-21 -42.5l-97 -546h-140zM44 387l20 117h316l-20 -117h-316zM396 0l128 720h140l-128 -720h-140z" />
    <glyph glyph-name=".notdef" horiz-adv-x="538" 
d="M24 0l124 700h401l-124 -700h-401zM104 57h261l104 586h-261z" />
    <glyph glyph-name=".null" 
 />
    <glyph glyph-name="nonmarkingreturn" horiz-adv-x="333" 
 />
    <glyph glyph-name="CR" unicode="&#xd;" horiz-adv-x="600" 
 />
    <glyph glyph-name="space" unicode=" " horiz-adv-x="247" 
 />
    <glyph glyph-name="exclam" unicode="!" horiz-adv-x="317" 
d="M86 229l67 471h151l-100 -471h-118zM125 -6q-37 0 -60.5 23t-23.5 57q0 33 23.5 56.5t61.5 23.5q37 0 60.5 -23t23.5 -57t-23.5 -57t-61.5 -23z" />
    <glyph glyph-name="quotedbl" unicode="&#x22;" horiz-adv-x="400" 
d="M264 536l64 219h120l-89 -219h-95zM90 536l64 219h120l-89 -219h-95z" />
    <glyph glyph-name="numbersign" unicode="#" horiz-adv-x="862" 
d="M403 0l281 728h132l-281 -728h-132zM93 0l280 728h132l-281 -728h-131zM16 169l22 126h737l-22 -126h-737zM118 437l22 125h737l-21 -125h-738z" />
    <glyph glyph-name="dollar" unicode="$" horiz-adv-x="608" 
d="M203 -87l155 879h65l-155 -879h-65zM269 -12q-76 0 -132 26t-83 76t-16 121h148q-5 -32 6.5 -56t36.5 -37t58 -13q34 0 59.5 12t39.5 33t15 49q1 20 -7 35t-23 27t-35 21.5t-44 18t-49 17.5q-71 24 -107.5 67t-33.5 106q3 67 39 116.5t97.5 77t138.5 27.5q70 0 120.5 -24
t75 -69.5t15.5 -110.5h-150q5 26 -5 45.5t-30.5 30t-48.5 10.5q-29 1 -51.5 -9.5t-35.5 -29t-14 -43.5q-1 -18 5.5 -31t19.5 -23.5t30.5 -19t39.5 -16t45 -16.5q34 -12 64 -28.5t52.5 -39.5t34 -53.5t9.5 -69.5q-2 -67 -39 -118t-100 -80t-145 -29z" />
    <glyph glyph-name="percent" unicode="%" horiz-adv-x="915" 
d="M147 0l516 700h135l-515 -700h-136zM654 -12q-44 0 -79 19t-54 54t-17 82q3 59 30.5 105.5t74 73t102.5 26.5q44 0 79 -18.5t53.5 -53t16.5 -82.5q-3 -59 -30.5 -105.5t-73 -73.5t-102.5 -27zM240 351q-45 0 -80 19t-54 54t-17 82q3 60 31 106t74 73t102 27q45 0 79 -19
t53 -53.5t17 -82.5q-3 -60 -31 -106t-73 -73t-101 -27zM667 83q23 0 41 13.5t29.5 37t12.5 52.5q2 34 -13 51.5t-40 17.5q-22 0 -40.5 -13.5t-30 -37t-12.5 -53.5q-2 -34 13 -51t40 -17zM252 446q22 0 40.5 13.5t30 36.5t12.5 53q2 34 -13 51.5t-40 17.5q-22 0 -40.5 -13.5
t-30 -37t-12.5 -53.5q-2 -34 13 -51t40 -17z" />
    <glyph glyph-name="ampersand" unicode="&#x26;" horiz-adv-x="789" 
d="M555 0l-314 377q-32 40 -45.5 73t-11.5 67q2 58 33 101.5t84 68.5t122 25q62 0 103.5 -21.5t60 -60t10.5 -88.5h-133q5 30 -12 48t-49 18q-36 0 -59.5 -21.5t-24.5 -54.5q-1 -22 9 -45.5t33 -51.5l359 -435h-165zM251 -11q-71 0 -122 23t-77 65.5t-23 99.5
q2 59 32.5 107.5t82.5 85t119 56.5l55 17l46 -86l-49 -14q-65 -20 -103.5 -58t-40.5 -88q-1 -27 11 -48t36.5 -33t59.5 -12q52 0 96.5 21.5t89.5 67.5q23 25 47.5 56.5t49.5 69.5l31 45h142l-47 -70q-36 -56 -72 -101t-73 -80q-66 -64 -137 -94t-154 -30z" />
    <glyph glyph-name="quotesingle" unicode="'" horiz-adv-x="207" 
d="M100 536l36 219h120l-62 -219h-94z" />
    <glyph glyph-name="parenleft" unicode="(" horiz-adv-x="409" 
d="M168 -145q-38 48 -66 109t-41 132.5t-9 149.5q4 107 40.5 209.5t99 193.5t144.5 162h140l-2 -13q-85 -77 -147.5 -165.5t-97.5 -183t-38 -190.5q-4 -71 8.5 -140.5t40.5 -132.5t69 -118l-3 -13h-138z" />
    <glyph glyph-name="parenright" unicode=")" horiz-adv-x="409" 
d="M270 811q38 -47 66 -108.5t41 -133t9 -149.5q-5 -106 -41 -209t-98.5 -194t-145.5 -162h-139l2 13q85 78 147 166t97 182.5t39 190.5q4 72 -9 141t-40.5 132.5t-68.5 117.5l2 13h139z" />
    <glyph glyph-name="asterisk" unicode="*" horiz-adv-x="517" 
d="M230 360l44 138l-123 -88l-36 91l136 50l-118 47l63 87l97 -87l3 140h101l-47 -140l126 87l33 -86l-137 -50l120 -49l-66 -89l-94 87l-3 -138h-99z" />
    <glyph glyph-name="plus" unicode="+" horiz-adv-x="582" 
d="M198 60l80 458h119l-80 -458h-119zM42 231l20 117h492l-21 -117h-491z" />
    <glyph glyph-name="comma" unicode="," horiz-adv-x="252" 
d="M-41 -117l102 257h134l-146 -257h-90z" />
    <glyph glyph-name="hyphen" unicode="-" horiz-adv-x="533" 
d="M73 231l21 117h424l-20 -117h-425z" />
    <glyph glyph-name="period" unicode="." horiz-adv-x="260" 
d="M98 -6q-37 0 -61 23t-24 57q0 33 24 56.5t61 23.5t61 -23t24 -57t-24 -57t-61 -23z" />
    <glyph glyph-name="slash" unicode="/" horiz-adv-x="431" 
d="M-42 -116l408 897h135l-408 -897h-135z" />
    <glyph glyph-name="zero" unicode="0" horiz-adv-x="708" 
d="M310 -12q-85 0 -143 37t-86 103.5t-24 155.5q4 91 33.5 169t80 136t117.5 90.5t145 32.5q85 0 142.5 -37t86 -103.5t23.5 -155.5q-4 -91 -33 -169t-79.5 -136t-117.5 -90.5t-145 -32.5zM330 114q42 0 79 22t66 61.5t46.5 91.5t19.5 113q3 58 -11.5 98.5t-44 63
t-72.5 22.5q-42 0 -79 -22t-66.5 -61t-46.5 -91.5t-19 -113.5q-4 -57 11 -98.5t45 -63.5t72 -22z" />
    <glyph glyph-name="one" unicode="1" horiz-adv-x="369" 
d="M111 0l95 539l-131 -37l21 116l199 82h85l-124 -700h-145z" />
    <glyph glyph-name="two" unicode="2" horiz-adv-x="586" 
d="M13 0l18 103q82 57 153 111t125 105t85 98.5t33 92.5q1 22 -6.5 41t-25.5 31t-49 12q-33 0 -58.5 -15.5t-42 -41.5t-21.5 -59h-136q16 78 56 130t97.5 78t123.5 26q68 0 114.5 -24t69.5 -66t21 -96q-2 -48 -22.5 -93t-54.5 -87.5t-77 -82.5t-91.5 -77.5t-97.5 -71.5h297
l-20 -114h-491z" />
    <glyph glyph-name="three" unicode="3" horiz-adv-x="604" 
d="M255 -12q-76 0 -127.5 28t-74 79.5t-11.5 123.5h137q-4 -37 5.5 -62t32 -38.5t58.5 -13.5q35 0 63 15t44.5 40.5t17.5 57.5q1 29 -12.5 49t-39.5 30.5t-61 10.5h-52l19 115h53q55 0 91.5 27t38.5 74q1 32 -19.5 51t-58.5 19q-47 0 -78 -27.5t-41 -67.5h-136
q15 67 53.5 115t95.5 73t126 25q67 0 112 -22t66.5 -59.5t19.5 -84.5q-2 -42 -20.5 -78t-50 -62t-72.5 -38q34 -7 57.5 -26.5t35.5 -49t10 -67.5q-3 -67 -40 -120.5t-99.5 -85t-142.5 -31.5z" />
    <glyph glyph-name="four" unicode="4" horiz-adv-x="655" 
d="M345 0l22 124h-343l19 112l407 464h158l-80 -454h90l-22 -122h-90l-22 -124h-139zM194 246h202l54 300v0z" />
    <glyph glyph-name="five" unicode="5" horiz-adv-x="624" 
d="M275 -12q-72 0 -123 24.5t-76 71t-21 113.5h137q0 -40 28 -65t74 -25q40 0 71.5 19.5t50.5 53.5t21 76q1 33 -10 57t-32.5 38t-52.5 14q-41 0 -74.5 -20t-50.5 -48h-135l129 403h395l-21 -123h-292l-55 -149q26 22 64 36.5t84 14.5q50 0 86.5 -17t59.5 -46t33.5 -66
t7.5 -76q-3 -83 -43.5 -147.5t-107 -101.5t-147.5 -37z" />
    <glyph glyph-name="six" unicode="6" horiz-adv-x="634" 
d="M290 -12q-67 0 -112.5 22t-72.5 60t-38 87t-8 102q4 96 30.5 178t73 144t108.5 96.5t135 34.5q75 0 121 -28.5t66 -75t15 -99.5h-130q-1 42 -23.5 65t-64.5 23q-41 0 -76 -24t-61.5 -72t-42.5 -120q0 -2 -0.5 -5t-1.5 -6q20 25 47 43.5t60.5 29t69.5 10.5q56 0 99.5 -26
t67.5 -72t21 -105q-2 -55 -25 -102.5t-61.5 -83.5t-89 -56t-107.5 -20zM302 108q37 0 67 16t48 44.5t20 64.5q1 30 -11 53t-35 36t-55 13q-37 0 -67.5 -16t-49 -44.5t-19.5 -64.5q-2 -30 10.5 -53t36 -36t55.5 -13z" />
    <glyph glyph-name="seven" unicode="7" horiz-adv-x="537" 
d="M62 0l357 580h-332l21 120h478l-16 -98l-361 -602h-147z" />
    <glyph glyph-name="eight" unicode="8" horiz-adv-x="631" 
d="M272 -12q-67 0 -118.5 22.5t-79.5 65t-26 102.5q2 45 21.5 84t53 69t78.5 46q-39 20 -59.5 53t-18.5 76q2 59 38 105.5t97.5 73.5t139.5 27q71 0 117 -22t68 -60t19 -86q-1 -42 -20 -74.5t-48 -56t-59 -36.5q46 -20 69 -61t20 -95q-2 -70 -43 -122.5t-106 -81.5t-143 -29
zM291 104q38 0 68.5 15.5t48.5 42.5t19 60q3 44 -25 68.5t-76 24.5q-38 0 -68.5 -15t-49.5 -41.5t-20 -60.5q-2 -41 25 -67.5t78 -26.5zM347 417q30 0 56 12.5t42 36t17 53.5q1 27 -9.5 44.5t-30.5 26.5t-46 9q-32 0 -58 -12.5t-42 -35.5t-17 -52q-2 -38 22.5 -60t65.5 -22z
" />
    <glyph glyph-name="nine" unicode="9" horiz-adv-x="634" 
d="M262 -12q-74 0 -120 28.5t-66 75t-16 99.5h130q1 -42 24 -65t65 -23q31 0 56 12t45 33.5t35.5 50.5t26.5 62.5t18 68.5q-19 -25 -46.5 -43.5t-60 -29t-70.5 -10.5q-55 0 -98.5 26t-67.5 72t-21 106q2 56 25 103.5t61.5 83t88.5 55t108 19.5q67 0 112.5 -22t72.5 -60
t38 -87t8 -102q-4 -96 -30.5 -178t-73 -144t-108.5 -96.5t-136 -34.5zM332 365q38 0 68.5 16t49 44.5t19.5 64.5q2 30 -10.5 53t-36 36t-55.5 13q-37 0 -67.5 -16t-48.5 -44t-19 -65q-2 -29 10 -52.5t35 -36.5t55 -13z" />
    <glyph glyph-name="colon" unicode=":" horiz-adv-x="263" 
d="M98 -7q-37 0 -61 23t-24 57q0 33 24 56.5t61 23.5t61 -23t24 -57t-24 -57t-61 -23zM162 356q-37 0 -61 23t-24 57q0 33 24 56.5t61 23.5t61 -23t24 -57t-24 -57t-61 -23z" />
    <glyph glyph-name="semicolon" unicode=";" horiz-adv-x="268" 
d="M158 356q-37 0 -61 23t-24 57q0 33 24 56.5t61 23.5t61 -23t24 -57t-24 -57t-61 -23zM-34 -117l102 257h134l-146 -257h-90z" />
    <glyph glyph-name="less" unicode="&#x3c;" horiz-adv-x="582" 
d="M547 574l-262 -226l179 -223h-177l-178 225v0l258 224h180z" />
    <glyph glyph-name="equal" unicode="=" horiz-adv-x="582" 
d="M91 341l21 123h432l-22 -123h-431zM51 116l22 122h432l-22 -122h-432z" />
    <glyph glyph-name="greater" unicode="&#x3e;" horiz-adv-x="582" 
d="M70 126l261 225l-178 224h176l178 -225v0l-257 -224h-180z" />
    <glyph glyph-name="question" unicode="?" horiz-adv-x="542" 
d="M138 229l24 161h49q40 0 76 6t63 19.5t42.5 37.5t17.5 62q1 25 -8.5 43.5t-28.5 28.5t-47 10q-31 0 -56 -12t-40.5 -33t-20.5 -50h-132q10 60 46.5 107.5t94 75t131.5 27.5q62 0 107.5 -22.5t70 -63.5t20.5 -99q-3 -73 -38.5 -124t-95.5 -77.5t-136 -27.5l-16 -69h-123z
M175 -6q-37 0 -61 23t-24 57q0 33 24 56.5t61 23.5t61 -23.5t24 -56.5q0 -34 -24 -57t-61 -23z" />
    <glyph glyph-name="at" unicode="@" horiz-adv-x="1039" 
d="M435 -216q-111 0 -194 43.5t-129.5 123.5t-46.5 188q0 111 38 205.5t108 165t165 109.5t209 39q116 0 201 -44t131.5 -122.5t46.5 -182.5q0 -61 -15.5 -117t-45.5 -100.5t-73.5 -70.5t-101.5 -26q-70 0 -102.5 40.5t-23.5 106.5l3 32l20 -56q-24 -57 -75.5 -91
t-114.5 -34q-73 0 -115 45.5t-42 123.5q0 55 16.5 104.5t47.5 89t73.5 62.5t94.5 23q57 0 89.5 -28t39.5 -81l-21 -15l20 116h115l-47 -264q-6 -37 2 -60t40 -23q28 0 48.5 20t33.5 52t20 71t7 76q0 80 -34.5 138t-99 89t-152.5 31t-161 -32t-126 -88.5t-82.5 -131.5
t-29.5 -161q0 -85 33.5 -146t96 -92.5t149.5 -31.5q46 0 91 9.5t82 26.5l22 -91q-47 -21 -100.5 -31t-110.5 -10zM479 95q33 0 61 19.5t45.5 52t18.5 72.5q2 29 -7 51.5t-27.5 36t-47.5 13.5q-28 0 -50.5 -13t-38.5 -34.5t-24.5 -49.5t-8.5 -58q0 -40 20 -65t59 -25z" />
    <glyph glyph-name="A" unicode="A" horiz-adv-x="713" 
d="M-23 0l379 700h160l131 -700h-148l-91 544v0l-284 -544h-147zM110 157l55 108h372l16 -108h-443z" />
    <glyph glyph-name="B" unicode="B" horiz-adv-x="642" 
d="M24 0l124 700h291q66 0 110 -19.5t65.5 -55.5t19.5 -85q-2 -52 -29 -93t-70.5 -65.5t-97.5 -28.5l17 11q44 -2 75.5 -22t48 -53t14.5 -75q-3 -64 -38.5 -112.5t-95 -75t-133.5 -26.5h-301zM184 112h138q40 0 68 14t44.5 39t17.5 59q2 38 -24 60t-74 22h-136zM236 409h127
q56 0 89 28t35 76q1 25 -9 42t-30.5 26t-53.5 8h-126z" />
    <glyph glyph-name="C" unicode="C" horiz-adv-x="741" 
d="M339 -12q-94 0 -158.5 38t-96 105.5t-26.5 157.5q4 91 36 168t86.5 134.5t127 89t157.5 31.5q127 0 198 -64t71 -180h-154q-2 56 -37 86.5t-101 30.5q-50 0 -93 -21t-75 -59t-50.5 -90t-21.5 -114q-3 -59 15 -100.5t54.5 -64t90.5 -22.5q65 0 109 28t66 80h153
q-26 -73 -76.5 -126t-120.5 -80.5t-154 -27.5z" />
    <glyph glyph-name="D" unicode="D" horiz-adv-x="713" 
d="M24 0l124 700h237q109 0 177.5 -37.5t99.5 -105t26 -159.5q-4 -88 -35 -161t-86.5 -126.5t-132.5 -82t-172 -28.5h-238zM186 120h89q86 0 144.5 33t90 93.5t34.5 142.5q3 64 -15 106.5t-60.5 64t-111.5 21.5h-90z" />
    <glyph glyph-name="E" unicode="E" horiz-adv-x="568" 
d="M24 0l124 700h446l-20 -111h-306l-31 -180h275l-18 -107h-277l-33 -191h305l-19 -111h-446z" />
    <glyph glyph-name="F" unicode="F" horiz-adv-x="546" 
d="M24 0l124 700h446l-20 -111h-306l-32 -184h241l-19 -108h-242l-52 -297h-140z" />
    <glyph glyph-name="G" unicode="G" horiz-adv-x="783" 
d="M332 -12q-89 0 -152 40t-94 110t-27 159q4 92 36.5 168t89 131.5t131.5 85.5t164 30q125 0 197.5 -59.5t77.5 -164.5h-156q-8 45 -42.5 70t-97.5 25q-74 0 -130.5 -35t-89 -97t-35.5 -145q-4 -61 14.5 -104.5t57 -66.5t93.5 -23q60 0 104 22t73.5 61t44.5 89h-169l18 104
h310l-68 -388h-128l3 86v0q-27 -31 -60 -53t-73.5 -33.5t-91.5 -11.5z" />
    <glyph glyph-name="H" unicode="H" horiz-adv-x="717" 
d="M464 0l124 700h140l-124 -700h-140zM24 0l124 700h140l-124 -700h-140zM198 302l20 111h342l-19 -111h-343z" />
    <glyph glyph-name="I" unicode="I" horiz-adv-x="277" 
d="M24 0l124 700h140l-124 -700h-140z" />
    <glyph glyph-name="J" unicode="J" horiz-adv-x="541" 
d="M210 -12q-68 0 -114.5 26.5t-66.5 77t-7 122.5h140q-5 -31 0 -54t21.5 -35t44.5 -12t47.5 11t32 31.5t16.5 47.5l88 497h140l-88 -497q-18 -103 -87 -159t-167 -56z" />
    <glyph glyph-name="K" unicode="K" horiz-adv-x="661" 
d="M24 0l124 700h140l-48 -273l297 273h172l-305 -277l190 -423h-167l-140 318l-79 -73l-44 -245h-140z" />
    <glyph glyph-name="L" unicode="L" horiz-adv-x="563" 
d="M24 0l124 700h140l-104 -591h305l-19 -109h-446z" />
    <glyph glyph-name="M" unicode="M" horiz-adv-x="891" 
d="M24 0l124 700h167l135 -431v0l284 431h167l-123 -700h-140l82 463v0l-245 -365h-111l-118 365v0l-81 -463h-141z" />
    <glyph glyph-name="N" unicode="N" horiz-adv-x="734" 
d="M24 0l124 700h140l232 -480v0l84 480h141l-124 -700h-140l-232 479v0l-85 -479h-140z" />
    <glyph glyph-name="O" unicode="O" horiz-adv-x="794" 
d="M355 -12q-91 0 -159.5 41t-104.5 113t-31 164q3 86 36.5 159.5t89.5 129t130 86.5t158 31q92 0 160 -41t104 -112.5t31 -164.5q-4 -85 -37 -159t-89.5 -129.5t-130 -86.5t-157.5 -31zM373 114q51 0 95.5 20.5t79 57t55 86t22.5 108.5q3 61 -15.5 105.5t-57 69.5t-96.5 25
q-51 0 -95.5 -20.5t-79 -57t-55 -85.5t-22.5 -108q-3 -61 16 -106t58 -70t95 -25z" />
    <glyph glyph-name="P" unicode="P" horiz-adv-x="621" 
d="M24 0l124 700h265q78 0 126.5 -27t71 -71.5t19.5 -98.5q-2 -72 -39.5 -126.5t-102.5 -85t-152 -30.5h-125l-47 -261h-140zM230 374h117q65 0 101 32.5t38 87.5q3 43 -21 67.5t-81 24.5h-116z" />
    <glyph glyph-name="Q" unicode="Q" horiz-adv-x="794" 
d="M486 -111l-158 405h152l157 -405h-151zM355 -12q-91 0 -159.5 41t-104.5 113t-31 164q3 86 36.5 159.5t89.5 129t130 86.5t158 31q92 0 160 -41t104 -112.5t31 -164.5q-4 -85 -37 -159t-89.5 -129.5t-130 -86.5t-157.5 -31zM373 114q51 0 95.5 20.5t79 57t55 86
t22.5 108.5q3 61 -15.5 105.5t-57 69.5t-96.5 25q-51 0 -95.5 -20.5t-79 -57t-55 -85.5t-22.5 -108q-3 -61 16 -106t58 -70t95 -25z" />
    <glyph glyph-name="R" unicode="R" horiz-adv-x="635" 
d="M24 0l124 700h262q77 0 126 -26.5t72 -70.5t20 -97q-3 -69 -39.5 -122t-101.5 -82.5t-151 -29.5h-124l-48 -272h-140zM392 0l-89 307h147l96 -307h-154zM231 374h116q61 0 97.5 32t38.5 88q3 40 -21 64.5t-78 24.5h-117z" />
    <glyph glyph-name="S" unicode="S" horiz-adv-x="608" 
d="M269 -12q-76 0 -132 26t-83 76t-16 121h148q-5 -32 6.5 -56t36.5 -37t58 -13q34 0 59.5 12t39.5 33t15 49q1 20 -7 35t-23 27t-35 21.5t-44 18t-49 17.5q-71 24 -107.5 67t-33.5 106q3 67 39 116.5t97.5 77t138.5 27.5q70 0 120.5 -24t75 -69.5t15.5 -110.5h-150
q5 26 -5 45.5t-30.5 30t-48.5 10.5q-29 1 -51.5 -9.5t-35.5 -29t-14 -43.5q-1 -18 5.5 -31t19.5 -23.5t30.5 -19t39.5 -16t45 -16.5q34 -12 64 -28.5t52.5 -39.5t34 -53.5t9.5 -69.5q-2 -67 -39 -118t-100 -80t-145 -29z" />
    <glyph glyph-name="T" unicode="T" horiz-adv-x="602" 
d="M186 0l104 589h-204l20 111h548l-19 -111h-205l-104 -589h-140z" />
    <glyph glyph-name="U" unicode="U" horiz-adv-x="688" 
d="M296 -12q-85 0 -142 33.5t-80 96.5t-8 153l76 429h140l-76 -429q-8 -49 1 -83.5t37.5 -52.5t75.5 -18q46 0 80.5 17t57.5 51.5t31 85.5l76 429h140l-75 -429q-17 -96 -66.5 -159t-119 -93.5t-148.5 -30.5z" />
    <glyph glyph-name="V" unicode="V" horiz-adv-x="709" 
d="M224 0l-130 700h149l93 -557v0l289 557h149l-378 -700h-172z" />
    <glyph glyph-name="W" unicode="W" horiz-adv-x="1022" 
d="M163 0l-58 700h150l23 -541v0l236 541h156l41 -539v0l214 539h151l-311 -700h-168l-43 502v0l-224 -502h-167z" />
    <glyph glyph-name="X" unicode="X" horiz-adv-x="676" 
d="M-11 0l283 355l-163 345h162l111 -235v0l178 235h159l-281 -352l164 -348h-162l-111 238v0l-182 -238h-158z" />
    <glyph glyph-name="Y" unicode="Y" horiz-adv-x="641" 
d="M206 0l44 244l-158 456h160l99 -334l-18 3l216 331h158l-317 -456l-44 -244h-140z" />
    <glyph glyph-name="Z" unicode="Z" horiz-adv-x="581" 
d="M5 0l19 107l404 477h-319l21 116h480l-19 -107l-406 -477h323l-21 -116h-482z" />
    <glyph glyph-name="bracketleft" unicode="[" horiz-adv-x="384" 
d="M-7 -176l174 987h260l-20 -114h-129l-134 -759h130l-21 -114h-260z" />
    <glyph glyph-name="backslash" unicode="\" horiz-adv-x="747" 
d="M660 -116h-136l-408 897h136z" />
    <glyph glyph-name="bracketright" unicode="]" horiz-adv-x="384" 
d="M414 811l-174 -986h-260l20 113h129l134 759h-130l21 114h260z" />
    <glyph glyph-name="asciicircum" unicode="^" horiz-adv-x="682" 
d="M26 199l327 501h135l150 -501h-141l-104 343v0l-226 -343h-141z" />
    <glyph glyph-name="underscore" unicode="_" horiz-adv-x="686" 
d="M3 -173l23 134h577l-23 -134h-577z" />
    <glyph glyph-name="grave" unicode="`" horiz-adv-x="237" 
d="M275 544l-203 111l33 106v0l200 -125z" />
    <glyph glyph-name="a" unicode="a" horiz-adv-x="596" 
d="M190 -12q-57 0 -93 18.5t-52.5 50t-14.5 69.5q2 52 32 89.5t84.5 58.5t127.5 21h124q6 37 0.5 60.5t-23.5 35t-52 11.5q-37 0 -65.5 -16t-40.5 -48h-136q15 54 52.5 93.5t91.5 62t118 22.5q72 0 120 -24t68.5 -69.5t9.5 -110.5l-55 -312h-123l1 74v0q-14 -18 -32 -34
t-40 -27.5t-47 -18t-55 -6.5zM243 96q24 0 46 8.5t39.5 24.5t29.5 36.5t18 43.5v2h-100q-29 0 -50 -8.5t-32.5 -23t-12.5 -34.5q-1 -25 16 -37t46 -12z" />
    <glyph glyph-name="b" unicode="b" horiz-adv-x="654" 
d="M320 -12q-37 0 -66 10t-49.5 27.5t-32.5 38.5v0l-27 -64h-124l127 720h140l-49 -278q29 33 71.5 53.5t97.5 20.5q62 0 108 -30.5t70 -82t20 -117.5q-2 -62 -25 -116t-62 -95t-89.5 -64t-109.5 -23zM309 110q42 0 76 20.5t54.5 56t22.5 81.5q2 36 -11 64.5t-38.5 45
t-60.5 16.5q-42 0 -76 -21t-54 -57t-22 -83q-3 -36 10 -64t38.5 -43.5t60.5 -15.5z" />
    <glyph glyph-name="c" unicode="c" horiz-adv-x="612" 
d="M266 -12q-69 0 -119.5 29t-76.5 80t-22 118q2 64 26.5 118.5t66.5 95.5t97.5 64t119.5 23q98 0 156.5 -52.5t58.5 -145.5h-148q-1 37 -25 57.5t-63 20.5t-71.5 -22t-52 -60t-21.5 -87q-2 -27 4 -49.5t18 -38t30.5 -24t41.5 -8.5q26 0 49 9.5t40.5 27t27.5 41.5h147
q-21 -59 -63.5 -103.5t-99 -69t-121.5 -24.5z" />
    <glyph glyph-name="d" unicode="d" horiz-adv-x="653" 
d="M241 -12q-62 0 -106.5 30.5t-67 83t-19.5 118.5q3 64 25.5 117.5t61 93.5t88.5 62.5t108 22.5t95 -21t55 -54l49 279h140l-127 -720h-125l-3 68v0q-18 -21 -43 -39.5t-57 -29.5t-74 -11zM299 110q43 0 77 22t54.5 59t22.5 82q2 36 -10.5 63.5t-37.5 42.5t-60 15
q-42 0 -75.5 -21t-54 -57t-22.5 -81q-2 -36 10 -64.5t37 -44.5t59 -16z" />
    <glyph glyph-name="e" unicode="e" horiz-adv-x="607" 
d="M265 -12q-70 0 -120 28t-75.5 79t-21.5 119q2 63 25.5 117.5t65 96t96.5 65t122 23.5q69 0 117.5 -28t72.5 -76.5t21 -111.5q0 -21 -4.5 -43t-9.5 -40h-408l15 85h268q4 32 -7 54.5t-32.5 34.5t-50.5 12q-34 0 -64.5 -16t-52.5 -47t-30 -79l-5 -29q-7 -38 2.5 -67
t33.5 -46t61 -17q36 0 62 15t42 39h143q-23 -48 -63 -86t-92 -60t-111 -22z" />
    <glyph glyph-name="f" unicode="f" horiz-adv-x="375" 
d="M44 0l97 546q11 64 39.5 102t71.5 55t97 17h62l-21 -119h-41q-31 0 -47 -12.5t-21 -42.5l-97 -546h-140zM44 387l20 117h316l-20 -117h-316z" />
    <glyph glyph-name="g" unicode="g" horiz-adv-x="568" 
d="M185 -232q-68 0 -117 16t-74.5 48t-23.5 79q2 42 25.5 77t65.5 62t99 47l39 -70q-52 -16 -75 -40t-24 -51q-1 -21 11.5 -35t36 -21t53.5 -7q48 0 81.5 18.5t34.5 54.5q1 23 -15 38.5t-67 19.5q-46 3 -83.5 10.5t-66 18t-48.5 23.5t-31 27l4 23l126 114l93 -31l-150 -126
l53 71q10 -7 21.5 -12.5t27 -10t38 -8t56.5 -6.5q62 -6 100.5 -23t55.5 -46.5t15 -69.5q-2 -55 -35 -98t-91 -67.5t-135 -24.5zM250 148q-58 0 -97.5 21t-59 57t-17.5 81q3 58 35 105t85 75.5t119 28.5q58 0 97.5 -21.5t58.5 -57t17 -81.5q-3 -58 -34.5 -105.5t-84.5 -75
t-119 -27.5zM269 253q42 0 70 24.5t30 65.5q2 32 -18.5 49t-54.5 17q-42 0 -70.5 -24.5t-30.5 -65.5q-2 -32 18.5 -49t55.5 -17zM380 406l-6 98h208l-15 -83z" />
    <glyph glyph-name="h" unicode="h" horiz-adv-x="623" 
d="M22 0l126 720h140l-51 -290v0q32 39 77.5 62.5t100.5 23.5q63 0 101.5 -26.5t52 -77t0.5 -124.5l-51 -288h-139l48 275q11 59 -8.5 91t-72.5 32q-33 0 -61.5 -16t-48 -45t-27.5 -70l-47 -267h-140z" />
    <glyph glyph-name="i" unicode="i" horiz-adv-x="279" 
d="M25 0l89 504h140l-89 -504h-140zM210 566q-39 0 -63 23t-24 56q1 34 24.5 57t62.5 23q37 0 61.5 -22.5t23.5 -57.5q0 -33 -24 -56t-61 -23z" />
    <glyph glyph-name="j" unicode="j" horiz-adv-x="293" 
d="M-113 -220l22 119h40q32 0 47.5 12.5t20.5 41.5l97 551h140l-97 -550q-11 -63 -40 -101.5t-71.5 -55.5t-96.5 -17h-62zM210 566q-38 0 -62 23t-24 56q0 35 24 57.5t62 22.5t61.5 -22.5t23.5 -57.5q0 -33 -23.5 -56t-61.5 -23z" />
    <glyph glyph-name="k" unicode="k" horiz-adv-x="593" 
d="M368 0l-176 281l231 223h171l-289 -263l11 78l219 -319h-167zM21 0l128 720h140l-128 -720h-140z" />
    <glyph glyph-name="l" unicode="l" horiz-adv-x="272" 
d="M21 0l128 720h140l-128 -720h-140z" />
    <glyph glyph-name="m" unicode="m" horiz-adv-x="939" 
d="M22 0l88 504h123v-68v0q29 36 69.5 58t91.5 22q37 0 66 -10t49.5 -29.5t31.5 -48.5v0q34 41 81 64.5t100 23.5q65 0 105.5 -26.5t56 -77t2.5 -123.5l-51 -289h-140l49 277q10 58 -9 89.5t-65 31.5q-29 0 -53.5 -14t-42 -40t-26.5 -63l-50 -281h-139l49 277q10 58 -9 89.5
t-66 31.5q-30 0 -55.5 -15.5t-43.5 -44.5t-25 -70l-47 -268h-140z" />
    <glyph glyph-name="n" unicode="n" horiz-adv-x="622" 
d="M22 0l88 504h123l-1 -79v0q30 41 76 66t104 25q65 0 103 -28t51.5 -78t1.5 -120l-51 -290h-140l49 277q9 57 -9 89t-72 32q-32 0 -60 -15t-48 -43.5t-27 -68.5l-48 -271h-140z" />
    <glyph glyph-name="o" unicode="o" horiz-adv-x="616" 
d="M266 -12q-68 0 -118 30.5t-76.5 84t-22.5 120.5q3 63 26.5 116.5t64 92.5t94 61.5t114.5 22.5q69 0 119.5 -30t77 -82.5t22.5 -122.5q-2 -62 -26 -115.5t-65 -93.5t-94.5 -62t-115.5 -22zM285 109q38 0 68.5 21t49 59t21.5 87q2 39 -9.5 65t-33 40t-50.5 14
q-37 0 -68 -21.5t-49.5 -59t-21.5 -87.5q-2 -37 9.5 -63.5t33.5 -40.5t50 -14z" />
    <glyph glyph-name="p" unicode="p" horiz-adv-x="655" 
d="M-17 -220l127 724h125l3 -68v0q20 23 45 41t56 28.5t69 10.5q64 0 109.5 -30.5t69 -82.5t20.5 -118q-3 -61 -26 -115t-62 -95t-89.5 -64t-108.5 -23q-36 0 -65 9.5t-50 27t-33 39.5l-50 -284h-140zM310 110q42 0 75.5 20.5t54 56t22.5 81.5q2 36 -11 64.5t-38 45
t-61 16.5q-42 0 -75.5 -21t-54 -57t-22.5 -83q-2 -36 11 -64t38.5 -43.5t60.5 -15.5z" />
    <glyph glyph-name="q" unicode="q" horiz-adv-x="654" 
d="M365 -220l50 288q-29 -35 -71.5 -57.5t-99.5 -22.5q-63 0 -108 30.5t-68 83.5t-19 119q2 63 25 116.5t61.5 93.5t88.5 62.5t106 22.5q41 0 70 -10.5t49 -27.5t32 -38v0l27 64h124l-127 -724h-140zM299 110q43 0 77 22t54.5 59t22.5 83q3 36 -10 63t-38 42t-60 15
q-41 0 -75 -21t-54.5 -57t-22.5 -81q-2 -36 10 -64.5t37 -44.5t59 -16z" />
    <glyph glyph-name="r" unicode="r" horiz-adv-x="414" 
d="M22 0l88 504h125l-3 -91v0q25 32 56.5 54.5t69 35.5t79.5 13l-25 -148h-48q-30 0 -56.5 -6.5t-47.5 -22t-35.5 -41t-21.5 -63.5l-41 -235h-140z" />
    <glyph glyph-name="s" unicode="s" horiz-adv-x="540" 
d="M232 -12q-72 0 -120 23.5t-70.5 63.5t-18.5 90h139q0 -21 9.5 -37t29 -25.5t48.5 -9.5q26 0 44 8t28.5 21t11.5 30q1 16 -9.5 26.5t-30 17t-45.5 11.5q-35 8 -67.5 19t-57 27.5t-38 40t-11.5 56.5q2 48 31.5 85.5t81 59t117.5 21.5q93 0 143.5 -42.5t48.5 -113.5h-133
q-2 23 -22 36t-53 13q-34 0 -55 -13.5t-22 -33.5q-1 -14 10 -24t31.5 -17t51.5 -13q40 -9 72.5 -20t55 -27t34 -39t9.5 -56q-2 -54 -34.5 -94.5t-86.5 -62t-122 -21.5z" />
    <glyph glyph-name="t" unicode="t" horiz-adv-x="435" 
d="M250 0q-60 0 -97 19.5t-49.5 59t-2.5 101.5l37 207h-84l21 117h84l40 139h125l-25 -139h132l-21 -117h-132l-37 -209q-5 -34 8.5 -46.5t44.5 -12.5h70l-21 -119h-93z" />
    <glyph glyph-name="u" unicode="u" horiz-adv-x="622" 
d="M210 -12q-65 0 -103.5 27.5t-51.5 78t-1 119.5l51 291h139l-48 -278q-10 -58 7.5 -89t71.5 -31q33 0 61.5 14.5t48.5 43t27 68.5l48 272h140l-88 -504h-123l1 79v0q-30 -41 -75.5 -66t-104.5 -25z" />
    <glyph glyph-name="v" unicode="v" horiz-adv-x="573" 
d="M157 0l-97 504h147l59 -372v0l189 372h147l-274 -504h-171z" />
    <glyph glyph-name="w" unicode="w" horiz-adv-x="826" 
d="M121 0l-61 504h139l25 -407l-26 1l182 406h155l39 -406l-26 -1l168 407h138l-236 -504h-145l-45 418h29l-192 -418h-144z" />
    <glyph glyph-name="x" unicode="x" horiz-adv-x="579" 
d="M-25 0l227 253l-138 251h150l91 -169v0l148 169h151l-227 -253l137 -251h-149l-90 170v0l-149 -170h-151z" />
    <glyph glyph-name="y" unicode="y" horiz-adv-x="609" 
d="M48 -220l158 256h-30l-112 468h151l76 -339v0l193 339h150l-438 -724h-148z" />
    <glyph glyph-name="z" unicode="z" horiz-adv-x="497" 
d="M-12 0l21 112l306 276h-248l20 116h410l-21 -113l-309 -275h260l-21 -116h-418z" />
    <glyph glyph-name="braceleft" unicode="{" horiz-adv-x="475" 
d="M268 -179q-72 0 -112.5 36t-37.5 105q2 40 15.5 78t27 74.5t15.5 70.5q1 21 -7 37t-27.5 26t-52.5 13l19 111q43 4 69 18.5t39 44.5t14 80q1 14 1 26t-0.5 23.5t1.5 24.5q2 78 31 127t76 72t104 23h66l-20 -116h-40q-23 0 -40 -7t-28 -24t-14 -48q-3 -20 -3.5 -42
t-1 -46.5t-5.5 -54.5q-4 -42 -21 -74.5t-45 -53t-68 -28.5v-2q49 -10 69 -40.5t17 -72.5q-1 -40 -13.5 -76.5t-25 -69t-13.5 -62.5q-1 -32 14.5 -44.5t43.5 -12.5h40l-20 -116h-67z" />
    <glyph glyph-name="bar" unicode="|" horiz-adv-x="277" 
d="M7 -100l144 820h140l-144 -820h-140z" />
    <glyph glyph-name="braceright" unicode="}" horiz-adv-x="475" 
d="M230 811q71 0 112 -36t38 -105q-2 -40 -15.5 -78t-27 -74t-15.5 -71q-1 -20 7 -36.5t27.5 -26t52.5 -13.5l-20 -111q-42 -4 -68.5 -18.5t-39 -44.5t-13.5 -80q-1 -13 -1 -25.5t0.5 -24t-1.5 -24.5q-2 -78 -31 -127t-76 -72t-104 -23h-67l21 116h40q22 0 39.5 7t28.5 24
t14 48q3 21 3 42.5t1 46.5t5 53q5 44 21.5 76t45.5 52.5t68 27.5v2q-49 11 -69 41.5t-18 72.5q2 41 14.5 77t25 69t13.5 62q1 33 -14.5 45t-43.5 12h-40l20 116h67z" />
    <glyph glyph-name="asciitilde" unicode="~" horiz-adv-x="582" 
d="M373 222q-32 0 -55.5 10t-41 23.5t-35.5 23.5t-40 10q-26 0 -45 -17t-30 -49h-105q22 67 54 109t71.5 62t83.5 20q32 0 55.5 -10.5t42.5 -23.5t36.5 -23.5t39.5 -10.5q26 0 45.5 17t28.5 50h106q-20 -66 -52.5 -108.5t-72.5 -62.5t-86 -20z" />
    <glyph glyph-name="uni00A0" unicode="&#xa0;" horiz-adv-x="247" 
 />
    <glyph glyph-name="exclamdown" unicode="&#xa1;" horiz-adv-x="317" 
d="M229 281l-68 -471h-150l99 471h119zM189 516q37 0 61 -23t24 -57t-24 -57t-61 -23t-61 23t-24 57t24 57t61 23z" />
    <glyph glyph-name="cent" unicode="&#xa2;" horiz-adv-x="612" 
d="M183 -94l31 174h128l-31 -174h-128zM275 432l31 174h129l-32 -174h-128zM266 -12q-69 0 -119.5 29t-76.5 80t-22 118q2 64 26.5 118.5t66.5 95.5t97.5 64t119.5 23q98 0 156.5 -52.5t58.5 -145.5h-148q-1 37 -25 57.5t-63 20.5t-71.5 -22t-52 -60t-21.5 -87
q-2 -27 4 -49.5t18 -38t30.5 -24t41.5 -8.5q26 0 49 9.5t40.5 27t27.5 41.5h147q-21 -59 -63.5 -103.5t-99 -69t-121.5 -24.5z" />
    <glyph glyph-name="sterling" unicode="&#xa3;" horiz-adv-x="631" 
d="M33 0l14 77q35 30 59.5 63t38 69.5t15.5 78.5q1 22 -1.5 43t-6.5 42t-6.5 43t-0.5 47q3 74 38 130t94 87.5t135 31.5q54 0 94.5 -15.5t67 -44t37.5 -69t4 -90.5h-128q4 30 -5 53.5t-30 37t-54 13.5q-38 0 -64.5 -16.5t-41 -45t-16.5 -63.5q-1 -21 2 -42.5t7 -43.5
t6.5 -44.5t1.5 -46.5q-2 -54 -28 -101.5t-72 -82.5h354l-19 -111h-495zM48 295l17 95h406l-17 -95h-406z" />
    <glyph glyph-name="currency" unicode="&#xa4;" horiz-adv-x="564" 
d="M258 118q-51 0 -89.5 20t-58.5 56t-18 83q3 59 34 104t82.5 70t113.5 25q52 0 90.5 -19.5t59 -54.5t18.5 -82q-3 -59 -34.5 -104.5t-82.5 -71.5t-115 -26zM89 77l-47 58l109 93l60 -47zM413 77l-76 92l71 55l72 -89zM274 205q26 0 48 13.5t36 38t15 57.5q2 26 -7 43
t-24.5 25t-35.5 8q-26 0 -48 -13.5t-35.5 -38.5t-15.5 -58q-1 -25 7.5 -42t24.5 -25t35 -8zM174 372l-74 90l67 58l80 -97zM421 363l-45 59l115 98l47 -58z" />
    <glyph glyph-name="yen" unicode="&#xa5;" horiz-adv-x="655" 
d="M35 149l16 95h540l-16 -95h-540zM291 317l-227 1l17 96h223zM409 317l20 97h192l-17 -96zM214 0l43 244l-157 456h159l99 -334l-17 3l216 331h157l-317 -456l-43 -244h-140z" />
    <glyph glyph-name="brokenbar" unicode="&#xa6;" horiz-adv-x="277" 
d="M94 395l57 325h140l-57 -325h-140zM7 -100l57 325h140l-57 -325h-140z" />
    <glyph glyph-name="section" unicode="&#xa7;" horiz-adv-x="623" 
d="M230 -232q-71 0 -123 24.5t-77 70.5t-16 109h150q-3 -23 5 -42.5t27 -31.5t48 -12q31 0 54 10.5t36.5 30t14.5 44.5q1 21 -9.5 34.5t-30 23.5t-45.5 18.5t-57 19.5q-44 16 -81.5 40.5t-59 61t-18.5 86.5q1 46 23 86.5t60 72.5q-8 15 -11.5 32t-1.5 37q2 67 37.5 118.5
t95.5 81t136 29.5q72 0 123.5 -24.5t77 -70.5t16.5 -109h-151q4 23 -4.5 42.5t-27.5 31.5t-48 12q-29 1 -52.5 -10t-37 -30t-15.5 -45q-1 -21 10 -35t30.5 -24t45.5 -18.5t56 -19.5q46 -16 83 -40.5t58 -60t19 -86.5q-2 -46 -23.5 -86.5t-59.5 -72.5q9 -16 11.5 -35.5
t0.5 -40.5q-5 -65 -40 -115t-94 -78.5t-135 -28.5zM388 142q13 12 21 28.5t8 34.5q1 22 -8.5 37.5t-28 28t-44 23.5t-57.5 22q-13 5 -26.5 11t-22.5 11q-13 -11 -21 -28t-9 -35q-1 -16 5 -29t17 -24t28.5 -20t39 -18.5t47.5 -19.5q15 -6 27.5 -11.5t23.5 -10.5z" />
    <glyph glyph-name="dieresis" unicode="&#xa8;" horiz-adv-x="318" 
d="M134 570q-28 0 -46.5 18.5t-18.5 46.5t18.5 46.5t46.5 18.5t46.5 -18.5t18.5 -46.5t-18.5 -46.5t-46.5 -18.5zM320 570q-28 0 -46.5 18.5t-18.5 46.5t18.5 46.5t46.5 18.5q27 0 46 -18.5t19 -46.5t-19 -46.5t-46 -18.5z" />
    <glyph glyph-name="copyright" unicode="&#xa9;" horiz-adv-x="790" 
d="M350 -6q-90 0 -156 38.5t-102 104.5t-36 151q0 88 32 164.5t89 134.5t133.5 90t165.5 32q92 0 157.5 -37.5t101.5 -103.5t36 -151q0 -88 -32 -165t-89 -135t-133.5 -90.5t-166.5 -32.5zM374 125q-55 0 -96.5 22.5t-65 64t-23.5 96.5q0 57 20 106.5t56 86.5t84 58t105 21
q78 0 127.5 -42t51.5 -118h-122q-4 30 -23.5 47t-53.5 17q-41 0 -70 -25t-44 -64t-15 -81q0 -46 23 -70t59 -24t61 17.5t40 46.5h121q-19 -48 -55 -84t-82 -55.5t-98 -19.5zM359 42q80 0 146 28.5t113.5 79t73 118t25.5 146.5q0 73 -29 128.5t-84.5 87t-135.5 31.5
t-145.5 -28t-113.5 -78t-73.5 -117t-25.5 -146q0 -72 29 -128.5t85 -89t135 -32.5z" />
    <glyph glyph-name="ordfeminine" unicode="&#xaa;" horiz-adv-x="510" 
d="M236 349q-42 0 -74 18.5t-49 52.5t-15 80q3 58 30 106t71.5 76.5t99.5 28.5q46 0 74 -18t39 -48l19 61h98l-62 -352h-98l2 60v0q-21 -30 -55 -47.5t-80 -17.5zM284 433q28 0 52 14t40 39.5t17 59.5q2 39 -20 60t-55 21q-27 0 -51.5 -14t-40 -39.5t-17.5 -60.5
q-2 -39 20 -59.5t55 -20.5z" />
    <glyph glyph-name="guillemotleft" unicode="&#xab;" horiz-adv-x="520" 
d="M315 120l-58 175l120 175h131l-123 -175l61 -175h-131zM107 120l-58 175l120 175h131l-123 -175l61 -175h-131z" />
    <glyph glyph-name="logicalnot" unicode="&#xac;" horiz-adv-x="582" 
d="M441 195l24 136h-459l19 107h599l-43 -243h-140z" />
    <glyph glyph-name="registered" unicode="&#xae;" horiz-adv-x="510" 
d="M262 290q-61 0 -104 27t-62 74.5t-8 109.5q10 62 45.5 109.5t88.5 74.5t114 27q63 0 105.5 -27t61.5 -74.5t7 -109.5q-11 -62 -46.5 -109.5t-87.5 -74.5t-114 -27zM311 397l-38 95h68l44 -95h-74zM270 338q49 0 88 21t65 57.5t34 84.5q13 72 -22 117t-107 45
q-48 0 -87.5 -20.5t-65.5 -57t-34 -84.5q-13 -72 22 -117.5t107 -45.5zM193 397l38 213h106q34 0 51.5 -18.5t12.5 -49.5t-29.5 -49.5t-58.5 -18.5h-41l-14 -77h-65zM279 521h31q9 0 15.5 4t7.5 13q1 8 -3 12t-14 4h-31z" />
    <glyph glyph-name="macron" unicode="&#xaf;" horiz-adv-x="382" 
d="M59 585l18 99h381l-17 -99h-382z" />
    <glyph glyph-name="degree" unicode="&#xb0;" horiz-adv-x="370" 
d="M240 421q-39 0 -72 18t-53 50.5t-20 75.5q0 46 20.5 78.5t53.5 50.5t72 18t72 -18t53 -50.5t20 -78.5q0 -43 -20.5 -76t-53.5 -50.5t-72 -17.5zM240 508q19 0 36.5 14.5t17.5 44.5q0 29 -16.5 43.5t-36.5 14.5t-37.5 -14.5t-17.5 -43.5q0 -30 17 -44.5t37 -14.5z" />
    <glyph glyph-name="plusminus" unicode="&#xb1;" horiz-adv-x="582" 
d="M13 89l21 117h497l-20 -117h-498zM232 254l65 364h118l-65 -364h-118zM64 378l21 116h497l-20 -116h-498z" />
    <glyph glyph-name="uni00B2" unicode="&#xb2;" horiz-adv-x="364" 
d="M55 352l14 79l133 80q31 20 50.5 40.5t24.5 44.5q3 19 -5 29t-23 10q-18 0 -30.5 -11.5t-18.5 -32.5h-106q12 52 58.5 87t119.5 35q47 0 74.5 -16t38.5 -41t6 -53q-7 -38 -38.5 -66.5t-94.5 -60.5l-75 -40h177l-15 -84h-290z" />
    <glyph glyph-name="uni00B3" unicode="&#xb3;" horiz-adv-x="358" 
d="M195 348q-78 0 -111 31t-28 85h109q-1 -14 3.5 -23t14 -13t20.5 -4q20 0 33.5 10.5t16.5 29.5q4 21 -7.5 31.5t-34.5 10.5h-38l9 51h34q23 0 37.5 10t18.5 31q3 17 -6.5 27t-28.5 10q-20 0 -32 -9t-19 -27h-101q10 46 54.5 80t121.5 34q65 0 99.5 -30t26.5 -74
q-5 -31 -26.5 -50.5t-53.5 -26.5l-1 -3q33 -10 48 -29.5t10 -52.5q-8 -44 -54 -71.5t-115 -27.5z" />
    <glyph glyph-name="acute" unicode="&#xb4;" horiz-adv-x="233" 
d="M71 544l-3 92l231 125v0l5 -106z" />
    <glyph glyph-name="uni00B5" unicode="&#xb5;" horiz-adv-x="630" 
d="M-18 -220l127 716h140l-46 -264q-10 -60 7.5 -93t72.5 -33q33 0 61.5 15.5t48.5 45t28 71.5l46 258h140l-87 -496h-123l1 80v0q-31 -41 -77 -66.5t-105 -25.5q-15 0 -29 3.5t-26 9.5l-39 -221h-140z" />
    <glyph glyph-name="paragraph" unicode="&#xb6;" horiz-adv-x="662" 
d="M229 -100l67 380h-19q-72 0 -117 27t-66 69.5t-21 88.5q0 75 35.5 127t99 80t144.5 28h321l-141 -800h-117l123 693h-70l-122 -693h-117z" />
    <glyph glyph-name="periodcentered" unicode="&#xb7;" horiz-adv-x="262" 
d="M143 244q-38 0 -62 23.5t-24 56.5q0 34 24 57.5t62 23.5t62 -23.5t24 -57.5q0 -33 -24 -56.5t-62 -23.5z" />
    <glyph glyph-name="cedilla" unicode="&#xb8;" horiz-adv-x="270" 
d="M-91 -264l14 79h117q26 0 40.5 8.5t15.5 27.5q1 17 -9.5 23.5t-33.5 6.5h-64l22 126h86l-9 -53q30 0 56 -9.5t41.5 -30t13.5 -55.5q-1 -39 -22.5 -66.5t-55.5 -42t-74 -14.5h-138z" />
    <glyph glyph-name="uni00B9" unicode="&#xb9;" horiz-adv-x="241" 
d="M110 352l45 252l-73 -16l12 66l125 50h60l-62 -352h-107z" />
    <glyph glyph-name="ordmasculine" unicode="&#xba;" horiz-adv-x="488" 
d="M262 349q-53 0 -91 19t-57 54.5t-17 82.5q3 61 33.5 107.5t81.5 73t112 26.5q53 0 91 -19t57.5 -53.5t17.5 -82.5q-3 -60 -34 -107t-81.5 -74t-112.5 -27zM276 431q30 0 53 16.5t36.5 43t14.5 57.5q1 28 -7.5 46t-25 27.5t-37.5 9.5q-30 0 -53 -16.5t-36 -43.5t-14 -58
q-2 -27 6.5 -45t25 -27.5t37.5 -9.5z" />
    <glyph glyph-name="guillemotright" unicode="&#xbb;" horiz-adv-x="520" 
d="M220 470l57 -175l-119 -175h-131l122 175l-60 175h131zM428 470l58 -175l-120 -175h-131l122 175l-61 175h132z" />
    <glyph glyph-name="onequarter" unicode="&#xbc;" horiz-adv-x="876" 
d="M110 352l45 252l-73 -16l12 66l125 50h60l-62 -352h-107zM105 0l516 700h136l-515 -700h-137zM670 0l11 60h-165l13 70l191 218h115l-38 -216h36l-13 -72h-36l-11 -60h-103zM631 132h70l18 103v0z" />
    <glyph glyph-name="onehalf" unicode="&#xbd;" horiz-adv-x="931" 
d="M110 352l45 252l-73 -16l12 66l125 50h60l-62 -352h-107zM105 0l516 700h136l-515 -700h-137zM560 0l14 79l133 80q31 20 50.5 40.5t24.5 44.5q3 19 -5 29t-23 10q-18 0 -30.5 -11.5t-18.5 -32.5h-106q12 52 58.5 87t119.5 35q47 0 74.5 -16t38.5 -41t6 -53
q-7 -38 -38.5 -66.5t-94.5 -60.5l-75 -40h177l-15 -84h-290z" />
    <glyph glyph-name="threequarters" unicode="&#xbe;" horiz-adv-x="953" 
d="M195 348q-78 0 -111 31t-28 85h109q-1 -14 3.5 -23t14 -13t20.5 -4q20 0 33.5 10.5t16.5 29.5q4 21 -7.5 31.5t-34.5 10.5h-38l9 51h34q23 0 37.5 10t18.5 31q3 17 -6.5 27t-28.5 10q-20 0 -32 -9t-19 -27h-101q10 46 54.5 80t121.5 34q65 0 99.5 -30t26.5 -74
q-5 -31 -26.5 -50.5t-53.5 -26.5l-1 -3q33 -10 48 -29.5t10 -52.5q-8 -44 -54 -71.5t-115 -27.5zM181 0l516 700h136l-515 -700h-137zM747 0l11 60h-165l13 70l191 218h115l-38 -216h36l-13 -72h-36l-11 -60h-103zM708 132h70l18 103v0z" />
    <glyph glyph-name="questiondown" unicode="&#xbf;" horiz-adv-x="541" 
d="M405 280l-24 -161h-49q-40 0 -76 -6t-63 -19.5t-43 -37.5t-17 -62q-2 -25 7.5 -43.5t29 -28.5t46.5 -10q32 0 56.5 12t40.5 33.5t21 49.5h132q-10 -60 -46.5 -107.5t-94 -75t-132.5 -27.5q-61 0 -107 22.5t-70 63.5t-21 99q3 74 39 124.5t96 77.5t136 27l16 69h123z
M368 516q37 0 61 -23.5t24 -57.5q0 -33 -24 -56.5t-61 -23.5t-61 23.5t-24 56.5q0 34 24 57.5t61 23.5z" />
    <glyph glyph-name="Agrave" unicode="&#xc0;" horiz-adv-x="713" 
d="M-23 0l379 700h160l131 -700h-148l-91 544v0l-284 -544h-147zM110 157l55 108h372l16 -108h-443zM548 753l-203 111l33 106v0l200 -125z" />
    <glyph glyph-name="Aacute" unicode="&#xc1;" horiz-adv-x="713" 
d="M-23 0l379 700h160l131 -700h-148l-91 544v0l-284 -544h-147zM110 157l55 108h372l16 -108h-443zM347 753l-3 92l231 125v0l5 -106z" />
    <glyph glyph-name="Acircumflex" unicode="&#xc2;" horiz-adv-x="713" 
d="M-23 0l379 700h160l131 -700h-148l-91 544v0l-284 -544h-147zM110 157l55 108h372l16 -108h-443zM295 760l18 99l163 82l134 -82l-18 -99l-133 85z" />
    <glyph glyph-name="Atilde" unicode="&#xc3;" horiz-adv-x="713" 
d="M-23 0l379 700h160l131 -700h-148l-91 544v0l-284 -544h-147zM110 157l55 108h372l16 -108h-443zM265 769q22 69 60 100t85 31q29 0 47.5 -11.5t34 -22.5t36.5 -11q16 0 30 11t21 34h74q-22 -69 -60.5 -100.5t-85.5 -31.5q-29 0 -48 11.5t-34 23t-36 11.5q-17 0 -30 -11
t-21 -34h-73z" />
    <glyph glyph-name="Adieresis" unicode="&#xc4;" horiz-adv-x="713" 
d="M-23 0l379 700h160l131 -700h-148l-91 544v0l-284 -544h-147zM110 157l55 108h372l16 -108h-443zM367 770q-28 0 -46.5 18.5t-18.5 46.5t18.5 46.5t46.5 18.5t46.5 -18.5t18.5 -46.5t-18.5 -46.5t-46.5 -18.5zM553 770q-28 0 -46.5 18.5t-18.5 46.5t18.5 46.5t46.5 18.5
q27 0 46 -18.5t19 -46.5t-19 -46.5t-46 -18.5z" />
    <glyph glyph-name="Aring" unicode="&#xc5;" horiz-adv-x="713" 
d="M-23 0l379 700h160l131 -700h-148l-91 544v0l-284 -544h-147zM110 157l55 108h372l16 -108h-443zM467 770q-47 0 -81.5 30.5t-34.5 84.5q0 53 34.5 83.5t81.5 30.5q49 0 83 -30.5t34 -83.5q0 -54 -34 -84.5t-83 -30.5zM467 832q22 0 37 14.5t15 38.5t-15 38t-36 14
t-36 -13.5t-15 -38.5q0 -24 15 -38.5t35 -14.5z" />
    <glyph glyph-name="AE" unicode="&#xc6;" horiz-adv-x="948" 
d="M-23 0l498 700h499l-20 -111h-265l-33 -179h237l-19 -107h-236l-34 -192h266l-20 -111h-406l105 594v0l-419 -594h-153zM144 133l79 107h330l-19 -107h-390z" />
    <glyph glyph-name="Ccedilla" unicode="&#xc7;" horiz-adv-x="741" 
d="M339 -12q-94 0 -158.5 38t-96 105.5t-26.5 157.5q4 91 36 168t86.5 134.5t127 89t157.5 31.5q127 0 198 -64t71 -180h-154q-2 56 -37 86.5t-101 30.5q-50 0 -93 -21t-75 -59t-50.5 -90t-21.5 -114q-3 -59 15 -100.5t54.5 -64t90.5 -22.5q65 0 109 28t66 80h153
q-26 -73 -76.5 -126t-120.5 -80.5t-154 -27.5zM195 -264l14 79h117q26 0 40.5 8.5t15.5 27.5q1 17 -9.5 23.5t-33.5 6.5h-64l22 126h86l-9 -53q30 0 56 -9.5t41.5 -30t13.5 -55.5q-1 -39 -22.5 -66.5t-55.5 -42t-74 -14.5h-138z" />
    <glyph glyph-name="Egrave" unicode="&#xc8;" horiz-adv-x="568" 
d="M24 0l124 700h446l-20 -111h-306l-31 -180h275l-18 -107h-277l-33 -191h305l-19 -111h-446zM481 753l-203 111l33 106v0l200 -125z" />
    <glyph glyph-name="Eacute" unicode="&#xc9;" horiz-adv-x="568" 
d="M24 0l124 700h446l-20 -111h-306l-31 -180h275l-18 -107h-277l-33 -191h305l-19 -111h-446zM280 753l-3 92l231 125v0l5 -106z" />
    <glyph glyph-name="Ecircumflex" unicode="&#xca;" horiz-adv-x="568" 
d="M24 0l124 700h446l-20 -111h-306l-31 -180h275l-18 -107h-277l-33 -191h305l-19 -111h-446zM228 760l18 99l163 82l134 -82l-18 -99l-133 85z" />
    <glyph glyph-name="Edieresis" unicode="&#xcb;" horiz-adv-x="568" 
d="M24 0l124 700h446l-20 -111h-306l-31 -180h275l-18 -107h-277l-33 -191h305l-19 -111h-446zM300 770q-28 0 -46.5 18.5t-18.5 46.5t18.5 46.5t46.5 18.5t46.5 -18.5t18.5 -46.5t-18.5 -46.5t-46.5 -18.5zM486 770q-28 0 -46.5 18.5t-18.5 46.5t18.5 46.5t46.5 18.5
q27 0 46 -18.5t19 -46.5t-19 -46.5t-46 -18.5z" />
    <glyph glyph-name="Igrave" unicode="&#xcc;" horiz-adv-x="277" 
d="M24 0l124 700h140l-124 -700h-140zM331 753l-203 111l33 106v0l200 -125z" />
    <glyph glyph-name="Iacute" unicode="&#xcd;" horiz-adv-x="277" 
d="M24 0l124 700h140l-124 -700h-140zM130 753l-3 92l231 125v0l5 -106z" />
    <glyph glyph-name="Icircumflex" unicode="&#xce;" horiz-adv-x="277" 
d="M24 0l124 700h140l-124 -700h-140zM78 760l18 99l163 82l134 -82l-18 -99l-133 85z" />
    <glyph glyph-name="Idieresis" unicode="&#xcf;" horiz-adv-x="277" 
d="M24 0l124 700h140l-124 -700h-140zM149 770q-28 0 -46.5 18.5t-18.5 46.5t18.5 46.5t46.5 18.5t46.5 -18.5t18.5 -46.5t-18.5 -46.5t-46.5 -18.5zM335 770q-28 0 -46.5 18.5t-18.5 46.5t18.5 46.5t46.5 18.5q27 0 46 -18.5t19 -46.5t-19 -46.5t-46 -18.5z" />
    <glyph glyph-name="Eth" unicode="&#xd0;" horiz-adv-x="727" 
d="M13 291l21 119h381l-21 -119h-381zM39 0l123 700h238q109 0 177.5 -37.5t99 -105t25.5 -159.5q-3 -88 -34 -161t-86.5 -126.5t-132.5 -82t-173 -28.5h-237zM200 120h90q86 0 144.5 33t89.5 93.5t34 142.5q4 64 -14.5 106.5t-61 64t-111.5 21.5h-89z" />
    <glyph glyph-name="Ntilde" unicode="&#xd1;" horiz-adv-x="734" 
d="M24 0l124 700h140l232 -480v0l84 480h141l-124 -700h-140l-232 479v0l-85 -479h-140zM277 769q22 69 60 100t85 31q29 0 47.5 -11.5t34 -22.5t36.5 -11q16 0 30 11t21 34h74q-22 -69 -60.5 -100.5t-85.5 -31.5q-29 0 -48 11.5t-34 23t-36 11.5q-17 0 -30 -11t-21 -34h-73
z" />
    <glyph glyph-name="Ograve" unicode="&#xd2;" horiz-adv-x="794" 
d="M355 -12q-91 0 -159.5 41t-104.5 113t-31 164q3 86 36.5 159.5t89.5 129t130 86.5t158 31q92 0 160 -41t104 -112.5t31 -164.5q-4 -85 -37 -159t-89.5 -129.5t-130 -86.5t-157.5 -31zM373 114q51 0 95.5 20.5t79 57t55 86t22.5 108.5q3 61 -15.5 105.5t-57 69.5t-96.5 25
q-51 0 -95.5 -20.5t-79 -57t-55 -85.5t-22.5 -108q-3 -61 16 -106t58 -70t95 -25zM591 753l-203 111l33 106v0l200 -125z" />
    <glyph glyph-name="Oacute" unicode="&#xd3;" horiz-adv-x="794" 
d="M355 -12q-91 0 -159.5 41t-104.5 113t-31 164q3 86 36.5 159.5t89.5 129t130 86.5t158 31q92 0 160 -41t104 -112.5t31 -164.5q-4 -85 -37 -159t-89.5 -129.5t-130 -86.5t-157.5 -31zM373 114q51 0 95.5 20.5t79 57t55 86t22.5 108.5q3 61 -15.5 105.5t-57 69.5t-96.5 25
q-51 0 -95.5 -20.5t-79 -57t-55 -85.5t-22.5 -108q-3 -61 16 -106t58 -70t95 -25zM390 753l-3 92l231 125v0l5 -106z" />
    <glyph glyph-name="Ocircumflex" unicode="&#xd4;" horiz-adv-x="794" 
d="M355 -12q-91 0 -159.5 41t-104.5 113t-31 164q3 86 36.5 159.5t89.5 129t130 86.5t158 31q92 0 160 -41t104 -112.5t31 -164.5q-4 -85 -37 -159t-89.5 -129.5t-130 -86.5t-157.5 -31zM373 114q51 0 95.5 20.5t79 57t55 86t22.5 108.5q3 61 -15.5 105.5t-57 69.5t-96.5 25
q-51 0 -95.5 -20.5t-79 -57t-55 -85.5t-22.5 -108q-3 -61 16 -106t58 -70t95 -25zM338 760l18 99l163 82l134 -82l-18 -99l-133 85z" />
    <glyph glyph-name="Otilde" unicode="&#xd5;" horiz-adv-x="794" 
d="M355 -12q-91 0 -159.5 41t-104.5 113t-31 164q3 86 36.5 159.5t89.5 129t130 86.5t158 31q92 0 160 -41t104 -112.5t31 -164.5q-4 -85 -37 -159t-89.5 -129.5t-130 -86.5t-157.5 -31zM373 114q51 0 95.5 20.5t79 57t55 86t22.5 108.5q3 61 -15.5 105.5t-57 69.5t-96.5 25
q-51 0 -95.5 -20.5t-79 -57t-55 -85.5t-22.5 -108q-3 -61 16 -106t58 -70t95 -25zM308 769q22 69 60 100t85 31q29 0 47.5 -11.5t34 -22.5t36.5 -11q16 0 30 11t21 34h74q-22 -69 -60.5 -100.5t-85.5 -31.5q-29 0 -48 11.5t-34 23t-36 11.5q-17 0 -30 -11t-21 -34h-73z" />
    <glyph glyph-name="Odieresis" unicode="&#xd6;" horiz-adv-x="794" 
d="M355 -12q-91 0 -159.5 41t-104.5 113t-31 164q3 86 36.5 159.5t89.5 129t130 86.5t158 31q92 0 160 -41t104 -112.5t31 -164.5q-4 -85 -37 -159t-89.5 -129.5t-130 -86.5t-157.5 -31zM373 114q51 0 95.5 20.5t79 57t55 86t22.5 108.5q3 61 -15.5 105.5t-57 69.5t-96.5 25
q-51 0 -95.5 -20.5t-79 -57t-55 -85.5t-22.5 -108q-3 -61 16 -106t58 -70t95 -25zM410 770q-28 0 -46.5 18.5t-18.5 46.5t18.5 46.5t46.5 18.5t46.5 -18.5t18.5 -46.5t-18.5 -46.5t-46.5 -18.5zM596 770q-28 0 -46.5 18.5t-18.5 46.5t18.5 46.5t46.5 18.5q27 0 46 -18.5
t19 -46.5t-19 -46.5t-46 -18.5z" />
    <glyph glyph-name="multiply" unicode="&#xd7;" horiz-adv-x="582" 
d="M139 85l-68 82l144 123l-99 120l97 82l99 -121l145 124l67 -82l-145 -124l100 -120l-97 -82l-99 121z" />
    <glyph glyph-name="Oslash" unicode="&#xd8;" horiz-adv-x="778" 
d="M-19 0l720 700h129l-720 -700h-129zM352 -12q-91 0 -159.5 41t-104.5 113t-31 164q3 86 36.5 159.5t89.5 129t130 86.5t158 31q92 0 159.5 -41t104 -112.5t31.5 -164.5q-4 -85 -37 -159t-89.5 -129.5t-130 -86.5t-157.5 -31zM370 114q51 0 95.5 20.5t79 57t55 86
t22.5 108.5q3 61 -15.5 105.5t-57.5 69.5t-96 25q-51 0 -96 -20.5t-79 -57t-54.5 -85.5t-22.5 -108q-4 -61 15.5 -106t58.5 -70t95 -25z" />
    <glyph glyph-name="Ugrave" unicode="&#xd9;" horiz-adv-x="688" 
d="M296 -12q-85 0 -142 33.5t-80 96.5t-8 153l76 429h140l-76 -429q-8 -49 1 -83.5t37.5 -52.5t75.5 -18q46 0 80.5 17t57.5 51.5t31 85.5l76 429h140l-75 -429q-17 -96 -66.5 -159t-119 -93.5t-148.5 -30.5zM542 753l-203 111l33 106v0l200 -125z" />
    <glyph glyph-name="Uacute" unicode="&#xda;" horiz-adv-x="688" 
d="M296 -12q-85 0 -142 33.5t-80 96.5t-8 153l76 429h140l-76 -429q-8 -49 1 -83.5t37.5 -52.5t75.5 -18q46 0 80.5 17t57.5 51.5t31 85.5l76 429h140l-75 -429q-17 -96 -66.5 -159t-119 -93.5t-148.5 -30.5zM341 753l-3 92l231 125v0l5 -106z" />
    <glyph glyph-name="Ucircumflex" unicode="&#xdb;" horiz-adv-x="688" 
d="M296 -12q-85 0 -142 33.5t-80 96.5t-8 153l76 429h140l-76 -429q-8 -49 1 -83.5t37.5 -52.5t75.5 -18q46 0 80.5 17t57.5 51.5t31 85.5l76 429h140l-75 -429q-17 -96 -66.5 -159t-119 -93.5t-148.5 -30.5zM290 760l18 99l163 82l134 -82l-18 -99l-133 85z" />
    <glyph glyph-name="Udieresis" unicode="&#xdc;" horiz-adv-x="688" 
d="M296 -12q-85 0 -142 33.5t-80 96.5t-8 153l76 429h140l-76 -429q-8 -49 1 -83.5t37.5 -52.5t75.5 -18q46 0 80.5 17t57.5 51.5t31 85.5l76 429h140l-75 -429q-17 -96 -66.5 -159t-119 -93.5t-148.5 -30.5zM361 770q-28 0 -46.5 18.5t-18.5 46.5t18.5 46.5t46.5 18.5
t46.5 -18.5t18.5 -46.5t-18.5 -46.5t-46.5 -18.5zM547 770q-28 0 -46.5 18.5t-18.5 46.5t18.5 46.5t46.5 18.5q27 0 46 -18.5t19 -46.5t-19 -46.5t-46 -18.5z" />
    <glyph glyph-name="Yacute" unicode="&#xdd;" horiz-adv-x="641" 
d="M206 0l44 244l-158 456h160l99 -334l-18 3l216 331h158l-317 -456l-44 -244h-140zM318 753l-3 92l231 125v0l5 -106z" />
    <glyph glyph-name="Thorn" unicode="&#xde;" horiz-adv-x="621" 
d="M24 0l124 700h140l-24 -132h127q77 0 125.5 -26t71 -70t19.5 -98q-2 -72 -39 -126t-102 -84.5t-151 -30.5h-127l-24 -133h-140zM208 245h118q64 0 99.5 33t37.5 91q3 40 -21 62.5t-80 22.5h-117z" />
    <glyph glyph-name="germandbls" unicode="&#xdf;" horiz-adv-x="717" 
d="M436 -10q-95 0 -145.5 49.5t-45.5 137.5h131q-3 -39 16.5 -61.5t56.5 -22.5t59.5 18.5t24.5 51.5q1 16 -6 28t-23.5 22.5t-46.5 21.5q-70 26 -101.5 53.5t-29.5 69.5q2 30 17 50.5t38 37t45.5 31.5t38 32t15.5 40q2 32 -22.5 49t-69.5 17q-61 0 -95.5 -32.5t-44.5 -88.5
l-87 -494h-139l89 504q12 68 50.5 119t101 80t146.5 29q72 0 120.5 -22t73 -58.5t22.5 -79.5q-2 -34 -18 -58.5t-38 -42t-44.5 -31.5t-38 -26.5t-15.5 -27.5q-1 -10 5.5 -18.5t25 -18t56.5 -24.5q63 -24 89.5 -58t23.5 -90q-2 -55 -32.5 -97.5t-83 -66t-119.5 -23.5z" />
    <glyph glyph-name="agrave" unicode="&#xe0;" horiz-adv-x="596" 
d="M190 -12q-57 0 -93 18.5t-52.5 50t-14.5 69.5q2 52 32 89.5t84.5 58.5t127.5 21h124q6 37 0.5 60.5t-23.5 35t-52 11.5q-37 0 -65.5 -16t-40.5 -48h-136q15 54 52.5 93.5t91.5 62t118 22.5q72 0 120 -24t68.5 -69.5t9.5 -110.5l-55 -312h-123l1 74v0q-14 -18 -32 -34
t-40 -27.5t-47 -18t-55 -6.5zM243 96q24 0 46 8.5t39.5 24.5t29.5 36.5t18 43.5v2h-100q-29 0 -50 -8.5t-32.5 -23t-12.5 -34.5q-1 -25 16 -37t46 -12zM448 544l-203 111l33 106v0l200 -125z" />
    <glyph glyph-name="aacute" unicode="&#xe1;" horiz-adv-x="596" 
d="M190 -12q-57 0 -93 18.5t-52.5 50t-14.5 69.5q2 52 32 89.5t84.5 58.5t127.5 21h124q6 37 0.5 60.5t-23.5 35t-52 11.5q-37 0 -65.5 -16t-40.5 -48h-136q15 54 52.5 93.5t91.5 62t118 22.5q72 0 120 -24t68.5 -69.5t9.5 -110.5l-55 -312h-123l1 74v0q-14 -18 -32 -34
t-40 -27.5t-47 -18t-55 -6.5zM243 96q24 0 46 8.5t39.5 24.5t29.5 36.5t18 43.5v2h-100q-29 0 -50 -8.5t-32.5 -23t-12.5 -34.5q-1 -25 16 -37t46 -12zM246 544l-3 92l231 125v0l5 -106z" />
    <glyph glyph-name="acircumflex" unicode="&#xe2;" horiz-adv-x="596" 
d="M190 -12q-57 0 -93 18.5t-52.5 50t-14.5 69.5q2 52 32 89.5t84.5 58.5t127.5 21h124q6 37 0.5 60.5t-23.5 35t-52 11.5q-37 0 -65.5 -16t-40.5 -48h-136q15 54 52.5 93.5t91.5 62t118 22.5q72 0 120 -24t68.5 -69.5t9.5 -110.5l-55 -312h-123l1 74v0q-14 -18 -32 -34
t-40 -27.5t-47 -18t-55 -6.5zM243 96q24 0 46 8.5t39.5 24.5t29.5 36.5t18 43.5v2h-100q-29 0 -50 -8.5t-32.5 -23t-12.5 -34.5q-1 -25 16 -37t46 -12zM195 548l18 99l163 82l134 -82l-18 -99l-133 85z" />
    <glyph glyph-name="atilde" unicode="&#xe3;" horiz-adv-x="596" 
d="M190 -12q-57 0 -93 18.5t-52.5 50t-14.5 69.5q2 52 32 89.5t84.5 58.5t127.5 21h124q6 37 0.5 60.5t-23.5 35t-52 11.5q-37 0 -65.5 -16t-40.5 -48h-136q15 54 52.5 93.5t91.5 62t118 22.5q72 0 120 -24t68.5 -69.5t9.5 -110.5l-55 -312h-123l1 74v0q-14 -18 -32 -34
t-40 -27.5t-47 -18t-55 -6.5zM243 96q24 0 46 8.5t39.5 24.5t29.5 36.5t18 43.5v2h-100q-29 0 -50 -8.5t-32.5 -23t-12.5 -34.5q-1 -25 16 -37t46 -12zM164 561q22 69 60 100t85 31q29 0 47.5 -11.5t34 -22.5t36.5 -11q16 0 30 11t21 34h74q-22 -69 -60.5 -100.5
t-85.5 -31.5q-29 0 -48 11.5t-34 23t-36 11.5q-17 0 -30 -11t-21 -34h-73z" />
    <glyph glyph-name="adieresis" unicode="&#xe4;" horiz-adv-x="596" 
d="M190 -12q-57 0 -93 18.5t-52.5 50t-14.5 69.5q2 52 32 89.5t84.5 58.5t127.5 21h124q6 37 0.5 60.5t-23.5 35t-52 11.5q-37 0 -65.5 -16t-40.5 -48h-136q15 54 52.5 93.5t91.5 62t118 22.5q72 0 120 -24t68.5 -69.5t9.5 -110.5l-55 -312h-123l1 74v0q-14 -18 -32 -34
t-40 -27.5t-47 -18t-55 -6.5zM243 96q24 0 46 8.5t39.5 24.5t29.5 36.5t18 43.5v2h-100q-29 0 -50 -8.5t-32.5 -23t-12.5 -34.5q-1 -25 16 -37t46 -12zM266 570q-28 0 -46.5 18.5t-18.5 46.5t18.5 46.5t46.5 18.5t46.5 -18.5t18.5 -46.5t-18.5 -46.5t-46.5 -18.5zM452 570
q-28 0 -46.5 18.5t-18.5 46.5t18.5 46.5t46.5 18.5q27 0 46 -18.5t19 -46.5t-19 -46.5t-46 -18.5z" />
    <glyph glyph-name="aring" unicode="&#xe5;" horiz-adv-x="596" 
d="M190 -12q-57 0 -93 18.5t-52.5 50t-14.5 69.5q2 52 32 89.5t84.5 58.5t127.5 21h124q6 37 0.5 60.5t-23.5 35t-52 11.5q-37 0 -65.5 -16t-40.5 -48h-136q15 54 52.5 93.5t91.5 62t118 22.5q72 0 120 -24t68.5 -69.5t9.5 -110.5l-55 -312h-123l1 74v0q-14 -18 -32 -34
t-40 -27.5t-47 -18t-55 -6.5zM243 96q24 0 46 8.5t39.5 24.5t29.5 36.5t18 43.5v2h-100q-29 0 -50 -8.5t-32.5 -23t-12.5 -34.5q-1 -25 16 -37t46 -12zM365 556q-47 0 -81.5 30.5t-34.5 84.5q0 53 34.5 83.5t81.5 30.5q49 0 83 -30.5t34 -83.5q0 -54 -34 -84.5t-83 -30.5z
M365 618q22 0 37 14.5t15 38.5t-15 38t-36 14t-36 -13.5t-15 -38.5q0 -24 15 -38.5t35 -14.5z" />
    <glyph glyph-name="ae" unicode="&#xe6;" horiz-adv-x="954" 
d="M203 -12q-59 0 -98 17t-58 47.5t-18 71.5q3 51 33 89.5t83.5 60t126.5 21.5h133q7 35 2 59t-23 36t-54 12t-65 -16t-41 -48h-135q15 54 52.5 93.5t91.5 62t118 22.5q39 0 70.5 -7.5t56 -22.5t39.5 -36q39 31 87 48.5t101 17.5q68 0 116.5 -28t72.5 -76.5t21 -111.5
q0 -13 -3 -30.5t-6 -32t-5 -20.5h-369q-4 -32 6.5 -58t34 -41.5t58.5 -15.5q40 0 67.5 18.5t44.5 45.5h141q-22 -50 -63 -90.5t-94.5 -64t-114.5 -23.5q-64 0 -112 26t-74 71q-28 -31 -64 -52.5t-76 -33t-83 -11.5zM242 96q32 0 59 14t47.5 38.5t32.5 55.5l1 7h-109
q-28 0 -48.5 -8t-31.5 -22t-12 -34q-1 -16 6.5 -27.5t21.5 -17.5t33 -6zM550 302h226q4 31 -6.5 53.5t-32 35t-51.5 12.5q-29 0 -55.5 -11.5t-47.5 -33.5t-33 -56z" />
    <glyph glyph-name="ccedilla" unicode="&#xe7;" horiz-adv-x="612" 
d="M266 -12q-69 0 -119.5 29t-76.5 80t-22 118q2 64 26.5 118.5t66.5 95.5t97.5 64t119.5 23q98 0 156.5 -52.5t58.5 -145.5h-148q-1 37 -25 57.5t-63 20.5t-71.5 -22t-52 -60t-21.5 -87q-2 -27 4 -49.5t18 -38t30.5 -24t41.5 -8.5q26 0 49 9.5t40.5 27t27.5 41.5h147
q-21 -59 -63.5 -103.5t-99 -69t-121.5 -24.5zM116 -264l14 79h117q26 0 40.5 8.5t15.5 27.5q1 17 -9.5 23.5t-33.5 6.5h-64l22 126h86l-9 -53q30 0 56 -9.5t41.5 -30t13.5 -55.5q-1 -39 -22.5 -66.5t-55.5 -42t-74 -14.5h-138z" />
    <glyph glyph-name="egrave" unicode="&#xe8;" horiz-adv-x="607" 
d="M265 -12q-70 0 -120 28t-75.5 79t-21.5 119q2 63 25.5 117.5t65 96t96.5 65t122 23.5q69 0 117.5 -28t72.5 -76.5t21 -111.5q0 -21 -4.5 -43t-9.5 -40h-408l15 85h268q4 32 -7 54.5t-32.5 34.5t-50.5 12q-34 0 -64.5 -16t-52.5 -47t-30 -79l-5 -29q-7 -38 2.5 -67
t33.5 -46t61 -17q36 0 62 15t42 39h143q-23 -48 -63 -86t-92 -60t-111 -22zM465 544l-203 111l33 106v0l200 -125z" />
    <glyph glyph-name="eacute" unicode="&#xe9;" horiz-adv-x="607" 
d="M265 -12q-70 0 -120 28t-75.5 79t-21.5 119q2 63 25.5 117.5t65 96t96.5 65t122 23.5q69 0 117.5 -28t72.5 -76.5t21 -111.5q0 -21 -4.5 -43t-9.5 -40h-408l15 85h268q4 32 -7 54.5t-32.5 34.5t-50.5 12q-34 0 -64.5 -16t-52.5 -47t-30 -79l-5 -29q-7 -38 2.5 -67
t33.5 -46t61 -17q36 0 62 15t42 39h143q-23 -48 -63 -86t-92 -60t-111 -22zM264 544l-3 92l231 125v0l5 -106z" />
    <glyph glyph-name="ecircumflex" unicode="&#xea;" horiz-adv-x="607" 
d="M265 -12q-70 0 -120 28t-75.5 79t-21.5 119q2 63 25.5 117.5t65 96t96.5 65t122 23.5q69 0 117.5 -28t72.5 -76.5t21 -111.5q0 -21 -4.5 -43t-9.5 -40h-408l15 85h268q4 32 -7 54.5t-32.5 34.5t-50.5 12q-34 0 -64.5 -16t-52.5 -47t-30 -79l-5 -29q-7 -38 2.5 -67
t33.5 -46t61 -17q36 0 62 15t42 39h143q-23 -48 -63 -86t-92 -60t-111 -22zM212 548l18 99l163 82l134 -82l-18 -99l-133 85z" />
    <glyph glyph-name="edieresis" unicode="&#xeb;" horiz-adv-x="607" 
d="M265 -12q-70 0 -120 28t-75.5 79t-21.5 119q2 63 25.5 117.5t65 96t96.5 65t122 23.5q69 0 117.5 -28t72.5 -76.5t21 -111.5q0 -21 -4.5 -43t-9.5 -40h-408l15 85h268q4 32 -7 54.5t-32.5 34.5t-50.5 12q-34 0 -64.5 -16t-52.5 -47t-30 -79l-5 -29q-7 -38 2.5 -67
t33.5 -46t61 -17q36 0 62 15t42 39h143q-23 -48 -63 -86t-92 -60t-111 -22zM284 570q-28 0 -46.5 18.5t-18.5 46.5t18.5 46.5t46.5 18.5t46.5 -18.5t18.5 -46.5t-18.5 -46.5t-46.5 -18.5zM470 570q-28 0 -46.5 18.5t-18.5 46.5t18.5 46.5t46.5 18.5q27 0 46 -18.5t19 -46.5
t-19 -46.5t-46 -18.5z" />
    <glyph glyph-name="igrave" unicode="&#xec;" horiz-adv-x="272" 
d="M21 0l89 504h140l-89 -504h-140zM292 544l-203 111l33 106v0l200 -125z" />
    <glyph glyph-name="iacute" unicode="&#xed;" horiz-adv-x="272" 
d="M21 0l89 504h140l-89 -504h-140zM90 544l-3 92l231 125v0l5 -106z" />
    <glyph glyph-name="icircumflex" unicode="&#xee;" horiz-adv-x="272" 
d="M21 0l89 504h140l-89 -504h-140zM39 548l18 99l163 82l134 -82l-18 -99l-133 85z" />
    <glyph glyph-name="idieresis" unicode="&#xef;" horiz-adv-x="272" 
d="M21 0l89 504h140l-89 -504h-140zM110 570q-28 0 -46.5 18.5t-18.5 46.5t18.5 46.5t46.5 18.5t46.5 -18.5t18.5 -46.5t-18.5 -46.5t-46.5 -18.5zM296 570q-28 0 -46.5 18.5t-18.5 46.5t18.5 46.5t46.5 18.5q27 0 46 -18.5t19 -46.5t-19 -46.5t-46 -18.5z" />
    <glyph glyph-name="eth" unicode="&#xf0;" horiz-adv-x="640" 
d="M282 -12q-75 0 -128.5 32.5t-80.5 86.5t-24 119q2 60 26 110.5t64.5 88t93 58t113.5 20.5q38 0 69 -8.5t53 -29.5q-7 32 -18 64t-27 62t-36 57.5t-43 51.5h131q37 -37 62 -81t39.5 -90.5t20 -93t3.5 -90.5q-3 -82 -29 -148t-69 -113t-99 -71.5t-121 -24.5zM299 107
q30 0 56 12t46 33.5t32 50.5t13 61q2 39 -11 66t-37.5 41t-56.5 14q-40 0 -72.5 -20.5t-53 -55t-22.5 -77.5q-2 -38 11 -66t37.5 -43.5t57.5 -15.5zM302 533l15 83l311 93l-15 -82z" />
    <glyph glyph-name="ntilde" unicode="&#xf1;" horiz-adv-x="622" 
d="M22 0l88 504h123l-1 -79v0q30 41 76 66t104 25q65 0 103 -28t51.5 -78t1.5 -120l-51 -290h-140l49 277q9 57 -9 89t-72 32q-32 0 -60 -15t-48 -43.5t-27 -68.5l-48 -271h-140zM183 561q22 69 60 100t85 31q29 0 47.5 -11.5t34 -22.5t36.5 -11q16 0 30 11t21 34h74
q-22 -69 -60.5 -100.5t-85.5 -31.5q-29 0 -48 11.5t-34 23t-36 11.5q-17 0 -30 -11t-21 -34h-73z" />
    <glyph glyph-name="ograve" unicode="&#xf2;" horiz-adv-x="616" 
d="M266 -12q-68 0 -118 30.5t-76.5 84t-22.5 120.5q3 63 26.5 116.5t64 92.5t94 61.5t114.5 22.5q69 0 119.5 -30t77 -82.5t22.5 -122.5q-2 -62 -26 -115.5t-65 -93.5t-94.5 -62t-115.5 -22zM285 109q38 0 68.5 21t49 59t21.5 87q2 39 -9.5 65t-33 40t-50.5 14
q-37 0 -68 -21.5t-49.5 -59t-21.5 -87.5q-2 -37 9.5 -63.5t33.5 -40.5t50 -14zM463 544l-203 111l33 106v0l200 -125z" />
    <glyph glyph-name="oacute" unicode="&#xf3;" horiz-adv-x="616" 
d="M266 -12q-68 0 -118 30.5t-76.5 84t-22.5 120.5q3 63 26.5 116.5t64 92.5t94 61.5t114.5 22.5q69 0 119.5 -30t77 -82.5t22.5 -122.5q-2 -62 -26 -115.5t-65 -93.5t-94.5 -62t-115.5 -22zM285 109q38 0 68.5 21t49 59t21.5 87q2 39 -9.5 65t-33 40t-50.5 14
q-37 0 -68 -21.5t-49.5 -59t-21.5 -87.5q-2 -37 9.5 -63.5t33.5 -40.5t50 -14zM262 544l-3 92l231 125v0l5 -106z" />
    <glyph glyph-name="ocircumflex" unicode="&#xf4;" horiz-adv-x="616" 
d="M266 -12q-68 0 -118 30.5t-76.5 84t-22.5 120.5q3 63 26.5 116.5t64 92.5t94 61.5t114.5 22.5q69 0 119.5 -30t77 -82.5t22.5 -122.5q-2 -62 -26 -115.5t-65 -93.5t-94.5 -62t-115.5 -22zM285 109q38 0 68.5 21t49 59t21.5 87q2 39 -9.5 65t-33 40t-50.5 14
q-37 0 -68 -21.5t-49.5 -59t-21.5 -87.5q-2 -37 9.5 -63.5t33.5 -40.5t50 -14zM211 548l18 99l163 82l134 -82l-18 -99l-133 85z" />
    <glyph glyph-name="otilde" unicode="&#xf5;" horiz-adv-x="616" 
d="M266 -12q-68 0 -118 30.5t-76.5 84t-22.5 120.5q3 63 26.5 116.5t64 92.5t94 61.5t114.5 22.5q69 0 119.5 -30t77 -82.5t22.5 -122.5q-2 -62 -26 -115.5t-65 -93.5t-94.5 -62t-115.5 -22zM285 109q38 0 68.5 21t49 59t21.5 87q2 39 -9.5 65t-33 40t-50.5 14
q-37 0 -68 -21.5t-49.5 -59t-21.5 -87.5q-2 -37 9.5 -63.5t33.5 -40.5t50 -14zM180 561q22 69 60 100t85 31q29 0 47.5 -11.5t34 -22.5t36.5 -11q16 0 30 11t21 34h74q-22 -69 -60.5 -100.5t-85.5 -31.5q-29 0 -48 11.5t-34 23t-36 11.5q-17 0 -30 -11t-21 -34h-73z" />
    <glyph glyph-name="odieresis" unicode="&#xf6;" horiz-adv-x="616" 
d="M266 -12q-68 0 -118 30.5t-76.5 84t-22.5 120.5q3 63 26.5 116.5t64 92.5t94 61.5t114.5 22.5q69 0 119.5 -30t77 -82.5t22.5 -122.5q-2 -62 -26 -115.5t-65 -93.5t-94.5 -62t-115.5 -22zM285 109q38 0 68.5 21t49 59t21.5 87q2 39 -9.5 65t-33 40t-50.5 14
q-37 0 -68 -21.5t-49.5 -59t-21.5 -87.5q-2 -37 9.5 -63.5t33.5 -40.5t50 -14zM282 570q-28 0 -46.5 18.5t-18.5 46.5t18.5 46.5t46.5 18.5t46.5 -18.5t18.5 -46.5t-18.5 -46.5t-46.5 -18.5zM468 570q-28 0 -46.5 18.5t-18.5 46.5t18.5 46.5t46.5 18.5q27 0 46 -18.5
t19 -46.5t-19 -46.5t-46 -18.5z" />
    <glyph glyph-name="divide" unicode="&#xf7;" horiz-adv-x="582" 
d="M68 231l21 117h438l-21 -117h-438zM265 24q-37 0 -61 23t-24 57t24 57t61 23t61 -23t24 -57t-24 -57t-61 -23zM330 396q-37 0 -61 23t-24 57t24 57t61 23q38 0 61.5 -23t23.5 -57t-24 -57t-61 -23z" />
    <glyph glyph-name="oslash" unicode="&#xf8;" horiz-adv-x="594" 
d="M-17 0l522 504h106l-521 -504h-107zM257 -12q-68 0 -118 30.5t-76 84t-23 120.5q3 63 26.5 116.5t64.5 92.5t94 61.5t115 22.5q68 0 118.5 -30t77 -82.5t23.5 -122.5q-3 -62 -27 -115.5t-65 -93.5t-94 -62t-116 -22zM276 109q39 0 69 21t49 59t21 87q2 39 -9 65t-33 40
t-50 14q-38 0 -68.5 -21.5t-49.5 -59t-21 -87.5q-2 -37 9 -63.5t33 -40.5t50 -14z" />
    <glyph glyph-name="ugrave" unicode="&#xf9;" horiz-adv-x="622" 
d="M210 -12q-65 0 -103.5 27.5t-51.5 78t-1 119.5l51 291h139l-48 -278q-10 -58 7.5 -89t71.5 -31q33 0 61.5 14.5t48.5 43t27 68.5l48 272h140l-88 -504h-123l1 79v0q-30 -41 -75.5 -66t-104.5 -25zM467 544l-203 111l33 106v0l200 -125z" />
    <glyph glyph-name="uacute" unicode="&#xfa;" horiz-adv-x="622" 
d="M210 -12q-65 0 -103.5 27.5t-51.5 78t-1 119.5l51 291h139l-48 -278q-10 -58 7.5 -89t71.5 -31q33 0 61.5 14.5t48.5 43t27 68.5l48 272h140l-88 -504h-123l1 79v0q-30 -41 -75.5 -66t-104.5 -25zM266 544l-3 92l231 125v0l5 -106z" />
    <glyph glyph-name="ucircumflex" unicode="&#xfb;" horiz-adv-x="622" 
d="M210 -12q-65 0 -103.5 27.5t-51.5 78t-1 119.5l51 291h139l-48 -278q-10 -58 7.5 -89t71.5 -31q33 0 61.5 14.5t48.5 43t27 68.5l48 272h140l-88 -504h-123l1 79v0q-30 -41 -75.5 -66t-104.5 -25zM214 548l18 99l163 82l134 -82l-18 -99l-133 85z" />
    <glyph glyph-name="udieresis" unicode="&#xfc;" horiz-adv-x="622" 
d="M210 -12q-65 0 -103.5 27.5t-51.5 78t-1 119.5l51 291h139l-48 -278q-10 -58 7.5 -89t71.5 -31q33 0 61.5 14.5t48.5 43t27 68.5l48 272h140l-88 -504h-123l1 79v0q-30 -41 -75.5 -66t-104.5 -25zM285 570q-28 0 -46.5 18.5t-18.5 46.5t18.5 46.5t46.5 18.5t46.5 -18.5
t18.5 -46.5t-18.5 -46.5t-46.5 -18.5zM471 570q-28 0 -46.5 18.5t-18.5 46.5t18.5 46.5t46.5 18.5q27 0 46 -18.5t19 -46.5t-19 -46.5t-46 -18.5z" />
    <glyph glyph-name="yacute" unicode="&#xfd;" horiz-adv-x="609" 
d="M48 -220l158 256h-30l-112 468h151l76 -339v0l193 339h150l-438 -724h-148zM260 544l-3 92l231 125v0l5 -106z" />
    <glyph glyph-name="thorn" unicode="&#xfe;" horiz-adv-x="655" 
d="M-17 -220l165 940h138l-49 -283q20 23 45 40.5t56.5 28t69.5 10.5q64 0 109.5 -30.5t69 -82.5t20.5 -118q-3 -61 -26 -115t-62 -95t-89.5 -64t-108.5 -23q-36 0 -65 9.5t-50 27t-33 39.5l-50 -284h-140zM310 110q42 0 75.5 20.5t54 56t22.5 81.5q2 36 -11 64.5t-38 45
t-61 16.5q-42 0 -75.5 -21t-54 -57t-22.5 -83q-2 -36 11 -64t38.5 -43.5t60.5 -15.5z" />
    <glyph glyph-name="ydieresis" unicode="&#xff;" horiz-adv-x="609" 
d="M48 -220l158 256h-30l-112 468h151l76 -339v0l193 339h150l-438 -724h-148zM280 570q-28 0 -46.5 18.5t-18.5 46.5t18.5 46.5t46.5 18.5t46.5 -18.5t18.5 -46.5t-18.5 -46.5t-46.5 -18.5zM466 570q-28 0 -46.5 18.5t-18.5 46.5t18.5 46.5t46.5 18.5q27 0 46 -18.5
t19 -46.5t-19 -46.5t-46 -18.5z" />
    <glyph glyph-name="Amacron" unicode="&#x100;" horiz-adv-x="713" 
d="M-23 0l379 700h160l131 -700h-148l-91 544v0l-284 -544h-147zM110 157l55 108h372l16 -108h-443zM265 815l18 99h381l-17 -99h-382z" />
    <glyph glyph-name="amacron" unicode="&#x101;" horiz-adv-x="596" 
d="M190 -12q-57 0 -93 18.5t-52.5 50t-14.5 69.5q2 52 32 89.5t84.5 58.5t127.5 21h124q6 37 0.5 60.5t-23.5 35t-52 11.5q-37 0 -65.5 -16t-40.5 -48h-136q15 54 52.5 93.5t91.5 62t118 22.5q72 0 120 -24t68.5 -69.5t9.5 -110.5l-55 -312h-123l1 74v0q-14 -18 -32 -34
t-40 -27.5t-47 -18t-55 -6.5zM243 96q24 0 46 8.5t39.5 24.5t29.5 36.5t18 43.5v2h-100q-29 0 -50 -8.5t-32.5 -23t-12.5 -34.5q-1 -25 16 -37t46 -12zM159 585l18 99h381l-17 -99h-382z" />
    <glyph glyph-name="Abreve" unicode="&#x102;" horiz-adv-x="713" 
d="M-23 0l379 700h160l131 -700h-148l-91 544v0l-284 -544h-147zM110 157l55 108h372l16 -108h-443zM447 769q-48 0 -80.5 19.5t-46 55t-4.5 83.5l3 17h72q-6 -33 10 -52t65 -19q48 0 70.5 19t28.5 52h73l-3 -17q-8 -49 -34 -84.5t-65.5 -54.5t-88.5 -19z" />
    <glyph glyph-name="abreve" unicode="&#x103;" horiz-adv-x="596" 
d="M190 -12q-57 0 -93 18.5t-52.5 50t-14.5 69.5q2 52 32 89.5t84.5 58.5t127.5 21h124q6 37 0.5 60.5t-23.5 35t-52 11.5q-37 0 -65.5 -16t-40.5 -48h-136q15 54 52.5 93.5t91.5 62t118 22.5q72 0 120 -24t68.5 -69.5t9.5 -110.5l-55 -312h-123l1 74v0q-14 -18 -32 -34
t-40 -27.5t-47 -18t-55 -6.5zM243 96q24 0 46 8.5t39.5 24.5t29.5 36.5t18 43.5v2h-100q-29 0 -50 -8.5t-32.5 -23t-12.5 -34.5q-1 -25 16 -37t46 -12zM345 557q-48 0 -80.5 19.5t-46 55t-4.5 83.5l3 17h72q-6 -33 10 -52t65 -19q48 0 70.5 19t28.5 52h73l-3 -17
q-8 -49 -34 -84.5t-65.5 -54.5t-88.5 -19z" />
    <glyph glyph-name="Aogonek" unicode="&#x104;" horiz-adv-x="713" 
d="M-23 0l379 700h160l131 -700h-148l-91 544v0l-284 -544h-147zM110 157l55 108h372l16 -108h-443zM525 -212q-37 0 -66 11.5t-43.5 35.5t-8.5 60q6 28 23 53.5t53.5 49.5t96.5 48l48 19l19 -65l-54 -25q-40 -18 -57.5 -34t-20.5 -33q-3 -18 8 -28.5t35 -10.5q15 0 34 4
t41 11l-15 -82q-20 -6 -44 -10t-49 -4z" />
    <glyph glyph-name="aogonek" unicode="&#x105;" horiz-adv-x="596" 
d="M190 -12q-57 0 -93 18.5t-52.5 50t-14.5 69.5q2 52 32 89.5t84.5 58.5t127.5 21h124q6 37 0.5 60.5t-23.5 35t-52 11.5q-37 0 -65.5 -16t-40.5 -48h-136q15 54 52.5 93.5t91.5 62t118 22.5q72 0 120 -24t68.5 -69.5t9.5 -110.5l-55 -312h-123l1 74v0q-14 -18 -32 -34
t-40 -27.5t-47 -18t-55 -6.5zM243 96q24 0 46 8.5t39.5 24.5t29.5 36.5t18 43.5v2h-100q-29 0 -50 -8.5t-32.5 -23t-12.5 -34.5q-1 -25 16 -37t46 -12zM364 -212q-37 0 -66 11.5t-43.5 35.5t-8.5 60q6 28 23 53.5t53.5 49.5t96.5 48l48 19l19 -65l-54 -25q-40 -18 -57.5 -34
t-20.5 -33q-3 -18 8 -28.5t35 -10.5q15 0 34 4t41 11l-15 -82q-20 -6 -44 -10t-49 -4z" />
    <glyph glyph-name="Cacute" unicode="&#x106;" horiz-adv-x="741" 
d="M339 -12q-94 0 -158.5 38t-96 105.5t-26.5 157.5q4 91 36 168t86.5 134.5t127 89t157.5 31.5q127 0 198 -64t71 -180h-154q-2 56 -37 86.5t-101 30.5q-50 0 -93 -21t-75 -59t-50.5 -90t-21.5 -114q-3 -59 15 -100.5t54.5 -64t90.5 -22.5q65 0 109 28t66 80h153
q-26 -73 -76.5 -126t-120.5 -80.5t-154 -27.5zM375 753l-3 92l231 125v0l5 -106z" />
    <glyph glyph-name="cacute" unicode="&#x107;" horiz-adv-x="612" 
d="M266 -12q-69 0 -119.5 29t-76.5 80t-22 118q2 64 26.5 118.5t66.5 95.5t97.5 64t119.5 23q98 0 156.5 -52.5t58.5 -145.5h-148q-1 37 -25 57.5t-63 20.5t-71.5 -22t-52 -60t-21.5 -87q-2 -27 4 -49.5t18 -38t30.5 -24t41.5 -8.5q26 0 49 9.5t40.5 27t27.5 41.5h147
q-21 -59 -63.5 -103.5t-99 -69t-121.5 -24.5zM261 544l-3 92l231 125v0l5 -106z" />
    <glyph glyph-name="Cdotaccent" unicode="&#x10a;" horiz-adv-x="741" 
d="M339 -12q-94 0 -158.5 38t-96 105.5t-26.5 157.5q4 91 36 168t86.5 134.5t127 89t157.5 31.5q127 0 198 -64t71 -180h-154q-2 56 -37 86.5t-101 30.5q-50 0 -93 -21t-75 -59t-50.5 -90t-21.5 -114q-3 -59 15 -100.5t54.5 -64t90.5 -22.5q65 0 109 28t66 80h153
q-26 -73 -76.5 -126t-120.5 -80.5t-154 -27.5zM486 769q-27 0 -46 19t-19 46t19 46t46 19q28 0 46.5 -19t18.5 -46t-18.5 -46t-46.5 -19z" />
    <glyph glyph-name="cdotaccent" unicode="&#x10b;" horiz-adv-x="612" 
d="M266 -12q-69 0 -119.5 29t-76.5 80t-22 118q2 64 26.5 118.5t66.5 95.5t97.5 64t119.5 23q98 0 156.5 -52.5t58.5 -145.5h-148q-1 37 -25 57.5t-63 20.5t-71.5 -22t-52 -60t-21.5 -87q-2 -27 4 -49.5t18 -38t30.5 -24t41.5 -8.5q26 0 49 9.5t40.5 27t27.5 41.5h147
q-21 -59 -63.5 -103.5t-99 -69t-121.5 -24.5zM373 568q-27 0 -46 19t-19 46t19 46t46 19q28 0 46.5 -19t18.5 -46t-18.5 -46t-46.5 -19z" />
    <glyph glyph-name="Ccaron" unicode="&#x10c;" horiz-adv-x="741" 
d="M339 -12q-94 0 -158.5 38t-96 105.5t-26.5 157.5q4 91 36 168t86.5 134.5t127 89t157.5 31.5q127 0 198 -64t71 -180h-154q-2 56 -37 86.5t-101 30.5q-50 0 -93 -21t-75 -59t-50.5 -90t-21.5 -114q-3 -59 15 -100.5t54.5 -64t90.5 -22.5q65 0 109 28t66 80h153
q-26 -73 -76.5 -126t-120.5 -80.5t-154 -27.5zM654 942l-18 -100l-163 -82l-134 82l18 100l133 -86z" />
    <glyph glyph-name="ccaron" unicode="&#x10d;" horiz-adv-x="612" 
d="M266 -12q-69 0 -119.5 29t-76.5 80t-22 118q2 64 26.5 118.5t66.5 95.5t97.5 64t119.5 23q98 0 156.5 -52.5t58.5 -145.5h-148q-1 37 -25 57.5t-63 20.5t-71.5 -22t-52 -60t-21.5 -87q-2 -27 4 -49.5t18 -38t30.5 -24t41.5 -8.5q26 0 49 9.5t40.5 27t27.5 41.5h147
q-21 -59 -63.5 -103.5t-99 -69t-121.5 -24.5zM540 731l-18 -99l-163 -82l-134 82l18 99l133 -85z" />
    <glyph glyph-name="Dcaron" unicode="&#x10e;" horiz-adv-x="713" 
d="M24 0l124 700h237q109 0 177.5 -37.5t99.5 -105t26 -159.5q-4 -88 -35 -161t-86.5 -126.5t-132.5 -82t-172 -28.5h-238zM186 120h89q86 0 144.5 33t90 93.5t34.5 142.5q3 64 -15 106.5t-60.5 64t-111.5 21.5h-90zM586 942l-18 -100l-163 -82l-134 82l18 100l133 -86z" />
    <glyph glyph-name="dcaron" unicode="&#x10f;" horiz-adv-x="761" 
d="M241 -12q-62 0 -106.5 30.5t-67 83t-19.5 118.5q3 64 25.5 117.5t61 93.5t88.5 62.5t108 22.5t95 -21t55 -54l49 279h140l-127 -720h-125l-3 68v0q-18 -21 -43 -39.5t-57 -29.5t-74 -11zM299 110q43 0 77 22t54.5 59t22.5 82q2 36 -10.5 63.5t-37.5 42.5t-60 15
q-42 0 -75.5 -21t-54 -57t-22.5 -81q-2 -36 10 -64.5t37 -44.5t59 -16zM678 518l10 56q24 0 36.5 8.5t16.5 27.5l3 18h-47l20 109h106q2 -29 1 -52t-5 -47q-10 -58 -46 -89t-95 -31z" />
    <glyph glyph-name="Dcroat" unicode="&#x110;" horiz-adv-x="727" 
d="M13 291l21 119h381l-21 -119h-381zM39 0l123 700h238q109 0 177.5 -37.5t99 -105t25.5 -159.5q-3 -88 -34 -161t-86.5 -126.5t-132.5 -82t-173 -28.5h-237zM200 120h90q86 0 144.5 33t89.5 93.5t34 142.5q4 64 -14.5 106.5t-61 64t-111.5 21.5h-89z" />
    <glyph glyph-name="dcroat" unicode="&#x111;" horiz-adv-x="681" 
d="M365 564l15 83h348l-14 -83h-349zM241 -12q-62 0 -106.5 30.5t-67 83t-19.5 118.5q3 64 25.5 117.5t61 93.5t88.5 62.5t108 22.5t95 -21t55 -54l49 279h140l-127 -720h-125l-3 68v0q-18 -21 -43 -39.5t-57 -29.5t-74 -11zM299 110q43 0 77 22t54.5 59t22.5 82
q2 36 -10.5 63.5t-37.5 42.5t-60 15q-42 0 -75.5 -21t-54 -57t-22.5 -81q-2 -36 10 -64.5t37 -44.5t59 -16z" />
    <glyph glyph-name="Emacron" unicode="&#x112;" horiz-adv-x="568" 
d="M24 0l124 700h446l-20 -111h-306l-31 -180h275l-18 -107h-277l-33 -191h305l-19 -111h-446zM198 815l18 99h381l-17 -99h-382z" />
    <glyph glyph-name="emacron" unicode="&#x113;" horiz-adv-x="607" 
d="M265 -12q-70 0 -120 28t-75.5 79t-21.5 119q2 63 25.5 117.5t65 96t96.5 65t122 23.5q69 0 117.5 -28t72.5 -76.5t21 -111.5q0 -21 -4.5 -43t-9.5 -40h-408l15 85h268q4 32 -7 54.5t-32.5 34.5t-50.5 12q-34 0 -64.5 -16t-52.5 -47t-30 -79l-5 -29q-7 -38 2.5 -67
t33.5 -46t61 -17q36 0 62 15t42 39h143q-23 -48 -63 -86t-92 -60t-111 -22zM177 585l18 99h381l-17 -99h-382z" />
    <glyph glyph-name="Ebreve" unicode="&#x114;" horiz-adv-x="568" 
d="M24 0l124 700h446l-20 -111h-306l-31 -180h275l-18 -107h-277l-33 -191h305l-19 -111h-446zM380 769q-48 0 -80.5 19.5t-46 55t-4.5 83.5l3 17h72q-6 -33 10 -52t65 -19q48 0 70.5 19t28.5 52h73l-3 -17q-8 -49 -34 -84.5t-65.5 -54.5t-88.5 -19z" />
    <glyph glyph-name="ebreve" unicode="&#x115;" horiz-adv-x="607" 
d="M265 -12q-70 0 -120 28t-75.5 79t-21.5 119q2 63 25.5 117.5t65 96t96.5 65t122 23.5q69 0 117.5 -28t72.5 -76.5t21 -111.5q0 -21 -4.5 -43t-9.5 -40h-408l15 85h268q4 32 -7 54.5t-32.5 34.5t-50.5 12q-34 0 -64.5 -16t-52.5 -47t-30 -79l-5 -29q-7 -38 2.5 -67
t33.5 -46t61 -17q36 0 62 15t42 39h143q-23 -48 -63 -86t-92 -60t-111 -22zM362 557q-48 0 -80.5 19.5t-46 55t-4.5 83.5l3 17h72q-6 -33 10 -52t65 -19q48 0 70.5 19t28.5 52h73l-3 -17q-8 -49 -34 -84.5t-65.5 -54.5t-88.5 -19z" />
    <glyph glyph-name="Edotaccent" unicode="&#x116;" horiz-adv-x="568" 
d="M24 0l124 700h446l-20 -111h-306l-31 -180h275l-18 -107h-277l-33 -191h305l-19 -111h-446zM391 769q-27 0 -46 19t-19 46t19 46t46 19q28 0 46.5 -19t18.5 -46t-18.5 -46t-46.5 -19z" />
    <glyph glyph-name="edotaccent" unicode="&#x117;" horiz-adv-x="607" 
d="M265 -12q-70 0 -120 28t-75.5 79t-21.5 119q2 63 25.5 117.5t65 96t96.5 65t122 23.5q69 0 117.5 -28t72.5 -76.5t21 -111.5q0 -21 -4.5 -43t-9.5 -40h-408l15 85h268q4 32 -7 54.5t-32.5 34.5t-50.5 12q-34 0 -64.5 -16t-52.5 -47t-30 -79l-5 -29q-7 -38 2.5 -67
t33.5 -46t61 -17q36 0 62 15t42 39h143q-23 -48 -63 -86t-92 -60t-111 -22zM376 568q-27 0 -46 19t-19 46t19 46t46 19q28 0 46.5 -19t18.5 -46t-18.5 -46t-46.5 -19z" />
    <glyph glyph-name="Eogonek" unicode="&#x118;" horiz-adv-x="568" 
d="M24 0l124 700h446l-20 -111h-306l-31 -180h275l-18 -107h-277l-33 -191h305l-19 -111h-446zM348 -207q-37 0 -66 11.5t-43.5 35.5t-8.5 60q6 28 23 53.5t53.5 49.5t96.5 48l48 19l19 -65l-54 -25q-40 -18 -57.5 -34t-20.5 -33q-3 -18 8 -28.5t35 -10.5q15 0 34 4t41 11
l-15 -82q-20 -6 -44 -10t-49 -4z" />
    <glyph glyph-name="eogonek" unicode="&#x119;" horiz-adv-x="607" 
d="M265 -12q-70 0 -120 28t-75.5 79t-21.5 119q2 63 25.5 117.5t65 96t96.5 65t122 23.5q69 0 117.5 -28t72.5 -76.5t21 -111.5q0 -21 -4.5 -43t-9.5 -40h-408l15 85h268q4 32 -7 54.5t-32.5 34.5t-50.5 12q-34 0 -64.5 -16t-52.5 -47t-30 -79l-5 -29q-7 -38 2.5 -67
t33.5 -46t61 -17q36 0 62 15t42 39h143q-23 -48 -63 -86t-92 -60t-111 -22zM253 -201q-37 0 -66 11.5t-43.5 35.5t-8.5 60q6 28 23 53.5t53.5 49.5t96.5 48l48 19l19 -65l-54 -25q-40 -18 -57.5 -34t-20.5 -33q-3 -18 8 -28.5t35 -10.5q15 0 34 4t41 11l-15 -82
q-20 -6 -44 -10t-49 -4z" />
    <glyph glyph-name="Ecaron" unicode="&#x11a;" horiz-adv-x="568" 
d="M24 0l124 700h446l-20 -111h-306l-31 -180h275l-18 -107h-277l-33 -191h305l-19 -111h-446zM559 942l-18 -100l-163 -82l-134 82l17 100l134 -86z" />
    <glyph glyph-name="ecaron" unicode="&#x11b;" horiz-adv-x="607" 
d="M265 -12q-70 0 -120 28t-75.5 79t-21.5 119q2 63 25.5 117.5t65 96t96.5 65t122 23.5q69 0 117.5 -28t72.5 -76.5t21 -111.5q0 -21 -4.5 -43t-9.5 -40h-408l15 85h268q4 32 -7 54.5t-32.5 34.5t-50.5 12q-34 0 -64.5 -16t-52.5 -47t-30 -79l-5 -29q-7 -38 2.5 -67
t33.5 -46t61 -17q36 0 62 15t42 39h143q-23 -48 -63 -86t-92 -60t-111 -22zM542 731l-17 -99l-164 -82l-134 82l18 99l133 -85z" />
    <glyph glyph-name="Gbreve" unicode="&#x11e;" horiz-adv-x="783" 
d="M332 -12q-89 0 -152 40t-94 110t-27 159q4 92 36.5 168t89 131.5t131.5 85.5t164 30q125 0 197.5 -59.5t77.5 -164.5h-156q-8 45 -42.5 70t-97.5 25q-74 0 -130.5 -35t-89 -97t-35.5 -145q-4 -61 14.5 -104.5t57 -66.5t93.5 -23q60 0 104 22t73.5 61t44.5 89h-169l18 104
h310l-68 -388h-128l3 86v0q-27 -31 -60 -53t-73.5 -33.5t-91.5 -11.5zM486 769q-48 0 -80.5 19.5t-46 55t-4.5 83.5l3 17h72q-6 -33 10 -52t65 -19q48 0 70.5 19t28.5 52h73l-3 -17q-8 -49 -34 -84.5t-65.5 -54.5t-88.5 -19z" />
    <glyph glyph-name="gbreve" unicode="&#x11f;" horiz-adv-x="568" 
d="M185 -232q-68 0 -117 16t-74.5 48t-23.5 79q2 42 25.5 77t65.5 62t99 47l39 -70q-52 -16 -75 -40t-24 -51q-1 -21 11.5 -35t36 -21t53.5 -7q48 0 81.5 18.5t34.5 54.5q1 23 -15 38.5t-67 19.5q-46 3 -83.5 10.5t-66 18t-48.5 23.5t-31 27l4 23l126 114l93 -31l-150 -126
l53 71q10 -7 21.5 -12.5t27 -10t38 -8t56.5 -6.5q62 -6 100.5 -23t55.5 -46.5t15 -69.5q-2 -55 -35 -98t-91 -67.5t-135 -24.5zM250 148q-58 0 -97.5 21t-59 57t-17.5 81q3 58 35 105t85 75.5t119 28.5q58 0 97.5 -21.5t58.5 -57t17 -81.5q-3 -58 -34.5 -105.5t-84.5 -75
t-119 -27.5zM269 253q42 0 70 24.5t30 65.5q2 32 -18.5 49t-54.5 17q-42 0 -70.5 -24.5t-30.5 -65.5q-2 -32 18.5 -49t55.5 -17zM380 406l-6 98h208l-15 -83zM344 557q-48 0 -80.5 19.5t-46 55t-4.5 83.5l3 17h72q-6 -33 10 -52t65 -19q48 0 70.5 19t28.5 52h73l-3 -17
q-8 -49 -34 -84.5t-65.5 -54.5t-88.5 -19z" />
    <glyph glyph-name="Gdotaccent" unicode="&#x120;" horiz-adv-x="783" 
d="M332 -12q-89 0 -152 40t-94 110t-27 159q4 92 36.5 168t89 131.5t131.5 85.5t164 30q125 0 197.5 -59.5t77.5 -164.5h-156q-8 45 -42.5 70t-97.5 25q-74 0 -130.5 -35t-89 -97t-35.5 -145q-4 -61 14.5 -104.5t57 -66.5t93.5 -23q60 0 104 22t73.5 61t44.5 89h-169l18 104
h310l-68 -388h-128l3 86v0q-27 -31 -60 -53t-73.5 -33.5t-91.5 -11.5zM498 769q-27 0 -46 19t-19 46t19 46t46 19q28 0 46.5 -19t18.5 -46t-18.5 -46t-46.5 -19z" />
    <glyph glyph-name="gdotaccent" unicode="&#x121;" horiz-adv-x="568" 
d="M185 -232q-68 0 -117 16t-74.5 48t-23.5 79q2 42 25.5 77t65.5 62t99 47l39 -70q-52 -16 -75 -40t-24 -51q-1 -21 11.5 -35t36 -21t53.5 -7q48 0 81.5 18.5t34.5 54.5q1 23 -15 38.5t-67 19.5q-46 3 -83.5 10.5t-66 18t-48.5 23.5t-31 27l4 23l126 114l93 -31l-150 -126
l53 71q10 -7 21.5 -12.5t27 -10t38 -8t56.5 -6.5q62 -6 100.5 -23t55.5 -46.5t15 -69.5q-2 -55 -35 -98t-91 -67.5t-135 -24.5zM250 148q-58 0 -97.5 21t-59 57t-17.5 81q3 58 35 105t85 75.5t119 28.5q58 0 97.5 -21.5t58.5 -57t17 -81.5q-3 -58 -34.5 -105.5t-84.5 -75
t-119 -27.5zM269 253q42 0 70 24.5t30 65.5q2 32 -18.5 49t-54.5 17q-42 0 -70.5 -24.5t-30.5 -65.5q-2 -32 18.5 -49t55.5 -17zM380 406l-6 98h208l-15 -83zM358 568q-27 0 -46 19t-19 46t19 46t46 19q28 0 46.5 -19t18.5 -46t-18.5 -46t-46.5 -19z" />
    <glyph glyph-name="uni0122" unicode="&#x122;" horiz-adv-x="783" 
d="M332 -12q-89 0 -152 40t-94 110t-27 159q4 92 36.5 168t89 131.5t131.5 85.5t164 30q125 0 197.5 -59.5t77.5 -164.5h-156q-8 45 -42.5 70t-97.5 25q-74 0 -130.5 -35t-89 -97t-35.5 -145q-4 -61 14.5 -104.5t57 -66.5t93.5 -23q60 0 104 22t73.5 61t44.5 89h-169l18 104
h310l-68 -388h-128l3 86v0q-27 -31 -60 -53t-73.5 -33.5t-91.5 -11.5zM243 -284l10 56q26 0 40.5 15.5t20.5 47.5l2 15h-56l19 106h115q4 -27 3 -53t-5 -49q-12 -64 -49.5 -101t-99.5 -37z" />
    <glyph glyph-name="uni0123" unicode="&#x123;" horiz-adv-x="568" 
d="M185 -232q-68 0 -117 16t-74.5 48t-23.5 79q2 42 25.5 77t65.5 62t99 47l39 -70q-52 -16 -75 -40t-24 -51q-1 -21 11.5 -35t36 -21t53.5 -7q48 0 81.5 18.5t34.5 54.5q1 23 -15 38.5t-67 19.5q-46 3 -83.5 10.5t-66 18t-48.5 23.5t-31 27l4 23l126 114l93 -31l-150 -126
l53 71q10 -7 21.5 -12.5t27 -10t38 -8t56.5 -6.5q62 -6 100.5 -23t55.5 -46.5t15 -69.5q-2 -55 -35 -98t-91 -67.5t-135 -24.5zM250 148q-58 0 -97.5 21t-59 57t-17.5 81q3 58 35 105t85 75.5t119 28.5q58 0 97.5 -21.5t58.5 -57t17 -81.5q-3 -58 -34.5 -105.5t-84.5 -75
t-119 -27.5zM269 253q42 0 70 24.5t30 65.5q2 32 -18.5 49t-54.5 17q-42 0 -70.5 -24.5t-30.5 -65.5q-2 -32 18.5 -49t55.5 -17zM380 406l-6 98h208l-15 -83zM444 785l-10 -56q-23 0 -36 -9t-17 -28l-3 -18h47l-19 -108h-107q-2 29 -0.5 52t5.5 47q10 57 45.5 88.5
t94.5 31.5z" />
    <glyph glyph-name="Hbar" unicode="&#x126;" horiz-adv-x="776" 
d="M70 493l20 111h720l-19 -111h-721zM493 0l124 700h140l-124 -700h-140zM53 0l124 700h140l-124 -700h-140zM227 302l20 111h342l-19 -111h-343z" />
    <glyph glyph-name="hbar" unicode="&#x127;" horiz-adv-x="651" 
d="M78 564l14 83h348l-14 -83h-348zM51 0l126 720h140l-51 -290v0q31 39 76.5 62.5t100.5 23.5q63 0 102 -26.5t52.5 -77t-0.5 -124.5l-50 -288h-140l49 275q10 59 -9.5 91t-71.5 32q-33 0 -61.5 -16t-48.5 -45t-27 -70l-47 -267h-140z" />
    <glyph glyph-name="Itilde" unicode="&#x128;" horiz-adv-x="277" 
d="M24 0l124 700h140l-124 -700h-140zM48 769q22 69 60 100t85 31q29 0 47.5 -11.5t34 -22.5t36.5 -11q16 0 30 11t21 34h74q-22 -69 -60.5 -100.5t-85.5 -31.5q-29 0 -48 11.5t-34 23t-36 11.5q-17 0 -30 -11t-21 -34h-73z" />
    <glyph glyph-name="itilde" unicode="&#x129;" horiz-adv-x="272" 
d="M21 0l89 504h140l-89 -504h-140zM8 561q22 69 60 100t85 31q29 0 47.5 -11.5t34 -22.5t36.5 -11q16 0 30 11t21 34h74q-22 -69 -60.5 -100.5t-85.5 -31.5q-29 0 -48 11.5t-34 23t-36 11.5q-17 0 -30 -11t-21 -34h-73z" />
    <glyph glyph-name="Imacron" unicode="&#x12a;" horiz-adv-x="277" 
d="M24 0l124 700h140l-124 -700h-140zM48 815l18 99h381l-17 -99h-382z" />
    <glyph glyph-name="imacron" unicode="&#x12b;" horiz-adv-x="272" 
d="M21 0l89 504h140l-89 -504h-140zM3 585l18 99h381l-17 -99h-382z" />
    <glyph glyph-name="Ibreve" unicode="&#x12c;" horiz-adv-x="277" 
d="M24 0l124 700h140l-124 -700h-140zM229 769q-48 0 -80.5 19.5t-46 55t-4.5 83.5l3 17h72q-6 -33 10 -52t65 -19q48 0 70.5 19t28.5 52h73l-3 -17q-8 -49 -34 -84.5t-65.5 -54.5t-88.5 -19z" />
    <glyph glyph-name="ibreve" unicode="&#x12d;" horiz-adv-x="272" 
d="M21 0l89 504h140l-89 -504h-140zM189 557q-48 0 -80.5 19.5t-46 55t-4.5 83.5l3 17h72q-6 -33 10 -52t65 -19q48 0 70.5 19t28.5 52h73l-3 -17q-8 -49 -34 -84.5t-65.5 -54.5t-88.5 -19z" />
    <glyph glyph-name="Iogonek" unicode="&#x12e;" horiz-adv-x="277" 
d="M24 0l124 700h140l-124 -700h-140zM42 -212q-37 0 -66 11.5t-43.5 35.5t-8.5 60q6 28 23 53.5t53.5 49.5t96.5 48l48 19l19 -65l-54 -25q-40 -18 -57.5 -34t-20.5 -33q-3 -18 8 -28.5t35 -10.5q15 0 34 4t41 11l-15 -82q-20 -6 -44 -10t-49 -4z" />
    <glyph glyph-name="iogonek" unicode="&#x12f;" horiz-adv-x="272" 
d="M21 0l89 504h140l-89 -504h-140zM202 568q-27 0 -46 19t-19 46t19 46t46 19q28 0 46.5 -19t18.5 -46t-18.5 -46t-46.5 -19zM40 -212q-37 0 -66 11.5t-43.5 35.5t-8.5 60q6 28 23 53.5t53.5 49.5t96.5 48l48 19l19 -65l-54 -25q-40 -18 -57.5 -34t-20.5 -33
q-3 -18 8 -28.5t35 -10.5q15 0 34 4t41 11l-15 -82q-20 -6 -44 -10t-49 -4z" />
    <glyph glyph-name="Idotaccent" unicode="&#x130;" horiz-adv-x="277" 
d="M24 0l124 700h140l-124 -700h-140zM241 769q-27 0 -46 19t-19 46t19 46t46 19q28 0 46.5 -19t18.5 -46t-18.5 -46t-46.5 -19z" />
    <glyph glyph-name="dotlessi" unicode="&#x131;" horiz-adv-x="272" 
d="M21 0l89 504h140l-89 -504h-140z" />
    <glyph glyph-name="IJ" unicode="&#x132;" horiz-adv-x="783" 
d="M24 0l124 700h140l-124 -700h-140zM452 -12q-68 0 -114.5 26.5t-66.5 77t-7 122.5h140q-5 -31 0 -54t21.5 -35t44.5 -12t47.5 11t32 31.5t16.5 47.5l88 497h140l-88 -497q-18 -103 -87 -159t-167 -56z" />
    <glyph glyph-name="ij" unicode="&#x133;" horiz-adv-x="539" 
d="M25 0l89 504h140l-89 -504h-140zM210 566q-39 0 -63 23t-24 56q1 34 24.5 57t62.5 23q37 0 61.5 -22.5t23.5 -57.5q0 -33 -24 -56t-61 -23zM133 -220l22 119h40q32 0 47.5 12.5t20.5 41.5l97 551h140l-97 -550q-11 -63 -40 -101.5t-71.5 -55.5t-96.5 -17h-62zM456 566
q-38 0 -62 23t-24 56q0 35 24 57.5t62 22.5t61.5 -22.5t23.5 -57.5q0 -33 -23.5 -56t-61.5 -23z" />
    <glyph glyph-name="uni0136" unicode="&#x136;" horiz-adv-x="661" 
d="M24 0l124 700h140l-48 -273l297 273h172l-305 -277l190 -423h-167l-140 318l-79 -73l-44 -245h-140zM178 -284l10 56q26 0 40.5 15.5t20.5 47.5l2 15h-56l19 106h115q4 -27 3 -53t-5 -49q-12 -64 -49.5 -101t-99.5 -37z" />
    <glyph glyph-name="uni0137" unicode="&#x137;" horiz-adv-x="593" 
d="M368 0l-176 281l231 223h171l-289 -263l11 78l219 -319h-167zM21 0l128 720h140l-128 -720h-140zM144 -284l10 56q26 0 40.5 15.5t20.5 47.5l2 15h-56l19 106h115q4 -27 3 -53t-5 -49q-12 -64 -49.5 -101t-99.5 -37z" />
    <glyph glyph-name="Lacute" unicode="&#x139;" horiz-adv-x="563" 
d="M24 0l124 700h140l-104 -591h305l-19 -109h-446zM130 753l-3 92l231 125v0l5 -106z" />
    <glyph glyph-name="lacute" unicode="&#x13a;" horiz-adv-x="272" 
d="M21 0l128 720h140l-128 -720h-140zM129 761l-3 92l231 125v0l5 -106z" />
    <glyph glyph-name="uni013B" unicode="&#x13b;" horiz-adv-x="563" 
d="M24 0l124 700h140l-104 -591h305l-19 -109h-446zM135 -284l10 56q26 0 40.5 15.5t20.5 47.5l2 15h-56l19 106h115q4 -27 3 -53t-5 -49q-12 -64 -49.5 -101t-99.5 -37z" />
    <glyph glyph-name="uni013C" unicode="&#x13c;" horiz-adv-x="272" 
d="M21 0l128 720h140l-128 -720h-140zM-17 -284l10 56q26 0 40.5 15.5t20.5 47.5l2 15h-56l19 106h115q4 -27 3 -53t-5 -49q-12 -64 -49.5 -101t-99.5 -37z" />
    <glyph glyph-name="Lcaron" unicode="&#x13d;" horiz-adv-x="563" 
d="M24 0l124 700h140l-104 -591h305l-19 -109h-446zM319 506l10 56q24 0 36.5 8.5t16.5 27.5l3 18h-47l20 109h106q2 -29 1 -52t-5 -47q-10 -58 -46 -89t-95 -31z" />
    <glyph glyph-name="lcaron" unicode="&#x13e;" horiz-adv-x="380" 
d="M21 0l128 720h140l-128 -720h-140zM297 518l10 56q24 0 36.5 8.5t16.5 27.5l3 18h-47l20 109h106q2 -29 1 -52t-5 -47q-10 -58 -46 -89t-95 -31z" />
    <glyph glyph-name="Ldot" unicode="&#x13f;" horiz-adv-x="563" 
d="M24 0l124 700h140l-104 -591h305l-19 -109h-446zM402 269q-38 0 -62 23.5t-24 56.5q0 34 24 57.5t62 23.5t62 -23.5t24 -57.5q0 -33 -24 -56.5t-62 -23.5z" />
    <glyph glyph-name="ldot" unicode="&#x140;" horiz-adv-x="384" 
d="M21 0l128 720h140l-128 -720h-140zM347 279q-38 0 -62 23.5t-24 56.5q0 34 24 57.5t62 23.5t62 -23.5t24 -57.5q0 -33 -24 -56.5t-62 -23.5z" />
    <glyph glyph-name="Lslash" unicode="&#x141;" horiz-adv-x="592" 
d="M25 257l22 129l326 100l-23 -130zM54 0l123 700h140l-104 -591h305l-19 -109h-445z" />
    <glyph glyph-name="lslash" unicode="&#x142;" horiz-adv-x="305" 
d="M17 280l21 121l298 93l-21 -121zM38 0l127 720h140l-127 -720h-140z" />
    <glyph glyph-name="Nacute" unicode="&#x143;" horiz-adv-x="734" 
d="M24 0l124 700h140l232 -480v0l84 480h141l-124 -700h-140l-232 479v0l-85 -479h-140zM359 753l-3 92l231 125v0l5 -106z" />
    <glyph glyph-name="nacute" unicode="&#x144;" horiz-adv-x="622" 
d="M22 0l88 504h123l-1 -79v0q30 41 76 66t104 25q65 0 103 -28t51.5 -78t1.5 -120l-51 -290h-140l49 277q9 57 -9 89t-72 32q-32 0 -60 -15t-48 -43.5t-27 -68.5l-48 -271h-140zM266 544l-3 92l231 125v0l5 -106z" />
    <glyph glyph-name="uni0145" unicode="&#x145;" horiz-adv-x="734" 
d="M24 0l124 700h140l232 -480v0l84 480h141l-124 -700h-140l-232 479v0l-85 -479h-140zM216 -284l10 56q26 0 40.5 15.5t20.5 47.5l2 15h-56l19 106h115q4 -27 3 -53t-5 -49q-12 -64 -49.5 -101t-99.5 -37z" />
    <glyph glyph-name="uni0146" unicode="&#x146;" horiz-adv-x="622" 
d="M22 0l88 504h123l-1 -79v0q30 41 76 66t104 25q65 0 103 -28t51.5 -78t1.5 -120l-51 -290h-140l49 277q9 57 -9 89t-72 32q-32 0 -60 -15t-48 -43.5t-27 -68.5l-48 -271h-140zM158 -284l10 56q26 0 40.5 15.5t20.5 47.5l2 15h-56l19 106h115q4 -27 3 -53t-5 -49
q-12 -64 -49.5 -101t-99.5 -37z" />
    <glyph glyph-name="Ncaron" unicode="&#x147;" horiz-adv-x="734" 
d="M24 0l124 700h140l232 -480v0l85 480h140l-124 -700h-140l-232 479v0l-85 -479h-140zM638 942l-18 -100l-163 -82l-134 82l17 100l134 -86z" />
    <glyph glyph-name="ncaron" unicode="&#x148;" horiz-adv-x="622" 
d="M22 0l88 504h123l-1 -79v0q30 41 76 66t104 25q65 0 103 -28t51.5 -78t1.5 -120l-51 -290h-140l49 277q9 57 -9 89t-72 32q-32 0 -60 -15t-48 -43.5t-27 -68.5l-48 -271h-140zM544 731l-17 -99l-164 -82l-133 82l17 99l133 -85z" />
    <glyph glyph-name="Eng" unicode="&#x14a;" horiz-adv-x="733" 
d="M24 0l123 700h140l234 -475v0l84 475h139l-131 -746q-11 -63 -39.5 -101.5t-71.5 -55.5t-96 -17h-62l20 119h41q32 0 47.5 12.5t20.5 41.5l9 47l-234 474v0l-84 -474h-140z" />
    <glyph glyph-name="eng" unicode="&#x14b;" horiz-adv-x="626" 
d="M22 0l88 504h123l-4 -82v0q31 42 78 68t106 26q63 0 101.5 -26.5t52.5 -76.5t0 -123l-59 -336q-11 -63 -39.5 -101.5t-71 -55.5t-96.5 -17h-62l21 119h40q33 0 48.5 12.5t20.5 41.5l57 324q10 58 -9 89.5t-72 31.5q-32 0 -60.5 -15.5t-48.5 -44t-27 -69.5l-47 -269h-140z
" />
    <glyph glyph-name="Omacron" unicode="&#x14c;" horiz-adv-x="794" 
d="M355 -12q-91 0 -159.5 41t-104.5 113t-31 164q3 86 36.5 159.5t89.5 129t130 86.5t158 31q92 0 160 -41t104 -112.5t31 -164.5q-4 -85 -37 -159t-89.5 -129.5t-130 -86.5t-157.5 -31zM373 114q51 0 95.5 20.5t79 57t55 86t22.5 108.5q3 61 -15.5 105.5t-57 69.5t-96.5 25
q-51 0 -95.5 -20.5t-79 -57t-55 -85.5t-22.5 -108q-3 -61 16 -106t58 -70t95 -25zM308 815l18 99h381l-17 -99h-382z" />
    <glyph glyph-name="omacron" unicode="&#x14d;" horiz-adv-x="616" 
d="M266 -12q-68 0 -118 30.5t-76.5 84t-22.5 120.5q3 63 26.5 116.5t64 92.5t94 61.5t114.5 22.5q69 0 119.5 -30t77 -82.5t22.5 -122.5q-2 -62 -26 -115.5t-65 -93.5t-94.5 -62t-115.5 -22zM285 109q38 0 68.5 21t49 59t21.5 87q2 39 -9.5 65t-33 40t-50.5 14
q-37 0 -68 -21.5t-49.5 -59t-21.5 -87.5q-2 -37 9.5 -63.5t33.5 -40.5t50 -14zM175 585l18 99h381l-17 -99h-382z" />
    <glyph glyph-name="Obreve" unicode="&#x14e;" horiz-adv-x="794" 
d="M355 -12q-91 0 -159.5 41t-104.5 113t-31 164q3 86 36.5 159.5t89.5 129t130 86.5t158 31q92 0 160 -41t104 -112.5t31 -164.5q-4 -85 -37 -159t-89.5 -129.5t-130 -86.5t-157.5 -31zM373 114q51 0 95.5 20.5t79 57t55 86t22.5 108.5q3 61 -15.5 105.5t-57 69.5t-96.5 25
q-51 0 -95.5 -20.5t-79 -57t-55 -85.5t-22.5 -108q-3 -61 16 -106t58 -70t95 -25zM490 769q-48 0 -80.5 19.5t-46 55t-4.5 83.5l3 17h72q-6 -33 10 -52t65 -19q48 0 70.5 19t28.5 52h73l-3 -17q-8 -49 -34 -84.5t-65.5 -54.5t-88.5 -19z" />
    <glyph glyph-name="obreve" unicode="&#x14f;" horiz-adv-x="616" 
d="M266 -12q-68 0 -118 30.5t-76.5 84t-22.5 120.5q3 63 26.5 116.5t64 92.5t94 61.5t114.5 22.5q69 0 119.5 -30t77 -82.5t22.5 -122.5q-2 -62 -26 -115.5t-65 -93.5t-94.5 -62t-115.5 -22zM285 109q38 0 68.5 21t49 59t21.5 87q2 39 -9.5 65t-33 40t-50.5 14
q-37 0 -68 -21.5t-49.5 -59t-21.5 -87.5q-2 -37 9.5 -63.5t33.5 -40.5t50 -14zM361 557q-48 0 -80.5 19.5t-46 55t-4.5 83.5l3 17h72q-6 -33 10 -52t65 -19q48 0 70.5 19t28.5 52h73l-3 -17q-8 -49 -34 -84.5t-65.5 -54.5t-88.5 -19z" />
    <glyph glyph-name="Ohungarumlaut" unicode="&#x150;" horiz-adv-x="794" 
d="M355 -12q-91 0 -159.5 41t-104.5 113t-31 164q3 86 36.5 159.5t89.5 129t130 86.5t158 31q92 0 160 -41t104 -112.5t31 -164.5q-4 -85 -37 -159t-89.5 -129.5t-130 -86.5t-157.5 -31zM373 114q51 0 95.5 20.5t79 57t55 86t22.5 108.5q3 61 -15.5 105.5t-57 69.5t-96.5 25
q-51 0 -95.5 -20.5t-79 -57t-55 -85.5t-22.5 -108q-3 -61 16 -106t58 -70t95 -25zM475 760l121 188h113l-146 -188h-88zM299 760l105 188h112l-130 -188h-87z" />
    <glyph glyph-name="ohungarumlaut" unicode="&#x151;" horiz-adv-x="616" 
d="M266 -12q-68 0 -118 30.5t-76.5 84t-22.5 120.5q3 63 26.5 116.5t64 92.5t94 61.5t114.5 22.5q69 0 119.5 -30t77 -82.5t22.5 -122.5q-2 -62 -26 -115.5t-65 -93.5t-94.5 -62t-115.5 -22zM285 109q38 0 68.5 21t49 59t21.5 87q2 39 -9.5 65t-33 40t-50.5 14
q-37 0 -68 -21.5t-49.5 -59t-21.5 -87.5q-2 -37 9.5 -63.5t33.5 -40.5t50 -14zM348 551l121 188h113l-146 -188h-88zM172 551l105 188h112l-130 -188h-87z" />
    <glyph glyph-name="OE" unicode="&#x152;" horiz-adv-x="1096" 
d="M340 -12q-88 0 -152.5 41.5t-98 114.5t-29.5 165q4 87 36.5 160t87 127.5t125 85t148.5 30.5q44 0 85 -12t73 -33.5t51 -50.5l15 84h441l-21 -113h-300l-31 -177h270l-19 -109h-270l-34 -188h301l-20 -113h-441l15 82q-29 -30 -68 -51t-81 -32t-83 -11zM371 114
q52 0 96 21t78 58.5t54.5 88t22.5 108.5q3 61 -17.5 104.5t-60 67.5t-92.5 24q-49 0 -92.5 -20.5t-77.5 -57t-54.5 -85.5t-22.5 -106q-3 -62 17 -107.5t59 -70.5t90 -25z" />
    <glyph glyph-name="oe" unicode="&#x153;" horiz-adv-x="982" 
d="M266 -12q-68 0 -118 30.5t-76.5 84t-22.5 120.5q3 63 26.5 116.5t64 92.5t94 61.5t114.5 22.5q58 0 103 -22t72 -61q40 39 93.5 61t115.5 22q69 0 117 -28t72.5 -76.5t20.5 -111.5q0 -13 -2.5 -29t-5.5 -30t-5 -24h-370q-3 -33 7.5 -59t34 -41t57.5 -15q37 0 64 16t44 42
h142q-23 -49 -63.5 -88t-92.5 -61.5t-112 -22.5q-58 0 -102.5 20.5t-71.5 57.5q-39 -36 -90 -57t-110 -21zM285 109q38 0 68.5 21t49 59t21.5 87q2 39 -9.5 65t-33 40t-50.5 14q-37 0 -68 -21.5t-49.5 -59t-21.5 -87.5q-2 -37 9.5 -63.5t33.5 -40.5t50 -14zM578 302h226
q3 32 -7.5 54.5t-32.5 34.5t-51 12t-55.5 -11.5t-47 -33.5t-32.5 -56z" />
    <glyph glyph-name="Racute" unicode="&#x154;" horiz-adv-x="635" 
d="M24 0l124 700h262q77 0 126 -26.5t72 -70.5t20 -97q-3 -69 -39.5 -122t-101.5 -82.5t-151 -29.5h-124l-48 -272h-140zM392 0l-89 307h147l96 -307h-154zM231 374h116q61 0 97.5 32t38.5 88q3 40 -21 64.5t-78 24.5h-117zM277 753l-3 92l231 125v0l5 -106z" />
    <glyph glyph-name="racute" unicode="&#x155;" horiz-adv-x="414" 
d="M22 0l88 504h125l-3 -91v0q25 32 56.5 54.5t69 35.5t79.5 13l-25 -148h-48q-30 0 -56.5 -6.5t-47.5 -22t-35.5 -41t-21.5 -63.5l-41 -235h-140zM201 544l-3 92l231 125v0l5 -106z" />
    <glyph glyph-name="uni0156" unicode="&#x156;" horiz-adv-x="635" 
d="M24 0l124 700h262q77 0 126 -26.5t72 -70.5t20 -97q-3 -69 -39.5 -122t-101.5 -82.5t-151 -29.5h-124l-48 -272h-140zM392 0l-89 307h147l96 -307h-154zM231 374h116q61 0 97.5 32t38.5 88q3 40 -21 64.5t-78 24.5h-117zM159 -284l10 56q26 0 40.5 15.5t20.5 47.5l2 15
h-56l19 106h115q4 -27 3 -53t-5 -49q-12 -64 -49.5 -101t-99.5 -37z" />
    <glyph glyph-name="uni0157" unicode="&#x157;" horiz-adv-x="414" 
d="M22 0l88 504h125l-3 -91v0q25 32 56.5 54.5t69 35.5t79.5 13l-25 -148h-48q-30 0 -56.5 -6.5t-47.5 -22t-35.5 -41t-21.5 -63.5l-41 -235h-140zM-18 -284l10 56q26 0 40.5 15.5t20.5 47.5l2 15h-56l19 106h115q4 -27 3 -53t-5 -49q-12 -64 -49.5 -101t-99.5 -37z" />
    <glyph glyph-name="Rcaron" unicode="&#x158;" horiz-adv-x="635" 
d="M24 0l124 700h262q77 0 126 -26.5t72 -70.5t20 -97q-3 -69 -39.5 -122t-101.5 -82.5t-151 -29.5h-124l-48 -272h-140zM392 0l-89 307h147l96 -307h-154zM231 374h116q61 0 97.5 32t38.5 88q3 40 -21 64.5t-78 24.5h-117zM556 942l-17 -100l-164 -82l-134 82l18 100
l133 -86z" />
    <glyph glyph-name="rcaron" unicode="&#x159;" horiz-adv-x="414" 
d="M22 0l88 504h125l-3 -91v0q25 32 56.5 54.5t69 35.5t79.5 13l-25 -148h-48q-30 0 -56.5 -6.5t-47.5 -22t-35.5 -41t-21.5 -63.5l-41 -235h-140zM479 731l-17 -99l-164 -82l-133 82l17 99l133 -85z" />
    <glyph glyph-name="Sacute" unicode="&#x15a;" horiz-adv-x="608" 
d="M269 -12q-76 0 -132 26t-83 76t-16 121h148q-5 -32 6.5 -56t36.5 -37t58 -13q34 0 59.5 12t39.5 33t15 49q1 20 -7 35t-23 27t-35 21.5t-44 18t-49 17.5q-71 24 -107.5 67t-33.5 106q3 67 39 116.5t97.5 77t138.5 27.5q70 0 120.5 -24t75 -69.5t15.5 -110.5h-150
q5 26 -5 45.5t-30.5 30t-48.5 10.5q-29 1 -51.5 -9.5t-35.5 -29t-14 -43.5q-1 -18 5.5 -31t19.5 -23.5t30.5 -19t39.5 -16t45 -16.5q34 -12 64 -28.5t52.5 -39.5t34 -53.5t9.5 -69.5q-2 -67 -39 -118t-100 -80t-145 -29zM297 753l-3 92l231 125v0l5 -106z" />
    <glyph glyph-name="sacute" unicode="&#x15b;" horiz-adv-x="540" 
d="M232 -12q-72 0 -120 23.5t-70.5 63.5t-18.5 90h139q0 -21 9.5 -37t29 -25.5t48.5 -9.5q26 0 44 8t28.5 21t11.5 30q1 16 -9.5 26.5t-30 17t-45.5 11.5q-35 8 -67.5 19t-57 27.5t-38 40t-11.5 56.5q2 48 31.5 85.5t81 59t117.5 21.5q93 0 143.5 -42.5t48.5 -113.5h-133
q-2 23 -22 36t-53 13q-34 0 -55 -13.5t-22 -33.5q-1 -14 10 -24t31.5 -17t51.5 -13q40 -9 72.5 -20t55 -27t34 -39t9.5 -56q-2 -54 -34.5 -94.5t-86.5 -62t-122 -21.5zM220 544l-3 92l231 125v0l5 -106z" />
    <glyph glyph-name="Scedilla" unicode="&#x15e;" horiz-adv-x="608" 
d="M269 -12q-76 0 -132 26t-83 76t-16 121h148q-5 -32 6.5 -56t36.5 -37t58 -13q34 0 59.5 12t39.5 33t15 49q1 20 -7 35t-23 27t-35 21.5t-44 18t-49 17.5q-71 24 -107.5 67t-33.5 106q3 67 39 116.5t97.5 77t138.5 27.5q70 0 120.5 -24t75 -69.5t15.5 -110.5h-150
q5 26 -5 45.5t-30.5 30t-48.5 10.5q-29 1 -51.5 -9.5t-35.5 -29t-14 -43.5q-1 -18 5.5 -31t19.5 -23.5t30.5 -19t39.5 -16t45 -16.5q34 -12 64 -28.5t52.5 -39.5t34 -53.5t9.5 -69.5q-2 -67 -39 -118t-100 -80t-145 -29zM120 -264l14 79h117q26 0 40.5 8.5t15.5 27.5
q1 17 -9.5 23.5t-33.5 6.5h-64l22 126h86l-9 -53q30 0 56 -9.5t41.5 -30t13.5 -55.5q-1 -39 -22.5 -66.5t-55.5 -42t-74 -14.5h-138z" />
    <glyph glyph-name="scedilla" unicode="&#x15f;" horiz-adv-x="540" 
d="M232 -12q-72 0 -120 23.5t-70.5 63.5t-18.5 90h139q0 -21 9.5 -37t29 -25.5t48.5 -9.5q26 0 44 8t28.5 21t11.5 30q1 16 -9.5 26.5t-30 17t-45.5 11.5q-35 8 -67.5 19t-57 27.5t-38 40t-11.5 56.5q2 48 31.5 85.5t81 59t117.5 21.5q93 0 143.5 -42.5t48.5 -113.5h-133
q-2 23 -22 36t-53 13q-34 0 -55 -13.5t-22 -33.5q-1 -14 10 -24t31.5 -17t51.5 -13q40 -9 72.5 -20t55 -27t34 -39t9.5 -56q-2 -54 -34.5 -94.5t-86.5 -62t-122 -21.5zM84 -264l14 79h117q26 0 40.5 8.5t15.5 27.5q1 17 -9.5 23.5t-33.5 6.5h-64l22 126h86l-9 -53
q30 0 56 -9.5t41.5 -30t13.5 -55.5q-1 -39 -22.5 -66.5t-55.5 -42t-74 -14.5h-138z" />
    <glyph glyph-name="Scaron" unicode="&#x160;" horiz-adv-x="608" 
d="M269 -12q-76 0 -132 26t-83 76t-16 121h148q-5 -32 6.5 -56t36.5 -37t58 -13q34 0 59.5 12t39.5 33t15 49q1 20 -7 35t-23 27t-35 21.5t-44 18t-49 17.5q-71 24 -107.5 67t-33.5 106q3 67 39 116.5t97.5 77t138.5 27.5q70 0 120.5 -24t75 -69.5t15.5 -110.5h-150
q5 26 -5 45.5t-30.5 30t-48.5 10.5q-29 1 -51.5 -9.5t-35.5 -29t-14 -43.5q-1 -18 5.5 -31t19.5 -23.5t30.5 -19t39.5 -16t45 -16.5q34 -12 64 -28.5t52.5 -39.5t34 -53.5t9.5 -69.5q-2 -67 -39 -118t-100 -80t-145 -29zM575 942l-17 -100l-164 -82l-133 82l17 100l133 -86z
" />
    <glyph glyph-name="scaron" unicode="&#x161;" horiz-adv-x="540" 
d="M232 -12q-72 0 -120 23.5t-70.5 63.5t-18.5 90h139q0 -21 9.5 -37t29 -25.5t48.5 -9.5q26 0 44 8t28.5 21t11.5 30q1 16 -9.5 26.5t-30 17t-45.5 11.5q-35 8 -67.5 19t-57 27.5t-38 40t-11.5 56.5q2 48 31.5 85.5t81 59t117.5 21.5q93 0 143.5 -42.5t48.5 -113.5h-133
q-2 23 -22 36t-53 13q-34 0 -55 -13.5t-22 -33.5q-1 -14 10 -24t31.5 -17t51.5 -13q40 -9 72.5 -20t55 -27t34 -39t9.5 -56q-2 -54 -34.5 -94.5t-86.5 -62t-122 -21.5zM498 731l-17 -99l-164 -82l-134 82l18 99l133 -85z" />
    <glyph glyph-name="uni0162" unicode="&#x162;" horiz-adv-x="602" 
d="M186 0l104 589h-204l20 111h548l-19 -111h-205l-104 -589h-140zM113 -264l14 79h117q26 0 40.5 8.5t15.5 27.5q1 17 -9.5 23.5t-33.5 6.5h-64l22 126h86l-9 -53q30 0 56 -9.5t41.5 -30t13.5 -55.5q-1 -39 -22.5 -66.5t-55.5 -42t-74 -14.5h-138z" />
    <glyph glyph-name="uni0163" unicode="&#x163;" horiz-adv-x="435" 
d="M250 0q-60 0 -97 19.5t-49.5 59t-2.5 101.5l37 207h-84l21 117h84l40 139h125l-25 -139h132l-21 -117h-132l-37 -209q-5 -34 8.5 -46.5t44.5 -12.5h70l-21 -119h-93zM87 -264l14 79h117q26 0 40.5 8.5t15.5 27.5q1 17 -9.5 23.5t-33.5 6.5h-64l22 126h86l-9 -53
q30 0 56 -9.5t41.5 -30t13.5 -55.5q-1 -39 -22.5 -66.5t-55.5 -42t-74 -14.5h-138z" />
    <glyph glyph-name="Tcaron" unicode="&#x164;" horiz-adv-x="602" 
d="M186 0l104 589h-204l20 111h548l-19 -111h-205l-104 -589h-140zM571 928l-18 -99l-163 -83l-134 83l18 99l133 -85z" />
    <glyph glyph-name="tcaron" unicode="&#x165;" horiz-adv-x="435" 
d="M250 0q-60 0 -97 19.5t-49.5 59t-2.5 101.5l37 207h-84l21 117h84l40 139h125l-25 -139h132l-21 -117h-132l-37 -209q-5 -34 8.5 -46.5t44.5 -12.5h70l-21 -119h-93zM361 556l10 56q24 0 36.5 8.5t16.5 27.5l3 18h-47l20 109h106q2 -29 1 -52t-5 -47q-10 -58 -46 -89
t-95 -31z" />
    <glyph glyph-name="Utilde" unicode="&#x168;" horiz-adv-x="688" 
d="M296 -12q-85 0 -142 33.5t-80 96.5t-8 153l76 429h140l-76 -429q-8 -49 1 -83.5t37.5 -52.5t75.5 -18q46 0 80.5 17t57.5 51.5t31 85.5l76 429h140l-75 -429q-17 -96 -66.5 -159t-119 -93.5t-148.5 -30.5zM260 769q22 69 60 100t85 31q29 0 47.5 -11.5t34 -22.5t36.5 -11
q16 0 30 11t21 34h74q-22 -69 -60.5 -100.5t-85.5 -31.5q-29 0 -48 11.5t-34 23t-36 11.5q-17 0 -30 -11t-21 -34h-73z" />
    <glyph glyph-name="utilde" unicode="&#x169;" horiz-adv-x="622" 
d="M210 -12q-65 0 -103.5 27.5t-51.5 78t-1 119.5l51 291h139l-48 -278q-10 -58 7.5 -89t71.5 -31q33 0 61.5 14.5t48.5 43t27 68.5l48 272h140l-88 -504h-123l1 79v0q-30 -41 -75.5 -66t-104.5 -25zM183 561q22 69 60 100t85 31q29 0 47.5 -11.5t34 -22.5t36.5 -11
q16 0 30 11t21 34h74q-22 -69 -60.5 -100.5t-85.5 -31.5q-29 0 -48 11.5t-34 23t-36 11.5q-17 0 -30 -11t-21 -34h-73z" />
    <glyph glyph-name="Umacron" unicode="&#x16a;" horiz-adv-x="688" 
d="M296 -12q-85 0 -142 33.5t-80 96.5t-8 153l76 429h140l-76 -429q-8 -49 1 -83.5t37.5 -52.5t75.5 -18q46 0 80.5 17t57.5 51.5t31 85.5l76 429h140l-75 -429q-17 -96 -66.5 -159t-119 -93.5t-148.5 -30.5zM259 815l18 99h381l-17 -99h-382z" />
    <glyph glyph-name="umacron" unicode="&#x16b;" horiz-adv-x="622" 
d="M210 -12q-65 0 -103.5 27.5t-51.5 78t-1 119.5l51 291h139l-48 -278q-10 -58 7.5 -89t71.5 -31q33 0 61.5 14.5t48.5 43t27 68.5l48 272h140l-88 -504h-123l1 79v0q-30 -41 -75.5 -66t-104.5 -25zM179 585l18 99h381l-17 -99h-382z" />
    <glyph glyph-name="Ubreve" unicode="&#x16c;" horiz-adv-x="688" 
d="M296 -12q-85 0 -142 33.5t-80 96.5t-8 153l76 429h140l-76 -429q-8 -49 1 -83.5t37.5 -52.5t75.5 -18q46 0 80.5 17t57.5 51.5t31 85.5l76 429h140l-75 -429q-17 -96 -66.5 -159t-119 -93.5t-148.5 -30.5zM441 769q-48 0 -80.5 19.5t-46 55t-4.5 83.5l3 17h72
q-6 -33 10 -52t65 -19q48 0 70.5 19t28.5 52h73l-3 -17q-8 -49 -34 -84.5t-65.5 -54.5t-88.5 -19z" />
    <glyph glyph-name="ubreve" unicode="&#x16d;" horiz-adv-x="622" 
d="M210 -12q-65 0 -103.5 27.5t-51.5 78t-1 119.5l51 291h139l-48 -278q-10 -58 7.5 -89t71.5 -31q33 0 61.5 14.5t48.5 43t27 68.5l48 272h140l-88 -504h-123l1 79v0q-30 -41 -75.5 -66t-104.5 -25zM364 557q-48 0 -80.5 19.5t-46 55t-4.5 83.5l3 17h72q-6 -33 10 -52
t65 -19q48 0 70.5 19t28.5 52h73l-3 -17q-8 -49 -34 -84.5t-65.5 -54.5t-88.5 -19z" />
    <glyph glyph-name="Uring" unicode="&#x16e;" horiz-adv-x="688" 
d="M296 -12q-85 0 -142 33.5t-80 96.5t-8 153l76 429h140l-76 -429q-8 -49 1 -83.5t37.5 -52.5t75.5 -18q46 0 80.5 17t57.5 51.5t31 85.5l76 429h140l-75 -429q-17 -96 -66.5 -159t-119 -93.5t-148.5 -30.5zM462 770q-47 0 -81.5 30.5t-34.5 84.5q0 53 34.5 83.5t81.5 30.5
q49 0 83 -30.5t34 -83.5q0 -54 -34 -84.5t-83 -30.5zM462 832q22 0 37 14.5t15 38.5t-15 38t-36 14t-36 -13.5t-15 -38.5q0 -24 15 -38.5t35 -14.5z" />
    <glyph glyph-name="uring" unicode="&#x16f;" horiz-adv-x="622" 
d="M210 -12q-65 0 -103.5 27.5t-51.5 78t-1 119.5l51 291h139l-48 -278q-10 -58 7.5 -89t71.5 -31q33 0 61.5 14.5t48.5 43t27 68.5l48 272h140l-88 -504h-123l1 79v0q-30 -41 -75.5 -66t-104.5 -25zM384 556q-47 0 -81.5 30.5t-34.5 84.5q0 53 34.5 83.5t81.5 30.5
q49 0 83 -30.5t34 -83.5q0 -54 -34 -84.5t-83 -30.5zM384 618q22 0 37 14.5t15 38.5t-15 38t-36 14t-36 -13.5t-15 -38.5q0 -24 15 -38.5t35 -14.5z" />
    <glyph glyph-name="Uhungarumlaut" unicode="&#x170;" horiz-adv-x="688" 
d="M296 -12q-85 0 -142 33.5t-80 96.5t-8 153l76 429h140l-76 -429q-8 -49 1 -83.5t37.5 -52.5t75.5 -18q46 0 80.5 17t57.5 51.5t31 85.5l76 429h140l-75 -429q-17 -96 -66.5 -159t-119 -93.5t-148.5 -30.5zM426 760l121 188h113l-146 -188h-88zM250 760l105 188h112
l-130 -188h-87z" />
    <glyph glyph-name="uhungarumlaut" unicode="&#x171;" horiz-adv-x="622" 
d="M210 -12q-65 0 -103.5 27.5t-51.5 78t-1 119.5l51 291h139l-48 -278q-10 -58 7.5 -89t71.5 -31q33 0 61.5 14.5t48.5 43t27 68.5l48 272h140l-88 -504h-123l1 79v0q-30 -41 -75.5 -66t-104.5 -25zM351 551l121 188h113l-146 -188h-88zM175 551l105 188h112l-130 -188h-87
z" />
    <glyph glyph-name="Uogonek" unicode="&#x172;" horiz-adv-x="688" 
d="M296 -12q-85 0 -142 33.5t-80 96.5t-8 153l76 429h140l-76 -429q-8 -49 1 -83.5t37.5 -52.5t75.5 -18q46 0 80.5 17t57.5 51.5t31 85.5l76 429h140l-75 -429q-17 -96 -66.5 -159t-119 -93.5t-148.5 -30.5zM295 -204q-37 0 -66 11.5t-43.5 35.5t-8.5 60q6 28 23 53.5
t53.5 49.5t96.5 48l48 19l19 -65l-54 -25q-40 -18 -57.5 -34t-20.5 -33q-3 -18 8 -28.5t35 -10.5q15 0 34 4t41 11l-15 -82q-20 -6 -44 -10t-49 -4z" />
    <glyph glyph-name="uogonek" unicode="&#x173;" horiz-adv-x="622" 
d="M210 -12q-65 0 -103.5 27.5t-51.5 78t-1 119.5l51 291h139l-48 -278q-10 -58 7.5 -89t71.5 -31q33 0 61.5 14.5t48.5 43t27 68.5l48 272h140l-88 -504h-123l1 79v0q-30 -41 -75.5 -66t-104.5 -25zM390 -212q-37 0 -66 11.5t-43.5 35.5t-8.5 60q6 28 23 53.5t53.5 49.5
t96.5 48l48 19l19 -65l-54 -25q-40 -18 -57.5 -34t-20.5 -33q-3 -18 8 -28.5t35 -10.5q15 0 34 4t41 11l-15 -82q-20 -6 -44 -10t-49 -4z" />
    <glyph glyph-name="Wcircumflex" unicode="&#x174;" horiz-adv-x="1022" 
d="M163 0l-58 700h150l23 -541v0l236 541h156l41 -539v0l214 539h151l-311 -700h-168l-43 502v0l-224 -502h-167zM456 760l18 99l163 82l134 -82l-18 -99l-133 85z" />
    <glyph glyph-name="wcircumflex" unicode="&#x175;" horiz-adv-x="826" 
d="M121 0l-61 504h139l25 -407l-26 1l182 406h155l39 -406l-26 -1l168 407h138l-236 -504h-145l-45 418h29l-192 -418h-144zM316 548l18 99l163 82l134 -82l-18 -99l-133 85z" />
    <glyph glyph-name="Ycircumflex" unicode="&#x176;" horiz-adv-x="641" 
d="M206 0l44 244l-158 456h160l99 -334l-18 3l216 331h158l-317 -456l-44 -244h-140zM266 760l18 99l163 82l134 -82l-18 -99l-133 85z" />
    <glyph glyph-name="ycircumflex" unicode="&#x177;" horiz-adv-x="609" 
d="M48 -220l158 256h-30l-112 468h151l76 -339v0l193 339h150l-438 -724h-148zM209 548l18 99l163 82l134 -82l-18 -99l-133 85z" />
    <glyph glyph-name="Ydieresis" unicode="&#x178;" horiz-adv-x="641" 
d="M206 0l44 244l-158 456h160l99 -334l-18 3l216 331h158l-317 -456l-44 -244h-140zM338 770q-28 0 -46.5 18.5t-18.5 46.5t18.5 46.5t46.5 18.5t46.5 -18.5t18.5 -46.5t-18.5 -46.5t-46.5 -18.5zM524 770q-28 0 -46.5 18.5t-18.5 46.5t18.5 46.5t46.5 18.5q27 0 46 -18.5
t19 -46.5t-19 -46.5t-46 -18.5z" />
    <glyph glyph-name="Zacute" unicode="&#x179;" horiz-adv-x="581" 
d="M5 0l19 107l404 477h-319l21 116h480l-19 -107l-406 -477h323l-21 -116h-482zM288 753l-3 92l231 125v0l5 -106z" />
    <glyph glyph-name="zacute" unicode="&#x17a;" horiz-adv-x="497" 
d="M-12 0l21 112l306 276h-248l20 116h410l-21 -113l-309 -275h260l-21 -116h-418zM203 544l-3 92l231 125v0l5 -106z" />
    <glyph glyph-name="Zdotaccent" unicode="&#x17b;" horiz-adv-x="581" 
d="M5 0l19 107l404 477h-319l21 116h480l-19 -107l-406 -477h323l-21 -116h-482zM399 769q-27 0 -46 19t-19 46t19 46t46 19q28 0 46.5 -19t18.5 -46t-18.5 -46t-46.5 -19z" />
    <glyph glyph-name="zdotaccent" unicode="&#x17c;" horiz-adv-x="497" 
d="M-12 0l21 112l306 276h-248l20 116h410l-21 -113l-309 -275h260l-21 -116h-418zM315 568q-27 0 -46 19t-19 46t19 46t46 19q28 0 46.5 -19t18.5 -46t-18.5 -46t-46.5 -19z" />
    <glyph glyph-name="Zcaron" unicode="&#x17d;" horiz-adv-x="581" 
d="M5 0l19 107l404 477h-319l21 116h480l-19 -107l-406 -477h323l-21 -116h-482zM567 942l-18 -100l-163 -82l-134 82l17 100l134 -86z" />
    <glyph glyph-name="zcaron" unicode="&#x17e;" horiz-adv-x="497" 
d="M-12 0l21 112l306 276h-248l20 116h410l-21 -113l-309 -275h260l-21 -116h-418zM482 731l-18 -99l-163 -82l-134 82l17 99l134 -85z" />
    <glyph glyph-name="uni018F" unicode="&#x18f;" horiz-adv-x="765" 
d="M332 -12q-68 0 -121.5 22t-89.5 62.5t-53 96t-12 121.5q1 24 5.5 50.5t12.5 51.5h544l-17 -99h-395q-7 -55 8 -94t50.5 -59.5t88.5 -20.5q41 0 78.5 13.5t68.5 40.5t51.5 66t27.5 88l10 58q8 60 -8 104.5t-52 68.5t-91 24q-59 0 -107 -27t-74 -76h-160q31 70 84.5 122.5
t124.5 81.5t152 29q91 0 156 -38.5t99 -105.5t30 -154q-4 -89 -35.5 -167t-86 -136t-128 -90.5t-161.5 -32.5z" />
    <glyph glyph-name="florin" unicode="&#x192;" horiz-adv-x="335" 
d="M-143 -239l33 118h25q21 0 34.5 11.5t20.5 37.5l186 657q28 101 96.5 146.5t183.5 45.5l-32 -119q-46 0 -72 -16.5t-36 -56.5l-186 -657q-17 -63 -49.5 -100t-77 -52t-99.5 -15h-27zM55 438l31 116h296l-32 -116h-295z" />
    <glyph glyph-name="AEacute" unicode="&#x1fc;" horiz-adv-x="948" 
d="M-23 0l498 700h499l-20 -111h-265l-33 -179h237l-19 -107h-236l-34 -192h266l-20 -111h-406l105 594v0l-419 -594h-153zM144 133l79 107h330l-19 -107h-390zM548 753l-3 92l231 125v0l5 -106z" />
    <glyph glyph-name="aeacute" unicode="&#x1fd;" horiz-adv-x="954" 
d="M203 -12q-59 0 -98 17t-58 47.5t-18 71.5q3 51 33 89.5t83.5 60t126.5 21.5h133q7 35 2 59t-23 36t-54 12t-65 -16t-41 -48h-135q15 54 52.5 93.5t91.5 62t118 22.5q39 0 70.5 -7.5t56 -22.5t39.5 -36q39 31 87 48.5t101 17.5q68 0 116.5 -28t72.5 -76.5t21 -111.5
q0 -13 -3 -30.5t-6 -32t-5 -20.5h-369q-4 -32 6.5 -58t34 -41.5t58.5 -15.5q40 0 67.5 18.5t44.5 45.5h141q-22 -50 -63 -90.5t-94.5 -64t-114.5 -23.5q-64 0 -112 26t-74 71q-28 -31 -64 -52.5t-76 -33t-83 -11.5zM242 96q32 0 59 14t47.5 38.5t32.5 55.5l1 7h-109
q-28 0 -48.5 -8t-31.5 -22t-12 -34q-1 -16 6.5 -27.5t21.5 -17.5t33 -6zM550 302h226q4 31 -6.5 53.5t-32 35t-51.5 12.5q-29 0 -55.5 -11.5t-47.5 -33.5t-33 -56zM432 544l-3 92l231 125v0l5 -106z" />
    <glyph glyph-name="uni0218" unicode="&#x218;" horiz-adv-x="608" 
d="M269 -12q-76 0 -132 26t-83 76t-16 121h148q-5 -32 6.5 -56t36.5 -37t58 -13q34 0 59.5 12t39.5 33t15 49q1 20 -7 35t-23 27t-35 21.5t-44 18t-49 17.5q-71 24 -107.5 67t-33.5 106q3 67 39 116.5t97.5 77t138.5 27.5q70 0 120.5 -24t75 -69.5t15.5 -110.5h-150
q5 26 -5 45.5t-30.5 30t-48.5 10.5q-29 1 -51.5 -9.5t-35.5 -29t-14 -43.5q-1 -18 5.5 -31t19.5 -23.5t30.5 -19t39.5 -16t45 -16.5q34 -12 64 -28.5t52.5 -39.5t34 -53.5t9.5 -69.5q-2 -67 -39 -118t-100 -80t-145 -29zM154 -284l10 56q26 0 40.5 15.5t20.5 47.5l2 15h-56
l19 106h115q4 -27 3 -53t-5 -49q-12 -64 -49.5 -101t-99.5 -37z" />
    <glyph glyph-name="uni0219" unicode="&#x219;" horiz-adv-x="540" 
d="M232 -12q-72 0 -120 23.5t-70.5 63.5t-18.5 90h139q0 -21 9.5 -37t29 -25.5t48.5 -9.5q26 0 44 8t28.5 21t11.5 30q1 16 -9.5 26.5t-30 17t-45.5 11.5q-35 8 -67.5 19t-57 27.5t-38 40t-11.5 56.5q2 48 31.5 85.5t81 59t117.5 21.5q93 0 143.5 -42.5t48.5 -113.5h-133
q-2 23 -22 36t-53 13q-34 0 -55 -13.5t-22 -33.5q-1 -14 10 -24t31.5 -17t51.5 -13q40 -9 72.5 -20t55 -27t34 -39t9.5 -56q-2 -54 -34.5 -94.5t-86.5 -62t-122 -21.5zM121 -284l10 56q26 0 40.5 15.5t20.5 47.5l2 15h-56l19 106h115q4 -27 3 -53t-5 -49q-12 -64 -49.5 -101
t-99.5 -37z" />
    <glyph glyph-name="uni021A" unicode="&#x21a;" horiz-adv-x="602" 
d="M186 0l104 589h-204l20 111h548l-19 -111h-205l-104 -589h-140zM150 -284l10 56q26 0 40.5 15.5t20.5 47.5l2 15h-56l19 106h115q4 -27 3 -53t-5 -49q-12 -64 -49.5 -101t-99.5 -37z" />
    <glyph glyph-name="uni021B" unicode="&#x21b;" horiz-adv-x="435" 
d="M250 0q-60 0 -97 19.5t-49.5 59t-2.5 101.5l37 207h-84l21 117h84l40 139h125l-25 -139h132l-21 -117h-132l-37 -209q-5 -34 8.5 -46.5t44.5 -12.5h70l-21 -119h-93zM124 -284l10 56q26 0 40.5 15.5t20.5 47.5l2 15h-56l19 106h115q4 -27 3 -53t-5 -49
q-12 -64 -49.5 -101t-99.5 -37z" />
    <glyph glyph-name="uni0237" unicode="&#x237;" horiz-adv-x="274" 
d="M-113 -220l22 119h40q32 0 47.5 12.5t20.5 41.5l97 551h140l-97 -550q-11 -63 -40 -101.5t-71.5 -55.5t-96.5 -17h-62z" />
    <glyph glyph-name="uni0259" unicode="&#x259;" horiz-adv-x="607" 
d="M342 516q70 0 120 -28t75.5 -79t22.5 -120q-3 -62 -26.5 -116.5t-64.5 -96t-96.5 -65t-122.5 -23.5q-69 0 -117 27.5t-72.5 76.5t-21.5 111q1 22 5 44t9 39h408l-14 -84h-269q-3 -32 7.5 -54.5t32.5 -34.5t50 -12q35 0 65 15.5t52 47t30 78.5l5 30q8 38 -1.5 67.5
t-34 45.5t-60.5 16t-62 -14.5t-43 -39.5h-143q24 48 63.5 86t92 60.5t110.5 22.5z" />
    <glyph glyph-name="circumflex" unicode="&#x2c6;" horiz-adv-x="298" 
d="M52 548l18 99l163 82l134 -82l-18 -99l-133 85z" />
    <glyph glyph-name="caron" unicode="&#x2c7;" horiz-adv-x="298" 
d="M382 731l-17 -99l-164 -82l-134 82l18 99l133 -85z" />
    <glyph glyph-name="breve" unicode="&#x2d8;" horiz-adv-x="320" 
d="M213 557q-48 0 -80.5 19.5t-46 55t-4.5 83.5l3 17h72q-6 -33 10 -52t65 -19q48 0 70.5 19t28.5 52h73l-3 -17q-8 -49 -34 -84.5t-65.5 -54.5t-88.5 -19z" />
    <glyph glyph-name="dotaccent" unicode="&#x2d9;" horiz-adv-x="132" 
d="M133 568q-27 0 -46 19t-19 46t19 46t46 19q28 0 46.5 -19t18.5 -46t-18.5 -46t-46.5 -19z" />
    <glyph glyph-name="ring" unicode="&#x2da;" horiz-adv-x="237" 
d="M192 556q-47 0 -81.5 30.5t-34.5 84.5q0 53 34.5 83.5t81.5 30.5q49 0 83 -30.5t34 -83.5q0 -54 -34 -84.5t-83 -30.5zM192 618q22 0 37 14.5t15 38.5t-15 38t-36 14t-36 -13.5t-15 -38.5q0 -24 15 -38.5t35 -14.5z" />
    <glyph glyph-name="ogonek" unicode="&#x2db;" horiz-adv-x="227" 
d="M55 -212q-37 0 -66 11.5t-43.5 35.5t-8.5 60q6 28 23 53.5t53.5 49.5t96.5 48l48 19l19 -65l-54 -25q-40 -18 -57.5 -34t-20.5 -33q-3 -18 8 -28.5t35 -10.5q15 0 34 4t41 11l-15 -82q-20 -6 -44 -10t-49 -4z" />
    <glyph glyph-name="tilde" unicode="&#x2dc;" horiz-adv-x="365" 
d="M55 561q22 69 60 100t85 31q29 0 47.5 -11.5t34 -22.5t36.5 -11q16 0 30 11t21 34h74q-22 -69 -60.5 -100.5t-85.5 -31.5q-29 0 -48 11.5t-34 23t-36 11.5q-17 0 -30 -11t-21 -34h-73z" />
    <glyph glyph-name="hungarumlaut" unicode="&#x2dd;" horiz-adv-x="377" 
d="M229 551l121 188h113l-146 -188h-88zM53 551l105 188h112l-130 -188h-87z" />
    <glyph glyph-name="gravecomb" unicode="&#x300;" 
d="M275 544l-203 111l33 106v0l200 -125z" />
    <glyph glyph-name="acutecomb" unicode="&#x301;" 
d="M71 544l-3 92l231 125v0l5 -106z" />
    <glyph glyph-name="uni0302" unicode="&#x302;" 
d="M52 548l18 99l163 82l134 -82l-18 -99l-133 85z" />
    <glyph glyph-name="tildecomb" unicode="&#x303;" 
d="M55 561q22 69 60 100t85 31q29 0 47.5 -11.5t34 -22.5t36.5 -11q16 0 30 11t21 34h74q-22 -69 -60.5 -100.5t-85.5 -31.5q-29 0 -48 11.5t-34 23t-36 11.5q-17 0 -30 -11t-21 -34h-73z" />
    <glyph glyph-name="uni0304" unicode="&#x304;" 
d="M59 585l18 99h381l-17 -99h-382z" />
    <glyph glyph-name="uni0306" unicode="&#x306;" 
d="M213 557q-48 0 -80.5 19.5t-46 55t-4.5 83.5l3 17h72q-6 -33 10 -52t65 -19q48 0 70.5 19t28.5 52h73l-3 -17q-8 -49 -34 -84.5t-65.5 -54.5t-88.5 -19z" />
    <glyph glyph-name="uni0307" unicode="&#x307;" 
d="M133 568q-27 0 -46 19t-19 46t19 46t46 19q28 0 46.5 -19t18.5 -46t-18.5 -46t-46.5 -19z" />
    <glyph glyph-name="uni0308" unicode="&#x308;" 
d="M134 570q-28 0 -46.5 18.5t-18.5 46.5t18.5 46.5t46.5 18.5t46.5 -18.5t18.5 -46.5t-18.5 -46.5t-46.5 -18.5zM320 570q-28 0 -46.5 18.5t-18.5 46.5t18.5 46.5t46.5 18.5q27 0 46 -18.5t19 -46.5t-19 -46.5t-46 -18.5z" />
    <glyph glyph-name="uni030A" unicode="&#x30a;" 
d="M192 556q-47 0 -81.5 30.5t-34.5 84.5q0 53 34.5 83.5t81.5 30.5q49 0 83 -30.5t34 -83.5q0 -54 -34 -84.5t-83 -30.5zM192 618q22 0 37 14.5t15 38.5t-15 38t-36 14t-36 -13.5t-15 -38.5q0 -24 15 -38.5t35 -14.5z" />
    <glyph glyph-name="uni030B" unicode="&#x30b;" 
d="M229 551l121 188h113l-146 -188h-88zM53 551l105 188h112l-130 -188h-87z" />
    <glyph glyph-name="uni030C" unicode="&#x30c;" 
d="M382 731l-17 -99l-164 -82l-134 82l18 99l133 -85z" />
    <glyph glyph-name="uni0312" unicode="&#x312;" 
d="M214 785l-10 -56q-23 0 -36.5 -9t-17.5 -28l-2 -18h47l-20 -108h-107q-1 29 0 52t5 47q10 57 45.5 88.5t95.5 31.5z" />
    <glyph glyph-name="uni0326" unicode="&#x326;" 
d="M-87 -284l10 56q26 0 40.5 15.5t20.5 47.5l2 15h-56l19 106h115q4 -27 3 -53t-5 -49q-12 -64 -49.5 -101t-99.5 -37z" />
    <glyph glyph-name="uni0327" unicode="&#x327;" 
d="M-91 -264l14 79h117q26 0 40.5 8.5t15.5 27.5q1 17 -9.5 23.5t-33.5 6.5h-64l22 126h86l-9 -53q30 0 56 -9.5t41.5 -30t13.5 -55.5q-1 -39 -22.5 -66.5t-55.5 -42t-74 -14.5h-138z" />
    <glyph glyph-name="uni0328" unicode="&#x328;" 
d="M55 -212q-37 0 -66 11.5t-43.5 35.5t-8.5 60q6 28 23 53.5t53.5 49.5t96.5 48l48 19l19 -65l-54 -25q-40 -18 -57.5 -34t-20.5 -33q-3 -18 8 -28.5t35 -10.5q15 0 34 4t41 11l-15 -82q-20 -6 -44 -10t-49 -4z" />
    <glyph glyph-name="pi" unicode="&#x3c0;" horiz-adv-x="647" 
d="M58 0l70 396h-73l19 108h588l-19 -108h-73l-70 -396h-140l70 396h-162l-70 -396h-140z" />
    <glyph glyph-name="Wgrave" unicode="&#x1e80;" horiz-adv-x="1022" 
d="M163 0l-58 700h150l23 -541v0l236 541h156l41 -539v0l214 539h151l-311 -700h-168l-43 502v0l-224 -502h-167zM709 753l-203 111l33 106v0l200 -125z" />
    <glyph glyph-name="wgrave" unicode="&#x1e81;" horiz-adv-x="826" 
d="M121 0l-61 504h139l25 -407l-26 1l182 406h155l39 -406l-26 -1l168 407h138l-236 -504h-145l-45 418h29l-192 -418h-144zM569 544l-203 111l33 106v0l200 -125z" />
    <glyph glyph-name="Wacute" unicode="&#x1e82;" horiz-adv-x="1022" 
d="M163 0l-58 700h150l23 -541v0l236 541h156l41 -539v0l214 539h151l-311 -700h-168l-43 502v0l-224 -502h-167zM508 753l-3 92l231 125v0l5 -106z" />
    <glyph glyph-name="wacute" unicode="&#x1e83;" horiz-adv-x="826" 
d="M121 0l-61 504h139l25 -407l-26 1l182 406h155l39 -406l-26 -1l168 407h138l-236 -504h-145l-45 418h29l-192 -418h-144zM368 544l-3 92l231 125v0l5 -106z" />
    <glyph glyph-name="Wdieresis" unicode="&#x1e84;" horiz-adv-x="1022" 
d="M163 0l-58 700h150l23 -541v0l236 541h156l41 -539v0l214 539h151l-311 -700h-168l-43 502v0l-224 -502h-167zM528 770q-28 0 -46.5 18.5t-18.5 46.5t18.5 46.5t46.5 18.5t46.5 -18.5t18.5 -46.5t-18.5 -46.5t-46.5 -18.5zM714 770q-28 0 -46.5 18.5t-18.5 46.5
t18.5 46.5t46.5 18.5q27 0 46 -18.5t19 -46.5t-19 -46.5t-46 -18.5z" />
    <glyph glyph-name="wdieresis" unicode="&#x1e85;" horiz-adv-x="826" 
d="M121 0l-61 504h139l25 -407l-26 1l182 406h155l39 -406l-26 -1l168 407h138l-236 -504h-145l-45 418h29l-192 -418h-144zM387 570q-28 0 -46.5 18.5t-18.5 46.5t18.5 46.5t46.5 18.5t46.5 -18.5t18.5 -46.5t-18.5 -46.5t-46.5 -18.5zM573 570q-28 0 -46.5 18.5
t-18.5 46.5t18.5 46.5t46.5 18.5q27 0 46 -18.5t19 -46.5t-19 -46.5t-46 -18.5z" />
    <glyph glyph-name="uni1E9E" unicode="&#x1e9e;" horiz-adv-x="739" 
d="M430 -6q-107 0 -155.5 57.5t-29.5 168.5h137q-5 -32 -1.5 -57t20.5 -38.5t50 -13.5q31 0 51.5 14t33.5 39t18 56q11 63 -13.5 92t-84.5 29h-109l17 92l169 148h-209q-31 0 -46.5 -13t-21.5 -42l-92 -526h-140l92 526q12 64 40.5 102t71 55t96.5 17h393l-19 -106
l-190 -163h14q66 0 106 -27t55 -74t5 -108q-13 -72 -47.5 -123t-87.5 -78t-123 -27z" />
    <glyph glyph-name="uni1EBC" unicode="&#x1ebc;" horiz-adv-x="568" 
d="M24 0l124 700h446l-20 -111h-306l-31 -180h275l-18 -107h-277l-33 -191h305l-19 -111h-446zM198 769q22 69 60 100t85 31q29 0 47.5 -11.5t34 -22.5t36.5 -11q16 0 30 11t21 34h74q-22 -69 -60.5 -100.5t-85.5 -31.5q-29 0 -48 11.5t-34 23t-36 11.5q-17 0 -30 -11
t-21 -34h-73z" />
    <glyph glyph-name="uni1EBD" unicode="&#x1ebd;" horiz-adv-x="607" 
d="M265 -12q-70 0 -120 28t-75.5 79t-21.5 119q2 63 25.5 117.5t65 96t96.5 65t122 23.5q69 0 117.5 -28t72.5 -76.5t21 -111.5q0 -21 -4.5 -43t-9.5 -40h-408l15 85h268q4 32 -7 54.5t-32.5 34.5t-50.5 12q-34 0 -64.5 -16t-52.5 -47t-30 -79l-5 -29q-7 -38 2.5 -67
t33.5 -46t61 -17q36 0 62 15t42 39h143q-23 -48 -63 -86t-92 -60t-111 -22zM181 561q22 69 60 100t85 31q29 0 47.5 -11.5t34 -22.5t36.5 -11q16 0 30 11t21 34h74q-22 -69 -60.5 -100.5t-85.5 -31.5q-29 0 -48 11.5t-34 23t-36 11.5q-17 0 -30 -11t-21 -34h-73z" />
    <glyph glyph-name="Ygrave" unicode="&#x1ef2;" horiz-adv-x="641" 
d="M206 0l44 244l-158 456h160l99 -334l-18 3l216 331h158l-317 -456l-44 -244h-140zM519 753l-203 111l33 106v0l200 -125z" />
    <glyph glyph-name="ygrave" unicode="&#x1ef3;" horiz-adv-x="609" 
d="M48 -220l158 256h-30l-112 468h151l76 -339v0l193 339h150l-438 -724h-148zM462 544l-203 111l33 106v0l200 -125z" />
    <glyph glyph-name="uni1EF8" unicode="&#x1ef8;" horiz-adv-x="641" 
d="M206 0l44 244l-158 456h160l99 -334l-18 3l216 331h158l-317 -456l-44 -244h-140zM236 769q22 69 60 100t85 31q29 0 47.5 -11.5t34 -22.5t36.5 -11q16 0 30 11t21 34h74q-22 -69 -60.5 -100.5t-85.5 -31.5q-29 0 -48 11.5t-34 23t-36 11.5q-17 0 -30 -11t-21 -34h-73z
" />
    <glyph glyph-name="uni1EF9" unicode="&#x1ef9;" horiz-adv-x="609" 
d="M48 -220l158 256h-30l-112 468h151l76 -339v0l193 339h150l-438 -724h-148zM178 561q22 69 60 100t85 31q29 0 47.5 -11.5t34 -22.5t36.5 -11q16 0 30 11t21 34h74q-22 -69 -60.5 -100.5t-85.5 -31.5q-29 0 -48 11.5t-34 23t-36 11.5q-17 0 -30 -11t-21 -34h-73z" />
    <glyph glyph-name="endash" unicode="&#x2013;" horiz-adv-x="653" 
d="M75 236l20 117h544l-21 -117h-543z" />
    <glyph glyph-name="emdash" unicode="&#x2014;" horiz-adv-x="877" 
d="M75 236l20 117h768l-21 -117h-767z" />
    <glyph glyph-name="quoteleft" unicode="&#x2018;" horiz-adv-x="282" 
d="M76 441l151 259h95l-100 -259h-146z" />
    <glyph glyph-name="quoteright" unicode="&#x2019;" horiz-adv-x="282" 
d="M318 700l-151 -259h-95l100 259h146z" />
    <glyph glyph-name="quotesinglbase" unicode="&#x201a;" horiz-adv-x="261" 
d="M-40 -110l99 255h146l-150 -255h-95z" />
    <glyph glyph-name="quotedblleft" unicode="&#x201c;" horiz-adv-x="488" 
d="M282 441l150 259h96l-100 -259h-146zM76 441l151 259h95l-100 -259h-146z" />
    <glyph glyph-name="quotedblright" unicode="&#x201d;" horiz-adv-x="488" 
d="M318 699l-150 -259h-96l100 259h146zM524 699l-151 -259h-95l100 259h146z" />
    <glyph glyph-name="quotedblbase" unicode="&#x201e;" horiz-adv-x="470" 
d="M-40 -110l99 255h146l-150 -255h-95zM169 -110l99 255h145l-149 -255h-95z" />
    <glyph glyph-name="dagger" unicode="&#x2020;" horiz-adv-x="610" 
d="M144 -264l141 722l-204 -11l19 107l200 -11l29 243h140l-57 -243l205 11l-20 -107l-200 11l-113 -722h-140z" />
    <glyph glyph-name="daggerdbl" unicode="&#x2021;" horiz-adv-x="612" 
d="M144 -264l58 243l-205 -11l20 108l199 -11l70 393l-204 -11l19 107l200 -11l28 243h140l-56 -243l204 11l-19 -107l-200 11l-69 -393l204 11l-19 -108l-200 11l-30 -243h-140z" />
    <glyph glyph-name="bullet" unicode="&#x2022;" horiz-adv-x="394" 
d="M211 194q-39 0 -70.5 18.5t-50 50t-18.5 70.5q0 40 18.5 71.5t50 50t70.5 18.5q40 0 71.5 -18.5t50 -50t18.5 -71.5q0 -39 -18.5 -70.5t-50 -50t-71.5 -18.5z" />
    <glyph glyph-name="ellipsis" unicode="&#x2026;" horiz-adv-x="702" 
d="M319 -6q-37 0 -61 23t-24 57q0 33 24 56.5t61 23.5t61 -23t24 -57t-24 -57t-61 -23zM539 -6q-37 0 -61 23t-24 57q0 33 24 56.5t61 23.5t61 -23t24 -57t-24 -57t-61 -23zM98 -6q-37 0 -61 23t-24 57q0 33 24 56.5t61 23.5t61 -23t24 -57t-24 -57t-61 -23z" />
    <glyph glyph-name="perthousand" unicode="&#x2030;" horiz-adv-x="1304" 
d="M1044 -12q-45 0 -80 19t-54 54t-17 82q3 59 31 105.5t74 73t102 26.5q45 0 79.5 -18.5t53.5 -53t16 -82.5q-2 -59 -30 -105.5t-73.5 -73.5t-101.5 -27zM1056 83q23 0 41.5 13.5t29.5 37t13 52.5q2 34 -13.5 51.5t-40.5 17.5q-22 0 -40.5 -13.5t-29.5 -37t-13 -53.5
q-1 -34 13.5 -51t39.5 -17zM147 0l516 700h135l-515 -700h-136zM654 -12q-44 0 -79 19t-54 54t-17 82q3 59 30.5 105.5t74 73t102.5 26.5q44 0 79 -18.5t53.5 -53t16.5 -82.5q-3 -59 -30.5 -105.5t-73 -73.5t-102.5 -27zM240 351q-45 0 -80 19t-54 54t-17 82q3 60 31 106
t74 73t102 27q45 0 79 -19t53 -53.5t17 -82.5q-3 -60 -31 -106t-73 -73t-101 -27zM667 83q23 0 41 13.5t29.5 37t12.5 52.5q2 34 -13 51.5t-40 17.5q-22 0 -40.5 -13.5t-30 -37t-12.5 -53.5q-2 -34 13 -51t40 -17zM252 446q22 0 40.5 13.5t30 36.5t12.5 53q2 34 -13 51.5
t-40 17.5q-22 0 -40.5 -13.5t-30 -37t-12.5 -53.5q-2 -34 13 -51t40 -17z" />
    <glyph glyph-name="guilsinglleft" unicode="&#x2039;" horiz-adv-x="312" 
d="M107 120l-58 175l120 175h131l-123 -175l61 -175h-131z" />
    <glyph glyph-name="guilsinglright" unicode="&#x203a;" horiz-adv-x="312" 
d="M220 470l58 -175l-120 -175h-131l122 175l-60 175h131z" />
    <glyph glyph-name="fraction" unicode="&#x2044;" horiz-adv-x="520" 
d="M-47 0l516 700h136l-515 -700h-137z" />
    <glyph glyph-name="uni2074" unicode="&#x2074;" horiz-adv-x="353" 
d="M209 352l11 60h-165l13 70l191 218h115l-38 -216h36l-13 -72h-36l-11 -60h-103zM170 484h70l18 103v0z" />
    <glyph glyph-name="uni20A8" unicode="&#x20a8;" horiz-adv-x="1115" 
d="M24 0l124 700h262q77 0 126 -26.5t72 -70.5t20 -97q-3 -69 -39.5 -122t-101.5 -82.5t-151 -29.5h-124l-48 -272h-140zM392 0l-89 307h147l96 -307h-154zM231 374h116q61 0 97.5 32t38.5 88q3 40 -21 64.5t-78 24.5h-117zM807 -12q-72 0 -120 23.5t-70.5 63.5t-18.5 90
h139q0 -21 9.5 -37t29 -25.5t48.5 -9.5q26 0 44 8t28.5 21t11.5 30q1 16 -9.5 26.5t-30 17t-45.5 11.5q-35 8 -67.5 19t-57 27.5t-38 40t-11.5 56.5q2 48 31.5 85.5t81 59t117.5 21.5q93 0 143.5 -42.5t48.5 -113.5h-133q-2 23 -22 36t-53 13q-34 0 -55 -13.5t-22 -33.5
q-1 -14 10 -24t31.5 -17t51.5 -13q40 -9 72.5 -20t55 -27t34 -39t9.5 -56q-2 -54 -34.5 -94.5t-86.5 -62t-122 -21.5z" />
    <glyph glyph-name="Euro" unicode="&#x20ac;" horiz-adv-x="796" 
d="M18 237l15 79h432l-15 -79h-432zM45 385l14 80h432l-14 -80h-432zM394 -12q-94 0 -158.5 38t-96 105.5t-26.5 157.5q4 91 35.5 168t86.5 134.5t127.5 89t157.5 31.5q127 0 198 -64t71 -180h-154q-2 56 -37 86.5t-101 30.5q-50 0 -93 -21t-75 -59t-50.5 -90t-21.5 -114
q-3 -59 14.5 -100.5t54.5 -64t90 -22.5q66 0 110 28t66 80h153q-26 -73 -76.5 -126t-120.5 -80.5t-154 -27.5z" />
    <glyph glyph-name="uni20B9" unicode="&#x20b9;" horiz-adv-x="614" 
d="M246 -10q-106 0 -153 56.5t-28 168.5l24 134q93 0 148.5 5t85 20.5t43.5 47.5t24 87l25 141h131l-25 -139q-11 -64 -33 -112t-59.5 -80t-92.5 -47.5t-132 -15.5l-10 -57q-8 -45 6 -74t62 -29q46 0 70 27t33 75h130q-21 -99 -83.5 -153.5t-165.5 -54.5zM76 438l16 88h534
l-16 -88h-534zM106 605l18 96h533l-17 -96h-534z" />
    <glyph glyph-name="uni20BA" unicode="&#x20ba;" horiz-adv-x="827" 
d="M334 -12q-50 0 -104.5 7t-112.5 19l122 690h142l-102 -577q20 -5 39 -6.5t38 -1.5q70 0 119 23.5t82 66.5t54 102t33 130h143q-27 -155 -82.5 -255t-146 -149t-224.5 -49zM14 216l15 90l448 88l-16 -90zM41 380l15 87l451 92l-16 -89z" />
    <glyph glyph-name="uni20BD" unicode="&#x20bd;" horiz-adv-x="660" 
d="M-1 98l19 107h91l13 75h-91l19 109h91l56 311h257q77 0 125.5 -24.5t71.5 -67t20 -97.5q-3 -68 -40.5 -120t-102 -81.5t-149.5 -29.5h-117l-13 -75h180l-19 -107h-180l-17 -98h-140l17 98h-91zM282 389h111q64 0 98 32t36 84q2 40 -21 64t-77 24h-111z" />
    <glyph glyph-name="uni2113" unicode="&#x2113;" horiz-adv-x="278" 
d="M7 -100l145 820h140l-145 -820h-140z" />
    <glyph glyph-name="trademark" unicode="&#x2122;" horiz-adv-x="844" 
d="M92 617l14 83h273l-15 -83h-84l-48 -268h-103l48 268h-85zM369 349l62 351h137l46 -227l135 227h127l-62 -351h-95l38 223l-134 -223h-70l-52 230l-40 -230h-92z" />
    <glyph glyph-name="uni2126" unicode="&#x2126;" horiz-adv-x="794" 
d="M5 0l20 107h194l-29 -34q-44 20 -74 58.5t-45.5 86.5t-15.5 95q0 87 32.5 160t91 126.5t135.5 83t165 29.5q67 0 122 -20t95.5 -57t62.5 -89t22 -117q0 -80 -28 -150t-81.5 -123.5t-129.5 -82.5l-15 34h195l-20 -107h-272l21 111q43 21 77 52t58 70t36.5 82.5t12.5 89.5
q0 42 -12.5 75t-36 56.5t-56 35.5t-73.5 12q-59 0 -107 -22t-82.5 -60.5t-53 -89.5t-18.5 -108q0 -43 12.5 -81t36 -66.5t53.5 -45.5l-21 -111h-272z" />
    <glyph glyph-name="estimated" unicode="&#x212e;" horiz-adv-x="763" 
d="M343 -7q-104 0 -174.5 42.5t-100 119.5t-10.5 179q14 79 47.5 147t86 118.5t120 79.5t148.5 29q87 0 145.5 -29t92 -78t43 -109.5t-1.5 -124.5l-10 -49h-505l-31 -178q30 -31 70 -47t95 -16q50 0 94.5 14t87.5 40t86 63l42 -59q-75 -67 -156 -104.5t-169 -37.5zM238 397
h333l30 170q-25 29 -64 44t-91 15q-53 0 -98 -17t-83 -51z" />
    <glyph glyph-name="arrowleft" unicode="&#x2190;" horiz-adv-x="758" 
d="M744 285h-504l246 -219l-88 -89l-354 329v83l354 329l88 -88l-246 -220h504v-125z" />
    <glyph glyph-name="arrowup" unicode="&#x2191;" horiz-adv-x="853" 
d="M37 346l364 354h84l365 -354l-88 -88l-253 248v-506h-132v506l-252 -247z" />
    <glyph glyph-name="arrowright" unicode="&#x2192;" horiz-adv-x="758" 
d="M48 285v125h504l-246 220l88 88l354 -329v-83l-354 -329l-88 89l246 219h-504z" />
    <glyph glyph-name="arrowdown" unicode="&#x2193;" horiz-adv-x="853" 
d="M38 354l88 87l252 -247v506h132v-506l253 248l88 -88l-365 -354h-83z" />
    <glyph glyph-name="arrowboth" unicode="&#x2194;" horiz-adv-x="922" 
d="M44 304v84l290 315l88 -74l-206 -219h523l-205 219l88 74l290 -315v-84l-290 -315l-88 74l209 224h-530l209 -224l-88 -74z" />
    <glyph glyph-name="arrowupdn" unicode="&#x2195;" horiz-adv-x="819" 
d="M61 214l73 88l230 -150v398l-230 -150l-73 88l324 214h83l324 -214l-73 -88l-229 149v-396l229 149l73 -88l-324 -214h-83z" />
    <glyph glyph-name="uni2196" unicode="&#x2196;" horiz-adv-x="687" 
d="M554 44l-358 357v-353h-122v510l59 59h509v-122h-355l359 -359z" />
    <glyph glyph-name="uni2197" unicode="&#x2197;" horiz-adv-x="709" 
d="M175 56l-93 92l359 359h-355v122h510l59 -59v-510h-122v353z" />
    <glyph glyph-name="uni2198" unicode="&#x2198;" horiz-adv-x="687" 
d="M163 628l357 -357v353h122v-510l-59 -59h-509v122h355l-359 359z" />
    <glyph glyph-name="uni2199" unicode="&#x2199;" horiz-adv-x="709" 
d="M565 628l93 -92l-359 -359h355v-122h-509l-59 59v510h122v-353z" />
    <glyph glyph-name="partialdiff" unicode="&#x2202;" horiz-adv-x="598" 
d="M210 -8q-59 0 -104.5 26.5t-66 81.5t-5.5 139q12 68 42.5 126.5t75 102t98 68t111.5 24.5q25 0 46.5 -6.5t37 -21.5t24.5 -40q3 49 -7 87t-38 59t-79 21q-16 0 -34 -2t-38 -7l13 74q31 9 58.5 12.5t52.5 3.5q82 0 131 -40t64.5 -114.5t-2.5 -177.5q-17 -97 -53 -174
t-86.5 -131t-111.5 -82.5t-129 -28.5zM245 112q32 0 60.5 16t52 44.5t40 66.5t24.5 81q11 62 -9.5 92t-61.5 30q-32 0 -60.5 -15t-51.5 -43t-39.5 -64.5t-23.5 -79.5q-8 -45 -1 -73.5t25.5 -41.5t44.5 -13z" />
    <glyph glyph-name="uni2206" unicode="&#x2206;" horiz-adv-x="718" 
d="M-23 0l19 107l385 593h114l175 -593l-19 -107h-674zM140 107h386l-116 434z" />
    <glyph glyph-name="product" unicode="&#x220f;" horiz-adv-x="740" 
d="M55 0l104 593h-73l20 107h687l-19 -107h-74l-105 -593h-140l105 593h-261l-104 -593h-140z" />
    <glyph glyph-name="summation" unicode="&#x2211;" horiz-adv-x="505" 
d="M-9 -50l29 163l285 220l-210 205l29 162h433l-19 -107h-314l220 -211l-17 -101l-293 -224h309l-19 -107h-433z" />
    <glyph glyph-name="minus" unicode="&#x2212;" horiz-adv-x="582" 
d="M75 231l21 117h424l-20 -117h-425z" />
    <glyph glyph-name="uni2215" unicode="&#x2215;" horiz-adv-x="429" 
d="M-42 -116l408 897h135l-408 -897h-135z" />
    <glyph glyph-name="radical" unicode="&#x221a;" horiz-adv-x="801" 
d="M15 229l219 116l87 -226l559 771h89l-678 -932h-68l-96 247l-83 -44z" />
    <glyph glyph-name="infinity" unicode="&#x221e;" horiz-adv-x="745" 
d="M179 124q-64 0 -104.5 37.5t-36.5 106.5q2 54 28.5 95t70.5 64.5t98 23.5q46 0 78 -17t54 -43.5t39 -56t33.5 -56t37.5 -43t52 -16.5q34 0 56 21.5t23 53.5q2 30 -14.5 46t-43.5 16q-36 0 -73.5 -27t-62.5 -72l-63 30q20 44 52.5 81t77 60t96.5 23q66 0 106.5 -38
t36.5 -106q-2 -53 -29.5 -94.5t-72 -65t-98.5 -23.5q-46 0 -79 17t-56.5 43.5t-42 56t-35 56t-36 43t-46.5 16.5q-30 0 -52 -21.5t-24 -54.5q-1 -29 16 -45t44 -16q36 0 72.5 27t61.5 72l63 -30q-19 -43 -52 -80.5t-77.5 -60.5t-97.5 -23z" />
    <glyph glyph-name="integral" unicode="&#x222b;" horiz-adv-x="280" 
d="M-132 -239l32 118h18q21 0 33 11.5t19 37.5l237 839q17 63 49.5 99.5t77 51t96.5 14.5h19l-33 -118h-17q-19 0 -32 -11t-20 -36l-237 -839q-18 -63 -50 -100t-76.5 -52t-97.5 -15h-18z" />
    <glyph glyph-name="approxequal" unicode="&#x2248;" horiz-adv-x="582" 
d="M348 79q-32 0 -55.5 10t-41 23.5t-35.5 23.5t-40 10q-26 0 -45 -17t-30 -49h-105q22 67 54 109t71.5 62t83.5 20q32 0 55.5 -10.5t42.5 -23.5t36.5 -23.5t39.5 -10.5q26 0 45.5 17t28.5 50h106q-20 -66 -52.5 -108.5t-72.5 -62.5t-86 -20zM389 314q-32 0 -55.5 10
t-41 23.5t-35.5 23.5t-40 10q-26 0 -45 -17t-30 -49h-105q22 67 54 109t71.5 62t83.5 20q32 0 55.5 -10.5t42.5 -23.5t36.5 -23.5t39.5 -10.5q26 0 45.5 17t28.5 50h106q-20 -66 -52.5 -108.5t-72.5 -62.5t-86 -20z" />
    <glyph glyph-name="notequal" unicode="&#x2260;" horiz-adv-x="582" 
d="M58 48l339 483h108l-339 -483h-108zM92 341l21 123h432l-22 -123h-431zM52 115l22 123h432l-22 -123h-432z" />
    <glyph glyph-name="lessequal" unicode="&#x2264;" horiz-adv-x="582" 
d="M312 263l-186 187v0l252 188h177l-250 -188l184 -187h-177zM79 89l19 107h380l-18 -107h-381z" />
    <glyph glyph-name="greaterequal" unicode="&#x2265;" horiz-adv-x="582" 
d="M100 263l250 187l-184 188h177l185 -188v0l-251 -187h-177zM60 89l19 107h381l-20 -107h-380z" />
    <glyph glyph-name="lozenge" unicode="&#x25ca;" horiz-adv-x="561" 
d="M254 97l-210 255l300 254l209 -254zM278 234l138 118l-96 116l-138 -116z" />
    <glyph glyph-name="Q.ss06" horiz-adv-x="799" 
d="M515 -125l-123 187l137 30l158 -217h-172zM355 -12q-91 0 -159.5 41t-104.5 113t-31 164q3 86 36.5 159.5t89.5 129t130 86.5t158 31q92 0 160 -41t104 -112.5t31 -164.5q-4 -85 -37 -159t-89.5 -129.5t-130 -86.5t-157.5 -31zM373 114q51 0 95.5 20.5t79 57t55 86
t22.5 108.5q3 61 -15.5 105.5t-57 69.5t-96.5 25q-51 0 -95.5 -20.5t-79 -57t-55 -85.5t-22.5 -108q-3 -61 16 -106t58 -70t95 -25z" />
    <glyph glyph-name="i.loclTRK" horiz-adv-x="272" 
d="M21 0l89 504h140l-89 -504h-140zM202 568q-27 0 -46 19t-19 46t19 46t46 19q28 0 46.5 -19t18.5 -46t-18.5 -46t-46.5 -19z" />
    <glyph glyph-name="a.ss02" horiz-adv-x="653" 
d="M241 -12q-62 0 -106.5 30.5t-67 83t-19.5 118.5q3 64 26 117.5t61 93.5t88 62.5t106 22.5q60 0 96.5 -21.5t54.5 -54.5l27 64h125l-89 -504h-124l-4 68v0q-18 -21 -43.5 -39.5t-57.5 -29.5t-73 -11zM299 110q43 0 77 22t54.5 59t22.5 82q2 36 -10.5 63.5t-37.5 42.5
t-60 15q-42 0 -75.5 -21t-54 -57t-22.5 -81q-2 -36 10 -64.5t37 -44.5t59 -16z" />
    <glyph glyph-name="aacute.ss02" horiz-adv-x="653" 
d="M241 -12q-62 0 -106.5 30.5t-67 83t-19.5 118.5q3 64 26 117.5t61 93.5t88 62.5t106 22.5q60 0 96.5 -21.5t54.5 -54.5l27 64h125l-89 -504h-124l-4 68v0q-18 -21 -43.5 -39.5t-57.5 -29.5t-73 -11zM299 110q43 0 77 22t54.5 59t22.5 82q2 36 -10.5 63.5t-37.5 42.5
t-60 15q-42 0 -75.5 -21t-54 -57t-22.5 -81q-2 -36 10 -64.5t37 -44.5t59 -16zM279 544l-3 92l231 125v0l5 -106z" />
    <glyph glyph-name="abreve.ss02" horiz-adv-x="653" 
d="M241 -12q-62 0 -106.5 30.5t-67 83t-19.5 118.5q3 64 26 117.5t61 93.5t88 62.5t106 22.5q60 0 96.5 -21.5t54.5 -54.5l27 64h125l-89 -504h-124l-4 68v0q-18 -21 -43.5 -39.5t-57.5 -29.5t-73 -11zM299 110q43 0 77 22t54.5 59t22.5 82q2 36 -10.5 63.5t-37.5 42.5
t-60 15q-42 0 -75.5 -21t-54 -57t-22.5 -81q-2 -36 10 -64.5t37 -44.5t59 -16zM377 557q-48 0 -80.5 19.5t-46 55t-4.5 83.5l3 17h72q-6 -33 10 -52t65 -19q48 0 70.5 19t28.5 52h73l-3 -17q-8 -49 -34 -84.5t-65.5 -54.5t-88.5 -19z" />
    <glyph glyph-name="acircumflex.ss02" horiz-adv-x="653" 
d="M241 -12q-62 0 -106.5 30.5t-67 83t-19.5 118.5q3 64 26 117.5t61 93.5t88 62.5t106 22.5q60 0 96.5 -21.5t54.5 -54.5l27 64h125l-89 -504h-124l-4 68v0q-18 -21 -43.5 -39.5t-57.5 -29.5t-73 -11zM299 110q43 0 77 22t54.5 59t22.5 82q2 36 -10.5 63.5t-37.5 42.5
t-60 15q-42 0 -75.5 -21t-54 -57t-22.5 -81q-2 -36 10 -64.5t37 -44.5t59 -16zM227 548l18 99l163 82l134 -82l-18 -99l-133 85z" />
    <glyph glyph-name="adieresis.ss02" horiz-adv-x="653" 
d="M241 -12q-62 0 -106.5 30.5t-67 83t-19.5 118.5q3 64 26 117.5t61 93.5t88 62.5t106 22.5q60 0 96.5 -21.5t54.5 -54.5l27 64h125l-89 -504h-124l-4 68v0q-18 -21 -43.5 -39.5t-57.5 -29.5t-73 -11zM299 110q43 0 77 22t54.5 59t22.5 82q2 36 -10.5 63.5t-37.5 42.5
t-60 15q-42 0 -75.5 -21t-54 -57t-22.5 -81q-2 -36 10 -64.5t37 -44.5t59 -16zM298 570q-28 0 -46.5 18.5t-18.5 46.5t18.5 46.5t46.5 18.5t46.5 -18.5t18.5 -46.5t-18.5 -46.5t-46.5 -18.5zM484 570q-28 0 -46.5 18.5t-18.5 46.5t18.5 46.5t46.5 18.5q27 0 46 -18.5
t19 -46.5t-19 -46.5t-46 -18.5z" />
    <glyph glyph-name="agrave.ss02" horiz-adv-x="653" 
d="M241 -12q-62 0 -106.5 30.5t-67 83t-19.5 118.5q3 64 26 117.5t61 93.5t88 62.5t106 22.5q60 0 96.5 -21.5t54.5 -54.5l27 64h125l-89 -504h-124l-4 68v0q-18 -21 -43.5 -39.5t-57.5 -29.5t-73 -11zM299 110q43 0 77 22t54.5 59t22.5 82q2 36 -10.5 63.5t-37.5 42.5
t-60 15q-42 0 -75.5 -21t-54 -57t-22.5 -81q-2 -36 10 -64.5t37 -44.5t59 -16zM480 544l-203 111l33 106v0l200 -125z" />
    <glyph glyph-name="amacron.ss02" horiz-adv-x="653" 
d="M241 -12q-62 0 -106.5 30.5t-67 83t-19.5 118.5q3 64 26 117.5t61 93.5t88 62.5t106 22.5q60 0 96.5 -21.5t54.5 -54.5l27 64h125l-89 -504h-124l-4 68v0q-18 -21 -43.5 -39.5t-57.5 -29.5t-73 -11zM299 110q43 0 77 22t54.5 59t22.5 82q2 36 -10.5 63.5t-37.5 42.5
t-60 15q-42 0 -75.5 -21t-54 -57t-22.5 -81q-2 -36 10 -64.5t37 -44.5t59 -16zM191 585l18 99h381l-17 -99h-382z" />
    <glyph glyph-name="aogonek.ss02" horiz-adv-x="653" 
d="M241 -12q-62 0 -106.5 30.5t-67 83t-19.5 118.5q3 64 26 117.5t61 93.5t88 62.5t106 22.5q60 0 96.5 -21.5t54.5 -54.5l27 64h125l-89 -504h-124l-4 68v0q-18 -21 -43.5 -39.5t-57.5 -29.5t-73 -11zM299 110q43 0 77 22t54.5 59t22.5 82q2 36 -10.5 63.5t-37.5 42.5
t-60 15q-42 0 -75.5 -21t-54 -57t-22.5 -81q-2 -36 10 -64.5t37 -44.5t59 -16zM421 -212q-37 0 -66 11.5t-43.5 35.5t-8.5 60q6 28 23 53.5t53.5 49.5t96.5 48l48 19l19 -65l-54 -25q-40 -18 -57.5 -34t-20.5 -33q-3 -18 8 -28.5t35 -10.5q15 0 34 4t41 11l-15 -82
q-20 -6 -44 -10t-49 -4z" />
    <glyph glyph-name="aring.ss02" horiz-adv-x="653" 
d="M241 -12q-62 0 -106.5 30.5t-67 83t-19.5 118.5q3 64 26 117.5t61 93.5t88 62.5t106 22.5q60 0 96.5 -21.5t54.5 -54.5l27 64h125l-89 -504h-124l-4 68v0q-18 -21 -43.5 -39.5t-57.5 -29.5t-73 -11zM299 110q43 0 77 22t54.5 59t22.5 82q2 36 -10.5 63.5t-37.5 42.5
t-60 15q-42 0 -75.5 -21t-54 -57t-22.5 -81q-2 -36 10 -64.5t37 -44.5t59 -16zM397 556q-47 0 -81.5 30.5t-34.5 84.5q0 53 34.5 83.5t81.5 30.5q49 0 83 -30.5t34 -83.5q0 -54 -34 -84.5t-83 -30.5zM397 618q22 0 37 14.5t15 38.5t-15 38t-36 14t-36 -13.5t-15 -38.5
q0 -24 15 -38.5t35 -14.5z" />
    <glyph glyph-name="atilde.ss02" horiz-adv-x="653" 
d="M241 -12q-62 0 -106.5 30.5t-67 83t-19.5 118.5q3 64 26 117.5t61 93.5t88 62.5t106 22.5q60 0 96.5 -21.5t54.5 -54.5l27 64h125l-89 -504h-124l-4 68v0q-18 -21 -43.5 -39.5t-57.5 -29.5t-73 -11zM299 110q43 0 77 22t54.5 59t22.5 82q2 36 -10.5 63.5t-37.5 42.5
t-60 15q-42 0 -75.5 -21t-54 -57t-22.5 -81q-2 -36 10 -64.5t37 -44.5t59 -16zM196 561q22 69 60 100t85 31q29 0 47.5 -11.5t34 -22.5t36.5 -11q16 0 30 11t21 34h74q-22 -69 -60.5 -100.5t-85.5 -31.5q-29 0 -48 11.5t-34 23t-36 11.5q-17 0 -30 -11t-21 -34h-73z" />
    <glyph glyph-name="ae.ss02" horiz-adv-x="1010" 
d="M241 -12q-62 0 -106.5 30.5t-67 83t-19.5 118.5q3 64 26 117.5t61 93.5t88 62.5t106 22.5q55 0 90.5 -19t55.5 -49l17 56h110l-6 -36q35 23 76 35.5t88 12.5q68 0 116.5 -28t73 -76.5t20.5 -111.5q0 -21 -4 -43t-9 -40h-369q-3 -34 7.5 -60t33.5 -40.5t57 -14.5
q36 0 62 15t43 39h143q-23 -48 -63 -86t-91.5 -60t-110.5 -22q-47 0 -84.5 13.5t-64.5 38.5l-6 -40h-111l4 60v0q-18 -19 -42.5 -36t-55 -26.5t-68.5 -9.5zM299 110q43 0 77 22t54.5 59t22.5 82q2 36 -10.5 63.5t-37.5 42.5t-60 15q-42 0 -75.5 -21t-54 -57t-22.5 -81
q-2 -36 10 -64.5t37 -44.5t59 -16zM606 302h226q3 32 -8 54.5t-32.5 34.5t-50.5 12q-28 0 -55 -11.5t-47.5 -33.5t-32.5 -56z" />
    <glyph glyph-name="aeacute.ss02" horiz-adv-x="1010" 
d="M241 -12q-62 0 -106.5 30.5t-67 83t-19.5 118.5q3 64 26 117.5t61 93.5t88 62.5t106 22.5q55 0 90.5 -19t55.5 -49l17 56h110l-6 -36q35 23 76 35.5t88 12.5q68 0 116.5 -28t73 -76.5t20.5 -111.5q0 -21 -4 -43t-9 -40h-369q-3 -34 7.5 -60t33.5 -40.5t57 -14.5
q36 0 62 15t43 39h143q-23 -48 -63 -86t-91.5 -60t-110.5 -22q-47 0 -84.5 13.5t-64.5 38.5l-6 -40h-111l4 60v0q-18 -19 -42.5 -36t-55 -26.5t-68.5 -9.5zM299 110q43 0 77 22t54.5 59t22.5 82q2 36 -10.5 63.5t-37.5 42.5t-60 15q-42 0 -75.5 -21t-54 -57t-22.5 -81
q-2 -36 10 -64.5t37 -44.5t59 -16zM606 302h226q3 32 -8 54.5t-32.5 34.5t-50.5 12q-28 0 -55 -11.5t-47.5 -33.5t-32.5 -56zM453 544l-3 92l231 125v0l5 -106z" />
    <glyph glyph-name="g.ss03" horiz-adv-x="663" 
d="M250 -232q-47 0 -90 11t-77 35.5t-52 62.5t-14 91h139q0 -24 14 -42t39 -27.5t58 -9.5q35 0 67 14t55.5 44t31.5 76l10 60q-18 -23 -44 -41.5t-59.5 -29t-73.5 -10.5q-65 0 -112 29.5t-71.5 81t-21.5 115.5q3 60 26 112t62.5 91.5t90.5 62t110 22.5q54 0 95.5 -21.5
t60.5 -54.5v0l27 64h125l-84 -475q-12 -67 -41.5 -116t-72 -81.5t-93 -48t-105.5 -15.5zM304 122q43 0 78.5 21t56.5 56t23 78q2 34 -11 60t-39.5 41.5t-63.5 15.5q-43 0 -77.5 -20.5t-55 -55t-22.5 -77.5q-1 -33 11.5 -60t38 -43t61.5 -16z" />
    <glyph glyph-name="gbreve.ss03" horiz-adv-x="663" 
d="M250 -232q-47 0 -90 11t-77 35.5t-52 62.5t-14 91h139q0 -24 14 -42t39 -27.5t58 -9.5q35 0 67 14t55.5 44t31.5 76l10 60q-18 -23 -44 -41.5t-59.5 -29t-73.5 -10.5q-65 0 -112 29.5t-71.5 81t-21.5 115.5q3 60 26 112t62.5 91.5t90.5 62t110 22.5q54 0 95.5 -21.5
t60.5 -54.5v0l27 64h125l-84 -475q-12 -67 -41.5 -116t-72 -81.5t-93 -48t-105.5 -15.5zM304 122q43 0 78.5 21t56.5 56t23 78q2 34 -11 60t-39.5 41.5t-63.5 15.5q-43 0 -77.5 -20.5t-55 -55t-22.5 -77.5q-1 -33 11.5 -60t38 -43t61.5 -16zM362 557q-48 0 -80.5 19.5
t-46 55t-4.5 83.5l3 17h72q-6 -33 10 -52t65 -19q48 0 70.5 19t28.5 52h73l-3 -17q-8 -49 -34 -84.5t-65.5 -54.5t-88.5 -19z" />
    <glyph glyph-name="uni0123.ss03" horiz-adv-x="663" 
d="M250 -232q-47 0 -90 11t-77 35.5t-52 62.5t-14 91h139q0 -24 14 -42t39 -27.5t58 -9.5q35 0 67 14t55.5 44t31.5 76l10 60q-18 -23 -44 -41.5t-59.5 -29t-73.5 -10.5q-65 0 -112 29.5t-71.5 81t-21.5 115.5q3 60 26 112t62.5 91.5t90.5 62t110 22.5q54 0 95.5 -21.5
t60.5 -54.5v0l27 64h125l-84 -475q-12 -67 -41.5 -116t-72 -81.5t-93 -48t-105.5 -15.5zM304 122q43 0 78.5 21t56.5 56t23 78q2 34 -11 60t-39.5 41.5t-63.5 15.5q-43 0 -77.5 -20.5t-55 -55t-22.5 -77.5q-1 -33 11.5 -60t38 -43t61.5 -16zM461 785l-9 -56q-23 0 -36.5 -9
t-17.5 -28l-2 -18h46l-19 -108h-107q-1 29 0 52t5 47q10 57 45.5 88.5t94.5 31.5z" />
    <glyph glyph-name="gdotaccent.ss03" horiz-adv-x="663" 
d="M250 -232q-47 0 -90 11t-77 35.5t-52 62.5t-14 91h139q0 -24 14 -42t39 -27.5t58 -9.5q35 0 67 14t55.5 44t31.5 76l10 60q-18 -23 -44 -41.5t-59.5 -29t-73.5 -10.5q-65 0 -112 29.5t-71.5 81t-21.5 115.5q3 60 26 112t62.5 91.5t90.5 62t110 22.5q54 0 95.5 -21.5
t60.5 -54.5v0l27 64h125l-84 -475q-12 -67 -41.5 -116t-72 -81.5t-93 -48t-105.5 -15.5zM304 122q43 0 78.5 21t56.5 56t23 78q2 34 -11 60t-39.5 41.5t-63.5 15.5q-43 0 -77.5 -20.5t-55 -55t-22.5 -77.5q-1 -33 11.5 -60t38 -43t61.5 -16zM375 568q-27 0 -46 19t-19 46
t19 46t46 19q28 0 46.5 -19t18.5 -46t-18.5 -46t-46.5 -19z" />
    <glyph glyph-name="u.ss04" horiz-adv-x="617" 
d="M263 -12q-125 0 -175.5 63.5t-30.5 177.5l48 275h139l-47 -266q-8 -47 -3 -79.5t26.5 -48.5t60.5 -16t65.5 16t43.5 48.5t25 79.5l47 266h139l-48 -275q-20 -114 -93 -177.5t-197 -63.5z" />
    <glyph glyph-name="uacute.ss04" horiz-adv-x="617" 
d="M263 -12q-125 0 -175.5 63.5t-30.5 177.5l48 275h139l-47 -266q-8 -47 -3 -79.5t26.5 -48.5t60.5 -16t65.5 16t43.5 48.5t25 79.5l47 266h139l-48 -275q-20 -114 -93 -177.5t-197 -63.5zM264 544l-3 92l231 125v0l5 -106z" />
    <glyph glyph-name="ubreve.ss04" horiz-adv-x="617" 
d="M263 -12q-125 0 -175.5 63.5t-30.5 177.5l48 275h139l-47 -266q-8 -47 -3 -79.5t26.5 -48.5t60.5 -16t65.5 16t43.5 48.5t25 79.5l47 266h139l-48 -275q-20 -114 -93 -177.5t-197 -63.5zM362 557q-48 0 -80.5 19.5t-46 55t-4.5 83.5l3 17h72q-6 -33 10 -52t65 -19
q48 0 70.5 19t28.5 52h73l-3 -17q-8 -49 -34 -84.5t-65.5 -54.5t-88.5 -19z" />
    <glyph glyph-name="ucircumflex.ss04" horiz-adv-x="617" 
d="M263 -12q-125 0 -175.5 63.5t-30.5 177.5l48 275h139l-47 -266q-8 -47 -3 -79.5t26.5 -48.5t60.5 -16t65.5 16t43.5 48.5t25 79.5l47 266h139l-48 -275q-20 -114 -93 -177.5t-197 -63.5zM212 548l18 99l163 82l134 -82l-18 -99l-133 85z" />
    <glyph glyph-name="udieresis.ss04" horiz-adv-x="617" 
d="M263 -12q-125 0 -175.5 63.5t-30.5 177.5l48 275h139l-47 -266q-8 -47 -3 -79.5t26.5 -48.5t60.5 -16t65.5 16t43.5 48.5t25 79.5l47 266h139l-48 -275q-20 -114 -93 -177.5t-197 -63.5zM284 570q-28 0 -46.5 18.5t-18.5 46.5t18.5 46.5t46.5 18.5t46.5 -18.5t18.5 -46.5
t-18.5 -46.5t-46.5 -18.5zM470 570q-28 0 -46.5 18.5t-18.5 46.5t18.5 46.5t46.5 18.5q27 0 46 -18.5t19 -46.5t-19 -46.5t-46 -18.5z" />
    <glyph glyph-name="ugrave.ss04" horiz-adv-x="617" 
d="M263 -12q-125 0 -175.5 63.5t-30.5 177.5l48 275h139l-47 -266q-8 -47 -3 -79.5t26.5 -48.5t60.5 -16t65.5 16t43.5 48.5t25 79.5l47 266h139l-48 -275q-20 -114 -93 -177.5t-197 -63.5zM465 544l-203 111l33 106v0l200 -125z" />
    <glyph glyph-name="uhungarumlaut.ss04" horiz-adv-x="617" 
d="M263 -12q-125 0 -175.5 63.5t-30.5 177.5l48 275h139l-47 -266q-8 -47 -3 -79.5t26.5 -48.5t60.5 -16t65.5 16t43.5 48.5t25 79.5l47 266h139l-48 -275q-20 -114 -93 -177.5t-197 -63.5zM350 551l121 188h113l-146 -188h-88zM174 551l105 188h112l-130 -188h-87z" />
    <glyph glyph-name="umacron.ss04" horiz-adv-x="617" 
d="M263 -12q-125 0 -175.5 63.5t-30.5 177.5l48 275h139l-47 -266q-8 -47 -3 -79.5t26.5 -48.5t60.5 -16t65.5 16t43.5 48.5t25 79.5l47 266h139l-48 -275q-20 -114 -93 -177.5t-197 -63.5zM177 585l18 99h381l-17 -99h-382z" />
    <glyph glyph-name="uogonek.ss04" horiz-adv-x="617" 
d="M263 -12q-125 0 -175.5 63.5t-30.5 177.5l48 275h139l-47 -266q-8 -47 -3 -79.5t26.5 -48.5t60.5 -16t65.5 16t43.5 48.5t25 79.5l47 266h139l-48 -275q-20 -114 -93 -177.5t-197 -63.5zM268 -202q-37 0 -66 11.5t-43.5 35.5t-8.5 60q6 28 23 53.5t53.5 49.5t96.5 48
l48 19l19 -65l-54 -25q-40 -18 -57.5 -34t-20.5 -33q-3 -18 8 -28.5t35 -10.5q15 0 34 4t41 11l-15 -82q-20 -6 -44 -10t-49 -4z" />
    <glyph glyph-name="uring.ss04" horiz-adv-x="617" 
d="M263 -12q-125 0 -175.5 63.5t-30.5 177.5l48 275h139l-47 -266q-8 -47 -3 -79.5t26.5 -48.5t60.5 -16t65.5 16t43.5 48.5t25 79.5l47 266h139l-48 -275q-20 -114 -93 -177.5t-197 -63.5zM382 556q-47 0 -81.5 30.5t-34.5 84.5q0 53 34.5 83.5t81.5 30.5q49 0 83 -30.5
t34 -83.5q0 -54 -34 -84.5t-83 -30.5zM382 618q22 0 37 14.5t15 38.5t-15 38t-36 14t-36 -13.5t-15 -38.5q0 -24 15 -38.5t35 -14.5z" />
    <glyph glyph-name="utilde.ss04" horiz-adv-x="617" 
d="M263 -12q-125 0 -175.5 63.5t-30.5 177.5l48 275h139l-47 -266q-8 -47 -3 -79.5t26.5 -48.5t60.5 -16t65.5 16t43.5 48.5t25 79.5l47 266h139l-48 -275q-20 -114 -93 -177.5t-197 -63.5zM181 561q22 69 60 100t85 31q29 0 47.5 -11.5t34 -22.5t36.5 -11q16 0 30 11t21 34
h74q-22 -69 -60.5 -100.5t-85.5 -31.5q-29 0 -48 11.5t-34 23t-36 11.5q-17 0 -30 -11t-21 -34h-73z" />
    <glyph glyph-name="y.ss05" horiz-adv-x="626" 
d="M228 -232q-42 0 -81.5 11t-70.5 34t-48 59t-13 87h138q1 -23 12 -40.5t31.5 -26.5t47.5 -9q37 0 64 15.5t45.5 47t26.5 79.5l9 48v0q-29 -32 -71.5 -52.5t-101.5 -20.5q-63 0 -103.5 25.5t-55 77t-0.5 127.5l48 274h139l-46 -266q-8 -40 -1.5 -67.5t27.5 -42.5t57 -15
q37 0 65 16t47 45.5t26 70.5l45 259h140l-84 -480q-15 -85 -58.5 -142t-104.5 -85.5t-129 -28.5z" />
    <glyph glyph-name="yacute.ss05" horiz-adv-x="626" 
d="M228 -232q-42 0 -81.5 11t-70.5 34t-48 59t-13 87h138q1 -23 12 -40.5t31.5 -26.5t47.5 -9q37 0 64 15.5t45.5 47t26.5 79.5l9 48v0q-29 -32 -71.5 -52.5t-101.5 -20.5q-63 0 -103.5 25.5t-55 77t-0.5 127.5l48 274h139l-46 -266q-8 -40 -1.5 -67.5t27.5 -42.5t57 -15
q37 0 65 16t47 45.5t26 70.5l45 259h140l-84 -480q-15 -85 -58.5 -142t-104.5 -85.5t-129 -28.5zM270 544l-3 92l231 125v0l5 -106z" />
    <glyph glyph-name="ycircumflex.ss05" horiz-adv-x="626" 
d="M228 -232q-42 0 -81.5 11t-70.5 34t-48 59t-13 87h138q1 -23 12 -40.5t31.5 -26.5t47.5 -9q37 0 64 15.5t45.5 47t26.5 79.5l9 48v0q-29 -32 -71.5 -52.5t-101.5 -20.5q-63 0 -103.5 25.5t-55 77t-0.5 127.5l48 274h139l-46 -266q-8 -40 -1.5 -67.5t27.5 -42.5t57 -15
q37 0 65 16t47 45.5t26 70.5l45 259h140l-84 -480q-15 -85 -58.5 -142t-104.5 -85.5t-129 -28.5zM218 548l18 99l163 82l134 -82l-18 -99l-133 85z" />
    <glyph glyph-name="ydieresis.ss05" horiz-adv-x="626" 
d="M228 -232q-42 0 -81.5 11t-70.5 34t-48 59t-13 87h138q1 -23 12 -40.5t31.5 -26.5t47.5 -9q37 0 64 15.5t45.5 47t26.5 79.5l9 48v0q-29 -32 -71.5 -52.5t-101.5 -20.5q-63 0 -103.5 25.5t-55 77t-0.5 127.5l48 274h139l-46 -266q-8 -40 -1.5 -67.5t27.5 -42.5t57 -15
q37 0 65 16t47 45.5t26 70.5l45 259h140l-84 -480q-15 -85 -58.5 -142t-104.5 -85.5t-129 -28.5zM289 570q-28 0 -46.5 18.5t-18.5 46.5t18.5 46.5t46.5 18.5t46.5 -18.5t18.5 -46.5t-18.5 -46.5t-46.5 -18.5zM475 570q-28 0 -46.5 18.5t-18.5 46.5t18.5 46.5t46.5 18.5
q27 0 46 -18.5t19 -46.5t-19 -46.5t-46 -18.5z" />
    <glyph glyph-name="ygrave.ss05" horiz-adv-x="626" 
d="M228 -232q-42 0 -81.5 11t-70.5 34t-48 59t-13 87h138q1 -23 12 -40.5t31.5 -26.5t47.5 -9q37 0 64 15.5t45.5 47t26.5 79.5l9 48v0q-29 -32 -71.5 -52.5t-101.5 -20.5q-63 0 -103.5 25.5t-55 77t-0.5 127.5l48 274h139l-46 -266q-8 -40 -1.5 -67.5t27.5 -42.5t57 -15
q37 0 65 16t47 45.5t26 70.5l45 259h140l-84 -480q-15 -85 -58.5 -142t-104.5 -85.5t-129 -28.5zM471 544l-203 111l33 106v0l200 -125z" />
    <glyph glyph-name="uni1EF9.ss05" horiz-adv-x="626" 
d="M228 -232q-42 0 -81.5 11t-70.5 34t-48 59t-13 87h138q1 -23 12 -40.5t31.5 -26.5t47.5 -9q37 0 64 15.5t45.5 47t26.5 79.5l9 48v0q-29 -32 -71.5 -52.5t-101.5 -20.5q-63 0 -103.5 25.5t-55 77t-0.5 127.5l48 274h139l-46 -266q-8 -40 -1.5 -67.5t27.5 -42.5t57 -15
q37 0 65 16t47 45.5t26 70.5l45 259h140l-84 -480q-15 -85 -58.5 -142t-104.5 -85.5t-129 -28.5zM187 561q22 69 60 100t85 31q29 0 47.5 -11.5t34 -22.5t36.5 -11q16 0 30 11t21 34h74q-22 -69 -60.5 -100.5t-85.5 -31.5q-29 0 -48 11.5t-34 23t-36 11.5q-17 0 -30 -11
t-21 -34h-73z" />
    <glyph glyph-name="one.ss07" horiz-adv-x="432" 
d="M102 0l96 539l-122 -27l19 110l191 78h85l-124 -700h-145zM12 110h366l-20 -110h-366z" />
    <glyph glyph-name="three.ss07" horiz-adv-x="604" 
d="M256 -6q-61 0 -104.5 16.5t-69.5 46.5t-35.5 72t-3.5 94h134q-8 -48 17.5 -80t82.5 -32q39 0 69 17t47 47t18 69q3 47 -25 74.5t-81 27.5h-101l16 91l229 177l37 -34h-343l21 120h438l-19 -104l-258 -199l-55 39h69q100 0 154 -49t50 -136q-3 -76 -40.5 -134
t-101.5 -90.5t-145 -32.5z" />
    <glyph glyph-name="four.ss07" horiz-adv-x="659" 
d="M338 0l23 130h-336l20 112l369 458h149l-367 -449h195l29 156l135 30l-33 -186h90l-22 -121h-89l-24 -130h-139z" />
    <glyph glyph-name="six.ss07" horiz-adv-x="613" 
d="M263 -9q-70 0 -120 27t-75.5 75t-22.5 110q1 37 11.5 72t27 67t38 61.5t44.5 56.5l207 243h155l-251 -286l3 30q15 6 31 10.5t32.5 6.5t32.5 2q59 0 102 -24.5t65 -69t19 -104.5q-4 -81 -44.5 -143.5t-107 -98t-147.5 -35.5zM283 110q42 0 74 18t51 50.5t21 75.5
q1 31 -10.5 55t-35 37.5t-57.5 13.5q-41 0 -74 -19t-52 -52t-21 -75q-2 -47 26 -75.5t78 -28.5z" />
    <glyph glyph-name="nine.ss07" horiz-adv-x="612" 
d="M119 0l251 286l-3 -30q-14 -6 -30 -10.5t-32.5 -6.5t-33.5 -2q-58 0 -101 24.5t-65 69t-19 104.5q3 81 43.5 143.5t107 98t147.5 35.5q71 0 121 -27.5t75.5 -75.5t22.5 -110q-2 -37 -12 -71.5t-27 -66.5t-38 -61.5t-44 -56.5l-207 -243h-156zM321 342q42 0 74.5 19
t51.5 52.5t21 75.5q2 47 -25.5 75.5t-78.5 28.5q-41 0 -73.5 -18.5t-51.5 -51t-20 -74.5q-3 -47 24 -77t78 -30z" />
    <glyph glyph-name="one.dnom" horiz-adv-x="241" 
d="M48 0l45 252l-73 -16l12 66l125 50h60l-62 -352h-107z" />
    <glyph glyph-name="two.dnom" horiz-adv-x="364" 
d="M-7 0l14 79l133 80q31 20 50.5 40.5t24.5 44.5q3 19 -5 29t-23 10q-18 0 -30.5 -11.5t-18.5 -32.5h-106q12 52 58.5 87t119.5 35q47 0 74.5 -16t38.5 -41t6 -53q-7 -38 -38.5 -66.5t-94.5 -60.5l-75 -40h177l-15 -84h-290z" />
    <glyph glyph-name="three.dnom" horiz-adv-x="358" 
d="M133 -4q-78 0 -111 31t-28 85h109q-1 -14 3.5 -23t14 -13t20.5 -4q20 0 33.5 10.5t16.5 29.5q4 21 -7.5 31.5t-34.5 10.5h-38l9 51h34q23 0 37.5 10t18.5 31q3 17 -6.5 27t-28.5 10q-20 0 -32 -9t-19 -27h-101q10 46 54.5 80t121.5 34q65 0 99.5 -30t26.5 -74
q-5 -31 -26.5 -50.5t-53.5 -26.5l-1 -3q33 -10 48 -29.5t10 -52.5q-8 -44 -54 -71.5t-115 -27.5z" />
    <glyph glyph-name="four.dnom" horiz-adv-x="353" 
d="M147 0l11 60h-165l13 70l191 218h115l-38 -216h36l-13 -72h-36l-11 -60h-103zM108 132h70l18 103v0z" />
    <glyph glyph-name="one.numr" horiz-adv-x="241" 
d="M110 352l45 252l-73 -16l12 66l125 50h60l-62 -352h-107z" />
    <glyph glyph-name="two.numr" horiz-adv-x="364" 
d="M55 352l14 79l133 80q31 20 50.5 40.5t24.5 44.5q3 19 -5 29t-23 10q-18 0 -30.5 -11.5t-18.5 -32.5h-106q12 52 58.5 87t119.5 35q47 0 74.5 -16t38.5 -41t6 -53q-7 -38 -38.5 -66.5t-94.5 -60.5l-75 -40h177l-15 -84h-290z" />
    <glyph glyph-name="three.numr" horiz-adv-x="358" 
d="M195 348q-78 0 -111 31t-28 85h109q-1 -14 3.5 -23t14 -13t20.5 -4q20 0 33.5 10.5t16.5 29.5q4 21 -7.5 31.5t-34.5 10.5h-38l9 51h34q23 0 37.5 10t18.5 31q3 17 -6.5 27t-28.5 10q-20 0 -32 -9t-19 -27h-101q10 46 54.5 80t121.5 34q65 0 99.5 -30t26.5 -74
q-5 -31 -26.5 -50.5t-53.5 -26.5l-1 -3q33 -10 48 -29.5t10 -52.5q-8 -44 -54 -71.5t-115 -27.5z" />
    <glyph glyph-name="four.numr" horiz-adv-x="353" 
d="M209 352l11 60h-165l13 70l191 218h115l-38 -216h36l-13 -72h-36l-11 -60h-103zM170 484h70l18 103v0z" />
    <glyph glyph-name="comma.ss01" horiz-adv-x="224" 
d="M-11 -105l10 56q26 0 41 15t20 47l3 18h-57l19 109h123q4 -29 3 -56.5t-6 -51.5q-10 -64 -49 -100.5t-107 -36.5z" />
    <glyph glyph-name="semicolon.ss01" horiz-adv-x="260" 
d="M160 356q-37 0 -61 23t-24 57q0 33 24 56.5t61 23.5t61 -23t24 -57t-24 -57t-61 -23zM10 -105l10 56q26 0 41 15t20 47l3 18h-57l19 109h123q4 -29 3 -56.5t-6 -51.5q-10 -64 -49 -100.5t-107 -36.5z" />
    <glyph glyph-name="quotesinglbase.ss01" horiz-adv-x="217" 
d="M-10 -103l10 56q26 0 40.5 15t19.5 46l4 19h-58l19 109h116q4 -29 3 -56.5t-5 -51.5q-11 -64 -49 -100.5t-100 -36.5z" />
    <glyph glyph-name="quotedblbase.ss01" horiz-adv-x="385" 
d="M158 -103l10 56q26 0 40.5 15t19.5 46l4 19h-58l19 109h116q4 -29 3 -56.5t-5 -51.5q-11 -64 -49 -100.5t-100 -36.5zM-10 -103l10 56q26 0 40.5 15t19.5 46l4 19h-58l19 109h116q4 -29 3 -56.5t-5 -51.5q-11 -64 -49 -100.5t-100 -36.5z" />
    <glyph glyph-name="quotedblleft.ss01" horiz-adv-x="374" 
d="M247 738l-10 -56q-25 0 -40 -15t-20 -46l-4 -19h58l-20 -109h-115q-4 30 -2.5 57t4.5 51q11 64 49 100.5t100 36.5zM415 738l-10 -56q-25 0 -40 -15t-21 -46l-3 -19h58l-20 -109h-116q-3 30 -2 57t5 51q11 64 49 100.5t100 36.5z" />
    <glyph glyph-name="quotedblright.ss01" horiz-adv-x="374" 
d="M255 493l10 56q26 0 40.5 15t19.5 46l4 19h-58l19 109h116q4 -29 3 -56.5t-5 -51.5q-11 -64 -49 -100.5t-100 -36.5zM88 493l10 56q26 0 40.5 15t19.5 46l4 19h-58l19 109h116q4 -29 3 -56.5t-5 -51.5q-11 -64 -49 -100.5t-100 -36.5z" />
    <glyph glyph-name="quoteleft.ss01" horiz-adv-x="206" 
d="M247 739l-10 -56q-25 0 -40 -15t-20 -47l-4 -18h58l-20 -109h-115q-4 30 -2.5 57t4.5 51q11 64 49 100.5t100 36.5z" />
    <glyph glyph-name="quoteright.ss01" horiz-adv-x="206" 
d="M88 493l10 56q26 0 40.5 15t19.5 46l4 19h-58l19 109h116q4 -29 3 -56.5t-5 -51.5q-11 -64 -49 -100.5t-100 -36.5z" />
    <glyph glyph-name="quotedblleft.ss08" horiz-adv-x="776" 
d="M405 -12q75 0 140.5 28t115.5 78t78 115.5t28 140.5t-28 140.5t-78 115.5t-115.5 78t-140.5 28t-140.5 -28t-115.5 -78t-78 -115.5t-28 -140.5t28 -140.5t78 -115.5t115.5 -78t140.5 -28zM399 483l-11 -60q-28 0 -44.5 -16.5t-22.5 -50.5l-4 -21h63l-21 -118h-125
q-4 32 -2.5 61.5t5.5 56.5q12 70 53 109t109 39zM580 483l-10 -60q-28 0 -45 -16.5t-22 -50.5l-4 -21h63l-21 -118h-126q-3 32 -1.5 61.5t4.5 56.5q12 70 53.5 109t108.5 39z" />
    <glyph glyph-name="quotedblright.ss08" horiz-adv-x="776" 
d="M405 712q-75 0 -140.5 -28t-115.5 -78t-78 -115.5t-28 -140.5t28 -140.5t78 -115.5t115.5 -78t140.5 -28t140.5 28t115.5 78t78 115.5t28 140.5t-28 140.5t-78 115.5t-115.5 78t-140.5 28zM412 217l10 60q29 0 45.5 16.5t21.5 50.5l4 21h-63l21 118h125q4 -32 3 -61.5
t-5 -56.5q-12 -69 -53.5 -108.5t-108.5 -39.5zM230 217l11 60q29 0 45 16.5t22 50.5l4 21h-63l21 118h125q4 -32 3 -61.5t-6 -56.5q-12 -69 -53 -108.5t-109 -39.5z" />
    <glyph glyph-name="arrowup.ss08" horiz-adv-x="776" 
d="M405 -12q-75 0 -140.5 28t-115.5 78t-78 115.5t-28 140.5t28 140.5t78 115.5t115.5 78t140.5 28t140.5 -28t115.5 -77.5t78 -115t28 -141.5q0 -75 -28 -140.5t-78 -115.5t-115.5 -78t-140.5 -28zM360 165h92v238l105 -105l58 59l-183 180h-53l-183 -180l58 -59l106 105
v-238z" />
    <glyph glyph-name="uni2197.ss08" horiz-adv-x="776" 
d="M405 -12q-75 0 -140.5 28t-115.5 78t-78 115.5t-28 140.5t28 140.5t78 115.5t115.5 78t140.5 28t140.5 -28t115.5 -77.5t78 -115.5t28 -141t-28 -140.5t-78 -115.5t-115.5 -78t-140.5 -28zM310 196l170 168v-163h80v267l-38 36h-266v-80h163l-169 -168z" />
    <glyph glyph-name="arrowright.ss08" horiz-adv-x="776" 
d="M405 -12q-75 0 -140.5 28t-115.5 78t-78 115.5t-28 140.5t28 140.5t78 115.5t115.5 78t140.5 28t140.5 -28t115.5 -78t78 -115.5t28 -140.5t-28 -140.5t-77.5 -115.5t-115.5 -78t-141 -28zM411 142l180 181v54l-180 182l-58 -57l110 -108h-244v-87h244l-110 -108z" />
    <glyph glyph-name="uni2198.ss08" horiz-adv-x="776" 
d="M405 712q75 0 140.5 -28t115.5 -78t78 -115.5t28 -140.5t-28 -141t-78 -115.5t-115.5 -77.5t-140.5 -28t-140.5 28t-115.5 78t-78 115.5t-28 140.5t28 140.5t78 115.5t115.5 78t140.5 28zM310 504l-60 -60l169 -168h-163v-80h266l38 36v267h-80v-163z" />
    <glyph glyph-name="arrowdown.ss08" horiz-adv-x="776" 
d="M405 712q75 0 140.5 -28t115.5 -78t78 -115.5t28 -140.5q0 -76 -28 -141.5t-78 -115t-115.5 -77.5t-140.5 -28t-140.5 28t-115.5 78t-78 115.5t-28 140.5t28 140.5t78 115.5t115.5 78t140.5 28zM360 535v-238l-106 105l-58 -59l183 -180h53l183 180l-58 59l-105 -105v238
h-92z" />
    <glyph glyph-name="uni2199.ss08" horiz-adv-x="776" 
d="M405 712q75 0 140.5 -28t115.5 -78t78 -115.5t28 -140.5t-28 -140.5t-78 -115.5t-115.5 -78t-140.5 -28t-140.5 28t-115.5 77.5t-78 115.5t-28 141t28 140.5t78 115.5t115.5 78t140.5 28zM501 504l-171 -168v163h-80v-267l38 -36h266v80h-162l168 168z" />
    <glyph glyph-name="arrowleft.ss08" horiz-adv-x="776" 
d="M405 -12q-75 0 -140.5 28t-115.5 78t-78 115.5t-28 140.5t28 140.5t78 115.5t115.5 78t140.5 28t140.5 -28t115.5 -78t78 -115.5t28 -140.5t-28 -140.5t-78 -115.5t-115.5 -78t-140.5 -28zM399 142l59 57l-110 108h243v87h-243l110 108l-59 57l-180 -182v-54z" />
    <glyph glyph-name="uni2196.ss08" horiz-adv-x="776" 
d="M405 -12q-75 0 -140.5 28t-115.5 78t-78 115.5t-28 140.5t28 141t78 115.5t115.5 77.5t140.5 28t140.5 -28t115.5 -78t78 -115.5t28 -140.5t-28 -140.5t-78 -115.5t-115.5 -78t-140.5 -28zM501 196l59 60l-168 168h162v80h-266l-38 -36v-267h80v163z" />
    <glyph glyph-name="arrowboth.ss08" horiz-adv-x="776" 
d="M405 -12q-75 0 -140.5 28t-115.5 78t-78 115.5t-28 140.5t28 140.5t78 115.5t115.5 78t140.5 28t140.5 -28t115.5 -77.5t78 -115.5t28 -141t-28 -140.5t-78 -115.5t-115.5 -78t-140.5 -28zM310 147l66 50l-90 108h244l-90 -108l66 -50l143 177v54l-144 175l-65 -49
l90 -109h-244l90 109l-65 49l-145 -175v-54z" />
    <glyph glyph-name="arrowupdn.ss08" horiz-adv-x="776" 
d="M405 -12q-75 0 -140.5 28t-115.5 78t-78 115.5t-28 140.5t28 140.5t78 115.5t115.5 78t140.5 28t140.5 -28t115.5 -78t78 -115.5t28 -140.5t-28 -140.5t-77.5 -115.5t-115.5 -78t-141 -28zM380 110h53l175 143l-48 65l-109 -88v240l109 -88l48 65l-175 143h-53l-177 -143
l50 -65l108 88v-240l-108 88l-50 -65z" />
    <glyph glyph-name="uni030C.alt" 
d="M45 506l10 56q24 0 36.5 8.5t16.5 27.5l3 18h-47l20 109h106q2 -29 1 -52t-5 -47q-10 -58 -46 -89t-95 -31z" />
    <glyph glyph-name="uni0308.case" 
d="M169 770q-28 0 -46.5 18.5t-18.5 46.5t18.5 46.5t46.5 18.5t46.5 -18.5t18.5 -46.5t-18.5 -46.5t-46.5 -18.5zM355 770q-28 0 -46.5 18.5t-18.5 46.5t18.5 46.5t46.5 18.5q27 0 46 -18.5t19 -46.5t-19 -46.5t-46 -18.5z" />
    <glyph glyph-name="uni0307.case" 
d="M169 769q-27 0 -46 19t-19 46t19 46t46 19q28 0 46.5 -19t18.5 -46t-18.5 -46t-46.5 -19z" />
    <glyph glyph-name="gravecomb.case" 
d="M312 753l-203 111l33 106v0l200 -125z" />
    <glyph glyph-name="acutecomb.case" 
d="M108 753l-3 92l231 125v0l5 -106z" />
    <glyph glyph-name="uni030B.case" 
d="M266 760l121 188h113l-146 -188h-88zM90 760l105 188h112l-130 -188h-87z" />
    <glyph glyph-name="uni0302.case" 
d="M89 760l18 99l163 82l134 -82l-18 -99l-133 85z" />
    <glyph glyph-name="uni030C.case" 
d="M420 942l-18 -100l-163 -82l-134 82l17 100l134 -86z" />
    <glyph glyph-name="uni0306.case" 
d="M250 769q-48 0 -80.5 19.5t-46 55t-4.5 83.5l3 17h72q-6 -33 10 -52t65 -19q48 0 70.5 19t28.5 52h73l-3 -17q-8 -49 -34 -84.5t-65.5 -54.5t-88.5 -19z" />
    <glyph glyph-name="uni030A.case" 
d="M230 770q-47 0 -81.5 30.5t-34.5 84.5q0 53 34.5 83.5t81.5 30.5q49 0 83 -30.5t34 -83.5q0 -54 -34 -84.5t-83 -30.5zM230 832q22 0 37 14.5t15 38.5t-15 38t-36 14t-36 -13.5t-15 -38.5q0 -24 15 -38.5t35 -14.5z" />
    <glyph glyph-name="tildecomb.case" 
d="M92 769q22 69 60 100t85 31q29 0 47.5 -11.5t34 -22.5t36.5 -11q16 0 30 11t21 34h74q-22 -69 -60.5 -100.5t-85.5 -31.5q-29 0 -48 11.5t-34 23t-36 11.5q-17 0 -30 -11t-21 -34h-73z" />
    <glyph glyph-name="uni0304.case" 
d="M99 815l18 99h381l-17 -99h-382z" />
    <glyph glyph-name="uni0327.case" 
d="M-91 -264l14 79h117q26 0 40.5 8.5t15.5 27.5q1 17 -9.5 23.5t-33.5 6.5h-64l22 126h86l-9 -53q30 0 56 -9.5t41.5 -30t13.5 -55.5q-1 -39 -22.5 -66.5t-55.5 -42t-74 -14.5h-138z" />
    <glyph glyph-name="uni0328.case" 
d="M55 -212q-37 0 -66 11.5t-43.5 35.5t-8.5 60q6 28 23 53.5t53.5 49.5t96.5 48l48 19l19 -65l-54 -25q-40 -18 -57.5 -34t-20.5 -33q-3 -18 8 -28.5t35 -10.5q15 0 34 4t41 11l-15 -82q-20 -6 -44 -10t-49 -4z" />
    </font>
</defs>
</svg>
