<?xml version="1.0" standalone="no"?>
<!DOCTYPE svg PUBLIC "-//W3C//DTD SVG 1.1//EN" "http://www.w3.org/Graphics/SVG/1.1/DTD/svg11.dtd" >
<svg xmlns="http://www.w3.org/2000/svg" xmlns:xlink="http://www.w3.org/1999/xlink" version="1.1">
<metadata>
Created by FontForge 20201107 at Wed Jun 14 12:00:55 2023
 By 
Copyright 2014 The DM Sans Project Authors (https://github.com/googlefonts/dm-fonts)
</metadata>
<defs>
<font id="DMSans-Light" horiz-adv-x="0" >
  <font-face 
    font-family="DM Sans Light"
    font-weight="300"
    font-stretch="normal"
    units-per-em="1000"
    panose-1="0 0 0 0 0 0 0 0 0 0"
    ascent="800"
    descent="-200"
    x-height="504"
    cap-height="700"
    bbox="-64 -258 1061 964"
    underline-thickness="50"
    underline-position="-125"
    unicode-range="U+000D-FB02"
  />
<missing-glyph horiz-adv-x="557" 
d="M78 0v700h401v-700h-401zM148 57h261v586h-261v-586z" />
    <glyph glyph-name="fi" unicode="fi" horiz-adv-x="551" 
d="M101 0v445h-78v59h78v87q0 44 14.5 72.5t44 42.5t73.5 14h49v-60h-39q-38 0 -55 -16t-17 -56v-84h299v-504h-70v445h-229v-445h-70zM436 609q-20 0 -35.5 15t-15.5 37t15.5 36t35.5 14q21 0 36 -14t15 -36t-15 -37t-36 -15z" />
    <glyph glyph-name="fl" unicode="fl" horiz-adv-x="545" 
d="M101 0v591q0 44 14.5 72.5t43.5 42.5t73 14h57v-60h-45q-40 0 -56.5 -16t-16.5 -56v-588h-70zM23 444v60h279v-60h-279zM404 0v720h70v-720h-70z" />
    <glyph glyph-name=".notdef" horiz-adv-x="557" 
d="M78 0v700h401v-700h-401zM148 57h261v586h-261v-586z" />
    <glyph glyph-name=".null" 
 />
    <glyph glyph-name="nonmarkingreturn" horiz-adv-x="333" 
 />
    <glyph glyph-name="CR" unicode="&#xd;" horiz-adv-x="600" 
 />
    <glyph glyph-name="space" unicode=" " horiz-adv-x="275" 
 />
    <glyph glyph-name="exclam" unicode="!" horiz-adv-x="237" 
d="M89 190l-8 510h76l-9 -510h-59zM118 -5q-22 0 -36 15t-14 37t14 36.5t36 14.5t36.5 -14.5t14.5 -36.5t-14.5 -37t-36.5 -15z" />
    <glyph glyph-name="quotedbl" unicode="&#x22;" horiz-adv-x="272" 
d="M175 555l-11 200h69l-9 -200h-49zM49 555l-11 200h70l-10 -200h-49z" />
    <glyph glyph-name="numbersign" unicode="#" horiz-adv-x="792" 
d="M432 0l147 700h66l-147 -700h-66zM147 0l146 700h67l-147 -700h-66zM51 204v62h651v-62h-651zM89 434v62h652v-62h-652z" />
    <glyph glyph-name="dollar" unicode="$" horiz-adv-x="576" 
d="M254 -87v878h67v-878h-67zM296 -12q-77 0 -133.5 28t-86.5 78.5t-30 115.5h73q0 -44 20 -81t59 -59.5t98 -22.5q52 0 87.5 17.5t54.5 46.5t19 66q0 44 -18.5 71t-50.5 44t-72.5 29.5t-85.5 27.5q-81 28 -119 69t-39 105q0 55 25.5 97.5t74.5 67t116 24.5
q65 0 113.5 -24.5t75.5 -68t27 -99.5h-72q0 32 -16.5 62.5t-49 50t-82.5 19.5q-41 0 -72.5 -14.5t-49.5 -42t-18 -64.5q0 -36 16 -59t45 -38t68 -27.5t87 -28.5q49 -17 87 -41t60 -61.5t22 -94.5q0 -49 -25.5 -93t-77.5 -72t-130 -28z" />
    <glyph glyph-name="percent" unicode="%" horiz-adv-x="757" 
d="M134 0l411 700h70l-410 -700h-71zM559 -12q-44 0 -79.5 20t-56 57.5t-20.5 87.5q0 51 20.5 88t56.5 57t79 20q45 0 80 -20t55 -57t20 -88q0 -50 -20.5 -87.5t-55.5 -57.5t-79 -20zM559 45q25 0 46 12t34.5 36t13.5 60q0 37 -13.5 61t-34 36t-46.5 12q-24 0 -46 -12
t-35.5 -36t-13.5 -61q0 -36 13.5 -60t35 -36t46.5 -12zM198 381q-44 0 -79.5 20t-56 57.5t-20.5 87.5q0 51 21 88t56.5 57t79.5 20t79 -20t55.5 -57t20.5 -88q0 -50 -20.5 -87.5t-56 -57.5t-79.5 -20zM198 438q25 0 46 12t34.5 36t13.5 60q0 37 -13 61t-34 36.5t-46 12.5
t-46.5 -12.5t-35 -36.5t-13.5 -61q0 -36 13 -60t35 -36t46 -12z" />
    <glyph glyph-name="ampersand" unicode="&#x26;" horiz-adv-x="722" 
d="M605 0l-382 391q-45 47 -65 84.5t-20 84.5q0 44 21 78.5t60.5 54t93.5 19.5q52 0 91.5 -19.5t61 -54.5t20.5 -82h-70q0 48 -31 73t-72 25q-50 0 -78 -26.5t-28 -66.5q0 -34 18.5 -66t54.5 -71l416 -424h-91zM276 -12q-69 0 -122 26.5t-82 74t-29 111.5q0 52 20.5 94
t61 74.5t98.5 52.5l27 9l39 -47l-35 -12q-71 -26 -106 -68t-35 -101q0 -44 21 -78.5t58 -54.5t86 -20q61 0 109.5 28t99.5 94q20 27 41.5 60t44.5 73l34 58h75l-47 -84q-27 -47 -52 -85t-50 -69q-59 -73 -119.5 -104.5t-137.5 -31.5z" />
    <glyph glyph-name="quotesingle" unicode="'" horiz-adv-x="150" 
d="M51 555l-13 200h73l-11 -200h-49z" />
    <glyph glyph-name="parenleft" unicode="(" horiz-adv-x="366" 
d="M252 -145q-54 51 -100.5 121.5t-74.5 160.5t-28 196q0 107 28 196t74.5 160.5t100.5 121.5h72v-7q-61 -59 -107 -132.5t-72 -159t-26 -179.5t26.5 -179.5t72.5 -159t107 -132.5v-7h-73z" />
    <glyph glyph-name="parenright" unicode=")" horiz-adv-x="366" 
d="M114 -145h-73v7q61 59 107 132.5t72 159t26 179.5t-25.5 179.5t-71.5 159t-108 132.5v7h73q54 -50 100.5 -121t74.5 -161t28 -196t-28 -195.5t-74.5 -160.5t-100.5 -122z" />
    <glyph glyph-name="asterisk" unicode="*" horiz-adv-x="472" 
d="M208 360l11 157l-129 -87l-30 53l142 64l-141 63l29 52l130 -87l-12 157h59l-13 -157l129 87l28 -51l-141 -64l142 -64l-29 -52l-129 86l12 -157h-58z" />
    <glyph glyph-name="plus" unicode="+" horiz-adv-x="500" 
d="M217 75v430h65v-430h-65zM25 261v60h449v-60h-449z" />
    <glyph glyph-name="comma" unicode="," horiz-adv-x="167" 
d="M1 -123l59 212h75l-84 -212h-50z" />
    <glyph glyph-name="hyphen" unicode="-" horiz-adv-x="489" 
d="M50 264v60h389v-60h-389z" />
    <glyph glyph-name="period" unicode="." horiz-adv-x="188" 
d="M94 -5q-22 0 -36.5 15t-14.5 37t14.5 36.5t36.5 14.5t36.5 -14.5t14.5 -36.5t-14.5 -37t-36.5 -15z" />
    <glyph glyph-name="slash" unicode="/" horiz-adv-x="383" 
d="M31 -90l251 850h70l-252 -850h-69z" />
    <glyph glyph-name="zero" unicode="0" horiz-adv-x="680" 
d="M341 -12q-92 0 -157 45.5t-100 127t-35 189.5t35 189.5t100 127t156 45.5t156 -45.5t100 -127t35 -189.5t-35 -189.5t-100 -127t-155 -45.5zM340 49q63 0 112.5 36t78 103.5t28.5 161.5t-28.5 161t-78 103t-112.5 36q-62 0 -112 -36t-78.5 -103t-28.5 -161t28.5 -161.5
t78.5 -103.5t112 -36z" />
    <glyph glyph-name="one" unicode="1" horiz-adv-x="302" 
d="M153 0v623l-119 -32v49l141 60h49v-700h-71z" />
    <glyph glyph-name="two" unicode="2" horiz-adv-x="578" 
d="M69 0v49q73 58 138 116.5t115.5 116.5t79.5 113.5t29 108.5q0 38 -13.5 72t-43.5 55t-83 21q-50 0 -83 -22t-49 -57.5t-16 -77.5h-68q0 67 28 115.5t76.5 75t112.5 26.5q59 0 106 -22t75 -68t28 -117q0 -50 -21.5 -100.5t-56.5 -98.5t-78 -92.5t-87.5 -84t-82.5 -70.5
h352v-59h-458z" />
    <glyph glyph-name="three" unicode="3" horiz-adv-x="587" 
d="M293 -12q-67 0 -120.5 24.5t-85 73t-33.5 119.5h71q1 -42 21 -77t57 -56.5t90 -21.5t88 20t53.5 54.5t18.5 75.5q0 53 -25.5 85.5t-67.5 48t-91 15.5h-52v60h52q74 0 114.5 33.5t40.5 92.5q0 49 -32.5 82t-98.5 33q-62 0 -99.5 -35.5t-42.5 -91.5h-72q3 55 30 97.5
t74.5 67t110.5 24.5q66 0 111.5 -23.5t68 -63t22.5 -86.5q0 -34 -12 -66t-38.5 -56.5t-68.5 -34.5q42 -9 75 -32t53 -60.5t20 -88.5q0 -57 -26 -105.5t-78 -78t-128 -29.5z" />
    <glyph glyph-name="four" unicode="4" horiz-adv-x="596" 
d="M393 0v157h-357v53l344 490h82v-482h107v-61h-107v-157h-69zM114 218h282v404v0z" />
    <glyph glyph-name="five" unicode="5" horiz-adv-x="610" 
d="M310 -12q-70 0 -122 25.5t-82.5 70t-39.5 99.5h69q13 -60 59 -97.5t117 -37.5q54 0 92 25t58.5 67.5t20.5 93.5q0 54 -21 96t-58.5 65.5t-87.5 23.5q-61 0 -104 -26.5t-65 -69.5h-67l59 377h363v-61h-309l-41 -231q25 31 68.5 51t100.5 20q50 0 92 -18t72.5 -51t47.5 -77
t17 -98q0 -49 -15.5 -93.5t-46 -79t-75 -54.5t-102.5 -20z" />
    <glyph glyph-name="six" unicode="6" horiz-adv-x="629" 
d="M324 -12q-74 0 -125 28.5t-82 76t-45 107t-14 121.5q0 116 31.5 204t91.5 137.5t144 49.5q64 0 110.5 -25t74 -67t33.5 -95h-65q-10 60 -50.5 92.5t-102.5 32.5q-56 0 -100.5 -34t-71 -105t-30.5 -179v-5v-6q16 34 45.5 62.5t71 46t93.5 17.5q60 0 112.5 -28t85 -78.5
t32.5 -118.5q0 -57 -28 -111t-81.5 -88.5t-129.5 -34.5zM320 50q49 0 88 22t61.5 60t22.5 86q0 51 -22.5 88.5t-61.5 58t-88 20.5t-88.5 -22.5t-62.5 -61t-23 -84.5q0 -48 22.5 -85.5t62.5 -59.5t89 -22z" />
    <glyph glyph-name="seven" unicode="7" horiz-adv-x="536" 
d="M147 0l277 640h-396v60h468v-54l-274 -646h-75z" />
    <glyph glyph-name="eight" unicode="8" horiz-adv-x="605" 
d="M302 -12q-67 0 -121 25.5t-84.5 70.5t-30.5 104q0 43 17.5 81t49.5 65.5t74 37.5q-60 19 -91 62t-31 93q0 51 26 93t75 67t116 25q69 0 117.5 -25t74.5 -67t26 -93q0 -50 -31.5 -93t-90.5 -62q43 -10 74 -37.5t49 -65.5t18 -81q0 -59 -31 -104t-84.5 -70.5t-121.5 -25.5z
M302 51q83 0 124.5 38.5t41.5 102.5q0 73 -45 109t-121 36q-75 0 -120 -36t-45 -109q0 -64 41 -102.5t124 -38.5zM302 399q67 0 106.5 34.5t39.5 90.5q0 63 -39 94.5t-107 31.5q-67 0 -106 -31.5t-39 -94.5q0 -56 39.5 -90.5t105.5 -34.5z" />
    <glyph glyph-name="nine" unicode="9" horiz-adv-x="630" 
d="M304 -12q-64 0 -110 25t-73.5 67.5t-34.5 94.5h65q11 -60 51.5 -92.5t102.5 -32.5q56 0 100 34t70.5 104.5t30.5 177.5v6.5v6.5q-15 -33 -44.5 -62t-70.5 -46.5t-94 -17.5q-60 0 -112.5 28t-85.5 79t-33 118q0 58 28.5 111.5t82 88t128.5 34.5t126 -28t82 -76t45 -107.5
t14 -121.5q0 -115 -32 -203t-91.5 -138t-144.5 -50zM310 315q49 0 88.5 23t62.5 61t23 84q0 49 -23 86.5t-62 59t-89 21.5t-89 -22t-61 -59.5t-22 -86.5q0 -50 22.5 -88t61.5 -58.5t88 -20.5z" />
    <glyph glyph-name="colon" unicode=":" horiz-adv-x="190" 
d="M94 -5q-22 0 -36.5 15t-14.5 37t14.5 36.5t36.5 14.5t36.5 -14.5t14.5 -36.5t-14.5 -37t-36.5 -15zM94 413q-22 0 -36.5 15t-14.5 37t14.5 36.5t36.5 14.5t36.5 -14.5t14.5 -36.5t-14.5 -37t-36.5 -15z" />
    <glyph glyph-name="semicolon" unicode=";" horiz-adv-x="216" 
d="M120 413q-22 0 -36.5 15t-14.5 37t14.5 36.5t36.5 14.5t36.5 -14.5t14.5 -36.5t-14.5 -37t-36.5 -15zM25 -123l59 212h75l-84 -212h-50z" />
    <glyph glyph-name="less" unicode="&#x3c;" horiz-adv-x="500" 
d="M420 40h-89l-251 232v0l251 232h89l-252 -232z" />
    <glyph glyph-name="equal" unicode="=" horiz-adv-x="500" 
d="M55 363v60h390v-60h-390zM55 160v59h390v-59h-390z" />
    <glyph glyph-name="greater" unicode="&#x3e;" horiz-adv-x="500" 
d="M80 40l252 232l-252 232h89l251 -232v0l-251 -232h-89z" />
    <glyph glyph-name="question" unicode="?" horiz-adv-x="522" 
d="M164 194l-4 155h26q43 0 83 6t71 22.5t49.5 48t18.5 82.5q0 45 -19.5 77t-54 49.5t-79.5 17.5t-79 -17t-53 -47.5t-19 -73.5h-67q0 61 28.5 105t78 68.5t112.5 24.5t112.5 -25t78 -71t28.5 -108q0 -75 -32 -121t-88 -67t-128 -21l-3 -105h-60zM193 -5q-22 0 -36.5 15
t-14.5 37t14.5 36.5t35.5 14.5q23 0 37.5 -14.5t14.5 -36.5t-14.5 -37t-36.5 -15z" />
    <glyph glyph-name="at" unicode="@" horiz-adv-x="996" 
d="M427 -195q-103 0 -182 41t-123.5 117t-44.5 178q0 104 35 194t99 158t153 105.5t196 37.5q109 0 189.5 -42t125 -117t44.5 -174q0 -58 -13 -112.5t-40 -99t-64 -71t-87 -26.5q-57 0 -82 36t-19 92l4 35l16 -24q-26 -64 -80.5 -101.5t-118.5 -37.5q-75 0 -117 46.5
t-42 125.5q0 55 17 105t48.5 89.5t75.5 62.5t98 23q62 0 99 -34t43 -99l-20 -12l23 133h61l-51 -291q-7 -44 5 -72t50 -28q33 0 58.5 23.5t43 62t26 83t8.5 87.5q0 89 -38 153t-107.5 98.5t-164.5 34.5q-91 0 -167 -33.5t-132 -93.5t-86 -139.5t-30 -170.5q0 -93 37 -158.5
t106 -99.5t163 -34q42 0 85 8.5t80 25.5l11 -49q-44 -18 -92.5 -27t-98.5 -9zM455 49q44 0 81.5 24t61.5 66.5t30 98.5q5 42 -6 77t-37.5 55.5t-69.5 20.5q-40 0 -72.5 -18.5t-55.5 -49t-34.5 -68.5t-11.5 -79q0 -58 29 -92.5t85 -34.5z" />
    <glyph glyph-name="A" unicode="A" horiz-adv-x="654" 
d="M33 0l258 700h72l258 -700h-74l-220 608v0l-220 -608h-74zM151 189l21 58h309l21 -58h-351z" />
    <glyph glyph-name="B" unicode="B" horiz-adv-x="596" 
d="M78 0v700h235q74 0 122 -24t71.5 -64t23.5 -89q0 -54 -23.5 -90t-61 -55t-78.5 -24l13 10q44 -1 82 -24t61 -61.5t23 -87.5q0 -52 -25.5 -95.5t-75.5 -69.5t-125 -26h-242zM148 59h167q76 0 117.5 36t41.5 99t-43.5 100.5t-118.5 37.5h-164v-273zM148 390h163
q71 0 109 34t38 92q0 56 -37 90.5t-113 34.5h-160v-251z" />
    <glyph glyph-name="C" unicode="C" horiz-adv-x="713" 
d="M378 -12q-101 0 -175 45.5t-114 127t-40 189.5t40 189.5t114.5 127t174.5 45.5q118 0 191.5 -55.5t94.5 -156.5h-77q-16 68 -68 109.5t-141 41.5q-77 0 -135 -36t-90 -103.5t-32 -161.5t32 -161.5t90 -103.5t135 -36q89 0 141 41t68 108h77q-22 -99 -94.5 -154.5
t-191.5 -55.5z" />
    <glyph glyph-name="D" unicode="D" horiz-adv-x="685" 
d="M78 0v700h198q124 0 203.5 -42t118 -121t38.5 -189q0 -108 -38.5 -186t-118 -120t-203.5 -42h-198zM148 58h128q106 0 169 35t91 100t28 155q0 91 -28 157t-91 101.5t-169 35.5h-128v-584z" />
    <glyph glyph-name="E" unicode="E" horiz-adv-x="562" 
d="M78 0v700h425v-58h-355v-261h325v-58h-325v-265h355v-58h-425z" />
    <glyph glyph-name="F" unicode="F" horiz-adv-x="532" 
d="M78 0v700h418v-58h-348v-262h300v-58h-300v-322h-70z" />
    <glyph glyph-name="G" unicode="G" horiz-adv-x="755" 
d="M376 -12q-98 0 -172 45.5t-114.5 127t-40.5 189.5q0 107 41.5 188.5t117 127.5t178.5 46q116 0 194 -56t100 -156h-82q-14 68 -69.5 108t-142.5 40q-80 0 -139.5 -36t-92.5 -102.5t-33 -159.5t32.5 -160t90 -103t132.5 -36q118 0 177.5 70t67.5 193h-211v57h283v-371h-64
l-6 124v0q-26 -43 -59.5 -74t-79 -46.5t-108.5 -15.5z" />
    <glyph glyph-name="H" unicode="H" horiz-adv-x="675" 
d="M527 0v700h70v-700h-70zM78 0v700h70v-700h-70zM132 327v58h415v-58h-415z" />
    <glyph glyph-name="I" unicode="I" horiz-adv-x="226" 
d="M78 0v700h70v-700h-70z" />
    <glyph glyph-name="J" unicode="J" horiz-adv-x="494" 
d="M226 -12q-61 0 -105 23t-67.5 66.5t-23.5 103.5h71q1 -36 12.5 -65.5t38.5 -47.5t74 -18q46 0 71.5 17.5t37 47t11.5 65.5v520h70v-520q0 -91 -50.5 -141.5t-139.5 -50.5z" />
    <glyph glyph-name="K" unicode="K" horiz-adv-x="568" 
d="M78 0v700h70v-328l303 328h89l-261 -280l264 -420h-85l-229 366l-81 -86v-280h-70z" />
    <glyph glyph-name="L" unicode="L" horiz-adv-x="520" 
d="M78 0v700h70v-643h331v-57h-401z" />
    <glyph glyph-name="M" unicode="M" horiz-adv-x="832" 
d="M78 0v700h80l258 -505v0l257 505h81v-700h-70v572v0l-242 -474h-52l-242 472v0v-570h-70z" />
    <glyph glyph-name="N" unicode="N" horiz-adv-x="683" 
d="M78 0v700h70l387 -583v0v583h70v-700h-70l-387 584v0v-584h-70z" />
    <glyph glyph-name="O" unicode="O" horiz-adv-x="774" 
d="M386 -12q-100 0 -176 45.5t-118.5 127t-42.5 189.5q0 107 42.5 188.5t118.5 127.5t176 46q103 0 179 -46t118 -127.5t42 -188.5q0 -108 -42 -189.5t-118 -127t-179 -45.5zM387 49q79 0 139 36t93.5 103.5t33.5 161.5t-33.5 161t-93.5 103t-139 36t-139 -36t-93.5 -103
t-33.5 -161t33.5 -161.5t93.5 -103.5t139 -36z" />
    <glyph glyph-name="P" unicode="P" horiz-adv-x="574" 
d="M78 0v700h220q81 0 134 -26.5t78 -72t25 -103.5q0 -57 -25 -103t-77.5 -72.5t-134.5 -26.5h-150v-296h-70zM148 355h150q89 0 127 38.5t38 104.5q0 68 -38 105.5t-127 37.5h-150v-286z" />
    <glyph glyph-name="Q" unicode="Q" horiz-adv-x="774" 
d="M576 -95l-235 368h89l235 -368h-89zM386 -12q-100 0 -176 45.5t-118.5 127t-42.5 189.5q0 107 42.5 188.5t118.5 127.5t176 46q103 0 179 -46t118 -127.5t42 -188.5q0 -108 -42 -189.5t-118 -127t-179 -45.5zM387 49q79 0 139 36t93.5 103.5t33.5 161.5t-33.5 161
t-93.5 103t-139 36t-139 -36t-93.5 -103t-33.5 -161t33.5 -161.5t93.5 -103.5t139 -36z" />
    <glyph glyph-name="R" unicode="R" horiz-adv-x="587" 
d="M78 0v700h216q81 0 132.5 -27t75.5 -72.5t24 -103.5q0 -56 -25 -102.5t-77 -74t-135 -27.5h-141v-293h-70zM450 0l-157 315h80l161 -315h-84zM148 350h141q85 0 125 41t40 106q0 67 -39 105.5t-127 38.5h-140v-291z" />
    <glyph glyph-name="S" unicode="S" horiz-adv-x="576" 
d="M296 -12q-77 0 -133.5 28t-86.5 78.5t-30 115.5h73q0 -44 20 -81t59 -59.5t98 -22.5q52 0 87.5 17.5t54.5 46.5t19 66q0 44 -18.5 71t-50.5 44t-72.5 29.5t-85.5 27.5q-81 28 -119 69t-39 105q0 55 25.5 97.5t74.5 67t116 24.5q65 0 113.5 -24.5t75.5 -68t27 -99.5h-72
q0 32 -16.5 62.5t-49 50t-82.5 19.5q-41 0 -72.5 -14.5t-49.5 -42t-18 -64.5q0 -36 16 -59t45 -38t68 -27.5t87 -28.5q49 -17 87 -41t60 -61.5t22 -94.5q0 -49 -25.5 -93t-77.5 -72t-130 -28z" />
    <glyph glyph-name="T" unicode="T" horiz-adv-x="552" 
d="M241 0v642h-210v58h490v-58h-210v-642h-70z" />
    <glyph glyph-name="U" unicode="U" horiz-adv-x="648" 
d="M324 -12q-71 0 -128.5 28t-91.5 87.5t-34 151.5v445h70v-446q0 -71 23.5 -116.5t65.5 -66.5t96 -21q55 0 96 21t64 66.5t23 116.5v446h70v-445q0 -92 -34 -151.5t-91.5 -87.5t-128.5 -28z" />
    <glyph glyph-name="V" unicode="V" horiz-adv-x="661" 
d="M290 0l-265 700h76l229 -624v0l232 624h74l-266 -700h-80z" />
    <glyph glyph-name="W" unicode="W" horiz-adv-x="956" 
d="M221 0l-194 700h75l160 -614v0l179 614h78l174 -615v0l161 615h75l-197 -700h-79l-176 597v0l-179 -597h-77z" />
    <glyph glyph-name="X" unicode="X" horiz-adv-x="586" 
d="M41 0l211 352l-211 348h78l177 -291v0l171 291h78l-213 -351l212 -349h-78l-178 293v0l-169 -293h-78z" />
    <glyph glyph-name="Y" unicode="Y" horiz-adv-x="566" 
d="M249 0v273l-226 427h79l194 -386h-24l193 386h78l-224 -427v-273h-70z" />
    <glyph glyph-name="Z" unicode="Z" horiz-adv-x="532" 
d="M44 0v56l357 582h-351v62h433v-56l-357 -582h362v-62h-444z" />
    <glyph glyph-name="bracketleft" unicode="[" horiz-adv-x="299" 
d="M78 -145v956h159v-58h-93v-839h93v-59h-159z" />
    <glyph glyph-name="backslash" unicode="\" horiz-adv-x="383" 
d="M351 -90h-69l-252 850h70z" />
    <glyph glyph-name="bracketright" unicode="]" horiz-adv-x="299" 
d="M221 -145h-160v59h94v839h-94v58h160v-956z" />
    <glyph glyph-name="asciicircum" unicode="^" horiz-adv-x="611" 
d="M40 213l234 487h63l234 -487h-73l-192 403v0l-194 -403h-72z" />
    <glyph glyph-name="underscore" unicode="_" horiz-adv-x="600" 
d="M50 -100v65h500v-65h-500z" />
    <glyph glyph-name="grave" unicode="`" horiz-adv-x="205" 
d="M199 547l-199 116l10 61v0l195 -127z" />
    <glyph glyph-name="a" unicode="a" horiz-adv-x="531" 
d="M232 -12q-61 0 -101.5 22t-60 57t-19.5 77q0 52 26.5 88t75 54t111.5 18h136q0 49 -15 83t-43.5 51.5t-72.5 17.5q-52 0 -89 -26t-46 -76h-73q6 53 36.5 89t76 54.5t95.5 18.5q69 0 113.5 -26.5t66 -72.5t21.5 -106v-311h-64l-3 92v0q-10 -21 -25.5 -40t-36 -33
t-47.5 -22.5t-62 -8.5zM240 50q38 0 67 15t50 40t32 57t11 65v18h-131q-53 0 -85 -13t-46 -35t-14 -51t13.5 -50.5t39.5 -33.5t63 -12z" />
    <glyph glyph-name="b" unicode="b" horiz-adv-x="620" 
d="M328 -12q-44 0 -80.5 13.5t-63.5 37t-43 53.5v0l-6 -92h-64v720h70v-307q25 43 72 73t115 30q74 0 129 -34.5t84.5 -94t29.5 -135.5t-30 -136t-84.5 -94t-128.5 -34zM323 49q53 0 92.5 25.5t62 71t22.5 106.5q0 62 -22.5 107.5t-62.5 70.5t-92 25t-92.5 -25t-63 -71
t-22.5 -107q0 -62 22.5 -107.5t63 -70.5t92.5 -25z" />
    <glyph glyph-name="c" unicode="c" horiz-adv-x="563" 
d="M293 -12q-69 0 -124.5 33t-87.5 92.5t-32 137.5q0 81 32 139.5t87.5 92t124.5 33.5q88 0 146.5 -45.5t74.5 -120.5h-70q-11 50 -52.5 77.5t-98.5 27.5q-46 0 -85 -22.5t-63 -67.5t-24 -114q0 -51 14 -89t38.5 -63.5t55 -38.5t64.5 -13q37 0 68.5 12.5t53.5 36.5t29 58h70
q-15 -73 -74 -119.5t-147 -46.5z" />
    <glyph glyph-name="d" unicode="d" horiz-adv-x="620" 
d="M292 -12q-74 0 -128.5 34.5t-84.5 94.5t-30 136t30 135.5t85 93.5t129 34q63 0 111.5 -27.5t74.5 -77.5v309h70v-720h-64l-6 91v0q-15 -26 -41 -50t-62.5 -38.5t-83.5 -14.5zM297 49q53 0 92.5 25.5t62.5 71t23 106.5t-23 107t-62.5 71t-92.5 25q-51 0 -91.5 -25
t-63 -70.5t-22.5 -107.5t23 -107.5t63 -70.5t91 -25z" />
    <glyph glyph-name="e" unicode="e" horiz-adv-x="560" 
d="M287 -12q-70 0 -123.5 33t-84 92.5t-30.5 139.5t30 139t84.5 91.5t125.5 32.5q73 0 124 -33t77.5 -86t26.5 -116v-20.5t-1 -24.5h-414v59h347q-3 77 -48.5 119t-114.5 42q-44 0 -83 -20.5t-62.5 -60t-23.5 -99.5v-26q0 -68 24.5 -113t63.5 -67t82 -22q57 0 94 25.5
t53 70.5h69q-12 -44 -41 -79.5t-73 -56t-102 -20.5z" />
    <glyph glyph-name="f" unicode="f" horiz-adv-x="333" 
d="M101 0v591q0 44 14.5 72.5t43.5 42.5t73 14h57v-60h-45q-40 0 -56.5 -16t-16.5 -56v-588h-70zM23 444v60h279v-60h-279z" />
    <glyph glyph-name="g" unicode="g" horiz-adv-x="552" 
d="M266 -232q-67 0 -118.5 18t-81 54t-29.5 89q0 21 7.5 45.5t29.5 49.5t62 45l57 -25q-53 -25 -69 -54.5t-16 -53.5q0 -36 20.5 -60t56 -36t81.5 -12t79.5 13t51.5 37.5t18 56.5q0 37 -28.5 62.5t-105.5 29.5q-61 4 -100.5 10.5t-65 16t-42 20.5t-31.5 24v23l96 91l64 -23
l-94 -84l6 27q12 -8 22 -15t27.5 -11.5t49 -9t85.5 -8.5q69 -5 110 -24t60 -51t19 -75t-23.5 -81.5t-72 -63.5t-125.5 -25zM265 160q-64 0 -107.5 24t-66.5 64.5t-23 89.5q0 50 23 90t67 64t107 24q64 0 107.5 -24t66 -64t22.5 -90q0 -49 -22.5 -89.5t-66 -64.5t-107.5 -24z
M265 220q58 0 91.5 30.5t33.5 87.5q0 58 -33.5 88t-91.5 30t-92.5 -30t-34.5 -88q0 -57 34 -87.5t93 -30.5zM347 441l-25 63h204v-57z" />
    <glyph glyph-name="h" unicode="h" horiz-adv-x="564" 
d="M71 0v720h70v-306v0q26 48 72.5 75t100.5 27q57 0 99.5 -23t66 -70t23.5 -120v-303h-69v295q0 81 -33.5 120.5t-98.5 39.5q-45 0 -81.5 -22t-58 -63.5t-21.5 -102.5v-267h-70z" />
    <glyph glyph-name="i" unicode="i" horiz-adv-x="231" 
d="M81 0v504h70v-504h-70zM116 623q-21 0 -36 14.5t-15 36.5q0 23 14.5 36.5t36.5 13.5q20 0 35 -13.5t15 -36.5q0 -22 -14.5 -36.5t-35.5 -14.5z" />
    <glyph glyph-name="j" unicode="j" horiz-adv-x="235" 
d="M-26 -220v60h38q39 0 56 16.5t17 55.5v592h70v-595q0 -44 -14.5 -72.5t-44 -42.5t-73.5 -14h-49zM121 623q-21 0 -36 14.5t-15 36.5q0 23 15 36.5t36 13.5q20 0 35 -13.5t15 -36.5q0 -22 -14.5 -36.5t-35.5 -14.5z" />
    <glyph glyph-name="k" unicode="k" horiz-adv-x="485" 
d="M376 0l-247 276l226 228h87l-251 -251l1 47l274 -300h-90zM71 0v720h70v-720h-70z" />
    <glyph glyph-name="l" unicode="l" horiz-adv-x="212" 
d="M71 0v720h70v-720h-70z" />
    <glyph glyph-name="m" unicode="m" horiz-adv-x="879" 
d="M71 0v504h64l5 -76v0q23 42 64 65t91 23q38 0 70 -11t56 -33t39 -57v0q24 47 69.5 74t97.5 27q58 0 101 -23t66.5 -70t23.5 -119v-304h-70v296q0 80 -32.5 119.5t-92.5 39.5q-40 0 -73 -21.5t-51.5 -62t-18.5 -100.5v-271h-70v296q0 80 -33 119.5t-91 39.5
q-42 0 -74.5 -21.5t-51.5 -63t-19 -102.5v-268h-70z" />
    <glyph glyph-name="n" unicode="n" horiz-adv-x="563" 
d="M71 0v504h64l4 -90v0q24 48 69.5 75t101.5 27q58 0 101 -23t67 -69.5t24 -118.5v-305h-70v297q0 80 -35 119t-99 39q-45 0 -80.5 -21.5t-56 -62.5t-20.5 -101v-270h-70z" />
    <glyph glyph-name="o" unicode="o" horiz-adv-x="590" 
d="M293 -12q-69 0 -124.5 32.5t-87.5 92t-32 138.5q0 82 32.5 141t88.5 91.5t125 32.5q72 0 127 -32.5t87 -91.5t32 -141q0 -79 -32.5 -138.5t-88 -92t-127.5 -32.5zM294 48q47 0 86.5 23t64 68.5t24.5 112.5q0 68 -24 113t-63.5 67.5t-86.5 22.5q-45 0 -85 -23t-64.5 -67.5
t-24.5 -112.5q0 -67 24 -112.5t63.5 -68.5t85.5 -23z" />
    <glyph glyph-name="p" unicode="p" horiz-adv-x="620" 
d="M71 -220v724h64l6 -91v0q16 27 42 50.5t62.5 38t83.5 14.5q73 0 127.5 -35t84.5 -94.5t30 -135.5t-30.5 -135.5t-84.5 -93.5t-128 -34q-64 0 -112.5 27.5t-74.5 77.5v-313h-70zM323 49q52 0 92 25.5t62.5 70.5t22.5 107q0 61 -22.5 107t-62.5 71t-92 25t-92 -25
t-63 -70.5t-23 -107.5q0 -61 23 -106.5t63 -71t92 -25.5z" />
    <glyph glyph-name="q" unicode="q" horiz-adv-x="620" 
d="M479 -220v311q-25 -43 -71.5 -73t-115.5 -30q-74 0 -128.5 34.5t-84.5 94t-30 135.5t30 135.5t84.5 94t128.5 34.5q44 0 80.5 -13.5t63.5 -36.5t43 -54v0l6 92h64v-724h-70zM297 49q53 0 92.5 25.5t62.5 71t23 106.5q0 62 -23 107.5t-62.5 70.5t-92.5 25q-51 0 -91.5 -25
t-63 -71t-22.5 -107q0 -62 22.5 -107.5t62.5 -70.5t92 -25z" />
    <glyph glyph-name="r" unicode="r" horiz-adv-x="361" 
d="M71 0v504h64l5 -97v0q16 35 43 59t65 37t86 13v-73h-27q-32 0 -62 -8.5t-53 -28.5t-37 -54t-14 -85v-267h-70z" />
    <glyph glyph-name="s" unicode="s" horiz-adv-x="495" 
d="M256 -12q-60 0 -105.5 20t-73 57.5t-33.5 89.5h73q5 -29 22.5 -53t47.5 -38t71 -14q38 0 62.5 11t37 30.5t12.5 43.5q0 33 -15.5 51.5t-44.5 27.5t-70 17q-34 6 -64.5 16t-55 26t-39 40.5t-14.5 57.5q0 43 21.5 75.5t61.5 51t94 18.5q77 0 126 -38.5t57 -112.5h-70
q-4 41 -34 65t-81 24q-50 0 -76.5 -20.5t-26.5 -55.5q0 -22 14 -38t41.5 -27.5t67.5 -19.5q48 -9 88.5 -23.5t66 -44t25.5 -83.5q1 -45 -22 -80t-64.5 -54.5t-99.5 -19.5z" />
    <glyph glyph-name="t" unicode="t" horiz-adv-x="383" 
d="M262 0q-43 0 -74 13.5t-47.5 45t-16.5 86.5v299h-88v60h88l10 117h60v-118h151v-59h-151v-299q0 -50 20 -67.5t71 -17.5h52v-60h-75z" />
    <glyph glyph-name="u" unicode="u" horiz-adv-x="563" 
d="M253 -12q-57 0 -100.5 22.5t-67.5 69.5t-24 119v305h70v-297q0 -80 35.5 -119t98.5 -39q45 0 80.5 21.5t56 62.5t20.5 101v270h70v-504h-64l-4 90v0q-24 -48 -69.5 -75t-101.5 -27z" />
    <glyph glyph-name="v" unicode="v" horiz-adv-x="518" 
d="M219 0l-192 504h73l160 -436v0l160 436h72l-193 -504h-80z" />
    <glyph glyph-name="w" unicode="w" horiz-adv-x="748" 
d="M175 0l-148 504h71l120 -431h-14l130 431h80l130 -431h-14l120 431h71l-148 -504h-71l-135 451h14l-135 -451h-71z" />
    <glyph glyph-name="x" unicode="x" horiz-adv-x="477" 
d="M22 0l168 252l-168 252h75l142 -215v0l141 215h75l-168 -252l168 -252h-75l-141 216v0l-141 -216h-76z" />
    <glyph glyph-name="y" unicode="y" horiz-adv-x="544" 
d="M123 -220l124 276h-27l-199 448h76l172 -400v0l181 400h72l-326 -724h-73z" />
    <glyph glyph-name="z" unicode="z" horiz-adv-x="451" 
d="M37 0v58l287 387h-282v59h361v-58l-287 -388h292v-58h-371z" />
    <glyph glyph-name="braceleft" unicode="{" horiz-adv-x="416" 
d="M316 -145q-66 0 -106 36.5t-40 108.5q0 34 5.5 61.5t11 57t5.5 68.5q0 26 -9 49t-32 41.5t-67 27.5v57q44 9 67 27t32 41.5t9 49.5q0 39 -5.5 68.5t-11 56.5t-5.5 61q0 74 40 109.5t106 35.5h51v-61h-39q-43 0 -66 -20.5t-23 -68.5q0 -31 5 -57.5t10.5 -56t5.5 -70.5
q0 -52 -26 -90.5t-85 -52.5v-2q59 -13 85 -51.5t26 -91.5q0 -40 -5.5 -69.5t-10.5 -56.5t-5 -58q0 -48 23 -68.5t66 -20.5h39v-61h-51z" />
    <glyph glyph-name="bar" unicode="|" horiz-adv-x="226" 
d="M78 -100v820h70v-820h-70z" />
    <glyph glyph-name="braceright" unicode="}" horiz-adv-x="416" 
d="M101 -145h-51v61h39q43 0 66 20.5t23 68.5q0 31 -5.5 58t-11 56.5t-5.5 69.5q0 53 26.5 91.5t85.5 51.5v2q-59 14 -85.5 52.5t-26.5 90.5q0 41 5.5 70.5t11 56t5.5 57.5q0 48 -23 68.5t-66 20.5h-39v61h51q65 0 105 -35.5t40 -109.5q0 -34 -5.5 -61t-11 -56t-5.5 -69
q0 -26 9 -49.5t32.5 -41.5t66.5 -27v-57q-43 -9 -66.5 -27t-32.5 -41.5t-9 -49.5q0 -39 5.5 -68.5t11 -57t5.5 -61.5q0 -72 -40 -108.5t-105 -36.5z" />
    <glyph glyph-name="asciitilde" unicode="~" horiz-adv-x="500" 
d="M330 255q-26 0 -47.5 10.5t-40 24t-37.5 24t-41 10.5q-27 0 -44 -18.5t-22 -48.5h-54q8 43 24 72t41.5 43.5t58.5 14.5q28 0 50 -10.5t41 -24t37.5 -23.5t39.5 -10q27 0 44 18.5t20 47.5h55q-6 -43 -22.5 -72t-42 -43.5t-60.5 -14.5z" />
    <glyph glyph-name="uni00A0" unicode="&#xa0;" horiz-adv-x="275" 
 />
    <glyph glyph-name="exclamdown" unicode="&#xa1;" horiz-adv-x="237" 
d="M89 320h59l9 -509h-76zM118 516q22 0 36.5 -15.5t14.5 -36.5q0 -22 -14.5 -37t-36.5 -15q-21 0 -35.5 15t-14.5 37t14 37t36 15z" />
    <glyph glyph-name="cent" unicode="&#xa2;" horiz-adv-x="563" 
d="M259 -104v137h69v-137h-69zM259 472v137h69v-137h-69zM293 -12q-69 0 -124.5 33t-87.5 92.5t-32 137.5q0 81 32 139.5t87.5 92t124.5 33.5q88 0 146.5 -45.5t74.5 -120.5h-70q-11 50 -52.5 77.5t-98.5 27.5q-46 0 -85 -22.5t-63 -67.5t-24 -114q0 -51 14 -89t38.5 -63.5
t55 -38.5t64.5 -13q37 0 68.5 12.5t53.5 36.5t29 58h70q-15 -73 -74 -119.5t-147 -46.5z" />
    <glyph glyph-name="sterling" unicode="&#xa3;" horiz-adv-x="596" 
d="M91 0v47q25 29 43.5 55t29.5 57t11 74q0 36 -9.5 67.5t-22 62.5t-22 66.5t-9.5 79.5q0 61 26 106.5t73 71t109 25.5q69 0 115.5 -27.5t71 -73.5t27.5 -101h-65q-4 62 -41.5 102.5t-107.5 40.5q-36 0 -69 -15t-53 -47.5t-20 -84.5q0 -38 10 -72t22 -66.5t22 -65t10 -67.5
q0 -52 -19 -94.5t-57 -81.5h368v-59h-443zM47 314v50h358v-50h-358z" />
    <glyph glyph-name="currency" unicode="&#xa4;" horiz-adv-x="527" 
d="M263 122q-49 0 -87 21.5t-60 61t-22 92.5t22.5 92.5t61 61t86.5 21.5q47 0 86 -21.5t61.5 -61t22.5 -92.5t-23 -92.5t-62 -61t-86 -21.5zM101 95l-34 35l80 80l34 -35zM426 95l-76 77l32 35l78 -77zM263 180q25 0 48 12t38.5 37.5t15.5 67.5q0 41 -15.5 67.5t-38.5 38.5
t-48 12t-48 -12t-37.5 -38.5t-14.5 -67.5q0 -42 14.5 -67.5t37.5 -37.5t48 -12zM147 388l-80 79l34 34l78 -78zM379 385l-31 37l78 79l34 -34z" />
    <glyph glyph-name="yen" unicode="&#xa5;" horiz-adv-x="590" 
d="M61 175v53h470v-53h-470zM270 325h-209v52h198zM330 325l11 52h190v-52h-201zM261 0v273l-226 427h79l194 -386h-24l192 386h78l-223 -427v-273h-70z" />
    <glyph glyph-name="brokenbar" unicode="&#xa6;" horiz-adv-x="226" 
d="M78 385v335h70v-335h-70zM78 -100v335h70v-335h-70z" />
    <glyph glyph-name="section" unicode="&#xa7;" horiz-adv-x="580" 
d="M287 -232q-65 0 -114 25t-75.5 68.5t-26.5 98.5h72q0 -31 16 -61.5t49 -50.5t83 -20q62 0 101 32.5t39 90.5q0 35 -15.5 57.5t-44 37.5t-67.5 27.5t-87 28.5q-50 17 -88.5 41t-60.5 61.5t-22 94.5q0 37 14.5 71t42.5 61q-13 19 -20 41.5t-7 49.5q0 55 25.5 98t74.5 67.5
t116 24.5q66 0 114.5 -25t75 -68.5t26.5 -98.5h-72q0 31 -16 61.5t-48.5 50.5t-83.5 20q-61 0 -100.5 -32.5t-39.5 -89.5q0 -36 15.5 -58.5t44 -37.5t67.5 -27.5t87 -28.5q50 -17 88.5 -41t60.5 -61.5t22 -94.5q0 -37 -14 -71.5t-43 -60.5q14 -19 20.5 -41.5t6.5 -49.5
q1 -55 -25 -98t-74.5 -67.5t-116.5 -24.5zM428 94q17 17 25 38t8 45q0 44 -18.5 71t-50.5 43.5t-72.5 29t-84.5 27.5q-26 9 -46 19t-37 20q-17 -17 -25.5 -38t-8.5 -46q0 -36 12 -59.5t34 -39.5t51 -28t62.5 -22.5t69.5 -22.5q24 -8 44.5 -17t36.5 -20z" />
    <glyph glyph-name="dieresis" unicode="&#xa8;" horiz-adv-x="298" 
d="M227 573q-20 0 -33.5 13.5t-13.5 32.5t13.5 32.5t33.5 13.5q18 0 31 -13.5t13 -32.5t-13 -32.5t-31 -13.5zM72 573q-19 0 -32.5 13.5t-13.5 32.5t13.5 32.5t33.5 13.5q18 0 31.5 -13.5t13.5 -32.5t-13.5 -32.5t-32.5 -13.5z" />
    <glyph glyph-name="copyright" unicode="&#xa9;" horiz-adv-x="796" 
d="M398 -4q-102 0 -180 45.5t-121.5 125.5t-43.5 183q0 104 43.5 183.5t121.5 124.5t180 45q103 0 180.5 -45t121 -124.5t43.5 -183.5q0 -103 -43.5 -183t-121 -125.5t-180.5 -45.5zM398 117q-59 0 -108 27.5t-78.5 80t-29.5 126.5t29.5 126t78.5 79.5t108 27.5
q74 0 129.5 -39t74.5 -112h-65q-16 49 -53.5 74t-85.5 25q-41 0 -76 -20.5t-56 -61t-21 -100.5t21 -100t56 -60.5t76 -20.5q50 0 86.5 25t52.5 73h65q-19 -70 -74.5 -110t-129.5 -40zM398 30q95 0 164.5 41t107 113t37.5 166q0 95 -37.5 167t-107 112.5t-164.5 40.5
t-164.5 -40.5t-107 -112.5t-37.5 -167q0 -94 37.5 -166t107 -113t164.5 -41z" />
    <glyph glyph-name="ordfeminine" unicode="&#xaa;" horiz-adv-x="462" 
d="M215 347q-48 0 -85.5 23.5t-58 65t-20.5 94.5t20.5 93.5t57.5 63.5t84 23q50 0 84 -21.5t50 -57.5l5 72h49v-349h-48l-6 72v0q-14 -34 -48 -56.5t-84 -22.5zM226 392q33 0 60 16.5t43 47.5t16 74q0 64 -34.5 99.5t-84.5 35.5q-49 0 -83.5 -35.5t-34.5 -99.5t34.5 -101
t83.5 -37z" />
    <glyph glyph-name="guillemotleft" unicode="&#xab;" horiz-adv-x="435" 
d="M314 120l-99 175l99 175h71l-102 -175l102 -175h-71zM144 120l-99 175l99 175h71l-102 -175l102 -175h-71z" />
    <glyph glyph-name="logicalnot" unicode="&#xac;" horiz-adv-x="500" 
d="M462 230v143h-493v57h562v-200h-69z" />
    <glyph glyph-name="registered" unicode="&#xae;" horiz-adv-x="502" 
d="M252 311q-58 0 -102.5 26t-70 71.5t-25.5 102.5q0 58 25.5 103t70 71.5t102.5 26.5t102 -26.5t69.5 -71.5t25.5 -103q0 -57 -25.5 -102.5t-69.5 -71.5t-102 -26zM295 405l-64 99h47l68 -99h-51zM252 344q49 0 85 21.5t56 59.5t20 86q0 49 -20 86.5t-56 59t-85 21.5
t-85.5 -21.5t-56.5 -59t-20 -86.5q0 -48 20 -86t56.5 -59.5t85.5 -21.5zM174 405v215h93q33 0 52.5 -17.5t19.5 -47.5t-19.5 -47.5t-52.5 -17.5h-50v-85h-43zM217 526h47q14 0 23 6.5t9 21.5q0 14 -9 20.5t-23 6.5h-47v-55z" />
    <glyph glyph-name="macron" unicode="&#xaf;" horiz-adv-x="375" 
d="M18 596v54h339v-54h-339z" />
    <glyph glyph-name="degree" unicode="&#xb0;" horiz-adv-x="337" 
d="M168 450q-35 0 -64 16t-46.5 45.5t-17.5 68.5q0 41 17.5 70.5t47 45.5t64.5 16t64 -16t46.5 -45.5t17.5 -70.5q0 -39 -17.5 -68.5t-47 -45.5t-64.5 -16zM168 506q26 0 48 19t22 56q0 38 -21.5 56.5t-47.5 18.5q-25 0 -47.5 -18.5t-22.5 -56.5q0 -37 22 -56t47 -19z" />
    <glyph glyph-name="plusminus" unicode="&#xb1;" horiz-adv-x="500" 
d="M15 0v54h469v-54h-469zM218 116v350h64v-350h-64zM15 261v60h469v-60h-469z" />
    <glyph glyph-name="uni00B2" unicode="&#xb2;" horiz-adv-x="322" 
d="M34 352v40l111 95q29 25 49.5 51.5t20.5 62.5q0 32 -17.5 48t-42.5 16q-28 0 -44.5 -16.5t-20.5 -46.5h-57q3 44 34 75.5t90 31.5q36 0 62.5 -14t41 -38t14.5 -54q0 -42 -24 -73.5t-68 -66.5l-83 -64h181v-47h-247z" />
    <glyph glyph-name="uni00B3" unicode="&#xb3;" horiz-adv-x="323" 
d="M157 347q-56 0 -90 26.5t-39 77.5h56q3 -22 13 -35.5t25.5 -19t34.5 -5.5q32 0 51 15.5t19 42.5q0 29 -20.5 44t-52.5 15h-48v39h48q31 0 51 15.5t20 43.5q0 26 -18.5 42t-49.5 16t-48.5 -13.5t-23.5 -36.5h-54q4 28 20 49t44 33.5t66 12.5q52 0 88 -28.5t36 -72.5
q0 -31 -17.5 -51.5t-46.5 -28.5v-2q28 -8 47 -29t19 -54q0 -38 -34.5 -67t-95.5 -29z" />
    <glyph glyph-name="acute" unicode="&#xb4;" horiz-adv-x="205" 
d="M7 547l-7 50l196 127v0l9 -61z" />
    <glyph glyph-name="uni00B5" unicode="&#xb5;" horiz-adv-x="574" 
d="M71 -220v716h70v-285q0 -82 35 -122t99 -40q46 0 81.5 22t56 64.5t20.5 103.5v257h70v-496h-64l-4 90v0q-24 -48 -70 -75t-102 -27q-36 0 -67 9t-55 28v-245h-70z" />
    <glyph glyph-name="paragraph" unicode="&#xb6;" horiz-adv-x="573" 
d="M283 -100v399h-8q-81 0 -133 26.5t-77.5 71.5t-25.5 102q0 58 25.5 103t78 71.5t132.5 26.5h220v-800h-63v744h-87v-744h-62z" />
    <glyph glyph-name="periodcentered" unicode="&#xb7;" horiz-adv-x="188" 
d="M94 295q-22 0 -36.5 15t-14.5 37t14.5 36.5t36.5 14.5t36.5 -14.5t14.5 -36.5t-14.5 -37t-36.5 -15z" />
    <glyph glyph-name="cedilla" unicode="&#xb8;" horiz-adv-x="217" 
d="M0 -258v47h86q38 0 55 13t17 38q0 23 -17 35.5t-55 12.5h-46v119h49v-74q39 1 68 -9.5t44.5 -31.5t15.5 -52q0 -30 -14.5 -52t-41 -34t-61.5 -12h-100z" />
    <glyph glyph-name="uni00B9" unicode="&#xb9;" horiz-adv-x="195" 
d="M95 352v295l-66 -19v36l84 40h39v-352h-57z" />
    <glyph glyph-name="ordmasculine" unicode="&#xba;" horiz-adv-x="451" 
d="M225 348q-51 0 -91 23t-62.5 64t-22.5 95q0 55 23 96t63 63.5t91 22.5t91 -22.5t62.5 -63.5t22.5 -96q0 -54 -23 -95t-63 -64t-91 -23zM225 395q33 0 59.5 15.5t43 45.5t16.5 74q0 45 -16.5 75t-43 45.5t-59.5 15.5q-32 0 -59 -15.5t-43 -45.5t-16 -75q0 -44 16 -74
t42.5 -45.5t59.5 -15.5z" />
    <glyph glyph-name="guillemotright" unicode="&#xbb;" horiz-adv-x="435" 
d="M121 120h-71l102 175l-102 175h71l99 -175zM291 120h-71l102 175l-102 175h71l99 -175z" />
    <glyph glyph-name="onequarter" unicode="&#xbc;" horiz-adv-x="667" 
d="M95 352v295l-66 -19v36l84 40h39v-352h-57zM66 0l410 700h72l-411 -700h-71zM548 0v68h-174v44l166 236h64v-231h48v-49h-48v-68h-56zM435 117h117v169v0z" />
    <glyph glyph-name="onehalf" unicode="&#xbd;" horiz-adv-x="706" 
d="M95 352v295l-66 -19v36l84 40h39v-352h-57zM66 0l410 700h72l-411 -700h-71zM418 0v40l111 95q29 25 49.5 51.5t20.5 62.5q0 32 -17.5 48t-42.5 16q-28 0 -44.5 -16.5t-20.5 -46.5h-57q3 44 34 75.5t90 31.5q36 0 62.5 -14t41 -38t14.5 -54q0 -42 -24 -73.5t-68 -66.5
l-83 -64h181v-47h-247z" />
    <glyph glyph-name="threequarters" unicode="&#xbe;" horiz-adv-x="775" 
d="M157 347q-56 0 -90 26.5t-39 77.5h56q3 -22 13 -35.5t25.5 -19t34.5 -5.5q32 0 51 15.5t19 42.5q0 29 -20.5 44t-52.5 15h-48v39h48q31 0 51 15.5t20 43.5q0 26 -18.5 42t-49.5 16t-48.5 -13.5t-23.5 -36.5h-54q4 28 20 49t44 33.5t66 12.5q52 0 88 -28.5t36 -72.5
q0 -31 -17.5 -51.5t-46.5 -28.5v-2q28 -8 47 -29t19 -54q0 -38 -34.5 -67t-95.5 -29zM174 0l410 700h72l-411 -700h-71zM656 0v68h-174v44l166 236h64v-231h48v-49h-48v-68h-56zM543 117h117v169v0z" />
    <glyph glyph-name="questiondown" unicode="&#xbf;" horiz-adv-x="522" 
d="M358 316l4 -154h-26q-43 0 -83 -6t-71 -23t-49.5 -48t-18.5 -82q0 -44 19.5 -76.5t54 -50t79.5 -17.5q46 0 79.5 17t52.5 48t19 73h67q0 -60 -28 -104.5t-78 -69t-113 -24.5t-112.5 25t-78 71t-28.5 108q0 75 32 121t88 67t128 21l3 104h60zM330 516q21 0 35.5 -15.5
t14.5 -36.5q0 -22 -14.5 -37t-36.5 -15q-21 0 -35.5 15t-14.5 37t14.5 37t36.5 15z" />
    <glyph glyph-name="Agrave" unicode="&#xc0;" horiz-adv-x="654" 
d="M33 0l258 700h72l258 -700h-74l-220 608v0l-220 -608h-74zM151 189l21 58h309l21 -58h-351zM424 743l-199 117l10 61v0l195 -127z" />
    <glyph glyph-name="Aacute" unicode="&#xc1;" horiz-adv-x="654" 
d="M33 0l258 700h72l258 -700h-74l-220 608v0l-220 -608h-74zM151 189l21 58h309l21 -58h-351zM233 743l-7 51l196 127v0l9 -61z" />
    <glyph glyph-name="Acircumflex" unicode="&#xc2;" horiz-adv-x="654" 
d="M33 0l258 700h72l258 -700h-74l-220 608v0l-220 -608h-74zM151 189l21 58h309l21 -58h-351zM194 758v57l134 82l134 -82v-57l-134 84z" />
    <glyph glyph-name="Atilde" unicode="&#xc3;" horiz-adv-x="654" 
d="M33 0l258 700h72l258 -700h-74l-220 608v0l-220 -608h-74zM151 189l21 58h309l21 -58h-351zM393 758q-26 0 -43.5 12t-32.5 23.5t-36 11.5q-16 0 -27.5 -11t-14.5 -34h-43q6 46 29.5 69.5t58.5 23.5q26 0 43 -11.5t32.5 -23.5t36.5 -12q17 0 29 11.5t15 33.5h42
q-4 -44 -29 -68.5t-60 -24.5z" />
    <glyph glyph-name="Adieresis" unicode="&#xc4;" horiz-adv-x="654" 
d="M33 0l258 700h72l258 -700h-74l-220 608v0l-220 -608h-74zM151 189l21 58h309l21 -58h-351zM252 777q-19 0 -32.5 13.5t-13.5 32.5t13.5 32.5t32.5 13.5t32.5 -13.5t13.5 -32.5t-13.5 -32.5t-32.5 -13.5zM406 777q-19 0 -32.5 13.5t-13.5 32.5t13.5 32.5t32.5 13.5
t32 -13.5t13 -32.5t-13 -32.5t-32 -13.5z" />
    <glyph glyph-name="Aring" unicode="&#xc5;" horiz-adv-x="654" 
d="M33 0l258 700h72l258 -700h-74l-220 608v0l-220 -608h-74zM151 189l21 58h309l21 -58h-351zM328 764q-41 0 -71.5 27t-30.5 73q0 47 30.5 73.5t71.5 26.5q43 0 72.5 -26.5t29.5 -73.5q0 -46 -29.5 -73t-72.5 -27zM328 803q25 0 42 16.5t17 44.5q0 29 -17 45t-42 16
q-24 0 -41 -16t-17 -45q0 -28 17 -44.5t41 -16.5z" />
    <glyph glyph-name="AE" unicode="&#xc6;" horiz-adv-x="904" 
d="M33 0l406 700h406v-56h-295v-264h265v-56h-265v-268h295v-56h-365v640v0l-370 -640h-77zM167 166l29 56h316v-56h-345z" />
    <glyph glyph-name="Ccedilla" unicode="&#xc7;" horiz-adv-x="713" 
d="M378 -12q-101 0 -175 45.5t-114 127t-40 189.5t40 189.5t114.5 127t174.5 45.5q118 0 191.5 -55.5t94.5 -156.5h-77q-16 68 -68 109.5t-141 41.5q-77 0 -135 -36t-90 -103.5t-32 -161.5t32 -161.5t90 -103.5t135 -36q89 0 141 41t68 108h77q-22 -99 -94.5 -154.5
t-191.5 -55.5zM296 -258v47h86q38 0 55 13t17 38q0 23 -17 35.5t-55 12.5h-46v119h49v-74q39 1 68 -9.5t44.5 -31.5t15.5 -52q0 -30 -14.5 -52t-41 -34t-61.5 -12h-100z" />
    <glyph glyph-name="Egrave" unicode="&#xc8;" horiz-adv-x="562" 
d="M78 0v700h425v-58h-355v-261h325v-58h-325v-265h355v-58h-425zM386 743l-199 117l10 61v0l195 -127z" />
    <glyph glyph-name="Eacute" unicode="&#xc9;" horiz-adv-x="562" 
d="M78 0v700h425v-58h-355v-261h325v-58h-325v-265h355v-58h-425zM195 743l-7 51l196 127v0l9 -61z" />
    <glyph glyph-name="Ecircumflex" unicode="&#xca;" horiz-adv-x="562" 
d="M78 0v700h425v-58h-355v-261h325v-58h-325v-265h355v-58h-425zM156 758v57l134 82l134 -82v-57l-134 84z" />
    <glyph glyph-name="Edieresis" unicode="&#xcb;" horiz-adv-x="562" 
d="M78 0v700h425v-58h-355v-261h325v-58h-325v-265h355v-58h-425zM214 777q-19 0 -32.5 13.5t-13.5 32.5t13.5 32.5t32.5 13.5t32.5 -13.5t13.5 -32.5t-13.5 -32.5t-32.5 -13.5zM368 777q-19 0 -32.5 13.5t-13.5 32.5t13.5 32.5t32.5 13.5t32 -13.5t13 -32.5t-13 -32.5
t-32 -13.5z" />
    <glyph glyph-name="Igrave" unicode="&#xcc;" horiz-adv-x="226" 
d="M78 0v700h70v-700h-70zM209 743l-199 117l10 61v0l195 -127z" />
    <glyph glyph-name="Iacute" unicode="&#xcd;" horiz-adv-x="226" 
d="M78 0v700h70v-700h-70zM18 743l-7 51l196 127v0l9 -61z" />
    <glyph glyph-name="Icircumflex" unicode="&#xce;" horiz-adv-x="226" 
d="M78 0v700h70v-700h-70zM-21 758v57l134 82l134 -82v-57l-134 84z" />
    <glyph glyph-name="Idieresis" unicode="&#xcf;" horiz-adv-x="226" 
d="M78 0v700h70v-700h-70zM37 777q-19 0 -32.5 13.5t-13.5 32.5t13.5 32.5t32.5 13.5t32.5 -13.5t13.5 -32.5t-13.5 -32.5t-32.5 -13.5zM191 777q-19 0 -32.5 13.5t-13.5 32.5t13.5 32.5t32.5 13.5t32 -13.5t13 -32.5t-13 -32.5t-32 -13.5z" />
    <glyph glyph-name="Eth" unicode="&#xd0;" horiz-adv-x="709" 
d="M9 316v65h370v-65h-370zM102 0v700h198q124 0 203.5 -42t118 -121t38.5 -189q0 -108 -38.5 -186t-118 -120t-203.5 -42h-198zM172 58h128q106 0 169 35t91 100t28 155q0 91 -28 157t-91 101.5t-169 35.5h-128v-584z" />
    <glyph glyph-name="Ntilde" unicode="&#xd1;" horiz-adv-x="683" 
d="M78 0v700h70l387 -583v0v583h70v-700h-70l-387 584v0v-584h-70zM407 758q-26 0 -43.5 12t-32.5 23.5t-36 11.5q-16 0 -27.5 -11t-14.5 -34h-43q6 46 29.5 69.5t58.5 23.5q26 0 43 -11.5t32.5 -23.5t36.5 -12q17 0 29 11.5t15 33.5h42q-4 -44 -29 -68.5t-60 -24.5z" />
    <glyph glyph-name="Ograve" unicode="&#xd2;" horiz-adv-x="774" 
d="M386 -12q-100 0 -176 45.5t-118.5 127t-42.5 189.5q0 107 42.5 188.5t118.5 127.5t176 46q103 0 179 -46t118 -127.5t42 -188.5q0 -108 -42 -189.5t-118 -127t-179 -45.5zM387 49q79 0 139 36t93.5 103.5t33.5 161.5t-33.5 161t-93.5 103t-139 36t-139 -36t-93.5 -103
t-33.5 -161t33.5 -161.5t93.5 -103.5t139 -36zM483 743l-199 117l10 61v0l195 -127z" />
    <glyph glyph-name="Oacute" unicode="&#xd3;" horiz-adv-x="774" 
d="M386 -12q-100 0 -176 45.5t-118.5 127t-42.5 189.5q0 107 42.5 188.5t118.5 127.5t176 46q103 0 179 -46t118 -127.5t42 -188.5q0 -108 -42 -189.5t-118 -127t-179 -45.5zM387 49q79 0 139 36t93.5 103.5t33.5 161.5t-33.5 161t-93.5 103t-139 36t-139 -36t-93.5 -103
t-33.5 -161t33.5 -161.5t93.5 -103.5t139 -36zM292 743l-7 51l196 127v0l9 -61z" />
    <glyph glyph-name="Ocircumflex" unicode="&#xd4;" horiz-adv-x="774" 
d="M386 -12q-100 0 -176 45.5t-118.5 127t-42.5 189.5q0 107 42.5 188.5t118.5 127.5t176 46q103 0 179 -46t118 -127.5t42 -188.5q0 -108 -42 -189.5t-118 -127t-179 -45.5zM387 49q79 0 139 36t93.5 103.5t33.5 161.5t-33.5 161t-93.5 103t-139 36t-139 -36t-93.5 -103
t-33.5 -161t33.5 -161.5t93.5 -103.5t139 -36zM253 758v57l134 82l134 -82v-57l-134 84z" />
    <glyph glyph-name="Otilde" unicode="&#xd5;" horiz-adv-x="774" 
d="M386 -12q-100 0 -176 45.5t-118.5 127t-42.5 189.5q0 107 42.5 188.5t118.5 127.5t176 46q103 0 179 -46t118 -127.5t42 -188.5q0 -108 -42 -189.5t-118 -127t-179 -45.5zM387 49q79 0 139 36t93.5 103.5t33.5 161.5t-33.5 161t-93.5 103t-139 36t-139 -36t-93.5 -103
t-33.5 -161t33.5 -161.5t93.5 -103.5t139 -36zM452 758q-26 0 -43.5 12t-32.5 23.5t-36 11.5q-16 0 -27.5 -11t-14.5 -34h-43q6 46 29.5 69.5t58.5 23.5q26 0 43 -11.5t32.5 -23.5t36.5 -12q17 0 29 11.5t15 33.5h42q-4 -44 -29 -68.5t-60 -24.5z" />
    <glyph glyph-name="Odieresis" unicode="&#xd6;" horiz-adv-x="774" 
d="M386 -12q-100 0 -176 45.5t-118.5 127t-42.5 189.5q0 107 42.5 188.5t118.5 127.5t176 46q103 0 179 -46t118 -127.5t42 -188.5q0 -108 -42 -189.5t-118 -127t-179 -45.5zM387 49q79 0 139 36t93.5 103.5t33.5 161.5t-33.5 161t-93.5 103t-139 36t-139 -36t-93.5 -103
t-33.5 -161t33.5 -161.5t93.5 -103.5t139 -36zM311 777q-19 0 -32.5 13.5t-13.5 32.5t13.5 32.5t32.5 13.5t32.5 -13.5t13.5 -32.5t-13.5 -32.5t-32.5 -13.5zM465 777q-19 0 -32.5 13.5t-13.5 32.5t13.5 32.5t32.5 13.5t32 -13.5t13 -32.5t-13 -32.5t-32 -13.5z" />
    <glyph glyph-name="multiply" unicode="&#xd7;" horiz-adv-x="500" 
d="M112 111l-42 42l137 138l-131 131l43 42l131 -131l137 138l42 -42l-137 -138l131 -131l-43 -42l-131 131z" />
    <glyph glyph-name="Oslash" unicode="&#xd8;" horiz-adv-x="777" 
d="M37 0l624 700h79l-623 -700h-80zM386 -12q-100 0 -176 45.5t-118.5 127t-42.5 189.5q0 107 42.5 188.5t118.5 127.5t176 46q103 0 179 -46t118 -127.5t42 -188.5q0 -108 -42 -189.5t-118 -127t-179 -45.5zM387 49q79 0 139 36t93.5 103.5t33.5 161.5t-33.5 161t-93.5 103
t-139 36t-139 -36t-93.5 -103t-33.5 -161t33.5 -161.5t93.5 -103.5t139 -36z" />
    <glyph glyph-name="Ugrave" unicode="&#xd9;" horiz-adv-x="648" 
d="M324 -12q-71 0 -128.5 28t-91.5 87.5t-34 151.5v445h70v-446q0 -71 23.5 -116.5t65.5 -66.5t96 -21q55 0 96 21t64 66.5t23 116.5v446h70v-445q0 -92 -34 -151.5t-91.5 -87.5t-128.5 -28zM419 743l-199 117l10 61v0l195 -127z" />
    <glyph glyph-name="Uacute" unicode="&#xda;" horiz-adv-x="648" 
d="M324 -12q-71 0 -128.5 28t-91.5 87.5t-34 151.5v445h70v-446q0 -71 23.5 -116.5t65.5 -66.5t96 -21q55 0 96 21t64 66.5t23 116.5v446h70v-445q0 -92 -34 -151.5t-91.5 -87.5t-128.5 -28zM228 743l-7 51l196 127v0l9 -61z" />
    <glyph glyph-name="Ucircumflex" unicode="&#xdb;" horiz-adv-x="648" 
d="M324 -12q-71 0 -128.5 28t-91.5 87.5t-34 151.5v445h70v-446q0 -71 23.5 -116.5t65.5 -66.5t96 -21q55 0 96 21t64 66.5t23 116.5v446h70v-445q0 -92 -34 -151.5t-91.5 -87.5t-128.5 -28zM189 758v57l134 82l134 -82v-57l-134 84z" />
    <glyph glyph-name="Udieresis" unicode="&#xdc;" horiz-adv-x="648" 
d="M324 -12q-71 0 -128.5 28t-91.5 87.5t-34 151.5v445h70v-446q0 -71 23.5 -116.5t65.5 -66.5t96 -21q55 0 96 21t64 66.5t23 116.5v446h70v-445q0 -92 -34 -151.5t-91.5 -87.5t-128.5 -28zM247 777q-19 0 -32.5 13.5t-13.5 32.5t13.5 32.5t32.5 13.5t32.5 -13.5
t13.5 -32.5t-13.5 -32.5t-32.5 -13.5zM401 777q-19 0 -32.5 13.5t-13.5 32.5t13.5 32.5t32.5 13.5t32 -13.5t13 -32.5t-13 -32.5t-32 -13.5z" />
    <glyph glyph-name="Yacute" unicode="&#xdd;" horiz-adv-x="566" 
d="M249 0v273l-226 427h79l194 -386h-24l193 386h78l-224 -427v-273h-70zM189 743l-7 51l196 127v0l9 -61z" />
    <glyph glyph-name="Thorn" unicode="&#xde;" horiz-adv-x="574" 
d="M78 0v700h70v-149h151q81 0 133.5 -26.5t77.5 -71.5t25 -103q0 -56 -25 -101.5t-77 -72t-134 -26.5h-151v-150h-70zM148 210h151q89 0 126.5 38t37.5 102q0 68 -37.5 105t-126.5 37h-151v-282z" />
    <glyph glyph-name="germandbls" unicode="&#xdf;" horiz-adv-x="647" 
d="M426 -10q-83 0 -135.5 47.5t-60.5 129.5h70q5 -54 37.5 -87t88.5 -33q51 0 79.5 25.5t28.5 69.5q0 40 -23.5 64.5t-81.5 42.5q-78 26 -111 54.5t-33 72.5q0 31 15 51t36.5 34t43.5 28.5t37 32.5t15 46q0 48 -37.5 76.5t-101.5 28.5q-77 0 -113.5 -42.5t-36.5 -115.5v-515
h-70v523q0 60 24.5 107.5t74 74.5t122.5 27q68 0 114.5 -22t70 -58t23.5 -79q0 -37 -14.5 -60.5t-36.5 -39.5t-44 -28t-36.5 -26t-14.5 -34q0 -16 9.5 -29.5t35 -26t70.5 -27.5q72 -23 103.5 -61t31.5 -94q0 -46 -21.5 -81.5t-61.5 -55.5t-97 -20z" />
    <glyph glyph-name="agrave" unicode="&#xe0;" horiz-adv-x="531" 
d="M232 -12q-61 0 -101.5 22t-60 57t-19.5 77q0 52 26.5 88t75 54t111.5 18h136q0 49 -15 83t-43.5 51.5t-72.5 17.5q-52 0 -89 -26t-46 -76h-73q6 53 36.5 89t76 54.5t95.5 18.5q69 0 113.5 -26.5t66 -72.5t21.5 -106v-311h-64l-3 92v0q-10 -21 -25.5 -40t-36 -33
t-47.5 -22.5t-62 -8.5zM240 50q38 0 67 15t50 40t32 57t11 65v18h-131q-53 0 -85 -13t-46 -35t-14 -51t13.5 -50.5t39.5 -33.5t63 -12zM357 547l-199 116l10 61v0l195 -127z" />
    <glyph glyph-name="aacute" unicode="&#xe1;" horiz-adv-x="531" 
d="M232 -12q-61 0 -101.5 22t-60 57t-19.5 77q0 52 26.5 88t75 54t111.5 18h136q0 49 -15 83t-43.5 51.5t-72.5 17.5q-52 0 -89 -26t-46 -76h-73q6 53 36.5 89t76 54.5t95.5 18.5q69 0 113.5 -26.5t66 -72.5t21.5 -106v-311h-64l-3 92v0q-10 -21 -25.5 -40t-36 -33
t-47.5 -22.5t-62 -8.5zM240 50q38 0 67 15t50 40t32 57t11 65v18h-131q-53 0 -85 -13t-46 -35t-14 -51t13.5 -50.5t39.5 -33.5t63 -12zM165 547l-7 50l196 127v0l9 -61z" />
    <glyph glyph-name="acircumflex" unicode="&#xe2;" horiz-adv-x="531" 
d="M232 -12q-61 0 -101.5 22t-60 57t-19.5 77q0 52 26.5 88t75 54t111.5 18h136q0 49 -15 83t-43.5 51.5t-72.5 17.5q-52 0 -89 -26t-46 -76h-73q6 53 36.5 89t76 54.5t95.5 18.5q69 0 113.5 -26.5t66 -72.5t21.5 -106v-311h-64l-3 92v0q-10 -21 -25.5 -40t-36 -33
t-47.5 -22.5t-62 -8.5zM240 50q38 0 67 15t50 40t32 57t11 65v18h-131q-53 0 -85 -13t-46 -35t-14 -51t13.5 -50.5t39.5 -33.5t63 -12zM127 550v57l134 82l134 -82v-57l-134 84z" />
    <glyph glyph-name="atilde" unicode="&#xe3;" horiz-adv-x="531" 
d="M232 -12q-61 0 -101.5 22t-60 57t-19.5 77q0 52 26.5 88t75 54t111.5 18h136q0 49 -15 83t-43.5 51.5t-72.5 17.5q-52 0 -89 -26t-46 -76h-73q6 53 36.5 89t76 54.5t95.5 18.5q69 0 113.5 -26.5t66 -72.5t21.5 -106v-311h-64l-3 92v0q-10 -21 -25.5 -40t-36 -33
t-47.5 -22.5t-62 -8.5zM240 50q38 0 67 15t50 40t32 57t11 65v18h-131q-53 0 -85 -13t-46 -35t-14 -51t13.5 -50.5t39.5 -33.5t63 -12zM315 570q-26 0 -43.5 12t-32.5 23.5t-36 11.5q-16 0 -27.5 -11t-14.5 -34h-43q6 46 29.5 69.5t58.5 23.5q26 0 43 -11.5t32.5 -23.5
t36.5 -12q17 0 29 11.5t15 33.5h42q-4 -44 -29 -68.5t-60 -24.5z" />
    <glyph glyph-name="adieresis" unicode="&#xe4;" horiz-adv-x="531" 
d="M232 -12q-61 0 -101.5 22t-60 57t-19.5 77q0 52 26.5 88t75 54t111.5 18h136q0 49 -15 83t-43.5 51.5t-72.5 17.5q-52 0 -89 -26t-46 -76h-73q6 53 36.5 89t76 54.5t95.5 18.5q69 0 113.5 -26.5t66 -72.5t21.5 -106v-311h-64l-3 92v0q-10 -21 -25.5 -40t-36 -33
t-47.5 -22.5t-62 -8.5zM240 50q38 0 67 15t50 40t32 57t11 65v18h-131q-53 0 -85 -13t-46 -35t-14 -51t13.5 -50.5t39.5 -33.5t63 -12zM185 570q-19 0 -32.5 13t-13.5 33q0 19 13.5 32.5t32.5 13.5t32.5 -14t13.5 -32q0 -20 -13.5 -33t-32.5 -13zM339 570q-19 0 -32.5 13
t-13.5 33q0 19 13.5 32.5t32.5 13.5t32 -14t13 -32q0 -20 -13 -33t-32 -13z" />
    <glyph glyph-name="aring" unicode="&#xe5;" horiz-adv-x="531" 
d="M232 -12q-61 0 -101.5 22t-60 57t-19.5 77q0 52 26.5 88t75 54t111.5 18h136q0 49 -15 83t-43.5 51.5t-72.5 17.5q-52 0 -89 -26t-46 -76h-73q6 53 36.5 89t76 54.5t95.5 18.5q69 0 113.5 -26.5t66 -72.5t21.5 -106v-311h-64l-3 92v0q-10 -21 -25.5 -40t-36 -33
t-47.5 -22.5t-62 -8.5zM240 50q38 0 67 15t50 40t32 57t11 65v18h-131q-53 0 -85 -13t-46 -35t-14 -51t13.5 -50.5t39.5 -33.5t63 -12zM261 570q-41 0 -71.5 26.5t-30.5 73.5t30.5 73.5t71.5 26.5q43 0 72.5 -27t29.5 -73t-29.5 -73t-72.5 -27zM261 608q25 0 42 17t17 45
q0 29 -17 45t-42 16q-24 0 -41 -16.5t-17 -45.5q0 -27 17 -44t41 -17z" />
    <glyph glyph-name="ae" unicode="&#xe6;" horiz-adv-x="904" 
d="M230 -12q-60 0 -100 22t-59.5 57t-19.5 77q0 52 26.5 87t73.5 52.5t109 17.5h138q0 51 -14.5 85.5t-43.5 52t-71 17.5q-48 0 -84 -26t-45 -76h-73q6 53 36 89t74.5 54.5t91.5 18.5q66 0 110.5 -26t66.5 -72q32 47 81 72.5t109 25.5q72 0 121.5 -33t76 -85.5t26.5 -113.5
v-20.5t-1 -24.5h-391q2 -63 26 -105.5t62 -64t79 -21.5q60 0 96.5 29t52.5 79h68q-12 -48 -41 -86t-73 -60t-103 -22q-67 0 -121.5 33t-82.5 92q-18 -34 -46 -62.5t-66 -45.5t-89 -17zM236 50q46 0 82 23.5t57 63.5t23 88v17h-133q-51 0 -82.5 -12t-45 -33.5t-13.5 -50.5
t13.5 -50.5t38.5 -33.5t60 -12zM469 298h323q-3 76 -48 117t-109 41q-42 0 -78 -18.5t-59.5 -53.5t-28.5 -86z" />
    <glyph glyph-name="ccedilla" unicode="&#xe7;" horiz-adv-x="563" 
d="M293 -12q-69 0 -124.5 33t-87.5 92.5t-32 137.5q0 81 32 139.5t87.5 92t124.5 33.5q88 0 146.5 -45.5t74.5 -120.5h-70q-11 50 -52.5 77.5t-98.5 27.5q-46 0 -85 -22.5t-63 -67.5t-24 -114q0 -51 14 -89t38.5 -63.5t55 -38.5t64.5 -13q37 0 68.5 12.5t53.5 36.5t29 58h70
q-15 -73 -74 -119.5t-147 -46.5zM221 -258v47h86q38 0 55 13t17 38q0 23 -17 35.5t-55 12.5h-46v119h49v-74q39 1 68 -9.5t44.5 -31.5t15.5 -52q0 -30 -14.5 -52t-41 -34t-61.5 -12h-100z" />
    <glyph glyph-name="egrave" unicode="&#xe8;" horiz-adv-x="560" 
d="M287 -12q-70 0 -123.5 33t-84 92.5t-30.5 139.5t30 139t84.5 91.5t125.5 32.5q73 0 124 -33t77.5 -86t26.5 -116v-20.5t-1 -24.5h-414v59h347q-3 77 -48.5 119t-114.5 42q-44 0 -83 -20.5t-62.5 -60t-23.5 -99.5v-26q0 -68 24.5 -113t63.5 -67t82 -22q57 0 94 25.5
t53 70.5h69q-12 -44 -41 -79.5t-73 -56t-102 -20.5zM381 547l-199 116l10 61v0l195 -127z" />
    <glyph glyph-name="eacute" unicode="&#xe9;" horiz-adv-x="560" 
d="M287 -12q-70 0 -123.5 33t-84 92.5t-30.5 139.5t30 139t84.5 91.5t125.5 32.5q73 0 124 -33t77.5 -86t26.5 -116v-20.5t-1 -24.5h-414v59h347q-3 77 -48.5 119t-114.5 42q-44 0 -83 -20.5t-62.5 -60t-23.5 -99.5v-26q0 -68 24.5 -113t63.5 -67t82 -22q57 0 94 25.5
t53 70.5h69q-12 -44 -41 -79.5t-73 -56t-102 -20.5zM189 547l-7 50l196 127v0l9 -61z" />
    <glyph glyph-name="ecircumflex" unicode="&#xea;" horiz-adv-x="560" 
d="M287 -12q-70 0 -123.5 33t-84 92.5t-30.5 139.5t30 139t84.5 91.5t125.5 32.5q73 0 124 -33t77.5 -86t26.5 -116v-20.5t-1 -24.5h-414v59h347q-3 77 -48.5 119t-114.5 42q-44 0 -83 -20.5t-62.5 -60t-23.5 -99.5v-26q0 -68 24.5 -113t63.5 -67t82 -22q57 0 94 25.5
t53 70.5h69q-12 -44 -41 -79.5t-73 -56t-102 -20.5zM151 550v57l134 82l134 -82v-57l-134 84z" />
    <glyph glyph-name="edieresis" unicode="&#xeb;" horiz-adv-x="560" 
d="M287 -12q-70 0 -123.5 33t-84 92.5t-30.5 139.5t30 139t84.5 91.5t125.5 32.5q73 0 124 -33t77.5 -86t26.5 -116v-20.5t-1 -24.5h-414v59h347q-3 77 -48.5 119t-114.5 42q-44 0 -83 -20.5t-62.5 -60t-23.5 -99.5v-26q0 -68 24.5 -113t63.5 -67t82 -22q57 0 94 25.5
t53 70.5h69q-12 -44 -41 -79.5t-73 -56t-102 -20.5zM209 570q-19 0 -32.5 13t-13.5 33q0 19 13.5 32.5t32.5 13.5t32.5 -14t13.5 -32q0 -20 -13.5 -33t-32.5 -13zM363 570q-19 0 -32.5 13t-13.5 33q0 19 13.5 32.5t32.5 13.5t32 -14t13 -32q0 -20 -13 -33t-32 -13z" />
    <glyph glyph-name="igrave" unicode="&#xec;" horiz-adv-x="212" 
d="M71 0v504h70v-504h-70zM202 547l-199 116l10 61v0l195 -127z" />
    <glyph glyph-name="iacute" unicode="&#xed;" horiz-adv-x="212" 
d="M71 0v504h70v-504h-70zM10 547l-7 50l196 127v0l9 -61z" />
    <glyph glyph-name="icircumflex" unicode="&#xee;" horiz-adv-x="212" 
d="M71 0v504h70v-504h-70zM-28 550v57l134 82l134 -82v-57l-134 84z" />
    <glyph glyph-name="idieresis" unicode="&#xef;" horiz-adv-x="212" 
d="M71 0v504h70v-504h-70zM30 570q-19 0 -32.5 13t-13.5 33q0 19 13.5 32.5t32.5 13.5t32.5 -14t13.5 -32q0 -20 -13.5 -33t-32.5 -13zM184 570q-19 0 -32.5 13t-13.5 33q0 19 13.5 32.5t32.5 13.5t32 -14t13 -32q0 -20 -13 -33t-32 -13z" />
    <glyph glyph-name="eth" unicode="&#xf0;" horiz-adv-x="614" 
d="M305 -12q-74 0 -132.5 34.5t-91 94.5t-32.5 134q0 77 33 136t90.5 92.5t129.5 33.5q50 0 99 -19.5t81 -64.5q-13 37 -31.5 71.5t-43.5 68t-57.5 66.5t-72.5 65h72q53 -44 93.5 -92.5t67.5 -102t41 -113.5t14 -127q0 -81 -34 -144t-92.5 -98t-133.5 -35zM307 48
q49 0 91.5 24t69 70t26.5 111q0 62 -26 107t-69 69t-93 24q-49 0 -91.5 -24t-68.5 -69t-26 -107q0 -65 26 -111t68.5 -70t92.5 -24zM241 555v51l286 102v-51z" />
    <glyph glyph-name="ntilde" unicode="&#xf1;" horiz-adv-x="563" 
d="M71 0v504h64l4 -90v0q24 48 69.5 75t101.5 27q58 0 101 -23t67 -69.5t24 -118.5v-305h-70v297q0 80 -35 119t-99 39q-45 0 -80.5 -21.5t-56 -62.5t-20.5 -101v-270h-70zM352 570q-26 0 -43.5 12t-32.5 23.5t-36 11.5q-16 0 -27.5 -11t-14.5 -34h-43q6 46 29.5 69.5
t58.5 23.5q26 0 43 -11.5t32.5 -23.5t36.5 -12q17 0 29 11.5t15 33.5h42q-4 -44 -29 -68.5t-60 -24.5z" />
    <glyph glyph-name="ograve" unicode="&#xf2;" horiz-adv-x="590" 
d="M293 -12q-69 0 -124.5 32.5t-87.5 92t-32 138.5q0 82 32.5 141t88.5 91.5t125 32.5q72 0 127 -32.5t87 -91.5t32 -141q0 -79 -32.5 -138.5t-88 -92t-127.5 -32.5zM294 48q47 0 86.5 23t64 68.5t24.5 112.5q0 68 -24 113t-63.5 67.5t-86.5 22.5q-45 0 -85 -23t-64.5 -67.5
t-24.5 -112.5q0 -67 24 -112.5t63.5 -68.5t85.5 -23zM392 547l-199 116l10 61v0l195 -127z" />
    <glyph glyph-name="oacute" unicode="&#xf3;" horiz-adv-x="590" 
d="M293 -12q-69 0 -124.5 32.5t-87.5 92t-32 138.5q0 82 32.5 141t88.5 91.5t125 32.5q72 0 127 -32.5t87 -91.5t32 -141q0 -79 -32.5 -138.5t-88 -92t-127.5 -32.5zM294 48q47 0 86.5 23t64 68.5t24.5 112.5q0 68 -24 113t-63.5 67.5t-86.5 22.5q-45 0 -85 -23t-64.5 -67.5
t-24.5 -112.5q0 -67 24 -112.5t63.5 -68.5t85.5 -23zM200 547l-7 50l196 127v0l9 -61z" />
    <glyph glyph-name="ocircumflex" unicode="&#xf4;" horiz-adv-x="590" 
d="M293 -12q-69 0 -124.5 32.5t-87.5 92t-32 138.5q0 82 32.5 141t88.5 91.5t125 32.5q72 0 127 -32.5t87 -91.5t32 -141q0 -79 -32.5 -138.5t-88 -92t-127.5 -32.5zM294 48q47 0 86.5 23t64 68.5t24.5 112.5q0 68 -24 113t-63.5 67.5t-86.5 22.5q-45 0 -85 -23t-64.5 -67.5
t-24.5 -112.5q0 -67 24 -112.5t63.5 -68.5t85.5 -23zM162 550v57l134 82l134 -82v-57l-134 84z" />
    <glyph glyph-name="otilde" unicode="&#xf5;" horiz-adv-x="590" 
d="M293 -12q-69 0 -124.5 32.5t-87.5 92t-32 138.5q0 82 32.5 141t88.5 91.5t125 32.5q72 0 127 -32.5t87 -91.5t32 -141q0 -79 -32.5 -138.5t-88 -92t-127.5 -32.5zM294 48q47 0 86.5 23t64 68.5t24.5 112.5q0 68 -24 113t-63.5 67.5t-86.5 22.5q-45 0 -85 -23t-64.5 -67.5
t-24.5 -112.5q0 -67 24 -112.5t63.5 -68.5t85.5 -23zM350 570q-26 0 -43.5 12t-32.5 23.5t-36 11.5q-16 0 -27.5 -11t-14.5 -34h-43q6 46 29.5 69.5t58.5 23.5q26 0 43 -11.5t32.5 -23.5t36.5 -12q17 0 29 11.5t15 33.5h42q-4 -44 -29 -68.5t-60 -24.5z" />
    <glyph glyph-name="odieresis" unicode="&#xf6;" horiz-adv-x="590" 
d="M293 -12q-69 0 -124.5 32.5t-87.5 92t-32 138.5q0 82 32.5 141t88.5 91.5t125 32.5q72 0 127 -32.5t87 -91.5t32 -141q0 -79 -32.5 -138.5t-88 -92t-127.5 -32.5zM294 48q47 0 86.5 23t64 68.5t24.5 112.5q0 68 -24 113t-63.5 67.5t-86.5 22.5q-45 0 -85 -23t-64.5 -67.5
t-24.5 -112.5q0 -67 24 -112.5t63.5 -68.5t85.5 -23zM220 570q-19 0 -32.5 13t-13.5 33q0 19 13.5 32.5t32.5 13.5t32.5 -14t13.5 -32q0 -20 -13.5 -33t-32.5 -13zM374 570q-19 0 -32.5 13t-13.5 33q0 19 13.5 32.5t32.5 13.5t32 -14t13 -32q0 -20 -13 -33t-32 -13z" />
    <glyph glyph-name="divide" unicode="&#xf7;" horiz-adv-x="500" 
d="M55 261v60h389v-60h-389zM250 105q-22 0 -36 15t-14 37t14 36.5t36 14.5t36.5 -14.5t14.5 -36.5t-14.5 -37t-36.5 -15zM250 374q-22 0 -36 15t-14 37t14 36.5t36 14.5t36.5 -14.5t14.5 -36.5t-14.5 -37t-36.5 -15z" />
    <glyph glyph-name="oslash" unicode="&#xf8;" horiz-adv-x="597" 
d="M43 0l439 504h72l-438 -504h-73zM297 -12q-69 0 -124.5 32.5t-87.5 92t-32 138.5q0 82 32.5 141t88.5 91.5t125 32.5q71 0 126 -32.5t87.5 -91.5t32.5 -141q0 -79 -33 -138.5t-88.5 -92t-126.5 -32.5zM298 48q46 0 85.5 23t64.5 68.5t25 112.5q0 68 -24.5 113t-63.5 67.5
t-86 22.5q-46 0 -85.5 -23t-64 -67.5t-24.5 -112.5q0 -67 24 -112.5t63 -68.5t86 -23z" />
    <glyph glyph-name="ugrave" unicode="&#xf9;" horiz-adv-x="563" 
d="M253 -12q-57 0 -100.5 22.5t-67.5 69.5t-24 119v305h70v-297q0 -80 35.5 -119t98.5 -39q45 0 80.5 21.5t56 62.5t20.5 101v270h70v-504h-64l-4 90v0q-24 -48 -69.5 -75t-101.5 -27zM370 547l-199 116l10 61v0l195 -127z" />
    <glyph glyph-name="uacute" unicode="&#xfa;" horiz-adv-x="563" 
d="M253 -12q-57 0 -100.5 22.5t-67.5 69.5t-24 119v305h70v-297q0 -80 35.5 -119t98.5 -39q45 0 80.5 21.5t56 62.5t20.5 101v270h70v-504h-64l-4 90v0q-24 -48 -69.5 -75t-101.5 -27zM178 547l-7 50l196 127v0l9 -61z" />
    <glyph glyph-name="ucircumflex" unicode="&#xfb;" horiz-adv-x="563" 
d="M253 -12q-57 0 -100.5 22.5t-67.5 69.5t-24 119v305h70v-297q0 -80 35.5 -119t98.5 -39q45 0 80.5 21.5t56 62.5t20.5 101v270h70v-504h-64l-4 90v0q-24 -48 -69.5 -75t-101.5 -27zM140 550v57l134 82l134 -82v-57l-134 84z" />
    <glyph glyph-name="udieresis" unicode="&#xfc;" horiz-adv-x="563" 
d="M253 -12q-57 0 -100.5 22.5t-67.5 69.5t-24 119v305h70v-297q0 -80 35.5 -119t98.5 -39q45 0 80.5 21.5t56 62.5t20.5 101v270h70v-504h-64l-4 90v0q-24 -48 -69.5 -75t-101.5 -27zM198 570q-19 0 -32.5 13t-13.5 33q0 19 13.5 32.5t32.5 13.5t32.5 -14t13.5 -32
q0 -20 -13.5 -33t-32.5 -13zM352 570q-19 0 -32.5 13t-13.5 33q0 19 13.5 32.5t32.5 13.5t32 -14t13 -32q0 -20 -13 -33t-32 -13z" />
    <glyph glyph-name="yacute" unicode="&#xfd;" horiz-adv-x="544" 
d="M123 -220l124 276h-27l-199 448h76l172 -400v0l181 400h72l-326 -724h-73zM176 547l-7 50l196 127v0l9 -61z" />
    <glyph glyph-name="thorn" unicode="&#xfe;" horiz-adv-x="620" 
d="M71 -220v940h70v-307q16 27 42 50.5t62.5 38t83.5 14.5q73 0 128 -34.5t84.5 -94.5t29.5 -136t-30 -135.5t-84.5 -93.5t-128.5 -34q-64 0 -112.5 27.5t-74.5 77.5v-313h-70zM323 49q52 0 92 25.5t62.5 70.5t22.5 107q0 61 -22.5 107t-62.5 71t-92 25t-92 -25t-63 -70.5
t-23 -107.5q0 -61 23 -106.5t63 -71t92 -25.5z" />
    <glyph glyph-name="ydieresis" unicode="&#xff;" horiz-adv-x="544" 
d="M123 -220l124 276h-27l-199 448h76l172 -400v0l181 400h72l-326 -724h-73zM196 570q-19 0 -32.5 13t-13.5 33q0 19 13.5 32.5t32.5 13.5t32.5 -14t13.5 -32q0 -20 -13.5 -33t-32.5 -13zM350 570q-19 0 -32.5 13t-13.5 33q0 19 13.5 32.5t32.5 13.5t32 -14t13 -32
q0 -20 -13 -33t-32 -13z" />
    <glyph glyph-name="Amacron" unicode="&#x100;" horiz-adv-x="654" 
d="M33 0l258 700h72l258 -700h-74l-220 608v0l-220 -608h-74zM151 189l21 58h309l21 -58h-351zM158 800v54h339v-54h-339z" />
    <glyph glyph-name="amacron" unicode="&#x101;" horiz-adv-x="531" 
d="M232 -12q-61 0 -101.5 22t-60 57t-19.5 77q0 52 26.5 88t75 54t111.5 18h136q0 49 -15 83t-43.5 51.5t-72.5 17.5q-52 0 -89 -26t-46 -76h-73q6 53 36.5 89t76 54.5t95.5 18.5q69 0 113.5 -26.5t66 -72.5t21.5 -106v-311h-64l-3 92v0q-10 -21 -25.5 -40t-36 -33
t-47.5 -22.5t-62 -8.5zM240 50q38 0 67 15t50 40t32 57t11 65v18h-131q-53 0 -85 -13t-46 -35t-14 -51t13.5 -50.5t39.5 -33.5t63 -12zM91 594v54h339v-54h-339z" />
    <glyph glyph-name="Abreve" unicode="&#x102;" horiz-adv-x="654" 
d="M33 0l258 700h72l258 -700h-74l-220 608v0l-220 -608h-74zM151 189l21 58h309l21 -58h-351zM328 760q-45 0 -75 17t-45 45t-15 61v13h44q0 -38 21.5 -59t69.5 -21t69.5 21t21.5 59h45v-13q0 -33 -15 -61t-45.5 -45t-75.5 -17z" />
    <glyph glyph-name="abreve" unicode="&#x103;" horiz-adv-x="531" 
d="M232 -12q-61 0 -101.5 22t-60 57t-19.5 77q0 52 26.5 88t75 54t111.5 18h136q0 49 -15 83t-43.5 51.5t-72.5 17.5q-52 0 -89 -26t-46 -76h-73q6 53 36.5 89t76 54.5t95.5 18.5q69 0 113.5 -26.5t66 -72.5t21.5 -106v-311h-64l-3 92v0q-10 -21 -25.5 -40t-36 -33
t-47.5 -22.5t-62 -8.5zM240 50q38 0 67 15t50 40t32 57t11 65v18h-131q-53 0 -85 -13t-46 -35t-14 -51t13.5 -50.5t39.5 -33.5t63 -12zM261 563q-45 0 -75 17t-45 45t-15 61v13h44q0 -38 21.5 -59t69.5 -21t69.5 21t21.5 59h45v-13q0 -33 -15 -61t-45.5 -45t-75.5 -17z" />
    <glyph glyph-name="Aogonek" unicode="&#x104;" horiz-adv-x="654" 
d="M33 0l258 700h72l258 -700h-74l-220 608v0l-220 -608h-74zM151 189l21 58h309l21 -58h-351zM552 -201q-28 0 -54 9t-42.5 29.5t-16.5 53.5q0 23 10.5 44t34.5 40.5t63 37.5l55 25l19 -38l-60 -29q-35 -17 -49 -35t-14 -38q0 -25 17 -38t45 -13q14 0 31 3.5t33 10.5v-49
q-16 -6 -35 -9.5t-37 -3.5z" />
    <glyph glyph-name="aogonek" unicode="&#x105;" horiz-adv-x="531" 
d="M232 -12q-61 0 -101.5 22t-60 57t-19.5 77q0 52 26.5 88t75 54t111.5 18h136q0 49 -15 83t-43.5 51.5t-72.5 17.5q-52 0 -89 -26t-46 -76h-73q6 53 36.5 89t76 54.5t95.5 18.5q69 0 113.5 -26.5t66 -72.5t21.5 -106v-311h-64l-3 92v0q-10 -21 -25.5 -40t-36 -33
t-47.5 -22.5t-62 -8.5zM240 50q38 0 67 15t50 40t32 57t11 65v18h-131q-53 0 -85 -13t-46 -35t-14 -51t13.5 -50.5t39.5 -33.5t63 -12zM401 -201q-28 0 -54 9t-42.5 29.5t-16.5 53.5q0 23 10.5 44t34.5 40.5t63 37.5l55 25l19 -38l-60 -29q-35 -17 -49 -35t-14 -38
q0 -25 17 -38t45 -13q14 0 31 3.5t33 10.5v-49q-16 -6 -35 -9.5t-37 -3.5z" />
    <glyph glyph-name="Cacute" unicode="&#x106;" horiz-adv-x="713" 
d="M378 -12q-101 0 -175 45.5t-114 127t-40 189.5t40 189.5t114.5 127t174.5 45.5q118 0 191.5 -55.5t94.5 -156.5h-77q-16 68 -68 109.5t-141 41.5q-77 0 -135 -36t-90 -103.5t-32 -161.5t32 -161.5t90 -103.5t135 -36q89 0 141 41t68 108h77q-22 -99 -94.5 -154.5
t-191.5 -55.5zM262 743l-7 51l196 127v0l9 -61z" />
    <glyph glyph-name="cacute" unicode="&#x107;" horiz-adv-x="563" 
d="M293 -12q-69 0 -124.5 33t-87.5 92.5t-32 137.5q0 81 32 139.5t87.5 92t124.5 33.5q88 0 146.5 -45.5t74.5 -120.5h-70q-11 50 -52.5 77.5t-98.5 27.5q-46 0 -85 -22.5t-63 -67.5t-24 -114q0 -51 14 -89t38.5 -63.5t55 -38.5t64.5 -13q37 0 68.5 12.5t53.5 36.5t29 58h70
q-15 -73 -74 -119.5t-147 -46.5zM186 547l-7 50l196 127v0l9 -61z" />
    <glyph glyph-name="Cdotaccent" unicode="&#x10a;" horiz-adv-x="713" 
d="M378 -12q-101 0 -175 45.5t-114 127t-40 189.5t40 189.5t114.5 127t174.5 45.5q118 0 191.5 -55.5t94.5 -156.5h-77q-16 68 -68 109.5t-141 41.5q-77 0 -135 -36t-90 -103.5t-32 -161.5t32 -161.5t90 -103.5t135 -36q89 0 141 41t68 108h77q-22 -99 -94.5 -154.5
t-191.5 -55.5zM357 767q-19 0 -32.5 13.5t-13.5 32.5t13.5 32.5t32.5 13.5t32.5 -13.5t13.5 -32.5t-13.5 -32.5t-32.5 -13.5z" />
    <glyph glyph-name="cdotaccent" unicode="&#x10b;" horiz-adv-x="563" 
d="M293 -12q-69 0 -124.5 33t-87.5 92.5t-32 137.5q0 81 32 139.5t87.5 92t124.5 33.5q88 0 146.5 -45.5t74.5 -120.5h-70q-11 50 -52.5 77.5t-98.5 27.5q-46 0 -85 -22.5t-63 -67.5t-24 -114q0 -51 14 -89t38.5 -63.5t55 -38.5t64.5 -13q37 0 68.5 12.5t53.5 36.5t29 58h70
q-15 -73 -74 -119.5t-147 -46.5zM282 571q-19 0 -32.5 13.5t-13.5 32.5t13.5 32.5t32.5 13.5t32.5 -13.5t13.5 -32.5t-13.5 -32.5t-32.5 -13.5z" />
    <glyph glyph-name="Ccaron" unicode="&#x10c;" horiz-adv-x="713" 
d="M378 -12q-101 0 -175 45.5t-114 127t-40 189.5t40 189.5t114.5 127t174.5 45.5q118 0 191.5 -55.5t94.5 -156.5h-77q-16 68 -68 109.5t-141 41.5q-77 0 -135 -36t-90 -103.5t-32 -161.5t32 -161.5t90 -103.5t135 -36q89 0 141 41t68 108h77q-22 -99 -94.5 -154.5
t-191.5 -55.5zM357 757l-134 82v56l134 -83l134 83v-56z" />
    <glyph glyph-name="ccaron" unicode="&#x10d;" horiz-adv-x="563" 
d="M293 -12q-69 0 -124.5 33t-87.5 92.5t-32 137.5q0 81 32 139.5t87.5 92t124.5 33.5q88 0 146.5 -45.5t74.5 -120.5h-70q-11 50 -52.5 77.5t-98.5 27.5q-46 0 -85 -22.5t-63 -67.5t-24 -114q0 -51 14 -89t38.5 -63.5t55 -38.5t64.5 -13q37 0 68.5 12.5t53.5 36.5t29 58h70
q-15 -73 -74 -119.5t-147 -46.5zM282 563l-134 82v56l134 -83l134 83v-56z" />
    <glyph glyph-name="Dcaron" unicode="&#x10e;" horiz-adv-x="685" 
d="M78 0v700h198q124 0 203.5 -42t118 -121t38.5 -189q0 -108 -38.5 -186t-118 -120t-203.5 -42h-198zM148 58h128q106 0 169 35t91 100t28 155q0 91 -28 157t-91 101.5t-169 35.5h-128v-584zM276 757l-134 82v56l134 -83l134 83v-56z" />
    <glyph glyph-name="dcaron" unicode="&#x10f;" horiz-adv-x="688" 
d="M292 -12q-74 0 -128.5 34.5t-84.5 94.5t-30 136t30 135.5t85 93.5t129 34q63 0 111.5 -27.5t74.5 -77.5v309h70v-720h-64l-6 91v0q-15 -26 -41 -50t-62.5 -38.5t-83.5 -14.5zM297 49q53 0 92.5 25.5t62.5 71t23 106.5t-23 107t-62.5 71t-92.5 25q-51 0 -91.5 -25
t-63 -70.5t-22.5 -107.5t23 -107.5t63 -70.5t91 -25zM592 565v36q23 0 32 9.5t9 28.5v22h-40v76h75q5 -25 7.5 -43t2.5 -37q0 -50 -22.5 -71t-63.5 -21z" />
    <glyph glyph-name="Dcroat" unicode="&#x110;" horiz-adv-x="709" 
d="M9 316v65h370v-65h-370zM102 0v700h198q124 0 203.5 -42t118 -121t38.5 -189q0 -108 -38.5 -186t-118 -120t-203.5 -42h-198zM172 58h128q106 0 169 35t91 100t28 155q0 91 -28 157t-91 101.5t-169 35.5h-128v-584z" />
    <glyph glyph-name="dcroat" unicode="&#x111;" horiz-adv-x="671" 
d="M335 572v60h293v-60h-293zM292 -12q-74 0 -128.5 34.5t-84.5 94.5t-30 136t30 135.5t85 93.5t129 34q63 0 111.5 -27.5t74.5 -77.5v309h70v-720h-64l-6 91v0q-15 -26 -41 -50t-62.5 -38.5t-83.5 -14.5zM297 49q53 0 92.5 25.5t62.5 71t23 106.5t-23 107t-62.5 71
t-92.5 25q-51 0 -91.5 -25t-63 -70.5t-22.5 -107.5t23 -107.5t63 -70.5t91 -25z" />
    <glyph glyph-name="Emacron" unicode="&#x112;" horiz-adv-x="562" 
d="M78 0v700h425v-58h-355v-261h325v-58h-325v-265h355v-58h-425zM120 800v54h339v-54h-339z" />
    <glyph glyph-name="emacron" unicode="&#x113;" horiz-adv-x="560" 
d="M287 -12q-70 0 -123.5 33t-84 92.5t-30.5 139.5t30 139t84.5 91.5t125.5 32.5q73 0 124 -33t77.5 -86t26.5 -116v-20.5t-1 -24.5h-414v59h347q-3 77 -48.5 119t-114.5 42q-44 0 -83 -20.5t-62.5 -60t-23.5 -99.5v-26q0 -68 24.5 -113t63.5 -67t82 -22q57 0 94 25.5
t53 70.5h69q-12 -44 -41 -79.5t-73 -56t-102 -20.5zM115 594v54h339v-54h-339z" />
    <glyph glyph-name="Ebreve" unicode="&#x114;" horiz-adv-x="562" 
d="M78 0v700h425v-58h-355v-261h325v-58h-325v-265h355v-58h-425zM290 760q-45 0 -75 17t-45 45t-15 61v13h44q0 -38 21.5 -59t69.5 -21t69.5 21t21.5 59h45v-13q0 -33 -15 -61t-45.5 -45t-75.5 -17z" />
    <glyph glyph-name="ebreve" unicode="&#x115;" horiz-adv-x="560" 
d="M287 -12q-70 0 -123.5 33t-84 92.5t-30.5 139.5t30 139t84.5 91.5t125.5 32.5q73 0 124 -33t77.5 -86t26.5 -116v-20.5t-1 -24.5h-414v59h347q-3 77 -48.5 119t-114.5 42q-44 0 -83 -20.5t-62.5 -60t-23.5 -99.5v-26q0 -68 24.5 -113t63.5 -67t82 -22q57 0 94 25.5
t53 70.5h69q-12 -44 -41 -79.5t-73 -56t-102 -20.5zM285 563q-45 0 -75 17t-45 45t-15 61v13h44q0 -38 21.5 -59t69.5 -21t69.5 21t21.5 59h45v-13q0 -33 -15 -61t-45.5 -45t-75.5 -17z" />
    <glyph glyph-name="Edotaccent" unicode="&#x116;" horiz-adv-x="562" 
d="M78 0v700h425v-58h-355v-261h325v-58h-325v-265h355v-58h-425zM290 767q-19 0 -32.5 13.5t-13.5 32.5t13.5 32.5t32.5 13.5t32.5 -13.5t13.5 -32.5t-13.5 -32.5t-32.5 -13.5z" />
    <glyph glyph-name="edotaccent" unicode="&#x117;" horiz-adv-x="560" 
d="M287 -12q-70 0 -123.5 33t-84 92.5t-30.5 139.5t30 139t84.5 91.5t125.5 32.5q73 0 124 -33t77.5 -86t26.5 -116v-20.5t-1 -24.5h-414v59h347q-3 77 -48.5 119t-114.5 42q-44 0 -83 -20.5t-62.5 -60t-23.5 -99.5v-26q0 -68 24.5 -113t63.5 -67t82 -22q57 0 94 25.5
t53 70.5h69q-12 -44 -41 -79.5t-73 -56t-102 -20.5zM285 571q-19 0 -32.5 13.5t-13.5 32.5t13.5 32.5t32.5 13.5t32.5 -13.5t13.5 -32.5t-13.5 -32.5t-32.5 -13.5z" />
    <glyph glyph-name="Eogonek" unicode="&#x118;" horiz-adv-x="562" 
d="M78 0v700h425v-58h-355v-261h325v-58h-325v-265h355v-58h-425zM434 -201q-28 0 -54 9t-42.5 29.5t-16.5 53.5q0 23 10.5 44t34.5 40.5t63 37.5l55 25l19 -38l-60 -29q-35 -17 -49 -35t-14 -38q0 -25 17 -38t45 -13q14 0 31 3.5t33 10.5v-49q-16 -6 -35 -9.5t-37 -3.5z
" />
    <glyph glyph-name="eogonek" unicode="&#x119;" horiz-adv-x="560" 
d="M287 -12q-70 0 -123.5 33t-84 92.5t-30.5 139.5t30 139t84.5 91.5t125.5 32.5q73 0 124 -33t77.5 -86t26.5 -116v-20.5t-1 -24.5h-414v59h347q-3 77 -48.5 119t-114.5 42q-44 0 -83 -20.5t-62.5 -60t-23.5 -99.5v-26q0 -68 24.5 -113t63.5 -67t82 -22q57 0 94 25.5
t53 70.5h69q-12 -44 -41 -79.5t-73 -56t-102 -20.5zM322 -189q-28 0 -54 9t-42.5 29.5t-16.5 53.5q0 23 10.5 44t34.5 40.5t63 37.5l55 25l19 -38l-60 -29q-35 -17 -49 -35t-14 -38q0 -25 17 -38t45 -13q14 0 31 3.5t33 10.5v-49q-16 -6 -35 -9.5t-37 -3.5z" />
    <glyph glyph-name="Ecaron" unicode="&#x11a;" horiz-adv-x="562" 
d="M78 0v700h425v-58h-355v-261h325v-58h-325v-265h355v-58h-425zM290 757l-134 82v56l134 -83l134 83v-56z" />
    <glyph glyph-name="ecaron" unicode="&#x11b;" horiz-adv-x="560" 
d="M287 -12q-70 0 -123.5 33t-84 92.5t-30.5 139.5t30 139t84.5 91.5t125.5 32.5q73 0 124 -33t77.5 -86t26.5 -116v-20.5t-1 -24.5h-414v59h347q-3 77 -48.5 119t-114.5 42q-44 0 -83 -20.5t-62.5 -60t-23.5 -99.5v-26q0 -68 24.5 -113t63.5 -67t82 -22q57 0 94 25.5
t53 70.5h69q-12 -44 -41 -79.5t-73 -56t-102 -20.5zM285 563l-134 82v56l134 -83l134 83v-56z" />
    <glyph glyph-name="Gbreve" unicode="&#x11e;" horiz-adv-x="755" 
d="M376 -12q-98 0 -172 45.5t-114.5 127t-40.5 189.5q0 107 41.5 188.5t117 127.5t178.5 46q116 0 194 -56t100 -156h-82q-14 68 -69.5 108t-142.5 40q-80 0 -139.5 -36t-92.5 -102.5t-33 -159.5t32.5 -160t90 -103t132.5 -36q118 0 177.5 70t67.5 193h-211v57h283v-371h-64
l-6 124v0q-26 -43 -59.5 -74t-79 -46.5t-108.5 -15.5zM378 760q-45 0 -75 17t-45 45t-15 61v13h44q0 -38 21.5 -59t69.5 -21t69.5 21t21.5 59h45v-13q0 -33 -15 -61t-45.5 -45t-75.5 -17z" />
    <glyph glyph-name="gbreve" unicode="&#x11f;" horiz-adv-x="552" 
d="M266 -232q-67 0 -118.5 18t-81 54t-29.5 89q0 21 7.5 45.5t29.5 49.5t62 45l57 -25q-53 -25 -69 -54.5t-16 -53.5q0 -36 20.5 -60t56 -36t81.5 -12t79.5 13t51.5 37.5t18 56.5q0 37 -28.5 62.5t-105.5 29.5q-61 4 -100.5 10.5t-65 16t-42 20.5t-31.5 24v23l96 91l64 -23
l-94 -84l6 27q12 -8 22 -15t27.5 -11.5t49 -9t85.5 -8.5q69 -5 110 -24t60 -51t19 -75t-23.5 -81.5t-72 -63.5t-125.5 -25zM265 160q-64 0 -107.5 24t-66.5 64.5t-23 89.5q0 50 23 90t67 64t107 24q64 0 107.5 -24t66 -64t22.5 -90q0 -49 -22.5 -89.5t-66 -64.5t-107.5 -24z
M265 220q58 0 91.5 30.5t33.5 87.5q0 58 -33.5 88t-91.5 30t-92.5 -30t-34.5 -88q0 -57 34 -87.5t93 -30.5zM347 441l-25 63h204v-57zM265 563q-45 0 -75 17t-45 45t-15 61v13h44q0 -38 21.5 -59t69.5 -21t69.5 21t21.5 59h45v-13q0 -33 -15 -61t-45.5 -45t-75.5 -17z" />
    <glyph glyph-name="Gdotaccent" unicode="&#x120;" horiz-adv-x="755" 
d="M376 -12q-98 0 -172 45.5t-114.5 127t-40.5 189.5q0 107 41.5 188.5t117 127.5t178.5 46q116 0 194 -56t100 -156h-82q-14 68 -69.5 108t-142.5 40q-80 0 -139.5 -36t-92.5 -102.5t-33 -159.5t32.5 -160t90 -103t132.5 -36q118 0 177.5 70t67.5 193h-211v57h283v-371h-64
l-6 124v0q-26 -43 -59.5 -74t-79 -46.5t-108.5 -15.5zM378 767q-19 0 -32.5 13.5t-13.5 32.5t13.5 32.5t32.5 13.5t32.5 -13.5t13.5 -32.5t-13.5 -32.5t-32.5 -13.5z" />
    <glyph glyph-name="gdotaccent" unicode="&#x121;" horiz-adv-x="552" 
d="M266 -232q-67 0 -118.5 18t-81 54t-29.5 89q0 21 7.5 45.5t29.5 49.5t62 45l57 -25q-53 -25 -69 -54.5t-16 -53.5q0 -36 20.5 -60t56 -36t81.5 -12t79.5 13t51.5 37.5t18 56.5q0 37 -28.5 62.5t-105.5 29.5q-61 4 -100.5 10.5t-65 16t-42 20.5t-31.5 24v23l96 91l64 -23
l-94 -84l6 27q12 -8 22 -15t27.5 -11.5t49 -9t85.5 -8.5q69 -5 110 -24t60 -51t19 -75t-23.5 -81.5t-72 -63.5t-125.5 -25zM265 160q-64 0 -107.5 24t-66.5 64.5t-23 89.5q0 50 23 90t67 64t107 24q64 0 107.5 -24t66 -64t22.5 -90q0 -49 -22.5 -89.5t-66 -64.5t-107.5 -24z
M265 220q58 0 91.5 30.5t33.5 87.5q0 58 -33.5 88t-91.5 30t-92.5 -30t-34.5 -88q0 -57 34 -87.5t93 -30.5zM347 441l-25 63h204v-57zM265 571q-19 0 -32.5 13.5t-13.5 32.5t13.5 32.5t32.5 13.5t32.5 -13.5t13.5 -32.5t-13.5 -32.5t-32.5 -13.5z" />
    <glyph glyph-name="uni0122" unicode="&#x122;" horiz-adv-x="755" 
d="M376 -12q-98 0 -172 45.5t-114.5 127t-40.5 189.5q0 107 41.5 188.5t117 127.5t178.5 46q116 0 194 -56t100 -156h-82q-14 68 -69.5 108t-142.5 40q-80 0 -139.5 -36t-92.5 -102.5t-33 -159.5t32.5 -160t90 -103t132.5 -36q118 0 177.5 70t67.5 193h-211v57h283v-371h-64
l-6 124v0q-26 -43 -59.5 -74t-79 -46.5t-108.5 -15.5zM333 -226v36q24 0 34.5 14t10.5 41v14h-43v69h79q4 -18 6 -35.5t2 -31.5q0 -58 -24 -82.5t-65 -24.5z" />
    <glyph glyph-name="uni0123" unicode="&#x123;" horiz-adv-x="552" 
d="M266 -232q-67 0 -118.5 18t-81 54t-29.5 89q0 21 7.5 45.5t29.5 49.5t62 45l57 -25q-53 -25 -69 -54.5t-16 -53.5q0 -36 20.5 -60t56 -36t81.5 -12t79.5 13t51.5 37.5t18 56.5q0 37 -28.5 62.5t-105.5 29.5q-61 4 -100.5 10.5t-65 16t-42 20.5t-31.5 24v23l96 91l64 -23
l-94 -84l6 27q12 -8 22 -15t27.5 -11.5t49 -9t85.5 -8.5q69 -5 110 -24t60 -51t19 -75t-23.5 -81.5t-72 -63.5t-125.5 -25zM265 160q-64 0 -107.5 24t-66.5 64.5t-23 89.5q0 50 23 90t67 64t107 24q64 0 107.5 -24t66 -64t22.5 -90q0 -49 -22.5 -89.5t-66 -64.5t-107.5 -24z
M265 220q58 0 91.5 30.5t33.5 87.5q0 58 -33.5 88t-91.5 30t-92.5 -30t-34.5 -88q0 -57 34 -87.5t93 -30.5zM347 441l-25 63h204v-57zM308 738v-36q-22 0 -31.5 -9.5t-9.5 -28.5v-22h40v-76h-75q-4 25 -7 43t-3 37q0 50 23 71t63 21z" />
    <glyph glyph-name="Hbar" unicode="&#x126;" horiz-adv-x="729" 
d="M35 500v65h659v-65h-659zM554 0v700h70v-700h-70zM105 0v700h70v-700h-70zM159 327v58h415v-58h-415z" />
    <glyph glyph-name="hbar" unicode="&#x127;" horiz-adv-x="615" 
d="M43 572v60h291v-60h-291zM122 0v720h70v-306v0q26 48 72.5 75t100.5 27q58 0 100 -23t65.5 -70t23.5 -120v-303h-69v295q0 81 -33.5 120.5t-97.5 39.5q-45 0 -82 -22t-58.5 -63.5t-21.5 -102.5v-267h-70z" />
    <glyph glyph-name="Itilde" unicode="&#x128;" horiz-adv-x="226" 
d="M78 0v700h70v-700h-70zM178 758q-26 0 -43.5 12t-32.5 23.5t-36 11.5q-16 0 -27.5 -11t-14.5 -34h-43q6 46 29.5 69.5t58.5 23.5q26 0 43 -11.5t32.5 -23.5t36.5 -12q17 0 29 11.5t15 33.5h42q-4 -44 -29 -68.5t-60 -24.5z" />
    <glyph glyph-name="itilde" unicode="&#x129;" horiz-adv-x="212" 
d="M71 0v504h70v-504h-70zM160 570q-26 0 -43.5 12t-32.5 23.5t-36 11.5q-16 0 -27.5 -11t-14.5 -34h-43q6 46 29.5 69.5t58.5 23.5q26 0 43 -11.5t32.5 -23.5t36.5 -12q17 0 29 11.5t15 33.5h42q-4 -44 -29 -68.5t-60 -24.5z" />
    <glyph glyph-name="Imacron" unicode="&#x12a;" horiz-adv-x="226" 
d="M78 0v700h70v-700h-70zM-57 800v54h339v-54h-339z" />
    <glyph glyph-name="imacron" unicode="&#x12b;" horiz-adv-x="212" 
d="M71 0v504h70v-504h-70zM-64 594v54h339v-54h-339z" />
    <glyph glyph-name="Ibreve" unicode="&#x12c;" horiz-adv-x="226" 
d="M78 0v700h70v-700h-70zM113 760q-45 0 -75 17t-45 45t-15 61v13h44q0 -38 21.5 -59t69.5 -21t69.5 21t21.5 59h45v-13q0 -33 -15 -61t-45.5 -45t-75.5 -17z" />
    <glyph glyph-name="ibreve" unicode="&#x12d;" horiz-adv-x="212" 
d="M71 0v504h70v-504h-70zM106 563q-45 0 -75 17t-45 45t-15 61v13h44q0 -38 21.5 -59t69.5 -21t69.5 21t21.5 59h45v-13q0 -33 -15 -61t-45.5 -45t-75.5 -17z" />
    <glyph glyph-name="Iogonek" unicode="&#x12e;" horiz-adv-x="226" 
d="M78 0v700h70v-700h-70zM79 -200q-28 0 -54 9t-42.5 29.5t-16.5 53.5q0 23 10.5 44t34.5 40.5t63 37.5l55 25l19 -38l-60 -29q-35 -17 -49 -35t-14 -38q0 -25 17 -38t45 -13q14 0 31 3.5t33 10.5v-49q-16 -6 -35 -9.5t-37 -3.5z" />
    <glyph glyph-name="iogonek" unicode="&#x12f;" horiz-adv-x="212" 
d="M71 0v504h70v-504h-70zM106 571q-19 0 -32.5 13.5t-13.5 32.5t13.5 32.5t32.5 13.5t32.5 -13.5t13.5 -32.5t-13.5 -32.5t-32.5 -13.5zM72 -201q-28 0 -54 9t-42.5 29.5t-16.5 53.5q0 23 10.5 44t34.5 40.5t63 37.5l55 25l19 -38l-60 -29q-35 -17 -49 -35t-14 -38
q0 -25 17 -38t45 -13q14 0 31 3.5t33 10.5v-49q-16 -6 -35 -9.5t-37 -3.5z" />
    <glyph glyph-name="Idotaccent" unicode="&#x130;" horiz-adv-x="226" 
d="M78 0v700h70v-700h-70zM113 767q-19 0 -32.5 13.5t-13.5 32.5t13.5 32.5t32.5 13.5t32.5 -13.5t13.5 -32.5t-13.5 -32.5t-32.5 -13.5z" />
    <glyph glyph-name="dotlessi" unicode="&#x131;" horiz-adv-x="212" 
d="M71 0v504h70v-504h-70z" />
    <glyph glyph-name="IJ" unicode="&#x132;" horiz-adv-x="680" 
d="M78 0v700h70v-700h-70zM412 -12q-61 0 -105 23t-67.5 66.5t-23.5 103.5h71q1 -36 12.5 -65.5t38.5 -47.5t74 -18q46 0 71.5 17.5t37 47t11.5 65.5v520h70v-520q0 -91 -50.5 -141.5t-139.5 -50.5z" />
    <glyph glyph-name="ij" unicode="&#x133;" horiz-adv-x="426" 
d="M81 0v504h70v-504h-70zM116 623q-21 0 -36 14.5t-15 36.5q0 23 14.5 36.5t36.5 13.5q20 0 35 -13.5t15 -36.5q0 -22 -14.5 -36.5t-35.5 -14.5zM165 -220v60h38q39 0 56 16.5t17 55.5v592h70v-595q0 -44 -14.5 -72.5t-44 -42.5t-73.5 -14h-49zM312 623q-21 0 -36 14.5
t-15 36.5q0 23 15 36.5t36 13.5q20 0 35 -13.5t15 -36.5q0 -22 -14.5 -36.5t-35.5 -14.5z" />
    <glyph glyph-name="uni0136" unicode="&#x136;" horiz-adv-x="568" 
d="M78 0v700h70v-328l303 328h89l-261 -280l264 -420h-85l-229 366l-81 -86v-280h-70zM241 -226v36q24 0 34.5 14t10.5 41v14h-43v69h79q4 -18 6 -35.5t2 -31.5q0 -58 -24 -82.5t-65 -24.5z" />
    <glyph glyph-name="uni0137" unicode="&#x137;" horiz-adv-x="485" 
d="M376 0l-247 276l226 228h87l-251 -251l1 47l274 -300h-90zM71 0v720h70v-720h-70zM198 -226v36q24 0 34.5 14t10.5 41v14h-43v69h79q4 -18 6 -35.5t2 -31.5q0 -58 -24 -82.5t-65 -24.5z" />
    <glyph glyph-name="Lacute" unicode="&#x139;" horiz-adv-x="520" 
d="M78 0v700h70v-643h331v-57h-401zM21 743l-7 51l196 127v0l9 -61z" />
    <glyph glyph-name="lacute" unicode="&#x13a;" horiz-adv-x="212" 
d="M71 0v720h70v-720h-70zM10 764l-7 50l196 127v0l9 -61z" />
    <glyph glyph-name="uni013B" unicode="&#x13b;" horiz-adv-x="520" 
d="M78 0v700h70v-643h331v-57h-401zM248 -226v36q24 0 34.5 14t10.5 41v14h-43v69h79q4 -18 6 -35.5t2 -31.5q0 -58 -24 -82.5t-65 -24.5z" />
    <glyph glyph-name="uni013C" unicode="&#x13c;" horiz-adv-x="212" 
d="M71 0v720h70v-720h-70zM61 -226v36q24 0 34.5 14t10.5 41v14h-43v69h79q4 -18 6 -35.5t2 -31.5q0 -58 -24 -82.5t-65 -24.5z" />
    <glyph glyph-name="Lcaron" unicode="&#x13d;" horiz-adv-x="520" 
d="M78 0v700h70v-643h331v-57h-401zM260 545v36q23 0 32 9.5t9 28.5v22h-40v76h75q5 -25 7.5 -43t2.5 -37q0 -50 -22.5 -71t-63.5 -21z" />
    <glyph glyph-name="lcaron" unicode="&#x13e;" horiz-adv-x="280" 
d="M71 0v720h70v-720h-70zM184 565v36q23 0 32 9.5t9 28.5v22h-40v76h75q5 -25 7.5 -43t2.5 -37q0 -50 -22.5 -71t-63.5 -21z" />
    <glyph glyph-name="Ldot" unicode="&#x13f;" horiz-adv-x="520" 
d="M78 0v700h70v-643h331v-57h-401zM354 299q-22 0 -36.5 15t-14.5 37t14.5 36.5t36.5 14.5t36.5 -14.5t14.5 -36.5t-14.5 -37t-36.5 -15z" />
    <glyph glyph-name="ldot" unicode="&#x140;" horiz-adv-x="333" 
d="M71 0v720h70v-720h-70zM252 295q-22 0 -36.5 15t-14.5 37t14.5 36.5t36.5 14.5t36.5 -14.5t14.5 -36.5t-14.5 -37t-36.5 -15z" />
    <glyph glyph-name="Lslash" unicode="&#x141;" horiz-adv-x="546" 
d="M20 289v55l281 110v-55zM104 0v700h70v-643h331v-57h-401z" />
    <glyph glyph-name="lslash" unicode="&#x142;" horiz-adv-x="239" 
d="M9 343v55l221 96v-55zM84 0v720h70v-720h-70z" />
    <glyph glyph-name="Nacute" unicode="&#x143;" horiz-adv-x="683" 
d="M78 0v700h70l387 -583v0v583h70v-700h-70l-387 584v0v-584h-70zM247 743l-7 51l196 127v0l9 -61z" />
    <glyph glyph-name="nacute" unicode="&#x144;" horiz-adv-x="563" 
d="M71 0v504h64l4 -90v0q24 48 69.5 75t101.5 27q58 0 101 -23t67 -69.5t24 -118.5v-305h-70v297q0 80 -35 119t-99 39q-45 0 -80.5 -21.5t-56 -62.5t-20.5 -101v-270h-70zM202 547l-7 50l196 127v0l9 -61z" />
    <glyph glyph-name="uni0145" unicode="&#x145;" horiz-adv-x="683" 
d="M78 0v700h70l387 -583v0v583h70v-700h-70l-387 584v0v-584h-70zM297 -226v36q24 0 34.5 14t10.5 41v14h-43v69h79q4 -18 6 -35.5t2 -31.5q0 -58 -24 -82.5t-65 -24.5z" />
    <glyph glyph-name="uni0146" unicode="&#x146;" horiz-adv-x="563" 
d="M71 0v504h64l4 -90v0q24 48 69.5 75t101.5 27q58 0 101 -23t67 -69.5t24 -118.5v-305h-70v297q0 80 -35 119t-99 39q-45 0 -80.5 -21.5t-56 -62.5t-20.5 -101v-270h-70zM237 -226v36q24 0 34.5 14t10.5 41v14h-43v69h79q4 -18 6 -35.5t2 -31.5q0 -58 -24 -82.5t-65 -24.5
z" />
    <glyph glyph-name="Ncaron" unicode="&#x147;" horiz-adv-x="683" 
d="M78 0v700h70l387 -583v0v583h70v-700h-70l-387 584v0v-584h-70zM342 757l-134 82v56l134 -83l134 83v-56z" />
    <glyph glyph-name="ncaron" unicode="&#x148;" horiz-adv-x="563" 
d="M71 0v504h64l4 -90v0q24 48 69.5 75t101.5 27q58 0 101 -23t67 -69.5t24 -118.5v-305h-70v297q0 80 -35 119t-99 39q-45 0 -80.5 -21.5t-56 -62.5t-20.5 -101v-270h-70zM298 563l-134 82v56l134 -83l134 83v-56z" />
    <glyph glyph-name="Eng" unicode="&#x14a;" horiz-adv-x="683" 
d="M78 0v700h70l387 -583v0v583h70v-791q0 -44 -14.5 -72.5t-44 -42.5t-73.5 -14h-49v60h38q39 0 56 16.5t17 55.5v88l-387 584v0v-584h-70z" />
    <glyph glyph-name="eng" unicode="&#x14b;" horiz-adv-x="567" 
d="M71 0v504h64l4 -90v0q24 48 69.5 75t101.5 27q58 0 101 -23t67 -69.5t24 -118.5v-396q0 -44 -14.5 -72.5t-44 -42.5t-73.5 -14h-49v60h38q39 0 56 16t17 56v385q0 80 -35 119t-99 39q-45 0 -80.5 -21.5t-56 -62.5t-20.5 -101v-270h-70z" />
    <glyph glyph-name="Omacron" unicode="&#x14c;" horiz-adv-x="774" 
d="M386 -12q-100 0 -176 45.5t-118.5 127t-42.5 189.5q0 107 42.5 188.5t118.5 127.5t176 46q103 0 179 -46t118 -127.5t42 -188.5q0 -108 -42 -189.5t-118 -127t-179 -45.5zM387 49q79 0 139 36t93.5 103.5t33.5 161.5t-33.5 161t-93.5 103t-139 36t-139 -36t-93.5 -103
t-33.5 -161t33.5 -161.5t93.5 -103.5t139 -36zM217 800v54h339v-54h-339z" />
    <glyph glyph-name="omacron" unicode="&#x14d;" horiz-adv-x="590" 
d="M293 -12q-69 0 -124.5 32.5t-87.5 92t-32 138.5q0 82 32.5 141t88.5 91.5t125 32.5q72 0 127 -32.5t87 -91.5t32 -141q0 -79 -32.5 -138.5t-88 -92t-127.5 -32.5zM294 48q47 0 86.5 23t64 68.5t24.5 112.5q0 68 -24 113t-63.5 67.5t-86.5 22.5q-45 0 -85 -23t-64.5 -67.5
t-24.5 -112.5q0 -67 24 -112.5t63.5 -68.5t85.5 -23zM126 594v54h339v-54h-339z" />
    <glyph glyph-name="Obreve" unicode="&#x14e;" horiz-adv-x="774" 
d="M386 -12q-100 0 -176 45.5t-118.5 127t-42.5 189.5q0 107 42.5 188.5t118.5 127.5t176 46q103 0 179 -46t118 -127.5t42 -188.5q0 -108 -42 -189.5t-118 -127t-179 -45.5zM387 49q79 0 139 36t93.5 103.5t33.5 161.5t-33.5 161t-93.5 103t-139 36t-139 -36t-93.5 -103
t-33.5 -161t33.5 -161.5t93.5 -103.5t139 -36zM387 760q-45 0 -75 17t-45 45t-15 61v13h44q0 -38 21.5 -59t69.5 -21t69.5 21t21.5 59h45v-13q0 -33 -15 -61t-45.5 -45t-75.5 -17z" />
    <glyph glyph-name="obreve" unicode="&#x14f;" horiz-adv-x="590" 
d="M293 -12q-69 0 -124.5 32.5t-87.5 92t-32 138.5q0 82 32.5 141t88.5 91.5t125 32.5q72 0 127 -32.5t87 -91.5t32 -141q0 -79 -32.5 -138.5t-88 -92t-127.5 -32.5zM294 48q47 0 86.5 23t64 68.5t24.5 112.5q0 68 -24 113t-63.5 67.5t-86.5 22.5q-45 0 -85 -23t-64.5 -67.5
t-24.5 -112.5q0 -67 24 -112.5t63.5 -68.5t85.5 -23zM295 563q-45 0 -75 17t-45 45t-15 61v13h44q0 -38 21.5 -59t69.5 -21t69.5 21t21.5 59h45v-13q0 -33 -15 -61t-45.5 -45t-75.5 -17z" />
    <glyph glyph-name="Ohungarumlaut" unicode="&#x150;" horiz-adv-x="774" 
d="M386 -12q-100 0 -176 45.5t-118.5 127t-42.5 189.5q0 107 42.5 188.5t118.5 127.5t176 46q103 0 179 -46t118 -127.5t42 -188.5q0 -108 -42 -189.5t-118 -127t-179 -45.5zM387 49q79 0 139 36t93.5 103.5t33.5 161.5t-33.5 161t-93.5 103t-139 36t-139 -36t-93.5 -103
t-33.5 -161t33.5 -161.5t93.5 -103.5t139 -36zM423 755l69 139h63l-84 -139h-48zM285 755l65 139h63l-79 -139h-49z" />
    <glyph glyph-name="ohungarumlaut" unicode="&#x151;" horiz-adv-x="590" 
d="M293 -12q-69 0 -124.5 32.5t-87.5 92t-32 138.5q0 82 32.5 141t88.5 91.5t125 32.5q72 0 127 -32.5t87 -91.5t32 -141q0 -79 -32.5 -138.5t-88 -92t-127.5 -32.5zM294 48q47 0 86.5 23t64 68.5t24.5 112.5q0 68 -24 113t-63.5 67.5t-86.5 22.5q-45 0 -85 -23t-64.5 -67.5
t-24.5 -112.5q0 -67 24 -112.5t63.5 -68.5t85.5 -23zM332 559l69 139h63l-84 -139h-48zM194 559l65 139h63l-79 -139h-49z" />
    <glyph glyph-name="OE" unicode="&#x152;" horiz-adv-x="1120" 
d="M389 -12q-73 0 -135 26t-108 74.5t-71.5 114.5t-25.5 147q0 80 25.5 146.5t71.5 114.5t108 74.5t135 26.5q85 0 155 -35.5t115 -103.5v127h402v-58h-332v-261h302v-58h-302v-265h332v-58h-402v127q-30 -45 -71.5 -76t-91.5 -47t-107 -16zM389 49q76 0 136.5 36t96 103.5
t35.5 161.5t-35.5 161t-96 103t-136.5 36q-74 0 -135.5 -36t-97 -103t-35.5 -161t35.5 -161.5t97 -103.5t135.5 -36z" />
    <glyph glyph-name="oe" unicode="&#x153;" horiz-adv-x="981" 
d="M294 -12q-70 0 -125.5 32.5t-87.5 92t-32 139.5q0 81 32.5 140t88.5 91.5t126 32.5t123 -32t82 -91q30 58 84 90.5t125 32.5q73 0 124 -33t77.5 -86t26.5 -116v-20.5t-1 -24.5h-399q3 -63 27.5 -105t63 -62.5t79.5 -20.5q60 0 98.5 29t54.5 79h68q-12 -48 -41 -86
t-74 -60t-106 -22q-70 0 -123.5 32.5t-82.5 91.5q-30 -59 -83.5 -91.5t-124.5 -32.5zM294 48q47 0 86.5 23t64 68.5t24.5 112.5q0 68 -24 113t-63.5 67.5t-85.5 22.5t-86 -22.5t-64.5 -67.5t-24.5 -113q0 -67 24 -112.5t63.5 -68.5t85.5 -23zM539 295h331q-3 77 -48.5 119
t-114.5 42q-42 0 -79 -18t-61 -53.5t-28 -89.5z" />
    <glyph glyph-name="Racute" unicode="&#x154;" horiz-adv-x="587" 
d="M78 0v700h216q81 0 132.5 -27t75.5 -72.5t24 -103.5q0 -56 -25 -102.5t-77 -74t-135 -27.5h-141v-293h-70zM450 0l-157 315h80l161 -315h-84zM148 350h141q85 0 125 41t40 106q0 67 -39 105.5t-127 38.5h-140v-291zM191 743l-7 51l196 127v0l9 -61z" />
    <glyph glyph-name="racute" unicode="&#x155;" horiz-adv-x="361" 
d="M71 0v504h64l5 -97v0q16 35 43 59t65 37t86 13v-73h-27q-32 0 -62 -8.5t-53 -28.5t-37 -54t-14 -85v-267h-70zM118 547l-7 50l196 127v0l9 -61z" />
    <glyph glyph-name="uni0156" unicode="&#x156;" horiz-adv-x="587" 
d="M78 0v700h216q81 0 132.5 -27t75.5 -72.5t24 -103.5q0 -56 -25 -102.5t-77 -74t-135 -27.5h-141v-293h-70zM450 0l-157 315h80l161 -315h-84zM148 350h141q85 0 125 41t40 106q0 67 -39 105.5t-127 38.5h-140v-291zM242 -226v36q24 0 34.5 14t10.5 41v14h-43v69h79
q4 -18 6 -35.5t2 -31.5q0 -58 -24 -82.5t-65 -24.5z" />
    <glyph glyph-name="uni0157" unicode="&#x157;" horiz-adv-x="361" 
d="M71 0v504h64l5 -97v0q16 35 43 59t65 37t86 13v-73h-27q-32 0 -62 -8.5t-53 -28.5t-37 -54t-14 -85v-267h-70zM64 -226v36q24 0 34.5 14t10.5 41v14h-43v69h79q4 -18 6 -35.5t2 -31.5q0 -58 -24 -82.5t-65 -24.5z" />
    <glyph glyph-name="Rcaron" unicode="&#x158;" horiz-adv-x="587" 
d="M78 0v700h216q81 0 132.5 -27t75.5 -72.5t24 -103.5q0 -56 -25 -102.5t-77 -74t-135 -27.5h-141v-293h-70zM450 0l-157 315h80l161 -315h-84zM148 350h141q85 0 125 41t40 106q0 67 -39 105.5t-127 38.5h-140v-291zM287 757l-134 82v56l134 -83l134 83v-56z" />
    <glyph glyph-name="rcaron" unicode="&#x159;" horiz-adv-x="361" 
d="M71 0v504h64l5 -97v0q16 35 43 59t65 37t86 13v-73h-27q-32 0 -62 -8.5t-53 -28.5t-37 -54t-14 -85v-267h-70zM214 563l-134 82v56l134 -83l134 83v-56z" />
    <glyph glyph-name="Sacute" unicode="&#x15a;" horiz-adv-x="576" 
d="M296 -12q-77 0 -133.5 28t-86.5 78.5t-30 115.5h73q0 -44 20 -81t59 -59.5t98 -22.5q52 0 87.5 17.5t54.5 46.5t19 66q0 44 -18.5 71t-50.5 44t-72.5 29.5t-85.5 27.5q-81 28 -119 69t-39 105q0 55 25.5 97.5t74.5 67t116 24.5q65 0 113.5 -24.5t75.5 -68t27 -99.5h-72
q0 32 -16.5 62.5t-49 50t-82.5 19.5q-41 0 -72.5 -14.5t-49.5 -42t-18 -64.5q0 -36 16 -59t45 -38t68 -27.5t87 -28.5q49 -17 87 -41t60 -61.5t22 -94.5q0 -49 -25.5 -93t-77.5 -72t-130 -28zM191 743l-7 51l196 127v0l9 -61z" />
    <glyph glyph-name="sacute" unicode="&#x15b;" horiz-adv-x="495" 
d="M256 -12q-60 0 -105.5 20t-73 57.5t-33.5 89.5h73q5 -29 22.5 -53t47.5 -38t71 -14q38 0 62.5 11t37 30.5t12.5 43.5q0 33 -15.5 51.5t-44.5 27.5t-70 17q-34 6 -64.5 16t-55 26t-39 40.5t-14.5 57.5q0 43 21.5 75.5t61.5 51t94 18.5q77 0 126 -38.5t57 -112.5h-70
q-4 41 -34 65t-81 24q-50 0 -76.5 -20.5t-26.5 -55.5q0 -22 14 -38t41.5 -27.5t67.5 -19.5q48 -9 88.5 -23.5t66 -44t25.5 -83.5q1 -45 -22 -80t-64.5 -54.5t-99.5 -19.5zM149 547l-7 50l196 127v0l9 -61z" />
    <glyph glyph-name="Scedilla" unicode="&#x15e;" horiz-adv-x="576" 
d="M296 -12q-77 0 -133.5 28t-86.5 78.5t-30 115.5h73q0 -44 20 -81t59 -59.5t98 -22.5q52 0 87.5 17.5t54.5 46.5t19 66q0 44 -18.5 71t-50.5 44t-72.5 29.5t-85.5 27.5q-81 28 -119 69t-39 105q0 55 25.5 97.5t74.5 67t116 24.5q65 0 113.5 -24.5t75.5 -68t27 -99.5h-72
q0 32 -16.5 62.5t-49 50t-82.5 19.5q-41 0 -72.5 -14.5t-49.5 -42t-18 -64.5q0 -36 16 -59t45 -38t68 -27.5t87 -28.5q49 -17 87 -41t60 -61.5t22 -94.5q0 -49 -25.5 -93t-77.5 -72t-130 -28zM233 -258v47h86q38 0 55 13t17 38q0 23 -17 35.5t-55 12.5h-46v119h49v-74
q39 1 68 -9.5t44.5 -31.5t15.5 -52q0 -30 -14.5 -52t-41 -34t-61.5 -12h-100z" />
    <glyph glyph-name="scedilla" unicode="&#x15f;" horiz-adv-x="495" 
d="M256 -12q-60 0 -105.5 20t-73 57.5t-33.5 89.5h73q5 -29 22.5 -53t47.5 -38t71 -14q38 0 62.5 11t37 30.5t12.5 43.5q0 33 -15.5 51.5t-44.5 27.5t-70 17q-34 6 -64.5 16t-55 26t-39 40.5t-14.5 57.5q0 43 21.5 75.5t61.5 51t94 18.5q77 0 126 -38.5t57 -112.5h-70
q-4 41 -34 65t-81 24q-50 0 -76.5 -20.5t-26.5 -55.5q0 -22 14 -38t41.5 -27.5t67.5 -19.5q48 -9 88.5 -23.5t66 -44t25.5 -83.5q1 -45 -22 -80t-64.5 -54.5t-99.5 -19.5zM184 -258v47h86q38 0 55 13t17 38q0 23 -17 35.5t-55 12.5h-46v119h49v-74q39 1 68 -9.5t44.5 -31.5
t15.5 -52q0 -30 -14.5 -52t-41 -34t-61.5 -12h-100z" />
    <glyph glyph-name="Scaron" unicode="&#x160;" horiz-adv-x="576" 
d="M296 -12q-77 0 -133.5 28t-86.5 78.5t-30 115.5h73q0 -44 20 -81t59 -59.5t98 -22.5q52 0 87.5 17.5t54.5 46.5t19 66q0 44 -18.5 71t-50.5 44t-72.5 29.5t-85.5 27.5q-81 28 -119 69t-39 105q0 55 25.5 97.5t74.5 67t116 24.5q65 0 113.5 -24.5t75.5 -68t27 -99.5h-72
q0 32 -16.5 62.5t-49 50t-82.5 19.5q-41 0 -72.5 -14.5t-49.5 -42t-18 -64.5q0 -36 16 -59t45 -38t68 -27.5t87 -28.5q49 -17 87 -41t60 -61.5t22 -94.5q0 -49 -25.5 -93t-77.5 -72t-130 -28zM286 757l-134 82v56l134 -83l134 83v-56z" />
    <glyph glyph-name="scaron" unicode="&#x161;" horiz-adv-x="495" 
d="M256 -12q-60 0 -105.5 20t-73 57.5t-33.5 89.5h73q5 -29 22.5 -53t47.5 -38t71 -14q38 0 62.5 11t37 30.5t12.5 43.5q0 33 -15.5 51.5t-44.5 27.5t-70 17q-34 6 -64.5 16t-55 26t-39 40.5t-14.5 57.5q0 43 21.5 75.5t61.5 51t94 18.5q77 0 126 -38.5t57 -112.5h-70
q-4 41 -34 65t-81 24q-50 0 -76.5 -20.5t-26.5 -55.5q0 -22 14 -38t41.5 -27.5t67.5 -19.5q48 -9 88.5 -23.5t66 -44t25.5 -83.5q1 -45 -22 -80t-64.5 -54.5t-99.5 -19.5zM245 563l-134 82v56l134 -83l134 83v-56z" />
    <glyph glyph-name="uni0162" unicode="&#x162;" horiz-adv-x="552" 
d="M241 0v642h-210v58h490v-58h-210v-642h-70zM213 -258v47h86q38 0 55 13t17 38q0 23 -17 35.5t-55 12.5h-46v119h49v-74q39 1 68 -9.5t44.5 -31.5t15.5 -52q0 -30 -14.5 -52t-41 -34t-61.5 -12h-100z" />
    <glyph glyph-name="uni0163" unicode="&#x163;" horiz-adv-x="383" 
d="M262 0q-43 0 -74 13.5t-47.5 45t-16.5 86.5v299h-88v60h88l10 117h60v-118h151v-59h-151v-299q0 -50 20 -67.5t71 -17.5h52v-60h-75zM179 -258v47h86q38 0 55 13t17 38q0 23 -17 35.5t-55 12.5h-46v119h49v-74q39 1 68 -9.5t44.5 -31.5t15.5 -52q0 -30 -14.5 -52t-41 -34
t-61.5 -12h-100z" />
    <glyph glyph-name="Tcaron" unicode="&#x164;" horiz-adv-x="552" 
d="M241 0v642h-210v58h490v-58h-210v-642h-70zM276 757l-134 82v56l134 -83l134 83v-56z" />
    <glyph glyph-name="tcaron" unicode="&#x165;" horiz-adv-x="383" 
d="M262 0q-43 0 -74 13.5t-47.5 45t-16.5 86.5v299h-88v60h88l10 117h60v-118h151v-59h-151v-299q0 -50 20 -67.5t71 -17.5h52v-60h-75zM254 551v36q23 0 32 9.5t9 28.5v22h-40v76h75q5 -25 7.5 -43t2.5 -37q0 -50 -22.5 -71t-63.5 -21z" />
    <glyph glyph-name="Utilde" unicode="&#x168;" horiz-adv-x="648" 
d="M324 -12q-71 0 -128.5 28t-91.5 87.5t-34 151.5v445h70v-446q0 -71 23.5 -116.5t65.5 -66.5t96 -21q55 0 96 21t64 66.5t23 116.5v446h70v-445q0 -92 -34 -151.5t-91.5 -87.5t-128.5 -28zM388 758q-26 0 -43.5 12t-32.5 23.5t-36 11.5q-16 0 -27.5 -11t-14.5 -34h-43
q6 46 29.5 69.5t58.5 23.5q26 0 43 -11.5t32.5 -23.5t36.5 -12q17 0 29 11.5t15 33.5h42q-4 -44 -29 -68.5t-60 -24.5z" />
    <glyph glyph-name="utilde" unicode="&#x169;" horiz-adv-x="563" 
d="M253 -12q-57 0 -100.5 22.5t-67.5 69.5t-24 119v305h70v-297q0 -80 35.5 -119t98.5 -39q45 0 80.5 21.5t56 62.5t20.5 101v270h70v-504h-64l-4 90v0q-24 -48 -69.5 -75t-101.5 -27zM328 570q-26 0 -43.5 12t-32.5 23.5t-36 11.5q-16 0 -27.5 -11t-14.5 -34h-43
q6 46 29.5 69.5t58.5 23.5q26 0 43 -11.5t32.5 -23.5t36.5 -12q17 0 29 11.5t15 33.5h42q-4 -44 -29 -68.5t-60 -24.5z" />
    <glyph glyph-name="Umacron" unicode="&#x16a;" horiz-adv-x="648" 
d="M324 -12q-71 0 -128.5 28t-91.5 87.5t-34 151.5v445h70v-446q0 -71 23.5 -116.5t65.5 -66.5t96 -21q55 0 96 21t64 66.5t23 116.5v446h70v-445q0 -92 -34 -151.5t-91.5 -87.5t-128.5 -28zM153 800v54h339v-54h-339z" />
    <glyph glyph-name="umacron" unicode="&#x16b;" horiz-adv-x="563" 
d="M253 -12q-57 0 -100.5 22.5t-67.5 69.5t-24 119v305h70v-297q0 -80 35.5 -119t98.5 -39q45 0 80.5 21.5t56 62.5t20.5 101v270h70v-504h-64l-4 90v0q-24 -48 -69.5 -75t-101.5 -27zM104 594v54h339v-54h-339z" />
    <glyph glyph-name="Ubreve" unicode="&#x16c;" horiz-adv-x="648" 
d="M324 -12q-71 0 -128.5 28t-91.5 87.5t-34 151.5v445h70v-446q0 -71 23.5 -116.5t65.5 -66.5t96 -21q55 0 96 21t64 66.5t23 116.5v446h70v-445q0 -92 -34 -151.5t-91.5 -87.5t-128.5 -28zM323 760q-45 0 -75 17t-45 45t-15 61v13h44q0 -38 21.5 -59t69.5 -21t69.5 21
t21.5 59h45v-13q0 -33 -15 -61t-45.5 -45t-75.5 -17z" />
    <glyph glyph-name="ubreve" unicode="&#x16d;" horiz-adv-x="563" 
d="M253 -12q-57 0 -100.5 22.5t-67.5 69.5t-24 119v305h70v-297q0 -80 35.5 -119t98.5 -39q45 0 80.5 21.5t56 62.5t20.5 101v270h70v-504h-64l-4 90v0q-24 -48 -69.5 -75t-101.5 -27zM274 563q-45 0 -75 17t-45 45t-15 61v13h44q0 -38 21.5 -59t69.5 -21t69.5 21t21.5 59
h45v-13q0 -33 -15 -61t-45.5 -45t-75.5 -17z" />
    <glyph glyph-name="Uring" unicode="&#x16e;" horiz-adv-x="648" 
d="M324 -12q-71 0 -128.5 28t-91.5 87.5t-34 151.5v445h70v-446q0 -71 23.5 -116.5t65.5 -66.5t96 -21q55 0 96 21t64 66.5t23 116.5v446h70v-445q0 -92 -34 -151.5t-91.5 -87.5t-128.5 -28zM323 764q-41 0 -71.5 27t-30.5 73q0 47 30.5 73.5t71.5 26.5q43 0 72.5 -26.5
t29.5 -73.5q0 -46 -29.5 -73t-72.5 -27zM323 803q25 0 42 16.5t17 44.5q0 29 -17 45t-42 16q-24 0 -41 -16t-17 -45q0 -28 17 -44.5t41 -16.5z" />
    <glyph glyph-name="uring" unicode="&#x16f;" horiz-adv-x="563" 
d="M253 -12q-57 0 -100.5 22.5t-67.5 69.5t-24 119v305h70v-297q0 -80 35.5 -119t98.5 -39q45 0 80.5 21.5t56 62.5t20.5 101v270h70v-504h-64l-4 90v0q-24 -48 -69.5 -75t-101.5 -27zM274 570q-41 0 -71.5 26.5t-30.5 73.5t30.5 73.5t71.5 26.5q43 0 72.5 -27t29.5 -73
t-29.5 -73t-72.5 -27zM274 608q25 0 42 17t17 45q0 29 -17 45t-42 16q-24 0 -41 -16.5t-17 -45.5q0 -27 17 -44t41 -17z" />
    <glyph glyph-name="Uhungarumlaut" unicode="&#x170;" horiz-adv-x="648" 
d="M324 -12q-71 0 -128.5 28t-91.5 87.5t-34 151.5v445h70v-446q0 -71 23.5 -116.5t65.5 -66.5t96 -21q55 0 96 21t64 66.5t23 116.5v446h70v-445q0 -92 -34 -151.5t-91.5 -87.5t-128.5 -28zM359 755l69 139h63l-84 -139h-48zM221 755l65 139h63l-79 -139h-49z" />
    <glyph glyph-name="uhungarumlaut" unicode="&#x171;" horiz-adv-x="563" 
d="M253 -12q-57 0 -100.5 22.5t-67.5 69.5t-24 119v305h70v-297q0 -80 35.5 -119t98.5 -39q45 0 80.5 21.5t56 62.5t20.5 101v270h70v-504h-64l-4 90v0q-24 -48 -69.5 -75t-101.5 -27zM310 559l69 139h63l-84 -139h-48zM172 559l65 139h63l-79 -139h-49z" />
    <glyph glyph-name="Uogonek" unicode="&#x172;" horiz-adv-x="648" 
d="M324 -12q-71 0 -128.5 28t-91.5 87.5t-34 151.5v445h70v-446q0 -71 23.5 -116.5t65.5 -66.5t96 -21q55 0 96 21t64 66.5t23 116.5v446h70v-445q0 -92 -34 -151.5t-91.5 -87.5t-128.5 -28zM323 -201q-28 0 -54 9t-42.5 29.5t-16.5 53.5q0 23 10.5 44t34.5 40.5t63 37.5
l55 25l19 -38l-60 -29q-35 -17 -49 -35t-14 -38q0 -25 17 -38t45 -13q14 0 31 3.5t33 10.5v-49q-16 -6 -35 -9.5t-37 -3.5z" />
    <glyph glyph-name="uogonek" unicode="&#x173;" horiz-adv-x="563" 
d="M253 -12q-57 0 -100.5 22.5t-67.5 69.5t-24 119v305h70v-297q0 -80 35.5 -119t98.5 -39q45 0 80.5 21.5t56 62.5t20.5 101v270h70v-504h-64l-4 90v0q-24 -48 -69.5 -75t-101.5 -27zM423 -201q-28 0 -54 9t-42.5 29.5t-16.5 53.5q0 23 10.5 44t34.5 40.5t63 37.5l55 25
l19 -38l-60 -29q-35 -17 -49 -35t-14 -38q0 -25 17 -38t45 -13q14 0 31 3.5t33 10.5v-49q-16 -6 -35 -9.5t-37 -3.5z" />
    <glyph glyph-name="Wcircumflex" unicode="&#x174;" horiz-adv-x="956" 
d="M221 0l-194 700h75l160 -614v0l179 614h78l174 -615v0l161 615h75l-197 -700h-79l-176 597v0l-179 -597h-77zM345 758v57l134 82l134 -82v-57l-134 84z" />
    <glyph glyph-name="wcircumflex" unicode="&#x175;" horiz-adv-x="748" 
d="M175 0l-148 504h71l120 -431h-14l130 431h80l130 -431h-14l120 431h71l-148 -504h-71l-135 451h14l-135 -451h-71zM240 550v57l134 82l134 -82v-57l-134 84z" />
    <glyph glyph-name="Ycircumflex" unicode="&#x176;" horiz-adv-x="566" 
d="M249 0v273l-226 427h79l194 -386h-24l193 386h78l-224 -427v-273h-70zM150 758v57l134 82l134 -82v-57l-134 84z" />
    <glyph glyph-name="ycircumflex" unicode="&#x177;" horiz-adv-x="544" 
d="M123 -220l124 276h-27l-199 448h76l172 -400v0l181 400h72l-326 -724h-73zM138 550v57l134 82l134 -82v-57l-134 84z" />
    <glyph glyph-name="Ydieresis" unicode="&#x178;" horiz-adv-x="566" 
d="M249 0v273l-226 427h79l194 -386h-24l193 386h78l-224 -427v-273h-70zM208 777q-19 0 -32.5 13.5t-13.5 32.5t13.5 32.5t32.5 13.5t32.5 -13.5t13.5 -32.5t-13.5 -32.5t-32.5 -13.5zM362 777q-19 0 -32.5 13.5t-13.5 32.5t13.5 32.5t32.5 13.5t32 -13.5t13 -32.5
t-13 -32.5t-32 -13.5z" />
    <glyph glyph-name="Zacute" unicode="&#x179;" horiz-adv-x="532" 
d="M44 0v56l357 582h-351v62h433v-56l-357 -582h362v-62h-444zM171 743l-7 51l196 127v0l9 -61z" />
    <glyph glyph-name="zacute" unicode="&#x17a;" horiz-adv-x="451" 
d="M37 0v58l287 387h-282v59h361v-58l-287 -388h292v-58h-371zM128 547l-7 50l196 127v0l9 -61z" />
    <glyph glyph-name="Zdotaccent" unicode="&#x17b;" horiz-adv-x="532" 
d="M44 0v56l357 582h-351v62h433v-56l-357 -582h362v-62h-444zM266 767q-19 0 -32.5 13.5t-13.5 32.5t13.5 32.5t32.5 13.5t32.5 -13.5t13.5 -32.5t-13.5 -32.5t-32.5 -13.5z" />
    <glyph glyph-name="zdotaccent" unicode="&#x17c;" horiz-adv-x="451" 
d="M37 0v58l287 387h-282v59h361v-58l-287 -388h292v-58h-371zM224 571q-19 0 -32.5 13.5t-13.5 32.5t13.5 32.5t32.5 13.5t32.5 -13.5t13.5 -32.5t-13.5 -32.5t-32.5 -13.5z" />
    <glyph glyph-name="Zcaron" unicode="&#x17d;" horiz-adv-x="532" 
d="M44 0v56l357 582h-351v62h433v-56l-357 -582h362v-62h-444zM266 757l-134 82v56l134 -83l134 83v-56z" />
    <glyph glyph-name="zcaron" unicode="&#x17e;" horiz-adv-x="451" 
d="M37 0v58l287 387h-282v59h361v-58l-287 -388h292v-58h-371zM224 563l-134 82v56l134 -83l134 83v-56z" />
    <glyph glyph-name="uni018F" unicode="&#x18f;" horiz-adv-x="742" 
d="M365 -12q-72 0 -130 22.5t-99.5 65.5t-64 103.5t-22.5 135.5q0 14 1 27.5t2 28.5h578v-65h-508q0 -80 30.5 -137t86 -87.5t127.5 -30.5q53 0 98.5 18t79.5 52.5t53.5 85t19.5 114.5v36q0 93 -32.5 158t-88.5 99t-128 34q-84 0 -146.5 -41t-85.5 -118h-80q20 67 63 117
t106.5 78t142.5 28q97 0 170 -46t114 -128t41 -192q0 -107 -41.5 -187.5t-115 -125.5t-171.5 -45z" />
    <glyph glyph-name="florin" unicode="&#x192;" horiz-adv-x="332" 
d="M-41 -179l5 58h21q32 0 48.5 15t20.5 56l69 649q9 86 60.5 125t145.5 39l-5 -59q-63 0 -94 -24.5t-37 -80.5l-69 -649q-4 -44 -20.5 -73t-45.5 -42.5t-74 -13.5h-25zM36 488l5 58h273l-5 -58h-273z" />
    <glyph glyph-name="AEacute" unicode="&#x1fc;" horiz-adv-x="904" 
d="M33 0l406 700h406v-56h-295v-264h265v-56h-265v-268h295v-56h-365v640v0l-370 -640h-77zM167 166l29 56h316v-56h-345zM463 743l-7 51l196 127v0l9 -61z" />
    <glyph glyph-name="aeacute" unicode="&#x1fd;" horiz-adv-x="904" 
d="M230 -12q-60 0 -100 22t-59.5 57t-19.5 77q0 52 26.5 87t73.5 52.5t109 17.5h138q0 51 -14.5 85.5t-43.5 52t-71 17.5q-48 0 -84 -26t-45 -76h-73q6 53 36 89t74.5 54.5t91.5 18.5q66 0 110.5 -26t66.5 -72q32 47 81 72.5t109 25.5q72 0 121.5 -33t76 -85.5t26.5 -113.5
v-20.5t-1 -24.5h-391q2 -63 26 -105.5t62 -64t79 -21.5q60 0 96.5 29t52.5 79h68q-12 -48 -41 -86t-73 -60t-103 -22q-67 0 -121.5 33t-82.5 92q-18 -34 -46 -62.5t-66 -45.5t-89 -17zM236 50q46 0 82 23.5t57 63.5t23 88v17h-133q-51 0 -82.5 -12t-45 -33.5t-13.5 -50.5
t13.5 -50.5t38.5 -33.5t60 -12zM469 298h323q-3 76 -48 117t-109 41q-42 0 -78 -18.5t-59.5 -53.5t-28.5 -86zM356 547l-7 50l196 127v0l9 -61z" />
    <glyph glyph-name="uni0218" unicode="&#x218;" horiz-adv-x="576" 
d="M296 -12q-77 0 -133.5 28t-86.5 78.5t-30 115.5h73q0 -44 20 -81t59 -59.5t98 -22.5q52 0 87.5 17.5t54.5 46.5t19 66q0 44 -18.5 71t-50.5 44t-72.5 29.5t-85.5 27.5q-81 28 -119 69t-39 105q0 55 25.5 97.5t74.5 67t116 24.5q65 0 113.5 -24.5t75.5 -68t27 -99.5h-72
q0 32 -16.5 62.5t-49 50t-82.5 19.5q-41 0 -72.5 -14.5t-49.5 -42t-18 -64.5q0 -36 16 -59t45 -38t68 -27.5t87 -28.5q49 -17 87 -41t60 -61.5t22 -94.5q0 -49 -25.5 -93t-77.5 -72t-130 -28zM249 -226v36q24 0 34.5 14t10.5 41v14h-43v69h79q4 -18 6 -35.5t2 -31.5
q0 -58 -24 -82.5t-65 -24.5z" />
    <glyph glyph-name="uni0219" unicode="&#x219;" horiz-adv-x="495" 
d="M256 -12q-60 0 -105.5 20t-73 57.5t-33.5 89.5h73q5 -29 22.5 -53t47.5 -38t71 -14q38 0 62.5 11t37 30.5t12.5 43.5q0 33 -15.5 51.5t-44.5 27.5t-70 17q-34 6 -64.5 16t-55 26t-39 40.5t-14.5 57.5q0 43 21.5 75.5t61.5 51t94 18.5q77 0 126 -38.5t57 -112.5h-70
q-4 41 -34 65t-81 24q-50 0 -76.5 -20.5t-26.5 -55.5q0 -22 14 -38t41.5 -27.5t67.5 -19.5q48 -9 88.5 -23.5t66 -44t25.5 -83.5q1 -45 -22 -80t-64.5 -54.5t-99.5 -19.5zM200 -226v36q24 0 34.5 14t10.5 41v14h-43v69h79q4 -18 6 -35.5t2 -31.5q0 -58 -24 -82.5t-65 -24.5z
" />
    <glyph glyph-name="uni021A" unicode="&#x21a;" horiz-adv-x="552" 
d="M241 0v642h-210v58h490v-58h-210v-642h-70zM229 -226v36q24 0 34.5 14t10.5 41v14h-43v69h79q4 -18 6 -35.5t2 -31.5q0 -58 -24 -82.5t-65 -24.5z" />
    <glyph glyph-name="uni021B" unicode="&#x21b;" horiz-adv-x="383" 
d="M262 0q-43 0 -74 13.5t-47.5 45t-16.5 86.5v299h-88v60h88l10 117h60v-118h151v-59h-151v-299q0 -50 20 -67.5t71 -17.5h52v-60h-75zM195 -226v36q24 0 34.5 14t10.5 41v14h-43v69h79q4 -18 6 -35.5t2 -31.5q0 -58 -24 -82.5t-65 -24.5z" />
    <glyph glyph-name="uni0237" unicode="&#x237;" horiz-adv-x="220" 
d="M-26 -220v60h38q39 0 56 16.5t17 55.5v592h70v-595q0 -44 -14.5 -72.5t-44 -42.5t-73.5 -14h-49z" />
    <glyph glyph-name="uni0259" unicode="&#x259;" horiz-adv-x="560" 
d="M273 516q70 0 123.5 -33t84 -92.5t30.5 -139.5t-30 -139t-84 -91.5t-126 -32.5q-73 0 -123.5 33t-77 86.5t-26.5 115.5v20.5t1 23.5h413v-58h-346q2 -77 48 -119t114 -42q46 0 84 20.5t61.5 60.5t23.5 99v26q0 68 -24 113t-63 67t-83 22q-56 0 -93 -25.5t-54 -71.5h-69
q13 46 41.5 81t72.5 55.5t102 20.5z" />
    <glyph glyph-name="circumflex" unicode="&#x2c6;" horiz-adv-x="304" 
d="M18 554v57l134 82l134 -82v-57l-134 84z" />
    <glyph glyph-name="caron" unicode="&#x2c7;" horiz-adv-x="304" 
d="M152 553l-134 82v56l134 -83l134 83v-56z" />
    <glyph glyph-name="breve" unicode="&#x2d8;" horiz-adv-x="307" 
d="M153 556q-45 0 -75 17t-45 45t-15 61v13h44q0 -38 21.5 -59t69.5 -21t69.5 21t21.5 59h45v-13q0 -33 -15 -61t-45.5 -45t-75.5 -17z" />
    <glyph glyph-name="dotaccent" unicode="&#x2d9;" horiz-adv-x="134" 
d="M67 563q-19 0 -32.5 13.5t-13.5 32.5t13.5 32.5t32.5 13.5t32.5 -13.5t13.5 -32.5t-13.5 -32.5t-32.5 -13.5z" />
    <glyph glyph-name="ring" unicode="&#x2da;" horiz-adv-x="237" 
d="M119 560q-41 0 -71.5 27t-30.5 73q0 47 30.5 73.5t71.5 26.5q42 0 72 -26.5t30 -73.5q0 -46 -30 -73t-72 -27zM119 599q25 0 42 16.5t17 44.5q0 29 -17.5 45t-41.5 16q-25 0 -41.5 -16t-16.5 -45q0 -28 17 -44.5t41 -16.5z" />
    <glyph glyph-name="ogonek" unicode="&#x2db;" horiz-adv-x="185" 
d="M113 -201q-28 0 -54 9t-42.5 29.5t-16.5 53.5q0 23 10.5 44t34.5 40.5t63 37.5l55 25l19 -38l-60 -29q-35 -17 -49 -35t-14 -38q0 -25 17 -38t45 -13q14 0 31 3.5t33 10.5v-49q-16 -6 -35 -9.5t-37 -3.5z" />
    <glyph glyph-name="tilde" unicode="&#x2dc;" horiz-adv-x="322" 
d="M215 554q-26 0 -43.5 12t-32.5 23.5t-36 11.5q-16 0 -27.5 -11t-14.5 -34h-43q6 46 29.5 69.5t58.5 23.5q26 0 43 -11.5t32.5 -23.5t36.5 -12q17 0 29 11.5t15 33.5h42q-4 -44 -29 -68.5t-60 -24.5z" />
    <glyph glyph-name="hungarumlaut" unicode="&#x2dd;" horiz-adv-x="311" 
d="M156 551l69 139h63l-84 -139h-48zM18 551l65 139h63l-79 -139h-49z" />
    <glyph glyph-name="gravecomb" unicode="&#x300;" 
d="M199 547l-199 116l10 61v0l195 -127z" />
    <glyph glyph-name="acutecomb" unicode="&#x301;" 
d="M7 547l-7 50l196 127v0l9 -61z" />
    <glyph glyph-name="uni0302" unicode="&#x302;" 
d="M0 550v57l134 82l134 -82v-57l-134 84z" />
    <glyph glyph-name="tildecomb" unicode="&#x303;" 
d="M197 570q-26 0 -43.5 12t-32.5 23.5t-36 11.5q-16 0 -27.5 -11t-14.5 -34h-43q6 46 29.5 69.5t58.5 23.5q26 0 43 -11.5t32.5 -23.5t36.5 -12q17 0 29 11.5t15 33.5h42q-4 -44 -29 -68.5t-60 -24.5z" />
    <glyph glyph-name="uni0304" unicode="&#x304;" 
d="M0 594v54h339v-54h-339z" />
    <glyph glyph-name="uni0306" unicode="&#x306;" 
d="M135 563q-45 0 -75 17t-45 45t-15 61v13h44q0 -38 21.5 -59t69.5 -21t69.5 21t21.5 59h45v-13q0 -33 -15 -61t-45.5 -45t-75.5 -17z" />
    <glyph glyph-name="uni0307" unicode="&#x307;" 
d="M46 571q-19 0 -32.5 13.5t-13.5 32.5t13.5 32.5t32.5 13.5t32.5 -13.5t13.5 -32.5t-13.5 -32.5t-32.5 -13.5z" />
    <glyph glyph-name="uni0308" unicode="&#x308;" 
d="M46 570q-19 0 -32.5 13t-13.5 33q0 19 13.5 32.5t32.5 13.5t32.5 -14t13.5 -32q0 -20 -13.5 -33t-32.5 -13zM200 570q-19 0 -32.5 13t-13.5 33q0 19 13.5 32.5t32.5 13.5t32 -14t13 -32q0 -20 -13 -33t-32 -13z" />
    <glyph glyph-name="uni030A" unicode="&#x30a;" 
d="M102 570q-41 0 -71.5 26.5t-30.5 73.5t30.5 73.5t71.5 26.5q43 0 72.5 -27t29.5 -73t-29.5 -73t-72.5 -27zM102 608q25 0 42 17t17 45q0 29 -17 45t-42 16q-24 0 -41 -16.5t-17 -45.5q0 -27 17 -44t41 -17z" />
    <glyph glyph-name="uni030B" unicode="&#x30b;" 
d="M138 551l69 139h63l-84 -139h-48zM0 551l65 139h63l-79 -139h-49z" />
    <glyph glyph-name="uni030C" unicode="&#x30c;" 
d="M134 563l-134 82v56l134 -83l134 83v-56z" />
    <glyph glyph-name="uni0312" unicode="&#x312;" 
d="M86 738v-36q-22 0 -31.5 -9.5t-9.5 -28.5v-22h40v-76h-75q-4 25 -7 43t-3 37q0 50 23 71t63 21z" />
    <glyph glyph-name="uni0326" unicode="&#x326;" 
d="M0 -226v36q24 0 34.5 14t10.5 41v14h-43v69h79q4 -18 6 -35.5t2 -31.5q0 -58 -24 -82.5t-65 -24.5z" />
    <glyph glyph-name="uni0327" unicode="&#x327;" 
d="M0 -258v47h86q38 0 55 13t17 38q0 23 -17 35.5t-55 12.5h-46v119h49v-74q39 1 68 -9.5t44.5 -31.5t15.5 -52q0 -30 -14.5 -52t-41 -34t-61.5 -12h-100z" />
    <glyph glyph-name="uni0328" unicode="&#x328;" 
d="M113 -201q-28 0 -54 9t-42.5 29.5t-16.5 53.5q0 23 10.5 44t34.5 40.5t63 37.5l55 25l19 -38l-60 -29q-35 -17 -49 -35t-14 -38q0 -25 17 -38t45 -13q14 0 31 3.5t33 10.5v-49q-16 -6 -35 -9.5t-37 -3.5z" />
    <glyph glyph-name="pi" unicode="&#x3c0;" horiz-adv-x="646" 
d="M131 0v448h-81v56h546v-56h-81v-448h-70v448h-244v-448h-70z" />
    <glyph glyph-name="Wgrave" unicode="&#x1e80;" horiz-adv-x="956" 
d="M221 0l-194 700h75l160 -614v0l179 614h78l174 -615v0l161 615h75l-197 -700h-79l-176 597v0l-179 -597h-77zM575 743l-199 117l10 61v0l195 -127z" />
    <glyph glyph-name="wgrave" unicode="&#x1e81;" horiz-adv-x="748" 
d="M175 0l-148 504h71l120 -431h-14l130 431h80l130 -431h-14l120 431h71l-148 -504h-71l-135 451h14l-135 -451h-71zM470 547l-199 116l10 61v0l195 -127z" />
    <glyph glyph-name="Wacute" unicode="&#x1e82;" horiz-adv-x="956" 
d="M221 0l-194 700h75l160 -614v0l179 614h78l174 -615v0l161 615h75l-197 -700h-79l-176 597v0l-179 -597h-77zM384 743l-7 51l196 127v0l9 -61z" />
    <glyph glyph-name="wacute" unicode="&#x1e83;" horiz-adv-x="748" 
d="M175 0l-148 504h71l120 -431h-14l130 431h80l130 -431h-14l120 431h71l-148 -504h-71l-135 451h14l-135 -451h-71zM278 547l-7 50l196 127v0l9 -61z" />
    <glyph glyph-name="Wdieresis" unicode="&#x1e84;" horiz-adv-x="956" 
d="M221 0l-194 700h75l160 -614v0l179 614h78l174 -615v0l161 615h75l-197 -700h-79l-176 597v0l-179 -597h-77zM403 777q-19 0 -32.5 13.5t-13.5 32.5t13.5 32.5t32.5 13.5t32.5 -13.5t13.5 -32.5t-13.5 -32.5t-32.5 -13.5zM557 777q-19 0 -32.5 13.5t-13.5 32.5t13.5 32.5
t32.5 13.5t32 -13.5t13 -32.5t-13 -32.5t-32 -13.5z" />
    <glyph glyph-name="wdieresis" unicode="&#x1e85;" horiz-adv-x="748" 
d="M175 0l-148 504h71l120 -431h-14l130 431h80l130 -431h-14l120 431h71l-148 -504h-71l-135 451h14l-135 -451h-71zM298 570q-19 0 -32.5 13t-13.5 33q0 19 13.5 32.5t32.5 13.5t32.5 -14t13.5 -32q0 -20 -13.5 -33t-32.5 -13zM452 570q-19 0 -32.5 13t-13.5 33
q0 19 13.5 32.5t32.5 13.5t32 -14t13 -32q0 -20 -13 -33t-32 -13z" />
    <glyph glyph-name="uni1E9E" unicode="&#x1e9e;" horiz-adv-x="663" 
d="M406 -5q-94 0 -144.5 53.5t-50.5 155.5h69q0 -70 32 -110t99 -40q42 0 72.5 17t47 51.5t16.5 88.5q0 81 -41 124.5t-128 43.5h-96v50l207 212h-266q-40 0 -57.5 -16.5t-17.5 -56.5v-568h-70v571q0 44 14.5 72.5t44 42.5t73.5 14h363v-54l-210 -213h18q79 0 131 -25.5
t78 -74t26 -117.5q0 -67 -24 -116.5t-70.5 -77t-115.5 -27.5z" />
    <glyph glyph-name="uni1EBC" unicode="&#x1ebc;" horiz-adv-x="562" 
d="M78 0v700h425v-58h-355v-261h325v-58h-325v-265h355v-58h-425zM355 758q-26 0 -43.5 12t-32.5 23.5t-36 11.5q-16 0 -27.5 -11t-14.5 -34h-43q6 46 29.5 69.5t58.5 23.5q26 0 43 -11.5t32.5 -23.5t36.5 -12q17 0 29 11.5t15 33.5h42q-4 -44 -29 -68.5t-60 -24.5z" />
    <glyph glyph-name="uni1EBD" unicode="&#x1ebd;" horiz-adv-x="560" 
d="M287 -12q-70 0 -123.5 33t-84 92.5t-30.5 139.5t30 139t84.5 91.5t125.5 32.5q73 0 124 -33t77.5 -86t26.5 -116v-20.5t-1 -24.5h-414v59h347q-3 77 -48.5 119t-114.5 42q-44 0 -83 -20.5t-62.5 -60t-23.5 -99.5v-26q0 -68 24.5 -113t63.5 -67t82 -22q57 0 94 25.5
t53 70.5h69q-12 -44 -41 -79.5t-73 -56t-102 -20.5zM339 570q-26 0 -43.5 12t-32.5 23.5t-36 11.5q-16 0 -27.5 -11t-14.5 -34h-43q6 46 29.5 69.5t58.5 23.5q26 0 43 -11.5t32.5 -23.5t36.5 -12q17 0 29 11.5t15 33.5h42q-4 -44 -29 -68.5t-60 -24.5z" />
    <glyph glyph-name="Ygrave" unicode="&#x1ef2;" horiz-adv-x="566" 
d="M249 0v273l-226 427h79l194 -386h-24l193 386h78l-224 -427v-273h-70zM380 743l-199 117l10 61v0l195 -127z" />
    <glyph glyph-name="ygrave" unicode="&#x1ef3;" horiz-adv-x="544" 
d="M123 -220l124 276h-27l-199 448h76l172 -400v0l181 400h72l-326 -724h-73zM368 547l-199 116l10 61v0l195 -127z" />
    <glyph glyph-name="uni1EF8" unicode="&#x1ef8;" horiz-adv-x="566" 
d="M249 0v273l-226 427h79l194 -386h-24l193 386h78l-224 -427v-273h-70zM349 758q-26 0 -43.5 12t-32.5 23.5t-36 11.5q-16 0 -27.5 -11t-14.5 -34h-43q6 46 29.5 69.5t58.5 23.5q26 0 43 -11.5t32.5 -23.5t36.5 -12q17 0 29 11.5t15 33.5h42q-4 -44 -29 -68.5t-60 -24.5z
" />
    <glyph glyph-name="uni1EF9" unicode="&#x1ef9;" horiz-adv-x="544" 
d="M123 -220l124 276h-27l-199 448h76l172 -400v0l181 400h72l-326 -724h-73zM326 570q-26 0 -43.5 12t-32.5 23.5t-36 11.5q-16 0 -27.5 -11t-14.5 -34h-43q6 46 29.5 69.5t58.5 23.5q26 0 43 -11.5t32.5 -23.5t36.5 -12q17 0 29 11.5t15 33.5h42q-4 -44 -29 -68.5
t-60 -24.5z" />
    <glyph glyph-name="endash" unicode="&#x2013;" horiz-adv-x="619" 
d="M50 266v59h519v-59h-519z" />
    <glyph glyph-name="emdash" unicode="&#x2014;" horiz-adv-x="819" 
d="M50 266v59h719v-59h-719z" />
    <glyph glyph-name="quoteleft" unicode="&#x2018;" horiz-adv-x="198" 
d="M30 477l87 223h51l-57 -223h-81z" />
    <glyph glyph-name="quoteright" unicode="&#x2019;" horiz-adv-x="198" 
d="M168 700l-87 -223h-51l57 223h81z" />
    <glyph glyph-name="quotesinglbase" unicode="&#x201a;" horiz-adv-x="172" 
d="M1 -124l58 220h81l-88 -220h-51z" />
    <glyph glyph-name="quotedblleft" unicode="&#x201c;" horiz-adv-x="344" 
d="M175 477l88 223h51l-58 -223h-81zM30 477l87 223h51l-57 -223h-81z" />
    <glyph glyph-name="quotedblright" unicode="&#x201d;" horiz-adv-x="344" 
d="M169 700l-88 -223h-51l58 223h81zM314 700l-87 -223h-51l57 223h81z" />
    <glyph glyph-name="quotedblbase" unicode="&#x201e;" horiz-adv-x="322" 
d="M1 -124l58 220h81l-88 -220h-51zM151 -124l57 220h81l-86 -220h-52z" />
    <glyph glyph-name="dagger" unicode="&#x2020;" horiz-adv-x="511" 
d="M221 -258l7 754l-188 -7v57l188 -7l-7 240h69l-7 -240l188 7v-57l-188 7l7 -754h-69z" />
    <glyph glyph-name="daggerdbl" unicode="&#x2021;" horiz-adv-x="512" 
d="M221 -258l8 240l-188 -7v57l188 -7v471l-188 -7v57l188 -7l-8 240h69l-6 -240l188 7v-57l-188 7v-471l188 7v-57l-188 7l6 -240h-69z" />
    <glyph glyph-name="bullet" unicode="&#x2022;" horiz-adv-x="355" 
d="M176 218q-30 0 -56 15.5t-42 42t-16 57.5q0 33 16 59t42 41.5t56 15.5q34 0 60 -15.5t41.5 -41.5t15.5 -59q0 -32 -15.5 -58t-41.5 -41.5t-60 -15.5z" />
    <glyph glyph-name="ellipsis" unicode="&#x2026;" horiz-adv-x="538" 
d="M269 -5q-22 0 -36.5 15t-14.5 37t14.5 36.5t36.5 14.5t36.5 -14.5t14.5 -36.5t-14.5 -37t-36.5 -15zM444 -5q-22 0 -36.5 15t-14.5 37t14.5 36.5t36.5 14.5t36.5 -14.5t14.5 -36.5t-14.5 -37t-36.5 -15zM94 -5q-22 0 -36.5 15t-14.5 37t14.5 36.5t36.5 14.5t36.5 -14.5
t14.5 -36.5t-14.5 -37t-36.5 -15z" />
    <glyph glyph-name="perthousand" unicode="&#x2030;" horiz-adv-x="1099" 
d="M900 -12q-43 0 -78.5 20t-56 57.5t-20.5 87.5q0 51 20.5 88t56.5 57t80 20t79 -20t55.5 -57t20.5 -88q0 -50 -20.5 -87.5t-56.5 -57.5t-80 -20zM900 43q26 0 48 12.5t35.5 36.5t13.5 60q0 39 -13.5 63t-35.5 36.5t-47 12.5q-24 0 -46.5 -12.5t-36.5 -37t-14 -61.5t14 -61
t36 -36.5t46 -12.5zM134 0l411 700h70l-410 -700h-71zM559 -12q-44 0 -79.5 20t-56 57.5t-20.5 87.5q0 51 20.5 88t56.5 57t79 20q45 0 80 -20t55 -57t20 -88q0 -50 -20.5 -87.5t-55.5 -57.5t-79 -20zM559 45q25 0 46 12t34.5 36t13.5 60q0 37 -13.5 61t-34 36t-46.5 12
q-24 0 -46 -12t-35.5 -36t-13.5 -61q0 -36 13.5 -60t35 -36t46.5 -12zM198 381q-44 0 -79.5 20t-56 57.5t-20.5 87.5q0 51 21 88t56.5 57t79.5 20t79 -20t55.5 -57t20.5 -88q0 -50 -20.5 -87.5t-56 -57.5t-79.5 -20zM198 438q25 0 46 12t34.5 36t13.5 60q0 37 -13 61
t-34 36.5t-46 12.5t-46.5 -12.5t-35 -36.5t-13.5 -61q0 -36 13 -60t35 -36t46 -12z" />
    <glyph glyph-name="guilsinglleft" unicode="&#x2039;" horiz-adv-x="269" 
d="M146 120l-99 175l99 175h71l-102 -175l102 -175h-71z" />
    <glyph glyph-name="guilsinglright" unicode="&#x203a;" horiz-adv-x="269" 
d="M123 120h-71l102 175l-102 175h71l99 -175z" />
    <glyph glyph-name="fraction" unicode="&#x2044;" horiz-adv-x="409" 
d="M-29 0l410 700h72l-411 -700h-71z" />
    <glyph glyph-name="uni2074" unicode="&#x2074;" horiz-adv-x="313" 
d="M194 352v68h-174v44l166 236h64v-231h48v-49h-48v-68h-56zM81 469h117v169v0z" />
    <glyph glyph-name="uni20A8" unicode="&#x20a8;" horiz-adv-x="1031" 
d="M78 0v700h216q81 0 132.5 -27t75.5 -72.5t24 -103.5q0 -56 -25 -102.5t-77 -74t-135 -27.5h-141v-293h-70zM450 0l-157 315h80l161 -315h-84zM148 350h141q85 0 125 41t40 106q0 67 -39 105.5t-127 38.5h-140v-291zM793 -12q-60 0 -105.5 20t-73 57.5t-33.5 89.5h73
q5 -29 22.5 -53t47.5 -38t71 -14q38 0 62.5 11t37 30.5t12.5 43.5q0 33 -15.5 51.5t-44.5 27.5t-70 17q-34 6 -64.5 16t-55 26t-39 40.5t-14.5 57.5q0 43 21.5 75.5t61.5 51t94 18.5q77 0 126 -38.5t57 -112.5h-70q-4 41 -34 65t-81 24q-50 0 -76.5 -20.5t-26.5 -55.5
q0 -22 14 -38t41.5 -27.5t67.5 -19.5q48 -9 88.5 -23.5t66 -44t25.5 -83.5q1 -45 -22 -80t-64.5 -54.5t-99.5 -19.5z" />
    <glyph glyph-name="Euro" unicode="&#x20ac;" horiz-adv-x="768" 
d="M23 244v58h432v-58h-432zM23 399v58h432v-58h-432zM433 -12q-101 0 -175 45.5t-114 127t-40 189.5t40 189.5t114.5 127t174.5 45.5q118 0 191.5 -55.5t94.5 -156.5h-77q-16 68 -68 109.5t-141 41.5q-77 0 -135 -36t-90 -103.5t-32 -161.5t32 -161.5t90 -103.5t135 -36
q89 0 141 41t68 108h77q-22 -99 -94.5 -154.5t-191.5 -55.5z" />
    <glyph glyph-name="uni20B9" unicode="&#x20b9;" horiz-adv-x="646" 
d="M300 -12q-99 0 -148 55.5t-49 150.5v146q98 0 156 7t86.5 27.5t38 61t9.5 108.5v123h66v-124q0 -74 -13.5 -123t-46 -77.5t-89 -40.5t-141.5 -12v-96q0 -68 30.5 -109t101.5 -41q66 0 97 38t31 105h65q-1 -99 -51.5 -149t-142.5 -50zM55 471v52h544v-52h-544zM55 647v53
h544v-53h-544z" />
    <glyph glyph-name="uni20BA" unicode="&#x20ba;" horiz-adv-x="812" 
d="M357 -12q-34 0 -71.5 5t-77.5 14v693h72v-639q20 -4 39.5 -6t37.5 -2q75 0 129.5 23.5t89.5 69.5t52 113t17 155h72q0 -139 -37.5 -234t-117 -143.5t-205.5 -48.5zM38 204v52l430 110v-52zM36 369v51l434 114v-52z" />
    <glyph glyph-name="uni20BD" unicode="&#x20bd;" horiz-adv-x="615" 
d="M44 133v57h85v108h-85v58h85v344h211q82 0 134 -26.5t77 -72t25 -103.5q0 -56 -24.5 -101.5t-76.5 -72t-135 -26.5h-141v-108h234v-57h-234v-133h-70v133h-85zM199 356h141q89 0 127 39t38 103q0 68 -38 107t-127 39h-141v-288z" />
    <glyph glyph-name="uni2113" unicode="&#x2113;" horiz-adv-x="226" 
d="M78 -100v820h70v-820h-70z" />
    <glyph glyph-name="trademark" unicode="&#x2122;" horiz-adv-x="754" 
d="M27 654v46h238v-46h-90v-306h-58v306h-90zM320 348v352h71l120 -284l124 284h68v-352h-53v271l-119 -271h-42l-117 272v-272h-52z" />
    <glyph glyph-name="uni2126" unicode="&#x2126;" horiz-adv-x="789" 
d="M58 0v56h196l-13 -13q-63 23 -107 70t-67 109.5t-23 132.5q0 79 27 144.5t75 113t111.5 73.5t136.5 26q74 0 137.5 -26t112 -73.5t75.5 -113t27 -144.5q0 -70 -23 -132.5t-67 -109.5t-108 -70l-14 13h196v-56h-275v59q64 13 113.5 52.5t78 101t28.5 139.5
q0 68 -21.5 122.5t-60 93.5t-89.5 60t-110 21q-60 0 -111.5 -21.5t-89 -61t-58.5 -94t-21 -120.5q0 -78 28.5 -139.5t78.5 -101t113 -52.5v-59h-276z" />
    <glyph glyph-name="estimated" unicode="&#x212e;" horiz-adv-x="764" 
d="M391 -7q-97 0 -174.5 39t-122 114t-44.5 183q0 103 38.5 186t112.5 132.5t181 49.5q80 0 142 -26.5t104.5 -72.5t64 -104t21.5 -120v-61h-544v-164q40 -52 92 -79t129 -27q52 0 95 16t83 45.5t81 70.5l36 -38q-61 -66 -135 -105t-160 -39zM170 371h413v179q-32 46 -84 71
t-117 25t-120 -26t-92 -82v-167z" />
    <glyph glyph-name="arrowleft" unicode="&#x2190;" horiz-adv-x="763" 
d="M723 314h-594l302 -281l-45 -45l-346 328v55l346 328l45 -45l-301 -280l593 -1v-59z" />
    <glyph glyph-name="arrowup" unicode="&#x2191;" horiz-adv-x="843" 
d="M40 347l353 353h57l353 -353l-45 -45l-304 304v-606h-65v607l-304 -305z" />
    <glyph glyph-name="arrowright" unicode="&#x2192;" horiz-adv-x="763" 
d="M40 314v59l593 1l-301 280l45 45l346 -328v-55l-346 -328l-45 45l302 281h-594z" />
    <glyph glyph-name="arrowdown" unicode="&#x2193;" horiz-adv-x="843" 
d="M40 353l45 45l304 -305v607h65v-606l304 304l45 -45l-353 -353h-57z" />
    <glyph glyph-name="arrowboth" unicode="&#x2194;" horiz-adv-x="966" 
d="M40 316v55l346 328l45 -45l-301 -280h706l-301 280l45 45l346 -328v-55l-346 -328l-45 45l302 281h-708l302 -281l-45 -45z" />
    <glyph glyph-name="arrowupdn" unicode="&#x2195;" horiz-adv-x="791" 
d="M40 246l35 40l291 -214l-1 556l-290 -214l-35 40l328 246h55l328 -246l-35 -40l-291 214v-557l291 215l35 -40l-328 -246h-55z" />
    <glyph glyph-name="uni2196" unicode="&#x2196;" horiz-adv-x="619" 
d="M532 68l-429 429v-431h-63v499l40 41h499v-64h-430l429 -429z" />
    <glyph glyph-name="uni2197" unicode="&#x2197;" horiz-adv-x="619" 
d="M87 80l-46 45l429 429h-430v64h499l40 -41v-499h-63v431z" />
    <glyph glyph-name="uni2198" unicode="&#x2198;" horiz-adv-x="619" 
d="M87 604l429 -429v431h63v-499l-40 -41h-499v64h430l-429 429z" />
    <glyph glyph-name="uni2199" unicode="&#x2199;" horiz-adv-x="619" 
d="M532 604l46 -45l-429 -429h430v-64h-499l-40 41v499h63v-431z" />
    <glyph glyph-name="partialdiff" unicode="&#x2202;" horiz-adv-x="559" 
d="M228 -10q-51 0 -94 24t-68.5 74.5t-25.5 127.5q0 66 19 126.5t53.5 109t83.5 76.5t109 28q34 0 62.5 -11t49.5 -38t31 -75q0 75 -16 135t-51.5 94.5t-97.5 34.5q-19 0 -39 -3.5t-43 -9.5v44q25 7 47 10t44 3q72 0 122.5 -37t77.5 -109.5t27 -179.5q0 -130 -38.5 -225.5
t-104 -147t-148.5 -51.5zM235 50q45 0 82 22.5t63.5 61.5t41 89t14.5 105q0 86 -34.5 127.5t-93.5 41.5q-43 0 -79 -21.5t-62.5 -60t-41 -89.5t-14.5 -110q0 -86 36 -126t88 -40z" />
    <glyph glyph-name="uni2206" unicode="&#x2206;" horiz-adv-x="692" 
d="M33 0v55l283 645h59l284 -645v-55h-626zM104 55h484l-243 565z" />
    <glyph glyph-name="product" unicode="&#x220f;" horiz-adv-x="722" 
d="M121 0v644h-81v56h642v-56h-81v-644h-70v644h-340v-644h-70z" />
    <glyph glyph-name="summation" unicode="&#x2211;" horiz-adv-x="436" 
d="M40 -49v80l266 294l-266 295v80h379v-55h-320l269 -290v-56l-269 -293h320v-55h-379z" />
    <glyph glyph-name="minus" unicode="&#x2212;" horiz-adv-x="500" 
d="M55 264v60h389v-60h-389z" />
    <glyph glyph-name="uni2215" unicode="&#x2215;" horiz-adv-x="381" 
d="M31 -90l251 850h70l-252 -850h-69z" />
    <glyph glyph-name="radical" unicode="&#x221a;" horiz-adv-x="690" 
d="M18 167l120 69l110 -193l433 816h53l-481 -903h-34l-118 207l-61 -35z" />
    <glyph glyph-name="infinity" unicode="&#x221e;" horiz-adv-x="685" 
d="M180 145q-60 0 -101 37t-41 104q0 46 19 78t52 49t71 17q42 0 73 -17t55 -43.5t45 -56.5t42 -56t46 -43t56 -17q42 0 66.5 25t24.5 66t-23.5 65t-62.5 24q-47 0 -84 -34t-57 -85l-33 29q12 35 36 68t59 54.5t81 20.5q61 0 102.5 -37t41.5 -104q0 -45 -20 -77.5
t-53.5 -49.5t-74.5 -17q-40 0 -71 17t-55.5 43.5t-46 56t-42.5 56t-46 43.5t-57 17q-36 0 -60 -25t-24 -67q0 -40 23 -64t63 -24q47 0 84 34t56 85l33 -29q-11 -35 -35.5 -68t-59.5 -54t-82 -21z" />
    <glyph glyph-name="integral" unicode="&#x222b;" horiz-adv-x="253" 
d="M-36 -179l6 58h22q29 0 41.5 15.5t16.5 55.5l93 836q5 44 21 71.5t44 40.5t68 13h23l-6 -59h-19q-26 0 -41 -14t-20 -52l-93 -836q-5 -44 -20 -73t-42 -42.5t-69 -13.5h-25z" />
    <glyph glyph-name="approxequal" unicode="&#x2248;" horiz-adv-x="500" 
d="M330 120q-26 0 -47.5 10.5t-40 24t-37.5 24t-41 10.5q-27 0 -44 -18.5t-22 -48.5h-54q8 43 24 72t41.5 43.5t58.5 14.5q28 0 50 -10.5t41 -24t37.5 -23.5t39.5 -10q27 0 44 18.5t20 47.5h55q-6 -43 -22.5 -72t-42 -43.5t-60.5 -14.5zM330 320q-26 0 -47.5 10.5t-40 24
t-37.5 24t-41 10.5q-27 0 -44 -18.5t-22 -48.5h-54q8 43 24 72t41.5 43.5t58.5 14.5q28 0 50 -10.5t41 -24t37.5 -23.5t39.5 -10q27 0 44 18.5t20 47.5h55q-6 -43 -22.5 -72t-42 -43.5t-60.5 -14.5z" />
    <glyph glyph-name="notequal" unicode="&#x2260;" horiz-adv-x="500" 
d="M121 93l210 396h68l-211 -396h-67zM55 363v60h390v-60h-390zM55 160v59h390v-59h-390z" />
    <glyph glyph-name="lessequal" unicode="&#x2264;" horiz-adv-x="500" 
d="M422 112h-92l-253 193v0l253 194h92l-249 -193zM423 0h-341v54h341v-54z" />
    <glyph glyph-name="greaterequal" unicode="&#x2265;" horiz-adv-x="500" 
d="M78 112l249 194l-249 193h92l253 -194v0l-253 -193h-92zM77 0v54h341v-54h-341z" />
    <glyph glyph-name="lozenge" unicode="&#x25ca;" horiz-adv-x="551" 
d="M275 113l-235 236l236 236l235 -236zM275 189l160 160l-159 160l-159 -160z" />
    <glyph glyph-name="Q.ss06" horiz-adv-x="774" 
d="M635 -137l-178 172l67 22l202 -194h-91zM386 -12q-100 0 -176 45.5t-118.5 127t-42.5 189.5q0 107 42.5 188.5t118.5 127.5t176 46q103 0 179 -46t118 -127.5t42 -188.5q0 -108 -42 -189.5t-118 -127t-179 -45.5zM387 49q79 0 139 36t93.5 103.5t33.5 161.5t-33.5 161
t-93.5 103t-139 36t-139 -36t-93.5 -103t-33.5 -161t33.5 -161.5t93.5 -103.5t139 -36z" />
    <glyph glyph-name="i.loclTRK" horiz-adv-x="212" 
d="M71 0v504h70v-504h-70zM106 571q-19 0 -32.5 13.5t-13.5 32.5t13.5 32.5t32.5 13.5t32.5 -13.5t13.5 -32.5t-13.5 -32.5t-32.5 -13.5z" />
    <glyph glyph-name="a.ss02" horiz-adv-x="620" 
d="M292 -12q-74 0 -128.5 34.5t-84.5 94.5t-30 136t30 135.5t85 93.5t129 34q63 0 112 -27.5t74 -77.5l5 93h65v-504h-65l-5 91v0q-23 -40 -69.5 -71.5t-117.5 -31.5zM297 49q53 0 92.5 25.5t62.5 71t23 106.5t-23 107t-62.5 71t-92.5 25q-51 0 -91.5 -25t-63 -70.5
t-22.5 -107.5t22.5 -107.5t62.5 -70.5t92 -25z" />
    <glyph glyph-name="aacute.ss02" horiz-adv-x="620" 
d="M292 -12q-74 0 -128.5 34.5t-84.5 94.5t-30 136t30 135.5t85 93.5t129 34q63 0 112 -27.5t74 -77.5l5 93h65v-504h-65l-5 91v0q-23 -40 -69.5 -71.5t-117.5 -31.5zM297 49q53 0 92.5 25.5t62.5 71t23 106.5t-23 107t-62.5 71t-92.5 25q-51 0 -91.5 -25t-63 -70.5
t-22.5 -107.5t22.5 -107.5t62.5 -70.5t92 -25zM202 545l-7 50l196 127v0l9 -61z" />
    <glyph glyph-name="abreve.ss02" horiz-adv-x="620" 
d="M292 -12q-74 0 -128.5 34.5t-84.5 94.5t-30 136t30 135.5t85 93.5t129 34q63 0 112 -27.5t74 -77.5l5 93h65v-504h-65l-5 91v0q-23 -40 -69.5 -71.5t-117.5 -31.5zM297 49q53 0 92.5 25.5t62.5 71t23 106.5t-23 107t-62.5 71t-92.5 25q-51 0 -91.5 -25t-63 -70.5
t-22.5 -107.5t22.5 -107.5t62.5 -70.5t92 -25zM297 561q-45 0 -75 17t-45 45t-15 61v13h44q0 -38 21.5 -59t69.5 -21t69.5 21t21.5 59h45v-13q0 -33 -15 -61t-45.5 -45t-75.5 -17z" />
    <glyph glyph-name="acircumflex.ss02" horiz-adv-x="620" 
d="M292 -12q-74 0 -128.5 34.5t-84.5 94.5t-30 136t30 135.5t85 93.5t129 34q63 0 112 -27.5t74 -77.5l5 93h65v-504h-65l-5 91v0q-23 -40 -69.5 -71.5t-117.5 -31.5zM297 49q53 0 92.5 25.5t62.5 71t23 106.5t-23 107t-62.5 71t-92.5 25q-51 0 -91.5 -25t-63 -70.5
t-22.5 -107.5t22.5 -107.5t62.5 -70.5t92 -25zM164 548v57l134 82l134 -82v-57l-134 84z" />
    <glyph glyph-name="adieresis.ss02" horiz-adv-x="620" 
d="M292 -12q-74 0 -128.5 34.5t-84.5 94.5t-30 136t30 135.5t85 93.5t129 34q63 0 112 -27.5t74 -77.5l5 93h65v-504h-65l-5 91v0q-23 -40 -69.5 -71.5t-117.5 -31.5zM297 49q53 0 92.5 25.5t62.5 71t23 106.5t-23 107t-62.5 71t-92.5 25q-51 0 -91.5 -25t-63 -70.5
t-22.5 -107.5t22.5 -107.5t62.5 -70.5t92 -25zM222 568q-19 0 -32.5 13t-13.5 33q0 19 13.5 32.5t32.5 13.5t32.5 -14t13.5 -32q0 -20 -13.5 -33t-32.5 -13zM376 568q-19 0 -32.5 13t-13.5 33q0 19 13.5 32.5t32.5 13.5t32 -14t13 -32q0 -20 -13 -33t-32 -13z" />
    <glyph glyph-name="agrave.ss02" horiz-adv-x="620" 
d="M292 -12q-74 0 -128.5 34.5t-84.5 94.5t-30 136t30 135.5t85 93.5t129 34q63 0 112 -27.5t74 -77.5l5 93h65v-504h-65l-5 91v0q-23 -40 -69.5 -71.5t-117.5 -31.5zM297 49q53 0 92.5 25.5t62.5 71t23 106.5t-23 107t-62.5 71t-92.5 25q-51 0 -91.5 -25t-63 -70.5
t-22.5 -107.5t22.5 -107.5t62.5 -70.5t92 -25zM394 545l-199 116l10 61v0l195 -127z" />
    <glyph glyph-name="amacron.ss02" horiz-adv-x="620" 
d="M292 -12q-74 0 -128.5 34.5t-84.5 94.5t-30 136t30 135.5t85 93.5t129 34q63 0 112 -27.5t74 -77.5l5 93h65v-504h-65l-5 91v0q-23 -40 -69.5 -71.5t-117.5 -31.5zM297 49q53 0 92.5 25.5t62.5 71t23 106.5t-23 107t-62.5 71t-92.5 25q-51 0 -91.5 -25t-63 -70.5
t-22.5 -107.5t22.5 -107.5t62.5 -70.5t92 -25zM128 592v54h339v-54h-339z" />
    <glyph glyph-name="aogonek.ss02" horiz-adv-x="620" 
d="M292 -12q-74 0 -128.5 34.5t-84.5 94.5t-30 136t30 135.5t85 93.5t129 34q63 0 112 -27.5t74 -77.5l5 93h65v-504h-65l-5 91v0q-23 -40 -69.5 -71.5t-117.5 -31.5zM297 49q53 0 92.5 25.5t62.5 71t23 106.5t-23 107t-62.5 71t-92.5 25q-51 0 -91.5 -25t-63 -70.5
t-22.5 -107.5t22.5 -107.5t62.5 -70.5t92 -25zM480 -201q-28 0 -54 9t-42.5 29.5t-16.5 53.5q0 23 10.5 44t34.5 40.5t63 37.5l55 25l19 -38l-60 -29q-35 -17 -49 -35t-14 -38q0 -25 17 -38t45 -13q14 0 31 3.5t33 10.5v-49q-16 -6 -35 -9.5t-37 -3.5z" />
    <glyph glyph-name="aring.ss02" horiz-adv-x="620" 
d="M292 -12q-74 0 -128.5 34.5t-84.5 94.5t-30 136t30 135.5t85 93.5t129 34q63 0 112 -27.5t74 -77.5l5 93h65v-504h-65l-5 91v0q-23 -40 -69.5 -71.5t-117.5 -31.5zM297 49q53 0 92.5 25.5t62.5 71t23 106.5t-23 107t-62.5 71t-92.5 25q-51 0 -91.5 -25t-63 -70.5
t-22.5 -107.5t22.5 -107.5t62.5 -70.5t92 -25zM298 568q-41 0 -71.5 26.5t-30.5 73.5t30.5 73.5t71.5 26.5q43 0 72.5 -27t29.5 -73t-29.5 -73t-72.5 -27zM298 606q25 0 42 17t17 45q0 29 -17 45t-42 16q-24 0 -41 -16.5t-17 -45.5q0 -27 17 -44t41 -17z" />
    <glyph glyph-name="atilde.ss02" horiz-adv-x="620" 
d="M292 -12q-74 0 -128.5 34.5t-84.5 94.5t-30 136t30 135.5t85 93.5t129 34q63 0 112 -27.5t74 -77.5l5 93h65v-504h-65l-5 91v0q-23 -40 -69.5 -71.5t-117.5 -31.5zM297 49q53 0 92.5 25.5t62.5 71t23 106.5t-23 107t-62.5 71t-92.5 25q-51 0 -91.5 -25t-63 -70.5
t-22.5 -107.5t22.5 -107.5t62.5 -70.5t92 -25zM352 568q-26 0 -43.5 12t-32.5 23.5t-36 11.5q-16 0 -27.5 -11t-14.5 -34h-43q6 46 29.5 69.5t58.5 23.5q26 0 43 -11.5t32.5 -23.5t36.5 -12q17 0 29 11.5t15 33.5h42q-4 -44 -29 -68.5t-60 -24.5z" />
    <glyph glyph-name="ae.ss02" horiz-adv-x="992" 
d="M292 -12q-74 0 -128.5 34.5t-84.5 94.5t-30 136t30 135.5t85 93.5t129 34q61 0 108 -25.5t74 -72.5l6 86h64v-62q33 35 77.5 54.5t98.5 19.5q73 0 124 -33t77.5 -86t26.5 -116v-20.5t-1 -24.5h-399q3 -63 27.5 -105t63 -62.5t79.5 -20.5q60 0 98.5 29t54.5 79h68
q-12 -48 -41 -86t-74 -60t-106 -22q-53 0 -97 19.5t-77 55.5v-63h-63l-7 76v0q-24 -31 -52.5 -50.5t-61 -28.5t-69.5 -9zM297 49q53 0 92.5 25.5t62.5 70.5t23 107q0 61 -23 107t-62.5 71t-92.5 25q-51 0 -91.5 -25t-63 -70.5t-22.5 -107.5t22.5 -107t63 -70.5t91.5 -25.5z
M550 295h331q-3 77 -48.5 119t-114.5 42q-42 0 -79 -18t-61 -53.5t-28 -89.5z" />
    <glyph glyph-name="aeacute.ss02" horiz-adv-x="992" 
d="M292 -12q-74 0 -128.5 34.5t-84.5 94.5t-30 136t30 135.5t85 93.5t129 34q61 0 108 -25.5t74 -72.5l6 86h64v-62q33 35 77.5 54.5t98.5 19.5q73 0 124 -33t77.5 -86t26.5 -116v-20.5t-1 -24.5h-399q3 -63 27.5 -105t63 -62.5t79.5 -20.5q60 0 98.5 29t54.5 79h68
q-12 -48 -41 -86t-74 -60t-106 -22q-53 0 -97 19.5t-77 55.5v-63h-63l-7 76v0q-24 -31 -52.5 -50.5t-61 -28.5t-69.5 -9zM297 49q53 0 92.5 25.5t62.5 70.5t23 107q0 61 -23 107t-62.5 71t-92.5 25q-51 0 -91.5 -25t-63 -70.5t-22.5 -107.5t22.5 -107t63 -70.5t91.5 -25.5z
M550 295h331q-3 77 -48.5 119t-114.5 42q-42 0 -79 -18t-61 -53.5t-28 -89.5zM416 547l-7 50l196 127v0l9 -61z" />
    <glyph glyph-name="g.ss03" horiz-adv-x="635" 
d="M314 -232q-49 0 -91 13t-74.5 37t-54 58t-29.5 76h69q11 -36 36 -63.5t61.5 -43.5t82.5 -16q52 0 92.5 22.5t64 67t23.5 110.5v79q-16 -31 -43.5 -58t-66 -43.5t-89.5 -16.5q-71 0 -127 34.5t-87.5 94t-31.5 135.5t32.5 135t89 93t125.5 34q47 0 85 -15t67 -39.5
t46 -55.5v0l6 98h64v-475q0 -61 -18.5 -109t-51.5 -82t-78.5 -52t-101.5 -18zM305 51q53 0 95 25.5t66 71.5t24 106q0 61 -24 106t-66 70t-95 25t-94.5 -25t-65.5 -70t-24 -106q0 -60 23 -106t64.5 -71.5t96.5 -25.5z" />
    <glyph glyph-name="gbreve.ss03" horiz-adv-x="635" 
d="M314 -232q-49 0 -91 13t-74.5 37t-54 58t-29.5 76h69q11 -36 36 -63.5t61.5 -43.5t82.5 -16q52 0 92.5 22.5t64 67t23.5 110.5v79q-16 -31 -43.5 -58t-66 -43.5t-89.5 -16.5q-71 0 -127 34.5t-87.5 94t-31.5 135.5t32.5 135t89 93t125.5 34q47 0 85 -15t67 -39.5
t46 -55.5v0l6 98h64v-475q0 -61 -18.5 -109t-51.5 -82t-78.5 -52t-101.5 -18zM305 51q53 0 95 25.5t66 71.5t24 106q0 61 -24 106t-66 70t-95 25t-94.5 -25t-65.5 -70t-24 -106q0 -60 23 -106t64.5 -71.5t96.5 -25.5zM317 563q-45 0 -75 17t-45 45t-15 61v13h44
q0 -38 21.5 -59t69.5 -21t69.5 21t21.5 59h45v-13q0 -33 -15 -61t-45.5 -45t-75.5 -17z" />
    <glyph glyph-name="uni0123.ss03" horiz-adv-x="635" 
d="M314 -232q-49 0 -91 13t-74.5 37t-54 58t-29.5 76h69q11 -36 36 -63.5t61.5 -43.5t82.5 -16q52 0 92.5 22.5t64 67t23.5 110.5v79q-16 -31 -43.5 -58t-66 -43.5t-89.5 -16.5q-71 0 -127 34.5t-87.5 94t-31.5 135.5t32.5 135t89 93t125.5 34q47 0 85 -15t67 -39.5
t46 -55.5v0l6 98h64v-475q0 -61 -18.5 -109t-51.5 -82t-78.5 -52t-101.5 -18zM305 51q53 0 95 25.5t66 71.5t24 106q0 61 -24 106t-66 70t-95 25t-94.5 -25t-65.5 -70t-24 -106q0 -60 23 -106t64.5 -71.5t96.5 -25.5zM360 738v-36q-22 0 -31.5 -9.5t-9.5 -28.5v-22h40v-76
h-75q-4 25 -7 43t-3 37q0 50 23 71t63 21z" />
    <glyph glyph-name="gdotaccent.ss03" horiz-adv-x="635" 
d="M314 -232q-49 0 -91 13t-74.5 37t-54 58t-29.5 76h69q11 -36 36 -63.5t61.5 -43.5t82.5 -16q52 0 92.5 22.5t64 67t23.5 110.5v79q-16 -31 -43.5 -58t-66 -43.5t-89.5 -16.5q-71 0 -127 34.5t-87.5 94t-31.5 135.5t32.5 135t89 93t125.5 34q47 0 85 -15t67 -39.5
t46 -55.5v0l6 98h64v-475q0 -61 -18.5 -109t-51.5 -82t-78.5 -52t-101.5 -18zM305 51q53 0 95 25.5t66 71.5t24 106q0 61 -24 106t-66 70t-95 25t-94.5 -25t-65.5 -70t-24 -106q0 -60 23 -106t64.5 -71.5t96.5 -25.5zM317 571q-19 0 -32.5 13.5t-13.5 32.5t13.5 32.5
t32.5 13.5t32.5 -13.5t13.5 -32.5t-13.5 -32.5t-32.5 -13.5z" />
    <glyph glyph-name="u.ss04" horiz-adv-x="550" 
d="M275 -12q-99 0 -156.5 55t-57.5 169v292h70v-279q0 -61 15 -100t47 -57.5t82 -18.5t81.5 18.5t47 57.5t15.5 100v279h69v-292q0 -114 -57.5 -169t-155.5 -55z" />
    <glyph glyph-name="uacute.ss04" horiz-adv-x="550" 
d="M275 -12q-99 0 -156.5 55t-57.5 169v292h70v-279q0 -61 15 -100t47 -57.5t82 -18.5t81.5 18.5t47 57.5t15.5 100v279h69v-292q0 -114 -57.5 -169t-155.5 -55zM179 547l-7 50l196 127v0l9 -61z" />
    <glyph glyph-name="ubreve.ss04" horiz-adv-x="550" 
d="M275 -12q-99 0 -156.5 55t-57.5 169v292h70v-279q0 -61 15 -100t47 -57.5t82 -18.5t81.5 18.5t47 57.5t15.5 100v279h69v-292q0 -114 -57.5 -169t-155.5 -55zM275 563q-45 0 -75 17t-45 45t-15 61v13h44q0 -38 21.5 -59t69.5 -21t69.5 21t21.5 59h45v-13q0 -33 -15 -61
t-45.5 -45t-75.5 -17z" />
    <glyph glyph-name="ucircumflex.ss04" horiz-adv-x="550" 
d="M275 -12q-99 0 -156.5 55t-57.5 169v292h70v-279q0 -61 15 -100t47 -57.5t82 -18.5t81.5 18.5t47 57.5t15.5 100v279h69v-292q0 -114 -57.5 -169t-155.5 -55zM141 550v57l134 82l134 -82v-57l-134 84z" />
    <glyph glyph-name="udieresis.ss04" horiz-adv-x="550" 
d="M275 -12q-99 0 -156.5 55t-57.5 169v292h70v-279q0 -61 15 -100t47 -57.5t82 -18.5t81.5 18.5t47 57.5t15.5 100v279h69v-292q0 -114 -57.5 -169t-155.5 -55zM199 570q-19 0 -32.5 13t-13.5 33q0 19 13.5 32.5t32.5 13.5t32.5 -14t13.5 -32q0 -20 -13.5 -33t-32.5 -13z
M353 570q-19 0 -32.5 13t-13.5 33q0 19 13.5 32.5t32.5 13.5t32 -14t13 -32q0 -20 -13 -33t-32 -13z" />
    <glyph glyph-name="ugrave.ss04" horiz-adv-x="550" 
d="M275 -12q-99 0 -156.5 55t-57.5 169v292h70v-279q0 -61 15 -100t47 -57.5t82 -18.5t81.5 18.5t47 57.5t15.5 100v279h69v-292q0 -114 -57.5 -169t-155.5 -55zM371 547l-199 116l10 61v0l195 -127z" />
    <glyph glyph-name="uhungarumlaut.ss04" horiz-adv-x="550" 
d="M275 -12q-99 0 -156.5 55t-57.5 169v292h70v-279q0 -61 15 -100t47 -57.5t82 -18.5t81.5 18.5t47 57.5t15.5 100v279h69v-292q0 -114 -57.5 -169t-155.5 -55zM311 559l69 139h63l-84 -139h-48zM173 559l65 139h63l-79 -139h-49z" />
    <glyph glyph-name="umacron.ss04" horiz-adv-x="550" 
d="M275 -12q-99 0 -156.5 55t-57.5 169v292h70v-279q0 -61 15 -100t47 -57.5t82 -18.5t81.5 18.5t47 57.5t15.5 100v279h69v-292q0 -114 -57.5 -169t-155.5 -55zM105 594v54h339v-54h-339z" />
    <glyph glyph-name="uogonek.ss04" horiz-adv-x="550" 
d="M275 -12q-99 0 -156.5 55t-57.5 169v292h70v-279q0 -61 15 -100t47 -57.5t82 -18.5t81.5 18.5t47 57.5t15.5 100v279h69v-292q0 -114 -57.5 -169t-155.5 -55zM315 -191q-28 0 -54 9t-42.5 29.5t-16.5 53.5q0 23 10.5 44t34.5 40.5t63 37.5l55 25l19 -38l-60 -29
q-35 -17 -49 -35t-14 -38q0 -25 17 -38t45 -13q14 0 31 3.5t33 10.5v-49q-16 -6 -35 -9.5t-37 -3.5z" />
    <glyph glyph-name="uring.ss04" horiz-adv-x="550" 
d="M275 -12q-99 0 -156.5 55t-57.5 169v292h70v-279q0 -61 15 -100t47 -57.5t82 -18.5t81.5 18.5t47 57.5t15.5 100v279h69v-292q0 -114 -57.5 -169t-155.5 -55zM275 570q-41 0 -71.5 26.5t-30.5 73.5t30.5 73.5t71.5 26.5q43 0 72.5 -27t29.5 -73t-29.5 -73t-72.5 -27z
M275 608q25 0 42 17t17 45q0 29 -17 45t-42 16q-24 0 -41 -16.5t-17 -45.5q0 -27 17 -44t41 -17z" />
    <glyph glyph-name="utilde.ss04" horiz-adv-x="550" 
d="M275 -12q-99 0 -156.5 55t-57.5 169v292h70v-279q0 -61 15 -100t47 -57.5t82 -18.5t81.5 18.5t47 57.5t15.5 100v279h69v-292q0 -114 -57.5 -169t-155.5 -55zM329 570q-26 0 -43.5 12t-32.5 23.5t-36 11.5q-16 0 -27.5 -11t-14.5 -34h-43q6 46 29.5 69.5t58.5 23.5
q26 0 43 -11.5t32.5 -23.5t36.5 -12q17 0 29 11.5t15 33.5h42q-4 -44 -29 -68.5t-60 -24.5z" />
    <glyph glyph-name="y.ss05" horiz-adv-x="563" 
d="M272 -232q-45 0 -81 12.5t-62.5 35.5t-42.5 55.5t-20 72.5h70q6 -40 24.5 -65.5t47 -37.5t64.5 -12q51 0 84 22.5t49 66.5t16 108v58v0q-27 -46 -70 -71t-98 -25q-57 0 -100.5 23t-67.5 70.5t-24 121.5v301h70v-293q0 -82 35 -122t99 -40q45 0 80.5 22t56 64.5
t20.5 103.5v265h70v-478q0 -79 -25.5 -137t-74.5 -89.5t-120 -31.5z" />
    <glyph glyph-name="yacute.ss05" horiz-adv-x="563" 
d="M272 -232q-45 0 -81 12.5t-62.5 35.5t-42.5 55.5t-20 72.5h70q6 -40 24.5 -65.5t47 -37.5t64.5 -12q51 0 84 22.5t49 66.5t16 108v58v0q-27 -46 -70 -71t-98 -25q-57 0 -100.5 23t-67.5 70.5t-24 121.5v301h70v-293q0 -82 35 -122t99 -40q45 0 80.5 22t56 64.5
t20.5 103.5v265h70v-478q0 -79 -25.5 -137t-74.5 -89.5t-120 -31.5zM186 547l-7 50l196 127v0l9 -61z" />
    <glyph glyph-name="ycircumflex.ss05" horiz-adv-x="563" 
d="M272 -232q-45 0 -81 12.5t-62.5 35.5t-42.5 55.5t-20 72.5h70q6 -40 24.5 -65.5t47 -37.5t64.5 -12q51 0 84 22.5t49 66.5t16 108v58v0q-27 -46 -70 -71t-98 -25q-57 0 -100.5 23t-67.5 70.5t-24 121.5v301h70v-293q0 -82 35 -122t99 -40q45 0 80.5 22t56 64.5
t20.5 103.5v265h70v-478q0 -79 -25.5 -137t-74.5 -89.5t-120 -31.5zM148 550v57l134 82l134 -82v-57l-134 84z" />
    <glyph glyph-name="ydieresis.ss05" horiz-adv-x="563" 
d="M272 -232q-45 0 -81 12.5t-62.5 35.5t-42.5 55.5t-20 72.5h70q6 -40 24.5 -65.5t47 -37.5t64.5 -12q51 0 84 22.5t49 66.5t16 108v58v0q-27 -46 -70 -71t-98 -25q-57 0 -100.5 23t-67.5 70.5t-24 121.5v301h70v-293q0 -82 35 -122t99 -40q45 0 80.5 22t56 64.5
t20.5 103.5v265h70v-478q0 -79 -25.5 -137t-74.5 -89.5t-120 -31.5zM206 570q-19 0 -32.5 13t-13.5 33q0 19 13.5 32.5t32.5 13.5t32.5 -14t13.5 -32q0 -20 -13.5 -33t-32.5 -13zM360 570q-19 0 -32.5 13t-13.5 33q0 19 13.5 32.5t32.5 13.5t32 -14t13 -32q0 -20 -13 -33
t-32 -13z" />
    <glyph glyph-name="ygrave.ss05" horiz-adv-x="563" 
d="M272 -232q-45 0 -81 12.5t-62.5 35.5t-42.5 55.5t-20 72.5h70q6 -40 24.5 -65.5t47 -37.5t64.5 -12q51 0 84 22.5t49 66.5t16 108v58v0q-27 -46 -70 -71t-98 -25q-57 0 -100.5 23t-67.5 70.5t-24 121.5v301h70v-293q0 -82 35 -122t99 -40q45 0 80.5 22t56 64.5
t20.5 103.5v265h70v-478q0 -79 -25.5 -137t-74.5 -89.5t-120 -31.5zM378 547l-199 116l10 61v0l195 -127z" />
    <glyph glyph-name="uni1EF9.ss05" horiz-adv-x="563" 
d="M272 -232q-45 0 -81 12.5t-62.5 35.5t-42.5 55.5t-20 72.5h70q6 -40 24.5 -65.5t47 -37.5t64.5 -12q51 0 84 22.5t49 66.5t16 108v58v0q-27 -46 -70 -71t-98 -25q-57 0 -100.5 23t-67.5 70.5t-24 121.5v301h70v-293q0 -82 35 -122t99 -40q45 0 80.5 22t56 64.5
t20.5 103.5v265h70v-478q0 -79 -25.5 -137t-74.5 -89.5t-120 -31.5zM336 570q-26 0 -43.5 12t-32.5 23.5t-36 11.5q-16 0 -27.5 -11t-14.5 -34h-43q6 46 29.5 69.5t58.5 23.5q26 0 43 -11.5t32.5 -23.5t36.5 -12q17 0 29 11.5t15 33.5h42q-4 -44 -29 -68.5t-60 -24.5z" />
    <glyph glyph-name="one.ss07" horiz-adv-x="335" 
d="M141 0v623l-111 -25v45l132 57h50v-700h-71zM48 55h257v-55h-257v55z" />
    <glyph glyph-name="three.ss07" horiz-adv-x="594" 
d="M296 -5q-66 0 -118.5 24t-85 70.5t-39.5 114.5h70q9 -64 52 -107t122 -43q77 0 122 42.5t45 118.5q0 77 -43 119.5t-121 42.5h-99v51l238 237l29 -24h-369v59h403v-53l-239 -238l-42 24h80q110 0 171.5 -57.5t61.5 -160.5q0 -67 -29 -116.5t-82 -76.5t-127 -27z" />
    <glyph glyph-name="four.ss07" horiz-adv-x="617" 
d="M399 0v157h-352v53l307 490h79l-307 -482h276v196l66 16v-212h102v-61h-102v-157h-69z" />
    <glyph glyph-name="six.ss07" horiz-adv-x="588" 
d="M295 -12q-75 0 -130.5 32.5t-85.5 87.5t-30 123q0 53 17 102.5t54 103.5l177 263h84l-189 -278l-1 20q25 12 52 19t58 7q72 0 125.5 -30t83 -83t29.5 -124t-31 -126t-86 -86t-127 -31zM294 54q81 0 127.5 48.5t46.5 128.5q0 53 -21 93t-60.5 62t-91.5 22q-53 0 -92 -22
t-60.5 -61.5t-21.5 -92.5q0 -80 47 -129t126 -49z" />
    <glyph glyph-name="nine.ss07" horiz-adv-x="588" 
d="M206 0l190 278v-20q-24 -11 -51.5 -18.5t-58.5 -7.5q-70 0 -124 30t-83.5 83.5t-29.5 123.5q0 71 31 126t85.5 86t126.5 31q77 0 132 -32.5t85 -87.5t30 -123q0 -52 -17 -102t-54 -104l-177 -263h-85zM293 292q52 0 91.5 22t61 62t21.5 92q0 81 -47 129.5t-127 48.5
t-126.5 -48t-46.5 -128q0 -54 21 -94t60 -62t92 -22z" />
    <glyph glyph-name="one.dnom" horiz-adv-x="195" 
d="M95 0v295l-66 -19v36l84 40h39v-352h-57z" />
    <glyph glyph-name="two.dnom" horiz-adv-x="322" 
d="M34 0v40l111 95q29 25 49.5 51.5t20.5 62.5q0 32 -17.5 48t-42.5 16q-28 0 -44.5 -16.5t-20.5 -46.5h-57q3 44 34 75.5t90 31.5q36 0 62.5 -14t41 -38t14.5 -54q0 -42 -24 -73.5t-68 -66.5l-83 -64h181v-47h-247z" />
    <glyph glyph-name="three.dnom" horiz-adv-x="323" 
d="M157 -5q-56 0 -90 26.5t-39 77.5h56q3 -22 13 -35.5t25.5 -19t34.5 -5.5q32 0 51 15.5t19 42.5q0 29 -20.5 44t-52.5 15h-48v39h48q31 0 51 15.5t20 43.5q0 26 -18.5 42t-49.5 16t-48.5 -13.5t-23.5 -36.5h-54q4 28 20 49t44 33.5t66 12.5q52 0 88 -28.5t36 -72.5
q0 -31 -17.5 -51.5t-46.5 -28.5v-2q28 -8 47 -29t19 -54q0 -38 -34.5 -67t-95.5 -29z" />
    <glyph glyph-name="four.dnom" horiz-adv-x="313" 
d="M194 0v68h-174v44l166 236h64v-231h48v-49h-48v-68h-56zM81 117h117v169v0z" />
    <glyph glyph-name="one.numr" horiz-adv-x="195" 
d="M95 352v295l-66 -19v36l84 40h39v-352h-57z" />
    <glyph glyph-name="two.numr" horiz-adv-x="322" 
d="M34 352v40l111 95q29 25 49.5 51.5t20.5 62.5q0 32 -17.5 48t-42.5 16q-28 0 -44.5 -16.5t-20.5 -46.5h-57q3 44 34 75.5t90 31.5q36 0 62.5 -14t41 -38t14.5 -54q0 -42 -24 -73.5t-68 -66.5l-83 -64h181v-47h-247z" />
    <glyph glyph-name="three.numr" horiz-adv-x="323" 
d="M157 347q-56 0 -90 26.5t-39 77.5h56q3 -22 13 -35.5t25.5 -19t34.5 -5.5q32 0 51 15.5t19 42.5q0 29 -20.5 44t-52.5 15h-48v39h48q31 0 51 15.5t20 43.5q0 26 -18.5 42t-49.5 16t-48.5 -13.5t-23.5 -36.5h-54q4 28 20 49t44 33.5t66 12.5q52 0 88 -28.5t36 -72.5
q0 -31 -17.5 -51.5t-46.5 -28.5v-2q28 -8 47 -29t19 -54q0 -38 -34.5 -67t-95.5 -29z" />
    <glyph glyph-name="four.numr" horiz-adv-x="313" 
d="M194 352v68h-174v44l166 236h64v-231h48v-49h-48v-68h-56zM81 469h117v169v0z" />
    <glyph glyph-name="comma.ss01" horiz-adv-x="161" 
d="M30 -97v35q26 0 36 13.5t10 38.5v25h-46v76h81q5 -25 7.5 -46.5t2.5 -39.5q0 -55 -23.5 -78.5t-67.5 -23.5z" />
    <glyph glyph-name="semicolon.ss01" horiz-adv-x="179" 
d="M83 413q-22 0 -36.5 15t-14.5 37t14.5 36.5t36.5 14.5t36.5 -14.5t14.5 -36.5t-14.5 -37t-36.5 -15zM38 -97v35q26 0 36 13.5t10 38.5v25h-46v76h81q5 -25 7.5 -46.5t2.5 -39.5q0 -55 -23.5 -78.5t-67.5 -23.5z" />
    <glyph glyph-name="quotesinglbase.ss01" horiz-adv-x="161" 
d="M30 -97v36q26 0 36 13t10 38v25h-46v76h81q5 -25 7.5 -46.5t2.5 -38.5q0 -56 -23.5 -79.5t-67.5 -23.5z" />
    <glyph glyph-name="quotedblbase.ss01" horiz-adv-x="282" 
d="M151 -97v36q26 0 36 13t10 38v25h-46v76h81q5 -25 7.5 -46.5t2.5 -38.5q0 -56 -23.5 -79.5t-67.5 -23.5zM30 -97v36q26 0 36 13t10 38v25h-46v76h81q5 -25 7.5 -46.5t2.5 -38.5q0 -56 -23.5 -79.5t-67.5 -23.5z" />
    <glyph glyph-name="quotedblleft.ss01" horiz-adv-x="271" 
d="M120 729v-36q-25 0 -35.5 -12.5t-10.5 -38.5v-25h46v-76h-81q-5 25 -7.5 46.5t-2.5 39.5q0 55 24 78.5t67 23.5zM241 729v-36q-25 0 -35.5 -12.5t-10.5 -38.5v-25h46v-76h-81q-5 25 -7.5 46.5t-2.5 39.5q0 55 24 78.5t67 23.5z" />
    <glyph glyph-name="quotedblright.ss01" horiz-adv-x="271" 
d="M151 541v36q26 0 36 13t10 38v25h-46v76h81q5 -25 7.5 -46.5t2.5 -38.5q0 -56 -23.5 -79.5t-67.5 -23.5zM30 541v36q26 0 36 13t10 38v25h-46v76h81q5 -25 7.5 -46.5t2.5 -38.5q0 -56 -23.5 -79.5t-67.5 -23.5z" />
    <glyph glyph-name="quoteleft.ss01" horiz-adv-x="150" 
d="M120 729v-36q-25 0 -35.5 -12.5t-10.5 -38.5v-25h46v-76h-81q-5 25 -7.5 46.5t-2.5 39.5q0 55 24 78.5t67 23.5z" />
    <glyph glyph-name="quoteright.ss01" horiz-adv-x="150" 
d="M30 541v36q26 0 36 13t10 38v25h-46v76h81q5 -25 7.5 -46.5t2.5 -38.5q0 -56 -23.5 -79.5t-67.5 -23.5z" />
    <glyph glyph-name="quotedblleft.ss08" horiz-adv-x="764" 
d="M382 -12q75 0 140.5 28t115.5 78t78 115.5t28 140.5t-28 140.5t-78 115.5t-115.5 78t-140.5 28t-140.5 -28t-115.5 -78t-78 -115.5t-28 -140.5t28 -140.5t78 -115.5t115.5 -78t140.5 -28zM365 473v-46q-33 0 -46 -17t-13 -50v-33h59v-99h-105q-7 32 -10 60t-3 52
q0 48 14 77t40.5 42.5t63.5 13.5zM523 473v-46q-33 0 -46.5 -17t-13.5 -50v-33h60v-99h-105q-7 32 -10 60.5t-3 51.5q0 48 14 77t40.5 42.5t63.5 13.5z" />
    <glyph glyph-name="quotedblright.ss08" horiz-adv-x="764" 
d="M382 712q-75 0 -140.5 -28t-115.5 -78t-78 -115.5t-28 -140.5t28 -140.5t78 -115.5t115.5 -78t140.5 -28t140.5 28t115.5 78t78 115.5t28 140.5t-28 140.5t-78 115.5t-115.5 78t-140.5 28zM399 227v46q33 0 46 17t13 50v33h-59v99h105q7 -32 10 -60.5t3 -51.5
q0 -47 -14 -76.5t-40 -43t-64 -13.5zM241 227v46q33 0 46.5 17t13.5 50v33h-60v99h105q8 -32 10.5 -60.5t2.5 -51.5q0 -47 -14 -76.5t-40 -43t-64 -13.5z" />
    <glyph glyph-name="arrowup.ss08" horiz-adv-x="764" 
d="M382 -12q-75 0 -140.5 28t-115.5 78t-78 115.5t-28 140.5t28 140.5t78 115.5t115.5 78t140.5 28t140.5 -28t115.5 -78t78 -115.5t28 -140.5t-28 -140.5t-78 -115.5t-115.5 -78t-140.5 -28zM356 176h53v271l136 -133l34 35l-177 175h-38l-178 -174l35 -35l135 132v-271z
" />
    <glyph glyph-name="uni2197.ss08" horiz-adv-x="764" 
d="M382 -12q-75 0 -140.5 28t-115.5 78t-78 115.5t-28 140.5t28 140.5t78 115.5t115.5 78t140.5 28t140.5 -28t115.5 -77.5t78 -115.5t28 -141t-28 -140.5t-78 -115.5t-115.5 -78t-140.5 -28zM277 212l196 193v-191h50v248l-27 27h-250v-49h192l-197 -193z" />
    <glyph glyph-name="arrowright.ss08" horiz-adv-x="764" 
d="M382 -12q-75 0 -140.5 28t-115.5 78t-78 115.5t-28 140.5t28 140.5t78 115.5t115.5 78t140.5 28t140.5 -28t115.5 -78t78 -115.5t28 -140.5t-28 -140.5t-78 -115.5t-115.5 -78t-140.5 -28zM381 156l178 175v39l-177 174l-35 -34l137 -134h-278v-51h279l-139 -134z" />
    <glyph glyph-name="uni2198.ss08" horiz-adv-x="764" 
d="M382 712q75 0 140.5 -28t115.5 -78t78 -115.5t28 -140.5t-28 -141t-78 -115.5t-115.5 -77.5t-140.5 -28t-140.5 28t-115.5 78t-78 115.5t-28 140.5t28 140.5t78 115.5t115.5 78t140.5 28zM277 488l-36 -35l197 -193h-192v-49h250l27 27v248h-50v-191z" />
    <glyph glyph-name="arrowdown.ss08" horiz-adv-x="764" 
d="M382 712q75 0 140.5 -28t115.5 -78t78 -115.5t28 -140.5t-28 -140.5t-78 -115.5t-115.5 -78t-140.5 -28t-140.5 28t-115.5 78t-78 115.5t-28 140.5t28 140.5t78 115.5t115.5 78t140.5 28zM356 524v-271l-135 132l-35 -35l178 -174h38l177 175l-34 35l-136 -133v271h-53z
" />
    <glyph glyph-name="uni2199.ss08" horiz-adv-x="764" 
d="M382 712q75 0 140.5 -28t115.5 -78t78 -115.5t28 -140.5t-28 -140.5t-78 -115.5t-115.5 -78t-140.5 -28t-140.5 28t-115.5 77.5t-78 115.5t-28 141t28 140.5t78 115.5t115.5 78t140.5 28zM487 488l-196 -193v191h-50v-248l27 -27h250v49h-192l197 193z" />
    <glyph glyph-name="arrowleft.ss08" horiz-adv-x="764" 
d="M382 -12q-75 0 -140.5 28t-115.5 78t-78 115.5t-28 140.5t28 140.5t78 115.5t115.5 78t140.5 28t140.5 -28t115.5 -78t78 -115.5t28 -140.5t-28 -140.5t-78 -115.5t-115.5 -78t-140.5 -28zM383 156l35 35l-139 134h279v51h-278l137 134l-35 34l-177 -174v-39z" />
    <glyph glyph-name="uni2196.ss08" horiz-adv-x="764" 
d="M382 -12q-75 0 -140.5 28t-115.5 78t-78 115.5t-28 140.5t28 141t78 115.5t115.5 77.5t140.5 28t140.5 -28t115.5 -78t78 -115.5t28 -140.5t-28 -140.5t-78 -115.5t-115.5 -78t-140.5 -28zM487 212l36 35l-197 193h192v49h-250l-27 -27v-248h50v191z" />
    <glyph glyph-name="arrowboth.ss08" horiz-adv-x="764" 
d="M382 -12q-75 0 -140.5 28t-115.5 78t-78 115.5t-28 140.5t28 140.5t78 115.5t115.5 78t140.5 28t140.5 -28t115.5 -77.5t78 -115.5t28 -141t-28 -140.5t-78 -115.5t-115.5 -78t-140.5 -28zM309 168l40 31l-106 126h278l-106 -126l40 -31l135 163v38l-135 163l-40 -31
l106 -126h-278l106 126l-40 31l-135 -163v-38z" />
    <glyph glyph-name="arrowupdn.ss08" horiz-adv-x="764" 
d="M382 -12q-75 0 -140.5 28t-115.5 78t-78 115.5t-28 140.5t28 140.5t78 115.5t115.5 78t140.5 28t140.5 -28t115.5 -78t78 -115.5t28 -140.5t-28 -140.5t-77.5 -115.5t-115.5 -78t-141 -28zM363 145h38l166 133l-31 39l-128 -103v273l128 -104l31 40l-166 133h-38
l-165 -133l31 -40l128 104v-273l-128 103l-31 -39z" />
    <glyph glyph-name="uni030C.alt" 
d="M0 553v36q23 0 32 9.5t9 28.5v22h-40v76h75q5 -25 7.5 -43t2.5 -37q0 -50 -22.5 -71t-63.5 -21z" />
    <glyph glyph-name="uni0308.case" 
d="M46 777q-19 0 -32.5 13.5t-13.5 32.5t13.5 32.5t32.5 13.5t32.5 -13.5t13.5 -32.5t-13.5 -32.5t-32.5 -13.5zM200 777q-19 0 -32.5 13.5t-13.5 32.5t13.5 32.5t32.5 13.5t32 -13.5t13 -32.5t-13 -32.5t-32 -13.5z" />
    <glyph glyph-name="uni0307.case" 
d="M46 767q-19 0 -32.5 13.5t-13.5 32.5t13.5 32.5t32.5 13.5t32.5 -13.5t13.5 -32.5t-13.5 -32.5t-32.5 -13.5z" />
    <glyph glyph-name="gravecomb.case" 
d="M199 743l-199 117l10 61v0l195 -127z" />
    <glyph glyph-name="acutecomb.case" 
d="M7 743l-7 51l196 127v0l9 -61z" />
    <glyph glyph-name="uni030B.case" 
d="M138 755l69 139h63l-84 -139h-48zM0 755l65 139h63l-79 -139h-49z" />
    <glyph glyph-name="uni0302.case" 
d="M0 758v57l134 82l134 -82v-57l-134 84z" />
    <glyph glyph-name="uni030C.case" 
d="M134 757l-134 82v56l134 -83l134 83v-56z" />
    <glyph glyph-name="uni0306.case" 
d="M135 760q-45 0 -75 17t-45 45t-15 61v13h44q0 -38 21.5 -59t69.5 -21t69.5 21t21.5 59h45v-13q0 -33 -15 -61t-45.5 -45t-75.5 -17z" />
    <glyph glyph-name="uni030A.case" 
d="M102 764q-41 0 -71.5 27t-30.5 73q0 47 30.5 73.5t71.5 26.5q43 0 72.5 -26.5t29.5 -73.5q0 -46 -29.5 -73t-72.5 -27zM102 803q25 0 42 16.5t17 44.5q0 29 -17 45t-42 16q-24 0 -41 -16t-17 -45q0 -28 17 -44.5t41 -16.5z" />
    <glyph glyph-name="tildecomb.case" 
d="M197 758q-26 0 -43.5 12t-32.5 23.5t-36 11.5q-16 0 -27.5 -11t-14.5 -34h-43q6 46 29.5 69.5t58.5 23.5q26 0 43 -11.5t32.5 -23.5t36.5 -12q17 0 29 11.5t15 33.5h42q-4 -44 -29 -68.5t-60 -24.5z" />
    <glyph glyph-name="uni0304.case" 
d="M0 800v54h339v-54h-339z" />
    <glyph glyph-name="uni0327.case" 
d="M0 -258v47h86q38 0 55 13t17 38q0 23 -17 35.5t-55 12.5h-46v119h49v-74q39 1 68 -9.5t44.5 -31.5t15.5 -52q0 -30 -14.5 -52t-41 -34t-61.5 -12h-100z" />
    <glyph glyph-name="uni0328.case" 
d="M113 -201q-28 0 -54 9t-42.5 29.5t-16.5 53.5q0 23 10.5 44t34.5 40.5t63 37.5l55 25l19 -38l-60 -29q-35 -17 -49 -35t-14 -38q0 -25 17 -38t45 -13q14 0 31 3.5t33 10.5v-49q-16 -6 -35 -9.5t-37 -3.5z" />
    </font>
</defs>
</svg>
