<?xml version="1.0" standalone="no"?>
<!DOCTYPE svg PUBLIC "-//W3C//DTD SVG 1.1//EN" "http://www.w3.org/Graphics/SVG/1.1/DTD/svg11.dtd" >
<svg xmlns="http://www.w3.org/2000/svg" xmlns:xlink="http://www.w3.org/1999/xlink" version="1.1">
<metadata>
Created by FontForge 20201107 at Wed Jun 14 12:00:55 2023
 By 
Copyright 2014 The DM Sans Project Authors (https://github.com/googlefonts/dm-fonts)
</metadata>
<defs>
<font id="DMSans-BoldItalic" horiz-adv-x="0" >
  <font-face 
    font-family="DM Sans"
    font-weight="700"
    font-style="italic"
    font-stretch="normal"
    units-per-em="1000"
    panose-1="0 0 0 0 0 0 0 0 0 0"
    ascent="800"
    descent="-200"
    x-height="504"
    cap-height="700"
    bbox="-141 -280 1235.41 997"
    underline-thickness="50"
    underline-position="-125"
    slope="-10"
    unicode-range="U+000D-FB02"
  />
<missing-glyph horiz-adv-x="539" 
d="M24 0l124 700h401l-124 -700h-401zM104 57h261l104 586h-261z" />
    <glyph glyph-name="fi" unicode="fi" horiz-adv-x="612" 
d="M45 0l69 391h-69l20 113h69l8 45q11 63 39 100t70 54t95 17h55l-20 -115h-35q-31 0 -47 -12.5t-22 -42.5l-8 -46h317l-90 -504h-135l70 391h-182l-69 -391h-135zM545 574q-37 0 -60.5 22.5t-23.5 54.5q0 33 23.5 55.5t60.5 22.5t60 -22.5t23 -55.5q0 -32 -23 -54.5
t-60 -22.5z" />
    <glyph glyph-name="fl" unicode="fl" horiz-adv-x="639" 
d="M45 0l97 549q11 63 39 100t70 54t95 17h62l-20 -115h-41q-32 0 -48 -12.5t-22 -43.5l-97 -549h-135zM45 391l19 113h314l-20 -113h-313zM394 0l127 720h135l-127 -720h-135z" />
    <glyph glyph-name=".notdef" horiz-adv-x="539" 
d="M24 0l124 700h401l-124 -700h-401zM104 57h261l104 586h-261z" />
    <glyph glyph-name=".null" 
 />
    <glyph glyph-name="nonmarkingreturn" horiz-adv-x="333" 
 />
    <glyph glyph-name="CR" unicode="&#xd;" horiz-adv-x="600" 
 />
    <glyph glyph-name="space" unicode=" " horiz-adv-x="250" 
 />
    <glyph glyph-name="exclam" unicode="!" horiz-adv-x="311" 
d="M85 226l68 474h145l-99 -474h-114zM122 -6q-36 0 -59 22.5t-23 55.5t23 55.5t59 22.5q37 0 60 -22.5t23 -55.5t-23.5 -55.5t-59.5 -22.5z" />
    <glyph glyph-name="quotedbl" unicode="&#x22;" horiz-adv-x="393" 
d="M261 537l63 218h117l-89 -218h-91zM90 537l64 218h116l-88 -218h-92z" />
    <glyph glyph-name="numbersign" unicode="#" horiz-adv-x="857" 
d="M402 0l280 726h127l-280 -726h-127zM93 0l280 726h127l-280 -726h-127zM18 171l21 122h731l-22 -122h-730zM118 437l21 121h732l-21 -121h-732z" />
    <glyph glyph-name="dollar" unicode="$" horiz-adv-x="606" 
d="M201 -87l155 879h66l-155 -879h-66zM268 -12q-76 0 -131.5 26t-82.5 76t-16 121h143q-5 -33 6.5 -58t37.5 -38.5t61 -13.5t61.5 12.5t41 34t16.5 51.5q1 20 -7.5 36t-23.5 28t-36 21.5t-45 18t-50 17.5q-71 24 -107 67t-33 105q3 67 39 116.5t96.5 76.5t137.5 27
q70 0 119.5 -24t74 -69.5t16.5 -109.5h-145q5 27 -5.5 47t-31.5 31t-51 11q-30 1 -53.5 -10t-36.5 -30t-15 -45q-1 -19 6 -32.5t20 -24t31.5 -19t40.5 -16.5t46 -17q34 -12 63.5 -28.5t52 -39t34 -53t9.5 -69.5q-3 -67 -39 -117.5t-99 -79.5t-145 -29z" />
    <glyph glyph-name="percent" unicode="%" horiz-adv-x="903" 
d="M143 0l517 700h131l-516 -700h-132zM644 -12q-44 0 -78.5 18.5t-53.5 53.5t-17 82q3 59 30.5 105t73.5 72.5t101 26.5q45 0 79.5 -18.5t53 -53t15.5 -82.5q-2 -58 -29.5 -104t-73 -73t-101.5 -27zM238 353q-44 0 -78.5 19t-53.5 53.5t-16 82.5q2 59 30 104.5t73.5 72.5
t101.5 27q44 0 78 -19t52.5 -53t16.5 -83q-2 -58 -30 -104t-73 -73t-101 -27zM657 80q23 0 41.5 14t30.5 37.5t13 53.5q2 35 -13.5 52.5t-41.5 17.5q-22 0 -41 -13.5t-31 -37t-13 -54.5q-2 -35 13.5 -52.5t41.5 -17.5zM250 445q24 0 42.5 14t30.5 37.5t13 53.5
q2 35 -13.5 53t-41.5 18q-23 0 -42 -14t-31 -37.5t-13 -54.5q-2 -35 14 -52.5t41 -17.5z" />
    <glyph glyph-name="ampersand" unicode="&#x26;" horiz-adv-x="784" 
d="M555 0l-313 378q-32 40 -46 73t-12 68q2 57 33 100t83.5 68t120.5 25q61 0 102 -21.5t60 -59.5t10 -88h-129q6 31 -12 49.5t-50 18.5q-37 0 -61.5 -22t-26.5 -56q-1 -22 10 -46t33 -53l359 -434h-161zM250 -11q-71 0 -121.5 23t-76 65.5t-23.5 99.5q3 59 32.5 107.5
t81.5 84.5t119 57l53 16l46 -83l-49 -14q-66 -21 -105 -59.5t-41 -89.5q-1 -28 11.5 -49.5t37 -34t60.5 -12.5q52 0 96.5 21.5t89.5 67.5q24 24 49 55.5t50 71.5l34 48h137l-49 -73q-37 -56 -72.5 -101t-72.5 -79q-66 -63 -136 -92.5t-151 -29.5z" />
    <glyph glyph-name="quotesingle" unicode="'" horiz-adv-x="203" 
d="M100 537l36 218h116l-61 -218h-91z" />
    <glyph glyph-name="parenleft" unicode="(" horiz-adv-x="406" 
d="M169 -145q-38 47 -66 108.5t-41.5 133t-9.5 149.5q4 107 40.5 209.5t99.5 194t145 161.5h135l-2 -13q-85 -76 -147.5 -165t-97.5 -183.5t-39 -191.5q-4 -71 9 -140.5t41 -132.5t69 -117l-2 -13h-134z" />
    <glyph glyph-name="parenright" unicode=")" horiz-adv-x="406" 
d="M265 811q39 -47 67 -108.5t41.5 -132.5t8.5 -150q-4 -107 -40.5 -209.5t-99 -193.5t-145.5 -162h-134l1 13q86 77 148.5 165.5t97.5 183t39 191.5q3 72 -10 141t-40.5 132.5t-69.5 116.5l3 13h133z" />
    <glyph glyph-name="asterisk" unicode="*" horiz-adv-x="513" 
d="M230 360l43 140l-124 -89l-35 89l137 50l-119 49l62 84l97 -87l5 141h97l-46 -141l128 87l32 -83l-139 -51l121 -50l-64 -87l-95 88l-4 -140h-96z" />
    <glyph glyph-name="plus" unicode="+" horiz-adv-x="579" 
d="M199 61l80 456h115l-80 -456h-115zM42 233l20 113h488l-19 -113h-489z" />
    <glyph glyph-name="comma" unicode="," horiz-adv-x="245" 
d="M-43 -117l101 253h130l-143 -253h-88z" />
    <glyph glyph-name="hyphen" unicode="-" horiz-adv-x="532" 
d="M73 233l20 113h422l-20 -113h-422z" />
    <glyph glyph-name="period" unicode="." horiz-adv-x="255" 
d="M95 -6q-36 0 -59 22.5t-23 55.5t23 55.5t59 22.5t59 -22.5t23 -55.5t-23 -55.5t-59 -22.5z" />
    <glyph glyph-name="slash" unicode="/" horiz-adv-x="427" 
d="M-41 -114l407 893h131l-408 -893h-130z" />
    <glyph glyph-name="zero" unicode="0" horiz-adv-x="706" 
d="M309 -12q-84 0 -142 37t-86 103.5t-23 155.5q3 91 32.5 169t80 136t117 90.5t144.5 32.5q85 0 142.5 -37t85.5 -103.5t23 -155.5q-4 -91 -33 -169t-79.5 -136t-117 -90.5t-144.5 -32.5zM328 109q43 0 81 22.5t67.5 62.5t47.5 93.5t20 115.5q3 59 -12 100.5t-45 64
t-74 22.5q-43 0 -81 -22.5t-68 -62t-47.5 -93t-19.5 -115.5q-4 -58 11.5 -100.5t46 -65t73.5 -22.5z" />
    <glyph glyph-name="one" unicode="1" horiz-adv-x="364" 
d="M111 0l96 545l-131 -36l20 111l196 80h82l-124 -700h-139z" />
    <glyph glyph-name="two" unicode="2" horiz-adv-x="586" 
d="M15 0l17 99q84 59 155.5 113.5t125 106t84.5 99.5t33 93q2 23 -6 43t-27 32t-50 12q-35 0 -61 -16t-43 -42.5t-22 -59.5h-131q16 76 55.5 128t96.5 78t123 26q67 0 113.5 -24t69.5 -66t20 -96q-2 -47 -22 -92t-54 -88t-77.5 -83.5t-92.5 -78.5t-100 -74h301l-20 -110
h-488z" />
    <glyph glyph-name="three" unicode="3" horiz-adv-x="603" 
d="M254 -12q-75 0 -126.5 28t-74 79.5t-11.5 122.5h132q-3 -38 6.5 -64t33 -39.5t59.5 -13.5q37 0 66 15.5t46 41.5t18 60q1 30 -13 51t-40.5 31.5t-63.5 10.5h-52l19 111h53q57 0 94 28t39 76q2 33 -19 52.5t-61 19.5q-48 0 -79.5 -28t-42.5 -69h-131q15 66 52.5 113.5
t94 72.5t125.5 25q67 0 111.5 -22t66 -59t19.5 -84q-2 -42 -20.5 -78t-50 -62t-72.5 -38q34 -7 57.5 -26.5t35.5 -49.5t10 -68q-2 -67 -39.5 -120.5t-99.5 -85t-142 -31.5z" />
    <glyph glyph-name="four" unicode="4" horiz-adv-x="651" 
d="M345 0l23 127h-344l18 107l409 466h152l-80 -456h91l-21 -117h-91l-22 -127h-135zM188 244h208l55 307v0z" />
    <glyph glyph-name="five" unicode="5" horiz-adv-x="623" 
d="M274 -12q-71 0 -121.5 24.5t-76 71t-21.5 112.5h132q0 -41 29 -67t77 -26q41 0 73.5 20t52 55t21.5 78q2 34 -9.5 59t-34 39.5t-54.5 14.5q-43 0 -77 -20.5t-52 -49.5h-130l128 401h393l-21 -118h-293l-56 -156q26 23 64.5 38t84.5 15q51 0 87.5 -17t59.5 -46t33.5 -66
t8.5 -77q-3 -82 -43.5 -146.5t-107 -101.5t-147.5 -37z" />
    <glyph glyph-name="six" unicode="6" horiz-adv-x="633" 
d="M289 -12q-67 0 -112 22t-72 60t-37.5 87t-8.5 102q4 95 30.5 177.5t73 144.5t108.5 96.5t135 34.5t119 -28.5t66 -74.5t15 -99h-125q-1 44 -24.5 67.5t-66.5 23.5q-41 0 -77 -24.5t-63.5 -74t-44.5 -123.5q0 -3 -0.5 -6t-1.5 -6q20 26 47.5 45t61.5 30t71 11
q56 0 99.5 -26t67.5 -72t21 -106q-2 -54 -24.5 -101.5t-61 -83.5t-89 -56t-107.5 -20zM300 104q39 0 70 16.5t49.5 46t20.5 66.5q1 31 -11 54.5t-36 37.5t-57 14q-38 0 -69.5 -17t-50.5 -46.5t-21 -66.5q-1 -30 11.5 -54t37 -37.5t56.5 -13.5z" />
    <glyph glyph-name="seven" unicode="7" horiz-adv-x="537" 
d="M64 0l360 585h-336l20 115h478l-17 -95l-363 -605h-142z" />
    <glyph glyph-name="eight" unicode="8" horiz-adv-x="629" 
d="M271 -12q-66 0 -117.5 22.5t-79.5 65t-25 102.5q2 45 21.5 84t53.5 69t79 46q-39 19 -60.5 52.5t-19.5 77.5q3 59 39 105t97 73t138 27q70 0 115.5 -22t67.5 -60t20 -86q-2 -42 -21 -75t-48 -56t-61 -36q48 -20 71 -61t20 -95q-2 -70 -42.5 -122.5t-105.5 -81.5t-142 -29
zM289 101q40 0 71 15.5t49.5 43t19.5 61.5q3 45 -25.5 70.5t-78.5 25.5q-38 0 -70 -15.5t-51 -42.5t-21 -63q-2 -41 26 -68t80 -27zM346 416q30 0 57 12.5t43.5 36.5t17.5 55q1 28 -10 46t-31.5 27t-47.5 9q-33 0 -59.5 -12.5t-43 -36t-17.5 -53.5q-1 -39 24 -61.5t67 -22.5
z" />
    <glyph glyph-name="nine" unicode="9" horiz-adv-x="633" 
d="M261 -12q-73 0 -118.5 28.5t-65.5 74.5t-16 99h125q1 -44 24.5 -67.5t67.5 -23.5q31 0 57 12.5t47 35t36.5 52t27 64t19.5 70.5q-20 -25 -48 -44.5t-61 -30.5t-71 -11q-56 0 -100 26.5t-68 72.5t-20 106q2 55 24.5 102.5t61 83t88.5 55t107 19.5q67 0 112.5 -22t72.5 -60
t37.5 -87t7.5 -102q-3 -95 -30 -177.5t-73 -144.5t-107.5 -96.5t-136.5 -34.5zM331 361q39 0 70 17t50.5 46.5t20.5 66.5q2 31 -10.5 54.5t-37 37t-57.5 13.5q-38 0 -69 -16.5t-49.5 -45.5t-20.5 -67q-1 -30 10.5 -54t35 -38t57.5 -14z" />
    <glyph glyph-name="colon" unicode=":" horiz-adv-x="257" 
d="M95 -7q-36 0 -59 22.5t-23 55.5t23 55.5t59 22.5t59 -22.5t23 -55.5t-23 -55.5t-59 -22.5zM160 360q-36 0 -59 22.5t-23 55.5t23 55.5t59 22.5t59 -22.5t23 -55.5t-23 -55.5t-59 -22.5z" />
    <glyph glyph-name="semicolon" unicode=";" horiz-adv-x="264" 
d="M156 360q-36 0 -59 22.5t-23 55.5t23 55.5t59 22.5t59 -22.5t23 -55.5t-23 -55.5t-59 -22.5zM-35 -117l101 253h130l-143 -253h-88z" />
    <glyph glyph-name="less" unicode="&#x3c;" horiz-adv-x="579" 
d="M544 575l-265 -227l181 -223h-170l-180 225v0l259 225h175z" />
    <glyph glyph-name="equal" unicode="=" horiz-adv-x="579" 
d="M91 343l21 118h429l-21 -118h-429zM52 119l21 118h428l-21 -118h-428z" />
    <glyph glyph-name="greater" unicode="&#x3e;" horiz-adv-x="579" 
d="M70 125l265 227l-182 223h171l180 -225v0l-259 -225h-175z" />
    <glyph glyph-name="question" unicode="?" horiz-adv-x="541" 
d="M139 226l24 161h47q41 0 77.5 6t64 20t43.5 39t18 64q2 26 -8 45t-30 29.5t-49 10.5q-32 0 -57.5 -12.5t-42 -34t-21.5 -51.5h-128q11 60 47 107t93.5 74.5t130.5 27.5q62 0 107.5 -22.5t69.5 -63.5t21 -98q-3 -74 -39 -125t-96 -77.5t-137 -27.5l-16 -72h-119zM174 -6
q-36 0 -59.5 22.5t-23.5 55.5t23.5 55.5t59.5 22.5t59 -22.5t23 -55.5t-23 -55.5t-59 -22.5z" />
    <glyph glyph-name="at" unicode="@" horiz-adv-x="1035" 
d="M434 -214q-110 0 -193.5 43t-129.5 123t-46 187q0 111 38 205t107 164.5t164 109t208 38.5q116 0 200.5 -44t131 -122t46.5 -181q0 -61 -15 -117t-45 -100.5t-73.5 -70.5t-100.5 -26q-69 0 -100.5 40t-23.5 106l3 32l20 -54q-24 -58 -75.5 -92t-115.5 -34
q-73 0 -115 45.5t-42 123.5q0 55 16.5 105t47.5 89t73.5 62t95.5 23q57 0 90 -28.5t39 -81.5l-21 -15l21 117h111l-47 -266q-6 -37 2 -60.5t41 -23.5q28 0 48.5 20t34.5 53t20.5 72t6.5 76q0 81 -34.5 139.5t-99 90t-153.5 31.5q-88 0 -161.5 -32t-127 -89t-82.5 -132
t-29 -162q0 -86 33.5 -147t96.5 -92.5t151 -31.5q46 0 90.5 9t81.5 26l21 -88q-47 -20 -100 -30t-109 -10zM477 92q34 0 62 19.5t46 52.5t20 75q2 30 -7 53.5t-28.5 37t-48.5 13.5t-52.5 -13t-39.5 -35.5t-25 -51t-9 -59.5q0 -41 20.5 -66.5t61.5 -25.5z" />
    <glyph glyph-name="A" unicode="A" horiz-adv-x="709" 
d="M-22 0l379 700h154l131 -700h-143l-92 549v0l-287 -549h-142zM111 159l53 104h369l17 -104h-439z" />
    <glyph glyph-name="B" unicode="B" horiz-adv-x="639" 
d="M25 0l123 700h288q66 0 110 -19.5t65.5 -55.5t18.5 -84q-2 -53 -29 -94t-70.5 -65.5t-97.5 -28.5l17 11q44 -2 75.5 -22t48 -53t14.5 -75q-3 -64 -38.5 -112.5t-95 -75t-133.5 -26.5h-296zM179 108h140q41 0 70 14.5t46 40.5t18 60q2 39 -24.5 62t-76.5 23h-138zM232 407
h129q57 0 91 29t36 79q1 25 -9 42.5t-31.5 27t-54.5 8.5h-129z" />
    <glyph glyph-name="C" unicode="C" horiz-adv-x="739" 
d="M339 -12q-94 0 -158.5 38t-95.5 105.5t-27 157.5q4 91 36 168t86.5 134.5t127 89t157.5 31.5q126 0 196.5 -63t70.5 -178h-149q-1 56 -37 87.5t-103 31.5q-52 0 -95.5 -21.5t-76.5 -60.5t-52 -92t-22 -116q-3 -60 15.5 -102.5t56 -65.5t91.5 -23q67 0 112 29t67 83h149
q-26 -74 -76.5 -126t-120 -79.5t-152.5 -27.5z" />
    <glyph glyph-name="D" unicode="D" horiz-adv-x="711" 
d="M25 0l123 700h235q109 0 177.5 -37t99 -104.5t26.5 -160.5q-4 -88 -35 -161t-86.5 -126.5t-132.5 -82t-172 -28.5h-235zM180 116h93q88 0 147.5 33.5t91.5 95t35 145.5q3 65 -15.5 108t-62 65t-113.5 22h-93z" />
    <glyph glyph-name="E" unicode="E" horiz-adv-x="566" 
d="M25 0l123 700h443l-19 -107h-308l-32 -186h278l-19 -104h-278l-34 -196h307l-19 -107h-442z" />
    <glyph glyph-name="F" unicode="F" horiz-adv-x="545" 
d="M25 0l123 700h444l-19 -107h-309l-33 -190h245l-19 -104h-245l-52 -299h-135z" />
    <glyph glyph-name="G" unicode="G" horiz-adv-x="781" 
d="M332 -12q-89 0 -151.5 40t-94 110t-26.5 159q3 92 35.5 168t88.5 131t131 85.5t164 30.5q124 0 196.5 -59t77.5 -164h-151q-7 46 -43 72.5t-100 26.5q-75 0 -132.5 -35.5t-91 -99t-36.5 -148.5q-4 -61 15 -105.5t58 -68t95 -23.5q61 0 106.5 22.5t75.5 63t45 92.5h-172
l18 101h308l-69 -387h-123l4 89v0q-27 -33 -60.5 -55.5t-74.5 -34t-93 -11.5z" />
    <glyph glyph-name="H" unicode="H" horiz-adv-x="714" 
d="M466 0l124 700h135l-124 -700h-135zM25 0l123 700h135l-123 -700h-135zM194 304l20 107h347l-19 -107h-348z" />
    <glyph glyph-name="I" unicode="I" horiz-adv-x="273" 
d="M25 0l123 700h135l-123 -700h-135z" />
    <glyph glyph-name="J" unicode="J" horiz-adv-x="536" 
d="M207 -12q-67 0 -113 26t-65.5 76t-6.5 122h135q-6 -32 -1 -55t22.5 -35.5t46.5 -12.5q28 0 48.5 11.5t33 32t17.5 48.5l87 499h135l-87 -499q-18 -102 -86.5 -157.5t-165.5 -55.5z" />
    <glyph glyph-name="K" unicode="K" horiz-adv-x="654" 
d="M25 0l123 700h135l-48 -277l302 277h166l-306 -277l190 -423h-160l-142 322l-81 -74l-44 -248h-135z" />
    <glyph glyph-name="L" unicode="L" horiz-adv-x="559" 
d="M25 0l123 700h135l-104 -595h307l-19 -105h-442z" />
    <glyph glyph-name="M" unicode="M" horiz-adv-x="887" 
d="M25 0l124 700h161l137 -437v0l288 437h162l-124 -700h-135l83 470v0l-250 -372h-107l-121 372v0l-83 -470h-135z" />
    <glyph glyph-name="N" unicode="N" horiz-adv-x="730" 
d="M25 0l123 700h136l235 -487v0l86 487h135l-124 -700h-134l-236 487v0l-86 -487h-135z" />
    <glyph glyph-name="O" unicode="O" horiz-adv-x="793" 
d="M354 -12q-91 0 -159 41t-104 112.5t-31 164.5q3 85 36.5 159t89.5 129.5t130 86.5t158 31q91 0 159 -41t103.5 -112.5t31.5 -163.5q-4 -86 -37.5 -160t-89.5 -129.5t-129.5 -86.5t-157.5 -31zM372 109q52 0 97.5 21t80.5 58.5t55.5 88t23.5 110.5q3 62 -16 107.5
t-58.5 70.5t-98.5 25q-52 0 -97.5 -20.5t-80.5 -58t-56 -87.5t-23 -110q-4 -62 16 -108t60 -71.5t97 -25.5z" />
    <glyph glyph-name="P" unicode="P" horiz-adv-x="617" 
d="M25 0l123 700h262q78 0 126.5 -26.5t71 -71t19.5 -98.5q-3 -72 -40 -126t-101.5 -84t-151.5 -30h-127l-47 -264h-135zM226 373h119q67 0 104 32.5t39 90.5q2 44 -22.5 69t-82.5 25h-119z" />
    <glyph glyph-name="Q" unicode="Q" horiz-adv-x="793" 
d="M490 -110l-158 402h146l158 -402h-146zM354 -12q-91 0 -159 41t-104 112.5t-31 164.5q3 85 36.5 159t89.5 129.5t130 86.5t158 31q91 0 159 -41t103.5 -112.5t31.5 -163.5q-4 -86 -37.5 -160t-89.5 -129.5t-129.5 -86.5t-157.5 -31zM372 109q52 0 97.5 21t80.5 58.5
t55.5 88t23.5 110.5q3 62 -16 107.5t-58.5 70.5t-98.5 25q-52 0 -97.5 -20.5t-80.5 -58t-56 -87.5t-23 -110q-4 -62 16 -108t60 -71.5t97 -25.5z" />
    <glyph glyph-name="R" unicode="R" horiz-adv-x="631" 
d="M25 0l123 700h259q77 0 126 -26.5t71 -70t20 -96.5q-3 -69 -39.5 -121.5t-101 -82t-150.5 -29.5h-125l-48 -274h-135zM394 0l-90 308h141l97 -308h-148zM226 372h118q63 0 101 33t40 90q2 41 -22.5 66.5t-80.5 25.5h-118z" />
    <glyph glyph-name="S" unicode="S" horiz-adv-x="606" 
d="M268 -12q-76 0 -131.5 26t-82.5 76t-16 121h143q-5 -33 6.5 -58t37.5 -38.5t61 -13.5t61.5 12.5t41 34t16.5 51.5q1 20 -7.5 36t-23.5 28t-36 21.5t-45 18t-50 17.5q-71 24 -107 67t-33 105q3 67 39 116.5t96.5 76.5t137.5 27q70 0 119.5 -24t74 -69.5t16.5 -109.5h-145
q5 27 -5.5 47t-31.5 31t-51 11q-30 1 -53.5 -10t-36.5 -30t-15 -45q-1 -19 6 -32.5t20 -24t31.5 -19t40.5 -16.5t46 -17q34 -12 63.5 -28.5t52 -39t34 -53t9.5 -69.5q-3 -67 -39 -117.5t-99 -79.5t-145 -29z" />
    <glyph glyph-name="T" unicode="T" horiz-adv-x="598" 
d="M187 0l105 593h-205l19 107h544l-19 -107h-205l-104 -593h-135z" />
    <glyph glyph-name="U" unicode="U" horiz-adv-x="685" 
d="M294 -12q-84 0 -140.5 33t-79.5 96.5t-7 152.5l75 430h135l-76 -431q-8 -49 1.5 -84.5t38.5 -54t77 -18.5q46 0 81 17.5t59 52.5t33 87l76 431h135l-76 -430q-17 -96 -66 -158.5t-118 -93t-148 -30.5z" />
    <glyph glyph-name="V" unicode="V" horiz-adv-x="706" 
d="M225 0l-131 700h145l94 -561v0l293 561h144l-379 -700h-166z" />
    <glyph glyph-name="W" unicode="W" horiz-adv-x="1017" 
d="M164 0l-59 700h144l25 -546v0l241 546h150l42 -545v0l219 545h145l-312 -700h-161l-45 509v0l-228 -509h-161z" />
    <glyph glyph-name="X" unicode="X" horiz-adv-x="670" 
d="M-11 0l283 355l-162 345h156l112 -239v0l181 239h153l-281 -351l164 -349h-157l-111 242v0l-185 -242h-153z" />
    <glyph glyph-name="Y" unicode="Y" horiz-adv-x="635" 
d="M206 0l44 246l-157 454h154l100 -336l-16 3l218 333h152l-316 -454l-44 -246h-135z" />
    <glyph glyph-name="Z" unicode="Z" horiz-adv-x="578" 
d="M4 0l19 104l407 484h-320l20 112h476l-18 -104l-410 -484h326l-20 -112h-480z" />
    <glyph glyph-name="bracketleft" unicode="[" horiz-adv-x="378" 
d="M-6 -174l174 985h253l-20 -110h-126l-135 -764h127l-20 -111h-253z" />
    <glyph glyph-name="backslash" unicode="\" horiz-adv-x="742" 
d="M655 -114h-131l-408 893h131z" />
    <glyph glyph-name="bracketright" unicode="]" horiz-adv-x="378" 
d="M407 811l-173 -984h-253l19 110h126l135 764h-126l19 110h253z" />
    <glyph glyph-name="asciicircum" unicode="^" horiz-adv-x="677" 
d="M26 200l327 500h130l150 -500h-137l-105 348v0l-229 -348h-136z" />
    <glyph glyph-name="underscore" unicode="_" horiz-adv-x="682" 
d="M3 -168l22 129h572l-22 -129h-572z" />
    <glyph glyph-name="grave" unicode="`" horiz-adv-x="235" 
d="M274 544l-202 112l33 102v0l197 -125z" />
    <glyph glyph-name="a" unicode="a" horiz-adv-x="592" 
d="M190 -12q-58 0 -93.5 18.5t-52 50t-14.5 69.5q2 52 32 90t84.5 59t127.5 21h124q7 37 1.5 61.5t-24.5 36.5t-54 12q-37 0 -66.5 -16.5t-42.5 -50.5h-131q15 54 52 93.5t90.5 61.5t117.5 22q71 0 118.5 -24.5t68 -69.5t8.5 -110l-55 -312h-118l2 76v0q-14 -19 -32 -35.5
t-40 -28t-47.5 -18t-55.5 -6.5zM240 92q25 0 48 9.5t41 26t30.5 38t18.5 45.5v2h-103q-30 0 -52 -8.5t-34 -24t-13 -36.5q-2 -25 16 -38.5t48 -13.5z" />
    <glyph glyph-name="b" unicode="b" horiz-adv-x="651" 
d="M318 -12q-38 0 -67.5 10.5t-50 28.5t-32.5 38v0l-27 -65h-120l127 720h135l-49 -280q29 34 72 55t99 21q63 0 108.5 -30.5t69.5 -82t20 -117.5q-2 -62 -25 -116t-62 -95t-89.5 -64t-108.5 -23zM308 106q43 0 77.5 21t55.5 58t23 84q2 37 -11 66t-39 46t-62 17
q-43 0 -77.5 -21.5t-55.5 -59t-24 -85.5q-2 -37 11.5 -65.5t39.5 -44.5t62 -16z" />
    <glyph glyph-name="c" unicode="c" horiz-adv-x="609" 
d="M265 -12q-69 0 -119.5 29t-76 80t-22.5 118q3 64 27.5 118.5t66.5 95.5t97 64t119 23q97 0 155 -52t58 -144h-142q-1 38 -26.5 59t-64.5 21q-41 0 -74.5 -22.5t-53.5 -61.5t-23 -89q-1 -29 5 -52t19 -39t31.5 -24.5t42.5 -8.5q27 0 50.5 9.5t42 27.5t27.5 43h143
q-22 -58 -63.5 -102t-97.5 -68.5t-121 -24.5z" />
    <glyph glyph-name="d" unicode="d" horiz-adv-x="650" 
d="M241 -12q-62 0 -106.5 30.5t-67 83t-19.5 118.5q3 64 25.5 117.5t61 93.5t88.5 62.5t108 22.5q59 0 96 -21.5t55 -55.5l49 281h135l-126 -720h-120l-3 69v0q-18 -21 -43 -40t-58 -30t-75 -11zM297 106q43 0 78 22.5t56.5 60.5t23.5 85q2 38 -11 65.5t-38.5 43t-61.5 15.5
q-43 0 -77.5 -21.5t-55.5 -58.5t-23 -84q-2 -37 10.5 -66t37.5 -45.5t61 -16.5z" />
    <glyph glyph-name="e" unicode="e" horiz-adv-x="604" 
d="M263 -12q-69 0 -118.5 28t-75 79t-21.5 119q2 63 25.5 117.5t64.5 96t96 65t122 23.5q68 0 116 -28t72 -76t21 -111q0 -21 -4.5 -42.5t-9.5 -39.5h-408l14 82h274q4 34 -7 57.5t-33.5 35.5t-52.5 12q-35 0 -66.5 -15.5t-53.5 -47.5t-31 -81l-5 -29q-7 -39 2.5 -69.5
t34.5 -48t62 -17.5q38 0 65 16t44 41h138q-23 -47 -62.5 -85t-91 -60t-111.5 -22z" />
    <glyph glyph-name="f" unicode="f" horiz-adv-x="372" 
d="M45 0l97 549q11 63 39 100t70 54t95 17h62l-20 -115h-41q-32 0 -48 -12.5t-22 -43.5l-97 -549h-135zM45 391l19 113h314l-20 -113h-313z" />
    <glyph glyph-name="g" unicode="g" horiz-adv-x="567" 
d="M184 -232q-67 0 -116 16t-74.5 48t-23.5 80q2 41 24.5 75t63.5 61t97 47l40 -67q-52 -16 -75 -40.5t-24 -52.5q-1 -21 11.5 -36t37 -22t55.5 -7q50 0 84 19t35 57q2 24 -15 40t-69 20q-46 3 -83.5 10.5t-66 18t-48 23.5t-31.5 27l4 23l125 112l90 -31l-146 -123l50 69
q10 -7 21.5 -13t27 -10.5t38.5 -8.5t57 -7q63 -5 101.5 -22.5t55.5 -46.5t14 -70q-2 -54 -34.5 -97t-90.5 -67.5t-135 -24.5zM249 149q-57 0 -96.5 20.5t-59 56.5t-17.5 81q3 59 34.5 106t85 75t118.5 28q58 0 97.5 -21.5t58.5 -57t16 -80.5q-2 -58 -33.5 -105.5t-84.5 -75
t-119 -27.5zM267 251q44 0 73 25.5t31 67.5q2 34 -18.5 51t-56.5 17q-44 0 -73.5 -25.5t-31.5 -67.5q-2 -33 19.5 -50.5t56.5 -17.5zM379 409l-6 95h208l-15 -81z" />
    <glyph glyph-name="h" unicode="h" horiz-adv-x="619" 
d="M22 0l126 720h135l-51 -291v0q32 39 78 63t101 24q62 0 101 -26.5t52.5 -76.5t0.5 -124l-51 -289h-134l48 277q11 60 -9 92.5t-74 32.5q-33 0 -62.5 -16t-50 -46.5t-28.5 -72.5l-47 -267h-135z" />
    <glyph glyph-name="i" unicode="i" horiz-adv-x="276" 
d="M26 0l89 504h135l-89 -504h-135zM208 570q-37 0 -60 22.5t-23 54.5q0 34 23 56t60 22t60.5 -22t23.5 -56q0 -32 -24 -54.5t-60 -22.5z" />
    <glyph glyph-name="j" unicode="j" horiz-adv-x="289" 
d="M-112 -220l20 115h41q32 0 47.5 13t20.5 42l98 554h135l-98 -553q-11 -62 -39 -99.5t-69.5 -54.5t-95.5 -17h-60zM209 570q-37 0 -60.5 22.5t-23.5 54.5q0 34 23.5 56t60.5 22q36 0 59.5 -22t23.5 -56q0 -32 -23.5 -54.5t-59.5 -22.5z" />
    <glyph glyph-name="k" unicode="k" horiz-adv-x="586" 
d="M366 0l-178 280l233 224h165l-289 -262l10 76l220 -318h-161zM22 0l127 720h135l-127 -720h-135z" />
    <glyph glyph-name="l" unicode="l" horiz-adv-x="268" 
d="M22 0l127 720h135l-127 -720h-135z" />
    <glyph glyph-name="m" unicode="m" horiz-adv-x="934" 
d="M22 0l88 504h119l-1 -69v0q29 37 70 59t91 22q37 0 66.5 -10t50 -29.5t31.5 -49.5v0q34 41 81 65t100 24q64 0 104.5 -26.5t56 -76.5t2.5 -123l-51 -290h-135l49 278q11 60 -9 92t-67 32q-29 0 -54 -14t-43.5 -41t-26.5 -66l-51 -281h-134l49 278q11 60 -9 92t-67 32
q-30 0 -56.5 -16t-45 -46t-26.5 -72l-47 -268h-135z" />
    <glyph glyph-name="n" unicode="n" horiz-adv-x="617" 
d="M22 0l88 504h119l-2 -80v0q30 42 76.5 67t104.5 25q65 0 103 -28t51.5 -78t1.5 -119l-52 -291h-134l49 278q10 59 -9 91.5t-73 32.5q-34 0 -62.5 -15.5t-49 -44.5t-28.5 -70l-48 -272h-135z" />
    <glyph glyph-name="o" unicode="o" horiz-adv-x="614" 
d="M265 -12q-68 0 -118 30.5t-76 83.5t-22 121q2 62 26 115.5t64.5 93t93.5 62t115 22.5q68 0 118 -30t76.5 -82.5t23.5 -121.5q-3 -63 -27 -116.5t-65 -93.5t-94 -62t-115 -22zM283 105q40 0 71.5 21.5t51 60.5t21.5 90q3 39 -9 66.5t-34.5 41.5t-52.5 14q-39 0 -70.5 -22
t-51 -60.5t-22.5 -89.5q-2 -39 10 -66.5t34.5 -41.5t51.5 -14z" />
    <glyph glyph-name="p" unicode="p" horiz-adv-x="652" 
d="M-17 -220l128 724h120l2 -70v0q20 24 45 42.5t57 29t70 10.5q64 0 109.5 -30.5t69 -82.5t20.5 -118q-3 -61 -26 -115.5t-62 -95t-89.5 -63.5t-108.5 -23q-36 0 -65.5 10t-50.5 27.5t-34 40.5l-50 -286h-135zM308 106q43 0 77.5 21t55.5 58t23 84q3 37 -10.5 66t-39 46
t-62.5 17q-43 0 -77.5 -21.5t-55.5 -59t-24 -85.5q-2 -37 11.5 -65.5t39.5 -44.5t62 -16z" />
    <glyph glyph-name="q" unicode="q" horiz-adv-x="652" 
d="M367 -220l50 290q-29 -36 -72 -59t-101 -23q-63 0 -108 30.5t-68 83.5t-20 119q3 63 26 116.5t61.5 93.5t88.5 62.5t106 22.5q41 0 70.5 -10.5t50 -28t31.5 -39.5v0l27 66h120l-127 -724h-135zM297 106q43 0 78 22.5t56.5 61t23.5 84.5q2 38 -11 65.5t-38.5 43
t-61.5 15.5q-43 0 -77.5 -21.5t-55.5 -58.5t-23 -84q-2 -37 10.5 -66t37.5 -45.5t61 -16.5z" />
    <glyph glyph-name="r" unicode="r" horiz-adv-x="410" 
d="M22 0l88 504h121l-3 -91v0q24 32 55.5 54.5t69.5 35.5t80 13l-24 -143h-47q-30 0 -56.5 -6.5t-48 -22t-36.5 -41.5t-22 -65l-42 -238h-135z" />
    <glyph glyph-name="s" unicode="s" horiz-adv-x="537" 
d="M230 -12q-70 0 -118 23t-70.5 63t-17.5 90h134q-1 -21 9 -38t30 -26.5t50 -9.5q27 0 46 8t29.5 22t11.5 31q1 18 -9.5 28.5t-30.5 17.5t-47 12q-35 7 -67 18.5t-56 27.5t-37.5 39.5t-12.5 56.5q3 48 32.5 85t80 58.5t116.5 21.5q91 0 141.5 -42t48.5 -114h-129
q-2 25 -22.5 39t-54.5 14q-35 0 -57 -14.5t-23 -35.5q0 -14 10.5 -24.5t31.5 -18t52 -13.5q40 -9 72 -20t55 -26.5t34 -38.5t9 -57q-2 -54 -34 -94t-85.5 -61.5t-121.5 -21.5z" />
    <glyph glyph-name="t" unicode="t" horiz-adv-x="430" 
d="M248 0q-59 0 -95.5 19t-49.5 58.5t-2 99.5l38 214h-84l20 113h84l39 137h121l-25 -137h133l-20 -113h-133l-38 -215q-6 -35 8 -48t46 -13h70l-21 -115h-91z" />
    <glyph glyph-name="u" unicode="u" horiz-adv-x="618" 
d="M210 -12q-65 0 -103.5 27.5t-51.5 78t-1 118.5l51 292h135l-50 -279q-9 -59 9 -91t72 -32q34 0 63 15t50 44t29 71l47 272h135l-88 -504h-119l2 80v0q-29 -42 -75.5 -67t-104.5 -25z" />
    <glyph glyph-name="v" unicode="v" horiz-adv-x="570" 
d="M158 0l-97 504h141l61 -377v0l194 377h142l-276 -504h-165z" />
    <glyph glyph-name="w" unicode="w" horiz-adv-x="820" 
d="M121 0l-60 504h134l26 -409l-25 1l184 408h149l41 -408l-25 -1l169 409h134l-237 -504h-139l-46 420h28l-193 -420h-140z" />
    <glyph glyph-name="x" unicode="x" horiz-adv-x="571" 
d="M-25 0l227 253l-137 251h144l91 -173v0l151 173h145l-225 -253l136 -251h-144l-91 174v0l-151 -174h-146z" />
    <glyph glyph-name="y" unicode="y" horiz-adv-x="605" 
d="M48 -220l159 257h-30l-112 467h145l78 -344v0l197 344h144l-439 -724h-142z" />
    <glyph glyph-name="z" unicode="z" horiz-adv-x="494" 
d="M-11 0l19 108l310 284h-250l20 112h406l-20 -109l-313 -283h262l-20 -112h-414z" />
    <glyph glyph-name="braceleft" unicode="{" horiz-adv-x="471" 
d="M266 -177q-70 0 -110.5 35.5t-37.5 103.5q2 41 16 79t27.5 74.5t14.5 71.5q2 21 -6 37t-28 26.5t-53 13.5l19 108q42 4 69 18.5t39.5 45t13.5 81.5q2 14 2 26t-0.5 23.5t0.5 24.5q3 77 31 125.5t74.5 71.5t103.5 23h65l-20 -112h-40q-22 0 -40 -7t-29 -25t-14 -51
q-3 -20 -3.5 -41t-1 -44.5t-5.5 -52.5q-4 -44 -20.5 -77.5t-45.5 -53.5t-68 -28v-2q48 -11 68.5 -41.5t17.5 -72.5q-1 -41 -13.5 -77.5t-25.5 -69.5t-14 -63q-1 -32 15 -45t45 -13h40l-20 -112h-66z" />
    <glyph glyph-name="bar" unicode="|" horiz-adv-x="273" 
d="M7 -100l145 820h135l-145 -820h-135z" />
    <glyph glyph-name="braceright" unicode="}" horiz-adv-x="471" 
d="M227 811q71 0 111.5 -35.5t36.5 -103.5q-1 -40 -14.5 -78.5t-27.5 -74.5t-15 -71q-1 -21 6.5 -37t27.5 -26.5t53 -13.5l-19 -108q-43 -4 -69.5 -19t-39 -45.5t-13.5 -80.5q-2 -14 -1.5 -26t0.5 -24t-1 -25q-3 -76 -31 -124.5t-74.5 -72t-103.5 -23.5h-65l20 112h40
q22 0 40 7.5t29.5 25.5t13.5 50q3 20 3.5 41t1 45.5t4.5 51.5q5 46 21.5 78.5t45.5 53t68 28.5v2q-48 11 -68.5 41.5t-17.5 72.5q1 41 14 77.5t25 69t14 62.5q1 33 -15 45.5t-45 12.5h-40l20 112h65z" />
    <glyph glyph-name="asciitilde" unicode="~" horiz-adv-x="579" 
d="M372 224q-32 0 -55 10.5t-41 23.5t-35.5 23.5t-39.5 10.5q-26 0 -45.5 -17.5t-30.5 -49.5h-101q22 65 53 106.5t70 61t82 19.5q32 0 55 -10.5t41.5 -23.5t36.5 -23.5t39 -10.5q27 0 46 17.5t29 49.5h102q-20 -65 -51.5 -106t-71 -61t-83.5 -20z" />
    <glyph glyph-name="uni00A0" unicode="&#xa0;" horiz-adv-x="250" 
 />
    <glyph glyph-name="exclamdown" unicode="&#xa1;" horiz-adv-x="311" 
d="M224 284l-68 -474h-145l99 474h114zM187 516q36 0 59 -22.5t23 -55.5t-23 -55.5t-59 -22.5q-37 0 -60 22.5t-23 55.5t23.5 55.5t59.5 22.5z" />
    <glyph glyph-name="cent" unicode="&#xa2;" horiz-adv-x="609" 
d="M184 -95l30 172h124l-30 -172h-124zM277 434l30 172h124l-30 -172h-124zM265 -12q-69 0 -119.5 29t-76 80t-22.5 118q3 64 27.5 118.5t66.5 95.5t97 64t119 23q97 0 155 -52t58 -144h-142q-1 38 -26.5 59t-64.5 21q-41 0 -74.5 -22.5t-53.5 -61.5t-23 -89q-1 -29 5 -52
t19 -39t31.5 -24.5t42.5 -8.5q27 0 50.5 9.5t42 27.5t27.5 43h143q-22 -58 -63.5 -102t-97.5 -68.5t-121 -24.5z" />
    <glyph glyph-name="sterling" unicode="&#xa3;" horiz-adv-x="628" 
d="M34 0l14 75q35 30 59.5 62.5t38 69.5t15.5 79q1 22 -1.5 43.5t-6.5 42.5t-6.5 43.5t-0.5 47.5q2 74 37 130t94 87.5t134 31.5q54 0 94 -15t66.5 -44t37 -69t4.5 -90h-124q4 32 -5.5 55.5t-31 37.5t-55.5 14q-38 0 -65.5 -17t-42.5 -46.5t-17 -65.5q-1 -22 2 -43.5
t7 -43.5t7 -45t1 -47q-2 -55 -28 -102.5t-72 -83.5h354l-18 -107h-491zM49 297l16 91h402l-16 -91h-402z" />
    <glyph glyph-name="currency" unicode="&#xa4;" horiz-adv-x="561" 
d="M257 118q-51 0 -89 20.5t-58 56.5t-17 82q2 59 33 104t82 70t113 25q51 0 89 -19.5t58.5 -54.5t17.5 -82q-2 -59 -33.5 -104.5t-82 -71.5t-113.5 -26zM88 78l-46 57l108 92l58 -46zM412 78l-75 91l68 54l72 -88zM272 204q27 0 49.5 13.5t36.5 38.5t15 58q2 27 -7.5 44
t-25 25t-35.5 8q-26 0 -48.5 -13.5t-36.5 -38.5t-15 -59q-2 -26 7 -43t25 -25t35 -8zM174 373l-74 89l66 57l79 -96zM420 365l-44 57l113 97l46 -57z" />
    <glyph glyph-name="yen" unicode="&#xa5;" horiz-adv-x="650" 
d="M35 151l16 92h535l-16 -92h-535zM290 318l-225 1l16 92h221zM404 318l20 93h192l-16 -92zM214 0l44 246l-157 454h153l101 -336l-16 3l218 333h152l-316 -454l-44 -246h-135z" />
    <glyph glyph-name="brokenbar" unicode="&#xa6;" horiz-adv-x="273" 
d="M94 395l58 325h135l-58 -325h-135zM7 -100l58 325h135l-58 -325h-135z" />
    <glyph glyph-name="section" unicode="&#xa7;" horiz-adv-x="619" 
d="M228 -232q-70 0 -121.5 24.5t-76 70.5t-16.5 108h145q-3 -23 5 -43.5t28 -33t50 -12.5q32 0 56 11t38 31.5t15 46.5q1 21 -9.5 35.5t-30.5 24.5t-47 19t-58 20q-44 16 -81 40t-58.5 60t-18.5 86q2 46 23.5 86.5t59.5 73.5q-8 14 -11 31t-2 37q3 67 37.5 118t94 80.5
t136.5 29.5q71 0 122 -24.5t76.5 -70.5t15.5 -108h-144q3 23 -5.5 43.5t-28 33t-50.5 12.5q-30 1 -54.5 -10.5t-39 -31.5t-15.5 -47q-1 -21 10 -35.5t31 -24.5t47 -19t57 -20q46 -16 82.5 -40.5t57.5 -59.5t18 -86q-1 -46 -22.5 -86.5t-59.5 -73.5q8 -16 11 -35.5t1 -40.5
q-6 -64 -41 -114t-93 -78t-134 -28zM389 139q14 12 22 29t9 37q1 22 -9.5 38t-29.5 29t-45.5 24t-58.5 23q-14 5 -27.5 11t-23.5 11q-13 -11 -21.5 -28.5t-9.5 -37.5q-1 -17 5 -30.5t18 -24.5t29.5 -20.5t40 -18.5t48.5 -20q16 -5 29 -11t24 -11z" />
    <glyph glyph-name="dieresis" unicode="&#xa8;" horiz-adv-x="313" 
d="M132 571q-27 0 -45 18t-18 45t18 45.5t45 18.5q28 0 46 -18.5t18 -45.5t-18 -45t-46 -18zM316 571q-27 0 -45.5 18t-18.5 45t18.5 45.5t45.5 18.5t45.5 -18.5t18.5 -45.5t-18.5 -45t-45.5 -18z" />
    <glyph glyph-name="copyright" unicode="&#xa9;" horiz-adv-x="791" 
d="M351 -6q-91 0 -157 38.5t-101.5 104.5t-35.5 151q0 88 31.5 164.5t89 134t134 90t165.5 32.5q91 0 156.5 -38t101.5 -104t36 -150q0 -88 -32 -165t-89 -135t-133.5 -90.5t-165.5 -32.5zM374 124q-54 0 -96 23t-65 64t-23 97q0 57 19.5 106.5t56 86.5t84.5 58t105 21
q77 0 126.5 -42t51.5 -117h-117q-5 31 -25.5 48.5t-55.5 17.5q-42 0 -72 -25.5t-45.5 -65t-15.5 -82.5q0 -48 24 -72.5t61 -24.5t63 17.5t42 48.5h117q-19 -48 -55 -83.5t-82 -55.5t-98 -20zM359 41q80 0 146.5 28.5t114 79.5t73 118.5t25.5 146.5q0 73 -29 129t-84.5 87.5
t-135.5 31.5t-146 -28t-114 -78t-73.5 -117.5t-25.5 -146.5q0 -72 29 -129t85 -89.5t135 -32.5z" />
    <glyph glyph-name="ordfeminine" unicode="&#xaa;" horiz-adv-x="507" 
d="M236 349q-42 0 -74 18.5t-49 52.5t-15 80q3 59 30 106.5t71.5 76t99.5 28.5q46 0 74 -18.5t39 -49.5l20 63h94l-61 -352h-95l2 62v0q-21 -31 -55.5 -49t-80.5 -18zM281 430q30 0 55 14.5t40.5 41t17.5 61.5q2 40 -20.5 61t-56.5 21q-28 0 -53 -14.5t-41 -40.5t-18 -61
q-2 -40 20.5 -61.5t55.5 -21.5z" />
    <glyph glyph-name="guillemotleft" unicode="&#xab;" horiz-adv-x="514" 
d="M313 120l-58 175l120 175h127l-123 -175l61 -175h-127zM108 120l-59 175l121 175h126l-123 -175l62 -175h-127z" />
    <glyph glyph-name="logicalnot" unicode="&#xac;" horiz-adv-x="579" 
d="M444 198l24 136h-462l19 104h596l-43 -240h-134z" />
    <glyph glyph-name="registered" unicode="&#xae;" horiz-adv-x="510" 
d="M262 291q-61 0 -104 27.5t-61.5 74.5t-8.5 108q11 62 46.5 109.5t88 74.5t113.5 27q62 0 104.5 -27t61.5 -74.5t7 -109.5q-11 -61 -46.5 -108t-87 -74.5t-113.5 -27.5zM312 397l-39 96h67l44 -95zM270 339q48 0 87.5 20.5t65.5 57.5t34 84q13 73 -22 118t-108 45
q-48 0 -87 -20.5t-65 -57t-35 -85.5q-12 -71 23 -116.5t107 -45.5zM194 397l38 213h104q35 0 52 -18t12 -49t-29 -49.5t-58 -18.5h-42l-14 -78h-63zM278 521h32q10 0 16.5 4.5t7.5 13.5q2 9 -3 13t-14 4h-33z" />
    <glyph glyph-name="macron" unicode="&#xaf;" horiz-adv-x="379" 
d="M59 587l17 95h378l-16 -95h-379z" />
    <glyph glyph-name="degree" unicode="&#xb0;" horiz-adv-x="368" 
d="M239 423q-38 0 -71 17.5t-53 50t-20 75.5q0 45 20.5 78t53.5 50.5t71 17.5q39 0 71.5 -17.5t52 -50.5t19.5 -78q0 -43 -20 -75.5t-52.5 -50t-71.5 -17.5zM239 508q20 0 38 15t18 45t-17.5 44.5t-37.5 14.5t-38 -15t-18 -44q0 -30 17.5 -45t37.5 -15z" />
    <glyph glyph-name="plusminus" unicode="&#xb1;" horiz-adv-x="579" 
d="M13 89l20 112h495l-19 -112h-496zM232 250l64 363h115l-65 -363h-114zM63 376l20 112h496l-20 -112h-496z" />
    <glyph glyph-name="uni00B2" unicode="&#xb2;" horiz-adv-x="361" 
d="M55 352l13 76l133 82q31 19 51 40t25 46q3 20 -5.5 30.5t-24.5 10.5q-18 0 -31 -12t-20 -33h-102q12 52 58 86t117 34q46 0 73.5 -15.5t39 -40.5t5.5 -53q-7 -39 -38.5 -67.5t-92.5 -60.5l-77 -42h177l-15 -81h-286z" />
    <glyph glyph-name="uni00B3" unicode="&#xb3;" horiz-adv-x="355" 
d="M194 348q-77 0 -110 31t-27 84h105q-1 -15 3.5 -24t14.5 -13t22 -4q20 0 34.5 10.5t17.5 30.5q4 21 -8.5 32t-35.5 11h-39l9 50h35q23 0 38.5 10.5t19.5 31.5q3 19 -6.5 29t-30.5 10q-20 0 -33 -9.5t-20 -27.5h-97q10 45 54 78.5t119 33.5q64 0 98.5 -29.5t26.5 -73.5
q-5 -31 -26.5 -50.5t-53.5 -27.5l-1 -2q32 -10 47.5 -30t10.5 -52q-8 -44 -53.5 -71.5t-113.5 -27.5z" />
    <glyph glyph-name="acute" unicode="&#xb4;" horiz-adv-x="231" 
d="M70 544l-3 89l230 125v0l4 -102z" />
    <glyph glyph-name="uni00B5" unicode="&#xb5;" horiz-adv-x="626" 
d="M-18 -220l127 716h136l-47 -266q-10 -61 8 -94.5t74 -33.5q34 0 63 16t50 46t29 73l45 259h135l-87 -496h-119l2 80v0q-30 -41 -76.5 -66.5t-105.5 -25.5q-17 0 -32 4t-27 11l-40 -223h-135z" />
    <glyph glyph-name="paragraph" unicode="&#xb6;" horiz-adv-x="656" 
d="M229 -100l67 381h-18q-72 0 -117 27t-66 69.5t-21 88.5q0 75 35.5 126.5t98.5 79.5t144 28h314l-141 -800h-113l123 696h-71l-122 -696h-113z" />
    <glyph glyph-name="periodcentered" unicode="&#xb7;" horiz-adv-x="257" 
d="M141 248q-37 0 -60.5 22.5t-23.5 55.5t23.5 55.5t60.5 22.5t60 -22.5t23 -55.5t-23 -55.5t-60 -22.5z" />
    <glyph glyph-name="cedilla" unicode="&#xb8;" horiz-adv-x="266" 
d="M-91 -264l14 77h114q27 0 42.5 9t15.5 29q1 17 -10 24t-34 7h-63l22 125h84l-10 -55q31 1 57 -8.5t41 -30.5t14 -55q-2 -38 -23 -65.5t-54.5 -42t-73.5 -14.5h-136z" />
    <glyph glyph-name="uni00B9" unicode="&#xb9;" horiz-adv-x="237" 
d="M111 352l45 255l-73 -16l11 64l124 49h58l-62 -352h-103z" />
    <glyph glyph-name="ordmasculine" unicode="&#xba;" horiz-adv-x="486" 
d="M260 349q-52 0 -89.5 19t-56.5 54.5t-17 82.5q2 60 33 107t81.5 73.5t111.5 26.5q53 0 90 -19t57 -53.5t17 -82.5q-2 -60 -33 -107t-81.5 -74t-112.5 -27zM274 429q31 0 54.5 16.5t37.5 44t15 59.5q2 28 -7.5 47t-26 28t-38.5 9q-31 0 -54.5 -17t-37 -44.5t-14.5 -59.5
q-2 -27 7 -46t25.5 -28t38.5 -9z" />
    <glyph glyph-name="guillemotright" unicode="&#xbb;" horiz-adv-x="514" 
d="M215 470l59 -175l-121 -175h-126l123 175l-61 175h126zM421 470l58 -175l-120 -175h-127l123 175l-61 175h127z" />
    <glyph glyph-name="onequarter" unicode="&#xbc;" horiz-adv-x="867" 
d="M111 352l45 255l-73 -16l11 64l124 49h58l-62 -352h-103zM103 0l517 700h132l-517 -700h-132zM664 0l11 61h-165l12 68l193 219h110l-38 -217h38l-13 -70h-37l-11 -61h-100zM621 131h74l18 107v0z" />
    <glyph glyph-name="onehalf" unicode="&#xbd;" horiz-adv-x="924" 
d="M111 352l45 255l-73 -16l11 64l124 49h58l-62 -352h-103zM103 0l517 700h132l-517 -700h-132zM556 0l13 76l133 82q31 19 51 40t25 46q3 20 -5.5 30.5t-24.5 10.5q-18 0 -31 -12t-20 -33h-102q12 52 58 86t117 34q46 0 73.5 -15.5t39 -40.5t5.5 -53q-7 -39 -38.5 -67.5
t-92.5 -60.5l-77 -42h177l-15 -81h-286z" />
    <glyph glyph-name="threequarters" unicode="&#xbe;" horiz-adv-x="943" 
d="M194 348q-77 0 -110 31t-27 84h105q-1 -15 3.5 -24t14.5 -13t22 -4q20 0 34.5 10.5t17.5 30.5q4 21 -8.5 32t-35.5 11h-39l9 50h35q23 0 38.5 10.5t19.5 31.5q3 19 -6.5 29t-30.5 10q-20 0 -33 -9.5t-20 -27.5h-97q10 45 54 78.5t119 33.5q64 0 98.5 -29.5t26.5 -73.5
q-5 -31 -26.5 -50.5t-53.5 -27.5l-1 -2q32 -10 47.5 -30t10.5 -52q-8 -44 -53.5 -71.5t-113.5 -27.5zM179 0l517 700h132l-517 -700h-132zM739 0l11 61h-165l12 68l193 219h110l-38 -217h38l-13 -70h-37l-11 -61h-100zM696 131h74l18 107v0z" />
    <glyph glyph-name="questiondown" unicode="&#xbf;" horiz-adv-x="540" 
d="M402 283l-23 -161h-48q-41 0 -77.5 -6t-64 -20t-43.5 -39t-18 -63q-1 -26 8.5 -45.5t30 -29.5t48.5 -10q33 0 58.5 12t41.5 34t22 52h127q-10 -60 -46.5 -107.5t-93.5 -75t-131 -27.5q-61 0 -106.5 22.5t-69.5 63.5t-21 99q3 74 39 125t96 77.5t136 26.5l17 72h118z
M367 516q36 0 59.5 -23t23.5 -56q0 -32 -23.5 -55t-59.5 -23t-59 23t-23 55q0 33 23 56t59 23z" />
    <glyph glyph-name="Agrave" unicode="&#xc0;" horiz-adv-x="709" 
d="M-22 0l379 700h154l131 -700h-143l-92 549v0l-287 -549h-142zM111 159l53 104h369l17 -104h-439zM546 753l-202 112l33 102v0l197 -125z" />
    <glyph glyph-name="Aacute" unicode="&#xc1;" horiz-adv-x="709" 
d="M-22 0l379 700h154l131 -700h-143l-92 549v0l-287 -549h-142zM111 159l53 104h369l17 -104h-439zM345 753l-3 89l230 125v0l4 -102z" />
    <glyph glyph-name="Acircumflex" unicode="&#xc2;" horiz-adv-x="709" 
d="M-22 0l379 700h154l131 -700h-143l-92 549v0l-287 -549h-142zM111 159l53 104h369l17 -104h-439zM294 760l18 96l162 82l133 -82l-18 -96l-132 85z" />
    <glyph glyph-name="Atilde" unicode="&#xc3;" horiz-adv-x="709" 
d="M-22 0l379 700h154l131 -700h-143l-92 549v0l-287 -549h-142zM111 159l53 104h369l17 -104h-439zM266 769q21 67 58.5 98t83.5 31q29 0 47 -11.5t33.5 -23t36.5 -11.5q17 0 30.5 11.5t20.5 33.5h72q-22 -66 -59.5 -97t-84.5 -31q-28 0 -46.5 11t-34 22.5t-35.5 11.5
q-17 0 -30 -11t-21 -34h-71z" />
    <glyph glyph-name="Adieresis" unicode="&#xc4;" horiz-adv-x="709" 
d="M-22 0l379 700h154l131 -700h-143l-92 549v0l-287 -549h-142zM111 159l53 104h369l17 -104h-439zM365 771q-27 0 -45 18t-18 45t18 45.5t45 18.5q28 0 46 -18.5t18 -45.5t-18 -45t-46 -18zM549 771q-27 0 -45.5 18t-18.5 45t18.5 45.5t45.5 18.5t45.5 -18.5t18.5 -45.5
t-18.5 -45t-45.5 -18z" />
    <glyph glyph-name="Aring" unicode="&#xc5;" horiz-adv-x="709" 
d="M-22 0l379 700h154l131 -700h-143l-92 549v0l-287 -549h-142zM111 159l53 104h369l17 -104h-439zM465 770q-47 0 -81 30.5t-34 83.5q0 52 34 82.5t81 30.5q48 0 82 -30.5t34 -82.5q0 -53 -34 -83.5t-82 -30.5zM465 830q22 0 37 14.5t15 39.5t-15 39t-37 14
q-20 0 -35.5 -14t-15.5 -39t15.5 -39.5t35.5 -14.5z" />
    <glyph glyph-name="AE" unicode="&#xc6;" horiz-adv-x="945" 
d="M-22 0l500 700h493l-20 -107h-267l-34 -185h239l-18 -104h-238l-35 -197h268l-19 -107h-403l105 597v0l-424 -597h-147zM144 135l76 104h330l-19 -104h-387z" />
    <glyph glyph-name="Ccedilla" unicode="&#xc7;" horiz-adv-x="739" 
d="M339 -12q-94 0 -158.5 38t-95.5 105.5t-27 157.5q4 91 36 168t86.5 134.5t127 89t157.5 31.5q126 0 196.5 -63t70.5 -178h-149q-1 56 -37 87.5t-103 31.5q-52 0 -95.5 -21.5t-76.5 -60.5t-52 -92t-22 -116q-3 -60 15.5 -102.5t56 -65.5t91.5 -23q67 0 112 29t67 83h149
q-26 -74 -76.5 -126t-120 -79.5t-152.5 -27.5zM197 -264l14 77h114q27 0 42.5 9t15.5 29q1 17 -10 24t-34 7h-63l22 125h84l-10 -55q31 1 57 -8.5t41 -30.5t14 -55q-2 -38 -23 -65.5t-54.5 -42t-73.5 -14.5h-136z" />
    <glyph glyph-name="Egrave" unicode="&#xc8;" horiz-adv-x="566" 
d="M25 0l123 700h443l-19 -107h-308l-32 -186h278l-19 -104h-278l-34 -196h307l-19 -107h-442zM480 753l-202 112l33 102v0l197 -125z" />
    <glyph glyph-name="Eacute" unicode="&#xc9;" horiz-adv-x="566" 
d="M25 0l123 700h443l-19 -107h-308l-32 -186h278l-19 -104h-278l-34 -196h307l-19 -107h-442zM279 753l-3 89l230 125v0l4 -102z" />
    <glyph glyph-name="Ecircumflex" unicode="&#xca;" horiz-adv-x="566" 
d="M25 0l123 700h443l-19 -107h-308l-32 -186h278l-19 -104h-278l-34 -196h307l-19 -107h-442zM228 760l18 96l162 82l133 -82l-18 -96l-132 85z" />
    <glyph glyph-name="Edieresis" unicode="&#xcb;" horiz-adv-x="566" 
d="M25 0l123 700h443l-19 -107h-308l-32 -186h278l-19 -104h-278l-34 -196h307l-19 -107h-442zM299 771q-27 0 -45 18t-18 45t18 45.5t45 18.5q28 0 46 -18.5t18 -45.5t-18 -45t-46 -18zM483 771q-27 0 -45.5 18t-18.5 45t18.5 45.5t45.5 18.5t45.5 -18.5t18.5 -45.5
t-18.5 -45t-45.5 -18z" />
    <glyph glyph-name="Igrave" unicode="&#xcc;" horiz-adv-x="273" 
d="M25 0l123 700h135l-123 -700h-135zM329 753l-202 112l33 102v0l197 -125z" />
    <glyph glyph-name="Iacute" unicode="&#xcd;" horiz-adv-x="273" 
d="M25 0l123 700h135l-123 -700h-135zM128 753l-3 89l230 125v0l4 -102z" />
    <glyph glyph-name="Icircumflex" unicode="&#xce;" horiz-adv-x="273" 
d="M25 0l123 700h135l-123 -700h-135zM77 760l18 96l162 82l133 -82l-18 -96l-132 85z" />
    <glyph glyph-name="Idieresis" unicode="&#xcf;" horiz-adv-x="273" 
d="M25 0l123 700h135l-123 -700h-135zM148 771q-27 0 -45 18t-18 45t18 45.5t45 18.5q28 0 46 -18.5t18 -45.5t-18 -45t-46 -18zM332 771q-27 0 -45.5 18t-18.5 45t18.5 45.5t45.5 18.5t45.5 -18.5t18.5 -45.5t-18.5 -45t-45.5 -18z" />
    <glyph glyph-name="Eth" unicode="&#xd0;" horiz-adv-x="726" 
d="M13 293l21 115h380l-20 -115h-381zM41 0l123 700h234q110 0 178.5 -37t99 -104.5t25.5 -160.5q-3 -88 -34.5 -161t-86.5 -126.5t-132 -82t-173 -28.5h-234zM196 116h92q88 0 147.5 33.5t91.5 95t35 145.5q4 65 -14.5 108t-62 65t-114.5 22h-92z" />
    <glyph glyph-name="Ntilde" unicode="&#xd1;" horiz-adv-x="730" 
d="M25 0l123 700h136l235 -487v0l86 487h135l-124 -700h-134l-236 487v0l-86 -487h-135zM278 769q21 67 58.5 98t83.5 31q29 0 47 -11.5t33.5 -23t36.5 -11.5q17 0 30.5 11.5t20.5 33.5h72q-22 -66 -59.5 -97t-84.5 -31q-28 0 -46.5 11t-34 22.5t-35.5 11.5q-17 0 -30 -11
t-21 -34h-71z" />
    <glyph glyph-name="Ograve" unicode="&#xd2;" horiz-adv-x="793" 
d="M354 -12q-91 0 -159 41t-104 112.5t-31 164.5q3 85 36.5 159t89.5 129.5t130 86.5t158 31q91 0 159 -41t103.5 -112.5t31.5 -163.5q-4 -86 -37.5 -160t-89.5 -129.5t-129.5 -86.5t-157.5 -31zM372 109q52 0 97.5 21t80.5 58.5t55.5 88t23.5 110.5q3 62 -16 107.5
t-58.5 70.5t-98.5 25q-52 0 -97.5 -20.5t-80.5 -58t-56 -87.5t-23 -110q-4 -62 16 -108t60 -71.5t97 -25.5zM590 753l-202 112l33 102v0l197 -125z" />
    <glyph glyph-name="Oacute" unicode="&#xd3;" horiz-adv-x="793" 
d="M354 -12q-91 0 -159 41t-104 112.5t-31 164.5q3 85 36.5 159t89.5 129.5t130 86.5t158 31q91 0 159 -41t103.5 -112.5t31.5 -163.5q-4 -86 -37.5 -160t-89.5 -129.5t-129.5 -86.5t-157.5 -31zM372 109q52 0 97.5 21t80.5 58.5t55.5 88t23.5 110.5q3 62 -16 107.5
t-58.5 70.5t-98.5 25q-52 0 -97.5 -20.5t-80.5 -58t-56 -87.5t-23 -110q-4 -62 16 -108t60 -71.5t97 -25.5zM389 753l-3 89l230 125v0l4 -102z" />
    <glyph glyph-name="Ocircumflex" unicode="&#xd4;" horiz-adv-x="793" 
d="M354 -12q-91 0 -159 41t-104 112.5t-31 164.5q3 85 36.5 159t89.5 129.5t130 86.5t158 31q91 0 159 -41t103.5 -112.5t31.5 -163.5q-4 -86 -37.5 -160t-89.5 -129.5t-129.5 -86.5t-157.5 -31zM372 109q52 0 97.5 21t80.5 58.5t55.5 88t23.5 110.5q3 62 -16 107.5
t-58.5 70.5t-98.5 25q-52 0 -97.5 -20.5t-80.5 -58t-56 -87.5t-23 -110q-4 -62 16 -108t60 -71.5t97 -25.5zM339 760l18 96l162 82l133 -82l-18 -96l-132 85z" />
    <glyph glyph-name="Otilde" unicode="&#xd5;" horiz-adv-x="793" 
d="M354 -12q-91 0 -159 41t-104 112.5t-31 164.5q3 85 36.5 159t89.5 129.5t130 86.5t158 31q91 0 159 -41t103.5 -112.5t31.5 -163.5q-4 -86 -37.5 -160t-89.5 -129.5t-129.5 -86.5t-157.5 -31zM372 109q52 0 97.5 21t80.5 58.5t55.5 88t23.5 110.5q3 62 -16 107.5
t-58.5 70.5t-98.5 25q-52 0 -97.5 -20.5t-80.5 -58t-56 -87.5t-23 -110q-4 -62 16 -108t60 -71.5t97 -25.5zM310 769q21 67 58.5 98t83.5 31q29 0 47 -11.5t33.5 -23t36.5 -11.5q17 0 30.5 11.5t20.5 33.5h72q-22 -66 -59.5 -97t-84.5 -31q-28 0 -46.5 11t-34 22.5
t-35.5 11.5q-17 0 -30 -11t-21 -34h-71z" />
    <glyph glyph-name="Odieresis" unicode="&#xd6;" horiz-adv-x="793" 
d="M354 -12q-91 0 -159 41t-104 112.5t-31 164.5q3 85 36.5 159t89.5 129.5t130 86.5t158 31q91 0 159 -41t103.5 -112.5t31.5 -163.5q-4 -86 -37.5 -160t-89.5 -129.5t-129.5 -86.5t-157.5 -31zM372 109q52 0 97.5 21t80.5 58.5t55.5 88t23.5 110.5q3 62 -16 107.5
t-58.5 70.5t-98.5 25q-52 0 -97.5 -20.5t-80.5 -58t-56 -87.5t-23 -110q-4 -62 16 -108t60 -71.5t97 -25.5zM410 771q-27 0 -45 18t-18 45t18 45.5t45 18.5q28 0 46 -18.5t18 -45.5t-18 -45t-46 -18zM594 771q-27 0 -45.5 18t-18.5 45t18.5 45.5t45.5 18.5t45.5 -18.5
t18.5 -45.5t-18.5 -45t-45.5 -18z" />
    <glyph glyph-name="multiply" unicode="&#xd7;" horiz-adv-x="579" 
d="M137 87l-66 79l146 124l-100 121l93 79l100 -121l146 124l65 -79l-146 -125l100 -121l-93 -79l-100 122z" />
    <glyph glyph-name="Oslash" unicode="&#xd8;" horiz-adv-x="778" 
d="M-18 0l722 700h125l-722 -700h-125zM351 -12q-91 0 -158.5 41t-103.5 112.5t-32 164.5q4 85 37 159t89.5 129.5t130 86.5t157.5 31q92 0 159.5 -41t103.5 -112.5t31 -163.5q-4 -86 -37 -160t-89.5 -129.5t-129.5 -86.5t-158 -31zM369 109q52 0 97.5 21t80.5 58.5t56 88
t23 110.5q3 62 -16 107.5t-58.5 70.5t-97.5 25q-53 0 -98.5 -20.5t-80.5 -58t-55.5 -87.5t-23.5 -110q-3 -62 16.5 -108t59.5 -71.5t97 -25.5z" />
    <glyph glyph-name="Ugrave" unicode="&#xd9;" horiz-adv-x="685" 
d="M294 -12q-84 0 -140.5 33t-79.5 96.5t-7 152.5l75 430h135l-76 -431q-8 -49 1.5 -84.5t38.5 -54t77 -18.5q46 0 81 17.5t59 52.5t33 87l76 431h135l-76 -430q-17 -96 -66 -158.5t-118 -93t-148 -30.5zM541 753l-202 112l33 102v0l197 -125z" />
    <glyph glyph-name="Uacute" unicode="&#xda;" horiz-adv-x="685" 
d="M294 -12q-84 0 -140.5 33t-79.5 96.5t-7 152.5l75 430h135l-76 -431q-8 -49 1.5 -84.5t38.5 -54t77 -18.5q46 0 81 17.5t59 52.5t33 87l76 431h135l-76 -430q-17 -96 -66 -158.5t-118 -93t-148 -30.5zM340 753l-3 89l230 125v0l4 -102z" />
    <glyph glyph-name="Ucircumflex" unicode="&#xdb;" horiz-adv-x="685" 
d="M294 -12q-84 0 -140.5 33t-79.5 96.5t-7 152.5l75 430h135l-76 -431q-8 -49 1.5 -84.5t38.5 -54t77 -18.5q46 0 81 17.5t59 52.5t33 87l76 431h135l-76 -430q-17 -96 -66 -158.5t-118 -93t-148 -30.5zM289 760l18 96l162 82l133 -82l-18 -96l-132 85z" />
    <glyph glyph-name="Udieresis" unicode="&#xdc;" horiz-adv-x="685" 
d="M294 -12q-84 0 -140.5 33t-79.5 96.5t-7 152.5l75 430h135l-76 -431q-8 -49 1.5 -84.5t38.5 -54t77 -18.5q46 0 81 17.5t59 52.5t33 87l76 431h135l-76 -430q-17 -96 -66 -158.5t-118 -93t-148 -30.5zM360 771q-27 0 -45 18t-18 45t18 45.5t45 18.5q28 0 46 -18.5
t18 -45.5t-18 -45t-46 -18zM544 771q-27 0 -45.5 18t-18.5 45t18.5 45.5t45.5 18.5t45.5 -18.5t18.5 -45.5t-18.5 -45t-45.5 -18z" />
    <glyph glyph-name="Yacute" unicode="&#xdd;" horiz-adv-x="635" 
d="M206 0l44 246l-157 454h154l100 -336l-16 3l218 333h152l-316 -454l-44 -246h-135zM316 753l-3 89l230 125v0l4 -102z" />
    <glyph glyph-name="Thorn" unicode="&#xde;" horiz-adv-x="617" 
d="M25 0l123 700h135l-23 -134h128q77 0 125.5 -25.5t70.5 -69t20 -97.5q-3 -71 -40 -125t-101.5 -84.5t-150.5 -30.5h-128l-24 -134h-135zM203 243h120q66 0 103 34t39 92q2 42 -22.5 64.5t-81.5 22.5h-120z" />
    <glyph glyph-name="germandbls" unicode="&#xdf;" horiz-adv-x="712" 
d="M432 -10q-94 0 -144 49.5t-45 136.5h127q-3 -40 16.5 -63t58.5 -23q38 0 61.5 19t24.5 53q1 17 -5.5 29.5t-23.5 23t-47 21.5q-70 26 -101 53.5t-29 68.5q1 30 16.5 51t38.5 37.5t46 31.5t38.5 32.5t16.5 40.5q2 33 -23 50.5t-72 17.5q-62 0 -97 -33t-45 -91l-88 -495
h-134l90 506q12 67 50 118t100 79.5t145 28.5q71 0 119 -21.5t72 -57.5t22 -80q-2 -35 -18 -59.5t-38.5 -42t-45.5 -31.5t-38.5 -26.5t-15.5 -28.5q0 -10 6 -18.5t25.5 -18.5t56.5 -25q63 -24 89.5 -57.5t23.5 -89.5q-2 -55 -32.5 -97t-82 -65.5t-118.5 -23.5z" />
    <glyph glyph-name="agrave" unicode="&#xe0;" horiz-adv-x="592" 
d="M190 -12q-58 0 -93.5 18.5t-52 50t-14.5 69.5q2 52 32 90t84.5 59t127.5 21h124q7 37 1.5 61.5t-24.5 36.5t-54 12q-37 0 -66.5 -16.5t-42.5 -50.5h-131q15 54 52 93.5t90.5 61.5t117.5 22q71 0 118.5 -24.5t68 -69.5t8.5 -110l-55 -312h-118l2 76v0q-14 -19 -32 -35.5
t-40 -28t-47.5 -18t-55.5 -6.5zM240 92q25 0 48 9.5t41 26t30.5 38t18.5 45.5v2h-103q-30 0 -52 -8.5t-34 -24t-13 -36.5q-2 -25 16 -38.5t48 -13.5zM446 544l-202 112l33 102v0l197 -125z" />
    <glyph glyph-name="aacute" unicode="&#xe1;" horiz-adv-x="592" 
d="M190 -12q-58 0 -93.5 18.5t-52 50t-14.5 69.5q2 52 32 90t84.5 59t127.5 21h124q7 37 1.5 61.5t-24.5 36.5t-54 12q-37 0 -66.5 -16.5t-42.5 -50.5h-131q15 54 52 93.5t90.5 61.5t117.5 22q71 0 118.5 -24.5t68 -69.5t8.5 -110l-55 -312h-118l2 76v0q-14 -19 -32 -35.5
t-40 -28t-47.5 -18t-55.5 -6.5zM240 92q25 0 48 9.5t41 26t30.5 38t18.5 45.5v2h-103q-30 0 -52 -8.5t-34 -24t-13 -36.5q-2 -25 16 -38.5t48 -13.5zM244 544l-3 89l230 125v0l4 -102z" />
    <glyph glyph-name="acircumflex" unicode="&#xe2;" horiz-adv-x="592" 
d="M190 -12q-58 0 -93.5 18.5t-52 50t-14.5 69.5q2 52 32 90t84.5 59t127.5 21h124q7 37 1.5 61.5t-24.5 36.5t-54 12q-37 0 -66.5 -16.5t-42.5 -50.5h-131q15 54 52 93.5t90.5 61.5t117.5 22q71 0 118.5 -24.5t68 -69.5t8.5 -110l-55 -312h-118l2 76v0q-14 -19 -32 -35.5
t-40 -28t-47.5 -18t-55.5 -6.5zM240 92q25 0 48 9.5t41 26t30.5 38t18.5 45.5v2h-103q-30 0 -52 -8.5t-34 -24t-13 -36.5q-2 -25 16 -38.5t48 -13.5zM194 549l18 96l162 82l133 -82l-18 -96l-132 85z" />
    <glyph glyph-name="atilde" unicode="&#xe3;" horiz-adv-x="592" 
d="M190 -12q-58 0 -93.5 18.5t-52 50t-14.5 69.5q2 52 32 90t84.5 59t127.5 21h124q7 37 1.5 61.5t-24.5 36.5t-54 12q-37 0 -66.5 -16.5t-42.5 -50.5h-131q15 54 52 93.5t90.5 61.5t117.5 22q71 0 118.5 -24.5t68 -69.5t8.5 -110l-55 -312h-118l2 76v0q-14 -19 -32 -35.5
t-40 -28t-47.5 -18t-55.5 -6.5zM240 92q25 0 48 9.5t41 26t30.5 38t18.5 45.5v2h-103q-30 0 -52 -8.5t-34 -24t-13 -36.5q-2 -25 16 -38.5t48 -13.5zM165 561q21 67 58.5 98t83.5 31q29 0 47 -11.5t33.5 -23t36.5 -11.5q17 0 30.5 11.5t20.5 33.5h72q-22 -66 -59.5 -97
t-84.5 -31q-28 0 -46.5 11t-34 22.5t-35.5 11.5q-17 0 -30 -11t-21 -34h-71z" />
    <glyph glyph-name="adieresis" unicode="&#xe4;" horiz-adv-x="592" 
d="M190 -12q-58 0 -93.5 18.5t-52 50t-14.5 69.5q2 52 32 90t84.5 59t127.5 21h124q7 37 1.5 61.5t-24.5 36.5t-54 12q-37 0 -66.5 -16.5t-42.5 -50.5h-131q15 54 52 93.5t90.5 61.5t117.5 22q71 0 118.5 -24.5t68 -69.5t8.5 -110l-55 -312h-118l2 76v0q-14 -19 -32 -35.5
t-40 -28t-47.5 -18t-55.5 -6.5zM240 92q25 0 48 9.5t41 26t30.5 38t18.5 45.5v2h-103q-30 0 -52 -8.5t-34 -24t-13 -36.5q-2 -25 16 -38.5t48 -13.5zM264 571q-27 0 -45 18t-18 45t18 45.5t45 18.5q28 0 46 -18.5t18 -45.5t-18 -45t-46 -18zM448 571q-27 0 -45.5 18
t-18.5 45t18.5 45.5t45.5 18.5t45.5 -18.5t18.5 -45.5t-18.5 -45t-45.5 -18z" />
    <glyph glyph-name="aring" unicode="&#xe5;" horiz-adv-x="592" 
d="M190 -12q-58 0 -93.5 18.5t-52 50t-14.5 69.5q2 52 32 90t84.5 59t127.5 21h124q7 37 1.5 61.5t-24.5 36.5t-54 12q-37 0 -66.5 -16.5t-42.5 -50.5h-131q15 54 52 93.5t90.5 61.5t117.5 22q71 0 118.5 -24.5t68 -69.5t8.5 -110l-55 -312h-118l2 76v0q-14 -19 -32 -35.5
t-40 -28t-47.5 -18t-55.5 -6.5zM240 92q25 0 48 9.5t41 26t30.5 38t18.5 45.5v2h-103q-30 0 -52 -8.5t-34 -24t-13 -36.5q-2 -25 16 -38.5t48 -13.5zM363 557q-47 0 -81 30.5t-34 83.5q0 52 34 82.5t81 30.5q48 0 82 -30.5t34 -82.5q0 -53 -34 -83.5t-82 -30.5zM363 617
q22 0 37 14.5t15 39.5t-15 39t-37 14q-20 0 -35.5 -14t-15.5 -39t15.5 -39.5t35.5 -14.5z" />
    <glyph glyph-name="ae" unicode="&#xe6;" horiz-adv-x="951" 
d="M201 -12q-58 0 -97 17t-57.5 48t-17.5 71q3 52 33 90.5t83.5 60t125.5 21.5h135q7 36 2 60.5t-24 37t-55 12.5q-37 0 -67 -16.5t-42 -50.5h-132q15 54 52.5 93.5t91.5 61.5t117 22q39 0 71 -8t56 -23t39 -37q38 32 86.5 50t102.5 18q69 0 116.5 -28t71.5 -76t21 -111
q0 -13 -3 -30.5t-6 -31.5t-5 -20h-371q-4 -34 6.5 -61t34.5 -43.5t60 -16.5q42 0 71 19.5t46 47.5h135q-21 -49 -61.5 -89.5t-94 -64t-114.5 -23.5q-65 0 -113 26.5t-73 72.5q-28 -31 -63.5 -53t-76 -34t-84.5 -12zM239 92q34 0 61.5 15t49 40.5t32.5 57.5l2 8h-112
q-29 0 -50.5 -8t-33.5 -23t-13 -36q-1 -17 7 -29t22.5 -18.5t34.5 -6.5zM545 301h234q4 33 -7 56.5t-33 36t-53 12.5q-30 0 -57.5 -11.5t-49 -34.5t-34.5 -59z" />
    <glyph glyph-name="ccedilla" unicode="&#xe7;" horiz-adv-x="609" 
d="M265 -12q-69 0 -119.5 29t-76 80t-22.5 118q3 64 27.5 118.5t66.5 95.5t97 64t119 23q97 0 155 -52t58 -144h-142q-1 38 -26.5 59t-64.5 21q-41 0 -74.5 -22.5t-53.5 -61.5t-23 -89q-1 -29 5 -52t19 -39t31.5 -24.5t42.5 -8.5q27 0 50.5 9.5t42 27.5t27.5 43h143
q-22 -58 -63.5 -102t-97.5 -68.5t-121 -24.5zM117 -264l14 77h114q27 0 42.5 9t15.5 29q1 17 -10 24t-34 7h-63l22 125h84l-10 -55q31 1 57 -8.5t41 -30.5t14 -55q-2 -38 -23 -65.5t-54.5 -42t-73.5 -14.5h-136z" />
    <glyph glyph-name="egrave" unicode="&#xe8;" horiz-adv-x="604" 
d="M263 -12q-69 0 -118.5 28t-75 79t-21.5 119q2 63 25.5 117.5t64.5 96t96 65t122 23.5q68 0 116 -28t72 -76t21 -111q0 -21 -4.5 -42.5t-9.5 -39.5h-408l14 82h274q4 34 -7 57.5t-33.5 35.5t-52.5 12q-35 0 -66.5 -15.5t-53.5 -47.5t-31 -81l-5 -29q-7 -39 2.5 -69.5
t34.5 -48t62 -17.5q38 0 65 16t44 41h138q-23 -47 -62.5 -85t-91 -60t-111.5 -22zM464 544l-202 112l33 102v0l197 -125z" />
    <glyph glyph-name="eacute" unicode="&#xe9;" horiz-adv-x="604" 
d="M263 -12q-69 0 -118.5 28t-75 79t-21.5 119q2 63 25.5 117.5t64.5 96t96 65t122 23.5q68 0 116 -28t72 -76t21 -111q0 -21 -4.5 -42.5t-9.5 -39.5h-408l14 82h274q4 34 -7 57.5t-33.5 35.5t-52.5 12q-35 0 -66.5 -15.5t-53.5 -47.5t-31 -81l-5 -29q-7 -39 2.5 -69.5
t34.5 -48t62 -17.5q38 0 65 16t44 41h138q-23 -47 -62.5 -85t-91 -60t-111.5 -22zM262 544l-3 89l230 125v0l4 -102z" />
    <glyph glyph-name="ecircumflex" unicode="&#xea;" horiz-adv-x="604" 
d="M263 -12q-69 0 -118.5 28t-75 79t-21.5 119q2 63 25.5 117.5t64.5 96t96 65t122 23.5q68 0 116 -28t72 -76t21 -111q0 -21 -4.5 -42.5t-9.5 -39.5h-408l14 82h274q4 34 -7 57.5t-33.5 35.5t-52.5 12q-35 0 -66.5 -15.5t-53.5 -47.5t-31 -81l-5 -29q-7 -39 2.5 -69.5
t34.5 -48t62 -17.5q38 0 65 16t44 41h138q-23 -47 -62.5 -85t-91 -60t-111.5 -22zM212 549l18 96l162 82l133 -82l-18 -96l-132 85z" />
    <glyph glyph-name="edieresis" unicode="&#xeb;" horiz-adv-x="604" 
d="M263 -12q-69 0 -118.5 28t-75 79t-21.5 119q2 63 25.5 117.5t64.5 96t96 65t122 23.5q68 0 116 -28t72 -76t21 -111q0 -21 -4.5 -42.5t-9.5 -39.5h-408l14 82h274q4 34 -7 57.5t-33.5 35.5t-52.5 12q-35 0 -66.5 -15.5t-53.5 -47.5t-31 -81l-5 -29q-7 -39 2.5 -69.5
t34.5 -48t62 -17.5q38 0 65 16t44 41h138q-23 -47 -62.5 -85t-91 -60t-111.5 -22zM282 571q-27 0 -45 18t-18 45t18 45.5t45 18.5q28 0 46 -18.5t18 -45.5t-18 -45t-46 -18zM466 571q-27 0 -45.5 18t-18.5 45t18.5 45.5t45.5 18.5t45.5 -18.5t18.5 -45.5t-18.5 -45
t-45.5 -18z" />
    <glyph glyph-name="igrave" unicode="&#xec;" horiz-adv-x="267" 
d="M22 0l88 504h135l-88 -504h-135zM289 544l-202 112l33 102v0l197 -125z" />
    <glyph glyph-name="iacute" unicode="&#xed;" horiz-adv-x="267" 
d="M22 0l88 504h135l-88 -504h-135zM88 544l-3 89l230 125v0l4 -102z" />
    <glyph glyph-name="icircumflex" unicode="&#xee;" horiz-adv-x="267" 
d="M22 0l88 504h135l-88 -504h-135zM37 549l18 96l162 82l133 -82l-18 -96l-132 85z" />
    <glyph glyph-name="idieresis" unicode="&#xef;" horiz-adv-x="267" 
d="M22 0l88 504h135l-88 -504h-135zM108 571q-27 0 -45 18t-18 45t18 45.5t45 18.5q28 0 46 -18.5t18 -45.5t-18 -45t-46 -18zM292 571q-27 0 -45.5 18t-18.5 45t18.5 45.5t45.5 18.5t45.5 -18.5t18.5 -45.5t-18.5 -45t-45.5 -18z" />
    <glyph glyph-name="eth" unicode="&#xf0;" horiz-adv-x="638" 
d="M281 -12q-75 0 -128 32.5t-80.5 86.5t-23.5 119q2 60 26 111t64.5 88.5t93 58t113.5 20.5q39 0 70.5 -9.5t54.5 -31.5q-7 32 -18.5 64t-27.5 62.5t-36 58.5t-45 52h127q37 -38 62.5 -81.5t40.5 -90.5t20.5 -93.5t3.5 -89.5q-3 -84 -29 -150t-69 -112t-99 -70.5
t-120 -24.5zM297 103q31 0 57.5 12.5t47.5 34.5t33.5 52t14.5 63q2 41 -12 68.5t-39 42t-59 14.5q-40 0 -74 -21t-55 -56.5t-23 -80.5q-2 -39 11 -68t38.5 -45t59.5 -16zM301 535l15 80l310 94l-15 -80z" />
    <glyph glyph-name="ntilde" unicode="&#xf1;" horiz-adv-x="617" 
d="M22 0l88 504h119l-2 -80v0q30 42 76.5 67t104.5 25q65 0 103 -28t51.5 -78t1.5 -119l-52 -291h-134l49 278q10 59 -9 91.5t-73 32.5q-34 0 -62.5 -15.5t-49 -44.5t-28.5 -70l-48 -272h-135zM184 561q21 67 58.5 98t83.5 31q29 0 47 -11.5t33.5 -23t36.5 -11.5
q17 0 30.5 11.5t20.5 33.5h72q-22 -66 -59.5 -97t-84.5 -31q-28 0 -46.5 11t-34 22.5t-35.5 11.5q-17 0 -30 -11t-21 -34h-71z" />
    <glyph glyph-name="ograve" unicode="&#xf2;" horiz-adv-x="614" 
d="M265 -12q-68 0 -118 30.5t-76 83.5t-22 121q2 62 26 115.5t64.5 93t93.5 62t115 22.5q68 0 118 -30t76.5 -82.5t23.5 -121.5q-3 -63 -27 -116.5t-65 -93.5t-94 -62t-115 -22zM283 105q40 0 71.5 21.5t51 60.5t21.5 90q3 39 -9 66.5t-34.5 41.5t-52.5 14q-39 0 -70.5 -22
t-51 -60.5t-22.5 -89.5q-2 -39 10 -66.5t34.5 -41.5t51.5 -14zM463 544l-202 112l33 102v0l197 -125z" />
    <glyph glyph-name="oacute" unicode="&#xf3;" horiz-adv-x="614" 
d="M265 -12q-68 0 -118 30.5t-76 83.5t-22 121q2 62 26 115.5t64.5 93t93.5 62t115 22.5q68 0 118 -30t76.5 -82.5t23.5 -121.5q-3 -63 -27 -116.5t-65 -93.5t-94 -62t-115 -22zM283 105q40 0 71.5 21.5t51 60.5t21.5 90q3 39 -9 66.5t-34.5 41.5t-52.5 14q-39 0 -70.5 -22
t-51 -60.5t-22.5 -89.5q-2 -39 10 -66.5t34.5 -41.5t51.5 -14zM261 544l-3 89l230 125v0l4 -102z" />
    <glyph glyph-name="ocircumflex" unicode="&#xf4;" horiz-adv-x="614" 
d="M265 -12q-68 0 -118 30.5t-76 83.5t-22 121q2 62 26 115.5t64.5 93t93.5 62t115 22.5q68 0 118 -30t76.5 -82.5t23.5 -121.5q-3 -63 -27 -116.5t-65 -93.5t-94 -62t-115 -22zM283 105q40 0 71.5 21.5t51 60.5t21.5 90q3 39 -9 66.5t-34.5 41.5t-52.5 14q-39 0 -70.5 -22
t-51 -60.5t-22.5 -89.5q-2 -39 10 -66.5t34.5 -41.5t51.5 -14zM211 549l18 96l162 82l133 -82l-18 -96l-132 85z" />
    <glyph glyph-name="otilde" unicode="&#xf5;" horiz-adv-x="614" 
d="M265 -12q-68 0 -118 30.5t-76 83.5t-22 121q2 62 26 115.5t64.5 93t93.5 62t115 22.5q68 0 118 -30t76.5 -82.5t23.5 -121.5q-3 -63 -27 -116.5t-65 -93.5t-94 -62t-115 -22zM283 105q40 0 71.5 21.5t51 60.5t21.5 90q3 39 -9 66.5t-34.5 41.5t-52.5 14q-39 0 -70.5 -22
t-51 -60.5t-22.5 -89.5q-2 -39 10 -66.5t34.5 -41.5t51.5 -14zM181 561q21 67 58.5 98t83.5 31q29 0 47 -11.5t33.5 -23t36.5 -11.5q17 0 30.5 11.5t20.5 33.5h72q-22 -66 -59.5 -97t-84.5 -31q-28 0 -46.5 11t-34 22.5t-35.5 11.5q-17 0 -30 -11t-21 -34h-71z" />
    <glyph glyph-name="odieresis" unicode="&#xf6;" horiz-adv-x="614" 
d="M265 -12q-68 0 -118 30.5t-76 83.5t-22 121q2 62 26 115.5t64.5 93t93.5 62t115 22.5q68 0 118 -30t76.5 -82.5t23.5 -121.5q-3 -63 -27 -116.5t-65 -93.5t-94 -62t-115 -22zM283 105q40 0 71.5 21.5t51 60.5t21.5 90q3 39 -9 66.5t-34.5 41.5t-52.5 14q-39 0 -70.5 -22
t-51 -60.5t-22.5 -89.5q-2 -39 10 -66.5t34.5 -41.5t51.5 -14zM281 571q-27 0 -45 18t-18 45t18 45.5t45 18.5q28 0 46 -18.5t18 -45.5t-18 -45t-46 -18zM465 571q-27 0 -45.5 18t-18.5 45t18.5 45.5t45.5 18.5t45.5 -18.5t18.5 -45.5t-18.5 -45t-45.5 -18z" />
    <glyph glyph-name="divide" unicode="&#xf7;" horiz-adv-x="579" 
d="M69 233l20 113h434l-19 -113h-435zM264 30q-36 0 -59 22.5t-23 55.5t23 55.5t59 22.5t59 -22.5t23 -55.5t-23 -55.5t-59 -22.5zM328 394q-36 0 -59 22.5t-23 55.5t23 55.5t59 22.5q37 0 60 -22.5t23 -55.5t-23.5 -55.5t-59.5 -22.5z" />
    <glyph glyph-name="oslash" unicode="&#xf8;" horiz-adv-x="594" 
d="M-16 0l522 504h104l-522 -504h-104zM257 -12q-67 0 -117 30.5t-76 83.5t-23 121q3 62 26.5 115.5t64.5 93t94 62t114 22.5q68 0 118.5 -30t77 -82.5t22.5 -121.5q-2 -63 -26 -116.5t-65 -93.5t-94 -62t-116 -22zM276 105q39 0 70.5 21.5t51 60.5t22.5 90q2 39 -10 66.5
t-34.5 41.5t-51.5 14q-39 0 -71 -22t-51.5 -60.5t-21.5 -89.5q-3 -39 9 -66.5t35 -41.5t52 -14z" />
    <glyph glyph-name="ugrave" unicode="&#xf9;" horiz-adv-x="618" 
d="M210 -12q-65 0 -103.5 27.5t-51.5 78t-1 118.5l51 292h135l-50 -279q-9 -59 9 -91t72 -32q34 0 63 15t50 44t29 71l47 272h135l-88 -504h-119l2 80v0q-29 -42 -75.5 -67t-104.5 -25zM465 544l-202 112l33 102v0l197 -125z" />
    <glyph glyph-name="uacute" unicode="&#xfa;" horiz-adv-x="618" 
d="M210 -12q-65 0 -103.5 27.5t-51.5 78t-1 118.5l51 292h135l-50 -279q-9 -59 9 -91t72 -32q34 0 63 15t50 44t29 71l47 272h135l-88 -504h-119l2 80v0q-29 -42 -75.5 -67t-104.5 -25zM264 544l-3 89l230 125v0l4 -102z" />
    <glyph glyph-name="ucircumflex" unicode="&#xfb;" horiz-adv-x="618" 
d="M210 -12q-65 0 -103.5 27.5t-51.5 78t-1 118.5l51 292h135l-50 -279q-9 -59 9 -91t72 -32q34 0 63 15t50 44t29 71l47 272h135l-88 -504h-119l2 80v0q-29 -42 -75.5 -67t-104.5 -25zM213 549l18 96l162 82l133 -82l-18 -96l-132 85z" />
    <glyph glyph-name="udieresis" unicode="&#xfc;" horiz-adv-x="618" 
d="M210 -12q-65 0 -103.5 27.5t-51.5 78t-1 118.5l51 292h135l-50 -279q-9 -59 9 -91t72 -32q34 0 63 15t50 44t29 71l47 272h135l-88 -504h-119l2 80v0q-29 -42 -75.5 -67t-104.5 -25zM284 571q-27 0 -45 18t-18 45t18 45.5t45 18.5q28 0 46 -18.5t18 -45.5t-18 -45
t-46 -18zM468 571q-27 0 -45.5 18t-18.5 45t18.5 45.5t45.5 18.5t45.5 -18.5t18.5 -45.5t-18.5 -45t-45.5 -18z" />
    <glyph glyph-name="yacute" unicode="&#xfd;" horiz-adv-x="605" 
d="M48 -220l159 257h-30l-112 467h145l78 -344v0l197 344h144l-439 -724h-142zM258 544l-3 89l230 125v0l4 -102z" />
    <glyph glyph-name="thorn" unicode="&#xfe;" horiz-adv-x="652" 
d="M-17 -220l165 940h133l-48 -284q19 23 44.5 41t57.5 28.5t70 10.5q64 0 109.5 -30.5t69 -82.5t20.5 -118q-3 -61 -26 -115.5t-62 -95t-89.5 -63.5t-108.5 -23q-36 0 -65.5 10t-50.5 27.5t-34 40.5l-50 -286h-135zM308 106q43 0 77.5 21t55.5 58t23 84q3 37 -10.5 66
t-39 46t-62.5 17q-43 0 -77.5 -21.5t-55.5 -59t-24 -85.5q-2 -37 11.5 -65.5t39.5 -44.5t62 -16z" />
    <glyph glyph-name="ydieresis" unicode="&#xff;" horiz-adv-x="605" 
d="M48 -220l159 257h-30l-112 467h145l78 -344v0l197 344h144l-439 -724h-142zM278 571q-27 0 -45 18t-18 45t18 45.5t45 18.5q28 0 46 -18.5t18 -45.5t-18 -45t-46 -18zM462 571q-27 0 -45.5 18t-18.5 45t18.5 45.5t45.5 18.5t45.5 -18.5t18.5 -45.5t-18.5 -45t-45.5 -18z
" />
    <glyph glyph-name="Amacron" unicode="&#x100;" horiz-adv-x="709" 
d="M-22 0l379 700h154l131 -700h-143l-92 549v0l-287 -549h-142zM111 159l53 104h369l17 -104h-439zM264 816l17 95h378l-16 -95h-379z" />
    <glyph glyph-name="amacron" unicode="&#x101;" horiz-adv-x="592" 
d="M190 -12q-58 0 -93.5 18.5t-52 50t-14.5 69.5q2 52 32 90t84.5 59t127.5 21h124q7 37 1.5 61.5t-24.5 36.5t-54 12q-37 0 -66.5 -16.5t-42.5 -50.5h-131q15 54 52 93.5t90.5 61.5t117.5 22q71 0 118.5 -24.5t68 -69.5t8.5 -110l-55 -312h-118l2 76v0q-14 -19 -32 -35.5
t-40 -28t-47.5 -18t-55.5 -6.5zM240 92q25 0 48 9.5t41 26t30.5 38t18.5 45.5v2h-103q-30 0 -52 -8.5t-34 -24t-13 -36.5q-2 -25 16 -38.5t48 -13.5zM159 587l17 95h378l-16 -95h-379z" />
    <glyph glyph-name="Abreve" unicode="&#x102;" horiz-adv-x="709" 
d="M-22 0l379 700h154l131 -700h-143l-92 549v0l-287 -549h-142zM111 159l53 104h369l17 -104h-439zM444 770q-48 0 -80 19t-45 54t-5 82l4 17h70q-6 -33 10 -52t64 -19q49 0 71.5 19t28.5 52h71l-3 -17q-8 -48 -33.5 -82.5t-64.5 -53.5t-88 -19z" />
    <glyph glyph-name="abreve" unicode="&#x103;" horiz-adv-x="592" 
d="M190 -12q-58 0 -93.5 18.5t-52 50t-14.5 69.5q2 52 32 90t84.5 59t127.5 21h124q7 37 1.5 61.5t-24.5 36.5t-54 12q-37 0 -66.5 -16.5t-42.5 -50.5h-131q15 54 52 93.5t90.5 61.5t117.5 22q71 0 118.5 -24.5t68 -69.5t8.5 -110l-55 -312h-118l2 76v0q-14 -19 -32 -35.5
t-40 -28t-47.5 -18t-55.5 -6.5zM240 92q25 0 48 9.5t41 26t30.5 38t18.5 45.5v2h-103q-30 0 -52 -8.5t-34 -24t-13 -36.5q-2 -25 16 -38.5t48 -13.5zM342 558q-48 0 -80 19t-45 54t-5 82l4 17h70q-6 -33 10 -52t64 -19q49 0 71.5 19t28.5 52h71l-3 -17q-8 -48 -33.5 -82.5
t-64.5 -53.5t-88 -19z" />
    <glyph glyph-name="Aogonek" unicode="&#x104;" horiz-adv-x="709" 
d="M-22 0l379 700h154l131 -700h-143l-92 549v0l-287 -549h-142zM111 159l53 104h369l17 -104h-439zM522 -211q-37 0 -66 11t-43 35t-8 60q5 27 22.5 52t53 49t94.5 47l48 20l19 -63l-55 -25q-39 -18 -56.5 -34t-21.5 -34q-3 -18 8.5 -29t35.5 -11q15 0 34 4t40 11l-14 -79
q-20 -7 -43.5 -10.5t-47.5 -3.5z" />
    <glyph glyph-name="aogonek" unicode="&#x105;" horiz-adv-x="592" 
d="M190 -12q-58 0 -93.5 18.5t-52 50t-14.5 69.5q2 52 32 90t84.5 59t127.5 21h124q7 37 1.5 61.5t-24.5 36.5t-54 12q-37 0 -66.5 -16.5t-42.5 -50.5h-131q15 54 52 93.5t90.5 61.5t117.5 22q71 0 118.5 -24.5t68 -69.5t8.5 -110l-55 -312h-118l2 76v0q-14 -19 -32 -35.5
t-40 -28t-47.5 -18t-55.5 -6.5zM240 92q25 0 48 9.5t41 26t30.5 38t18.5 45.5v2h-103q-30 0 -52 -8.5t-34 -24t-13 -36.5q-2 -25 16 -38.5t48 -13.5zM361 -211q-37 0 -66 11t-43 35t-8 60q5 27 22.5 52t53 49t94.5 47l48 20l19 -63l-55 -25q-39 -18 -56.5 -34t-21.5 -34
q-3 -18 8.5 -29t35.5 -11q15 0 34 4t40 11l-14 -79q-20 -7 -43.5 -10.5t-47.5 -3.5z" />
    <glyph glyph-name="Cacute" unicode="&#x106;" horiz-adv-x="739" 
d="M339 -12q-94 0 -158.5 38t-95.5 105.5t-27 157.5q4 91 36 168t86.5 134.5t127 89t157.5 31.5q126 0 196.5 -63t70.5 -178h-149q-1 56 -37 87.5t-103 31.5q-52 0 -95.5 -21.5t-76.5 -60.5t-52 -92t-22 -116q-3 -60 15.5 -102.5t56 -65.5t91.5 -23q67 0 112 29t67 83h149
q-26 -74 -76.5 -126t-120 -79.5t-152.5 -27.5zM375 753l-3 89l230 125v0l4 -102z" />
    <glyph glyph-name="cacute" unicode="&#x107;" horiz-adv-x="609" 
d="M265 -12q-69 0 -119.5 29t-76 80t-22.5 118q3 64 27.5 118.5t66.5 95.5t97 64t119 23q97 0 155 -52t58 -144h-142q-1 38 -26.5 59t-64.5 21q-41 0 -74.5 -22.5t-53.5 -61.5t-23 -89q-1 -29 5 -52t19 -39t31.5 -24.5t42.5 -8.5q27 0 50.5 9.5t42 27.5t27.5 43h143
q-22 -58 -63.5 -102t-97.5 -68.5t-121 -24.5zM260 544l-3 89l230 125v0l4 -102z" />
    <glyph glyph-name="Cdotaccent" unicode="&#x10a;" horiz-adv-x="739" 
d="M339 -12q-94 0 -158.5 38t-95.5 105.5t-27 157.5q4 91 36 168t86.5 134.5t127 89t157.5 31.5q126 0 196.5 -63t70.5 -178h-149q-1 56 -37 87.5t-103 31.5q-52 0 -95.5 -21.5t-76.5 -60.5t-52 -92t-22 -116q-3 -60 15.5 -102.5t56 -65.5t91.5 -23q67 0 112 29t67 83h149
q-26 -74 -76.5 -126t-120 -79.5t-152.5 -27.5zM486 770q-26 0 -44.5 18.5t-18.5 44.5q0 28 18.5 46.5t44.5 18.5q28 0 46 -18.5t18 -46.5q0 -26 -18 -44.5t-46 -18.5z" />
    <glyph glyph-name="cdotaccent" unicode="&#x10b;" horiz-adv-x="609" 
d="M265 -12q-69 0 -119.5 29t-76 80t-22.5 118q3 64 27.5 118.5t66.5 95.5t97 64t119 23q97 0 155 -52t58 -144h-142q-1 38 -26.5 59t-64.5 21q-41 0 -74.5 -22.5t-53.5 -61.5t-23 -89q-1 -29 5 -52t19 -39t31.5 -24.5t42.5 -8.5q27 0 50.5 9.5t42 27.5t27.5 43h143
q-22 -58 -63.5 -102t-97.5 -68.5t-121 -24.5zM371 568q-26 0 -44.5 18.5t-18.5 44.5q0 28 18.5 46.5t44.5 18.5q28 0 46 -18.5t18 -46.5q0 -26 -18 -44.5t-46 -18.5z" />
    <glyph glyph-name="Ccaron" unicode="&#x10c;" horiz-adv-x="739" 
d="M339 -12q-94 0 -158.5 38t-95.5 105.5t-27 157.5q4 91 36 168t86.5 134.5t127 89t157.5 31.5q126 0 196.5 -63t70.5 -178h-149q-1 56 -37 87.5t-103 31.5q-52 0 -95.5 -21.5t-76.5 -60.5t-52 -92t-22 -116q-3 -60 15.5 -102.5t56 -65.5t91.5 -23q67 0 112 29t67 83h149
q-26 -74 -76.5 -126t-120 -79.5t-152.5 -27.5zM652 939l-17 -97l-162 -82l-133 82l17 97l132 -86z" />
    <glyph glyph-name="ccaron" unicode="&#x10d;" horiz-adv-x="609" 
d="M265 -12q-69 0 -119.5 29t-76 80t-22.5 118q3 64 27.5 118.5t66.5 95.5t97 64t119 23q97 0 155 -52t58 -144h-142q-1 38 -26.5 59t-64.5 21q-41 0 -74.5 -22.5t-53.5 -61.5t-23 -89q-1 -29 5 -52t19 -39t31.5 -24.5t42.5 -8.5q27 0 50.5 9.5t42 27.5t27.5 43h143
q-22 -58 -63.5 -102t-97.5 -68.5t-121 -24.5zM537 729l-18 -96l-162 -82l-133 82l18 96l132 -85z" />
    <glyph glyph-name="Dcaron" unicode="&#x10e;" horiz-adv-x="711" 
d="M25 0l123 700h235q109 0 177.5 -37t99 -104.5t26.5 -160.5q-4 -88 -35 -161t-86.5 -126.5t-132.5 -82t-172 -28.5h-235zM180 116h93q88 0 147.5 33.5t91.5 95t35 145.5q3 65 -15.5 108t-62 65t-113.5 22h-93zM584 939l-17 -97l-162 -82l-133 82l17 97l132 -86z" />
    <glyph glyph-name="dcaron" unicode="&#x10f;" horiz-adv-x="756" 
d="M241 -12q-62 0 -106.5 30.5t-67 83t-19.5 118.5q3 64 25.5 117.5t61 93.5t88.5 62.5t108 22.5q59 0 96 -21.5t55 -55.5l49 281h135l-126 -720h-120l-3 69v0q-18 -21 -43 -40t-58 -30t-75 -11zM297 106q43 0 78 22.5t56.5 60.5t23.5 85q2 38 -11 65.5t-38.5 43t-61.5 15.5
q-43 0 -77.5 -21.5t-55.5 -58.5t-23 -84q-2 -37 10.5 -66t37.5 -45.5t61 -16.5zM676 521l9 55q24 0 37 8.5t17 27.5l2 19h-47l20 106h104q2 -29 1 -51.5t-5 -46.5q-10 -57 -45 -87.5t-93 -30.5z" />
    <glyph glyph-name="Dcroat" unicode="&#x110;" horiz-adv-x="726" 
d="M13 293l21 115h380l-20 -115h-381zM41 0l123 700h234q110 0 178.5 -37t99 -104.5t25.5 -160.5q-3 -88 -34.5 -161t-86.5 -126.5t-132 -82t-173 -28.5h-234zM196 116h92q88 0 147.5 33.5t91.5 95t35 145.5q4 65 -14.5 108t-62 65t-114.5 22h-92z" />
    <glyph glyph-name="dcroat" unicode="&#x111;" horiz-adv-x="680" 
d="M367 565l14 81h344l-14 -81h-344zM241 -12q-62 0 -106.5 30.5t-67 83t-19.5 118.5q3 64 25.5 117.5t61 93.5t88.5 62.5t108 22.5q59 0 96 -21.5t55 -55.5l49 281h135l-126 -720h-120l-3 69v0q-18 -21 -43 -40t-58 -30t-75 -11zM297 106q43 0 78 22.5t56.5 60.5t23.5 85
q2 38 -11 65.5t-38.5 43t-61.5 15.5q-43 0 -77.5 -21.5t-55.5 -58.5t-23 -84q-2 -37 10.5 -66t37.5 -45.5t61 -16.5z" />
    <glyph glyph-name="Emacron" unicode="&#x112;" horiz-adv-x="566" 
d="M25 0l123 700h443l-19 -107h-308l-32 -186h278l-19 -104h-278l-34 -196h307l-19 -107h-442zM198 816l17 95h378l-16 -95h-379z" />
    <glyph glyph-name="emacron" unicode="&#x113;" horiz-adv-x="604" 
d="M263 -12q-69 0 -118.5 28t-75 79t-21.5 119q2 63 25.5 117.5t64.5 96t96 65t122 23.5q68 0 116 -28t72 -76t21 -111q0 -21 -4.5 -42.5t-9.5 -39.5h-408l14 82h274q4 34 -7 57.5t-33.5 35.5t-52.5 12q-35 0 -66.5 -15.5t-53.5 -47.5t-31 -81l-5 -29q-7 -39 2.5 -69.5
t34.5 -48t62 -17.5q38 0 65 16t44 41h138q-23 -47 -62.5 -85t-91 -60t-111.5 -22zM177 587l17 95h378l-16 -95h-379z" />
    <glyph glyph-name="Ebreve" unicode="&#x114;" horiz-adv-x="566" 
d="M25 0l123 700h443l-19 -107h-308l-32 -186h278l-19 -104h-278l-34 -196h307l-19 -107h-442zM378 770q-48 0 -80 19t-45 54t-5 82l4 17h70q-6 -33 10 -52t64 -19q49 0 71.5 19t28.5 52h71l-3 -17q-8 -48 -33.5 -82.5t-64.5 -53.5t-88 -19z" />
    <glyph glyph-name="ebreve" unicode="&#x115;" horiz-adv-x="604" 
d="M263 -12q-69 0 -118.5 28t-75 79t-21.5 119q2 63 25.5 117.5t64.5 96t96 65t122 23.5q68 0 116 -28t72 -76t21 -111q0 -21 -4.5 -42.5t-9.5 -39.5h-408l14 82h274q4 34 -7 57.5t-33.5 35.5t-52.5 12q-35 0 -66.5 -15.5t-53.5 -47.5t-31 -81l-5 -29q-7 -39 2.5 -69.5
t34.5 -48t62 -17.5q38 0 65 16t44 41h138q-23 -47 -62.5 -85t-91 -60t-111.5 -22zM360 558q-48 0 -80 19t-45 54t-5 82l4 17h70q-6 -33 10 -52t64 -19q49 0 71.5 19t28.5 52h71l-3 -17q-8 -48 -33.5 -82.5t-64.5 -53.5t-88 -19z" />
    <glyph glyph-name="Edotaccent" unicode="&#x116;" horiz-adv-x="566" 
d="M25 0l123 700h443l-19 -107h-308l-32 -186h278l-19 -104h-278l-34 -196h307l-19 -107h-442zM390 770q-26 0 -44.5 18.5t-18.5 44.5q0 28 18.5 46.5t44.5 18.5q28 0 46 -18.5t18 -46.5q0 -26 -18 -44.5t-46 -18.5z" />
    <glyph glyph-name="edotaccent" unicode="&#x117;" horiz-adv-x="604" 
d="M263 -12q-69 0 -118.5 28t-75 79t-21.5 119q2 63 25.5 117.5t64.5 96t96 65t122 23.5q68 0 116 -28t72 -76t21 -111q0 -21 -4.5 -42.5t-9.5 -39.5h-408l14 82h274q4 34 -7 57.5t-33.5 35.5t-52.5 12q-35 0 -66.5 -15.5t-53.5 -47.5t-31 -81l-5 -29q-7 -39 2.5 -69.5
t34.5 -48t62 -17.5q38 0 65 16t44 41h138q-23 -47 -62.5 -85t-91 -60t-111.5 -22zM373 568q-26 0 -44.5 18.5t-18.5 44.5q0 28 18.5 46.5t44.5 18.5q28 0 46 -18.5t18 -46.5q0 -26 -18 -44.5t-46 -18.5z" />
    <glyph glyph-name="Eogonek" unicode="&#x118;" horiz-adv-x="566" 
d="M25 0l123 700h443l-19 -107h-308l-32 -186h278l-19 -104h-278l-34 -196h307l-19 -107h-442zM347 -207q-37 0 -66 11t-43 35t-8 60q5 27 22.5 52t53 49t94.5 47l48 20l19 -63l-55 -25q-39 -18 -56.5 -34t-21.5 -34q-3 -18 8.5 -29t35.5 -11q15 0 34 4t40 11l-14 -79
q-20 -7 -43.5 -10.5t-47.5 -3.5z" />
    <glyph glyph-name="eogonek" unicode="&#x119;" horiz-adv-x="604" 
d="M263 -12q-69 0 -118.5 28t-75 79t-21.5 119q2 63 25.5 117.5t64.5 96t96 65t122 23.5q68 0 116 -28t72 -76t21 -111q0 -21 -4.5 -42.5t-9.5 -39.5h-408l14 82h274q4 34 -7 57.5t-33.5 35.5t-52.5 12q-35 0 -66.5 -15.5t-53.5 -47.5t-31 -81l-5 -29q-7 -39 2.5 -69.5
t34.5 -48t62 -17.5q38 0 65 16t44 41h138q-23 -47 -62.5 -85t-91 -60t-111.5 -22zM253 -200q-37 0 -66 11t-43 35t-8 60q5 27 22.5 52t53 49t94.5 47l48 20l19 -63l-55 -25q-39 -18 -56.5 -34t-21.5 -34q-3 -18 8.5 -29t35.5 -11q15 0 34 4t40 11l-14 -79
q-20 -7 -43.5 -10.5t-47.5 -3.5z" />
    <glyph glyph-name="Ecaron" unicode="&#x11a;" horiz-adv-x="566" 
d="M25 0l123 700h443l-19 -107h-308l-32 -186h278l-19 -104h-278l-34 -196h307l-19 -107h-442zM556 939l-17 -97l-162 -82l-133 82l17 97l132 -86z" />
    <glyph glyph-name="ecaron" unicode="&#x11b;" horiz-adv-x="604" 
d="M263 -12q-69 0 -118.5 28t-75 79t-21.5 119q2 63 25.5 117.5t64.5 96t96 65t122 23.5q68 0 116 -28t72 -76t21 -111q0 -21 -4.5 -42.5t-9.5 -39.5h-408l14 82h274q4 34 -7 57.5t-33.5 35.5t-52.5 12q-35 0 -66.5 -15.5t-53.5 -47.5t-31 -81l-5 -29q-7 -39 2.5 -69.5
t34.5 -48t62 -17.5q38 0 65 16t44 41h138q-23 -47 -62.5 -85t-91 -60t-111.5 -22zM539 729l-17 -96l-162 -82l-133 82l17 96l132 -85z" />
    <glyph glyph-name="Gbreve" unicode="&#x11e;" horiz-adv-x="781" 
d="M332 -12q-89 0 -151.5 40t-94 110t-26.5 159q3 92 35.5 168t88.5 131t131 85.5t164 30.5q124 0 196.5 -59t77.5 -164h-151q-7 46 -43 72.5t-100 26.5q-75 0 -132.5 -35.5t-91 -99t-36.5 -148.5q-4 -61 15 -105.5t58 -68t95 -23.5q61 0 106.5 22.5t75.5 63t45 92.5h-172
l18 101h308l-69 -387h-123l4 89v0q-27 -33 -60.5 -55.5t-74.5 -34t-93 -11.5zM485 770q-48 0 -80 19t-45 54t-5 82l4 17h70q-6 -33 10 -52t64 -19q49 0 71.5 19t28.5 52h71l-3 -17q-8 -48 -33.5 -82.5t-64.5 -53.5t-88 -19z" />
    <glyph glyph-name="gbreve" unicode="&#x11f;" horiz-adv-x="567" 
d="M184 -232q-67 0 -116 16t-74.5 48t-23.5 80q2 41 24.5 75t63.5 61t97 47l40 -67q-52 -16 -75 -40.5t-24 -52.5q-1 -21 11.5 -36t37 -22t55.5 -7q50 0 84 19t35 57q2 24 -15 40t-69 20q-46 3 -83.5 10.5t-66 18t-48 23.5t-31.5 27l4 23l125 112l90 -31l-146 -123l50 69
q10 -7 21.5 -13t27 -10.5t38.5 -8.5t57 -7q63 -5 101.5 -22.5t55.5 -46.5t14 -70q-2 -54 -34.5 -97t-90.5 -67.5t-135 -24.5zM249 149q-57 0 -96.5 20.5t-59 56.5t-17.5 81q3 59 34.5 106t85 75t118.5 28q58 0 97.5 -21.5t58.5 -57t16 -80.5q-2 -58 -33.5 -105.5t-84.5 -75
t-119 -27.5zM267 251q44 0 73 25.5t31 67.5q2 34 -18.5 51t-56.5 17q-44 0 -73.5 -25.5t-31.5 -67.5q-2 -33 19.5 -50.5t56.5 -17.5zM379 409l-6 95h208l-15 -81zM344 558q-48 0 -80 19t-45 54t-5 82l4 17h70q-6 -33 10 -52t64 -19q49 0 71.5 19t28.5 52h71l-3 -17
q-8 -48 -33.5 -82.5t-64.5 -53.5t-88 -19z" />
    <glyph glyph-name="Gdotaccent" unicode="&#x120;" horiz-adv-x="781" 
d="M332 -12q-89 0 -151.5 40t-94 110t-26.5 159q3 92 35.5 168t88.5 131t131 85.5t164 30.5q124 0 196.5 -59t77.5 -164h-151q-7 46 -43 72.5t-100 26.5q-75 0 -132.5 -35.5t-91 -99t-36.5 -148.5q-4 -61 15 -105.5t58 -68t95 -23.5q61 0 106.5 22.5t75.5 63t45 92.5h-172
l18 101h308l-69 -387h-123l4 89v0q-27 -33 -60.5 -55.5t-74.5 -34t-93 -11.5zM497 770q-26 0 -44.5 18.5t-18.5 44.5q0 28 18.5 46.5t44.5 18.5q28 0 46 -18.5t18 -46.5q0 -26 -18 -44.5t-46 -18.5z" />
    <glyph glyph-name="gdotaccent" unicode="&#x121;" horiz-adv-x="567" 
d="M184 -232q-67 0 -116 16t-74.5 48t-23.5 80q2 41 24.5 75t63.5 61t97 47l40 -67q-52 -16 -75 -40.5t-24 -52.5q-1 -21 11.5 -36t37 -22t55.5 -7q50 0 84 19t35 57q2 24 -15 40t-69 20q-46 3 -83.5 10.5t-66 18t-48 23.5t-31.5 27l4 23l125 112l90 -31l-146 -123l50 69
q10 -7 21.5 -13t27 -10.5t38.5 -8.5t57 -7q63 -5 101.5 -22.5t55.5 -46.5t14 -70q-2 -54 -34.5 -97t-90.5 -67.5t-135 -24.5zM249 149q-57 0 -96.5 20.5t-59 56.5t-17.5 81q3 59 34.5 106t85 75t118.5 28q58 0 97.5 -21.5t58.5 -57t16 -80.5q-2 -58 -33.5 -105.5t-84.5 -75
t-119 -27.5zM267 251q44 0 73 25.5t31 67.5q2 34 -18.5 51t-56.5 17q-44 0 -73.5 -25.5t-31.5 -67.5q-2 -33 19.5 -50.5t56.5 -17.5zM379 409l-6 95h208l-15 -81zM357 568q-26 0 -44.5 18.5t-18.5 44.5q0 28 18.5 46.5t44.5 18.5q28 0 46 -18.5t18 -46.5q0 -26 -18 -44.5
t-46 -18.5z" />
    <glyph glyph-name="uni0122" unicode="&#x122;" horiz-adv-x="781" 
d="M332 -12q-89 0 -151.5 40t-94 110t-26.5 159q3 92 35.5 168t88.5 131t131 85.5t164 30.5q124 0 196.5 -59t77.5 -164h-151q-7 46 -43 72.5t-100 26.5q-75 0 -132.5 -35.5t-91 -99t-36.5 -148.5q-4 -61 15 -105.5t58 -68t95 -23.5q61 0 106.5 22.5t75.5 63t45 92.5h-172
l18 101h308l-69 -387h-123l4 89v0q-27 -33 -60.5 -55.5t-74.5 -34t-93 -11.5zM244 -280l10 54q25 0 40 15.5t20 47.5l3 15h-56l19 104h112q4 -27 3 -52t-5 -48q-11 -64 -48.5 -100t-97.5 -36z" />
    <glyph glyph-name="uni0123" unicode="&#x123;" horiz-adv-x="567" 
d="M184 -232q-67 0 -116 16t-74.5 48t-23.5 80q2 41 24.5 75t63.5 61t97 47l40 -67q-52 -16 -75 -40.5t-24 -52.5q-1 -21 11.5 -36t37 -22t55.5 -7q50 0 84 19t35 57q2 24 -15 40t-69 20q-46 3 -83.5 10.5t-66 18t-48 23.5t-31.5 27l4 23l125 112l90 -31l-146 -123l50 69
q10 -7 21.5 -13t27 -10.5t38.5 -8.5t57 -7q63 -5 101.5 -22.5t55.5 -46.5t14 -70q-2 -54 -34.5 -97t-90.5 -67.5t-135 -24.5zM249 149q-57 0 -96.5 20.5t-59 56.5t-17.5 81q3 59 34.5 106t85 75t118.5 28q58 0 97.5 -21.5t58.5 -57t16 -80.5q-2 -58 -33.5 -105.5t-84.5 -75
t-119 -27.5zM267 251q44 0 73 25.5t31 67.5q2 34 -18.5 51t-56.5 17q-44 0 -73.5 -25.5t-31.5 -67.5q-2 -33 19.5 -50.5t56.5 -17.5zM379 409l-6 95h208l-15 -81zM442 781l-9 -54q-23 0 -36.5 -9t-17.5 -28l-2 -18h46l-19 -106h-105q-1 29 0 51.5t5 46.5q10 56 45 86.5
t93 30.5z" />
    <glyph glyph-name="Hbar" unicode="&#x126;" horiz-adv-x="773" 
d="M72 493l18 108h716l-19 -108h-715zM495 0l124 700h135l-124 -700h-135zM54 0l124 700h135l-124 -700h-135zM224 304l19 107h348l-20 -107h-347z" />
    <glyph glyph-name="hbar" unicode="&#x127;" horiz-adv-x="649" 
d="M79 565l14 81h345l-14 -81h-345zM53 0l126 720h135l-51 -291v0q31 39 77 63t101 24q63 0 101.5 -26.5t52.5 -76.5t0 -124l-51 -289h-134l48 277q11 60 -9 92.5t-73 32.5q-34 0 -63.5 -16t-50 -46.5t-27.5 -72.5l-47 -267h-135z" />
    <glyph glyph-name="Itilde" unicode="&#x128;" horiz-adv-x="273" 
d="M25 0l123 700h135l-123 -700h-135zM49 769q21 67 58.5 98t83.5 31q29 0 47 -11.5t33.5 -23t36.5 -11.5q17 0 30.5 11.5t20.5 33.5h72q-22 -66 -59.5 -97t-84.5 -31q-28 0 -46.5 11t-34 22.5t-35.5 11.5q-17 0 -30 -11t-21 -34h-71z" />
    <glyph glyph-name="itilde" unicode="&#x129;" horiz-adv-x="267" 
d="M22 0l88 504h135l-88 -504h-135zM8 561q21 67 58.5 98t83.5 31q29 0 47 -11.5t33.5 -23t36.5 -11.5q17 0 30.5 11.5t20.5 33.5h72q-22 -66 -59.5 -97t-84.5 -31q-28 0 -46.5 11t-34 22.5t-35.5 11.5q-17 0 -30 -11t-21 -34h-71z" />
    <glyph glyph-name="Imacron" unicode="&#x12a;" horiz-adv-x="273" 
d="M25 0l123 700h135l-123 -700h-135zM47 816l17 95h378l-16 -95h-379z" />
    <glyph glyph-name="imacron" unicode="&#x12b;" horiz-adv-x="267" 
d="M22 0l88 504h135l-88 -504h-135zM2 587l17 95h378l-16 -95h-379z" />
    <glyph glyph-name="Ibreve" unicode="&#x12c;" horiz-adv-x="273" 
d="M25 0l123 700h135l-123 -700h-135zM227 770q-48 0 -80 19t-45 54t-5 82l4 17h70q-6 -33 10 -52t64 -19q49 0 71.5 19t28.5 52h71l-3 -17q-8 -48 -33.5 -82.5t-64.5 -53.5t-88 -19z" />
    <glyph glyph-name="ibreve" unicode="&#x12d;" horiz-adv-x="267" 
d="M22 0l88 504h135l-88 -504h-135zM186 558q-48 0 -80 19t-45 54t-5 82l4 17h70q-6 -33 10 -52t64 -19q49 0 71.5 19t28.5 52h71l-3 -17q-8 -48 -33.5 -82.5t-64.5 -53.5t-88 -19z" />
    <glyph glyph-name="Iogonek" unicode="&#x12e;" horiz-adv-x="273" 
d="M25 0l123 700h135l-123 -700h-135zM39 -211q-37 0 -66 11t-43 35t-8 60q5 27 22.5 52t53 49t94.5 47l48 20l19 -63l-55 -25q-39 -18 -56.5 -34t-21.5 -34q-3 -18 8.5 -29t35.5 -11q15 0 34 4t40 11l-14 -79q-20 -7 -43.5 -10.5t-47.5 -3.5z" />
    <glyph glyph-name="iogonek" unicode="&#x12f;" horiz-adv-x="267" 
d="M22 0l88 504h135l-88 -504h-135zM199 568q-26 0 -44.5 18.5t-18.5 44.5q0 28 18.5 46.5t44.5 18.5q28 0 46 -18.5t18 -46.5q0 -26 -18 -44.5t-46 -18.5zM37 -211q-37 0 -66 11t-43 35t-8 60q5 27 22.5 52t53 49t94.5 47l48 20l19 -63l-55 -25q-39 -18 -56.5 -34
t-21.5 -34q-3 -18 8.5 -29t35.5 -11q15 0 34 4t40 11l-14 -79q-20 -7 -43.5 -10.5t-47.5 -3.5z" />
    <glyph glyph-name="Idotaccent" unicode="&#x130;" horiz-adv-x="273" 
d="M25 0l123 700h135l-123 -700h-135zM238 770q-26 0 -44.5 18.5t-18.5 44.5q0 28 18.5 46.5t44.5 18.5q28 0 46 -18.5t18 -46.5q0 -26 -18 -44.5t-46 -18.5z" />
    <glyph glyph-name="dotlessi" unicode="&#x131;" horiz-adv-x="267" 
d="M22 0l88 504h135l-88 -504h-135z" />
    <glyph glyph-name="IJ" unicode="&#x132;" horiz-adv-x="774" 
d="M25 0l123 700h135l-123 -700h-135zM445 -12q-67 0 -113 26t-65.5 76t-6.5 122h135q-6 -32 -1 -55t22.5 -35.5t46.5 -12.5q28 0 48.5 11.5t33 32t17.5 48.5l87 499h135l-87 -499q-18 -102 -86.5 -157.5t-165.5 -55.5z" />
    <glyph glyph-name="ij" unicode="&#x133;" horiz-adv-x="531" 
d="M26 0l89 504h135l-89 -504h-135zM208 570q-37 0 -60 22.5t-23 54.5q0 34 23 56t60 22t60.5 -22t23.5 -56q0 -32 -24 -54.5t-60 -22.5zM130 -220l20 115h41q32 0 47.5 13t20.5 42l98 554h135l-98 -553q-11 -62 -39 -99.5t-69.5 -54.5t-95.5 -17h-60zM451 570
q-37 0 -60.5 22.5t-23.5 54.5q0 34 23.5 56t60.5 22q36 0 59.5 -22t23.5 -56q0 -32 -23.5 -54.5t-59.5 -22.5z" />
    <glyph glyph-name="uni0136" unicode="&#x136;" horiz-adv-x="654" 
d="M25 0l123 700h135l-48 -277l302 277h166l-306 -277l190 -423h-160l-142 322l-81 -74l-44 -248h-135zM177 -280l10 54q25 0 40 15.5t20 47.5l3 15h-56l19 104h112q4 -27 3 -52t-5 -48q-11 -64 -48.5 -100t-97.5 -36z" />
    <glyph glyph-name="uni0137" unicode="&#x137;" horiz-adv-x="586" 
d="M366 0l-178 280l233 224h165l-289 -262l10 76l220 -318h-161zM22 0l127 720h135l-127 -720h-135zM142 -280l10 54q25 0 40 15.5t20 47.5l3 15h-56l19 104h112q4 -27 3 -52t-5 -48q-11 -64 -48.5 -100t-97.5 -36z" />
    <glyph glyph-name="Lacute" unicode="&#x139;" horiz-adv-x="559" 
d="M25 0l123 700h135l-104 -595h307l-19 -105h-442zM128 753l-3 89l230 125v0l4 -102z" />
    <glyph glyph-name="lacute" unicode="&#x13a;" horiz-adv-x="268" 
d="M22 0l127 720h135l-127 -720h-135zM127 761l-3 89l230 125v0l4 -102z" />
    <glyph glyph-name="uni013B" unicode="&#x13b;" horiz-adv-x="559" 
d="M25 0l123 700h135l-104 -595h307l-19 -105h-442zM135 -280l10 54q25 0 40 15.5t20 47.5l3 15h-56l19 104h112q4 -27 3 -52t-5 -48q-11 -64 -48.5 -100t-97.5 -36z" />
    <glyph glyph-name="uni013C" unicode="&#x13c;" horiz-adv-x="268" 
d="M22 0l127 720h135l-127 -720h-135zM-17 -280l10 54q25 0 40 15.5t20 47.5l3 15h-56l19 104h112q4 -27 3 -52t-5 -48q-11 -64 -48.5 -100t-97.5 -36z" />
    <glyph glyph-name="Lcaron" unicode="&#x13d;" horiz-adv-x="559" 
d="M25 0l123 700h135l-104 -595h307l-19 -105h-442zM316 509l9 55q24 0 37 8.5t17 27.5l2 19h-47l20 106h104q2 -29 1 -51.5t-5 -46.5q-10 -57 -45 -87.5t-93 -30.5z" />
    <glyph glyph-name="lcaron" unicode="&#x13e;" horiz-adv-x="373" 
d="M22 0l127 720h135l-127 -720h-135zM294 521l9 55q24 0 37 8.5t17 27.5l2 19h-47l20 106h104q2 -29 1 -51.5t-5 -46.5q-10 -57 -45 -87.5t-93 -30.5z" />
    <glyph glyph-name="Ldot" unicode="&#x13f;" horiz-adv-x="559" 
d="M25 0l123 700h135l-104 -595h307l-19 -105h-442zM400 272q-37 0 -60.5 22.5t-23.5 55.5t23.5 55.5t60.5 22.5t60 -22.5t23 -55.5t-23 -55.5t-60 -22.5z" />
    <glyph glyph-name="ldot" unicode="&#x140;" horiz-adv-x="373" 
d="M22 0l127 720h135l-127 -720h-135zM340 282q-37 0 -60.5 22.5t-23.5 55.5t23.5 55.5t60.5 22.5t60 -22.5t23 -55.5t-23 -55.5t-60 -22.5z" />
    <glyph glyph-name="Lslash" unicode="&#x141;" horiz-adv-x="589" 
d="M25 259l21 125l324 100l-22 -125zM54 0l124 700h135l-105 -595h307l-18 -105h-443z" />
    <glyph glyph-name="lslash" unicode="&#x142;" horiz-adv-x="300" 
d="M17 284l20 117l294 93l-20 -117zM38 0l127 720h135l-127 -720h-135z" />
    <glyph glyph-name="Nacute" unicode="&#x143;" horiz-adv-x="730" 
d="M25 0l123 700h136l235 -487v0l86 487h135l-124 -700h-134l-236 487v0l-86 -487h-135zM357 753l-3 89l230 125v0l4 -102z" />
    <glyph glyph-name="nacute" unicode="&#x144;" horiz-adv-x="617" 
d="M22 0l88 504h119l-2 -80v0q30 42 76.5 67t104.5 25q65 0 103 -28t51.5 -78t1.5 -119l-52 -291h-134l49 278q10 59 -9 91.5t-73 32.5q-34 0 -62.5 -15.5t-49 -44.5t-28.5 -70l-48 -272h-135zM264 544l-3 89l230 125v0l4 -102z" />
    <glyph glyph-name="uni0145" unicode="&#x145;" horiz-adv-x="730" 
d="M25 0l123 700h136l235 -487v0l86 487h135l-124 -700h-134l-236 487v0l-86 -487h-135zM216 -280l10 54q25 0 40 15.5t20 47.5l3 15h-56l19 104h112q4 -27 3 -52t-5 -48q-11 -64 -48.5 -100t-97.5 -36z" />
    <glyph glyph-name="uni0146" unicode="&#x146;" horiz-adv-x="617" 
d="M22 0l88 504h119l-2 -80v0q30 42 76.5 67t104.5 25q65 0 103 -28t51.5 -78t1.5 -119l-52 -291h-134l49 278q10 59 -9 91.5t-73 32.5q-34 0 -62.5 -15.5t-49 -44.5t-28.5 -70l-48 -272h-135zM158 -280l10 54q25 0 40 15.5t20 47.5l3 15h-56l19 104h112q4 -27 3 -52t-5 -48
q-11 -64 -48.5 -100t-97.5 -36z" />
    <glyph glyph-name="Ncaron" unicode="&#x147;" horiz-adv-x="730" 
d="M25 0l123 700h136l235 -487v0l86 487h135l-123 -700h-135l-236 487v0l-86 -487h-135zM634 939l-17 -97l-162 -82l-133 82l17 97l133 -86z" />
    <glyph glyph-name="ncaron" unicode="&#x148;" horiz-adv-x="617" 
d="M22 0l88 504h119l-2 -80v0q30 42 76.5 67t104.5 25q65 0 103 -28t51.5 -78t1.5 -119l-52 -291h-134l49 278q10 59 -9 91.5t-73 32.5q-34 0 -62.5 -15.5t-49 -44.5t-28.5 -70l-48 -272h-135zM541 729l-17 -96l-163 -82l-132 82l17 96l132 -85z" />
    <glyph glyph-name="Eng" unicode="&#x14a;" horiz-adv-x="729" 
d="M25 0l123 700h135l237 -483v0l85 483h135l-132 -749q-11 -62 -39 -99.5t-70 -54.5t-95 -17h-61l20 115h41q32 0 48 12.5t21 42.5l9 50l-237 482v0l-85 -482h-135z" />
    <glyph glyph-name="eng" unicode="&#x14b;" horiz-adv-x="622" 
d="M22 0l89 504h119l-5 -82v0q30 42 77.5 68t106.5 26q62 0 101 -26t53 -76t0 -123l-60 -340q-10 -62 -38 -99.5t-70 -54.5t-95 -17h-61l20 115h40q33 0 49 13t21 42l58 328q11 60 -9.5 92t-73.5 32q-33 0 -62.5 -16t-49.5 -45.5t-28 -71.5l-47 -269h-135z" />
    <glyph glyph-name="Omacron" unicode="&#x14c;" horiz-adv-x="793" 
d="M354 -12q-91 0 -159 41t-104 112.5t-31 164.5q3 85 36.5 159t89.5 129.5t130 86.5t158 31q91 0 159 -41t103.5 -112.5t31.5 -163.5q-4 -86 -37.5 -160t-89.5 -129.5t-129.5 -86.5t-157.5 -31zM372 109q52 0 97.5 21t80.5 58.5t55.5 88t23.5 110.5q3 62 -16 107.5
t-58.5 70.5t-98.5 25q-52 0 -97.5 -20.5t-80.5 -58t-56 -87.5t-23 -110q-4 -62 16 -108t60 -71.5t97 -25.5zM309 816l17 95h378l-16 -95h-379z" />
    <glyph glyph-name="omacron" unicode="&#x14d;" horiz-adv-x="614" 
d="M265 -12q-68 0 -118 30.5t-76 83.5t-22 121q2 62 26 115.5t64.5 93t93.5 62t115 22.5q68 0 118 -30t76.5 -82.5t23.5 -121.5q-3 -63 -27 -116.5t-65 -93.5t-94 -62t-115 -22zM283 105q40 0 71.5 21.5t51 60.5t21.5 90q3 39 -9 66.5t-34.5 41.5t-52.5 14q-39 0 -70.5 -22
t-51 -60.5t-22.5 -89.5q-2 -39 10 -66.5t34.5 -41.5t51.5 -14zM175 587l17 95h378l-16 -95h-379z" />
    <glyph glyph-name="Obreve" unicode="&#x14e;" horiz-adv-x="793" 
d="M354 -12q-91 0 -159 41t-104 112.5t-31 164.5q3 85 36.5 159t89.5 129.5t130 86.5t158 31q91 0 159 -41t103.5 -112.5t31.5 -163.5q-4 -86 -37.5 -160t-89.5 -129.5t-129.5 -86.5t-157.5 -31zM372 109q52 0 97.5 21t80.5 58.5t55.5 88t23.5 110.5q3 62 -16 107.5
t-58.5 70.5t-98.5 25q-52 0 -97.5 -20.5t-80.5 -58t-56 -87.5t-23 -110q-4 -62 16 -108t60 -71.5t97 -25.5zM489 770q-48 0 -80 19t-45 54t-5 82l4 17h70q-6 -33 10 -52t64 -19q49 0 71.5 19t28.5 52h71l-3 -17q-8 -48 -33.5 -82.5t-64.5 -53.5t-88 -19z" />
    <glyph glyph-name="obreve" unicode="&#x14f;" horiz-adv-x="614" 
d="M265 -12q-68 0 -118 30.5t-76 83.5t-22 121q2 62 26 115.5t64.5 93t93.5 62t115 22.5q68 0 118 -30t76.5 -82.5t23.5 -121.5q-3 -63 -27 -116.5t-65 -93.5t-94 -62t-115 -22zM283 105q40 0 71.5 21.5t51 60.5t21.5 90q3 39 -9 66.5t-34.5 41.5t-52.5 14q-39 0 -70.5 -22
t-51 -60.5t-22.5 -89.5q-2 -39 10 -66.5t34.5 -41.5t51.5 -14zM359 558q-48 0 -80 19t-45 54t-5 82l4 17h70q-6 -33 10 -52t64 -19q49 0 71.5 19t28.5 52h71l-3 -17q-8 -48 -33.5 -82.5t-64.5 -53.5t-88 -19z" />
    <glyph glyph-name="Ohungarumlaut" unicode="&#x150;" horiz-adv-x="793" 
d="M354 -12q-91 0 -159 41t-104 112.5t-31 164.5q3 85 36.5 159t89.5 129.5t130 86.5t158 31q91 0 159 -41t103.5 -112.5t31.5 -163.5q-4 -86 -37.5 -160t-89.5 -129.5t-129.5 -86.5t-157.5 -31zM372 109q52 0 97.5 21t80.5 58.5t55.5 88t23.5 110.5q3 62 -16 107.5
t-58.5 70.5t-98.5 25q-52 0 -97.5 -20.5t-80.5 -58t-56 -87.5t-23 -110q-4 -62 16 -108t60 -71.5t97 -25.5zM475 760l119 185h110l-144 -185h-85zM302 760l104 185h109l-129 -185h-84z" />
    <glyph glyph-name="ohungarumlaut" unicode="&#x151;" horiz-adv-x="614" 
d="M265 -12q-68 0 -118 30.5t-76 83.5t-22 121q2 62 26 115.5t64.5 93t93.5 62t115 22.5q68 0 118 -30t76.5 -82.5t23.5 -121.5q-3 -63 -27 -116.5t-65 -93.5t-94 -62t-115 -22zM283 105q40 0 71.5 21.5t51 60.5t21.5 90q3 39 -9 66.5t-34.5 41.5t-52.5 14q-39 0 -70.5 -22
t-51 -60.5t-22.5 -89.5q-2 -39 10 -66.5t34.5 -41.5t51.5 -14zM347 551l119 185h110l-144 -185h-85zM174 551l104 185h109l-129 -185h-84z" />
    <glyph glyph-name="OE" unicode="&#x152;" horiz-adv-x="1097" 
d="M340 -12q-88 0 -152.5 41.5t-98 114.5t-28.5 165q3 87 35.5 160t87.5 127.5t125 85t148 30.5q46 0 87 -12t73.5 -34t51.5 -53l15 87h439l-20 -109h-303l-32 -183h273l-19 -105h-273l-35 -194h304l-19 -109h-439l15 85q-29 -31 -68.5 -53t-82.5 -33t-84 -11zM370 109
q52 0 97 21.5t80 60t55.5 89.5t22.5 110q4 63 -17 107.5t-61.5 68.5t-94.5 24q-50 0 -94.5 -20.5t-79 -57.5t-55 -87t-23.5 -108q-3 -64 17.5 -110.5t60 -72t92.5 -25.5z" />
    <glyph glyph-name="oe" unicode="&#x153;" horiz-adv-x="982" 
d="M265 -12q-68 0 -118 30.5t-76 83.5t-22 121q2 62 26 115.5t64.5 93t93.5 62t115 22.5q58 0 103.5 -23t72.5 -63q40 40 93.5 63t117.5 23q68 0 115.5 -28t71.5 -76t21 -111q0 -13 -2.5 -29t-5.5 -30t-6 -23h-371q-4 -35 7 -62t35 -43t60 -16q39 0 66.5 17t45.5 45h137
q-23 -49 -63 -88t-92 -61.5t-112 -22.5q-59 0 -103.5 21.5t-71.5 59.5q-39 -38 -91 -59.5t-111 -21.5zM283 105q40 0 71.5 21.5t51 60.5t21.5 90q3 39 -9 66.5t-34.5 41.5t-52.5 14q-39 0 -70.5 -22t-51 -60.5t-22.5 -89.5q-2 -39 10 -66.5t34.5 -41.5t51.5 -14zM576 301
h234q3 34 -8 57.5t-33.5 35.5t-52.5 12t-57.5 -11.5t-49 -34.5t-33.5 -59z" />
    <glyph glyph-name="Racute" unicode="&#x154;" horiz-adv-x="631" 
d="M25 0l123 700h259q77 0 126 -26.5t71 -70t20 -96.5q-3 -69 -39.5 -121.5t-101 -82t-150.5 -29.5h-125l-48 -274h-135zM394 0l-90 308h141l97 -308h-148zM226 372h118q63 0 101 33t40 90q2 41 -22.5 66.5t-80.5 25.5h-118zM277 753l-3 89l230 125v0l4 -102z" />
    <glyph glyph-name="racute" unicode="&#x155;" horiz-adv-x="410" 
d="M22 0l88 504h121l-3 -91v0q24 32 55.5 54.5t69.5 35.5t80 13l-24 -143h-47q-30 0 -56.5 -6.5t-48 -22t-36.5 -41.5t-22 -65l-42 -238h-135zM199 544l-3 89l230 125v0l4 -102z" />
    <glyph glyph-name="uni0156" unicode="&#x156;" horiz-adv-x="631" 
d="M25 0l123 700h259q77 0 126 -26.5t71 -70t20 -96.5q-3 -69 -39.5 -121.5t-101 -82t-150.5 -29.5h-125l-48 -274h-135zM394 0l-90 308h141l97 -308h-148zM226 372h118q63 0 101 33t40 90q2 41 -22.5 66.5t-80.5 25.5h-118zM160 -280l10 54q25 0 40 15.5t20 47.5l3 15h-56
l19 104h112q4 -27 3 -52t-5 -48q-11 -64 -48.5 -100t-97.5 -36z" />
    <glyph glyph-name="uni0157" unicode="&#x157;" horiz-adv-x="410" 
d="M22 0l88 504h121l-3 -91v0q24 32 55.5 54.5t69.5 35.5t80 13l-24 -143h-47q-30 0 -56.5 -6.5t-48 -22t-36.5 -41.5t-22 -65l-42 -238h-135zM-19 -280l10 54q25 0 40 15.5t20 47.5l3 15h-56l19 104h112q4 -27 3 -52t-5 -48q-11 -64 -48.5 -100t-97.5 -36z" />
    <glyph glyph-name="Rcaron" unicode="&#x158;" horiz-adv-x="631" 
d="M25 0l123 700h259q77 0 126 -26.5t71 -70t20 -96.5q-3 -69 -39.5 -121.5t-101 -82t-150.5 -29.5h-125l-48 -274h-135zM394 0l-90 308h141l97 -308h-148zM226 372h118q63 0 101 33t40 90q2 41 -22.5 66.5t-80.5 25.5h-118zM554 939l-17 -97l-162 -82l-133 82l17 97
l132 -86z" />
    <glyph glyph-name="rcaron" unicode="&#x159;" horiz-adv-x="410" 
d="M22 0l88 504h121l-3 -91v0q24 32 55.5 54.5t69.5 35.5t80 13l-24 -143h-47q-30 0 -56.5 -6.5t-48 -22t-36.5 -41.5t-22 -65l-42 -238h-135zM476 729l-18 -96l-162 -82l-133 82l17 96l133 -85z" />
    <glyph glyph-name="Sacute" unicode="&#x15a;" horiz-adv-x="606" 
d="M268 -12q-76 0 -131.5 26t-82.5 76t-16 121h143q-5 -33 6.5 -58t37.5 -38.5t61 -13.5t61.5 12.5t41 34t16.5 51.5q1 20 -7.5 36t-23.5 28t-36 21.5t-45 18t-50 17.5q-71 24 -107 67t-33 105q3 67 39 116.5t96.5 76.5t137.5 27q70 0 119.5 -24t74 -69.5t16.5 -109.5h-145
q5 27 -5.5 47t-31.5 31t-51 11q-30 1 -53.5 -10t-36.5 -30t-15 -45q-1 -19 6 -32.5t20 -24t31.5 -19t40.5 -16.5t46 -17q34 -12 63.5 -28.5t52 -39t34 -53t9.5 -69.5q-3 -67 -39 -117.5t-99 -79.5t-145 -29zM296 753l-3 89l230 125v0l4 -102z" />
    <glyph glyph-name="sacute" unicode="&#x15b;" horiz-adv-x="537" 
d="M230 -12q-70 0 -118 23t-70.5 63t-17.5 90h134q-1 -21 9 -38t30 -26.5t50 -9.5q27 0 46 8t29.5 22t11.5 31q1 18 -9.5 28.5t-30.5 17.5t-47 12q-35 7 -67 18.5t-56 27.5t-37.5 39.5t-12.5 56.5q3 48 32.5 85t80 58.5t116.5 21.5q91 0 141.5 -42t48.5 -114h-129
q-2 25 -22.5 39t-54.5 14q-35 0 -57 -14.5t-23 -35.5q0 -14 10.5 -24.5t31.5 -18t52 -13.5q40 -9 72 -20t55 -26.5t34 -38.5t9 -57q-2 -54 -34 -94t-85.5 -61.5t-121.5 -21.5zM219 544l-3 89l230 125v0l4 -102z" />
    <glyph glyph-name="Scedilla" unicode="&#x15e;" horiz-adv-x="606" 
d="M268 -12q-76 0 -131.5 26t-82.5 76t-16 121h143q-5 -33 6.5 -58t37.5 -38.5t61 -13.5t61.5 12.5t41 34t16.5 51.5q1 20 -7.5 36t-23.5 28t-36 21.5t-45 18t-50 17.5q-71 24 -107 67t-33 105q3 67 39 116.5t96.5 76.5t137.5 27q70 0 119.5 -24t74 -69.5t16.5 -109.5h-145
q5 27 -5.5 47t-31.5 31t-51 11q-30 1 -53.5 -10t-36.5 -30t-15 -45q-1 -19 6 -32.5t20 -24t31.5 -19t40.5 -16.5t46 -17q34 -12 63.5 -28.5t52 -39t34 -53t9.5 -69.5q-3 -67 -39 -117.5t-99 -79.5t-145 -29zM122 -264l14 77h114q27 0 42.5 9t15.5 29q1 17 -10 24t-34 7h-63
l22 125h84l-10 -55q31 1 57 -8.5t41 -30.5t14 -55q-2 -38 -23 -65.5t-54.5 -42t-73.5 -14.5h-136z" />
    <glyph glyph-name="scedilla" unicode="&#x15f;" horiz-adv-x="537" 
d="M230 -12q-70 0 -118 23t-70.5 63t-17.5 90h134q-1 -21 9 -38t30 -26.5t50 -9.5q27 0 46 8t29.5 22t11.5 31q1 18 -9.5 28.5t-30.5 17.5t-47 12q-35 7 -67 18.5t-56 27.5t-37.5 39.5t-12.5 56.5q3 48 32.5 85t80 58.5t116.5 21.5q91 0 141.5 -42t48.5 -114h-129
q-2 25 -22.5 39t-54.5 14q-35 0 -57 -14.5t-23 -35.5q0 -14 10.5 -24.5t31.5 -18t52 -13.5q40 -9 72 -20t55 -26.5t34 -38.5t9 -57q-2 -54 -34 -94t-85.5 -61.5t-121.5 -21.5zM85 -264l14 77h114q27 0 42.5 9t15.5 29q1 17 -10 24t-34 7h-63l22 125h84l-10 -55q31 1 57 -8.5
t41 -30.5t14 -55q-2 -38 -23 -65.5t-54.5 -42t-73.5 -14.5h-136z" />
    <glyph glyph-name="Scaron" unicode="&#x160;" horiz-adv-x="606" 
d="M268 -12q-76 0 -131.5 26t-82.5 76t-16 121h143q-5 -33 6.5 -58t37.5 -38.5t61 -13.5t61.5 12.5t41 34t16.5 51.5q1 20 -7.5 36t-23.5 28t-36 21.5t-45 18t-50 17.5q-71 24 -107 67t-33 105q3 67 39 116.5t96.5 76.5t137.5 27q70 0 119.5 -24t74 -69.5t16.5 -109.5h-145
q5 27 -5.5 47t-31.5 31t-51 11q-30 1 -53.5 -10t-36.5 -30t-15 -45q-1 -19 6 -32.5t20 -24t31.5 -19t40.5 -16.5t46 -17q34 -12 63.5 -28.5t52 -39t34 -53t9.5 -69.5q-3 -67 -39 -117.5t-99 -79.5t-145 -29zM573 939l-17 -97l-163 -82l-132 82l17 97l132 -86z" />
    <glyph glyph-name="scaron" unicode="&#x161;" horiz-adv-x="537" 
d="M230 -12q-70 0 -118 23t-70.5 63t-17.5 90h134q-1 -21 9 -38t30 -26.5t50 -9.5q27 0 46 8t29.5 22t11.5 31q1 18 -9.5 28.5t-30.5 17.5t-47 12q-35 7 -67 18.5t-56 27.5t-37.5 39.5t-12.5 56.5q3 48 32.5 85t80 58.5t116.5 21.5q91 0 141.5 -42t48.5 -114h-129
q-2 25 -22.5 39t-54.5 14q-35 0 -57 -14.5t-23 -35.5q0 -14 10.5 -24.5t31.5 -18t52 -13.5q40 -9 72 -20t55 -26.5t34 -38.5t9 -57q-2 -54 -34 -94t-85.5 -61.5t-121.5 -21.5zM495 729l-17 -96l-162 -82l-133 82l17 96l133 -85z" />
    <glyph glyph-name="uni0162" unicode="&#x162;" horiz-adv-x="598" 
d="M187 0l105 593h-205l19 107h544l-19 -107h-205l-104 -593h-135zM113 -264l14 77h114q27 0 42.5 9t15.5 29q1 17 -10 24t-34 7h-63l22 125h84l-10 -55q31 1 57 -8.5t41 -30.5t14 -55q-2 -38 -23 -65.5t-54.5 -42t-73.5 -14.5h-136z" />
    <glyph glyph-name="uni0163" unicode="&#x163;" horiz-adv-x="430" 
d="M248 0q-59 0 -95.5 19t-49.5 58.5t-2 99.5l38 214h-84l20 113h84l39 137h121l-25 -137h133l-20 -113h-133l-38 -215q-6 -35 8 -48t46 -13h70l-21 -115h-91zM86 -264l14 77h114q27 0 42.5 9t15.5 29q1 17 -10 24t-34 7h-63l22 125h84l-10 -55q31 1 57 -8.5t41 -30.5
t14 -55q-2 -38 -23 -65.5t-54.5 -42t-73.5 -14.5h-136z" />
    <glyph glyph-name="Tcaron" unicode="&#x164;" horiz-adv-x="598" 
d="M187 0l105 593h-205l19 107h544l-19 -107h-204l-105 -593h-135zM568 926l-17 -96l-163 -83l-133 83l18 96l132 -85z" />
    <glyph glyph-name="tcaron" unicode="&#x165;" horiz-adv-x="430" 
d="M248 0q-59 0 -95.5 19t-49.5 58.5t-2 99.5l38 214h-84l20 113h84l39 137h121l-25 -137h133l-20 -113h-133l-38 -215q-6 -35 8 -48t46 -13h70l-21 -115h-91zM356 556l9 55q24 0 37 8.5t17 27.5l2 19h-47l20 106h104q2 -29 1 -51.5t-5 -46.5q-10 -57 -45 -87.5t-93 -30.5z
" />
    <glyph glyph-name="Utilde" unicode="&#x168;" horiz-adv-x="685" 
d="M294 -12q-84 0 -140.5 33t-79.5 96.5t-7 152.5l75 430h135l-76 -431q-8 -49 1.5 -84.5t38.5 -54t77 -18.5q46 0 81 17.5t59 52.5t33 87l76 431h135l-76 -430q-17 -96 -66 -158.5t-118 -93t-148 -30.5zM261 769q21 67 58.5 98t83.5 31q29 0 47 -11.5t33.5 -23t36.5 -11.5
q17 0 30.5 11.5t20.5 33.5h72q-22 -66 -59.5 -97t-84.5 -31q-28 0 -46.5 11t-34 22.5t-35.5 11.5q-17 0 -30 -11t-21 -34h-71z" />
    <glyph glyph-name="utilde" unicode="&#x169;" horiz-adv-x="618" 
d="M210 -12q-65 0 -103.5 27.5t-51.5 78t-1 118.5l51 292h135l-50 -279q-9 -59 9 -91t72 -32q34 0 63 15t50 44t29 71l47 272h135l-88 -504h-119l2 80v0q-29 -42 -75.5 -67t-104.5 -25zM184 561q21 67 58.5 98t83.5 31q29 0 47 -11.5t33.5 -23t36.5 -11.5q17 0 30.5 11.5
t20.5 33.5h72q-22 -66 -59.5 -97t-84.5 -31q-28 0 -46.5 11t-34 22.5t-35.5 11.5q-17 0 -30 -11t-21 -34h-71z" />
    <glyph glyph-name="Umacron" unicode="&#x16a;" horiz-adv-x="685" 
d="M294 -12q-84 0 -140.5 33t-79.5 96.5t-7 152.5l75 430h135l-76 -431q-8 -49 1.5 -84.5t38.5 -54t77 -18.5q46 0 81 17.5t59 52.5t33 87l76 431h135l-76 -430q-17 -96 -66 -158.5t-118 -93t-148 -30.5zM259 816l17 95h378l-16 -95h-379z" />
    <glyph glyph-name="umacron" unicode="&#x16b;" horiz-adv-x="618" 
d="M210 -12q-65 0 -103.5 27.5t-51.5 78t-1 118.5l51 292h135l-50 -279q-9 -59 9 -91t72 -32q34 0 63 15t50 44t29 71l47 272h135l-88 -504h-119l2 80v0q-29 -42 -75.5 -67t-104.5 -25zM178 587l17 95h378l-16 -95h-379z" />
    <glyph glyph-name="Ubreve" unicode="&#x16c;" horiz-adv-x="685" 
d="M294 -12q-84 0 -140.5 33t-79.5 96.5t-7 152.5l75 430h135l-76 -431q-8 -49 1.5 -84.5t38.5 -54t77 -18.5q46 0 81 17.5t59 52.5t33 87l76 431h135l-76 -430q-17 -96 -66 -158.5t-118 -93t-148 -30.5zM439 770q-48 0 -80 19t-45 54t-5 82l4 17h70q-6 -33 10 -52t64 -19
q49 0 71.5 19t28.5 52h71l-3 -17q-8 -48 -33.5 -82.5t-64.5 -53.5t-88 -19z" />
    <glyph glyph-name="ubreve" unicode="&#x16d;" horiz-adv-x="618" 
d="M210 -12q-65 0 -103.5 27.5t-51.5 78t-1 118.5l51 292h135l-50 -279q-9 -59 9 -91t72 -32q34 0 63 15t50 44t29 71l47 272h135l-88 -504h-119l2 80v0q-29 -42 -75.5 -67t-104.5 -25zM362 558q-48 0 -80 19t-45 54t-5 82l4 17h70q-6 -33 10 -52t64 -19q49 0 71.5 19
t28.5 52h71l-3 -17q-8 -48 -33.5 -82.5t-64.5 -53.5t-88 -19z" />
    <glyph glyph-name="Uring" unicode="&#x16e;" horiz-adv-x="685" 
d="M294 -12q-84 0 -140.5 33t-79.5 96.5t-7 152.5l75 430h135l-76 -431q-8 -49 1.5 -84.5t38.5 -54t77 -18.5q46 0 81 17.5t59 52.5t33 87l76 431h135l-76 -430q-17 -96 -66 -158.5t-118 -93t-148 -30.5zM460 770q-47 0 -81 30.5t-34 83.5q0 52 34 82.5t81 30.5
q48 0 82 -30.5t34 -82.5q0 -53 -34 -83.5t-82 -30.5zM460 830q22 0 37 14.5t15 39.5t-15 39t-37 14q-20 0 -35.5 -14t-15.5 -39t15.5 -39.5t35.5 -14.5z" />
    <glyph glyph-name="uring" unicode="&#x16f;" horiz-adv-x="618" 
d="M210 -12q-65 0 -103.5 27.5t-51.5 78t-1 118.5l51 292h135l-50 -279q-9 -59 9 -91t72 -32q34 0 63 15t50 44t29 71l47 272h135l-88 -504h-119l2 80v0q-29 -42 -75.5 -67t-104.5 -25zM382 557q-47 0 -81 30.5t-34 83.5q0 52 34 82.5t81 30.5q48 0 82 -30.5t34 -82.5
q0 -53 -34 -83.5t-82 -30.5zM382 617q22 0 37 14.5t15 39.5t-15 39t-37 14q-20 0 -35.5 -14t-15.5 -39t15.5 -39.5t35.5 -14.5z" />
    <glyph glyph-name="Uhungarumlaut" unicode="&#x170;" horiz-adv-x="685" 
d="M294 -12q-84 0 -140.5 33t-79.5 96.5t-7 152.5l75 430h135l-76 -431q-8 -49 1.5 -84.5t38.5 -54t77 -18.5q46 0 81 17.5t59 52.5t33 87l76 431h135l-76 -430q-17 -96 -66 -158.5t-118 -93t-148 -30.5zM426 760l119 185h110l-144 -185h-85zM253 760l104 185h109l-129 -185
h-84z" />
    <glyph glyph-name="uhungarumlaut" unicode="&#x171;" horiz-adv-x="618" 
d="M210 -12q-65 0 -103.5 27.5t-51.5 78t-1 118.5l51 292h135l-50 -279q-9 -59 9 -91t72 -32q34 0 63 15t50 44t29 71l47 272h135l-88 -504h-119l2 80v0q-29 -42 -75.5 -67t-104.5 -25zM350 551l119 185h110l-144 -185h-85zM177 551l104 185h109l-129 -185h-84z" />
    <glyph glyph-name="Uogonek" unicode="&#x172;" horiz-adv-x="685" 
d="M294 -12q-84 0 -140.5 33t-79.5 96.5t-7 152.5l75 430h135l-76 -431q-8 -49 1.5 -84.5t38.5 -54t77 -18.5q46 0 81 17.5t59 52.5t33 87l76 431h135l-76 -430q-17 -96 -66 -158.5t-118 -93t-148 -30.5zM296 -202q-37 0 -66 11t-43 35t-8 60q5 27 22.5 52t53 49t94.5 47
l48 20l19 -63l-55 -25q-39 -18 -56.5 -34t-21.5 -34q-3 -18 8.5 -29t35.5 -11q15 0 34 4t40 11l-14 -79q-20 -7 -43.5 -10.5t-47.5 -3.5z" />
    <glyph glyph-name="uogonek" unicode="&#x173;" horiz-adv-x="618" 
d="M210 -12q-65 0 -103.5 27.5t-51.5 78t-1 118.5l51 292h135l-50 -279q-9 -59 9 -91t72 -32q34 0 63 15t50 44t29 71l47 272h135l-88 -504h-119l2 80v0q-29 -42 -75.5 -67t-104.5 -25zM387 -211q-37 0 -66 11t-43 35t-8 60q5 27 22.5 52t53 49t94.5 47l48 20l19 -63
l-55 -25q-39 -18 -56.5 -34t-21.5 -34q-3 -18 8.5 -29t35.5 -11q15 0 34 4t40 11l-14 -79q-20 -7 -43.5 -10.5t-47.5 -3.5z" />
    <glyph glyph-name="Wcircumflex" unicode="&#x174;" horiz-adv-x="1017" 
d="M164 0l-59 700h144l25 -546v0l241 546h150l42 -545v0l219 545h145l-312 -700h-161l-45 509v0l-228 -509h-161zM455 760l18 96l162 82l133 -82l-18 -96l-132 85z" />
    <glyph glyph-name="wcircumflex" unicode="&#x175;" horiz-adv-x="820" 
d="M121 0l-60 504h134l26 -409l-25 1l184 408h149l41 -408l-25 -1l169 409h134l-237 -504h-139l-46 420h28l-193 -420h-140zM314 549l18 96l162 82l133 -82l-18 -96l-132 85z" />
    <glyph glyph-name="Ycircumflex" unicode="&#x176;" horiz-adv-x="635" 
d="M206 0l44 246l-157 454h154l100 -336l-16 3l218 333h152l-316 -454l-44 -246h-135zM265 760l18 96l162 82l133 -82l-18 -96l-132 85z" />
    <glyph glyph-name="ycircumflex" unicode="&#x177;" horiz-adv-x="605" 
d="M48 -220l159 257h-30l-112 467h145l78 -344v0l197 344h144l-439 -724h-142zM207 549l18 96l162 82l133 -82l-18 -96l-132 85z" />
    <glyph glyph-name="Ydieresis" unicode="&#x178;" horiz-adv-x="635" 
d="M206 0l44 246l-157 454h154l100 -336l-16 3l218 333h152l-316 -454l-44 -246h-135zM336 771q-27 0 -45 18t-18 45t18 45.5t45 18.5q28 0 46 -18.5t18 -45.5t-18 -45t-46 -18zM520 771q-27 0 -45.5 18t-18.5 45t18.5 45.5t45.5 18.5t45.5 -18.5t18.5 -45.5t-18.5 -45
t-45.5 -18z" />
    <glyph glyph-name="Zacute" unicode="&#x179;" horiz-adv-x="578" 
d="M4 0l19 104l407 484h-320l20 112h476l-18 -104l-410 -484h326l-20 -112h-480zM286 753l-3 89l230 125v0l4 -102z" />
    <glyph glyph-name="zacute" unicode="&#x17a;" horiz-adv-x="494" 
d="M-11 0l19 108l310 284h-250l20 112h406l-20 -109l-313 -283h262l-20 -112h-414zM202 544l-3 89l230 125v0l4 -102z" />
    <glyph glyph-name="Zdotaccent" unicode="&#x17b;" horiz-adv-x="578" 
d="M4 0l19 104l407 484h-320l20 112h476l-18 -104l-410 -484h326l-20 -112h-480zM397 770q-26 0 -44.5 18.5t-18.5 44.5q0 28 18.5 46.5t44.5 18.5q28 0 46 -18.5t18 -46.5q0 -26 -18 -44.5t-46 -18.5z" />
    <glyph glyph-name="zdotaccent" unicode="&#x17c;" horiz-adv-x="494" 
d="M-11 0l19 108l310 284h-250l20 112h406l-20 -109l-313 -283h262l-20 -112h-414zM313 568q-26 0 -44.5 18.5t-18.5 44.5q0 28 18.5 46.5t44.5 18.5q28 0 46 -18.5t18 -46.5q0 -26 -18 -44.5t-46 -18.5z" />
    <glyph glyph-name="Zcaron" unicode="&#x17d;" horiz-adv-x="578" 
d="M4 0l19 104l407 484h-320l20 112h476l-18 -104l-410 -484h326l-20 -112h-480zM564 939l-18 -97l-162 -82l-133 82l17 97l133 -86z" />
    <glyph glyph-name="zcaron" unicode="&#x17e;" horiz-adv-x="494" 
d="M-11 0l19 108l310 284h-250l20 112h406l-20 -109l-313 -283h262l-20 -112h-414zM479 729l-17 -96l-162 -82l-133 82l17 96l132 -85z" />
    <glyph glyph-name="uni018F" unicode="&#x18f;" horiz-adv-x="763" 
d="M331 -12q-69 0 -122 22t-89 62.5t-52.5 96t-11.5 121.5q1 24 5.5 50t11.5 51h548l-17 -97h-404q-7 -57 8.5 -97.5t52 -61.5t90.5 -21q42 0 80.5 14t70 42t52.5 68t29 90l9 57q8 62 -8 107.5t-53 70t-93 24.5q-62 0 -111 -28t-76 -79h-154q31 69 84.5 121.5t124 81.5
t151.5 29q91 0 155.5 -38.5t98.5 -105.5t29 -154q-3 -89 -34.5 -167t-86 -136t-127.5 -90.5t-161 -32.5z" />
    <glyph glyph-name="florin" unicode="&#x192;" horiz-adv-x="335" 
d="M-141 -235l31 114h26q21 0 35 12t21 39l186 656q28 100 96 145t181 45l-31 -114q-47 0 -73.5 -17.5t-37.5 -58.5l-185 -656q-17 -62 -49 -98.5t-75.5 -51.5t-97.5 -15h-27zM56 442l31 112h294l-31 -112h-294z" />
    <glyph glyph-name="AEacute" unicode="&#x1fc;" horiz-adv-x="945" 
d="M-22 0l500 700h493l-20 -107h-267l-34 -185h239l-18 -104h-238l-35 -197h268l-19 -107h-403l105 597v0l-424 -597h-147zM144 135l76 104h330l-19 -104h-387zM545 753l-3 89l230 125v0l4 -102z" />
    <glyph glyph-name="aeacute" unicode="&#x1fd;" horiz-adv-x="951" 
d="M201 -12q-58 0 -97 17t-57.5 48t-17.5 71q3 52 33 90.5t83.5 60t125.5 21.5h135q7 36 2 60.5t-24 37t-55 12.5q-37 0 -67 -16.5t-42 -50.5h-132q15 54 52.5 93.5t91.5 61.5t117 22q39 0 71 -8t56 -23t39 -37q38 32 86.5 50t102.5 18q69 0 116.5 -28t71.5 -76t21 -111
q0 -13 -3 -30.5t-6 -31.5t-5 -20h-371q-4 -34 6.5 -61t34.5 -43.5t60 -16.5q42 0 71 19.5t46 47.5h135q-21 -49 -61.5 -89.5t-94 -64t-114.5 -23.5q-65 0 -113 26.5t-73 72.5q-28 -31 -63.5 -53t-76 -34t-84.5 -12zM239 92q34 0 61.5 15t49 40.5t32.5 57.5l2 8h-112
q-29 0 -50.5 -8t-33.5 -23t-13 -36q-1 -17 7 -29t22.5 -18.5t34.5 -6.5zM545 301h234q4 33 -7 56.5t-33 36t-53 12.5q-30 0 -57.5 -11.5t-49 -34.5t-34.5 -59zM431 544l-3 89l230 125v0l4 -102z" />
    <glyph glyph-name="uni0218" unicode="&#x218;" horiz-adv-x="606" 
d="M268 -12q-76 0 -131.5 26t-82.5 76t-16 121h143q-5 -33 6.5 -58t37.5 -38.5t61 -13.5t61.5 12.5t41 34t16.5 51.5q1 20 -7.5 36t-23.5 28t-36 21.5t-45 18t-50 17.5q-71 24 -107 67t-33 105q3 67 39 116.5t96.5 76.5t137.5 27q70 0 119.5 -24t74 -69.5t16.5 -109.5h-145
q5 27 -5.5 47t-31.5 31t-51 11q-30 1 -53.5 -10t-36.5 -30t-15 -45q-1 -19 6 -32.5t20 -24t31.5 -19t40.5 -16.5t46 -17q34 -12 63.5 -28.5t52 -39t34 -53t9.5 -69.5q-3 -67 -39 -117.5t-99 -79.5t-145 -29zM155 -280l10 54q25 0 40 15.5t20 47.5l3 15h-56l19 104h112
q4 -27 3 -52t-5 -48q-11 -64 -48.5 -100t-97.5 -36z" />
    <glyph glyph-name="uni0219" unicode="&#x219;" horiz-adv-x="537" 
d="M230 -12q-70 0 -118 23t-70.5 63t-17.5 90h134q-1 -21 9 -38t30 -26.5t50 -9.5q27 0 46 8t29.5 22t11.5 31q1 18 -9.5 28.5t-30.5 17.5t-47 12q-35 7 -67 18.5t-56 27.5t-37.5 39.5t-12.5 56.5q3 48 32.5 85t80 58.5t116.5 21.5q91 0 141.5 -42t48.5 -114h-129
q-2 25 -22.5 39t-54.5 14q-35 0 -57 -14.5t-23 -35.5q0 -14 10.5 -24.5t31.5 -18t52 -13.5q40 -9 72 -20t55 -26.5t34 -38.5t9 -57q-2 -54 -34 -94t-85.5 -61.5t-121.5 -21.5zM121 -280l10 54q25 0 40 15.5t20 47.5l3 15h-56l19 104h112q4 -27 3 -52t-5 -48
q-11 -64 -48.5 -100t-97.5 -36z" />
    <glyph glyph-name="uni021A" unicode="&#x21a;" horiz-adv-x="598" 
d="M187 0l105 593h-205l19 107h544l-19 -107h-205l-104 -593h-135zM150 -280l10 54q25 0 40 15.5t20 47.5l3 15h-56l19 104h112q4 -27 3 -52t-5 -48q-11 -64 -48.5 -100t-97.5 -36z" />
    <glyph glyph-name="uni021B" unicode="&#x21b;" horiz-adv-x="430" 
d="M248 0q-59 0 -95.5 19t-49.5 58.5t-2 99.5l38 214h-84l20 113h84l39 137h121l-25 -137h133l-20 -113h-133l-38 -215q-6 -35 8 -48t46 -13h70l-21 -115h-91zM122 -280l10 54q25 0 40 15.5t20 47.5l3 15h-56l19 104h112q4 -27 3 -52t-5 -48q-11 -64 -48.5 -100t-97.5 -36z
" />
    <glyph glyph-name="uni0237" unicode="&#x237;" horiz-adv-x="271" 
d="M-112 -220l20 115h40q33 0 48.5 13t20.5 42l98 554h135l-98 -553q-11 -62 -39 -99.5t-69.5 -54.5t-95.5 -17h-60z" />
    <glyph glyph-name="uni0259" unicode="&#x259;" horiz-adv-x="604" 
d="M341 516q69 0 118.5 -28t75 -79t21.5 -120q-2 -62 -25.5 -116.5t-64.5 -96t-96 -65t-122 -23.5q-68 0 -116 27.5t-72 76t-21 110.5q0 21 4.5 43t9.5 40h408l-14 -83h-275q-3 -33 8 -56.5t33.5 -36t52.5 -12.5q35 0 66.5 16t54 48t30.5 80l5 29q7 40 -2.5 70.5t-34.5 47.5
t-63 17q-37 0 -64 -15.5t-44 -41.5h-138q23 48 62.5 86t91.5 60t111 22z" />
    <glyph glyph-name="circumflex" unicode="&#x2c6;" horiz-adv-x="296" 
d="M52 549l18 96l162 82l133 -82l-18 -96l-132 85z" />
    <glyph glyph-name="caron" unicode="&#x2c7;" horiz-adv-x="296" 
d="M380 729l-17 -96l-163 -82l-132 82l17 96l132 -85z" />
    <glyph glyph-name="breve" unicode="&#x2d8;" horiz-adv-x="316" 
d="M211 558q-48 0 -80 19t-45 54t-5 82l4 17h70q-6 -33 10 -52t64 -19q49 0 71.5 19t28.5 52h71l-3 -17q-8 -48 -33.5 -82.5t-64.5 -53.5t-88 -19z" />
    <glyph glyph-name="dotaccent" unicode="&#x2d9;" horiz-adv-x="130" 
d="M131 568q-26 0 -44.5 18.5t-18.5 44.5q0 28 18.5 46.5t44.5 18.5q28 0 46 -18.5t18 -46.5q0 -26 -18 -44.5t-46 -18.5z" />
    <glyph glyph-name="ring" unicode="&#x2da;" horiz-adv-x="235" 
d="M191 557q-47 0 -81 30.5t-34 83.5q0 52 34 82.5t81 30.5q48 0 82 -30.5t34 -82.5q0 -53 -34 -83.5t-82 -30.5zM191 617q22 0 37 14.5t15 39.5t-15 39t-37 14q-20 0 -35.5 -14t-15.5 -39t15.5 -39.5t35.5 -14.5z" />
    <glyph glyph-name="ogonek" unicode="&#x2db;" horiz-adv-x="224" 
d="M54 -211q-37 0 -66 11t-43 35t-8 60q5 27 22.5 52t53 49t94.5 47l48 20l19 -63l-55 -25q-39 -18 -56.5 -34t-21.5 -34q-3 -18 8.5 -29t35.5 -11q15 0 34 4t40 11l-14 -79q-20 -7 -43.5 -10.5t-47.5 -3.5z" />
    <glyph glyph-name="tilde" unicode="&#x2dc;" horiz-adv-x="359" 
d="M55 561q21 67 58.5 98t83.5 31q29 0 47 -11.5t33.5 -23t36.5 -11.5q17 0 30.5 11.5t20.5 33.5h72q-22 -66 -59.5 -97t-84.5 -31q-28 0 -46.5 11t-34 22.5t-35.5 11.5q-17 0 -30 -11t-21 -34h-71z" />
    <glyph glyph-name="hungarumlaut" unicode="&#x2dd;" horiz-adv-x="370" 
d="M226 551l119 185h110l-144 -185h-85zM53 551l104 185h109l-129 -185h-84z" />
    <glyph glyph-name="gravecomb" unicode="&#x300;" 
d="M274 544l-202 112l33 102v0l197 -125z" />
    <glyph glyph-name="acutecomb" unicode="&#x301;" 
d="M70 544l-3 89l230 125v0l4 -102z" />
    <glyph glyph-name="uni0302" unicode="&#x302;" 
d="M52 549l18 96l162 82l133 -82l-18 -96l-132 85z" />
    <glyph glyph-name="tildecomb" unicode="&#x303;" 
d="M55 561q21 67 58.5 98t83.5 31q29 0 47 -11.5t33.5 -23t36.5 -11.5q17 0 30.5 11.5t20.5 33.5h72q-22 -66 -59.5 -97t-84.5 -31q-28 0 -46.5 11t-34 22.5t-35.5 11.5q-17 0 -30 -11t-21 -34h-71z" />
    <glyph glyph-name="uni0304" unicode="&#x304;" 
d="M59 587l17 95h378l-16 -95h-379z" />
    <glyph glyph-name="uni0306" unicode="&#x306;" 
d="M211 558q-48 0 -80 19t-45 54t-5 82l4 17h70q-6 -33 10 -52t64 -19q49 0 71.5 19t28.5 52h71l-3 -17q-8 -48 -33.5 -82.5t-64.5 -53.5t-88 -19z" />
    <glyph glyph-name="uni0307" unicode="&#x307;" 
d="M131 568q-26 0 -44.5 18.5t-18.5 44.5q0 28 18.5 46.5t44.5 18.5q28 0 46 -18.5t18 -46.5q0 -26 -18 -44.5t-46 -18.5z" />
    <glyph glyph-name="uni0308" unicode="&#x308;" 
d="M132 571q-27 0 -45 18t-18 45t18 45.5t45 18.5q28 0 46 -18.5t18 -45.5t-18 -45t-46 -18zM316 571q-27 0 -45.5 18t-18.5 45t18.5 45.5t45.5 18.5t45.5 -18.5t18.5 -45.5t-18.5 -45t-45.5 -18z" />
    <glyph glyph-name="uni030A" unicode="&#x30a;" 
d="M191 557q-47 0 -81 30.5t-34 83.5q0 52 34 82.5t81 30.5q48 0 82 -30.5t34 -82.5q0 -53 -34 -83.5t-82 -30.5zM191 617q22 0 37 14.5t15 39.5t-15 39t-37 14q-20 0 -35.5 -14t-15.5 -39t15.5 -39.5t35.5 -14.5z" />
    <glyph glyph-name="uni030B" unicode="&#x30b;" 
d="M226 551l119 185h110l-144 -185h-85zM53 551l104 185h109l-129 -185h-84z" />
    <glyph glyph-name="uni030C" unicode="&#x30c;" 
d="M380 729l-17 -96l-163 -82l-132 82l17 96l132 -85z" />
    <glyph glyph-name="uni0312" unicode="&#x312;" 
d="M211 781l-9 -54q-23 0 -36.5 -9t-17.5 -28l-2 -18h46l-19 -106h-105q-1 29 0 51.5t5 46.5q10 56 45 86.5t93 30.5z" />
    <glyph glyph-name="uni0326" unicode="&#x326;" 
d="M-87 -280l10 54q25 0 40 15.5t20 47.5l3 15h-56l19 104h112q4 -27 3 -52t-5 -48q-11 -64 -48.5 -100t-97.5 -36z" />
    <glyph glyph-name="uni0327" unicode="&#x327;" 
d="M-91 -264l14 77h114q27 0 42.5 9t15.5 29q1 17 -10 24t-34 7h-63l22 125h84l-10 -55q31 1 57 -8.5t41 -30.5t14 -55q-2 -38 -23 -65.5t-54.5 -42t-73.5 -14.5h-136z" />
    <glyph glyph-name="uni0328" unicode="&#x328;" 
d="M54 -211q-37 0 -66 11t-43 35t-8 60q5 27 22.5 52t53 49t94.5 47l48 20l19 -63l-55 -25q-39 -18 -56.5 -34t-21.5 -34q-3 -18 8.5 -29t35.5 -11q15 0 34 4t40 11l-14 -79q-20 -7 -43.5 -10.5t-47.5 -3.5z" />
    <glyph glyph-name="pi" unicode="&#x3c0;" horiz-adv-x="647" 
d="M60 0l71 400h-74l18 104h585l-18 -104h-74l-70 -400h-135l70 400h-167l-71 -400h-135z" />
    <glyph glyph-name="Wgrave" unicode="&#x1e80;" horiz-adv-x="1017" 
d="M164 0l-59 700h144l25 -546v0l241 546h150l42 -545v0l219 545h145l-312 -700h-161l-45 509v0l-228 -509h-161zM707 753l-202 112l33 102v0l197 -125z" />
    <glyph glyph-name="wgrave" unicode="&#x1e81;" horiz-adv-x="820" 
d="M121 0l-60 504h134l26 -409l-25 1l184 408h149l41 -408l-25 -1l169 409h134l-237 -504h-139l-46 420h28l-193 -420h-140zM566 544l-202 112l33 102v0l197 -125z" />
    <glyph glyph-name="Wacute" unicode="&#x1e82;" horiz-adv-x="1017" 
d="M164 0l-59 700h144l25 -546v0l241 546h150l42 -545v0l219 545h145l-312 -700h-161l-45 509v0l-228 -509h-161zM506 753l-3 89l230 125v0l4 -102z" />
    <glyph glyph-name="wacute" unicode="&#x1e83;" horiz-adv-x="820" 
d="M121 0l-60 504h134l26 -409l-25 1l184 408h149l41 -408l-25 -1l169 409h134l-237 -504h-139l-46 420h28l-193 -420h-140zM365 544l-3 89l230 125v0l4 -102z" />
    <glyph glyph-name="Wdieresis" unicode="&#x1e84;" horiz-adv-x="1017" 
d="M164 0l-59 700h144l25 -546v0l241 546h150l42 -545v0l219 545h145l-312 -700h-161l-45 509v0l-228 -509h-161zM526 771q-27 0 -45 18t-18 45t18 45.5t45 18.5q28 0 46 -18.5t18 -45.5t-18 -45t-46 -18zM710 771q-27 0 -45.5 18t-18.5 45t18.5 45.5t45.5 18.5t45.5 -18.5
t18.5 -45.5t-18.5 -45t-45.5 -18z" />
    <glyph glyph-name="wdieresis" unicode="&#x1e85;" horiz-adv-x="820" 
d="M121 0l-60 504h134l26 -409l-25 1l184 408h149l41 -408l-25 -1l169 409h134l-237 -504h-139l-46 420h28l-193 -420h-140zM385 571q-27 0 -45 18t-18 45t18 45.5t45 18.5q28 0 46 -18.5t18 -45.5t-18 -45t-46 -18zM569 571q-27 0 -45.5 18t-18.5 45t18.5 45.5t45.5 18.5
t45.5 -18.5t18.5 -45.5t-18.5 -45t-45.5 -18z" />
    <glyph glyph-name="uni1E9E" unicode="&#x1e9e;" horiz-adv-x="734" 
d="M426 -6q-106 0 -154.5 57.5t-29.5 167.5h132q-5 -33 -1.5 -58.5t21 -39.5t52.5 -14q32 0 53.5 14.5t34.5 40t19 57.5q11 64 -14 94t-86 30h-110l16 90l175 152h-212q-32 0 -48 -13t-22 -43l-93 -529h-135l93 529q12 63 39.5 100t69.5 54t95 17h391l-18 -102l-195 -167h15
q66 0 106.5 -27t56 -74t5.5 -109q-13 -71 -46.5 -122t-86.5 -78t-123 -27z" />
    <glyph glyph-name="uni1EBC" unicode="&#x1ebc;" horiz-adv-x="566" 
d="M25 0l123 700h443l-19 -107h-308l-32 -186h278l-19 -104h-278l-34 -196h307l-19 -107h-442zM200 769q21 67 58.5 98t83.5 31q29 0 47 -11.5t33.5 -23t36.5 -11.5q17 0 30.5 11.5t20.5 33.5h72q-22 -66 -59.5 -97t-84.5 -31q-28 0 -46.5 11t-34 22.5t-35.5 11.5
q-17 0 -30 -11t-21 -34h-71z" />
    <glyph glyph-name="uni1EBD" unicode="&#x1ebd;" horiz-adv-x="604" 
d="M263 -12q-69 0 -118.5 28t-75 79t-21.5 119q2 63 25.5 117.5t64.5 96t96 65t122 23.5q68 0 116 -28t72 -76t21 -111q0 -21 -4.5 -42.5t-9.5 -39.5h-408l14 82h274q4 34 -7 57.5t-33.5 35.5t-52.5 12q-35 0 -66.5 -15.5t-53.5 -47.5t-31 -81l-5 -29q-7 -39 2.5 -69.5
t34.5 -48t62 -17.5q38 0 65 16t44 41h138q-23 -47 -62.5 -85t-91 -60t-111.5 -22zM182 561q21 67 58.5 98t83.5 31q29 0 47 -11.5t33.5 -23t36.5 -11.5q17 0 30.5 11.5t20.5 33.5h72q-22 -66 -59.5 -97t-84.5 -31q-28 0 -46.5 11t-34 22.5t-35.5 11.5q-17 0 -30 -11t-21 -34
h-71z" />
    <glyph glyph-name="Ygrave" unicode="&#x1ef2;" horiz-adv-x="635" 
d="M206 0l44 246l-157 454h154l100 -336l-16 3l218 333h152l-316 -454l-44 -246h-135zM517 753l-202 112l33 102v0l197 -125z" />
    <glyph glyph-name="ygrave" unicode="&#x1ef3;" horiz-adv-x="605" 
d="M48 -220l159 257h-30l-112 467h145l78 -344v0l197 344h144l-439 -724h-142zM459 544l-202 112l33 102v0l197 -125z" />
    <glyph glyph-name="uni1EF8" unicode="&#x1ef8;" horiz-adv-x="635" 
d="M206 0l44 246l-157 454h154l100 -336l-16 3l218 333h152l-316 -454l-44 -246h-135zM237 769q21 67 58.5 98t83.5 31q29 0 47 -11.5t33.5 -23t36.5 -11.5q17 0 30.5 11.5t20.5 33.5h72q-22 -66 -59.5 -97t-84.5 -31q-28 0 -46.5 11t-34 22.5t-35.5 11.5q-17 0 -30 -11
t-21 -34h-71z" />
    <glyph glyph-name="uni1EF9" unicode="&#x1ef9;" horiz-adv-x="605" 
d="M48 -220l159 257h-30l-112 467h145l78 -344v0l197 344h144l-439 -724h-142zM178 561q21 67 58.5 98t83.5 31q29 0 47 -11.5t33.5 -23t36.5 -11.5q17 0 30.5 11.5t20.5 33.5h72q-22 -66 -59.5 -97t-84.5 -31q-28 0 -46.5 11t-34 22.5t-35.5 11.5q-17 0 -30 -11t-21 -34
h-71z" />
    <glyph glyph-name="endash" unicode="&#x2013;" horiz-adv-x="652" 
d="M75 238l19 113h543l-21 -113h-541z" />
    <glyph glyph-name="emdash" unicode="&#x2014;" horiz-adv-x="874" 
d="M75 238l19 113h765l-20 -113h-764z" />
    <glyph glyph-name="quoteleft" unicode="&#x2018;" horiz-adv-x="277" 
d="M77 444l149 256h91l-99 -256h-141z" />
    <glyph glyph-name="quoteright" unicode="&#x2019;" horiz-adv-x="277" 
d="M312 700l-149 -257h-92l99 257h142z" />
    <glyph glyph-name="quotesinglbase" unicode="&#x201a;" horiz-adv-x="255" 
d="M-42 -111l99 253h141l-148 -253h-92z" />
    <glyph glyph-name="quotedblleft" unicode="&#x201c;" horiz-adv-x="478" 
d="M278 444l149 256h92l-99 -256h-142zM77 444l149 256h91l-99 -256h-141z" />
    <glyph glyph-name="quotedblright" unicode="&#x201d;" horiz-adv-x="478" 
d="M312 699l-149 -256h-92l99 256h142zM514 699l-149 -256h-92l99 256h142z" />
    <glyph glyph-name="quotedblbase" unicode="&#x201e;" horiz-adv-x="460" 
d="M-42 -111l99 253h141l-148 -253h-92zM163 -111l99 253h141l-148 -253h-92z" />
    <glyph glyph-name="dagger" unicode="&#x2020;" horiz-adv-x="603" 
d="M143 -263l141 723l-203 -10l19 104l199 -11l29 242h135l-56 -242l203 11l-19 -104l-199 10l-114 -723h-135z" />
    <glyph glyph-name="daggerdbl" unicode="&#x2021;" horiz-adv-x="605" 
d="M143 -263l57 242l-203 -10l19 104l198 -11l71 398l-203 -10l19 104l198 -11l29 242h135l-56 -242l204 11l-19 -104l-199 10l-70 -398l203 11l-19 -104l-199 10l-30 -242h-135z" />
    <glyph glyph-name="bullet" unicode="&#x2022;" horiz-adv-x="391" 
d="M210 195q-38 0 -69.5 18.5t-50 50t-18.5 69.5q0 39 18.5 70.5t50 50t69.5 18.5q39 0 70.5 -18.5t49.5 -50t18 -70.5q0 -38 -18 -69.5t-49.5 -50t-70.5 -18.5z" />
    <glyph glyph-name="ellipsis" unicode="&#x2026;" horiz-adv-x="690" 
d="M312 -6q-36 0 -59 22.5t-23 55.5t23 55.5t59 22.5t59 -22.5t23 -55.5t-23 -55.5t-59 -22.5zM530 -6q-36 0 -59 22.5t-23 55.5t23 55.5t59 22.5t59 -22.5t23 -55.5t-23 -55.5t-59 -22.5zM95 -6q-36 0 -59 22.5t-23 55.5t23 55.5t59 22.5t59 -22.5t23 -55.5t-23 -55.5
t-59 -22.5z" />
    <glyph glyph-name="perthousand" unicode="&#x2030;" horiz-adv-x="1290" 
d="M1031 -12q-44 0 -78.5 18.5t-53.5 53.5t-17 82q3 59 30.5 105t73.5 72.5t101 26.5q45 0 79 -18.5t53 -53t16 -82.5q-2 -58 -30 -104t-73 -73t-101 -27zM1043 80q24 0 42.5 14t30.5 37.5t13 53.5q2 35 -13.5 53t-41.5 18q-23 0 -42 -14t-30.5 -37.5t-12.5 -54.5
q-2 -35 13.5 -52.5t40.5 -17.5zM143 0l517 700h131l-516 -700h-132zM644 -12q-44 0 -78.5 18.5t-53.5 53.5t-17 82q3 59 30.5 105t73.5 72.5t101 26.5q45 0 79.5 -18.5t53 -53t15.5 -82.5q-2 -58 -29.5 -104t-73 -73t-101.5 -27zM238 353q-44 0 -78.5 19t-53.5 53.5
t-16 82.5q2 59 30 104.5t73.5 72.5t101.5 27q44 0 78 -19t52.5 -53t16.5 -83q-2 -58 -30 -104t-73 -73t-101 -27zM657 80q23 0 41.5 14t30.5 37.5t13 53.5q2 35 -13.5 52.5t-41.5 17.5q-22 0 -41 -13.5t-31 -37t-13 -54.5q-2 -35 13.5 -52.5t41.5 -17.5zM250 445
q24 0 42.5 14t30.5 37.5t13 53.5q2 35 -13.5 53t-41.5 18q-23 0 -42 -14t-31 -37.5t-13 -54.5q-2 -35 14 -52.5t41 -17.5z" />
    <glyph glyph-name="guilsinglleft" unicode="&#x2039;" horiz-adv-x="309" 
d="M108 120l-59 175l121 175h126l-123 -175l62 -175h-127z" />
    <glyph glyph-name="guilsinglright" unicode="&#x203a;" horiz-adv-x="308" 
d="M216 470l58 -175l-120 -175h-127l123 175l-61 175h127z" />
    <glyph glyph-name="fraction" unicode="&#x2044;" horiz-adv-x="512" 
d="M-49 0l517 700h132l-517 -700h-132z" />
    <glyph glyph-name="uni2074" unicode="&#x2074;" horiz-adv-x="350" 
d="M209 352l11 61h-165l12 68l193 219h110l-38 -217h38l-13 -70h-37l-11 -61h-100zM166 483h74l18 107v0z" />
    <glyph glyph-name="uni20A8" unicode="&#x20a8;" horiz-adv-x="1109" 
d="M25 0l123 700h259q77 0 126 -26.5t71 -70t20 -96.5q-3 -69 -39.5 -121.5t-101 -82t-150.5 -29.5h-125l-48 -274h-135zM394 0l-90 308h141l97 -308h-148zM226 372h118q63 0 101 33t40 90q2 41 -22.5 66.5t-80.5 25.5h-118zM803 -12q-70 0 -118 23t-70.5 63t-17.5 90h134
q-1 -21 9 -38t30 -26.5t50 -9.5q27 0 46 8t29.5 22t11.5 31q1 18 -9.5 28.5t-30.5 17.5t-47 12q-35 7 -67 18.5t-56 27.5t-37.5 39.5t-12.5 56.5q3 48 32.5 85t80 58.5t116.5 21.5q91 0 141.5 -42t48.5 -114h-129q-2 25 -22.5 39t-54.5 14q-35 0 -57 -14.5t-23 -35.5
q0 -14 10.5 -24.5t31.5 -18t52 -13.5q40 -9 72 -20t55 -26.5t34 -38.5t9 -57q-2 -54 -34 -94t-85.5 -61.5t-121.5 -21.5z" />
    <glyph glyph-name="Euro" unicode="&#x20ac;" horiz-adv-x="795" 
d="M19 237l14 78h432l-14 -78h-432zM45 385l14 79h432l-14 -79h-432zM394 -12q-94 0 -158.5 38t-95.5 105.5t-26 157.5q3 91 35 168t86.5 134.5t127 89t157.5 31.5q127 0 197 -63t70 -178h-148q-2 56 -38 87.5t-103 31.5q-52 0 -95.5 -21.5t-76.5 -60.5t-52 -92t-21 -116
q-4 -60 14.5 -102.5t56 -65.5t92.5 -23q67 0 112 29t67 83h148q-26 -74 -76.5 -126t-119.5 -79.5t-153 -27.5z" />
    <glyph glyph-name="uni20B9" unicode="&#x20b9;" horiz-adv-x="616" 
d="M247 -10q-106 0 -152.5 56.5t-27.5 167.5l25 134q93 0 148.5 5.5t85.5 21t44 48.5t24 88l25 141h126l-25 -138q-10 -65 -32.5 -113.5t-60 -80t-93 -47t-132.5 -15.5l-10 -59q-9 -47 5.5 -77t64.5 -30q48 0 73 28t34 78h125q-20 -99 -83 -153.5t-164 -54.5zM78 440l15 86
h535l-16 -86h-534zM107 608l17 93h534l-16 -93h-535z" />
    <glyph glyph-name="uni20BA" unicode="&#x20ba;" horiz-adv-x="826" 
d="M332 -12q-49 0 -102 6.5t-110 18.5l122 691h137l-102 -583q20 -4 39 -5.5t37 -1.5q70 0 120 23.5t84 66.5t55.5 103t33.5 131h138q-27 -153 -82.5 -253t-145.5 -148.5t-224 -48.5zM15 215l15 87l448 90l-16 -87zM42 379l14 85l452 93l-16 -86z" />
    <glyph glyph-name="uni20BD" unicode="&#x20bd;" horiz-adv-x="657" 
d="M1 100l18 104h91l13 77h-90l18 105h91l56 314h253q77 0 125.5 -24.5t71 -66.5t20.5 -98q-3 -67 -40.5 -119t-101.5 -81.5t-149 -29.5h-119l-13 -77h183l-18 -104h-183l-18 -100h-135l18 100h-91zM277 386h114q65 0 100 33.5t37 86.5q2 42 -21.5 66t-78.5 24h-114z" />
    <glyph glyph-name="uni2113" unicode="&#x2113;" horiz-adv-x="274" 
d="M7 -100l146 820h135l-146 -820h-135z" />
    <glyph glyph-name="trademark" unicode="&#x2122;" horiz-adv-x="837" 
d="M92 620l14 80h271l-15 -80h-85l-48 -271h-100l49 271h-86zM367 349l62 351h132l48 -231l137 231h123l-62 -351h-92l39 226l-136 -226h-69l-52 233l-41 -233h-89z" />
    <glyph glyph-name="uni2126" unicode="&#x2126;" horiz-adv-x="794" 
d="M6 0l19 104h194l-28 -33q-43 20 -73.5 58.5t-46.5 86.5t-16 96q0 87 33 160t91.5 127t135.5 83.5t164 29.5q67 0 121.5 -20t95 -57.5t63 -89t22.5 -116.5q0 -81 -29 -151.5t-82.5 -124t-129.5 -82.5l-15 33h196l-20 -104h-272l20 107q45 21 80 52t60 70.5t38 84.5t13 92
q0 42 -12.5 76t-37 58t-58 36.5t-74.5 12.5q-60 0 -109.5 -22.5t-84.5 -61.5t-54 -90.5t-19 -110.5q0 -44 13.5 -83t37.5 -68t56 -46l-20 -107h-272z" />
    <glyph glyph-name="estimated" unicode="&#x212e;" horiz-adv-x="763" 
d="M343 -7q-104 0 -174.5 42.5t-100 119.5t-10.5 179q14 78 48 146t86 119t119.5 79.5t148.5 28.5q86 0 144 -28.5t92 -76.5t44 -109t-2 -125l-9 -50h-508l-31 -179q30 -32 70.5 -48t97.5 -16q49 0 94 14t88 40t87 63l40 -57q-74 -67 -155 -104.5t-169 -37.5zM234 395h340
l30 170q-25 31 -65 46.5t-93 15.5t-99.5 -17.5t-84.5 -52.5z" />
    <glyph glyph-name="arrowleft" unicode="&#x2190;" horiz-adv-x="758" 
d="M744 287h-510l249 -225l-85 -85l-354 331v79l354 330l85 -85l-250 -225h511v-120z" />
    <glyph glyph-name="arrowup" unicode="&#x2191;" horiz-adv-x="850" 
d="M37 346l364 354h81l364 -354l-85 -85l-256 251v-512h-128v512l-255 -251z" />
    <glyph glyph-name="arrowright" unicode="&#x2192;" horiz-adv-x="757" 
d="M47 287v120h511l-250 225l85 85l354 -330v-79l-354 -331l-85 85l250 225h-511z" />
    <glyph glyph-name="arrowdown" unicode="&#x2193;" horiz-adv-x="850" 
d="M38 354l85 85l256 -251v512h128v-512l256 251l85 -85l-365 -354h-80z" />
    <glyph glyph-name="arrowboth" unicode="&#x2194;" horiz-adv-x="926" 
d="M44 306v80l294 318l85 -72l-212 -224h537l-211 224l85 72l294 -318v-80l-294 -319l-85 72l215 229h-544l215 -229l-85 -72z" />
    <glyph glyph-name="arrowupdn" unicode="&#x2195;" horiz-adv-x="820" 
d="M61 216l70 85l236 -154v407l-236 -153l-70 84l326 217h80l327 -217l-71 -84l-234 152v-404l234 152l71 -85l-327 -216h-80z" />
    <glyph glyph-name="uni2196" unicode="&#x2196;" horiz-adv-x="685" 
d="M554 45l-362 363v-360h-118v511l57 57h510v-118h-361l364 -363z" />
    <glyph glyph-name="uni2197" unicode="&#x2197;" horiz-adv-x="707" 
d="M173 57l-90 90l364 363h-361v118h510l57 -57v-511h-118v360z" />
    <glyph glyph-name="uni2198" unicode="&#x2198;" horiz-adv-x="685" 
d="M160 627l362 -363v360h118v-511l-57 -57h-510v118h361l-364 363z" />
    <glyph glyph-name="uni2199" unicode="&#x2199;" horiz-adv-x="707" 
d="M566 627l89 -90l-364 -363h361v-118h-510l-56 57v511h117v-360z" />
    <glyph glyph-name="partialdiff" unicode="&#x2202;" horiz-adv-x="595" 
d="M208 -8q-59 0 -104 26.5t-65 81t-5 137.5q12 68 42.5 127t75 102.5t98 68t111.5 24.5q26 0 47.5 -6.5t37.5 -22.5t24 -43q4 52 -6 91t-38 61.5t-80 22.5q-16 0 -34 -2.5t-39 -6.5l13 71q30 9 57.5 12.5t52.5 3.5q81 0 129.5 -40t64 -114t-2.5 -178q-17 -97 -53 -174
t-86.5 -131t-111.5 -82.5t-128 -28.5zM242 107q33 0 62 17t53.5 46t41.5 68t25 82q11 65 -10 95.5t-63 30.5q-33 0 -62 -15.5t-52.5 -44t-41 -66.5t-24.5 -82q-8 -46 -0.5 -74.5t26.5 -42.5t45 -14z" />
    <glyph glyph-name="uni2206" unicode="&#x2206;" horiz-adv-x="716" 
d="M-22 0l18 103l386 597h110l175 -597l-19 -103h-670zM135 103h393l-118 444z" />
    <glyph glyph-name="product" unicode="&#x220f;" horiz-adv-x="739" 
d="M57 0l105 596h-74l19 104h684l-19 -104h-75l-104 -596h-135l105 596h-266l-105 -596h-135z" />
    <glyph glyph-name="summation" unicode="&#x2211;" horiz-adv-x="500" 
d="M-9 -50l28 157l287 226l-210 211l28 156h429l-19 -103h-314l220 -217l-17 -98l-294 -228h309l-19 -104h-428z" />
    <glyph glyph-name="minus" unicode="&#x2212;" horiz-adv-x="579" 
d="M75 233l20 113h422l-20 -113h-422z" />
    <glyph glyph-name="uni2215" unicode="&#x2215;" horiz-adv-x="426" 
d="M-41 -114l407 893h131l-408 -893h-130z" />
    <glyph glyph-name="radical" unicode="&#x221a;" horiz-adv-x="793" 
d="M14 224l213 113l86 -223l561 774h85l-675 -930h-65l-95 244l-82 -43z" />
    <glyph glyph-name="infinity" unicode="&#x221e;" horiz-adv-x="741" 
d="M178 126q-64 0 -103.5 37t-36.5 105q2 54 28.5 94.5t70 63.5t96.5 23q46 0 77.5 -16.5t53.5 -43t39 -56t33.5 -56t37.5 -43.5t52 -17q35 0 57.5 22t24.5 55q1 31 -15.5 47t-44.5 16q-37 0 -74.5 -27t-63.5 -73l-60 30q19 43 52 80t76.5 59.5t95.5 22.5q66 0 105.5 -37
t36.5 -105q-3 -53 -30 -94t-71 -64t-97 -23q-46 0 -79 16.5t-56 43t-41 56t-35 56t-36.5 43.5t-47.5 17q-30 0 -52.5 -22t-24.5 -56q-1 -30 16.5 -46t44.5 -16q37 0 73.5 27.5t62.5 72.5l60 -30q-19 -43 -51.5 -80t-76.5 -59.5t-97 -22.5z" />
    <glyph glyph-name="integral" unicode="&#x222b;" horiz-adv-x="278" 
d="M-131 -235l31 114h19q21 0 33.5 12t19.5 39l237 838q17 62 48.5 97.5t75 50.5t94.5 15h20l-32 -115h-18q-19 0 -32 -10.5t-21 -37.5l-237 -838q-17 -62 -48.5 -98.5t-74.5 -51.5t-96 -15h-19z" />
    <glyph glyph-name="approxequal" unicode="&#x2248;" horiz-adv-x="579" 
d="M347 82q-32 0 -55 10.5t-41 23.5t-35.5 23.5t-39.5 10.5q-26 0 -45.5 -17.5t-30.5 -49.5h-101q22 65 53 106.5t70 61t82 19.5q32 0 55 -10.5t41.5 -23.5t36.5 -23.5t39 -10.5q27 0 46 17.5t29 49.5h102q-20 -65 -51.5 -106t-71 -61t-83.5 -20zM388 314q-32 0 -55 10.5
t-41 23.5t-35.5 23.5t-39.5 10.5q-26 0 -45.5 -17.5t-30.5 -49.5h-101q22 65 53 106.5t70 61t82 19.5q32 0 55 -10.5t41.5 -23.5t36.5 -23.5t39 -10.5q27 0 46 17.5t29 49.5h102q-20 -65 -51.5 -106t-71 -61t-83.5 -20z" />
    <glyph glyph-name="notequal" unicode="&#x2260;" horiz-adv-x="579" 
d="M61 51l335 477h104l-334 -477h-105zM92 342l21 119h428l-20 -119h-429zM53 119l20 118h429l-21 -118h-428z" />
    <glyph glyph-name="lessequal" unicode="&#x2264;" horiz-adv-x="579" 
d="M314 258l-188 188v0l254 188h171l-252 -188l186 -188h-171zM79 89l18 103h378l-18 -103h-378z" />
    <glyph glyph-name="greaterequal" unicode="&#x2265;" horiz-adv-x="579" 
d="M100 258l252 188l-186 188h170l188 -188v0l-254 -188h-170zM60 89l18 103h378l-18 -103h-378z" />
    <glyph glyph-name="lozenge" unicode="&#x25ca;" horiz-adv-x="560" 
d="M253 98l-208 254l298 252l208 -252zM277 231l141 121l-98 119l-142 -120z" />
    <glyph glyph-name="Q.ss06" horiz-adv-x="798" 
d="M519 -126l-125 186l133 30l159 -216h-167zM354 -12q-91 0 -159 41t-104 112.5t-31 164.5q3 85 36.5 159t89.5 129.5t130 86.5t158 31q91 0 159 -41t103.5 -112.5t31.5 -163.5q-4 -86 -37.5 -160t-89.5 -129.5t-129.5 -86.5t-157.5 -31zM372 109q52 0 97.5 21t80.5 58.5
t55.5 88t23.5 110.5q3 62 -16 107.5t-58.5 70.5t-98.5 25q-52 0 -97.5 -20.5t-80.5 -58t-56 -87.5t-23 -110q-4 -62 16 -108t60 -71.5t97 -25.5z" />
    <glyph glyph-name="i.loclTRK" horiz-adv-x="267" 
d="M22 0l88 504h135l-88 -504h-135zM199 568q-26 0 -44.5 18.5t-18.5 44.5q0 28 18.5 46.5t44.5 18.5q28 0 46 -18.5t18 -46.5q0 -26 -18 -44.5t-46 -18.5z" />
    <glyph glyph-name="a.ss02" horiz-adv-x="650" 
d="M242 -12q-62 0 -107 30.5t-67.5 83t-19.5 119.5q3 63 26 117t61 93.5t88 62t106 22.5q60 0 97.5 -22t55.5 -56l26 66h120l-88 -504h-120l-3 69v0q-18 -21 -43.5 -40t-58 -30t-73.5 -11zM297 106q43 0 78 22.5t56.5 60.5t23.5 85q2 38 -11 65.5t-38.5 43t-61.5 15.5
q-43 0 -77.5 -21.5t-55.5 -58.5t-23 -84q-2 -37 10.5 -66t37.5 -45.5t61 -16.5z" />
    <glyph glyph-name="aacute.ss02" horiz-adv-x="650" 
d="M242 -12q-62 0 -107 30.5t-67.5 83t-19.5 119.5q3 63 26 117t61 93.5t88 62t106 22.5q60 0 97.5 -22t55.5 -56l26 66h120l-88 -504h-120l-3 69v0q-18 -21 -43.5 -40t-58 -30t-73.5 -11zM297 106q43 0 78 22.5t56.5 60.5t23.5 85q2 38 -11 65.5t-38.5 43t-61.5 15.5
q-43 0 -77.5 -21.5t-55.5 -58.5t-23 -84q-2 -37 10.5 -66t37.5 -45.5t61 -16.5zM277 544l-3 89l230 125v0l4 -102z" />
    <glyph glyph-name="abreve.ss02" horiz-adv-x="650" 
d="M242 -12q-62 0 -107 30.5t-67.5 83t-19.5 119.5q3 63 26 117t61 93.5t88 62t106 22.5q60 0 97.5 -22t55.5 -56l26 66h120l-88 -504h-120l-3 69v0q-18 -21 -43.5 -40t-58 -30t-73.5 -11zM297 106q43 0 78 22.5t56.5 60.5t23.5 85q2 38 -11 65.5t-38.5 43t-61.5 15.5
q-43 0 -77.5 -21.5t-55.5 -58.5t-23 -84q-2 -37 10.5 -66t37.5 -45.5t61 -16.5zM375 558q-48 0 -80 19t-45 54t-5 82l4 17h70q-6 -33 10 -52t64 -19q49 0 71.5 19t28.5 52h71l-3 -17q-8 -48 -33.5 -82.5t-64.5 -53.5t-88 -19z" />
    <glyph glyph-name="acircumflex.ss02" horiz-adv-x="650" 
d="M242 -12q-62 0 -107 30.5t-67.5 83t-19.5 119.5q3 63 26 117t61 93.5t88 62t106 22.5q60 0 97.5 -22t55.5 -56l26 66h120l-88 -504h-120l-3 69v0q-18 -21 -43.5 -40t-58 -30t-73.5 -11zM297 106q43 0 78 22.5t56.5 60.5t23.5 85q2 38 -11 65.5t-38.5 43t-61.5 15.5
q-43 0 -77.5 -21.5t-55.5 -58.5t-23 -84q-2 -37 10.5 -66t37.5 -45.5t61 -16.5zM226 549l18 96l162 82l133 -82l-18 -96l-132 85z" />
    <glyph glyph-name="adieresis.ss02" horiz-adv-x="650" 
d="M242 -12q-62 0 -107 30.5t-67.5 83t-19.5 119.5q3 63 26 117t61 93.5t88 62t106 22.5q60 0 97.5 -22t55.5 -56l26 66h120l-88 -504h-120l-3 69v0q-18 -21 -43.5 -40t-58 -30t-73.5 -11zM297 106q43 0 78 22.5t56.5 60.5t23.5 85q2 38 -11 65.5t-38.5 43t-61.5 15.5
q-43 0 -77.5 -21.5t-55.5 -58.5t-23 -84q-2 -37 10.5 -66t37.5 -45.5t61 -16.5zM297 571q-27 0 -45 18t-18 45t18 45.5t45 18.5q28 0 46 -18.5t18 -45.5t-18 -45t-46 -18zM481 571q-27 0 -45.5 18t-18.5 45t18.5 45.5t45.5 18.5t45.5 -18.5t18.5 -45.5t-18.5 -45t-45.5 -18z
" />
    <glyph glyph-name="agrave.ss02" horiz-adv-x="650" 
d="M242 -12q-62 0 -107 30.5t-67.5 83t-19.5 119.5q3 63 26 117t61 93.5t88 62t106 22.5q60 0 97.5 -22t55.5 -56l26 66h120l-88 -504h-120l-3 69v0q-18 -21 -43.5 -40t-58 -30t-73.5 -11zM297 106q43 0 78 22.5t56.5 60.5t23.5 85q2 38 -11 65.5t-38.5 43t-61.5 15.5
q-43 0 -77.5 -21.5t-55.5 -58.5t-23 -84q-2 -37 10.5 -66t37.5 -45.5t61 -16.5zM478 544l-202 112l33 102v0l197 -125z" />
    <glyph glyph-name="amacron.ss02" horiz-adv-x="650" 
d="M242 -12q-62 0 -107 30.5t-67.5 83t-19.5 119.5q3 63 26 117t61 93.5t88 62t106 22.5q60 0 97.5 -22t55.5 -56l26 66h120l-88 -504h-120l-3 69v0q-18 -21 -43.5 -40t-58 -30t-73.5 -11zM297 106q43 0 78 22.5t56.5 60.5t23.5 85q2 38 -11 65.5t-38.5 43t-61.5 15.5
q-43 0 -77.5 -21.5t-55.5 -58.5t-23 -84q-2 -37 10.5 -66t37.5 -45.5t61 -16.5zM191 587l17 95h378l-16 -95h-379z" />
    <glyph glyph-name="aogonek.ss02" horiz-adv-x="650" 
d="M242 -12q-62 0 -107 30.5t-67.5 83t-19.5 119.5q3 63 26 117t61 93.5t88 62t106 22.5q60 0 97.5 -22t55.5 -56l26 66h120l-88 -504h-120l-3 69v0q-18 -21 -43.5 -40t-58 -30t-73.5 -11zM297 106q43 0 78 22.5t56.5 60.5t23.5 85q2 38 -11 65.5t-38.5 43t-61.5 15.5
q-43 0 -77.5 -21.5t-55.5 -58.5t-23 -84q-2 -37 10.5 -66t37.5 -45.5t61 -16.5zM420 -211q-37 0 -66 11t-43 35t-8 60q5 27 22.5 52t53 49t94.5 47l48 20l19 -63l-55 -25q-39 -18 -56.5 -34t-21.5 -34q-3 -18 8.5 -29t35.5 -11q15 0 34 4t40 11l-14 -79q-20 -7 -43.5 -10.5
t-47.5 -3.5z" />
    <glyph glyph-name="aring.ss02" horiz-adv-x="650" 
d="M242 -12q-62 0 -107 30.5t-67.5 83t-19.5 119.5q3 63 26 117t61 93.5t88 62t106 22.5q60 0 97.5 -22t55.5 -56l26 66h120l-88 -504h-120l-3 69v0q-18 -21 -43.5 -40t-58 -30t-73.5 -11zM297 106q43 0 78 22.5t56.5 60.5t23.5 85q2 38 -11 65.5t-38.5 43t-61.5 15.5
q-43 0 -77.5 -21.5t-55.5 -58.5t-23 -84q-2 -37 10.5 -66t37.5 -45.5t61 -16.5zM395 557q-47 0 -81 30.5t-34 83.5q0 52 34 82.5t81 30.5q48 0 82 -30.5t34 -82.5q0 -53 -34 -83.5t-82 -30.5zM395 617q22 0 37 14.5t15 39.5t-15 39t-37 14q-20 0 -35.5 -14t-15.5 -39
t15.5 -39.5t35.5 -14.5z" />
    <glyph glyph-name="atilde.ss02" horiz-adv-x="650" 
d="M242 -12q-62 0 -107 30.5t-67.5 83t-19.5 119.5q3 63 26 117t61 93.5t88 62t106 22.5q60 0 97.5 -22t55.5 -56l26 66h120l-88 -504h-120l-3 69v0q-18 -21 -43.5 -40t-58 -30t-73.5 -11zM297 106q43 0 78 22.5t56.5 60.5t23.5 85q2 38 -11 65.5t-38.5 43t-61.5 15.5
q-43 0 -77.5 -21.5t-55.5 -58.5t-23 -84q-2 -37 10.5 -66t37.5 -45.5t61 -16.5zM197 561q21 67 58.5 98t83.5 31q29 0 47 -11.5t33.5 -23t36.5 -11.5q17 0 30.5 11.5t20.5 33.5h72q-22 -66 -59.5 -97t-84.5 -31q-28 0 -46.5 11t-34 22.5t-35.5 11.5q-17 0 -30 -11t-21 -34
h-71z" />
    <glyph glyph-name="ae.ss02" horiz-adv-x="1008" 
d="M242 -12q-62 0 -107 30.5t-67.5 83t-19.5 119.5q3 63 26 117t61 93.5t88 62t106 22.5t92 -19.5t56 -50.5l17 58h107l-7 -38q35 24 76.5 37t89.5 13q68 0 116 -28t72 -76t21 -111q0 -21 -4.5 -42.5t-9.5 -39.5h-371q-3 -36 7.5 -63.5t34.5 -42.5t59 -15q38 0 65 16t44 41
h138q-23 -47 -62.5 -85t-90.5 -60t-110 -22q-47 0 -85 14t-65 39l-7 -41h-107l4 62v0q-18 -20 -42.5 -37t-55.5 -27t-69 -10zM297 106q43 0 78 22.5t56.5 60.5t23.5 85q2 38 -11 65.5t-38.5 43t-61.5 15.5q-43 0 -77.5 -21.5t-55.5 -58.5t-23 -84q-2 -37 10.5 -66
t37.5 -45.5t61 -16.5zM602 301h233q4 34 -7.5 57.5t-33.5 35.5t-52 12t-57.5 -11.5t-49 -34.5t-33.5 -59z" />
    <glyph glyph-name="aeacute.ss02" horiz-adv-x="1008" 
d="M242 -12q-62 0 -107 30.5t-67.5 83t-19.5 119.5q3 63 26 117t61 93.5t88 62t106 22.5t92 -19.5t56 -50.5l17 58h107l-7 -38q35 24 76.5 37t89.5 13q68 0 116 -28t72 -76t21 -111q0 -21 -4.5 -42.5t-9.5 -39.5h-371q-3 -36 7.5 -63.5t34.5 -42.5t59 -15q38 0 65 16t44 41
h138q-23 -47 -62.5 -85t-90.5 -60t-110 -22q-47 0 -85 14t-65 39l-7 -41h-107l4 62v0q-18 -20 -42.5 -37t-55.5 -27t-69 -10zM297 106q43 0 78 22.5t56.5 60.5t23.5 85q2 38 -11 65.5t-38.5 43t-61.5 15.5q-43 0 -77.5 -21.5t-55.5 -58.5t-23 -84q-2 -37 10.5 -66
t37.5 -45.5t61 -16.5zM602 301h233q4 34 -7.5 57.5t-33.5 35.5t-52 12t-57.5 -11.5t-49 -34.5t-33.5 -59zM453 544l-3 89l230 125v0l4 -102z" />
    <glyph glyph-name="g.ss03" horiz-adv-x="662" 
d="M249 -232q-47 0 -90 11t-76.5 35.5t-51.5 62.5t-15 90h134q1 -25 15.5 -43.5t40 -28.5t59.5 -10q37 0 69.5 14.5t56.5 45.5t33 79l10 60q-19 -23 -45 -42t-60 -30t-75 -11q-65 0 -112 29.5t-71.5 81t-21.5 115.5q3 60 26 112.5t62.5 92t90.5 62t110 22.5q55 0 97 -22.5
t61 -56.5v0l27 67h120l-84 -476q-12 -66 -41 -115t-71 -81t-92.5 -48t-105.5 -16zM302 117q44 0 80.5 21.5t58.5 58t23 80.5q2 36 -11.5 63t-40 42.5t-64.5 15.5q-45 0 -80.5 -21t-56.5 -57t-23 -80q-2 -35 11 -63t39.5 -44t63.5 -16z" />
    <glyph glyph-name="gbreve.ss03" horiz-adv-x="662" 
d="M249 -232q-47 0 -90 11t-76.5 35.5t-51.5 62.5t-15 90h134q1 -25 15.5 -43.5t40 -28.5t59.5 -10q37 0 69.5 14.5t56.5 45.5t33 79l10 60q-19 -23 -45 -42t-60 -30t-75 -11q-65 0 -112 29.5t-71.5 81t-21.5 115.5q3 60 26 112.5t62.5 92t90.5 62t110 22.5q55 0 97 -22.5
t61 -56.5v0l27 67h120l-84 -476q-12 -66 -41 -115t-71 -81t-92.5 -48t-105.5 -16zM302 117q44 0 80.5 21.5t58.5 58t23 80.5q2 36 -11.5 63t-40 42.5t-64.5 15.5q-45 0 -80.5 -21t-56.5 -57t-23 -80q-2 -35 11 -63t39.5 -44t63.5 -16zM361 558q-48 0 -80 19t-45 54t-5 82
l4 17h70q-6 -33 10 -52t64 -19q49 0 71.5 19t28.5 52h71l-3 -17q-8 -48 -33.5 -82.5t-64.5 -53.5t-88 -19z" />
    <glyph glyph-name="uni0123.ss03" horiz-adv-x="662" 
d="M249 -232q-47 0 -90 11t-76.5 35.5t-51.5 62.5t-15 90h134q1 -25 15.5 -43.5t40 -28.5t59.5 -10q37 0 69.5 14.5t56.5 45.5t33 79l10 60q-19 -23 -45 -42t-60 -30t-75 -11q-65 0 -112 29.5t-71.5 81t-21.5 115.5q3 60 26 112.5t62.5 92t90.5 62t110 22.5q55 0 97 -22.5
t61 -56.5v0l27 67h120l-84 -476q-12 -66 -41 -115t-71 -81t-92.5 -48t-105.5 -16zM302 117q44 0 80.5 21.5t58.5 58t23 80.5q2 36 -11.5 63t-40 42.5t-64.5 15.5q-45 0 -80.5 -21t-56.5 -57t-23 -80q-2 -35 11 -63t39.5 -44t63.5 -16zM459 781l-9 -54q-23 0 -36.5 -9
t-17.5 -28l-2 -18h46l-19 -106h-105q-1 29 0 51.5t5 46.5q10 56 45 86.5t93 30.5z" />
    <glyph glyph-name="gdotaccent.ss03" horiz-adv-x="662" 
d="M249 -232q-47 0 -90 11t-76.5 35.5t-51.5 62.5t-15 90h134q1 -25 15.5 -43.5t40 -28.5t59.5 -10q37 0 69.5 14.5t56.5 45.5t33 79l10 60q-19 -23 -45 -42t-60 -30t-75 -11q-65 0 -112 29.5t-71.5 81t-21.5 115.5q3 60 26 112.5t62.5 92t90.5 62t110 22.5q55 0 97 -22.5
t61 -56.5v0l27 67h120l-84 -476q-12 -66 -41 -115t-71 -81t-92.5 -48t-105.5 -16zM302 117q44 0 80.5 21.5t58.5 58t23 80.5q2 36 -11.5 63t-40 42.5t-64.5 15.5q-45 0 -80.5 -21t-56.5 -57t-23 -80q-2 -35 11 -63t39.5 -44t63.5 -16zM374 568q-26 0 -44.5 18.5t-18.5 44.5
q0 28 18.5 46.5t44.5 18.5q28 0 46 -18.5t18 -46.5q0 -26 -18 -44.5t-46 -18.5z" />
    <glyph glyph-name="u.ss04" horiz-adv-x="612" 
d="M260 -12q-123 0 -173.5 63t-30.5 177l49 276h134l-47 -267q-9 -48 -3.5 -80.5t27.5 -49t62 -16.5q39 0 66.5 16.5t44.5 49t26 80.5l47 267h134l-48 -276q-20 -114 -92.5 -177t-195.5 -63z" />
    <glyph glyph-name="uacute.ss04" horiz-adv-x="612" 
d="M260 -12q-123 0 -173.5 63t-30.5 177l49 276h134l-47 -267q-9 -48 -3.5 -80.5t27.5 -49t62 -16.5q39 0 66.5 16.5t44.5 49t26 80.5l47 267h134l-48 -276q-20 -114 -92.5 -177t-195.5 -63zM262 544l-3 89l230 125v0l4 -102z" />
    <glyph glyph-name="ubreve.ss04" horiz-adv-x="612" 
d="M260 -12q-123 0 -173.5 63t-30.5 177l49 276h134l-47 -267q-9 -48 -3.5 -80.5t27.5 -49t62 -16.5q39 0 66.5 16.5t44.5 49t26 80.5l47 267h134l-48 -276q-20 -114 -92.5 -177t-195.5 -63zM360 558q-48 0 -80 19t-45 54t-5 82l4 17h70q-6 -33 10 -52t64 -19q49 0 71.5 19
t28.5 52h71l-3 -17q-8 -48 -33.5 -82.5t-64.5 -53.5t-88 -19z" />
    <glyph glyph-name="ucircumflex.ss04" horiz-adv-x="612" 
d="M260 -12q-123 0 -173.5 63t-30.5 177l49 276h134l-47 -267q-9 -48 -3.5 -80.5t27.5 -49t62 -16.5q39 0 66.5 16.5t44.5 49t26 80.5l47 267h134l-48 -276q-20 -114 -92.5 -177t-195.5 -63zM211 549l18 96l162 82l133 -82l-18 -96l-132 85z" />
    <glyph glyph-name="udieresis.ss04" horiz-adv-x="612" 
d="M260 -12q-123 0 -173.5 63t-30.5 177l49 276h134l-47 -267q-9 -48 -3.5 -80.5t27.5 -49t62 -16.5q39 0 66.5 16.5t44.5 49t26 80.5l47 267h134l-48 -276q-20 -114 -92.5 -177t-195.5 -63zM282 571q-27 0 -45 18t-18 45t18 45.5t45 18.5q28 0 46 -18.5t18 -45.5t-18 -45
t-46 -18zM466 571q-27 0 -45.5 18t-18.5 45t18.5 45.5t45.5 18.5t45.5 -18.5t18.5 -45.5t-18.5 -45t-45.5 -18z" />
    <glyph glyph-name="ugrave.ss04" horiz-adv-x="612" 
d="M260 -12q-123 0 -173.5 63t-30.5 177l49 276h134l-47 -267q-9 -48 -3.5 -80.5t27.5 -49t62 -16.5q39 0 66.5 16.5t44.5 49t26 80.5l47 267h134l-48 -276q-20 -114 -92.5 -177t-195.5 -63zM463 544l-202 112l33 102v0l197 -125z" />
    <glyph glyph-name="uhungarumlaut.ss04" horiz-adv-x="612" 
d="M260 -12q-123 0 -173.5 63t-30.5 177l49 276h134l-47 -267q-9 -48 -3.5 -80.5t27.5 -49t62 -16.5q39 0 66.5 16.5t44.5 49t26 80.5l47 267h134l-48 -276q-20 -114 -92.5 -177t-195.5 -63zM348 551l119 185h110l-144 -185h-85zM175 551l104 185h109l-129 -185h-84z" />
    <glyph glyph-name="umacron.ss04" horiz-adv-x="612" 
d="M260 -12q-123 0 -173.5 63t-30.5 177l49 276h134l-47 -267q-9 -48 -3.5 -80.5t27.5 -49t62 -16.5q39 0 66.5 16.5t44.5 49t26 80.5l47 267h134l-48 -276q-20 -114 -92.5 -177t-195.5 -63zM176 587l17 95h378l-16 -95h-379z" />
    <glyph glyph-name="uogonek.ss04" horiz-adv-x="612" 
d="M260 -12q-123 0 -173.5 63t-30.5 177l49 276h134l-47 -267q-9 -48 -3.5 -80.5t27.5 -49t62 -16.5q39 0 66.5 16.5t44.5 49t26 80.5l47 267h134l-48 -276q-20 -114 -92.5 -177t-195.5 -63zM266 -201q-37 0 -66 11t-43 35t-8 60q5 27 22.5 52t53 49t94.5 47l48 20l19 -63
l-55 -25q-39 -18 -56.5 -34t-21.5 -34q-3 -18 8.5 -29t35.5 -11q15 0 34 4t40 11l-14 -79q-20 -7 -43.5 -10.5t-47.5 -3.5z" />
    <glyph glyph-name="uring.ss04" horiz-adv-x="612" 
d="M260 -12q-123 0 -173.5 63t-30.5 177l49 276h134l-47 -267q-9 -48 -3.5 -80.5t27.5 -49t62 -16.5q39 0 66.5 16.5t44.5 49t26 80.5l47 267h134l-48 -276q-20 -114 -92.5 -177t-195.5 -63zM380 557q-47 0 -81 30.5t-34 83.5q0 52 34 82.5t81 30.5q48 0 82 -30.5t34 -82.5
q0 -53 -34 -83.5t-82 -30.5zM380 617q22 0 37 14.5t15 39.5t-15 39t-37 14q-20 0 -35.5 -14t-15.5 -39t15.5 -39.5t35.5 -14.5z" />
    <glyph glyph-name="utilde.ss04" horiz-adv-x="612" 
d="M260 -12q-123 0 -173.5 63t-30.5 177l49 276h134l-47 -267q-9 -48 -3.5 -80.5t27.5 -49t62 -16.5q39 0 66.5 16.5t44.5 49t26 80.5l47 267h134l-48 -276q-20 -114 -92.5 -177t-195.5 -63zM182 561q21 67 58.5 98t83.5 31q29 0 47 -11.5t33.5 -23t36.5 -11.5
q17 0 30.5 11.5t20.5 33.5h72q-22 -66 -59.5 -97t-84.5 -31q-28 0 -46.5 11t-34 22.5t-35.5 11.5q-17 0 -30 -11t-21 -34h-71z" />
    <glyph glyph-name="y.ss05" horiz-adv-x="622" 
d="M225 -232q-42 0 -81.5 11t-70 34t-46.5 59t-13 86h134q0 -24 11.5 -42t32.5 -28t49 -10q37 0 65 16t47 48.5t27 82.5l9 49v0q-29 -34 -72 -54.5t-102 -20.5q-63 0 -103 25.5t-54.5 76.5t-1.5 127l49 276h134l-47 -269q-7 -40 -0.5 -68.5t27.5 -43.5t58 -15t66.5 16.5
t48.5 46.5t27 73l46 260h135l-85 -479q-15 -85 -58 -142.5t-103.5 -86t-128.5 -28.5z" />
    <glyph glyph-name="yacute.ss05" horiz-adv-x="622" 
d="M225 -232q-42 0 -81.5 11t-70 34t-46.5 59t-13 86h134q0 -24 11.5 -42t32.5 -28t49 -10q37 0 65 16t47 48.5t27 82.5l9 49v0q-29 -34 -72 -54.5t-102 -20.5q-63 0 -103 25.5t-54.5 76.5t-1.5 127l49 276h134l-47 -269q-7 -40 -0.5 -68.5t27.5 -43.5t58 -15t66.5 16.5
t48.5 46.5t27 73l46 260h135l-85 -479q-15 -85 -58 -142.5t-103.5 -86t-128.5 -28.5zM268 544l-3 89l230 125v0l4 -102z" />
    <glyph glyph-name="ycircumflex.ss05" horiz-adv-x="622" 
d="M225 -232q-42 0 -81.5 11t-70 34t-46.5 59t-13 86h134q0 -24 11.5 -42t32.5 -28t49 -10q37 0 65 16t47 48.5t27 82.5l9 49v0q-29 -34 -72 -54.5t-102 -20.5q-63 0 -103 25.5t-54.5 76.5t-1.5 127l49 276h134l-47 -269q-7 -40 -0.5 -68.5t27.5 -43.5t58 -15t66.5 16.5
t48.5 46.5t27 73l46 260h135l-85 -479q-15 -85 -58 -142.5t-103.5 -86t-128.5 -28.5zM217 549l18 96l162 82l133 -82l-18 -96l-132 85z" />
    <glyph glyph-name="ydieresis.ss05" horiz-adv-x="622" 
d="M225 -232q-42 0 -81.5 11t-70 34t-46.5 59t-13 86h134q0 -24 11.5 -42t32.5 -28t49 -10q37 0 65 16t47 48.5t27 82.5l9 49v0q-29 -34 -72 -54.5t-102 -20.5q-63 0 -103 25.5t-54.5 76.5t-1.5 127l49 276h134l-47 -269q-7 -40 -0.5 -68.5t27.5 -43.5t58 -15t66.5 16.5
t48.5 46.5t27 73l46 260h135l-85 -479q-15 -85 -58 -142.5t-103.5 -86t-128.5 -28.5zM288 571q-27 0 -45 18t-18 45t18 45.5t45 18.5q28 0 46 -18.5t18 -45.5t-18 -45t-46 -18zM472 571q-27 0 -45.5 18t-18.5 45t18.5 45.5t45.5 18.5t45.5 -18.5t18.5 -45.5t-18.5 -45
t-45.5 -18z" />
    <glyph glyph-name="ygrave.ss05" horiz-adv-x="622" 
d="M225 -232q-42 0 -81.5 11t-70 34t-46.5 59t-13 86h134q0 -24 11.5 -42t32.5 -28t49 -10q37 0 65 16t47 48.5t27 82.5l9 49v0q-29 -34 -72 -54.5t-102 -20.5q-63 0 -103 25.5t-54.5 76.5t-1.5 127l49 276h134l-47 -269q-7 -40 -0.5 -68.5t27.5 -43.5t58 -15t66.5 16.5
t48.5 46.5t27 73l46 260h135l-85 -479q-15 -85 -58 -142.5t-103.5 -86t-128.5 -28.5zM469 544l-202 112l33 102v0l197 -125z" />
    <glyph glyph-name="uni1EF9.ss05" horiz-adv-x="622" 
d="M225 -232q-42 0 -81.5 11t-70 34t-46.5 59t-13 86h134q0 -24 11.5 -42t32.5 -28t49 -10q37 0 65 16t47 48.5t27 82.5l9 49v0q-29 -34 -72 -54.5t-102 -20.5q-63 0 -103 25.5t-54.5 76.5t-1.5 127l49 276h134l-47 -269q-7 -40 -0.5 -68.5t27.5 -43.5t58 -15t66.5 16.5
t48.5 46.5t27 73l46 260h135l-85 -479q-15 -85 -58 -142.5t-103.5 -86t-128.5 -28.5zM188 561q21 67 58.5 98t83.5 31q29 0 47 -11.5t33.5 -23t36.5 -11.5q17 0 30.5 11.5t20.5 33.5h72q-22 -66 -59.5 -97t-84.5 -31q-28 0 -46.5 11t-34 22.5t-35.5 11.5q-17 0 -30 -11
t-21 -34h-71z" />
    <glyph glyph-name="one.ss07" horiz-adv-x="425" 
d="M102 0l96 545l-121 -27l18 105l188 77h82l-124 -700h-139zM12 106h358l-20 -106h-357z" />
    <glyph glyph-name="three.ss07" horiz-adv-x="603" 
d="M255 -6q-61 0 -104 17t-69 47t-35.5 71.5t-3.5 91.5h129q-7 -49 18.5 -81.5t84.5 -32.5q41 0 72 17.5t48.5 48.5t18.5 71q3 48 -25.5 76t-82.5 28h-101l16 89l232 180l36 -33h-345l21 116h435l-18 -100l-260 -202l-54 38h70q100 0 154 -49t49 -136q-3 -76 -40.5 -134
t-101 -90.5t-144.5 -32.5z" />
    <glyph glyph-name="four.ss07" horiz-adv-x="655" 
d="M338 0l23 133h-335l19 108l370 459h144l-369 -450h201l28 157l131 29l-33 -186h91l-21 -117h-91l-24 -133h-134z" />
    <glyph glyph-name="six.ss07" horiz-adv-x="611" 
d="M262 -9q-70 0 -120 27t-75 75t-22 110q1 38 11.5 72.5t27 66.5t37.5 61t44 56l208 244h150l-250 -285l3 29q15 7 31 11t33 6.5t33 2.5q60 0 103 -25t65 -69.5t19 -104.5q-3 -81 -43.5 -143.5t-107 -98t-147.5 -35.5zM282 106q43 0 76 19t52.5 52.5t20.5 76.5
q2 33 -9.5 57.5t-36 38.5t-59.5 14q-42 0 -76 -19.5t-53.5 -53.5t-21.5 -77q-3 -49 26 -78.5t81 -29.5z" />
    <glyph glyph-name="nine.ss07" horiz-adv-x="611" 
d="M122 0l251 286l-4 -30q-14 -6 -30 -10.5t-33 -7t-34 -2.5q-59 0 -102 25t-65 70t-19 104q3 81 43.5 143.5t106.5 98t147 35.5q71 0 120.5 -27.5t75 -75.5t22.5 -110q-1 -37 -11.5 -72t-27.5 -67t-38 -60.5t-43 -55.5l-208 -244h-151zM320 339q43 0 76.5 19.5t53 54
t21.5 77.5q2 49 -26.5 78t-80.5 29q-42 0 -75.5 -19t-53 -52t-21.5 -77q-2 -49 25.5 -79.5t80.5 -30.5z" />
    <glyph glyph-name="one.dnom" horiz-adv-x="237" 
d="M49 0l45 255l-73 -16l11 64l124 49h58l-62 -352h-103z" />
    <glyph glyph-name="two.dnom" horiz-adv-x="361" 
d="M-7 0l13 76l133 82q31 19 51 40t25 46q3 20 -5.5 30.5t-24.5 10.5q-18 0 -31 -12t-20 -33h-102q12 52 58 86t117 34q46 0 73.5 -15.5t39 -40.5t5.5 -53q-7 -39 -38.5 -67.5t-92.5 -60.5l-77 -42h177l-15 -81h-286z" />
    <glyph glyph-name="three.dnom" horiz-adv-x="355" 
d="M132 -4q-77 0 -110 31t-27 84h105q-1 -15 3.5 -24t14.5 -13t22 -4q20 0 34.5 10.5t17.5 30.5q4 21 -8.5 32t-35.5 11h-39l9 50h35q23 0 38.5 10.5t19.5 31.5q3 19 -6.5 29t-30.5 10q-20 0 -33 -9.5t-20 -27.5h-97q10 45 54 78.5t119 33.5q64 0 98.5 -29.5t26.5 -73.5
q-5 -31 -26.5 -50.5t-53.5 -27.5l-1 -2q32 -10 47.5 -30t10.5 -52q-8 -44 -53.5 -71.5t-113.5 -27.5z" />
    <glyph glyph-name="four.dnom" horiz-adv-x="350" 
d="M147 0l11 61h-165l12 68l193 219h110l-38 -217h38l-13 -70h-37l-11 -61h-100zM104 131h74l18 107v0z" />
    <glyph glyph-name="one.numr" horiz-adv-x="237" 
d="M111 352l45 255l-73 -16l11 64l124 49h58l-62 -352h-103z" />
    <glyph glyph-name="two.numr" horiz-adv-x="361" 
d="M55 352l13 76l133 82q31 19 51 40t25 46q3 20 -5.5 30.5t-24.5 10.5q-18 0 -31 -12t-20 -33h-102q12 52 58 86t117 34q46 0 73.5 -15.5t39 -40.5t5.5 -53q-7 -39 -38.5 -67.5t-92.5 -60.5l-77 -42h177l-15 -81h-286z" />
    <glyph glyph-name="three.numr" horiz-adv-x="355" 
d="M194 348q-77 0 -110 31t-27 84h105q-1 -15 3.5 -24t14.5 -13t22 -4q20 0 34.5 10.5t17.5 30.5q4 21 -8.5 32t-35.5 11h-39l9 50h35q23 0 38.5 10.5t19.5 31.5q3 19 -6.5 29t-30.5 10q-20 0 -33 -9.5t-20 -27.5h-97q10 45 54 78.5t119 33.5q64 0 98.5 -29.5t26.5 -73.5
q-5 -31 -26.5 -50.5t-53.5 -27.5l-1 -2q32 -10 47.5 -30t10.5 -52q-8 -44 -53.5 -71.5t-113.5 -27.5z" />
    <glyph glyph-name="four.numr" horiz-adv-x="350" 
d="M209 352l11 61h-165l12 68l193 219h110l-38 -217h38l-13 -70h-37l-11 -61h-100zM166 483h74l18 107v0z" />
    <glyph glyph-name="comma.ss01" horiz-adv-x="220" 
d="M-12 -104l9 54q26 0 41 15t20 46l3 19h-57l19 106h120q4 -28 3 -55t-6 -51q-10 -63 -48 -98.5t-104 -35.5z" />
    <glyph glyph-name="semicolon.ss01" horiz-adv-x="255" 
d="M157 360q-36 0 -59 22.5t-23 55.5t23 55.5t59 22.5t59 -22.5t23 -55.5t-23 -55.5t-59 -22.5zM8 -104l9 54q26 0 41 15t20 46l3 19h-57l19 106h120q4 -28 3 -55t-6 -51q-10 -63 -48 -98.5t-104 -35.5z" />
    <glyph glyph-name="quotesinglbase.ss01" horiz-adv-x="213" 
d="M-12 -102l10 54q26 0 40.5 15t19.5 46l4 19h-57l19 106h113q4 -28 3 -55t-6 -51q-10 -63 -47.5 -98.5t-98.5 -35.5z" />
    <glyph glyph-name="quotedblbase.ss01" horiz-adv-x="378" 
d="M152 -102l10 54q26 0 40.5 15t19.5 46l4 19h-57l19 106h113q4 -28 3 -55t-6 -51q-10 -63 -47.5 -98.5t-98.5 -35.5zM-12 -102l10 54q26 0 40.5 15t19.5 46l4 19h-57l19 106h113q4 -28 3 -55t-6 -51q-10 -63 -47.5 -98.5t-98.5 -35.5z" />
    <glyph glyph-name="quotedblleft.ss01" horiz-adv-x="367" 
d="M244 738l-9 -54q-25 0 -40 -15t-21 -46l-3 -19h57l-19 -107h-113q-4 30 -2.5 56.5t4.5 50.5q11 63 48 98.5t98 35.5zM409 738l-10 -54q-25 0 -40 -15t-20 -46l-4 -19h57l-19 -107h-113q-3 30 -2 56.5t4 50.5q11 63 48.5 98.5t98.5 35.5z" />
    <glyph glyph-name="quotedblright.ss01" horiz-adv-x="366" 
d="M251 498l10 54q26 0 40.5 15t19.5 46l4 19h-57l19 106h113q4 -28 3 -55t-6 -51q-10 -63 -47.5 -98.5t-98.5 -35.5zM87 498l10 54q26 0 40.5 15t19.5 46l4 19h-57l19 106h113q4 -28 3 -55t-6 -51q-10 -63 -47.5 -98.5t-98.5 -35.5z" />
    <glyph glyph-name="quoteleft.ss01" horiz-adv-x="202" 
d="M244 739l-9 -55q-25 0 -40 -15t-21 -46l-3 -19h57l-19 -106h-113q-4 29 -2.5 56t4.5 50q11 64 48 99.5t98 35.5z" />
    <glyph glyph-name="quoteright.ss01" horiz-adv-x="202" 
d="M87 498l10 54q26 0 40.5 15t19.5 46l4 19h-57l19 106h113q4 -28 3 -55t-6 -51q-10 -63 -47.5 -98.5t-98.5 -35.5z" />
    <glyph glyph-name="quotedblleft.ss08" horiz-adv-x="776" 
d="M405 -12q75 0 140.5 28t115.5 78t78 115.5t28 140.5t-28 140.5t-78 115.5t-115.5 78t-140.5 28t-140.5 -28t-115.5 -78t-78 -115.5t-28 -140.5t28 -140.5t78 -115.5t115.5 -78t140.5 -28zM399 483l-10 -59q-29 0 -46 -17t-22 -51l-4 -22h63l-21 -117h-124
q-4 33 -2.5 62.5t5.5 55.5q12 71 53 109.5t108 38.5zM579 483l-10 -59q-29 0 -45.5 -17t-22.5 -51l-4 -22h63l-21 -117h-124q-4 33 -2 62.5t5 55.5q12 71 53 109.5t108 38.5z" />
    <glyph glyph-name="quotedblright.ss08" horiz-adv-x="776" 
d="M405 712q-75 0 -140.5 -28t-115.5 -78t-78 -115.5t-28 -140.5t28 -140.5t78 -115.5t115.5 -78t140.5 -28t140.5 28t115.5 78t78 115.5t28 140.5t-28 140.5t-78 115.5t-115.5 78t-140.5 28zM411 217l11 59q29 0 45.5 17t21.5 51l5 22h-64l22 117h124q3 -33 2 -62.5
t-6 -55.5q-12 -70 -53 -109t-108 -39zM231 217l11 59q29 0 45.5 17t21.5 51l4 22h-63l21 117h124q4 -33 3 -62.5t-6 -55.5q-12 -70 -52.5 -109t-108.5 -39z" />
    <glyph glyph-name="arrowup.ss08" horiz-adv-x="776" 
d="M405 -12q-75 0 -140.5 28t-115.5 78t-78 115.5t-28 140.5t28 140.5t78 115.5t115.5 78t140.5 28t140.5 -28t115.5 -77.5t78 -115t28 -141.5q0 -75 -28 -140.5t-78 -115.5t-115.5 -78t-140.5 -28zM361 165h90v240l107 -106l57 58l-183 179h-53l-183 -180l57 -58l108 107
v-240z" />
    <glyph glyph-name="uni2197.ss08" horiz-adv-x="776" 
d="M405 -12q-75 0 -140.5 28t-115.5 78t-78 115.5t-28 140.5t28 140.5t78 115.5t115.5 78t140.5 28t140.5 -28t115.5 -77.5t78 -115.5t28 -141t-28 -140.5t-78 -115.5t-115.5 -78t-140.5 -28zM309 197l172 169v-165h79v266l-38 37h-265v-79h164l-170 -169z" />
    <glyph glyph-name="arrowright.ss08" horiz-adv-x="776" 
d="M405 -12q-75 0 -140.5 28t-115.5 78t-78 115.5t-28 140.5t28 140.5t78 115.5t115.5 78t140.5 28t140.5 -28t115.5 -78t78 -115.5t28 -140.5t-28 -140.5t-77.5 -115.5t-115.5 -78t-141 -28zM411 142l180 182v53l-180 181l-58 -56l112 -109h-245v-85h245l-112 -110z" />
    <glyph glyph-name="uni2198.ss08" horiz-adv-x="776" 
d="M405 712q75 0 140.5 -28t115.5 -78t78 -115.5t28 -140.5t-28 -141t-78 -115.5t-115.5 -77.5t-140.5 -28t-140.5 28t-115.5 78t-78 115.5t-28 140.5t28 140.5t78 115.5t115.5 78t140.5 28zM309 503l-58 -59l170 -169h-164v-79h265l38 37v266h-79v-165z" />
    <glyph glyph-name="arrowdown.ss08" horiz-adv-x="776" 
d="M405 712q75 0 140.5 -28t115.5 -78t78 -115.5t28 -140.5q0 -76 -28 -141.5t-78 -115t-115.5 -77.5t-140.5 -28t-140.5 28t-115.5 78t-78 115.5t-28 140.5t28 140.5t78 115.5t115.5 78t140.5 28zM361 535v-240l-108 107l-57 -58l183 -180h53l183 179l-57 58l-107 -106v240
h-90z" />
    <glyph glyph-name="uni2199.ss08" horiz-adv-x="776" 
d="M405 712q75 0 140.5 -28t115.5 -78t78 -115.5t28 -140.5t-28 -140.5t-78 -115.5t-115.5 -78t-140.5 -28t-140.5 28t-115.5 77.5t-78 115.5t-28 141t28 140.5t78 115.5t115.5 78t140.5 28zM501 503l-172 -169v165h-78v-266l37 -37h266v79h-164l170 169z" />
    <glyph glyph-name="arrowleft.ss08" horiz-adv-x="776" 
d="M405 -12q-75 0 -140.5 28t-115.5 78t-78 115.5t-28 140.5t28 140.5t78 115.5t115.5 78t140.5 28t140.5 -28t115.5 -78t78 -115.5t28 -140.5t-28 -140.5t-78 -115.5t-115.5 -78t-140.5 -28zM400 142l57 56l-111 110h245v85h-245l111 109l-57 56l-180 -181v-53z" />
    <glyph glyph-name="uni2196.ss08" horiz-adv-x="776" 
d="M405 -12q-75 0 -140.5 28t-115.5 78t-78 115.5t-28 140.5t28 141t78 115.5t115.5 77.5t140.5 28t140.5 -28t115.5 -78t78 -115.5t28 -140.5t-28 -140.5t-78 -115.5t-115.5 -78t-140.5 -28zM501 197l59 59l-170 169h164v79h-266l-37 -37v-266h78v165z" />
    <glyph glyph-name="arrowboth.ss08" horiz-adv-x="776" 
d="M405 -12q-75 0 -140.5 28t-115.5 78t-78 115.5t-28 140.5t28 140.5t78 115.5t115.5 78t140.5 28t140.5 -28t115.5 -77.5t78 -115.5t28 -141t-28 -140.5t-78 -115.5t-115.5 -78t-140.5 -28zM311 148l65 50l-90 108h244l-90 -108l64 -50l143 176v53l-143 174l-64 -48
l90 -109h-244l90 109l-64 48l-143 -174v-53z" />
    <glyph glyph-name="arrowupdn.ss08" horiz-adv-x="776" 
d="M405 -12q-75 0 -140.5 28t-115.5 78t-78 115.5t-28 140.5t28 140.5t78 115.5t115.5 78t140.5 28t140.5 -28t115.5 -78t78 -115.5t28 -140.5t-28 -140.5t-77.5 -115.5t-115.5 -78t-141 -28zM380 113h53l174 142l-48 63l-109 -89v242l109 -89l48 63l-174 142h-53l-175 -141
l49 -64l108 89v-242l-108 89l-49 -64z" />
    <glyph glyph-name="uni030C.alt" 
d="M46 509l9 55q24 0 37 8.5t17 27.5l2 19h-47l20 106h104q2 -29 1 -51.5t-5 -46.5q-10 -57 -45 -87.5t-93 -30.5z" />
    <glyph glyph-name="uni0308.case" 
d="M167 771q-27 0 -45 18t-18 45t18 45.5t45 18.5q28 0 46 -18.5t18 -45.5t-18 -45t-46 -18zM351 771q-27 0 -45.5 18t-18.5 45t18.5 45.5t45.5 18.5t45.5 -18.5t18.5 -45.5t-18.5 -45t-45.5 -18z" />
    <glyph glyph-name="uni0307.case" 
d="M167 770q-26 0 -44.5 18.5t-18.5 44.5q0 28 18.5 46.5t44.5 18.5q28 0 46 -18.5t18 -46.5q0 -26 -18 -44.5t-46 -18.5z" />
    <glyph glyph-name="gravecomb.case" 
d="M311 753l-202 112l33 102v0l197 -125z" />
    <glyph glyph-name="acutecomb.case" 
d="M107 753l-3 89l230 125v0l4 -102z" />
    <glyph glyph-name="uni030B.case" 
d="M263 760l119 185h110l-144 -185h-85zM90 760l104 185h109l-129 -185h-84z" />
    <glyph glyph-name="uni0302.case" 
d="M89 760l18 96l162 82l133 -82l-18 -96l-132 85z" />
    <glyph glyph-name="uni030C.case" 
d="M417 939l-17 -97l-163 -82l-132 82l17 97l132 -86z" />
    <glyph glyph-name="uni0306.case" 
d="M248 770q-48 0 -80 19t-45 54t-5 82l4 17h70q-6 -33 10 -52t64 -19q49 0 71.5 19t28.5 52h71l-3 -17q-8 -48 -33.5 -82.5t-64.5 -53.5t-88 -19z" />
    <glyph glyph-name="uni030A.case" 
d="M229 770q-47 0 -81 30.5t-34 83.5q0 52 34 82.5t81 30.5q48 0 82 -30.5t34 -82.5q0 -53 -34 -83.5t-82 -30.5zM229 830q22 0 37 14.5t15 39.5t-15 39t-37 14q-20 0 -35.5 -14t-15.5 -39t15.5 -39.5t35.5 -14.5z" />
    <glyph glyph-name="tildecomb.case" 
d="M92 769q21 67 58.5 98t83.5 31q29 0 47 -11.5t33.5 -23t36.5 -11.5q17 0 30.5 11.5t20.5 33.5h72q-22 -66 -59.5 -97t-84.5 -31q-28 0 -46.5 11t-34 22.5t-35.5 11.5q-17 0 -30 -11t-21 -34h-71z" />
    <glyph glyph-name="uni0304.case" 
d="M99 816l17 95h378l-16 -95h-379z" />
    <glyph glyph-name="uni0327.case" 
d="M-91 -264l14 77h114q27 0 42.5 9t15.5 29q1 17 -10 24t-34 7h-63l22 125h84l-10 -55q31 1 57 -8.5t41 -30.5t14 -55q-2 -38 -23 -65.5t-54.5 -42t-73.5 -14.5h-136z" />
    <glyph glyph-name="uni0328.case" 
d="M54 -211q-37 0 -66 11t-43 35t-8 60q5 27 22.5 52t53 49t94.5 47l48 20l19 -63l-55 -25q-39 -18 -56.5 -34t-21.5 -34q-3 -18 8.5 -29t35.5 -11q15 0 34 4t40 11l-14 -79q-20 -7 -43.5 -10.5t-47.5 -3.5z" />
    </font>
</defs>
</svg>
