<?xml version="1.0" standalone="no"?>
<!DOCTYPE svg PUBLIC "-//W3C//DTD SVG 1.1//EN" "http://www.w3.org/Graphics/SVG/1.1/DTD/svg11.dtd" >
<svg xmlns="http://www.w3.org/2000/svg" xmlns:xlink="http://www.w3.org/1999/xlink" version="1.1">
<metadata>
Created by FontForge 20201107 at Wed Jun 14 12:00:55 2023
 By 
Copyright 2014 The DM Sans Project Authors (https://github.com/googlefonts/dm-fonts)
</metadata>
<defs>
<font id="DMSans-ExtraBold" horiz-adv-x="0" >
  <font-face 
    font-family="DM Sans ExtraBold"
    font-weight="800"
    font-stretch="normal"
    units-per-em="1000"
    panose-1="0 0 0 0 0 0 0 0 0 0"
    ascent="800"
    descent="-200"
    x-height="504"
    cap-height="700"
    bbox="-56 -284 1252 981"
    underline-thickness="50"
    underline-position="-125"
    unicode-range="U+000D-FB02"
  />
<missing-glyph horiz-adv-x="537" 
d="M68 0v700h401v-700h-401zM138 57h261v586h-261v-586z" />
    <glyph glyph-name="fi" unicode="fi" horiz-adv-x="615" 
d="M88 0v387h-68v117h68v42q0 64 22 102t61.5 55t93.5 17h56v-119h-35q-31 0 -44.5 -12.5t-13.5 -41.5v-43h318v-504h-140v387h-178v-387h-140zM477 569q-38 0 -62 22.5t-24 56.5q0 33 24 55t62 22t62 -22t24 -55q0 -34 -24 -56.5t-62 -22.5z" />
    <glyph glyph-name="fl" unicode="fl" horiz-adv-x="645" 
d="M88 0v546q0 64 22 102t61.5 55t93.5 17h63v-119h-41q-32 0 -45.5 -12.5t-13.5 -42.5v-546h-140zM20 387v117h315v-117h-315zM440 0v720h140v-720h-140z" />
    <glyph glyph-name=".notdef" horiz-adv-x="537" 
d="M68 0v700h401v-700h-401zM138 57h261v586h-261v-586z" />
    <glyph glyph-name=".null" 
 />
    <glyph glyph-name="nonmarkingreturn" horiz-adv-x="333" 
 />
    <glyph glyph-name="CR" unicode="&#xd;" horiz-adv-x="600" 
 />
    <glyph glyph-name="space" unicode=" " horiz-adv-x="232" 
 />
    <glyph glyph-name="exclam" unicode="!" horiz-adv-x="315" 
d="M98 231l-16 469h150l-15 -469h-119zM158 -5q-39 0 -62.5 23.5t-23.5 56.5q0 34 23.5 57t62.5 23q38 0 61.5 -23t23.5 -57q0 -33 -23.5 -56.5t-61.5 -23.5z" />
    <glyph glyph-name="quotedbl" unicode="&#x22;" horiz-adv-x="374" 
d="M227 536l-13 219h120l-12 -219h-95zM53 536l-13 219h120l-12 -219h-95z" />
    <glyph glyph-name="numbersign" unicode="#" horiz-adv-x="862" 
d="M448 0l152 728h131l-152 -728h-131zM137 0l152 728h132l-152 -728h-132zM30 169v126h737v-126h-737zM85 437v125h738v-125h-738z" />
    <glyph glyph-name="dollar" unicode="$" horiz-adv-x="606" 
d="M269 -87v879h66v-879h-66zM311 -12q-76 0 -135.5 26t-94.5 76t-36 121h148q1 -30 15.5 -54t40.5 -38t61 -14q31 0 53.5 10t35 28t12.5 44q0 28 -14.5 48t-39.5 34t-57.5 25.5t-69.5 23.5q-83 27 -126.5 72t-43.5 120q0 64 30.5 109t85 69t123.5 24q71 0 125 -24.5
t85.5 -70.5t33.5 -109h-150q-1 23 -13 42.5t-33 31.5t-50 12q-25 1 -45.5 -7.5t-32.5 -25t-12 -41.5t12 -41.5t33.5 -28.5t50.5 -22.5t63 -21.5q53 -18 97 -42.5t70.5 -63.5t26.5 -103q0 -56 -29 -103.5t-84 -76.5t-136 -29z" />
    <glyph glyph-name="percent" unicode="%" horiz-adv-x="913" 
d="M191 0l392 700h136l-392 -700h-136zM697 -12q-49 0 -89 22t-63.5 62.5t-23.5 95.5q0 57 23.5 97t63.5 61.5t89 21.5t88.5 -21.5t62.5 -61.5t23 -97q0 -55 -23 -95.5t-62.5 -62.5t-88.5 -22zM696 83q19 0 34 10t23.5 29t8.5 46q0 29 -8.5 47.5t-23.5 28.5t-34 10t-34 -10
t-23.5 -28.5t-8.5 -47.5q0 -27 8.5 -46t23.5 -29t34 -10zM218 351q-49 0 -89 22t-63.5 62.5t-23.5 95.5q0 57 23.5 97t63.5 62t89 22t88.5 -22t62.5 -62t23 -97q0 -55 -23 -95.5t-62.5 -62.5t-88.5 -22zM217 446q19 0 34 10t23.5 29t8.5 46q0 29 -8.5 48t-23.5 29t-33 10
q-19 0 -34.5 -10t-24 -29t-8.5 -48q0 -27 8.5 -46t23.5 -29t34 -10z" />
    <glyph glyph-name="ampersand" unicode="&#x26;" horiz-adv-x="786" 
d="M596 0l-380 377q-47 46 -65.5 83.5t-18.5 79.5q0 48 24.5 87t71 62t112.5 23t111 -24t68.5 -64t22.5 -88h-134q1 35 -19.5 52t-50.5 17q-33 0 -53 -18t-20 -46q0 -24 15 -49.5t45 -56.5l437 -435h-166zM293 -11q-77 0 -134 26.5t-88 74.5t-31 113q0 51 20.5 94t63 76.5
t105.5 53.5l52 17l61 -87l-47 -15q-61 -19 -90 -52.5t-29 -77.5q0 -30 15 -55t43 -39.5t67 -14.5q54 0 96.5 24t81.5 76q18 23 35.5 52.5t34.5 66.5l20 42h142l-33 -68q-25 -52 -50.5 -95t-54.5 -77q-57 -70 -125 -102.5t-155 -32.5z" />
    <glyph glyph-name="quotesingle" unicode="'" horiz-adv-x="201" 
d="M53 536l-13 219h120l-12 -219h-95z" />
    <glyph glyph-name="parenleft" unicode="(" horiz-adv-x="408" 
d="M238 -145q-56 57 -99.5 131t-68.5 162t-25 185q0 98 25 185.5t68.5 162t99.5 130.5h139v-13q-60 -64 -103.5 -139t-67 -157t-23.5 -169t23.5 -169t67.5 -156.5t103 -139.5v-13h-139z" />
    <glyph glyph-name="parenright" unicode=")" horiz-adv-x="408" 
d="M170 -145h-139v13q59 65 103 139.5t67.5 156.5t23.5 169t-23.5 169t-67.5 157t-103 139v13h139q56 -56 99.5 -130.5t68 -162t24.5 -185.5q0 -97 -24.5 -185t-68 -162t-99.5 -131z" />
    <glyph glyph-name="asterisk" unicode="*" horiz-adv-x="517" 
d="M211 360l20 138l-108 -88l-52 91l128 50l-127 47l48 87l112 -87l-22 140h101l-22 -140l111 87l48 -86l-129 -50l129 -49l-50 -89l-109 87l21 -138h-99z" />
    <glyph glyph-name="plus" unicode="+" horiz-adv-x="582" 
d="M232 60v458h118v-458h-118zM45 231v117h491v-117h-491z" />
    <glyph glyph-name="comma" unicode="," horiz-adv-x="252" 
d="M24 -123l57 257h134l-100 -257h-91z" />
    <glyph glyph-name="hyphen" unicode="-" horiz-adv-x="579" 
d="M77 236v117h424v-117h-424z" />
    <glyph glyph-name="period" unicode="." horiz-adv-x="258" 
d="M129 -5q-38 0 -62 23.5t-24 56.5q0 34 24 57t62 23t62 -23t24 -57q0 -33 -24 -56.5t-62 -23.5z" />
    <glyph glyph-name="slash" unicode="/" horiz-adv-x="430" 
d="M22 -116l250 897h136l-250 -897h-136z" />
    <glyph glyph-name="zero" unicode="0" horiz-adv-x="706" 
d="M353 -12q-96 0 -165 46t-106 127.5t-37 188.5t37 188.5t106 127.5t165 46t164.5 -46t105.5 -127.5t37 -188.5t-37 -188.5t-105.5 -127.5t-164.5 -46zM353 114q49 0 86 29t58 81.5t21 125.5t-21 125.5t-58 81.5t-86 29t-86 -29t-58 -81.5t-21 -125.5t21 -125.5t58 -81.5
t86 -29z" />
    <glyph glyph-name="one" unicode="1" horiz-adv-x="369" 
d="M156 0v539l-125 -33v112l185 82h84v-700h-144z" />
    <glyph glyph-name="two" unicode="2" horiz-adv-x="578" 
d="M49 0v103q63 51 123 101.5t108 100t76 97t28 92.5q0 26 -10 49t-31 37t-55 14q-33 0 -56.5 -15.5t-35 -41.5t-11.5 -59h-135q2 79 34.5 131t87 77.5t121.5 25.5q75 0 126.5 -27.5t78 -75t26.5 -107.5q0 -46 -16.5 -89.5t-45.5 -84.5t-65.5 -78.5t-76 -71.5t-77.5 -64h297
v-114h-491z" />
    <glyph glyph-name="three" unicode="3" horiz-adv-x="604" 
d="M300 -12q-68 0 -125 25t-91.5 76t-36.5 130h138q0 -32 14 -58t40 -41t62 -15q34 0 58 13.5t36 36t12 51.5q0 33 -16.5 55.5t-46 34.5t-68.5 12h-52v115h52q48 0 81 22t33 68q0 37 -24.5 59t-65.5 22q-48 0 -74 -27.5t-29 -67.5h-136q3 67 33.5 115t83.5 73t122 25
q73 0 124 -25.5t77 -68.5t26 -94q0 -42 -15.5 -73.5t-41.5 -52.5t-56 -30q39 -8 68 -30.5t45.5 -57.5t16.5 -80q0 -57 -28 -105.5t-82.5 -77.5t-133.5 -29z" />
    <glyph glyph-name="four" unicode="4" horiz-adv-x="655" 
d="M389 0v124h-343v112l325 464h158v-454h89v-122h-89v-124h-140zM195 246h203v300v0z" />
    <glyph glyph-name="five" unicode="5" horiz-adv-x="623" 
d="M320 -12q-77 0 -132.5 27t-87 74t-35.5 108h136q8 -38 40 -64t80 -26q34 0 60 17.5t41 47.5t15 67q0 40 -15 68t-41 43t-59 15q-40 0 -70 -20t-43 -48h-135l58 403h395v-123h-291l-28 -149q21 22 57.5 36.5t81.5 14.5q57 0 99 -20t70 -53.5t42 -76t14 -88.5
q0 -56 -18.5 -102.5t-52.5 -80t-80 -52t-101 -18.5z" />
    <glyph glyph-name="six" unicode="6" horiz-adv-x="635" 
d="M333 -12q-80 0 -134.5 29.5t-87 78t-47 109t-14.5 123.5q0 118 33 204t95 133t151 47q74 0 125 -28.5t79.5 -75t32.5 -99.5h-130q-8 43 -36 65.5t-73 22.5q-41 0 -72 -25.5t-48.5 -76t-19.5 -126.5v-3.5v-3.5q15 27 41 47.5t59.5 32t69.5 11.5q59 0 109 -27.5t80.5 -78.5
t30.5 -121q0 -65 -31 -119t-86 -86.5t-127 -32.5zM325 108q34 0 61 14.5t42 40t15 58.5q0 35 -15 60.5t-42.5 39.5t-61.5 14t-61.5 -14.5t-43 -40t-15.5 -57.5q0 -34 15.5 -60t43 -40.5t62.5 -14.5z" />
    <glyph glyph-name="seven" unicode="7" horiz-adv-x="537" 
d="M109 0l254 580h-334v120h478v-98l-254 -602h-144z" />
    <glyph glyph-name="eight" unicode="8" horiz-adv-x="635" 
d="M317 -12q-72 0 -130.5 26t-93 73t-34.5 110q0 42 14.5 77.5t40.5 62t61 40.5q-44 22 -71.5 60.5t-27.5 87.5t27.5 91.5t81 69t132.5 26.5q80 0 133.5 -26.5t80.5 -69t27 -91.5q0 -48 -27.5 -87.5t-71.5 -60.5q36 -15 62 -41.5t40.5 -61.5t14.5 -77q0 -63 -35 -110
t-93 -73t-131 -26zM317 104q60 0 90.5 30t30.5 75q0 49 -32 77.5t-89 28.5t-89.5 -28.5t-32.5 -77.5q0 -45 31.5 -75t90.5 -30zM317 417q49 0 76.5 25.5t27.5 64.5q0 43 -27 67.5t-77 24.5q-49 0 -75.5 -24.5t-26.5 -67.5q0 -39 26.5 -64.5t75.5 -25.5z" />
    <glyph glyph-name="nine" unicode="9" horiz-adv-x="635" 
d="M306 -12q-73 0 -124.5 28.5t-79.5 75t-33 99.5h130q9 -43 37 -65.5t72 -22.5q42 0 72.5 25t48 75t19.5 124v5.5v5.5q-14 -27 -40.5 -47.5t-60 -32t-69.5 -11.5q-58 0 -108.5 27.5t-81 78.5t-30.5 121q0 65 31 119t86.5 86.5t126.5 32.5q80 0 134.5 -29.5t87 -78
t47.5 -109t15 -123.5q0 -117 -33 -203.5t-95.5 -133.5t-151.5 -47zM311 365q35 0 62 14.5t43 40t16 57.5q0 34 -16 60t-43.5 40.5t-62.5 14.5q-34 0 -61 -14.5t-42 -40t-15 -58.5q0 -34 15 -60t42.5 -40t61.5 -14z" />
    <glyph glyph-name="colon" unicode=":" horiz-adv-x="260" 
d="M129 -5q-38 0 -62 23.5t-24 56.5q0 34 24 57t62 23t62 -23t24 -57q0 -33 -24 -56.5t-62 -23.5zM129 357q-38 0 -62 23.5t-24 56.5q0 34 24 57t62 23t62 -23t24 -57q0 -33 -24 -56.5t-62 -23.5z" />
    <glyph glyph-name="semicolon" unicode=";" horiz-adv-x="283" 
d="M153 357q-38 0 -62 23.5t-24 56.5q0 34 24 57t62 23t62 -23t24 -57q0 -33 -24 -56.5t-62 -23.5zM31 -123l57 257h134l-100 -257h-91z" />
    <glyph glyph-name="less" unicode="&#x3c;" horiz-adv-x="582" 
d="M488 55h-176l-218 224v0l218 225h176l-218 -225z" />
    <glyph glyph-name="equal" unicode="=" horiz-adv-x="582" 
d="M75 341v123h432v-123h-432zM75 116v122h432v-122h-432z" />
    <glyph glyph-name="greater" unicode="&#x3e;" horiz-adv-x="582" 
d="M94 55l219 224l-219 225h176l218 -225v0l-218 -224h-176z" />
    <glyph glyph-name="question" unicode="?" horiz-adv-x="540" 
d="M141 229l-4 161h50q37 0 69.5 5t56.5 16.5t37.5 33.5t13.5 56q0 30 -12 51.5t-34 33t-53 11.5t-53.5 -12t-34.5 -33t-12 -50h-132q-1 60 27 107.5t81 75t126 27.5q69 0 121 -24.5t82 -71.5t30 -115q0 -67 -29.5 -112.5t-81.5 -67.5t-121 -23l-3 -69h-124zM204 -5
q-38 0 -62 23.5t-24 56.5q0 34 24 57t62 23t61.5 -23t23.5 -57q0 -33 -23.5 -56.5t-61.5 -23.5z" />
    <glyph glyph-name="at" unicode="@" horiz-adv-x="1050" 
d="M445 -216q-110 0 -193.5 43.5t-129.5 123.5t-46 188q0 111 38 205.5t107.5 165t164.5 109.5t209 39q116 0 201 -44t132 -122.5t47 -182.5q0 -61 -15.5 -117t-45.5 -100.5t-74 -70.5t-101 -26q-70 0 -103 40.5t-24 106.5l3 32l20 -56q-24 -57 -75.5 -91t-114.5 -34
q-73 0 -115 45.5t-42 123.5q0 55 16.5 104.5t47.5 89t73.5 62.5t94.5 23q57 0 89.5 -28t39.5 -81l-21 -15l20 116h114l-46 -264q-6 -37 2.5 -60t39.5 -23q28 0 48.5 20t33.5 52t20 71t7 76q0 80 -34.5 138t-98.5 89t-153 31q-88 0 -161 -32t-126 -88.5t-82 -131.5t-29 -161
q0 -85 33.5 -146t96 -92.5t148.5 -31.5q46 0 91 9.5t82 26.5l23 -91q-48 -21 -101 -31t-111 -10zM490 95q33 0 60.5 19.5t45 52t19.5 72.5q1 29 -8 51.5t-27.5 36t-47.5 13.5q-27 0 -50 -13t-38.5 -34.5t-24.5 -49.5t-9 -58q0 -40 20 -65t60 -25z" />
    <glyph glyph-name="A" unicode="A" horiz-adv-x="713" 
d="M22 0l255 700h159l255 -700h-148l-187 541v0l-188 -541h-146zM134 157l37 109h360l36 -109h-433z" />
    <glyph glyph-name="B" unicode="B" horiz-adv-x="641" 
d="M68 0v700h291q73 0 123 -23t76 -63.5t26 -94.5q0 -52 -23 -88t-60.5 -55.5t-82.5 -22.5l16 11q48 -2 85.5 -26t59 -62.5t21.5 -84.5q0 -56 -27 -99.5t-78.5 -67.5t-125.5 -24h-301zM208 114h139q53 0 82 24.5t29 69.5t-30 71t-83 26h-137v-191zM208 409h128q51 0 78 23.5
t27 66.5q0 42 -27 65.5t-79 23.5h-127v-179z" />
    <glyph glyph-name="C" unicode="C" horiz-adv-x="740" 
d="M384 -12q-105 0 -181 45.5t-117 127t-41 188.5t41 189t117 128t181 46q127 0 209 -64t102 -180h-154q-12 56 -52.5 86.5t-106.5 30.5q-61 0 -104.5 -28.5t-66.5 -81.5t-23 -126t23 -125.5t66.5 -81t104.5 -28.5q66 0 106 28.5t53 79.5h154q-20 -109 -102 -171.5
t-209 -62.5z" />
    <glyph glyph-name="D" unicode="D" horiz-adv-x="709" 
d="M68 0v700h238q121 0 201 -43.5t118.5 -122t38.5 -184.5q0 -105 -38.5 -184t-118 -122.5t-202.5 -43.5h-237zM208 120h90q84 0 132.5 27.5t69.5 79t21 123.5t-21 123.5t-69.5 79.5t-132.5 28h-90v-461z" />
    <glyph glyph-name="E" unicode="E" horiz-adv-x="585" 
d="M68 0v700h463v-113h-323v-177h293v-109h-293v-188h323v-113h-463z" />
    <glyph glyph-name="F" unicode="F" horiz-adv-x="558" 
d="M68 0v700h459v-113h-319v-181h254v-110h-254v-296h-140z" />
    <glyph glyph-name="G" unicode="G" horiz-adv-x="780" 
d="M376 -12q-100 0 -174 44.5t-115.5 125t-41.5 187.5q0 108 42.5 190.5t122 129.5t189.5 47q124 0 205.5 -59.5t105.5 -164.5h-156q-15 45 -54.5 70t-101.5 25q-68 0 -115 -29t-71 -82.5t-24 -127.5t24.5 -126t70 -79t107.5 -27q90 0 136.5 48.5t55.5 123.5h-169v104h310
v-388h-129l-11 86v0q-22 -31 -51 -53t-67.5 -33.5t-88.5 -11.5z" />
    <glyph glyph-name="H" unicode="H" horiz-adv-x="717" 
d="M509 0v700h140v-700h-140zM68 0v700h140v-700h-140zM190 301v113h342v-113h-342z" />
    <glyph glyph-name="I" unicode="I" horiz-adv-x="276" 
d="M68 0v700h140v-700h-140z" />
    <glyph glyph-name="J" unicode="J" horiz-adv-x="545" 
d="M259 -12q-69 0 -121 26.5t-80.5 77t-28.5 123.5h139q0 -32 10 -55t29 -35t48 -12t47 11.5t26.5 32.5t8.5 50v493h140v-493q0 -106 -59.5 -162.5t-158.5 -56.5z" />
    <glyph glyph-name="K" unicode="K" horiz-adv-x="660" 
d="M68 0v700h140v-273l250 273h172l-257 -277l265 -423h-171l-194 315l-65 -70v-245h-140z" />
    <glyph glyph-name="L" unicode="L" horiz-adv-x="562" 
d="M68 0v700h140v-591h306v-109h-446z" />
    <glyph glyph-name="M" unicode="M" horiz-adv-x="890" 
d="M68 0v700h168l211 -431v0l208 431h167v-700h-140v463v0l-181 -365h-111l-182 365v0v-463h-140z" />
    <glyph glyph-name="N" unicode="N" horiz-adv-x="733" 
d="M68 0v700h140l317 -475v0v475h140v-700h-140l-317 474v0v-474h-140z" />
    <glyph glyph-name="O" unicode="O" horiz-adv-x="785" 
d="M392 -12q-102 0 -180 46t-122.5 127.5t-44.5 188.5t44.5 188.5t122.5 127.5t180 46q103 0 181.5 -46t122 -127.5t43.5 -188.5t-43.5 -188.5t-122 -127.5t-181.5 -46zM392 114q63 0 109 29t71 81.5t25 125.5t-25 125.5t-71 81.5t-109 29q-62 0 -107.5 -29t-71 -81.5
t-25.5 -125.5t25.5 -125.5t71 -81.5t107.5 -29z" />
    <glyph glyph-name="P" unicode="P" horiz-adv-x="618" 
d="M68 0v700h266q85 0 141 -29t83.5 -78.5t27.5 -112.5q0 -58 -26.5 -107.5t-82.5 -80.5t-143 -31h-126v-261h-140zM208 374h117q63 0 90.5 29t27.5 77q0 50 -27.5 78t-90.5 28h-117v-212z" />
    <glyph glyph-name="Q" unicode="Q" horiz-adv-x="785" 
d="M555 -111l-256 403h161l263 -403h-168zM392 -12q-102 0 -180 46t-122.5 127.5t-44.5 188.5t44.5 188.5t122.5 127.5t180 46q103 0 181.5 -46t122 -127.5t43.5 -188.5t-43.5 -188.5t-122 -127.5t-181.5 -46zM392 114q63 0 109 29t71 81.5t25 125.5t-25 125.5t-71 81.5
t-109 29q-62 0 -107.5 -29t-71 -81.5t-25.5 -125.5t25.5 -125.5t71 -81.5t107.5 -29z" />
    <glyph glyph-name="R" unicode="R" horiz-adv-x="634" 
d="M68 0v700h265q85 0 140.5 -29t83 -77.5t27.5 -108.5q0 -56 -26.5 -105t-82.5 -78.5t-143 -29.5h-124v-272h-140zM430 0l-143 307h152l151 -307h-160zM208 374h117q59 0 87.5 29t28.5 77q0 47 -28 75t-89 28h-116v-209z" />
    <glyph glyph-name="S" unicode="S" horiz-adv-x="606" 
d="M311 -12q-76 0 -135.5 26t-94.5 76t-36 121h148q1 -30 15.5 -54t40.5 -38t61 -14q31 0 53.5 10t35 28t12.5 44q0 28 -14.5 48t-39.5 34t-57.5 25.5t-69.5 23.5q-83 27 -126.5 72t-43.5 120q0 64 30.5 109t85 69t123.5 24q71 0 125 -24.5t85.5 -70.5t33.5 -109h-150
q-1 23 -13 42.5t-33 31.5t-50 12q-25 1 -45.5 -7.5t-32.5 -25t-12 -41.5t12 -41.5t33.5 -28.5t50.5 -22.5t63 -21.5q53 -18 97 -42.5t70.5 -63.5t26.5 -103q0 -56 -29 -103.5t-84 -76.5t-136 -29z" />
    <glyph glyph-name="T" unicode="T" horiz-adv-x="601" 
d="M231 0v587h-204v113h547v-113h-204v-587h-139z" />
    <glyph glyph-name="U" unicode="U" horiz-adv-x="687" 
d="M341 -12q-78 0 -141 31t-100.5 93.5t-37.5 158.5v429h140v-430q0 -51 17 -85t48.5 -51.5t76.5 -17.5t76.5 17.5t48.5 51.5t17 85v430h140v-429q0 -96 -38.5 -158.5t-103.5 -93.5t-143 -31z" />
    <glyph glyph-name="V" unicode="V" horiz-adv-x="709" 
d="M268 0l-254 700h150l191 -558v0l192 558h148l-254 -700h-173z" />
    <glyph glyph-name="W" unicode="W" horiz-adv-x="1023" 
d="M209 0l-183 700h150l118 -542v0l142 542h154l137 -542v0l120 542h151l-188 -700h-167l-132 503v0l-136 -503h-166z" />
    <glyph glyph-name="X" unicode="X" horiz-adv-x="676" 
d="M33 0l221 355l-224 345h162l152 -235v0l138 235h158l-219 -351l225 -349h-161l-154 239v0l-139 -239h-159z" />
    <glyph glyph-name="Y" unicode="Y" horiz-adv-x="640" 
d="M250 0v244l-237 456h159l163 -343h-27l162 343h157l-237 -456v-244h-140z" />
    <glyph glyph-name="Z" unicode="Z" horiz-adv-x="581" 
d="M49 0v107l320 477h-318v116h479v-107l-321 -477h323v-116h-483z" />
    <glyph glyph-name="bracketleft" unicode="[" horiz-adv-x="383" 
d="M68 -175v986h261v-113h-130v-759h130v-114h-261z" />
    <glyph glyph-name="backslash" unicode="\" horiz-adv-x="430" 
d="M408 -116h-136l-250 897h136z" />
    <glyph glyph-name="bracketright" unicode="]" horiz-adv-x="383" 
d="M315 -175h-260v114h129v759h-129v113h260v-986z" />
    <glyph glyph-name="asciicircum" unicode="^" horiz-adv-x="682" 
d="M35 199l239 501h135l238 -501h-141l-164 343v0l-166 -343h-141z" />
    <glyph glyph-name="underscore" unicode="_" horiz-adv-x="732" 
d="M77 -173v134h577v-134h-577z" />
    <glyph glyph-name="grave" unicode="`" horiz-adv-x="237" 
d="M224 547l-224 111l16 106v0l221 -125z" />
    <glyph glyph-name="a" unicode="a" horiz-adv-x="590" 
d="M236 -12q-62 0 -103.5 20.5t-61 55t-19.5 76.5q0 45 23 80t71 55t120 20h124q0 36 -9.5 59.5t-30 35.5t-54.5 12q-37 0 -62.5 -16t-31.5 -48h-136q6 54 36 93.5t80.5 62t114.5 22.5q71 0 123.5 -24t81 -69t28.5 -111v-312h-118l-16 76v0q-10 -20 -25.5 -36t-35.5 -27.5
t-44.5 -18t-54.5 -6.5zM270 96q25 0 45 8.5t34 24.5t23 36.5t12 44.5v1h-101q-29 0 -47.5 -7.5t-27.5 -21t-9 -30.5q0 -18 9 -31t25 -19t37 -6z" />
    <glyph glyph-name="b" unicode="b" horiz-adv-x="658" 
d="M367 -12q-39 0 -69 9.5t-53 26.5t-39 39v0l-16 -63h-124v720h140v-285q23 35 62.5 58t97.5 23q69 0 123.5 -34.5t86 -94t31.5 -136.5q0 -75 -31.5 -135t-85.5 -94t-123 -34zM333 110q38 0 68 18t47 50t17 73q0 42 -17 74t-47 50.5t-68 18.5q-39 0 -68.5 -18.5t-46.5 -50
t-17 -73.5t17 -74t46.5 -50t68.5 -18z" />
    <glyph glyph-name="c" unicode="c" horiz-adv-x="610" 
d="M311 -12q-76 0 -135 34t-92.5 93t-33.5 135q0 78 33.5 137.5t92.5 94t136 34.5q97 0 163.5 -51.5t84.5 -141.5h-149q-8 34 -35.5 53.5t-65.5 19.5q-34 0 -60.5 -17.5t-41.5 -49.5t-15 -77q0 -34 8.5 -60.5t24 -45.5t37.5 -29t47 -10q26 0 46 8.5t35 25t20 39.5h149
q-18 -88 -85 -140t-164 -52z" />
    <glyph glyph-name="d" unicode="d" horiz-adv-x="657" 
d="M290 -12q-69 0 -123 34t-85.5 94t-31.5 135q0 77 31.5 136.5t87 94t124.5 34.5q54 0 94 -19.5t65 -55.5v279h140v-720h-124l-16 68v0q-15 -21 -37 -39.5t-53 -29.5t-72 -11zM324 110q39 0 69 18t46.5 50t16.5 74t-16.5 74t-46.5 50t-69 18q-38 0 -68 -18t-46.5 -50
t-16.5 -73q0 -42 16.5 -74.5t46.5 -50.5t68 -18z" />
    <glyph glyph-name="e" unicode="e" horiz-adv-x="605" 
d="M309 -12q-76 0 -134.5 32.5t-91.5 91t-33 135.5q0 78 32.5 138.5t91 95.5t136.5 35q75 0 131.5 -33t88 -89t31.5 -129q0 -10 -0.5 -22t-2.5 -26h-408v85h269q-3 46 -33.5 73.5t-75.5 27.5q-34 0 -62 -16t-44 -47t-16 -79v-29q0 -39 15 -68.5t42 -45.5t63 -16t59.5 15
t35.5 39h143q-14 -47 -47.5 -85t-81.5 -60.5t-108 -22.5z" />
    <glyph glyph-name="f" unicode="f" horiz-adv-x="374" 
d="M88 0v546q0 64 22 102t61.5 55t93.5 17h63v-119h-41q-32 0 -45.5 -12.5t-13.5 -42.5v-546h-140zM20 387v117h315v-117h-315z" />
    <glyph glyph-name="g" unicode="g" horiz-adv-x="600" 
d="M284 -232q-72 0 -126 17.5t-83.5 53t-29.5 87.5q0 36 18.5 68t54.5 57t88 43l51 -70q-46 -14 -66.5 -36t-20.5 -48q0 -22 15 -37t40.5 -22.5t57.5 -7.5q31 0 54 7.5t36 22.5t13 35q0 27 -18 43t-74 20q-50 4 -89.5 11.5t-69.5 18t-51.5 23.5t-33.5 26v23l108 117l99 -31
l-129 -128l41 70q11 -6 21.5 -11.5t26.5 -10t41.5 -8t64.5 -7.5q66 -6 108 -24.5t62.5 -50.5t20.5 -78q0 -45 -24.5 -84.5t-75.5 -64t-130 -24.5zM285 148q-63 0 -109 24.5t-70.5 66t-24.5 93.5q0 51 24.5 92.5t70.5 66.5t109 25q64 0 109.5 -25t69.5 -66.5t24 -92.5
q0 -52 -24 -93.5t-69.5 -66t-109.5 -24.5zM285 254q37 0 60.5 19.5t23.5 57.5t-23.5 57.5t-60.5 19.5t-61 -19.5t-24 -57.5t24 -57.5t61 -19.5zM368 406l-22 98h208v-82z" />
    <glyph glyph-name="h" unicode="h" horiz-adv-x="622" 
d="M66 0v720h140v-290v0q24 39 65.5 62.5t96.5 23.5q63 0 106 -26.5t65.5 -77t22.5 -124.5v-288h-139v275q0 59 -25 91t-77 32q-33 0 -59.5 -16t-41 -45t-14.5 -70v-267h-140z" />
    <glyph glyph-name="i" unicode="i" horiz-adv-x="277" 
d="M69 0v504h140v-504h-140zM139 569q-38 0 -62 22.5t-24 55.5q0 34 24 56t62 22t62 -22t24 -56q0 -33 -24 -55.5t-62 -22.5z" />
    <glyph glyph-name="j" unicode="j" horiz-adv-x="277" 
d="M-29 -220v119h41q32 0 45 12.5t13 41.5v551h140v-550q0 -63 -22 -101.5t-61.5 -55.5t-93.5 -17h-62zM140 569q-38 0 -61.5 22.5t-23.5 55.5q0 34 23.5 56t62.5 22q38 0 61.5 -22t23.5 -56q0 -33 -23.5 -55.5t-62.5 -22.5z" />
    <glyph glyph-name="k" unicode="k" horiz-adv-x="586" 
d="M398 0l-213 276l190 228h166l-250 -287v111l281 -328h-174zM66 0v720h140v-720h-140z" />
    <glyph glyph-name="l" unicode="l" horiz-adv-x="271" 
d="M66 0v720h140v-720h-140z" />
    <glyph glyph-name="m" unicode="m" horiz-adv-x="946" 
d="M66 0v504h123l11 -67v0q24 36 63.5 57.5t91.5 21.5q37 0 67 -10t53.5 -29t38.5 -47v0q29 40 74 63t98 23q66 0 110 -26.5t66.5 -77t22.5 -123.5v-289h-139v277q0 58 -23 89.5t-71 31.5q-32 0 -56 -15.5t-37.5 -44.5t-13.5 -70v-268h-139v277q0 58 -23 89.5t-73 31.5
q-30 0 -54 -15.5t-37 -44.5t-13 -70v-268h-140z" />
    <glyph glyph-name="n" unicode="n" horiz-adv-x="621" 
d="M66 0v504h123l10 -82v0q23 42 65.5 68t102.5 26q62 0 105 -26.5t65.5 -76.5t22.5 -123v-290h-139v277q0 58 -24.5 89.5t-77.5 31.5q-32 0 -58 -15.5t-40.5 -44t-14.5 -69.5v-269h-140z" />
    <glyph glyph-name="o" unicode="o" horiz-adv-x="612" 
d="M305 -12q-72 0 -130 33.5t-91.5 93.5t-33.5 136q0 78 33.5 138t91.5 93.5t131 33.5t131 -33.5t91.5 -93t33.5 -137.5t-34 -137.5t-91.5 -93t-131.5 -33.5zM305 109q33 0 58 16t40.5 48t15.5 79t-15 79t-40.5 48t-57.5 16q-31 0 -57 -16t-41 -48t-15 -79t15 -79t40.5 -48
t56.5 -16z" />
    <glyph glyph-name="p" unicode="p" horiz-adv-x="658" 
d="M66 -220v724h124l16 -68v0q15 21 37 39.5t52.5 29.5t70.5 11q70 0 124.5 -35t85.5 -94.5t31 -135.5t-32 -135.5t-86 -93.5t-122 -34q-55 0 -95.5 20t-65.5 56v-284h-140zM333 110q38 0 68 18t47 50t17 73q0 42 -17 74t-47 50.5t-68 18.5q-39 0 -68.5 -18.5t-46.5 -50.5
t-17 -73q0 -42 17 -74t46.5 -50t68.5 -18z" />
    <glyph glyph-name="q" unicode="q" horiz-adv-x="657" 
d="M452 -220v288q-24 -35 -63 -57.5t-96 -22.5q-70 0 -125 34.5t-86.5 94.5t-31.5 135q0 76 32 135.5t87 94t124 34.5q37 0 67 -9.5t53 -26.5t39 -40v0l16 64h124v-724h-140zM324 110q39 0 69 18t46.5 50.5t16.5 73.5q0 42 -16.5 74t-46.5 50t-69 18q-38 0 -68 -18
t-46.5 -50t-16.5 -73q0 -42 16.5 -74.5t46.5 -50.5t68 -18z" />
    <glyph glyph-name="r" unicode="r" horiz-adv-x="413" 
d="M66 0v504h124l13 -93v0q19 33 46 56t63 36t78 13v-148h-47q-30 0 -55.5 -7t-44 -22.5t-28 -42t-9.5 -66.5v-230h-140z" />
    <glyph glyph-name="s" unicode="s" horiz-adv-x="535" 
d="M273 -12q-70 0 -121 22.5t-80 61t-34 87.5h140q4 -18 15.5 -32.5t31 -23.5t46.5 -9q26 0 42.5 7.5t25 19.5t8.5 26q0 20 -12 31t-35 18t-55 13q-36 8 -70.5 18t-62 26.5t-43.5 41.5t-16 62q0 45 24.5 81t71 57t111.5 21q92 0 145.5 -41.5t63.5 -112.5h-132q-5 22 -25 34
t-53 12q-34 0 -52.5 -12t-18.5 -32q0 -13 12 -23.5t34.5 -18t55.5 -14.5q59 -12 103 -27.5t69 -44t25 -82.5q1 -48 -25.5 -86t-74.5 -59t-114 -21z" />
    <glyph glyph-name="t" unicode="t" horiz-adv-x="437" 
d="M295 0q-53 0 -93.5 17t-62.5 56t-22 106v208h-87v117h87l15 139h124v-139h132v-117h-131v-209q0 -33 14.5 -46t49.5 -13h66v-119h-92z" />
    <glyph glyph-name="u" unicode="u" horiz-adv-x="621" 
d="M254 -12q-61 0 -104.5 25.5t-66.5 75.5t-23 123v292h140v-278q0 -59 24.5 -89.5t76.5 -30.5q33 0 59 15t40.5 43.5t14.5 70.5v269h140v-504h-123l-11 81v0q-22 -42 -64.5 -67.5t-102.5 -25.5z" />
    <glyph glyph-name="v" unicode="v" horiz-adv-x="569" 
d="M199 0l-183 504h147l122 -372v0l123 372h145l-183 -504h-171z" />
    <glyph glyph-name="w" unicode="w" horiz-adv-x="826" 
d="M164 0l-148 504h138l97 -407l-26 1l110 406h155l111 -406l-26 -1l96 407h139l-148 -504h-146l-118 418h29l-118 -418h-145z" />
    <glyph glyph-name="x" unicode="x" horiz-adv-x="578" 
d="M19 0l182 252l-182 252h151l120 -169v0l119 169h150l-182 -252l182 -252h-150l-119 170v0l-120 -170h-151z" />
    <glyph glyph-name="y" unicode="y" horiz-adv-x="609" 
d="M131 -220l121 276h-30l-202 448h152l143 -319v0l125 319h149l-310 -724h-148z" />
    <glyph glyph-name="z" unicode="z" horiz-adv-x="493" 
d="M33 0v112l251 276h-248v116h409v-113l-254 -275h259v-116h-417z" />
    <glyph glyph-name="braceleft" unicode="{" horiz-adv-x="475" 
d="M344 -179q-79 0 -128 43.5t-49 126.5q0 33 5 61.5t10.5 57t5.5 61.5q0 24 -9.5 43t-31.5 31t-60 16v111q38 4 60 15.5t31.5 30.5t9.5 44q0 34 -5.5 62t-10.5 56t-5 62q0 83 49 126t128 43h66v-116h-40q-35 0 -51.5 -16t-16.5 -51q0 -24 4.5 -50t9 -55.5t4.5 -66.5
q0 -52 -25.5 -89.5t-83.5 -49.5v-2q58 -11 83.5 -48.5t25.5 -90.5q0 -37 -4.5 -66.5t-9 -55t-4.5 -50.5q0 -34 16.5 -50.5t51.5 -16.5h40v-116h-66z" />
    <glyph glyph-name="bar" unicode="|" horiz-adv-x="276" 
d="M68 -100v820h140v-820h-140z" />
    <glyph glyph-name="braceright" unicode="}" horiz-adv-x="475" 
d="M131 -179h-67v116h40q35 0 52 16.5t17 50.5q0 25 -4.5 50.5t-9 55t-4.5 66.5q0 53 26 90.5t82 48.5v2q-56 12 -82 49.5t-26 89.5q0 37 4.5 66.5t9 55.5t4.5 50q0 35 -17 51t-52 16h-40v116h67q79 0 128 -43t49 -126q0 -34 -5.5 -62l-11 -56t-5.5 -62q0 -25 10 -44
t32 -30.5t60 -15.5v-111q-38 -4 -60 -16t-32 -31t-10 -43q0 -33 5.5 -61.5l11 -57t5.5 -61.5q0 -83 -49 -126.5t-128 -43.5z" />
    <glyph glyph-name="asciitilde" unicode="~" horiz-adv-x="582" 
d="M378 222q-32 0 -56.5 10t-45.5 23.5t-40.5 24t-41.5 10.5q-26 0 -42.5 -17.5t-21.5 -49.5h-104q10 67 34.5 109t60.5 62t80 20q32 0 57 -10.5t46.5 -23.5t41 -23.5t41.5 -10.5q27 0 43 17t20 50h105q-9 -66 -33.5 -108.5t-61 -62.5t-82.5 -20z" />
    <glyph glyph-name="uni00A0" unicode="&#xa0;" horiz-adv-x="232" 
 />
    <glyph glyph-name="exclamdown" unicode="&#xa1;" horiz-adv-x="315" 
d="M98 280h119l15 -469h-150zM158 516q38 0 61.5 -23.5t23.5 -56.5q0 -34 -23.5 -57.5t-61.5 -23.5q-39 0 -62.5 23.5t-23.5 57.5q0 33 23.5 56.5t62.5 23.5z" />
    <glyph glyph-name="cent" unicode="&#xa2;" horiz-adv-x="610" 
d="M248 -104v174h128v-174h-128zM248 433v175h128v-175h-128zM311 -12q-76 0 -135 34t-92.5 93t-33.5 135q0 78 33.5 137.5t92.5 94t136 34.5q97 0 163.5 -51.5t84.5 -141.5h-149q-8 34 -35.5 53.5t-65.5 19.5q-34 0 -60.5 -17.5t-41.5 -49.5t-15 -77q0 -34 8.5 -60.5
t24 -45.5t37.5 -29t47 -10q26 0 46 8.5t35 25t20 39.5h149q-18 -88 -85 -140t-164 -52z" />
    <glyph glyph-name="sterling" unicode="&#xa3;" horiz-adv-x="630" 
d="M75 0v81q26 26 44 52.5t27 58.5t9 74q0 28 -7.5 54.5t-18 55t-18.5 58.5t-8 64q0 67 29.5 114.5t82 73.5t120.5 26q77 0 128 -29.5t77.5 -79t28.5 -110.5h-129q-1 45 -27 74.5t-76 29.5q-27 0 -50.5 -11.5t-37 -34.5t-13.5 -58q0 -24 7.5 -51t18 -55.5t18.5 -58.5t8 -60
q0 -41 -15.5 -81.5t-53.5 -75.5h354v-111h-498zM41 295v95h405v-95h-405z" />
    <glyph glyph-name="currency" unicode="&#xa4;" horiz-adv-x="563" 
d="M282 118q-58 0 -101.5 22t-68.5 62.5t-25 95.5t25.5 95t69.5 61.5t101 21.5t101 -21.5t69.5 -61.5t25.5 -95t-26 -95.5t-70 -62.5t-101 -22zM120 77l-58 58l94 93l68 -47zM443 77l-92 92l61 55l89 -89zM282 205q20 0 38.5 9.5t31 30t12.5 52.5q0 33 -12 53.5t-30.5 30
t-39.5 9.5t-39.5 -9.5t-30 -30t-11.5 -53.5q0 -32 11 -52.5t30 -30t40 -9.5zM153 372l-91 90l58 58l97 -97zM402 363l-56 59l97 98l58 -58z" />
    <glyph glyph-name="yen" unicode="&#xa5;" horiz-adv-x="654" 
d="M57 149v95h540v-95h-540zM284 318h-227v96h224zM401 318l4 96h192v-96h-196zM258 0v244l-237 456h159l162 -343h-27l162 343h157l-236 -456v-244h-140z" />
    <glyph glyph-name="brokenbar" unicode="&#xa6;" horiz-adv-x="276" 
d="M68 395v325h140v-325h-140zM68 -100v325h140v-325h-140z" />
    <glyph glyph-name="section" unicode="&#xa7;" horiz-adv-x="620" 
d="M306 -232q-71 0 -125.5 24.5t-85.5 70.5t-34 109h151q1 -23 12.5 -42.5t32.5 -31.5t50 -12q39 -1 64.5 18t25.5 56q0 25 -11.5 40.5t-33.5 26t-51 20t-63 20.5q-52 18 -96.5 44t-70.5 65.5t-26 99.5q0 40 14 75t41 63q-13 20 -20 43.5t-7 52.5q0 64 31 109t85 69t123 24
q72 0 126 -24.5t85.5 -70.5t33.5 -109h-150q-1 23 -13 42.5t-33 31.5t-50 12q-39 1 -64.5 -18t-25.5 -56q0 -25 12 -40.5t33.5 -26.5t50.5 -20.5t63 -20.5q53 -18 97 -43.5t70.5 -65t26.5 -99.5q0 -39 -14 -74.5t-42 -63.5q14 -19 20.5 -43t6.5 -53q0 -62 -30.5 -107.5
t-85 -70t-123.5 -24.5zM406 142q9 10 14 23.5t5 28.5q0 24 -11.5 42t-32.5 31t-50 25t-65 24q-17 6 -30 11.5t-24 10.5q-9 -10 -14 -23t-5 -29q0 -19 7.5 -33.5t21 -26.5t32.5 -22t43.5 -20t53.5 -20q15 -5 28.5 -10.5t26.5 -11.5z" />
    <glyph glyph-name="dieresis" unicode="&#xa8;" horiz-adv-x="342" 
d="M264 563q-28 0 -46.5 18.5t-18.5 45.5q0 28 18.5 47t46.5 19t46.5 -19t18.5 -47q0 -27 -18.5 -45.5t-46.5 -18.5zM78 563q-27 0 -46 18.5t-19 45.5q0 28 19 47t46 19q28 0 46.5 -19t18.5 -47q0 -27 -18.5 -45.5t-46.5 -18.5z" />
    <glyph glyph-name="copyright" unicode="&#xa9;" horiz-adv-x="784" 
d="M393 -6q-104 0 -183 46t-123 127t-44 185q0 105 44 185.5t123 126t183 45.5t182.5 -45.5t122.5 -126t44 -185.5q0 -104 -44 -185t-122.5 -127t-182.5 -46zM393 125q-62 0 -112 27.5t-79 78.5t-29 121q0 71 29 122t79 78.5t112 27.5q78 0 134.5 -42t73.5 -118h-122
q-10 30 -33.5 47t-55.5 17q-30 0 -52.5 -14.5t-36 -44t-13.5 -73.5q0 -43 13.5 -72.5t36 -44.5t52.5 -15q35 0 57 17.5t32 46.5h122q-17 -72 -73.5 -115.5t-134.5 -43.5zM392 43q92 0 159 39t103 108.5t36 161.5q0 94 -36.5 163t-103 107t-158.5 38q-91 0 -157.5 -38
t-103 -107t-36.5 -163q0 -92 36.5 -161.5t103 -108.5t157.5 -39z" />
    <glyph glyph-name="ordfeminine" unicode="&#xaa;" horiz-adv-x="509" 
d="M220 348q-47 0 -85.5 22.5t-60.5 63.5t-22 96t22 95.5t59.5 62.5t83.5 22q47 0 77.5 -16t47.5 -42l9 53h98v-352h-98l-9 52v0q-16 -25 -46.5 -41t-75.5 -16zM251 432q25 0 45.5 11.5t33 33t12.5 52.5q0 47 -26.5 72t-64.5 25q-36 0 -62.5 -25t-26.5 -72t26.5 -72
t62.5 -25z" />
    <glyph glyph-name="guillemotleft" unicode="&#xab;" horiz-adv-x="520" 
d="M338 120l-88 175l88 175h132l-92 -175l92 -175h-132zM130 120l-89 175l89 175h131l-91 -175l91 -175h-131z" />
    <glyph glyph-name="logicalnot" unicode="&#xac;" horiz-adv-x="582" 
d="M451 195v136h-459v107h599v-243h-140z" />
    <glyph glyph-name="registered" unicode="&#xae;" horiz-adv-x="510" 
d="M256 290q-62 0 -110 27t-75 74.5t-27 109.5t27 109.5t75 74.5t110 27q61 0 108.5 -27t74.5 -74.5t27 -109.5t-27 -109.5t-74.5 -74.5t-108.5 -27zM287 397l-55 95h67l61 -95h-73zM256 338q48 0 83.5 21t55 57.5t19.5 84.5t-19.5 84.5t-55 57t-83.5 20.5
q-49 0 -84.5 -20.5t-55.5 -57t-20 -84.5t20 -84.5t55.5 -57.5t84.5 -21zM168 397v213h106q34 0 54.5 -18.5t20.5 -49.5t-20.5 -49.5t-54.5 -18.5h-42v-77h-64zM231 519h34q9 0 15 4.5t6 14.5t-6 14t-15 4h-34v-37z" />
    <glyph glyph-name="macron" unicode="&#xaf;" horiz-adv-x="403" 
d="M11 575v99h381v-99h-381z" />
    <glyph glyph-name="degree" unicode="&#xb0;" horiz-adv-x="365" 
d="M182 421q-39 0 -72 18t-53 50.5t-20 75.5q0 46 20.5 78.5t53.5 50.5t72 18t72 -18t52.5 -50.5t19.5 -78.5q0 -43 -20 -76t-53 -50.5t-72 -17.5zM182 508q19 0 37 14.5t18 44.5q0 29 -17.5 43.5t-36.5 14.5q-20 0 -37.5 -14.5t-17.5 -43.5q0 -30 17 -44.5t37 -14.5z" />
    <glyph glyph-name="plusminus" unicode="&#xb1;" horiz-adv-x="582" 
d="M42 0v107h498v-107h-498zM232 173v364h118v-364h-118zM42 297v117h498v-117h-498z" />
    <glyph glyph-name="uni00B2" unicode="&#xb2;" horiz-adv-x="364" 
d="M38 352v79l118 80q28 20 44 40.5t16 44.5q0 19 -10 29t-25 10q-18 0 -28 -11.5t-13 -32.5h-106q3 52 43 87t113 35q47 0 78 -16t46 -41t15 -53q0 -38 -26.5 -66.5t-83.5 -60.5l-68 -40h176v-84h-289z" />
    <glyph glyph-name="uni00B3" unicode="&#xb3;" horiz-adv-x="358" 
d="M179 348q-78 0 -117 31t-43 85h109q2 -14 8 -23t16 -13t22 -4q19 0 31 10.5t12 29.5q0 21 -14 31.5t-36 10.5h-38v51h34q23 0 36 10t13 31q0 17 -11.5 27t-31.5 10q-19 0 -30 -9t-14 -27h-101q2 30 19 56t51.5 42t85.5 16q65 0 105 -30t40 -74q0 -31 -17.5 -50.5
t-49.5 -26.5v-3q34 -10 53 -29.5t19 -52.5q0 -44 -41 -71.5t-110 -27.5z" />
    <glyph glyph-name="acute" unicode="&#xb4;" horiz-adv-x="237" 
d="M13 547l-13 92l221 125v0l16 -106z" />
    <glyph glyph-name="uni00B5" unicode="&#xb5;" horiz-adv-x="628" 
d="M66 -220v716h140v-264q0 -61 24 -93.5t78 -32.5q34 0 59.5 16t40.5 46t15 72v256h140v-496h-123l-11 82v0q-23 -42 -66 -68t-103 -26q-15 0 -29 3t-25 9v-220h-140z" />
    <glyph glyph-name="paragraph" unicode="&#xb6;" horiz-adv-x="659" 
d="M287 -100v380h-18q-83 0 -135.5 29t-77 77t-24.5 103q0 57 24.5 104.5t77 77t135.5 29.5h322v-800h-118v693h-69v-693h-117z" />
    <glyph glyph-name="periodcentered" unicode="&#xb7;" horiz-adv-x="258" 
d="M129 244q-38 0 -62 23.5t-24 56.5q0 35 24 58t62 23t62 -23t24 -58q0 -33 -24 -56.5t-62 -23.5z" />
    <glyph glyph-name="cedilla" unicode="&#xb8;" horiz-adv-x="270" 
d="M0 -264v79h117q25 0 37.5 8t12.5 26q0 17 -12.5 24.5t-37.5 7.5h-63v126h86v-53q33 0 62.5 -11t48.5 -34.5t19 -62.5q0 -37 -19 -61.5t-48.5 -36.5t-64.5 -12h-138z" />
    <glyph glyph-name="uni00B9" unicode="&#xb9;" horiz-adv-x="241" 
d="M93 352v252l-70 -16v66l117 50h60v-352h-107z" />
    <glyph glyph-name="ordmasculine" unicode="&#xba;" horiz-adv-x="489" 
d="M243 349q-57 0 -100.5 23t-68 64t-24.5 95t24.5 95t68.5 63.5t101 22.5q58 0 102 -22.5t68.5 -63.5t24.5 -95t-25 -95t-69 -64t-102 -23zM243 433q24 0 43 11t31 32.5t12 53.5q0 34 -11.5 55.5t-31 32.5t-43.5 11q-23 0 -42 -11t-30 -32.5t-11 -55.5q0 -32 11 -53.5
t30 -32.5t42 -11z" />
    <glyph glyph-name="guillemotright" unicode="&#xbb;" horiz-adv-x="520" 
d="M181 120h-131l92 175l-92 175h131l89 -175zM390 120h-132l92 175l-92 175h132l88 -175z" />
    <glyph glyph-name="onequarter" unicode="&#xbc;" horiz-adv-x="851" 
d="M93 352v252l-70 -16v66l117 50h60v-352h-107zM139 0l391 700h137l-392 -700h-136zM689 0v60h-164v70l153 218h114v-216h37v-72h-37v-60h-103zM630 132h67v103v0z" />
    <glyph glyph-name="onehalf" unicode="&#xbd;" horiz-adv-x="886" 
d="M93 352v252l-70 -16v66l117 50h60v-352h-107zM139 0l391 700h137l-392 -700h-136zM560 0v79l118 80q28 20 44 40.5t16 44.5q0 19 -10 29t-25 10q-18 0 -28 -11.5t-13 -32.5h-106q3 52 43 87t113 35q47 0 78 -16t46 -41t15 -53q0 -38 -26.5 -66.5t-83.5 -60.5l-68 -40h176
v-84h-289z" />
    <glyph glyph-name="threequarters" unicode="&#xbe;" horiz-adv-x="936" 
d="M179 348q-78 0 -117 31t-43 85h109q2 -14 8 -23t16 -13t22 -4q19 0 31 10.5t12 29.5q0 21 -14 31.5t-36 10.5h-38v51h34q23 0 36 10t13 31q0 17 -11.5 27t-31.5 10q-19 0 -30 -9t-14 -27h-101q2 30 19 56t51.5 42t85.5 16q65 0 105 -30t40 -74q0 -31 -17.5 -50.5
t-49.5 -26.5v-3q34 -10 53 -29.5t19 -52.5q0 -44 -41 -71.5t-110 -27.5zM223 0l391 700h137l-392 -700h-136zM774 0v60h-164v70l153 218h114v-216h37v-72h-37v-60h-103zM715 132h67v103v0z" />
    <glyph glyph-name="questiondown" unicode="&#xbf;" horiz-adv-x="540" 
d="M399 282l4 -162h-50q-37 0 -69.5 -4.5t-56.5 -16t-37.5 -33.5t-13.5 -57q0 -29 12 -50.5t34 -33t52 -11.5q32 0 54.5 11.5t34.5 33t12 50.5h132q1 -60 -27 -107.5t-81 -75t-127 -27.5q-67 0 -119.5 24.5t-82.5 71.5t-30 114q0 69 29.5 113.5t82 67t120.5 22.5l3 70h124z
M336 516q38 0 62 -23.5t24 -56.5q0 -34 -24 -57.5t-62 -23.5t-61.5 23.5t-23.5 57.5q0 33 23.5 56.5t61.5 23.5z" />
    <glyph glyph-name="Agrave" unicode="&#xc0;" horiz-adv-x="713" 
d="M22 0l255 700h159l255 -700h-148l-187 541v0l-188 -541h-146zM134 157l37 109h360l36 -109h-433zM462 743l-224 111l16 106v0l221 -125z" />
    <glyph glyph-name="Aacute" unicode="&#xc1;" horiz-adv-x="713" 
d="M22 0l255 700h159l255 -700h-148l-187 541v0l-188 -541h-146zM134 157l37 109h360l36 -109h-433zM251 743l-13 92l221 125v0l16 -106z" />
    <glyph glyph-name="Acircumflex" unicode="&#xc2;" horiz-adv-x="713" 
d="M22 0l255 700h159l255 -700h-148l-187 541v0l-188 -541h-146zM134 157l37 109h360l36 -109h-433zM208 744v100l149 79l148 -79v-100l-148 83z" />
    <glyph glyph-name="Atilde" unicode="&#xc3;" horiz-adv-x="713" 
d="M22 0l255 700h159l255 -700h-148l-187 541v0l-188 -541h-146zM134 157l37 109h360l36 -109h-433zM420 750q-29 0 -49.5 11.5t-38 23t-37.5 11.5q-17 0 -28.5 -11t-15.5 -34h-73q11 69 43 100t80 31q29 0 49 -11.5t38 -23t38 -11.5q17 0 28.5 11.5t14.5 33.5h74
q-10 -68 -42.5 -99.5t-80.5 -31.5z" />
    <glyph glyph-name="Adieresis" unicode="&#xc4;" horiz-adv-x="713" 
d="M22 0l255 700h159l255 -700h-148l-187 541v0l-188 -541h-146zM134 157l37 109h360l36 -109h-433zM264 767q-28 0 -46.5 18.5t-18.5 45.5q0 28 18.5 47t46.5 19t46.5 -19t18.5 -47q0 -27 -18.5 -45.5t-46.5 -18.5zM450 767q-28 0 -46.5 18.5t-18.5 45.5q0 28 18.5 47
t46.5 19q27 0 46 -19t19 -47q0 -27 -19 -45.5t-46 -18.5z" />
    <glyph glyph-name="Aring" unicode="&#xc5;" horiz-adv-x="713" 
d="M22 0l255 700h159l255 -700h-148l-187 541v0l-188 -541h-146zM134 157l37 109h360l36 -109h-433zM357 748q-48 0 -82 30.5t-34 84.5q0 53 34 83.5t82 30.5t82.5 -30.5t34.5 -83.5q0 -54 -34.5 -84.5t-82.5 -30.5zM357 810q21 0 36 14.5t15 38.5t-14.5 38t-36.5 14
q-20 0 -35.5 -13.5t-15.5 -38.5q0 -24 15.5 -38.5t35.5 -14.5z" />
    <glyph glyph-name="AE" unicode="&#xc6;" horiz-adv-x="948" 
d="M22 0l373 700h500v-111h-266v-179h236v-107h-236v-192h266v-111h-406v594v0l-315 -594h-152zM165 133l59 107h331v-107h-390z" />
    <glyph glyph-name="Ccedilla" unicode="&#xc7;" horiz-adv-x="740" 
d="M384 -12q-105 0 -181 45.5t-117 127t-41 188.5t41 189t117 128t181 46q127 0 209 -64t102 -180h-154q-12 56 -52.5 86.5t-106.5 30.5q-61 0 -104.5 -28.5t-66.5 -81.5t-23 -126t23 -125.5t66.5 -81t104.5 -28.5q66 0 106 28.5t53 79.5h154q-20 -109 -102 -171.5
t-209 -62.5zM279 -267v79h117q25 0 37.5 8t12.5 26q0 17 -12.5 24.5t-37.5 7.5h-63v126h86v-53q33 0 62.5 -11t48.5 -34.5t19 -62.5q0 -37 -19 -61.5t-49 -36.5t-65 -12h-137z" />
    <glyph glyph-name="Egrave" unicode="&#xc8;" horiz-adv-x="585" 
d="M68 0v700h463v-113h-323v-177h293v-109h-293v-188h323v-113h-463zM405 743l-224 111l16 106v0l221 -125z" />
    <glyph glyph-name="Eacute" unicode="&#xc9;" horiz-adv-x="585" 
d="M68 0v700h463v-113h-323v-177h293v-109h-293v-188h323v-113h-463zM194 743l-13 92l221 125v0l16 -106z" />
    <glyph glyph-name="Ecircumflex" unicode="&#xca;" horiz-adv-x="585" 
d="M68 0v700h463v-113h-323v-177h293v-109h-293v-188h323v-113h-463zM151 744v100l149 79l148 -79v-100l-148 83z" />
    <glyph glyph-name="Edieresis" unicode="&#xcb;" horiz-adv-x="585" 
d="M68 0v700h463v-113h-323v-177h293v-109h-293v-188h323v-113h-463zM207 767q-28 0 -46.5 18.5t-18.5 45.5q0 28 18.5 47t46.5 19t46.5 -19t18.5 -47q0 -27 -18.5 -45.5t-46.5 -18.5zM393 767q-28 0 -46.5 18.5t-18.5 45.5q0 28 18.5 47t46.5 19q27 0 46 -19t19 -47
q0 -27 -19 -45.5t-46 -18.5z" />
    <glyph glyph-name="Igrave" unicode="&#xcc;" horiz-adv-x="276" 
d="M68 0v700h140v-700h-140zM244 743l-224 111l16 106v0l221 -125z" />
    <glyph glyph-name="Iacute" unicode="&#xcd;" horiz-adv-x="276" 
d="M68 0v700h140v-700h-140zM33 743l-13 92l221 125v0l16 -106z" />
    <glyph glyph-name="Icircumflex" unicode="&#xce;" horiz-adv-x="276" 
d="M68 0v700h140v-700h-140zM-10 744v100l149 79l148 -79v-100l-148 83z" />
    <glyph glyph-name="Idieresis" unicode="&#xcf;" horiz-adv-x="276" 
d="M68 0v700h140v-700h-140zM46 767q-28 0 -46.5 18.5t-18.5 45.5q0 28 18.5 47t46.5 19t46.5 -19t18.5 -47q0 -27 -18.5 -45.5t-46.5 -18.5zM232 767q-28 0 -46.5 18.5t-18.5 45.5q0 28 18.5 47t46.5 19q27 0 46 -19t19 -47q0 -27 -19 -45.5t-46 -18.5z" />
    <glyph glyph-name="Eth" unicode="&#xd0;" horiz-adv-x="720" 
d="M5 291v119h382v-119h-382zM79 0v700h237q122 0 201.5 -43.5t118 -122t38.5 -184.5q0 -105 -38.5 -184t-118 -122.5t-201.5 -43.5h-237zM219 120h89q85 0 133.5 27.5t69 79t20.5 123.5t-20.5 123.5t-69 79.5t-133.5 28h-89v-461z" />
    <glyph glyph-name="Ntilde" unicode="&#xd1;" horiz-adv-x="733" 
d="M68 0v700h140l317 -475v0v475h140v-700h-140l-317 474v0v-474h-140zM430 750q-29 0 -49.5 11.5t-38 23t-37.5 11.5q-17 0 -28.5 -11t-15.5 -34h-73q11 69 43 100t80 31q29 0 49 -11.5t38 -23t38 -11.5q17 0 28.5 11.5t14.5 33.5h74q-10 -68 -42.5 -99.5t-80.5 -31.5z" />
    <glyph glyph-name="Ograve" unicode="&#xd2;" horiz-adv-x="785" 
d="M392 -12q-102 0 -180 46t-122.5 127.5t-44.5 188.5t44.5 188.5t122.5 127.5t180 46q103 0 181.5 -46t122 -127.5t43.5 -188.5t-43.5 -188.5t-122 -127.5t-181.5 -46zM392 114q63 0 109 29t71 81.5t25 125.5t-25 125.5t-71 81.5t-109 29q-62 0 -107.5 -29t-71 -81.5
t-25.5 -125.5t25.5 -125.5t71 -81.5t107.5 -29zM498 743l-224 111l16 106v0l221 -125z" />
    <glyph glyph-name="Oacute" unicode="&#xd3;" horiz-adv-x="785" 
d="M392 -12q-102 0 -180 46t-122.5 127.5t-44.5 188.5t44.5 188.5t122.5 127.5t180 46q103 0 181.5 -46t122 -127.5t43.5 -188.5t-43.5 -188.5t-122 -127.5t-181.5 -46zM392 114q63 0 109 29t71 81.5t25 125.5t-25 125.5t-71 81.5t-109 29q-62 0 -107.5 -29t-71 -81.5
t-25.5 -125.5t25.5 -125.5t71 -81.5t107.5 -29zM287 743l-13 92l221 125v0l16 -106z" />
    <glyph glyph-name="Ocircumflex" unicode="&#xd4;" horiz-adv-x="785" 
d="M392 -12q-102 0 -180 46t-122.5 127.5t-44.5 188.5t44.5 188.5t122.5 127.5t180 46q103 0 181.5 -46t122 -127.5t43.5 -188.5t-43.5 -188.5t-122 -127.5t-181.5 -46zM392 114q63 0 109 29t71 81.5t25 125.5t-25 125.5t-71 81.5t-109 29q-62 0 -107.5 -29t-71 -81.5
t-25.5 -125.5t25.5 -125.5t71 -81.5t107.5 -29zM244 744v100l149 79l148 -79v-100l-148 83z" />
    <glyph glyph-name="Otilde" unicode="&#xd5;" horiz-adv-x="785" 
d="M392 -12q-102 0 -180 46t-122.5 127.5t-44.5 188.5t44.5 188.5t122.5 127.5t180 46q103 0 181.5 -46t122 -127.5t43.5 -188.5t-43.5 -188.5t-122 -127.5t-181.5 -46zM392 114q63 0 109 29t71 81.5t25 125.5t-25 125.5t-71 81.5t-109 29q-62 0 -107.5 -29t-71 -81.5
t-25.5 -125.5t25.5 -125.5t71 -81.5t107.5 -29zM456 750q-29 0 -49.5 11.5t-38 23t-37.5 11.5q-17 0 -28.5 -11t-15.5 -34h-73q11 69 43 100t80 31q29 0 49 -11.5t38 -23t38 -11.5q17 0 28.5 11.5t14.5 33.5h74q-10 -68 -42.5 -99.5t-80.5 -31.5z" />
    <glyph glyph-name="Odieresis" unicode="&#xd6;" horiz-adv-x="785" 
d="M392 -12q-102 0 -180 46t-122.5 127.5t-44.5 188.5t44.5 188.5t122.5 127.5t180 46q103 0 181.5 -46t122 -127.5t43.5 -188.5t-43.5 -188.5t-122 -127.5t-181.5 -46zM392 114q63 0 109 29t71 81.5t25 125.5t-25 125.5t-71 81.5t-109 29q-62 0 -107.5 -29t-71 -81.5
t-25.5 -125.5t25.5 -125.5t71 -81.5t107.5 -29zM300 767q-28 0 -46.5 18.5t-18.5 45.5q0 28 18.5 47t46.5 19t46.5 -19t18.5 -47q0 -27 -18.5 -45.5t-46.5 -18.5zM486 767q-28 0 -46.5 18.5t-18.5 45.5q0 28 18.5 47t46.5 19q27 0 46 -19t19 -47q0 -27 -19 -45.5t-46 -18.5z
" />
    <glyph glyph-name="multiply" unicode="&#xd7;" horiz-adv-x="582" 
d="M168 85l-82 82l123 123l-121 120l83 82l120 -120l123 123l82 -82l-123 -123l121 -121l-83 -82l-120 121z" />
    <glyph glyph-name="Oslash" unicode="&#xd8;" horiz-adv-x="778" 
d="M25 0l597 700h131l-597 -700h-131zM392 -12q-103 0 -181 46t-122 127.5t-44 188.5t44 188.5t122 127.5t181 46t181.5 -46t122 -127.5t43.5 -188.5t-43.5 -188.5t-122 -127.5t-181.5 -46zM392 114q62 0 108 29t71 81.5t25 125.5t-25 125.5t-71 81.5t-108 29t-108 -29
t-71 -81.5t-25 -125.5t25 -125.5t71 -81.5t108 -29z" />
    <glyph glyph-name="Ugrave" unicode="&#xd9;" horiz-adv-x="687" 
d="M341 -12q-78 0 -141 31t-100.5 93.5t-37.5 158.5v429h140v-430q0 -51 17 -85t48.5 -51.5t76.5 -17.5t76.5 17.5t48.5 51.5t17 85v430h140v-429q0 -96 -38.5 -158.5t-103.5 -93.5t-143 -31zM449 743l-224 111l16 106v0l221 -125z" />
    <glyph glyph-name="Uacute" unicode="&#xda;" horiz-adv-x="687" 
d="M341 -12q-78 0 -141 31t-100.5 93.5t-37.5 158.5v429h140v-430q0 -51 17 -85t48.5 -51.5t76.5 -17.5t76.5 17.5t48.5 51.5t17 85v430h140v-429q0 -96 -38.5 -158.5t-103.5 -93.5t-143 -31zM238 743l-13 92l221 125v0l16 -106z" />
    <glyph glyph-name="Ucircumflex" unicode="&#xdb;" horiz-adv-x="687" 
d="M341 -12q-78 0 -141 31t-100.5 93.5t-37.5 158.5v429h140v-430q0 -51 17 -85t48.5 -51.5t76.5 -17.5t76.5 17.5t48.5 51.5t17 85v430h140v-429q0 -96 -38.5 -158.5t-103.5 -93.5t-143 -31zM195 744v100l149 79l148 -79v-100l-148 83z" />
    <glyph glyph-name="Udieresis" unicode="&#xdc;" horiz-adv-x="687" 
d="M341 -12q-78 0 -141 31t-100.5 93.5t-37.5 158.5v429h140v-430q0 -51 17 -85t48.5 -51.5t76.5 -17.5t76.5 17.5t48.5 51.5t17 85v430h140v-429q0 -96 -38.5 -158.5t-103.5 -93.5t-143 -31zM251 767q-28 0 -46.5 18.5t-18.5 45.5q0 28 18.5 47t46.5 19t46.5 -19t18.5 -47
q0 -27 -18.5 -45.5t-46.5 -18.5zM437 767q-28 0 -46.5 18.5t-18.5 45.5q0 28 18.5 47t46.5 19q27 0 46 -19t19 -47q0 -27 -19 -45.5t-46 -18.5z" />
    <glyph glyph-name="Yacute" unicode="&#xdd;" horiz-adv-x="640" 
d="M250 0v244l-237 456h159l163 -343h-27l162 343h157l-237 -456v-244h-140zM215 743l-13 92l221 125v0l16 -106z" />
    <glyph glyph-name="Thorn" unicode="&#xde;" horiz-adv-x="618" 
d="M68 0v700h140v-132h127q84 0 140 -28.5t83.5 -78t27.5 -112.5q0 -57 -26.5 -106.5t-82 -79.5t-142.5 -30h-127v-133h-140zM208 245h118q62 0 89.5 28.5t27.5 75.5q0 50 -27.5 77.5t-89.5 27.5h-118v-209z" />
    <glyph glyph-name="germandbls" unicode="&#xdf;" horiz-adv-x="716" 
d="M479 -10q-93 0 -151.5 49t-68.5 138h130q4 -38 27 -61t61 -23q35 0 53.5 16t18.5 44t-18 46t-71 36q-81 29 -117 59t-36 75q0 28 12 46t30.5 32t36.5 26.5t30.5 28t12.5 36.5q0 37 -28.5 57t-78.5 20q-59 0 -88 -32.5t-29 -89.5v-493h-139v504q0 68 31.5 119t90 80
t141.5 29q75 0 128.5 -24t82 -64t28.5 -89q0 -31 -12 -52t-30 -36t-36.5 -27t-30.5 -23.5t-12 -25.5q0 -11 7.5 -20.5t28.5 -20t63 -25.5q74 -27 106.5 -65.5t32.5 -97.5q0 -50 -25 -89t-71.5 -61t-109.5 -22z" />
    <glyph glyph-name="agrave" unicode="&#xe0;" horiz-adv-x="590" 
d="M236 -12q-62 0 -103.5 20.5t-61 55t-19.5 76.5q0 45 23 80t71 55t120 20h124q0 36 -9.5 59.5t-30 35.5t-54.5 12q-37 0 -62.5 -16t-31.5 -48h-136q6 54 36 93.5t80.5 62t114.5 22.5q71 0 123.5 -24t81 -69t28.5 -111v-312h-118l-16 76v0q-10 -20 -25.5 -36t-35.5 -27.5
t-44.5 -18t-54.5 -6.5zM270 96q25 0 45 8.5t34 24.5t23 36.5t12 44.5v1h-101q-29 0 -47.5 -7.5t-27.5 -21t-9 -30.5q0 -18 9 -31t25 -19t37 -6zM397 547l-224 111l16 106v0l221 -125z" />
    <glyph glyph-name="aacute" unicode="&#xe1;" horiz-adv-x="590" 
d="M236 -12q-62 0 -103.5 20.5t-61 55t-19.5 76.5q0 45 23 80t71 55t120 20h124q0 36 -9.5 59.5t-30 35.5t-54.5 12q-37 0 -62.5 -16t-31.5 -48h-136q6 54 36 93.5t80.5 62t114.5 22.5q71 0 123.5 -24t81 -69t28.5 -111v-312h-118l-16 76v0q-10 -20 -25.5 -36t-35.5 -27.5
t-44.5 -18t-54.5 -6.5zM270 96q25 0 45 8.5t34 24.5t23 36.5t12 44.5v1h-101q-29 0 -47.5 -7.5t-27.5 -21t-9 -30.5q0 -18 9 -31t25 -19t37 -6zM186 547l-13 92l221 125v0l16 -106z" />
    <glyph glyph-name="acircumflex" unicode="&#xe2;" horiz-adv-x="590" 
d="M236 -12q-62 0 -103.5 20.5t-61 55t-19.5 76.5q0 45 23 80t71 55t120 20h124q0 36 -9.5 59.5t-30 35.5t-54.5 12q-37 0 -62.5 -16t-31.5 -48h-136q6 54 36 93.5t80.5 62t114.5 22.5q71 0 123.5 -24t81 -69t28.5 -111v-312h-118l-16 76v0q-10 -20 -25.5 -36t-35.5 -27.5
t-44.5 -18t-54.5 -6.5zM270 96q25 0 45 8.5t34 24.5t23 36.5t12 44.5v1h-101q-29 0 -47.5 -7.5t-27.5 -21t-9 -30.5q0 -18 9 -31t25 -19t37 -6zM143 550v99l149 80l148 -80v-99l-148 82z" />
    <glyph glyph-name="atilde" unicode="&#xe3;" horiz-adv-x="590" 
d="M236 -12q-62 0 -103.5 20.5t-61 55t-19.5 76.5q0 45 23 80t71 55t120 20h124q0 36 -9.5 59.5t-30 35.5t-54.5 12q-37 0 -62.5 -16t-31.5 -48h-136q6 54 36 93.5t80.5 62t114.5 22.5q71 0 123.5 -24t81 -69t28.5 -111v-312h-118l-16 76v0q-10 -20 -25.5 -36t-35.5 -27.5
t-44.5 -18t-54.5 -6.5zM270 96q25 0 45 8.5t34 24.5t23 36.5t12 44.5v1h-101q-29 0 -47.5 -7.5t-27.5 -21t-9 -30.5q0 -18 9 -31t25 -19t37 -6zM351 570q-29 0 -49.5 11t-38 22.5t-37.5 11.5q-17 0 -28.5 -11t-15.5 -34h-73q11 69 43 100t80 31q29 0 49 -11.5t38 -22.5
t38 -11q17 0 28.5 11t14.5 34h74q-10 -69 -42.5 -100t-80.5 -31z" />
    <glyph glyph-name="adieresis" unicode="&#xe4;" horiz-adv-x="590" 
d="M236 -12q-62 0 -103.5 20.5t-61 55t-19.5 76.5q0 45 23 80t71 55t120 20h124q0 36 -9.5 59.5t-30 35.5t-54.5 12q-37 0 -62.5 -16t-31.5 -48h-136q6 54 36 93.5t80.5 62t114.5 22.5q71 0 123.5 -24t81 -69t28.5 -111v-312h-118l-16 76v0q-10 -20 -25.5 -36t-35.5 -27.5
t-44.5 -18t-54.5 -6.5zM270 96q25 0 45 8.5t34 24.5t23 36.5t12 44.5v1h-101q-29 0 -47.5 -7.5t-27.5 -21t-9 -30.5q0 -18 9 -31t25 -19t37 -6zM198 570q-28 0 -46.5 18.5t-18.5 45.5q0 28 18.5 47t46.5 19t46.5 -19t18.5 -47q0 -27 -18.5 -45.5t-46.5 -18.5zM384 570
q-28 0 -46.5 18.5t-18.5 45.5q0 28 18.5 47t46.5 19q27 0 46 -19t19 -47q0 -27 -19 -45.5t-46 -18.5z" />
    <glyph glyph-name="aring" unicode="&#xe5;" horiz-adv-x="590" 
d="M236 -12q-62 0 -103.5 20.5t-61 55t-19.5 76.5q0 45 23 80t71 55t120 20h124q0 36 -9.5 59.5t-30 35.5t-54.5 12q-37 0 -62.5 -16t-31.5 -48h-136q6 54 36 93.5t80.5 62t114.5 22.5q71 0 123.5 -24t81 -69t28.5 -111v-312h-118l-16 76v0q-10 -20 -25.5 -36t-35.5 -27.5
t-44.5 -18t-54.5 -6.5zM270 96q25 0 45 8.5t34 24.5t23 36.5t12 44.5v1h-101q-29 0 -47.5 -7.5t-27.5 -21t-9 -30.5q0 -18 9 -31t25 -19t37 -6zM291 570q-48 0 -82 30.5t-34 83.5t34 84t82 31t82.5 -31t34.5 -84t-34.5 -83.5t-82.5 -30.5zM291 631q21 0 36 14.5t15 38.5
q0 25 -14.5 39t-36.5 14q-20 0 -35.5 -14t-15.5 -39q0 -24 15.5 -38.5t35.5 -14.5z" />
    <glyph glyph-name="ae" unicode="&#xe6;" horiz-adv-x="947" 
d="M247 -12q-64 0 -108 20.5t-65.5 55.5t-21.5 77q0 46 22.5 81.5t69.5 55.5t119 20h130q0 35 -9 58t-29.5 34.5t-53.5 11.5q-34 0 -59.5 -15.5t-31.5 -46.5h-136q5 53 35.5 92.5t80 61.5t111.5 22q59 0 104.5 -17.5t74.5 -49.5q32 31 76.5 49t96.5 18q74 0 130.5 -33
t88 -89.5t31.5 -129.5q0 -10 -0.5 -22t-2.5 -26h-364q3 -35 18 -60.5t40.5 -39.5t56.5 -14q40 0 64 18t36 46h141q-13 -50 -46.5 -90.5t-82.5 -64t-110 -23.5q-64 0 -117 26t-87 71q-22 -29 -51 -51t-66.5 -34t-84.5 -12zM269 96q32 0 56 14.5t40 40.5t22 58v6h-105
q-29 0 -47 -8t-27 -21t-9 -31t9 -31.5t25 -20.5t36 -7zM538 300h223q-3 48 -33 75.5t-74 27.5q-28 0 -52 -11.5t-41 -34t-23 -57.5z" />
    <glyph glyph-name="ccedilla" unicode="&#xe7;" horiz-adv-x="610" 
d="M311 -12q-76 0 -135 34t-92.5 93t-33.5 135q0 78 33.5 137.5t92.5 94t136 34.5q97 0 163.5 -51.5t84.5 -141.5h-149q-8 34 -35.5 53.5t-65.5 19.5q-34 0 -60.5 -17.5t-41.5 -49.5t-15 -77q0 -34 8.5 -60.5t24 -45.5t37.5 -29t47 -10q26 0 46 8.5t35 25t20 39.5h149
q-18 -88 -85 -140t-164 -52zM214 -267v79h117q25 0 37.5 8t12.5 26q0 17 -12.5 24.5t-37.5 7.5h-63v126h86v-53q33 0 62.5 -11t48.5 -34.5t19 -62.5q0 -37 -19 -61.5t-49 -36.5t-65 -12h-137z" />
    <glyph glyph-name="egrave" unicode="&#xe8;" horiz-adv-x="605" 
d="M309 -12q-76 0 -134.5 32.5t-91.5 91t-33 135.5q0 78 32.5 138.5t91 95.5t136.5 35q75 0 131.5 -33t88 -89t31.5 -129q0 -10 -0.5 -22t-2.5 -26h-408v85h269q-3 46 -33.5 73.5t-75.5 27.5q-34 0 -62 -16t-44 -47t-16 -79v-29q0 -39 15 -68.5t42 -45.5t63 -16t59.5 15
t35.5 39h143q-14 -47 -47.5 -85t-81.5 -60.5t-108 -22.5zM412 547l-224 111l16 106v0l221 -125z" />
    <glyph glyph-name="eacute" unicode="&#xe9;" horiz-adv-x="605" 
d="M309 -12q-76 0 -134.5 32.5t-91.5 91t-33 135.5q0 78 32.5 138.5t91 95.5t136.5 35q75 0 131.5 -33t88 -89t31.5 -129q0 -10 -0.5 -22t-2.5 -26h-408v85h269q-3 46 -33.5 73.5t-75.5 27.5q-34 0 -62 -16t-44 -47t-16 -79v-29q0 -39 15 -68.5t42 -45.5t63 -16t59.5 15
t35.5 39h143q-14 -47 -47.5 -85t-81.5 -60.5t-108 -22.5zM201 547l-13 92l221 125v0l16 -106z" />
    <glyph glyph-name="ecircumflex" unicode="&#xea;" horiz-adv-x="605" 
d="M309 -12q-76 0 -134.5 32.5t-91.5 91t-33 135.5q0 78 32.5 138.5t91 95.5t136.5 35q75 0 131.5 -33t88 -89t31.5 -129q0 -10 -0.5 -22t-2.5 -26h-408v85h269q-3 46 -33.5 73.5t-75.5 27.5q-34 0 -62 -16t-44 -47t-16 -79v-29q0 -39 15 -68.5t42 -45.5t63 -16t59.5 15
t35.5 39h143q-14 -47 -47.5 -85t-81.5 -60.5t-108 -22.5zM158 550v99l149 80l148 -80v-99l-148 82z" />
    <glyph glyph-name="edieresis" unicode="&#xeb;" horiz-adv-x="605" 
d="M309 -12q-76 0 -134.5 32.5t-91.5 91t-33 135.5q0 78 32.5 138.5t91 95.5t136.5 35q75 0 131.5 -33t88 -89t31.5 -129q0 -10 -0.5 -22t-2.5 -26h-408v85h269q-3 46 -33.5 73.5t-75.5 27.5q-34 0 -62 -16t-44 -47t-16 -79v-29q0 -39 15 -68.5t42 -45.5t63 -16t59.5 15
t35.5 39h143q-14 -47 -47.5 -85t-81.5 -60.5t-108 -22.5zM214 570q-28 0 -46.5 18.5t-18.5 45.5q0 28 18.5 47t46.5 19t46.5 -19t18.5 -47q0 -27 -18.5 -45.5t-46.5 -18.5zM400 570q-28 0 -46.5 18.5t-18.5 45.5q0 28 18.5 47t46.5 19q27 0 46 -19t19 -47q0 -27 -19 -45.5
t-46 -18.5z" />
    <glyph glyph-name="igrave" unicode="&#xec;" horiz-adv-x="271" 
d="M66 0v504h140v-504h-140zM241 547l-224 111l16 106v0l221 -125z" />
    <glyph glyph-name="iacute" unicode="&#xed;" horiz-adv-x="271" 
d="M66 0v504h140v-504h-140zM30 547l-13 92l221 125v0l16 -106z" />
    <glyph glyph-name="icircumflex" unicode="&#xee;" horiz-adv-x="271" 
d="M66 0v504h140v-504h-140zM-13 550v99l149 80l148 -80v-99l-148 82z" />
    <glyph glyph-name="idieresis" unicode="&#xef;" horiz-adv-x="271" 
d="M66 0v504h140v-504h-140zM43 570q-28 0 -46.5 18.5t-18.5 45.5q0 28 18.5 47t46.5 19t46.5 -19t18.5 -47q0 -27 -18.5 -45.5t-46.5 -18.5zM229 570q-28 0 -46.5 18.5t-18.5 45.5q0 28 18.5 47t46.5 19q27 0 46 -19t19 -47q0 -27 -19 -45.5t-46 -18.5z" />
    <glyph glyph-name="eth" unicode="&#xf0;" horiz-adv-x="642" 
d="M318 -12q-79 0 -139 34t-94.5 92.5t-34.5 132.5t33.5 132t92 91t133.5 33q38 0 70 -9.5t61 -29.5q-13 32 -31 64t-40 62.5t-47 58t-54 51.5h131q51 -44 87.5 -95t60 -106t34.5 -108t11 -102q0 -93 -36 -161t-98 -104t-140 -36zM321 107q35 0 64 17t46.5 48t17.5 74
q0 44 -17 74.5t-46.5 47.5t-64.5 17t-64 -17t-46.5 -48t-17.5 -74t17.5 -74t46.5 -48t64 -17zM256 533v83l294 93v-82z" />
    <glyph glyph-name="ntilde" unicode="&#xf1;" horiz-adv-x="621" 
d="M66 0v504h123l10 -82v0q23 42 65.5 68t102.5 26q62 0 105 -26.5t65.5 -76.5t22.5 -123v-290h-139v277q0 58 -24.5 89.5t-77.5 31.5q-32 0 -58 -15.5t-40.5 -44t-14.5 -69.5v-269h-140zM394 570q-29 0 -49.5 11t-38 22.5t-37.5 11.5q-17 0 -28.5 -11t-15.5 -34h-73
q11 69 43 100t80 31q29 0 49 -11.5t38 -22.5t38 -11q17 0 28.5 11t14.5 34h74q-10 -69 -42.5 -100t-80.5 -31z" />
    <glyph glyph-name="ograve" unicode="&#xf2;" horiz-adv-x="612" 
d="M305 -12q-72 0 -130 33.5t-91.5 93.5t-33.5 136q0 78 33.5 138t91.5 93.5t131 33.5t131 -33.5t91.5 -93t33.5 -137.5t-34 -137.5t-91.5 -93t-131.5 -33.5zM305 109q33 0 58 16t40.5 48t15.5 79t-15 79t-40.5 48t-57.5 16q-31 0 -57 -16t-41 -48t-15 -79t15 -79t40.5 -48
t56.5 -16zM412 547l-224 111l16 106v0l221 -125z" />
    <glyph glyph-name="oacute" unicode="&#xf3;" horiz-adv-x="612" 
d="M305 -12q-72 0 -130 33.5t-91.5 93.5t-33.5 136q0 78 33.5 138t91.5 93.5t131 33.5t131 -33.5t91.5 -93t33.5 -137.5t-34 -137.5t-91.5 -93t-131.5 -33.5zM305 109q33 0 58 16t40.5 48t15.5 79t-15 79t-40.5 48t-57.5 16q-31 0 -57 -16t-41 -48t-15 -79t15 -79t40.5 -48
t56.5 -16zM201 547l-13 92l221 125v0l16 -106z" />
    <glyph glyph-name="ocircumflex" unicode="&#xf4;" horiz-adv-x="612" 
d="M305 -12q-72 0 -130 33.5t-91.5 93.5t-33.5 136q0 78 33.5 138t91.5 93.5t131 33.5t131 -33.5t91.5 -93t33.5 -137.5t-34 -137.5t-91.5 -93t-131.5 -33.5zM305 109q33 0 58 16t40.5 48t15.5 79t-15 79t-40.5 48t-57.5 16q-31 0 -57 -16t-41 -48t-15 -79t15 -79t40.5 -48
t56.5 -16zM158 550v99l149 80l148 -80v-99l-148 82z" />
    <glyph glyph-name="otilde" unicode="&#xf5;" horiz-adv-x="612" 
d="M305 -12q-72 0 -130 33.5t-91.5 93.5t-33.5 136q0 78 33.5 138t91.5 93.5t131 33.5t131 -33.5t91.5 -93t33.5 -137.5t-34 -137.5t-91.5 -93t-131.5 -33.5zM305 109q33 0 58 16t40.5 48t15.5 79t-15 79t-40.5 48t-57.5 16q-31 0 -57 -16t-41 -48t-15 -79t15 -79t40.5 -48
t56.5 -16zM366 570q-29 0 -49.5 11t-38 22.5t-37.5 11.5q-17 0 -28.5 -11t-15.5 -34h-73q11 69 43 100t80 31q29 0 49 -11.5t38 -22.5t38 -11q17 0 28.5 11t14.5 34h74q-10 -69 -42.5 -100t-80.5 -31z" />
    <glyph glyph-name="odieresis" unicode="&#xf6;" horiz-adv-x="612" 
d="M305 -12q-72 0 -130 33.5t-91.5 93.5t-33.5 136q0 78 33.5 138t91.5 93.5t131 33.5t131 -33.5t91.5 -93t33.5 -137.5t-34 -137.5t-91.5 -93t-131.5 -33.5zM305 109q33 0 58 16t40.5 48t15.5 79t-15 79t-40.5 48t-57.5 16q-31 0 -57 -16t-41 -48t-15 -79t15 -79t40.5 -48
t56.5 -16zM213 570q-28 0 -46.5 18.5t-18.5 45.5q0 28 18.5 47t46.5 19t46.5 -19t18.5 -47q0 -27 -18.5 -45.5t-46.5 -18.5zM399 570q-28 0 -46.5 18.5t-18.5 45.5q0 28 18.5 47t46.5 19q27 0 46 -19t19 -47q0 -27 -19 -45.5t-46 -18.5z" />
    <glyph glyph-name="divide" unicode="&#xf7;" horiz-adv-x="582" 
d="M72 231v117h438v-117h-438zM292 25q-38 0 -62 23.5t-24 56.5q0 34 24 57.5t62 23.5t61.5 -23.5t23.5 -57.5q0 -33 -23.5 -56.5t-61.5 -23.5zM292 398q-38 0 -62 23t-24 56q0 34 24 57.5t62 23.5t61.5 -23.5t23.5 -57.5q0 -33 -23.5 -56t-61.5 -23z" />
    <glyph glyph-name="oslash" unicode="&#xf8;" horiz-adv-x="594" 
d="M27 0l433 504h107l-433 -504h-107zM296 -12q-72 0 -130 33.5t-91.5 93.5t-33.5 136q0 78 33.5 138t91.5 93.5t131 33.5t131 -33.5t91.5 -93t33.5 -137.5t-34 -137.5t-92 -93t-131 -33.5zM296 109q33 0 58 16t40.5 48t15.5 79t-15 79t-40.5 48t-57.5 16q-31 0 -57 -16
t-41 -48t-15 -79t15 -79t40.5 -48t56.5 -16z" />
    <glyph glyph-name="ugrave" unicode="&#xf9;" horiz-adv-x="621" 
d="M254 -12q-61 0 -104.5 25.5t-66.5 75.5t-23 123v292h140v-278q0 -59 24.5 -89.5t76.5 -30.5q33 0 59 15t40.5 43.5t14.5 70.5v269h140v-504h-123l-11 81v0q-22 -42 -64.5 -67.5t-102.5 -25.5zM412 547l-224 111l16 106v0l221 -125z" />
    <glyph glyph-name="uacute" unicode="&#xfa;" horiz-adv-x="621" 
d="M254 -12q-61 0 -104.5 25.5t-66.5 75.5t-23 123v292h140v-278q0 -59 24.5 -89.5t76.5 -30.5q33 0 59 15t40.5 43.5t14.5 70.5v269h140v-504h-123l-11 81v0q-22 -42 -64.5 -67.5t-102.5 -25.5zM201 547l-13 92l221 125v0l16 -106z" />
    <glyph glyph-name="ucircumflex" unicode="&#xfb;" horiz-adv-x="621" 
d="M254 -12q-61 0 -104.5 25.5t-66.5 75.5t-23 123v292h140v-278q0 -59 24.5 -89.5t76.5 -30.5q33 0 59 15t40.5 43.5t14.5 70.5v269h140v-504h-123l-11 81v0q-22 -42 -64.5 -67.5t-102.5 -25.5zM158 550v99l149 80l148 -80v-99l-148 82z" />
    <glyph glyph-name="udieresis" unicode="&#xfc;" horiz-adv-x="621" 
d="M254 -12q-61 0 -104.5 25.5t-66.5 75.5t-23 123v292h140v-278q0 -59 24.5 -89.5t76.5 -30.5q33 0 59 15t40.5 43.5t14.5 70.5v269h140v-504h-123l-11 81v0q-22 -42 -64.5 -67.5t-102.5 -25.5zM213 570q-28 0 -46.5 18.5t-18.5 45.5q0 28 18.5 47t46.5 19t46.5 -19
t18.5 -47q0 -27 -18.5 -45.5t-46.5 -18.5zM399 570q-28 0 -46.5 18.5t-18.5 45.5q0 28 18.5 47t46.5 19q27 0 46 -19t19 -47q0 -27 -19 -45.5t-46 -18.5z" />
    <glyph glyph-name="yacute" unicode="&#xfd;" horiz-adv-x="609" 
d="M131 -220l121 276h-30l-202 448h152l143 -319v0l125 319h149l-310 -724h-148zM199 547l-13 92l221 125v0l16 -106z" />
    <glyph glyph-name="thorn" unicode="&#xfe;" horiz-adv-x="658" 
d="M66 -220v940h140v-284q15 21 37 39.5t52.5 29.5t70.5 11q70 0 124.5 -34.5t85.5 -94.5t31 -136t-31.5 -135.5t-86 -93.5t-122.5 -34q-55 0 -95.5 20t-65.5 56v-284h-140zM333 110q39 0 68.5 18t46.5 50t17 73q0 42 -17 74t-46.5 50.5t-68.5 18.5t-68.5 -18.5t-46.5 -50.5
t-17 -73q0 -42 17 -74t46.5 -50t68.5 -18z" />
    <glyph glyph-name="ydieresis" unicode="&#xff;" horiz-adv-x="609" 
d="M131 -220l121 276h-30l-202 448h152l143 -319v0l125 319h149l-310 -724h-148zM212 570q-28 0 -46.5 18.5t-18.5 45.5q0 28 18.5 47t46.5 19t46.5 -19t18.5 -47q0 -27 -18.5 -45.5t-46.5 -18.5zM398 570q-28 0 -46.5 18.5t-18.5 45.5q0 28 18.5 47t46.5 19q27 0 46 -19
t19 -47q0 -27 -19 -45.5t-46 -18.5z" />
    <glyph glyph-name="Amacron" unicode="&#x100;" horiz-adv-x="713" 
d="M22 0l255 700h159l255 -700h-148l-187 541v0l-188 -541h-146zM134 157l37 109h360l36 -109h-433zM166 779v99h381v-99h-381z" />
    <glyph glyph-name="amacron" unicode="&#x101;" horiz-adv-x="590" 
d="M236 -12q-62 0 -103.5 20.5t-61 55t-19.5 76.5q0 45 23 80t71 55t120 20h124q0 36 -9.5 59.5t-30 35.5t-54.5 12q-37 0 -62.5 -16t-31.5 -48h-136q6 54 36 93.5t80.5 62t114.5 22.5q71 0 123.5 -24t81 -69t28.5 -111v-312h-118l-16 76v0q-10 -20 -25.5 -36t-35.5 -27.5
t-44.5 -18t-54.5 -6.5zM270 96q25 0 45 8.5t34 24.5t23 36.5t12 44.5v1h-101q-29 0 -47.5 -7.5t-27.5 -21t-9 -30.5q0 -18 9 -31t25 -19t37 -6zM100 594v98h381v-98h-381z" />
    <glyph glyph-name="Abreve" unicode="&#x102;" horiz-adv-x="713" 
d="M22 0l255 700h159l255 -700h-148l-187 541v0l-188 -541h-146zM134 157l37 109h360l36 -109h-433zM357 747q-48 0 -84 19t-55.5 54.5t-19.5 83.5v18h73q0 -34 19 -52.5t67 -18.5q49 0 68 18.5t19 52.5h74v-18q0 -49 -20 -84.5t-56 -54t-85 -18.5z" />
    <glyph glyph-name="abreve" unicode="&#x103;" horiz-adv-x="590" 
d="M236 -12q-62 0 -103.5 20.5t-61 55t-19.5 76.5q0 45 23 80t71 55t120 20h124q0 36 -9.5 59.5t-30 35.5t-54.5 12q-37 0 -62.5 -16t-31.5 -48h-136q6 54 36 93.5t80.5 62t114.5 22.5q71 0 123.5 -24t81 -69t28.5 -111v-312h-118l-16 76v0q-10 -20 -25.5 -36t-35.5 -27.5
t-44.5 -18t-54.5 -6.5zM270 96q25 0 45 8.5t34 24.5t23 36.5t12 44.5v1h-101q-29 0 -47.5 -7.5t-27.5 -21t-9 -30.5q0 -18 9 -31t25 -19t37 -6zM291 563q-48 0 -84 19t-55.5 54t-19.5 84v17h73q0 -33 19 -52t67 -19q49 0 68 19t19 52h74v-17q0 -49 -20 -84.5t-56 -54
t-85 -18.5z" />
    <glyph glyph-name="Aogonek" unicode="&#x104;" horiz-adv-x="713" 
d="M22 0l255 700h159l255 -700h-148l-187 541v0l-188 -541h-146zM134 157l37 109h360l36 -109h-433zM607 -212q-37 0 -68.5 11.5t-50 35.5t-18.5 60q0 28 13.5 53t45 49.5t87.5 48.5l45 19l31 -65l-51 -25q-36 -18 -51 -34t-15 -33q0 -18 13.5 -28.5t36.5 -10.5q15 0 34 4
t38 11v-82q-19 -6 -42 -10t-48 -4z" />
    <glyph glyph-name="aogonek" unicode="&#x105;" horiz-adv-x="590" 
d="M236 -12q-62 0 -103.5 20.5t-61 55t-19.5 76.5q0 45 23 80t71 55t120 20h124q0 36 -9.5 59.5t-30 35.5t-54.5 12q-37 0 -62.5 -16t-31.5 -48h-136q6 54 36 93.5t80.5 62t114.5 22.5q71 0 123.5 -24t81 -69t28.5 -111v-312h-118l-16 76v0q-10 -20 -25.5 -36t-35.5 -27.5
t-44.5 -18t-54.5 -6.5zM270 96q25 0 45 8.5t34 24.5t23 36.5t12 44.5v1h-101q-29 0 -47.5 -7.5t-27.5 -21t-9 -30.5q0 -18 9 -31t25 -19t37 -6zM445 -212q-37 0 -68.5 11.5t-50 35.5t-18.5 60q0 28 13.5 53t45 49.5t87.5 48.5l45 19l31 -65l-51 -25q-36 -18 -51 -34t-15 -33
q0 -18 13.5 -28.5t36.5 -10.5q15 0 34 4t38 11v-82q-19 -6 -42 -10t-48 -4z" />
    <glyph glyph-name="Cacute" unicode="&#x106;" horiz-adv-x="740" 
d="M384 -12q-105 0 -181 45.5t-117 127t-41 188.5t41 189t117 128t181 46q127 0 209 -64t102 -180h-154q-12 56 -52.5 86.5t-106.5 30.5q-61 0 -104.5 -28.5t-66.5 -81.5t-23 -126t23 -125.5t66.5 -81t104.5 -28.5q66 0 106 28.5t53 79.5h154q-20 -109 -102 -171.5
t-209 -62.5zM264 743l-13 92l221 125v0l16 -106z" />
    <glyph glyph-name="cacute" unicode="&#x107;" horiz-adv-x="610" 
d="M311 -12q-76 0 -135 34t-92.5 93t-33.5 135q0 78 33.5 137.5t92.5 94t136 34.5q97 0 163.5 -51.5t84.5 -141.5h-149q-8 34 -35.5 53.5t-65.5 19.5q-34 0 -60.5 -17.5t-41.5 -49.5t-15 -77q0 -34 8.5 -60.5t24 -45.5t37.5 -29t47 -10q26 0 46 8.5t35 25t20 39.5h149
q-18 -88 -85 -140t-164 -52zM200 547l-13 92l221 125v0l16 -106z" />
    <glyph glyph-name="Cdotaccent" unicode="&#x10a;" horiz-adv-x="740" 
d="M384 -12q-105 0 -181 45.5t-117 127t-41 188.5t41 189t117 128t181 46q127 0 209 -64t102 -180h-154q-12 56 -52.5 86.5t-106.5 30.5q-61 0 -104.5 -28.5t-66.5 -81.5t-23 -126t23 -125.5t66.5 -81t104.5 -28.5q66 0 106 28.5t53 79.5h154q-20 -109 -102 -171.5
t-209 -62.5zM370 763q-27 0 -46 19t-19 46q0 28 19 47t46 19q28 0 46.5 -19t18.5 -47q0 -27 -18.5 -46t-46.5 -19z" />
    <glyph glyph-name="cdotaccent" unicode="&#x10b;" horiz-adv-x="610" 
d="M311 -12q-76 0 -135 34t-92.5 93t-33.5 135q0 78 33.5 137.5t92.5 94t136 34.5q97 0 163.5 -51.5t84.5 -141.5h-149q-8 34 -35.5 53.5t-65.5 19.5q-34 0 -60.5 -17.5t-41.5 -49.5t-15 -77q0 -34 8.5 -60.5t24 -45.5t37.5 -29t47 -10q26 0 46 8.5t35 25t20 39.5h149
q-18 -88 -85 -140t-164 -52zM305 571q-27 0 -46 18.5t-19 45.5q0 28 19 47t46 19q28 0 46.5 -19t18.5 -47q0 -27 -18.5 -45.5t-46.5 -18.5z" />
    <glyph glyph-name="Ccaron" unicode="&#x10c;" horiz-adv-x="740" 
d="M384 -12q-105 0 -181 45.5t-117 127t-41 188.5t41 189t117 128t181 46q127 0 209 -64t102 -180h-154q-12 56 -52.5 86.5t-106.5 30.5q-61 0 -104.5 -28.5t-66.5 -81.5t-23 -126t23 -125.5t66.5 -81t104.5 -28.5q66 0 106 28.5t53 79.5h154q-20 -109 -102 -171.5
t-209 -62.5zM370 744l-149 80v99l149 -86l148 86v-99z" />
    <glyph glyph-name="ccaron" unicode="&#x10d;" horiz-adv-x="610" 
d="M311 -12q-76 0 -135 34t-92.5 93t-33.5 135q0 78 33.5 137.5t92.5 94t136 34.5q97 0 163.5 -51.5t84.5 -141.5h-149q-8 34 -35.5 53.5t-65.5 19.5q-34 0 -60.5 -17.5t-41.5 -49.5t-15 -77q0 -34 8.5 -60.5t24 -45.5t37.5 -29t47 -10q26 0 46 8.5t35 25t20 39.5h149
q-18 -88 -85 -140t-164 -52zM306 563l-149 80v99l149 -86l148 86v-99z" />
    <glyph glyph-name="Dcaron" unicode="&#x10e;" horiz-adv-x="709" 
d="M68 0v700h238q121 0 201 -43.5t118.5 -122t38.5 -184.5q0 -105 -38.5 -184t-118 -122.5t-202.5 -43.5h-237zM208 120h90q84 0 132.5 27.5t69.5 79t21 123.5t-21 123.5t-69.5 79.5t-132.5 28h-90v-461zM291 744l-149 80v99l149 -86l148 86v-99z" />
    <glyph glyph-name="dcaron" unicode="&#x10f;" horiz-adv-x="764" 
d="M290 -12q-69 0 -123 34t-85.5 94t-31.5 135q0 77 31.5 136.5t87 94t124.5 34.5q54 0 94 -19.5t65 -55.5v279h140v-720h-124l-16 68v0q-15 -21 -37 -39.5t-53 -29.5t-72 -11zM324 110q39 0 69 18t46.5 50t16.5 74t-16.5 74t-46.5 50t-69 18q-38 0 -68 -18t-46.5 -50
t-16.5 -73q0 -42 16.5 -74.5t46.5 -50.5t68 -18zM635 518v56q24 0 35.5 8.5t11.5 27.5v18h-47v109h107q7 -29 10 -52t3 -47q0 -58 -30.5 -89t-89.5 -31z" />
    <glyph glyph-name="Dcroat" unicode="&#x110;" horiz-adv-x="720" 
d="M5 291v119h382v-119h-382zM79 0v700h237q122 0 201.5 -43.5t118 -122t38.5 -184.5q0 -105 -38.5 -184t-118 -122.5t-201.5 -43.5h-237zM219 120h89q85 0 133.5 27.5t69 79t20.5 123.5t-20.5 123.5t-69 79.5t-133.5 28h-89v-461z" />
    <glyph glyph-name="dcroat" unicode="&#x111;" horiz-adv-x="686" 
d="M315 564v83h348v-83h-348zM290 -12q-69 0 -123 34t-85.5 94t-31.5 135q0 77 31.5 136.5t87 94t124.5 34.5q54 0 94 -19.5t65 -55.5v279h140v-720h-124l-16 68v0q-15 -21 -37 -39.5t-53 -29.5t-72 -11zM324 110q39 0 69 18t46.5 50t16.5 74t-16.5 74t-46.5 50t-69 18
q-38 0 -68 -18t-46.5 -50t-16.5 -73q0 -42 16.5 -74.5t46.5 -50.5t68 -18z" />
    <glyph glyph-name="Emacron" unicode="&#x112;" horiz-adv-x="585" 
d="M68 0v700h463v-113h-323v-177h293v-109h-293v-188h323v-113h-463zM109 779v99h381v-99h-381z" />
    <glyph glyph-name="emacron" unicode="&#x113;" horiz-adv-x="605" 
d="M309 -12q-76 0 -134.5 32.5t-91.5 91t-33 135.5q0 78 32.5 138.5t91 95.5t136.5 35q75 0 131.5 -33t88 -89t31.5 -129q0 -10 -0.5 -22t-2.5 -26h-408v85h269q-3 46 -33.5 73.5t-75.5 27.5q-34 0 -62 -16t-44 -47t-16 -79v-29q0 -39 15 -68.5t42 -45.5t63 -16t59.5 15
t35.5 39h143q-14 -47 -47.5 -85t-81.5 -60.5t-108 -22.5zM116 594v98h381v-98h-381z" />
    <glyph glyph-name="Ebreve" unicode="&#x114;" horiz-adv-x="585" 
d="M68 0v700h463v-113h-323v-177h293v-109h-293v-188h323v-113h-463zM300 747q-48 0 -84 19t-55.5 54.5t-19.5 83.5v18h73q0 -34 19 -52.5t67 -18.5q49 0 68 18.5t19 52.5h74v-18q0 -49 -20 -84.5t-56 -54t-85 -18.5z" />
    <glyph glyph-name="ebreve" unicode="&#x115;" horiz-adv-x="605" 
d="M309 -12q-76 0 -134.5 32.5t-91.5 91t-33 135.5q0 78 32.5 138.5t91 95.5t136.5 35q75 0 131.5 -33t88 -89t31.5 -129q0 -10 -0.5 -22t-2.5 -26h-408v85h269q-3 46 -33.5 73.5t-75.5 27.5q-34 0 -62 -16t-44 -47t-16 -79v-29q0 -39 15 -68.5t42 -45.5t63 -16t59.5 15
t35.5 39h143q-14 -47 -47.5 -85t-81.5 -60.5t-108 -22.5zM306 563q-48 0 -84 19t-55.5 54t-19.5 84v17h73q0 -33 19 -52t67 -19q49 0 68 19t19 52h74v-17q0 -49 -20 -84.5t-56 -54t-85 -18.5z" />
    <glyph glyph-name="Edotaccent" unicode="&#x116;" horiz-adv-x="585" 
d="M68 0v700h463v-113h-323v-177h293v-109h-293v-188h323v-113h-463zM300 763q-27 0 -46 19t-19 46q0 28 19 47t46 19q28 0 46.5 -19t18.5 -47q0 -27 -18.5 -46t-46.5 -19z" />
    <glyph glyph-name="edotaccent" unicode="&#x117;" horiz-adv-x="605" 
d="M309 -12q-76 0 -134.5 32.5t-91.5 91t-33 135.5q0 78 32.5 138.5t91 95.5t136.5 35q75 0 131.5 -33t88 -89t31.5 -129q0 -10 -0.5 -22t-2.5 -26h-408v85h269q-3 46 -33.5 73.5t-75.5 27.5q-34 0 -62 -16t-44 -47t-16 -79v-29q0 -39 15 -68.5t42 -45.5t63 -16t59.5 15
t35.5 39h143q-14 -47 -47.5 -85t-81.5 -60.5t-108 -22.5zM306 571q-27 0 -46 18.5t-19 45.5q0 28 19 47t46 19q28 0 46.5 -19t18.5 -47q0 -27 -18.5 -45.5t-46.5 -18.5z" />
    <glyph glyph-name="Eogonek" unicode="&#x118;" horiz-adv-x="585" 
d="M68 0v700h463v-113h-323v-177h293v-109h-293v-188h323v-113h-463zM447 -212q-37 0 -68.5 11.5t-50 35.5t-18.5 60q0 28 13.5 53t45 49.5t87.5 48.5l45 19l31 -65l-51 -25q-36 -18 -51 -34t-15 -33q0 -18 13.5 -28.5t36.5 -10.5q15 0 34 4t38 11v-82q-19 -6 -42 -10
t-48 -4z" />
    <glyph glyph-name="eogonek" unicode="&#x119;" horiz-adv-x="605" 
d="M309 -12q-76 0 -134.5 32.5t-91.5 91t-33 135.5q0 78 32.5 138.5t91 95.5t136.5 35q75 0 131.5 -33t88 -89t31.5 -129q0 -10 -0.5 -22t-2.5 -26h-408v85h269q-3 46 -33.5 73.5t-75.5 27.5q-34 0 -62 -16t-44 -47t-16 -79v-29q0 -39 15 -68.5t42 -45.5t63 -16t59.5 15
t35.5 39h143q-14 -47 -47.5 -85t-81.5 -60.5t-108 -22.5zM327 -201q-37 0 -68.5 11.5t-50 35.5t-18.5 60q0 28 13.5 53t45 49.5t87.5 48.5l45 19l31 -65l-51 -25q-36 -18 -51 -34t-15 -33q0 -18 13.5 -28.5t36.5 -10.5q15 0 34 4t38 11v-82q-19 -6 -42 -10t-48 -4z" />
    <glyph glyph-name="Ecaron" unicode="&#x11a;" horiz-adv-x="585" 
d="M68 0v700h463v-113h-323v-177h293v-109h-293v-188h323v-113h-463zM300 744l-149 80v99l149 -86l148 86v-99z" />
    <glyph glyph-name="ecaron" unicode="&#x11b;" horiz-adv-x="605" 
d="M309 -12q-76 0 -134.5 32.5t-91.5 91t-33 135.5q0 78 32.5 138.5t91 95.5t136.5 35q75 0 131.5 -33t88 -89t31.5 -129q0 -10 -0.5 -22t-2.5 -26h-408v85h269q-3 46 -33.5 73.5t-75.5 27.5q-34 0 -62 -16t-44 -47t-16 -79v-29q0 -39 15 -68.5t42 -45.5t63 -16t59.5 15
t35.5 39h143q-14 -47 -47.5 -85t-81.5 -60.5t-108 -22.5zM307 563l-149 80v99l149 -86l148 86v-99z" />
    <glyph glyph-name="Gbreve" unicode="&#x11e;" horiz-adv-x="780" 
d="M376 -12q-100 0 -174 44.5t-115.5 125t-41.5 187.5q0 108 42.5 190.5t122 129.5t189.5 47q124 0 205.5 -59.5t105.5 -164.5h-156q-15 45 -54.5 70t-101.5 25q-68 0 -115 -29t-71 -82.5t-24 -127.5t24.5 -126t70 -79t107.5 -27q90 0 136.5 48.5t55.5 123.5h-169v104h310
v-388h-129l-11 86v0q-22 -31 -51 -53t-67.5 -33.5t-88.5 -11.5zM390 747q-48 0 -84 19t-55.5 54.5t-19.5 83.5v18h73q0 -34 19 -52.5t67 -18.5q49 0 68 18.5t19 52.5h74v-18q0 -49 -20 -84.5t-56 -54t-85 -18.5z" />
    <glyph glyph-name="gbreve" unicode="&#x11f;" horiz-adv-x="600" 
d="M284 -232q-72 0 -126 17.5t-83.5 53t-29.5 87.5q0 36 18.5 68t54.5 57t88 43l51 -70q-46 -14 -66.5 -36t-20.5 -48q0 -22 15 -37t40.5 -22.5t57.5 -7.5q31 0 54 7.5t36 22.5t13 35q0 27 -18 43t-74 20q-50 4 -89.5 11.5t-69.5 18t-51.5 23.5t-33.5 26v23l108 117l99 -31
l-129 -128l41 70q11 -6 21.5 -11.5t26.5 -10t41.5 -8t64.5 -7.5q66 -6 108 -24.5t62.5 -50.5t20.5 -78q0 -45 -24.5 -84.5t-75.5 -64t-130 -24.5zM285 148q-63 0 -109 24.5t-70.5 66t-24.5 93.5q0 51 24.5 92.5t70.5 66.5t109 25q64 0 109.5 -25t69.5 -66.5t24 -92.5
q0 -52 -24 -93.5t-69.5 -66t-109.5 -24.5zM285 254q37 0 60.5 19.5t23.5 57.5t-23.5 57.5t-60.5 19.5t-61 -19.5t-24 -57.5t24 -57.5t61 -19.5zM368 406l-22 98h208v-82zM285 563q-48 0 -84 19t-55.5 54t-19.5 84v17h73q0 -33 19 -52t67 -19q49 0 68 19t19 52h74v-17
q0 -49 -20 -84.5t-56 -54t-85 -18.5z" />
    <glyph glyph-name="Gdotaccent" unicode="&#x120;" horiz-adv-x="780" 
d="M376 -12q-100 0 -174 44.5t-115.5 125t-41.5 187.5q0 108 42.5 190.5t122 129.5t189.5 47q124 0 205.5 -59.5t105.5 -164.5h-156q-15 45 -54.5 70t-101.5 25q-68 0 -115 -29t-71 -82.5t-24 -127.5t24.5 -126t70 -79t107.5 -27q90 0 136.5 48.5t55.5 123.5h-169v104h310
v-388h-129l-11 86v0q-22 -31 -51 -53t-67.5 -33.5t-88.5 -11.5zM390 763q-27 0 -46 19t-19 46q0 28 19 47t46 19q28 0 46.5 -19t18.5 -47q0 -27 -18.5 -46t-46.5 -19z" />
    <glyph glyph-name="gdotaccent" unicode="&#x121;" horiz-adv-x="600" 
d="M284 -232q-72 0 -126 17.5t-83.5 53t-29.5 87.5q0 36 18.5 68t54.5 57t88 43l51 -70q-46 -14 -66.5 -36t-20.5 -48q0 -22 15 -37t40.5 -22.5t57.5 -7.5q31 0 54 7.5t36 22.5t13 35q0 27 -18 43t-74 20q-50 4 -89.5 11.5t-69.5 18t-51.5 23.5t-33.5 26v23l108 117l99 -31
l-129 -128l41 70q11 -6 21.5 -11.5t26.5 -10t41.5 -8t64.5 -7.5q66 -6 108 -24.5t62.5 -50.5t20.5 -78q0 -45 -24.5 -84.5t-75.5 -64t-130 -24.5zM285 148q-63 0 -109 24.5t-70.5 66t-24.5 93.5q0 51 24.5 92.5t70.5 66.5t109 25q64 0 109.5 -25t69.5 -66.5t24 -92.5
q0 -52 -24 -93.5t-69.5 -66t-109.5 -24.5zM285 254q37 0 60.5 19.5t23.5 57.5t-23.5 57.5t-60.5 19.5t-61 -19.5t-24 -57.5t24 -57.5t61 -19.5zM368 406l-22 98h208v-82zM285 571q-27 0 -46 18.5t-19 45.5q0 28 19 47t46 19q28 0 46.5 -19t18.5 -47q0 -27 -18.5 -45.5
t-46.5 -18.5z" />
    <glyph glyph-name="uni0122" unicode="&#x122;" horiz-adv-x="780" 
d="M376 -12q-100 0 -174 44.5t-115.5 125t-41.5 187.5q0 108 42.5 190.5t122 129.5t189.5 47q124 0 205.5 -59.5t105.5 -164.5h-156q-15 45 -54.5 70t-101.5 25q-68 0 -115 -29t-71 -82.5t-24 -127.5t24.5 -126t70 -79t107.5 -27q90 0 136.5 48.5t55.5 123.5h-169v104h310
v-388h-129l-11 86v0q-22 -31 -51 -53t-67.5 -33.5t-88.5 -11.5zM331 -284v56q26 0 38 15.5t12 47.5v15h-57v106h115q9 -27 12.5 -53t3.5 -49q0 -64 -31 -101t-93 -37z" />
    <glyph glyph-name="uni0123" unicode="&#x123;" horiz-adv-x="600" 
d="M284 -232q-72 0 -126 17.5t-83.5 53t-29.5 87.5q0 36 18.5 68t54.5 57t88 43l51 -70q-46 -14 -66.5 -36t-20.5 -48q0 -22 15 -37t40.5 -22.5t57.5 -7.5q31 0 54 7.5t36 22.5t13 35q0 27 -18 43t-74 20q-50 4 -89.5 11.5t-69.5 18t-51.5 23.5t-33.5 26v23l108 117l99 -31
l-129 -128l41 70q11 -6 21.5 -11.5t26.5 -10t41.5 -8t64.5 -7.5q66 -6 108 -24.5t62.5 -50.5t20.5 -78q0 -45 -24.5 -84.5t-75.5 -64t-130 -24.5zM285 148q-63 0 -109 24.5t-70.5 66t-24.5 93.5q0 51 24.5 92.5t70.5 66.5t109 25q64 0 109.5 -25t69.5 -66.5t24 -92.5
q0 -52 -24 -93.5t-69.5 -66t-109.5 -24.5zM285 254q37 0 60.5 19.5t23.5 57.5t-23.5 57.5t-60.5 19.5t-61 -19.5t-24 -57.5t24 -57.5t61 -19.5zM368 406l-22 98h208v-82zM346 785v-56q-23 0 -35 -9t-12 -28v-18h47v-108h-107q-6 29 -9.5 52t-3.5 47q0 57 30 88.5t90 31.5z
" />
    <glyph glyph-name="Hbar" unicode="&#x126;" horiz-adv-x="775" 
d="M27 493v111h721v-111h-721zM538 0v700h140v-700h-140zM97 0v700h140v-700h-140zM219 301v113h342v-113h-342z" />
    <glyph glyph-name="hbar" unicode="&#x127;" horiz-adv-x="650" 
d="M23 564v83h348v-83h-348zM94 0v720h140v-290v0q24 39 65.5 62.5t96.5 23.5q63 0 106 -26.5t65.5 -77t22.5 -124.5v-288h-139v275q0 59 -25 91t-77 32q-33 0 -59 -16t-41 -45t-15 -70v-267h-140z" />
    <glyph glyph-name="Itilde" unicode="&#x128;" horiz-adv-x="276" 
d="M68 0v700h140v-700h-140zM201 750q-29 0 -49.5 11.5t-38 23t-37.5 11.5q-17 0 -28.5 -11t-15.5 -34h-73q11 69 43 100t80 31q29 0 49 -11.5t38 -23t38 -11.5q17 0 28.5 11.5t14.5 33.5h74q-10 -68 -42.5 -99.5t-80.5 -31.5z" />
    <glyph glyph-name="itilde" unicode="&#x129;" horiz-adv-x="271" 
d="M66 0v504h140v-504h-140zM195 570q-29 0 -49.5 11t-38 22.5t-37.5 11.5q-17 0 -28.5 -11t-15.5 -34h-73q11 69 43 100t80 31q29 0 49 -11.5t38 -22.5t38 -11q17 0 28.5 11t14.5 34h74q-10 -69 -42.5 -100t-80.5 -31z" />
    <glyph glyph-name="Imacron" unicode="&#x12a;" horiz-adv-x="276" 
d="M68 0v700h140v-700h-140zM-52 779v99h381v-99h-381z" />
    <glyph glyph-name="imacron" unicode="&#x12b;" horiz-adv-x="271" 
d="M66 0v504h140v-504h-140zM-55 594v98h381v-98h-381z" />
    <glyph glyph-name="Ibreve" unicode="&#x12c;" horiz-adv-x="276" 
d="M68 0v700h140v-700h-140zM138 747q-48 0 -84 19t-55.5 54.5t-19.5 83.5v18h73q0 -34 19 -52.5t67 -18.5q49 0 68 18.5t19 52.5h74v-18q0 -49 -20 -84.5t-56 -54t-85 -18.5z" />
    <glyph glyph-name="ibreve" unicode="&#x12d;" horiz-adv-x="271" 
d="M66 0v504h140v-504h-140zM135 563q-48 0 -84 19t-55.5 54t-19.5 84v17h73q0 -33 19 -52t67 -19q49 0 68 19t19 52h74v-17q0 -49 -20 -84.5t-56 -54t-85 -18.5z" />
    <glyph glyph-name="Iogonek" unicode="&#x12e;" horiz-adv-x="276" 
d="M68 0v700h140v-700h-140zM124 -212q-37 0 -68.5 11.5t-50 35.5t-18.5 60q0 28 13.5 53t45 49.5t87.5 48.5l45 19l31 -65l-51 -25q-36 -18 -51 -34t-15 -33q0 -18 13.5 -28.5t36.5 -10.5q15 0 34 4t38 11v-82q-19 -6 -42 -10t-48 -4z" />
    <glyph glyph-name="iogonek" unicode="&#x12f;" horiz-adv-x="271" 
d="M66 0v504h140v-504h-140zM136 571q-27 0 -46 18.5t-19 45.5q0 28 19 47t46 19q28 0 46.5 -19t18.5 -47q0 -27 -18.5 -45.5t-46.5 -18.5zM121 -212q-37 0 -68.5 11.5t-50 35.5t-18.5 60q0 28 13.5 53t45 49.5t87.5 48.5l45 19l31 -65l-51 -25q-36 -18 -51 -34t-15 -33
q0 -18 13.5 -28.5t36.5 -10.5q15 0 34 4t38 11v-82q-19 -6 -42 -10t-48 -4z" />
    <glyph glyph-name="Idotaccent" unicode="&#x130;" horiz-adv-x="276" 
d="M68 0v700h140v-700h-140zM138 763q-27 0 -46 19t-19 46q0 28 19 47t46 19q28 0 46.5 -19t18.5 -47q0 -27 -18.5 -46t-46.5 -19z" />
    <glyph glyph-name="dotlessi" unicode="&#x131;" horiz-adv-x="271" 
d="M66 0v504h140v-504h-140z" />
    <glyph glyph-name="IJ" unicode="&#x132;" horiz-adv-x="786" 
d="M68 0v700h140v-700h-140zM500 -12q-69 0 -121 26.5t-80.5 77t-28.5 123.5h139q0 -32 10 -55t29 -35t48 -12t47 11.5t26.5 32.5t8.5 50v493h140v-493q0 -106 -59.5 -162.5t-158.5 -56.5z" />
    <glyph glyph-name="ij" unicode="&#x133;" horiz-adv-x="522" 
d="M69 0v504h140v-504h-140zM139 569q-38 0 -62 22.5t-24 55.5q0 34 24 56t62 22t62 -22t24 -56q0 -33 -24 -55.5t-62 -22.5zM216 -220v119h41q32 0 45 12.5t13 41.5v551h140v-550q0 -63 -22 -101.5t-61.5 -55.5t-93.5 -17h-62zM385 569q-38 0 -61.5 22.5t-23.5 55.5
q0 34 23.5 56t62.5 22q38 0 61.5 -22t23.5 -56q0 -33 -23.5 -55.5t-62.5 -22.5z" />
    <glyph glyph-name="uni0136" unicode="&#x136;" horiz-adv-x="660" 
d="M68 0v700h140v-273l250 273h172l-257 -277l265 -423h-171l-194 315l-65 -70v-245h-140zM271 -284v56q26 0 38 15.5t12 47.5v15h-57v106h115q9 -27 12.5 -53t3.5 -49q0 -64 -31 -101t-93 -37z" />
    <glyph glyph-name="uni0137" unicode="&#x137;" horiz-adv-x="586" 
d="M398 0l-213 276l190 228h166l-250 -287v111l281 -328h-174zM66 0v720h140v-720h-140zM234 -284v56q26 0 38 15.5t12 47.5v15h-57v106h115q9 -27 12.5 -53t3.5 -49q0 -64 -31 -101t-93 -37z" />
    <glyph glyph-name="Lacute" unicode="&#x139;" horiz-adv-x="562" 
d="M68 0v700h140v-591h306v-109h-446zM38 743l-13 92l221 125v0l16 -106z" />
    <glyph glyph-name="lacute" unicode="&#x13a;" horiz-adv-x="271" 
d="M66 0v720h140v-720h-140zM30 764l-13 92l221 125v0l16 -106z" />
    <glyph glyph-name="uni013B" unicode="&#x13b;" horiz-adv-x="562" 
d="M68 0v700h140v-591h306v-109h-446zM259 -284v56q26 0 38 15.5t12 47.5v15h-57v106h115q9 -27 12.5 -53t3.5 -49q0 -64 -31 -101t-93 -37z" />
    <glyph glyph-name="uni013C" unicode="&#x13c;" horiz-adv-x="271" 
d="M66 0v720h140v-720h-140zM77 -284v56q26 0 38 15.5t12 47.5v15h-57v106h115q9 -27 12.5 -53t3.5 -49q0 -64 -31 -101t-93 -37z" />
    <glyph glyph-name="Lcaron" unicode="&#x13d;" horiz-adv-x="562" 
d="M68 0v700h140v-591h306v-109h-446zM320 498v56q24 0 35.5 8.5t11.5 27.5v18h-47v109h107q7 -29 10 -52t3 -47q0 -58 -30.5 -89t-89.5 -31z" />
    <glyph glyph-name="lcaron" unicode="&#x13e;" horiz-adv-x="378" 
d="M66 0v720h140v-720h-140zM249 518v56q24 0 35.5 8.5t11.5 27.5v18h-47v109h107q7 -29 10 -52t3 -47q0 -58 -30.5 -89t-89.5 -31z" />
    <glyph glyph-name="Ldot" unicode="&#x13f;" horiz-adv-x="562" 
d="M68 0v700h140v-591h306v-109h-446zM384 269q-38 0 -62 23.5t-24 56.5q0 35 24 58t62 23t62 -23t24 -58q0 -33 -24 -56.5t-62 -23.5z" />
    <glyph glyph-name="ldot" unicode="&#x140;" horiz-adv-x="467" 
d="M66 0v720h140v-720h-140zM352 244q-38 0 -62 23.5t-24 56.5q0 35 24 58t62 23t62 -23t24 -58q0 -33 -24 -56.5t-62 -23.5z" />
    <glyph glyph-name="Lslash" unicode="&#x141;" horiz-adv-x="586" 
d="M23 264v117l307 99v-116zM92 0v700h140v-591h306v-109h-446z" />
    <glyph glyph-name="lslash" unicode="&#x142;" horiz-adv-x="299" 
d="M11 283v117l277 93v-118zM79 0v720h140v-720h-140z" />
    <glyph glyph-name="Nacute" unicode="&#x143;" horiz-adv-x="733" 
d="M68 0v700h140l317 -475v0v475h140v-700h-140l-317 474v0v-474h-140zM261 743l-13 92l221 125v0l16 -106z" />
    <glyph glyph-name="nacute" unicode="&#x144;" horiz-adv-x="621" 
d="M66 0v504h123l10 -82v0q23 42 65.5 68t102.5 26q62 0 105 -26.5t65.5 -76.5t22.5 -123v-290h-139v277q0 58 -24.5 89.5t-77.5 31.5q-32 0 -58 -15.5t-40.5 -44t-14.5 -69.5v-269h-140zM229 547l-13 92l221 125v0l16 -106z" />
    <glyph glyph-name="uni0145" unicode="&#x145;" horiz-adv-x="733" 
d="M68 0v700h140l317 -475v0v475h140v-700h-140l-317 474v0v-474h-140zM308 -284v56q26 0 38 15.5t12 47.5v15h-57v106h115q9 -27 12.5 -53t3.5 -49q0 -64 -31 -101t-93 -37z" />
    <glyph glyph-name="uni0146" unicode="&#x146;" horiz-adv-x="621" 
d="M66 0v504h123l10 -82v0q23 42 65.5 68t102.5 26q62 0 105 -26.5t65.5 -76.5t22.5 -123v-290h-139v277q0 58 -24.5 89.5t-77.5 31.5q-32 0 -58 -15.5t-40.5 -44t-14.5 -69.5v-269h-140zM254 -284v56q26 0 38 15.5t12 47.5v15h-57v106h115q9 -27 12.5 -53t3.5 -49
q0 -64 -31 -101t-93 -37z" />
    <glyph glyph-name="Ncaron" unicode="&#x147;" horiz-adv-x="733" 
d="M68 0v700h140l317 -475v0v475h140v-700h-140l-317 474v0v-474h-140zM367 744l-149 80v99l149 -86l148 86v-99z" />
    <glyph glyph-name="ncaron" unicode="&#x148;" horiz-adv-x="621" 
d="M66 0v504h123l10 -82v0q23 42 65.5 68t102.5 26q62 0 105 -26.5t65.5 -76.5t22.5 -123v-290h-139v277q0 58 -24.5 89.5t-77.5 31.5q-32 0 -58 -15.5t-40.5 -44t-14.5 -69.5v-269h-140zM335 563l-149 80v99l149 -86l148 86v-99z" />
    <glyph glyph-name="Eng" unicode="&#x14a;" horiz-adv-x="733" 
d="M68 0v700h140l317 -475v0v475h140v-746q0 -63 -22 -101.5t-61.5 -55.5t-93.5 -17h-62v119h41q32 0 45 12.5t13 41.5v47l-317 474v0v-474h-140z" />
    <glyph glyph-name="eng" unicode="&#x14b;" horiz-adv-x="611" 
d="M66 0v504h123l10 -82v0q23 42 65.5 68t102.5 26q62 0 105 -26.5t65.5 -76.5t22.5 -123v-336q0 -63 -21.5 -101.5t-61.5 -55.5t-93 -17h-62v119h40q32 0 45.5 12.5t13.5 41.5v324q0 58 -24.5 89.5t-77.5 31.5q-32 0 -58 -15.5t-40.5 -44t-14.5 -69.5v-269h-140z" />
    <glyph glyph-name="Omacron" unicode="&#x14c;" horiz-adv-x="785" 
d="M392 -12q-102 0 -180 46t-122.5 127.5t-44.5 188.5t44.5 188.5t122.5 127.5t180 46q103 0 181.5 -46t122 -127.5t43.5 -188.5t-43.5 -188.5t-122 -127.5t-181.5 -46zM392 114q63 0 109 29t71 81.5t25 125.5t-25 125.5t-71 81.5t-109 29q-62 0 -107.5 -29t-71 -81.5
t-25.5 -125.5t25.5 -125.5t71 -81.5t107.5 -29zM202 779v99h381v-99h-381z" />
    <glyph glyph-name="omacron" unicode="&#x14d;" horiz-adv-x="612" 
d="M305 -12q-72 0 -130 33.5t-91.5 93.5t-33.5 136q0 78 33.5 138t91.5 93.5t131 33.5t131 -33.5t91.5 -93t33.5 -137.5t-34 -137.5t-91.5 -93t-131.5 -33.5zM305 109q33 0 58 16t40.5 48t15.5 79t-15 79t-40.5 48t-57.5 16q-31 0 -57 -16t-41 -48t-15 -79t15 -79t40.5 -48
t56.5 -16zM115 594v98h381v-98h-381z" />
    <glyph glyph-name="Obreve" unicode="&#x14e;" horiz-adv-x="785" 
d="M392 -12q-102 0 -180 46t-122.5 127.5t-44.5 188.5t44.5 188.5t122.5 127.5t180 46q103 0 181.5 -46t122 -127.5t43.5 -188.5t-43.5 -188.5t-122 -127.5t-181.5 -46zM392 114q63 0 109 29t71 81.5t25 125.5t-25 125.5t-71 81.5t-109 29q-62 0 -107.5 -29t-71 -81.5
t-25.5 -125.5t25.5 -125.5t71 -81.5t107.5 -29zM393 747q-48 0 -84 19t-55.5 54.5t-19.5 83.5v18h73q0 -34 19 -52.5t67 -18.5q49 0 68 18.5t19 52.5h74v-18q0 -49 -20 -84.5t-56 -54t-85 -18.5z" />
    <glyph glyph-name="obreve" unicode="&#x14f;" horiz-adv-x="612" 
d="M305 -12q-72 0 -130 33.5t-91.5 93.5t-33.5 136q0 78 33.5 138t91.5 93.5t131 33.5t131 -33.5t91.5 -93t33.5 -137.5t-34 -137.5t-91.5 -93t-131.5 -33.5zM305 109q33 0 58 16t40.5 48t15.5 79t-15 79t-40.5 48t-57.5 16q-31 0 -57 -16t-41 -48t-15 -79t15 -79t40.5 -48
t56.5 -16zM306 563q-48 0 -84 19t-55.5 54t-19.5 84v17h73q0 -33 19 -52t67 -19q49 0 68 19t19 52h74v-17q0 -49 -20 -84.5t-56 -54t-85 -18.5z" />
    <glyph glyph-name="Ohungarumlaut" unicode="&#x150;" horiz-adv-x="785" 
d="M392 -12q-102 0 -180 46t-122.5 127.5t-44.5 188.5t44.5 188.5t122.5 127.5t180 46q103 0 181.5 -46t122 -127.5t43.5 -188.5t-43.5 -188.5t-122 -127.5t-181.5 -46zM392 114q63 0 109 29t71 81.5t25 125.5t-25 125.5t-71 81.5t-109 29q-62 0 -107.5 -29t-71 -81.5
t-25.5 -125.5t25.5 -125.5t71 -81.5t107.5 -29zM426 747l84 187h113l-109 -187h-88zM250 747l72 187h113l-97 -187h-88z" />
    <glyph glyph-name="ohungarumlaut" unicode="&#x151;" horiz-adv-x="612" 
d="M305 -12q-72 0 -130 33.5t-91.5 93.5t-33.5 136q0 78 33.5 138t91.5 93.5t131 33.5t131 -33.5t91.5 -93t33.5 -137.5t-34 -137.5t-91.5 -93t-131.5 -33.5zM305 109q33 0 58 16t40.5 48t15.5 79t-15 79t-40.5 48t-57.5 16q-31 0 -57 -16t-41 -48t-15 -79t15 -79t40.5 -48
t56.5 -16zM339 551l84 187h113l-109 -187h-88zM163 551l72 187h113l-97 -187h-88z" />
    <glyph glyph-name="OE" unicode="&#x152;" horiz-adv-x="1097" 
d="M386 -12q-73 0 -135.5 26.5t-108.5 74.5t-71.5 114.5t-25.5 146.5t25.5 146.5t71.5 114.5t108 74.5t135 26.5q63 0 122 -25t96 -71v84h440v-113h-300v-177h270v-109h-270v-188h300v-113h-440v82q-24 -30 -59.5 -51t-76 -32t-81.5 -11zM395 114q59 0 105.5 29t74 81.5
t27.5 125.5t-27.5 125.5t-74 81.5t-105.5 29q-58 0 -105 -29t-74.5 -81.5t-27.5 -125.5t27.5 -125.5t74.5 -81.5t105 -29z" />
    <glyph glyph-name="oe" unicode="&#x153;" horiz-adv-x="975" 
d="M305 -12q-72 0 -130 33.5t-91.5 93t-33.5 137.5q0 77 33.5 137t92 93.5t130.5 33.5q58 0 104.5 -22t77.5 -62q33 40 82 62t109 22q75 0 132 -33t88.5 -89t31.5 -129q0 -10 -0.5 -22t-2.5 -26h-369q3 -35 18.5 -61t41.5 -40t59 -14q39 0 64 18t37 46h141
q-13 -50 -47 -90.5t-83 -64t-111 -23.5q-60 0 -109.5 21.5t-82.5 60.5q-32 -39 -78 -60.5t-104 -21.5zM305 109q33 0 58 16t40.5 48t15.5 79t-15 79t-40.5 48t-57.5 16q-31 0 -57 -16t-41 -48t-15 -79t15 -79t40.5 -48t56.5 -16zM562 302h227q-3 46 -33.5 73.5t-75.5 27.5
q-29 0 -53.5 -11.5t-41 -33.5t-23.5 -56z" />
    <glyph glyph-name="Racute" unicode="&#x154;" horiz-adv-x="634" 
d="M68 0v700h265q85 0 140.5 -29t83 -77.5t27.5 -108.5q0 -56 -26.5 -105t-82.5 -78.5t-143 -29.5h-124v-272h-140zM430 0l-143 307h152l151 -307h-160zM208 374h117q59 0 87.5 29t28.5 77q0 47 -28 75t-89 28h-116v-209zM202 743l-13 92l221 125v0l16 -106z" />
    <glyph glyph-name="racute" unicode="&#x155;" horiz-adv-x="413" 
d="M66 0v504h124l13 -93v0q19 33 46 56t63 36t78 13v-148h-47q-30 0 -55.5 -7t-44 -22.5t-28 -42t-9.5 -66.5v-230h-140zM140 547l-13 92l221 125v0l16 -106z" />
    <glyph glyph-name="uni0156" unicode="&#x156;" horiz-adv-x="634" 
d="M68 0v700h265q85 0 140.5 -29t83 -77.5t27.5 -108.5q0 -56 -26.5 -105t-82.5 -78.5t-143 -29.5h-124v-272h-140zM430 0l-143 307h152l151 -307h-160zM208 374h117q59 0 87.5 29t28.5 77q0 47 -28 75t-89 28h-116v-209zM248 -284v56q26 0 38 15.5t12 47.5v15h-57v106h115
q9 -27 12.5 -53t3.5 -49q0 -64 -31 -101t-93 -37z" />
    <glyph glyph-name="uni0157" unicode="&#x157;" horiz-adv-x="413" 
d="M66 0v504h124l13 -93v0q19 33 46 56t63 36t78 13v-148h-47q-30 0 -55.5 -7t-44 -22.5t-28 -42t-9.5 -66.5v-230h-140zM75 -284v56q26 0 38 15.5t12 47.5v15h-57v106h115q9 -27 12.5 -53t3.5 -49q0 -64 -31 -101t-93 -37z" />
    <glyph glyph-name="Rcaron" unicode="&#x158;" horiz-adv-x="634" 
d="M68 0v700h265q85 0 140.5 -29t83 -77.5t27.5 -108.5q0 -56 -26.5 -105t-82.5 -78.5t-143 -29.5h-124v-272h-140zM430 0l-143 307h152l151 -307h-160zM208 374h117q59 0 87.5 29t28.5 77q0 47 -28 75t-89 28h-116v-209zM308 744l-149 80v99l149 -86l148 86v-99z" />
    <glyph glyph-name="rcaron" unicode="&#x159;" horiz-adv-x="413" 
d="M66 0v504h124l13 -93v0q19 33 46 56t63 36t78 13v-148h-47q-30 0 -55.5 -7t-44 -22.5t-28 -42t-9.5 -66.5v-230h-140zM246 563l-149 80v99l149 -86l148 86v-99z" />
    <glyph glyph-name="Sacute" unicode="&#x15a;" horiz-adv-x="606" 
d="M311 -12q-76 0 -135.5 26t-94.5 76t-36 121h148q1 -30 15.5 -54t40.5 -38t61 -14q31 0 53.5 10t35 28t12.5 44q0 28 -14.5 48t-39.5 34t-57.5 25.5t-69.5 23.5q-83 27 -126.5 72t-43.5 120q0 64 30.5 109t85 69t123.5 24q71 0 125 -24.5t85.5 -70.5t33.5 -109h-150
q-1 23 -13 42.5t-33 31.5t-50 12q-25 1 -45.5 -7.5t-32.5 -25t-12 -41.5t12 -41.5t33.5 -28.5t50.5 -22.5t63 -21.5q53 -18 97 -42.5t70.5 -63.5t26.5 -103q0 -56 -29 -103.5t-84 -76.5t-136 -29zM195 743l-13 92l221 125v0l16 -106z" />
    <glyph glyph-name="sacute" unicode="&#x15b;" horiz-adv-x="535" 
d="M273 -12q-70 0 -121 22.5t-80 61t-34 87.5h140q4 -18 15.5 -32.5t31 -23.5t46.5 -9q26 0 42.5 7.5t25 19.5t8.5 26q0 20 -12 31t-35 18t-55 13q-36 8 -70.5 18t-62 26.5t-43.5 41.5t-16 62q0 45 24.5 81t71 57t111.5 21q92 0 145.5 -41.5t63.5 -112.5h-132q-5 22 -25 34
t-53 12q-34 0 -52.5 -12t-18.5 -32q0 -13 12 -23.5t34.5 -18t55.5 -14.5q59 -12 103 -27.5t69 -44t25 -82.5q1 -48 -25.5 -86t-74.5 -59t-114 -21zM162 547l-13 92l221 125v0l16 -106z" />
    <glyph glyph-name="Scedilla" unicode="&#x15e;" horiz-adv-x="606" 
d="M311 -12q-76 0 -135.5 26t-94.5 76t-36 121h148q1 -30 15.5 -54t40.5 -38t61 -14q31 0 53.5 10t35 28t12.5 44q0 28 -14.5 48t-39.5 34t-57.5 25.5t-69.5 23.5q-83 27 -126.5 72t-43.5 120q0 64 30.5 109t85 69t123.5 24q71 0 125 -24.5t85.5 -70.5t33.5 -109h-150
q-1 23 -13 42.5t-33 31.5t-50 12q-25 1 -45.5 -7.5t-32.5 -25t-12 -41.5t12 -41.5t33.5 -28.5t50.5 -22.5t63 -21.5q53 -18 97 -42.5t70.5 -63.5t26.5 -103q0 -56 -29 -103.5t-84 -76.5t-136 -29zM218 -267v79h117q25 0 37.5 8t12.5 26q0 17 -12.5 24.5t-37.5 7.5h-63v126
h86v-53q33 0 62.5 -11t48.5 -34.5t19 -62.5q0 -37 -19 -61.5t-49 -36.5t-65 -12h-137z" />
    <glyph glyph-name="scedilla" unicode="&#x15f;" horiz-adv-x="535" 
d="M273 -12q-70 0 -121 22.5t-80 61t-34 87.5h140q4 -18 15.5 -32.5t31 -23.5t46.5 -9q26 0 42.5 7.5t25 19.5t8.5 26q0 20 -12 31t-35 18t-55 13q-36 8 -70.5 18t-62 26.5t-43.5 41.5t-16 62q0 45 24.5 81t71 57t111.5 21q92 0 145.5 -41.5t63.5 -112.5h-132q-5 22 -25 34
t-53 12q-34 0 -52.5 -12t-18.5 -32q0 -13 12 -23.5t34.5 -18t55.5 -14.5q59 -12 103 -27.5t69 -44t25 -82.5q1 -48 -25.5 -86t-74.5 -59t-114 -21zM177 -267v79h117q25 0 37.5 8t12.5 26q0 17 -12.5 24.5t-37.5 7.5h-63v126h86v-53q33 0 62.5 -11t48.5 -34.5t19 -62.5
q0 -37 -19 -61.5t-49 -36.5t-65 -12h-137z" />
    <glyph glyph-name="Scaron" unicode="&#x160;" horiz-adv-x="606" 
d="M311 -12q-76 0 -135.5 26t-94.5 76t-36 121h148q1 -30 15.5 -54t40.5 -38t61 -14q31 0 53.5 10t35 28t12.5 44q0 28 -14.5 48t-39.5 34t-57.5 25.5t-69.5 23.5q-83 27 -126.5 72t-43.5 120q0 64 30.5 109t85 69t123.5 24q71 0 125 -24.5t85.5 -70.5t33.5 -109h-150
q-1 23 -13 42.5t-33 31.5t-50 12q-25 1 -45.5 -7.5t-32.5 -25t-12 -41.5t12 -41.5t33.5 -28.5t50.5 -22.5t63 -21.5q53 -18 97 -42.5t70.5 -63.5t26.5 -103q0 -56 -29 -103.5t-84 -76.5t-136 -29zM301 744l-149 80v99l149 -86l148 86v-99z" />
    <glyph glyph-name="scaron" unicode="&#x161;" horiz-adv-x="535" 
d="M273 -12q-70 0 -121 22.5t-80 61t-34 87.5h140q4 -18 15.5 -32.5t31 -23.5t46.5 -9q26 0 42.5 7.5t25 19.5t8.5 26q0 20 -12 31t-35 18t-55 13q-36 8 -70.5 18t-62 26.5t-43.5 41.5t-16 62q0 45 24.5 81t71 57t111.5 21q92 0 145.5 -41.5t63.5 -112.5h-132q-5 22 -25 34
t-53 12q-34 0 -52.5 -12t-18.5 -32q0 -13 12 -23.5t34.5 -18t55.5 -14.5q59 -12 103 -27.5t69 -44t25 -82.5q1 -48 -25.5 -86t-74.5 -59t-114 -21zM268 563l-149 80v99l149 -86l148 86v-99z" />
    <glyph glyph-name="uni0162" unicode="&#x162;" horiz-adv-x="601" 
d="M231 0v587h-204v113h547v-113h-204v-587h-139zM209 -267v79h117q25 0 37.5 8t12.5 26q0 17 -12.5 24.5t-37.5 7.5h-63v126h86v-53q33 0 62.5 -11t48.5 -34.5t19 -62.5q0 -37 -19 -61.5t-48.5 -36.5t-64.5 -12h-138z" />
    <glyph glyph-name="uni0163" unicode="&#x163;" horiz-adv-x="437" 
d="M295 0q-53 0 -93.5 17t-62.5 56t-22 106v208h-87v117h87l15 139h124v-139h132v-117h-131v-209q0 -33 14.5 -46t49.5 -13h66v-119h-92zM196 -267v79h117q25 0 37.5 8t12.5 26q0 17 -12.5 24.5t-37.5 7.5h-63v126h86v-53q33 0 62.5 -11t48.5 -34.5t19 -62.5
q0 -37 -19 -61.5t-49 -36.5t-65 -12h-137z" />
    <glyph glyph-name="Tcaron" unicode="&#x164;" horiz-adv-x="601" 
d="M231 0v587h-204v113h547v-113h-204v-587h-139zM300 744l-148 80v99l148 -86l149 86v-99z" />
    <glyph glyph-name="tcaron" unicode="&#x165;" horiz-adv-x="437" 
d="M295 0q-53 0 -93.5 17t-62.5 56t-22 106v208h-87v117h87l15 139h124v-139h132v-117h-131v-209q0 -33 14.5 -46t49.5 -13h66v-119h-92zM317 546v56q24 0 35.5 8.5t11.5 27.5v18h-47v109h107q7 -29 10 -52t3 -47q0 -58 -30.5 -89t-89.5 -31z" />
    <glyph glyph-name="Utilde" unicode="&#x168;" horiz-adv-x="687" 
d="M341 -12q-78 0 -141 31t-100.5 93.5t-37.5 158.5v429h140v-430q0 -51 17 -85t48.5 -51.5t76.5 -17.5t76.5 17.5t48.5 51.5t17 85v430h140v-429q0 -96 -38.5 -158.5t-103.5 -93.5t-143 -31zM407 750q-29 0 -49.5 11.5t-38 23t-37.5 11.5q-17 0 -28.5 -11t-15.5 -34h-73
q11 69 43 100t80 31q29 0 49 -11.5t38 -23t38 -11.5q17 0 28.5 11.5t14.5 33.5h74q-10 -68 -42.5 -99.5t-80.5 -31.5z" />
    <glyph glyph-name="utilde" unicode="&#x169;" horiz-adv-x="621" 
d="M254 -12q-61 0 -104.5 25.5t-66.5 75.5t-23 123v292h140v-278q0 -59 24.5 -89.5t76.5 -30.5q33 0 59 15t40.5 43.5t14.5 70.5v269h140v-504h-123l-11 81v0q-22 -42 -64.5 -67.5t-102.5 -25.5zM366 570q-29 0 -49.5 11t-38 22.5t-37.5 11.5q-17 0 -28.5 -11t-15.5 -34h-73
q11 69 43 100t80 31q29 0 49 -11.5t38 -22.5t38 -11q17 0 28.5 11t14.5 34h74q-10 -69 -42.5 -100t-80.5 -31z" />
    <glyph glyph-name="Umacron" unicode="&#x16a;" horiz-adv-x="687" 
d="M341 -12q-78 0 -141 31t-100.5 93.5t-37.5 158.5v429h140v-430q0 -51 17 -85t48.5 -51.5t76.5 -17.5t76.5 17.5t48.5 51.5t17 85v430h140v-429q0 -96 -38.5 -158.5t-103.5 -93.5t-143 -31zM153 779v99h381v-99h-381z" />
    <glyph glyph-name="umacron" unicode="&#x16b;" horiz-adv-x="621" 
d="M254 -12q-61 0 -104.5 25.5t-66.5 75.5t-23 123v292h140v-278q0 -59 24.5 -89.5t76.5 -30.5q33 0 59 15t40.5 43.5t14.5 70.5v269h140v-504h-123l-11 81v0q-22 -42 -64.5 -67.5t-102.5 -25.5zM116 594v98h381v-98h-381z" />
    <glyph glyph-name="Ubreve" unicode="&#x16c;" horiz-adv-x="687" 
d="M341 -12q-78 0 -141 31t-100.5 93.5t-37.5 158.5v429h140v-430q0 -51 17 -85t48.5 -51.5t76.5 -17.5t76.5 17.5t48.5 51.5t17 85v430h140v-429q0 -96 -38.5 -158.5t-103.5 -93.5t-143 -31zM343 747q-48 0 -84 19t-55.5 54.5t-19.5 83.5v18h73q0 -34 19 -52.5t67 -18.5
q49 0 68 18.5t19 52.5h74v-18q0 -49 -20 -84.5t-56 -54t-85 -18.5z" />
    <glyph glyph-name="ubreve" unicode="&#x16d;" horiz-adv-x="621" 
d="M254 -12q-61 0 -104.5 25.5t-66.5 75.5t-23 123v292h140v-278q0 -59 24.5 -89.5t76.5 -30.5q33 0 59 15t40.5 43.5t14.5 70.5v269h140v-504h-123l-11 81v0q-22 -42 -64.5 -67.5t-102.5 -25.5zM306 563q-48 0 -84 19t-55.5 54t-19.5 84v17h73q0 -33 19 -52t67 -19
q49 0 68 19t19 52h74v-17q0 -49 -20 -84.5t-56 -54t-85 -18.5z" />
    <glyph glyph-name="Uring" unicode="&#x16e;" horiz-adv-x="687" 
d="M341 -12q-78 0 -141 31t-100.5 93.5t-37.5 158.5v429h140v-430q0 -51 17 -85t48.5 -51.5t76.5 -17.5t76.5 17.5t48.5 51.5t17 85v430h140v-429q0 -96 -38.5 -158.5t-103.5 -93.5t-143 -31zM344 748q-48 0 -82 30.5t-34 84.5q0 53 34 83.5t82 30.5t82.5 -30.5t34.5 -83.5
q0 -54 -34.5 -84.5t-82.5 -30.5zM344 810q21 0 36 14.5t15 38.5t-14.5 38t-36.5 14q-20 0 -35.5 -13.5t-15.5 -38.5q0 -24 15.5 -38.5t35.5 -14.5z" />
    <glyph glyph-name="uring" unicode="&#x16f;" horiz-adv-x="621" 
d="M254 -12q-61 0 -104.5 25.5t-66.5 75.5t-23 123v292h140v-278q0 -59 24.5 -89.5t76.5 -30.5q33 0 59 15t40.5 43.5t14.5 70.5v269h140v-504h-123l-11 81v0q-22 -42 -64.5 -67.5t-102.5 -25.5zM306 570q-48 0 -82 30.5t-34 83.5t34 84t82 31t82.5 -31t34.5 -84
t-34.5 -83.5t-82.5 -30.5zM306 631q21 0 36 14.5t15 38.5q0 25 -14.5 39t-36.5 14q-20 0 -35.5 -14t-15.5 -39q0 -24 15.5 -38.5t35.5 -14.5z" />
    <glyph glyph-name="Uhungarumlaut" unicode="&#x170;" horiz-adv-x="687" 
d="M341 -12q-78 0 -141 31t-100.5 93.5t-37.5 158.5v429h140v-430q0 -51 17 -85t48.5 -51.5t76.5 -17.5t76.5 17.5t48.5 51.5t17 85v430h140v-429q0 -96 -38.5 -158.5t-103.5 -93.5t-143 -31zM376 747l84 187h113l-109 -187h-88zM200 747l72 187h113l-97 -187h-88z" />
    <glyph glyph-name="uhungarumlaut" unicode="&#x171;" horiz-adv-x="621" 
d="M254 -12q-61 0 -104.5 25.5t-66.5 75.5t-23 123v292h140v-278q0 -59 24.5 -89.5t76.5 -30.5q33 0 59 15t40.5 43.5t14.5 70.5v269h140v-504h-123l-11 81v0q-22 -42 -64.5 -67.5t-102.5 -25.5zM339 551l84 187h113l-109 -187h-88zM163 551l72 187h113l-97 -187h-88z" />
    <glyph glyph-name="Uogonek" unicode="&#x172;" horiz-adv-x="687" 
d="M341 -12q-78 0 -141 31t-100.5 93.5t-37.5 158.5v429h140v-430q0 -51 17 -85t48.5 -51.5t76.5 -17.5t76.5 17.5t48.5 51.5t17 85v430h140v-429q0 -96 -38.5 -158.5t-103.5 -93.5t-143 -31zM339 -211q-37 0 -68.5 11.5t-50 35.5t-18.5 60q0 28 13.5 53t45 49.5t87.5 48.5
l45 19l31 -65l-51 -25q-36 -18 -51 -34t-15 -33q0 -18 13.5 -28.5t36.5 -10.5q15 0 34 4t38 11v-82q-19 -6 -42 -10t-48 -4z" />
    <glyph glyph-name="uogonek" unicode="&#x173;" horiz-adv-x="621" 
d="M254 -12q-61 0 -104.5 25.5t-66.5 75.5t-23 123v292h140v-278q0 -59 24.5 -89.5t76.5 -30.5q33 0 59 15t40.5 43.5t14.5 70.5v269h140v-504h-123l-11 81v0q-22 -42 -64.5 -67.5t-102.5 -25.5zM471 -212q-37 0 -68.5 11.5t-50 35.5t-18.5 60q0 28 13.5 53t45 49.5
t87.5 48.5l45 19l31 -65l-51 -25q-36 -18 -51 -34t-15 -33q0 -18 13.5 -28.5t36.5 -10.5q15 0 34 4t38 11v-82q-19 -6 -42 -10t-48 -4z" />
    <glyph glyph-name="Wcircumflex" unicode="&#x174;" horiz-adv-x="1023" 
d="M209 0l-183 700h150l118 -542v0l142 542h154l137 -542v0l120 542h151l-188 -700h-167l-132 503v0l-136 -503h-166zM363 744v100l149 79l148 -79v-100l-148 83z" />
    <glyph glyph-name="wcircumflex" unicode="&#x175;" horiz-adv-x="826" 
d="M164 0l-148 504h138l97 -407l-26 1l110 406h155l111 -406l-26 -1l96 407h139l-148 -504h-146l-118 418h29l-118 -418h-145zM264 550v99l149 80l148 -80v-99l-148 82z" />
    <glyph glyph-name="Ycircumflex" unicode="&#x176;" horiz-adv-x="640" 
d="M250 0v244l-237 456h159l163 -343h-27l162 343h157l-237 -456v-244h-140zM172 744v100l149 79l148 -79v-100l-148 83z" />
    <glyph glyph-name="ycircumflex" unicode="&#x177;" horiz-adv-x="609" 
d="M131 -220l121 276h-30l-202 448h152l143 -319v0l125 319h149l-310 -724h-148zM156 550v99l149 80l148 -80v-99l-148 82z" />
    <glyph glyph-name="Ydieresis" unicode="&#x178;" horiz-adv-x="640" 
d="M250 0v244l-237 456h159l163 -343h-27l162 343h157l-237 -456v-244h-140zM228 767q-28 0 -46.5 18.5t-18.5 45.5q0 28 18.5 47t46.5 19t46.5 -19t18.5 -47q0 -27 -18.5 -45.5t-46.5 -18.5zM414 767q-28 0 -46.5 18.5t-18.5 45.5q0 28 18.5 47t46.5 19q27 0 46 -19t19 -47
q0 -27 -19 -45.5t-46 -18.5z" />
    <glyph glyph-name="Zacute" unicode="&#x179;" horiz-adv-x="581" 
d="M49 0v107l320 477h-318v116h479v-107l-321 -477h323v-116h-483zM185 743l-13 92l221 125v0l16 -106z" />
    <glyph glyph-name="zacute" unicode="&#x17a;" horiz-adv-x="493" 
d="M33 0v112l251 276h-248v116h409v-113l-254 -275h259v-116h-417zM140 547l-13 92l221 125v0l16 -106z" />
    <glyph glyph-name="Zdotaccent" unicode="&#x17b;" horiz-adv-x="581" 
d="M49 0v107l320 477h-318v116h479v-107l-321 -477h323v-116h-483zM290 763q-27 0 -46 19t-19 46q0 28 19 47t46 19q28 0 46.5 -19t18.5 -47q0 -27 -18.5 -46t-46.5 -19z" />
    <glyph glyph-name="zdotaccent" unicode="&#x17c;" horiz-adv-x="493" 
d="M33 0v112l251 276h-248v116h409v-113l-254 -275h259v-116h-417zM245 571q-27 0 -46 18.5t-19 45.5q0 28 19 47t46 19q28 0 46.5 -19t18.5 -47q0 -27 -18.5 -45.5t-46.5 -18.5z" />
    <glyph glyph-name="Zcaron" unicode="&#x17d;" horiz-adv-x="581" 
d="M49 0v107l320 477h-318v116h479v-107l-321 -477h323v-116h-483zM291 744l-149 80v99l149 -86l148 86v-99z" />
    <glyph glyph-name="zcaron" unicode="&#x17e;" horiz-adv-x="493" 
d="M33 0v112l251 276h-248v116h409v-113l-254 -275h259v-116h-417zM246 563l-149 80v99l149 -86l148 86v-99z" />
    <glyph glyph-name="uni018F" unicode="&#x18f;" horiz-adv-x="765" 
d="M379 -12q-75 0 -137 23.5t-106 68.5t-67.5 108t-23.5 142q0 13 1.5 28.5t2.5 31.5h545v-101h-395q0 -52 23 -90.5t63.5 -59t92.5 -20.5q39 0 73 12.5t60 38t40.5 62.5t14.5 85v57q0 66 -24 112t-65.5 71t-95.5 25q-60 0 -103 -27t-61 -76h-161q20 69 65 121.5t111 82
t148 29.5q101 0 177.5 -45t119 -126.5t42.5 -189.5q0 -109 -42 -190.5t-118.5 -127t-179.5 -45.5z" />
    <glyph glyph-name="florin" unicode="&#x192;" horiz-adv-x="335" 
d="M-56 -239l11 118h25q22 0 33 11.5t14 37.5l70 657q10 101 70.5 146.5t176.5 45.5l-12 -119q-46 0 -69 -16t-26 -57l-70 -657q-6 -63 -32 -100t-68 -52t-97 -15h-26zM21 438l12 116h295l-11 -116h-296z" />
    <glyph glyph-name="AEacute" unicode="&#x1fc;" horiz-adv-x="948" 
d="M22 0l373 700h500v-111h-266v-179h236v-107h-236v-192h266v-111h-406v594v0l-315 -594h-152zM165 133l59 107h331v-107h-390zM466 743l-13 92l221 125v0l16 -106z" />
    <glyph glyph-name="aeacute" unicode="&#x1fd;" horiz-adv-x="947" 
d="M247 -12q-64 0 -108 20.5t-65.5 55.5t-21.5 77q0 46 22.5 81.5t69.5 55.5t119 20h130q0 35 -9 58t-29.5 34.5t-53.5 11.5q-34 0 -59.5 -15.5t-31.5 -46.5h-136q5 53 35.5 92.5t80 61.5t111.5 22q59 0 104.5 -17.5t74.5 -49.5q32 31 76.5 49t96.5 18q74 0 130.5 -33
t88 -89.5t31.5 -129.5q0 -10 -0.5 -22t-2.5 -26h-364q3 -35 18 -60.5t40.5 -39.5t56.5 -14q40 0 64 18t36 46h141q-13 -50 -46.5 -90.5t-82.5 -64t-110 -23.5q-64 0 -117 26t-87 71q-22 -29 -51 -51t-66.5 -34t-84.5 -12zM269 96q32 0 56 14.5t40 40.5t22 58v6h-105
q-29 0 -47 -8t-27 -21t-9 -31t9 -31.5t25 -20.5t36 -7zM538 300h223q-3 48 -33 75.5t-74 27.5q-28 0 -52 -11.5t-41 -34t-23 -57.5zM368 547l-13 92l221 125v0l16 -106z" />
    <glyph glyph-name="uni0218" unicode="&#x218;" horiz-adv-x="606" 
d="M311 -12q-76 0 -135.5 26t-94.5 76t-36 121h148q1 -30 15.5 -54t40.5 -38t61 -14q31 0 53.5 10t35 28t12.5 44q0 28 -14.5 48t-39.5 34t-57.5 25.5t-69.5 23.5q-83 27 -126.5 72t-43.5 120q0 64 30.5 109t85 69t123.5 24q71 0 125 -24.5t85.5 -70.5t33.5 -109h-150
q-1 23 -13 42.5t-33 31.5t-50 12q-25 1 -45.5 -7.5t-32.5 -25t-12 -41.5t12 -41.5t33.5 -28.5t50.5 -22.5t63 -21.5q53 -18 97 -42.5t70.5 -63.5t26.5 -103q0 -56 -29 -103.5t-84 -76.5t-136 -29zM250 -284v56q26 0 38 15.5t12 47.5v15h-57v106h115q9 -27 12.5 -53t3.5 -49
q0 -64 -31 -101t-93 -37z" />
    <glyph glyph-name="uni0219" unicode="&#x219;" horiz-adv-x="535" 
d="M273 -12q-70 0 -121 22.5t-80 61t-34 87.5h140q4 -18 15.5 -32.5t31 -23.5t46.5 -9q26 0 42.5 7.5t25 19.5t8.5 26q0 20 -12 31t-35 18t-55 13q-36 8 -70.5 18t-62 26.5t-43.5 41.5t-16 62q0 45 24.5 81t71 57t111.5 21q92 0 145.5 -41.5t63.5 -112.5h-132q-5 22 -25 34
t-53 12q-34 0 -52.5 -12t-18.5 -32q0 -13 12 -23.5t34.5 -18t55.5 -14.5q59 -12 103 -27.5t69 -44t25 -82.5q1 -48 -25.5 -86t-74.5 -59t-114 -21zM209 -284v56q26 0 38 15.5t12 47.5v15h-57v106h115q9 -27 12.5 -53t3.5 -49q0 -64 -31 -101t-93 -37z" />
    <glyph glyph-name="uni021A" unicode="&#x21a;" horiz-adv-x="601" 
d="M231 0v587h-204v113h547v-113h-204v-587h-139zM241 -284v56q26 0 38 15.5t12 47.5v15h-57v106h115q9 -27 12.5 -53t3.5 -49q0 -64 -31 -101t-93 -37z" />
    <glyph glyph-name="uni021B" unicode="&#x21b;" horiz-adv-x="437" 
d="M295 0q-53 0 -93.5 17t-62.5 56t-22 106v208h-87v117h87l15 139h124v-139h132v-117h-131v-209q0 -33 14.5 -46t49.5 -13h66v-119h-92zM228 -284v56q26 0 38 15.5t12 47.5v15h-57v106h115q9 -27 12.5 -53t3.5 -49q0 -64 -31 -101t-93 -37z" />
    <glyph glyph-name="uni0237" unicode="&#x237;" horiz-adv-x="260" 
d="M-29 -220v119h41q32 0 45 12.5t13 41.5v551h140v-550q0 -63 -22 -101.5t-61.5 -55.5t-93.5 -17h-62z" />
    <glyph glyph-name="uni0259" unicode="&#x259;" horiz-adv-x="605" 
d="M296 516q77 0 135 -33t91 -91t33 -135q0 -78 -32.5 -139t-90.5 -95.5t-136 -34.5q-75 0 -131.5 32.5t-88 89.5t-31.5 128q0 11 0.5 23t1.5 25h408v-84h-269q3 -46 33.5 -73.5t75.5 -27.5q35 0 62.5 15.5t43.5 47t16 78.5v30q0 39 -15 68t-42 45t-63 16t-59 -14.5
t-36 -39.5h-143q15 48 48 86t81.5 60.5t107.5 22.5z" />
    <glyph glyph-name="circumflex" unicode="&#x2c6;" horiz-adv-x="319" 
d="M11 540v100l148 79l149 -79v-100l-149 83z" />
    <glyph glyph-name="caron" unicode="&#x2c7;" horiz-adv-x="319" 
d="M159 540l-148 80v99l148 -86l149 86v-99z" />
    <glyph glyph-name="breve" unicode="&#x2d8;" horiz-adv-x="341" 
d="M170 543q-49 0 -84.5 19t-55 54.5t-19.5 83.5v18h72q0 -34 19 -52.5t68 -18.5t68 18.5t19 52.5h73v-18q0 -49 -20 -84.5t-55.5 -54t-84.5 -18.5z" />
    <glyph glyph-name="dotaccent" unicode="&#x2d9;" horiz-adv-x="154" 
d="M76 559q-27 0 -45.5 19t-18.5 46q0 28 18.5 47t45.5 19q28 0 47 -19t19 -47q0 -27 -19 -46t-47 -19z" />
    <glyph glyph-name="ring" unicode="&#x2da;" horiz-adv-x="251" 
d="M126 544q-48 0 -82 30.5t-34 84.5q0 53 34 83.5t82 30.5t82 -30.5t34 -83.5q0 -54 -34 -84.5t-82 -30.5zM126 606q21 0 36 14.5t15 38.5t-15 38t-36 14t-36 -13.5t-15 -38.5q0 -24 15 -38.5t36 -14.5z" />
    <glyph glyph-name="ogonek" unicode="&#x2db;" horiz-adv-x="227" 
d="M137 -212q-37 0 -68.5 11.5t-50 35.5t-18.5 60q0 28 13.5 53t45 49.5t87.5 48.5l45 19l31 -65l-51 -25q-36 -18 -51 -34t-15 -33q0 -18 13.5 -28.5t36.5 -10.5q15 0 34 4t38 11v-82q-19 -6 -42 -10t-48 -4z" />
    <glyph glyph-name="tilde" unicode="&#x2dc;" horiz-adv-x="381" 
d="M250 546q-29 0 -49.5 11.5t-38 23t-37.5 11.5q-17 0 -28.5 -11t-15.5 -34h-73q11 69 43.5 100t79.5 31q29 0 49 -11.5t38 -23t38 -11.5q17 0 28.5 11.5t14.5 33.5h74q-10 -68 -42.5 -99.5t-80.5 -31.5z" />
    <glyph glyph-name="hungarumlaut" unicode="&#x2dd;" horiz-adv-x="398" 
d="M187 543l84 187h113l-110 -187h-87zM11 543l72 187h112l-96 -187h-88z" />
    <glyph glyph-name="gravecomb" unicode="&#x300;" 
d="M224 547l-224 111l16 106v0l221 -125z" />
    <glyph glyph-name="acutecomb" unicode="&#x301;" 
d="M13 547l-13 92l221 125v0l16 -106z" />
    <glyph glyph-name="uni0302" unicode="&#x302;" 
d="M0 550v99l149 80l148 -80v-99l-148 82z" />
    <glyph glyph-name="tildecomb" unicode="&#x303;" 
d="M242 570q-29 0 -49.5 11t-38 22.5t-37.5 11.5q-17 0 -28.5 -11t-15.5 -34h-73q11 69 43 100t80 31q29 0 49 -11.5t38 -22.5t38 -11q17 0 28.5 11t14.5 34h74q-10 -69 -42.5 -100t-80.5 -31z" />
    <glyph glyph-name="uni0304" unicode="&#x304;" 
d="M0 594v98h381v-98h-381z" />
    <glyph glyph-name="uni0306" unicode="&#x306;" 
d="M159 563q-48 0 -84 19t-55.5 54t-19.5 84v17h73q0 -33 19 -52t67 -19q49 0 68 19t19 52h74v-17q0 -49 -20 -84.5t-56 -54t-85 -18.5z" />
    <glyph glyph-name="uni0307" unicode="&#x307;" 
d="M65 571q-27 0 -46 18.5t-19 45.5q0 28 19 47t46 19q28 0 46.5 -19t18.5 -47q0 -27 -18.5 -45.5t-46.5 -18.5z" />
    <glyph glyph-name="uni0308" unicode="&#x308;" 
d="M65 570q-28 0 -46.5 18.5t-18.5 45.5q0 28 18.5 47t46.5 19t46.5 -19t18.5 -47q0 -27 -18.5 -45.5t-46.5 -18.5zM251 570q-28 0 -46.5 18.5t-18.5 45.5q0 28 18.5 47t46.5 19q27 0 46 -19t19 -47q0 -27 -19 -45.5t-46 -18.5z" />
    <glyph glyph-name="uni030A" unicode="&#x30a;" 
d="M116 570q-48 0 -82 30.5t-34 83.5t34 84t82 31t82.5 -31t34.5 -84t-34.5 -83.5t-82.5 -30.5zM116 631q21 0 36 14.5t15 38.5q0 25 -14.5 39t-36.5 14q-20 0 -35.5 -14t-15.5 -39q0 -24 15.5 -38.5t35.5 -14.5z" />
    <glyph glyph-name="uni030B" unicode="&#x30b;" 
d="M176 543l84 187h113l-109 -187h-88zM0 543l72 187h113l-97 -187h-88z" />
    <glyph glyph-name="uni030C" unicode="&#x30c;" 
d="M149 563l-149 80v99l149 -86l148 86v-99z" />
    <glyph glyph-name="uni0312" unicode="&#x312;" 
d="M120 785v-56q-23 0 -35 -9t-12 -28v-18h47v-108h-107q-6 29 -9.5 52t-3.5 47q0 57 30 88.5t90 31.5z" />
    <glyph glyph-name="uni0326" unicode="&#x326;" 
d="M7 -284v56q26 0 38 15.5t12 47.5v15h-57v106h115q9 -27 12.5 -53t3.5 -49q0 -64 -31 -101t-93 -37z" />
    <glyph glyph-name="uni0327" unicode="&#x327;" 
d="M0 -264v79h117q25 0 37.5 8t12.5 26q0 17 -12.5 24.5t-37.5 7.5h-63v126h86v-53q33 0 62.5 -11t48.5 -34.5t19 -62.5q0 -37 -19 -61.5t-49 -36.5t-65 -12h-137z" />
    <glyph glyph-name="uni0328" unicode="&#x328;" 
d="M137 -212q-37 0 -68.5 11.5t-50 35.5t-18.5 60q0 28 13.5 53t45 49.5t87.5 48.5l45 19l31 -65l-51 -25q-36 -18 -51 -34t-15 -33q0 -18 13.5 -28.5t36.5 -10.5q15 0 34 4t38 11v-82q-19 -6 -42 -10t-48 -4z" />
    <glyph glyph-name="pi" unicode="&#x3c0;" horiz-adv-x="647" 
d="M102 0v396h-73v108h588v-108h-73v-396h-140v396h-162v-396h-140z" />
    <glyph glyph-name="Wgrave" unicode="&#x1e80;" horiz-adv-x="1023" 
d="M209 0l-183 700h150l118 -542v0l142 542h154l137 -542v0l120 542h151l-188 -700h-167l-132 503v0l-136 -503h-166zM617 743l-224 111l16 106v0l221 -125z" />
    <glyph glyph-name="wgrave" unicode="&#x1e81;" horiz-adv-x="826" 
d="M164 0l-148 504h138l97 -407l-26 1l110 406h155l111 -406l-26 -1l96 407h139l-148 -504h-146l-118 418h29l-118 -418h-145zM518 547l-224 111l16 106v0l221 -125z" />
    <glyph glyph-name="Wacute" unicode="&#x1e82;" horiz-adv-x="1023" 
d="M209 0l-183 700h150l118 -542v0l142 542h154l137 -542v0l120 542h151l-188 -700h-167l-132 503v0l-136 -503h-166zM406 743l-13 92l221 125v0l16 -106z" />
    <glyph glyph-name="wacute" unicode="&#x1e83;" horiz-adv-x="826" 
d="M164 0l-148 504h138l97 -407l-26 1l110 406h155l111 -406l-26 -1l96 407h139l-148 -504h-146l-118 418h29l-118 -418h-145zM307 547l-13 92l221 125v0l16 -106z" />
    <glyph glyph-name="Wdieresis" unicode="&#x1e84;" horiz-adv-x="1023" 
d="M209 0l-183 700h150l118 -542v0l142 542h154l137 -542v0l120 542h151l-188 -700h-167l-132 503v0l-136 -503h-166zM419 767q-28 0 -46.5 18.5t-18.5 45.5q0 28 18.5 47t46.5 19t46.5 -19t18.5 -47q0 -27 -18.5 -45.5t-46.5 -18.5zM605 767q-28 0 -46.5 18.5t-18.5 45.5
q0 28 18.5 47t46.5 19q27 0 46 -19t19 -47q0 -27 -19 -45.5t-46 -18.5z" />
    <glyph glyph-name="wdieresis" unicode="&#x1e85;" horiz-adv-x="826" 
d="M164 0l-148 504h138l97 -407l-26 1l110 406h155l111 -406l-26 -1l96 407h139l-148 -504h-146l-118 418h29l-118 -418h-145zM320 570q-28 0 -46.5 18.5t-18.5 45.5q0 28 18.5 47t46.5 19t46.5 -19t18.5 -47q0 -27 -18.5 -45.5t-46.5 -18.5zM506 570q-28 0 -46.5 18.5
t-18.5 45.5q0 28 18.5 47t46.5 19q27 0 46 -19t19 -47q0 -27 -19 -45.5t-46 -18.5z" />
    <glyph glyph-name="uni1E9E" unicode="&#x1e9e;" horiz-adv-x="739" 
d="M472 -6q-106 0 -163.5 57.5t-57.5 168.5h137q0 -49 19.5 -79t66.5 -30q32 0 51 14t27 39t8 56q-1 63 -32 92t-91 29h-105v92l143 148h-208q-32 0 -45.5 -13t-13.5 -42v-526h-140v526q0 64 22 102t61.5 55t93.5 17h394v-106l-163 -163h15q65 0 110 -27t68.5 -74t23.5 -108
q0 -72 -26.5 -123t-75.5 -78t-119 -27z" />
    <glyph glyph-name="uni1EBC" unicode="&#x1ebc;" horiz-adv-x="585" 
d="M68 0v700h463v-113h-323v-177h293v-109h-293v-188h323v-113h-463zM363 750q-29 0 -49.5 11.5t-38 23t-37.5 11.5q-17 0 -28.5 -11t-15.5 -34h-73q11 69 43 100t80 31q29 0 49 -11.5t38 -23t38 -11.5q17 0 28.5 11.5t14.5 33.5h74q-10 -68 -42.5 -99.5t-80.5 -31.5z" />
    <glyph glyph-name="uni1EBD" unicode="&#x1ebd;" horiz-adv-x="605" 
d="M309 -12q-76 0 -134.5 32.5t-91.5 91t-33 135.5q0 78 32.5 138.5t91 95.5t136.5 35q75 0 131.5 -33t88 -89t31.5 -129q0 -10 -0.5 -22t-2.5 -26h-408v85h269q-3 46 -33.5 73.5t-75.5 27.5q-34 0 -62 -16t-44 -47t-16 -79v-29q0 -39 15 -68.5t42 -45.5t63 -16t59.5 15
t35.5 39h143q-14 -47 -47.5 -85t-81.5 -60.5t-108 -22.5zM366 570q-29 0 -49.5 11t-38 22.5t-37.5 11.5q-17 0 -28.5 -11t-15.5 -34h-73q11 69 43 100t80 31q29 0 49 -11.5t38 -22.5t38 -11q17 0 28.5 11t14.5 34h74q-10 -69 -42.5 -100t-80.5 -31z" />
    <glyph glyph-name="Ygrave" unicode="&#x1ef2;" horiz-adv-x="640" 
d="M250 0v244l-237 456h159l163 -343h-27l162 343h157l-237 -456v-244h-140zM426 743l-224 111l16 106v0l221 -125z" />
    <glyph glyph-name="ygrave" unicode="&#x1ef3;" horiz-adv-x="609" 
d="M131 -220l121 276h-30l-202 448h152l143 -319v0l125 319h149l-310 -724h-148zM410 547l-224 111l16 106v0l221 -125z" />
    <glyph glyph-name="uni1EF8" unicode="&#x1ef8;" horiz-adv-x="640" 
d="M250 0v244l-237 456h159l163 -343h-27l162 343h157l-237 -456v-244h-140zM384 750q-29 0 -49.5 11.5t-38 23t-37.5 11.5q-17 0 -28.5 -11t-15.5 -34h-73q11 69 43 100t80 31q29 0 49 -11.5t38 -23t38 -11.5q17 0 28.5 11.5t14.5 33.5h74q-10 -68 -42.5 -99.5t-80.5 -31.5
z" />
    <glyph glyph-name="uni1EF9" unicode="&#x1ef9;" horiz-adv-x="609" 
d="M131 -220l121 276h-30l-202 448h152l143 -319v0l125 319h149l-310 -724h-148zM364 570q-29 0 -49.5 11t-38 22.5t-37.5 11.5q-17 0 -28.5 -11t-15.5 -34h-73q11 69 43 100t80 31q29 0 49 -11.5t38 -22.5t38 -11q17 0 28.5 11t14.5 34h74q-10 -69 -42.5 -100t-80.5 -31z
" />
    <glyph glyph-name="endash" unicode="&#x2013;" horiz-adv-x="699" 
d="M77 236v117h544v-117h-544z" />
    <glyph glyph-name="emdash" unicode="&#x2014;" horiz-adv-x="922" 
d="M77 236v117h768v-117h-768z" />
    <glyph glyph-name="quoteleft" unicode="&#x2018;" horiz-adv-x="260" 
d="M30 441l104 259h96l-54 -259h-146z" />
    <glyph glyph-name="quoteright" unicode="&#x2019;" horiz-adv-x="260" 
d="M230 700l-105 -259h-95l53 259h147z" />
    <glyph glyph-name="quotesinglbase" unicode="&#x201a;" horiz-adv-x="261" 
d="M24 -110l54 255h146l-105 -255h-95z" />
    <glyph glyph-name="quotedblleft" unicode="&#x201c;" horiz-adv-x="462" 
d="M232 441l105 259h95l-54 -259h-146zM30 441l104 259h96l-54 -259h-146z" />
    <glyph glyph-name="quotedblright" unicode="&#x201d;" horiz-adv-x="462" 
d="M229 700l-104 -259h-95l54 259h145zM432 700l-105 -259h-95l53 259h147z" />
    <glyph glyph-name="quotedblbase" unicode="&#x201e;" horiz-adv-x="465" 
d="M24 -110l54 255h146l-105 -255h-95zM229 -110l53 255h146l-104 -255h-95z" />
    <glyph glyph-name="dagger" unicode="&#x2020;" horiz-adv-x="610" 
d="M235 -264l14 722l-202 -11v107l202 -11l-14 243h140l-14 -243l202 11v-107l-202 11l14 -722h-140z" />
    <glyph glyph-name="daggerdbl" unicode="&#x2021;" horiz-adv-x="611" 
d="M235 -264l14 243l-202 -11v108l202 -11v393l-202 -11v107l202 -11l-14 243h140l-14 -243l202 11v-107l-202 11v-393l202 11v-108l-202 11l14 -243h-140z" />
    <glyph glyph-name="bullet" unicode="&#x2022;" horiz-adv-x="390" 
d="M194 194q-38 0 -69.5 18.5t-50.5 50t-19 70.5q0 40 19 71.5t50 50t70 18.5q40 0 71.5 -18.5t50.5 -50t19 -71.5q0 -39 -19 -70.5t-50.5 -50t-71.5 -18.5z" />
    <glyph glyph-name="ellipsis" unicode="&#x2026;" horiz-adv-x="699" 
d="M350 -5q-38 0 -62 23.5t-24 56.5q0 34 24 57t62 23t62 -23t24 -57q0 -33 -24 -56.5t-62 -23.5zM570 -5q-38 0 -62 23.5t-24 56.5q0 34 24 57t62 23t62 -23t24 -57q0 -33 -24 -56.5t-62 -23.5zM129 -5q-38 0 -62 23.5t-24 56.5q0 34 24 57t62 23t62 -23t24 -57
q0 -33 -24 -56.5t-62 -23.5z" />
    <glyph glyph-name="perthousand" unicode="&#x2030;" horiz-adv-x="1294" 
d="M1077 -12q-49 0 -89 22t-63 62.5t-23 95.5q0 57 23.5 97t63.5 61.5t89 21.5t88 -21.5t62.5 -61.5t23.5 -97q0 -55 -23.5 -95.5t-62.5 -62.5t-89 -22zM1077 83q19 0 34 10t23.5 29t8.5 46q0 29 -8.5 48t-23.5 29t-34 10t-34 -10t-24 -29t-9 -48q0 -27 9 -46t24 -29t34 -10
zM191 0l392 700h136l-392 -700h-136zM697 -12q-49 0 -89 22t-63.5 62.5t-23.5 95.5q0 57 23.5 97t63.5 61.5t89 21.5t88.5 -21.5t62.5 -61.5t23 -97q0 -55 -23 -95.5t-62.5 -62.5t-88.5 -22zM696 83q19 0 34 10t23.5 29t8.5 46q0 29 -8.5 47.5t-23.5 28.5t-34 10t-34 -10
t-23.5 -28.5t-8.5 -47.5q0 -27 8.5 -46t23.5 -29t34 -10zM218 351q-49 0 -89 22t-63.5 62.5t-23.5 95.5q0 57 23.5 97t63.5 62t89 22t88.5 -22t62.5 -62t23 -97q0 -55 -23 -95.5t-62.5 -62.5t-88.5 -22zM217 446q19 0 34 10t23.5 29t8.5 46q0 29 -8.5 48t-23.5 29t-33 10
q-19 0 -34.5 -10t-24 -29t-8.5 -48q0 -27 8.5 -46t23.5 -29t34 -10z" />
    <glyph glyph-name="guilsinglleft" unicode="&#x2039;" horiz-adv-x="315" 
d="M132 120l-89 175l89 175h131l-92 -175l92 -175h-131z" />
    <glyph glyph-name="guilsinglright" unicode="&#x203a;" horiz-adv-x="315" 
d="M183 120h-131l92 175l-92 175h131l89 -175z" />
    <glyph glyph-name="fraction" unicode="&#x2044;" horiz-adv-x="520" 
d="M-2 0l391 700h137l-392 -700h-136z" />
    <glyph glyph-name="uni2074" unicode="&#x2074;" horiz-adv-x="353" 
d="M191 352v60h-164v70l153 218h114v-216h37v-72h-37v-60h-103zM132 484h67v103v0z" />
    <glyph glyph-name="uni20A8" unicode="&#x20a8;" horiz-adv-x="1133" 
d="M68 0v700h265q85 0 140.5 -29t83 -77.5t27.5 -108.5q0 -56 -26.5 -105t-82.5 -78.5t-143 -29.5h-124v-272h-140zM430 0l-143 307h152l151 -307h-160zM208 374h117q59 0 87.5 29t28.5 77q0 47 -28 75t-89 28h-116v-209zM871 -12q-70 0 -121 22.5t-80 61t-34 87.5h140
q4 -18 15.5 -32.5t31 -23.5t46.5 -9q26 0 42.5 7.5t25 19.5t8.5 26q0 20 -12 31t-35 18t-55 13q-36 8 -70.5 18t-62 26.5t-43.5 41.5t-16 62q0 45 24.5 81t71 57t111.5 21q92 0 145.5 -41.5t63.5 -112.5h-132q-5 22 -25 34t-53 12q-34 0 -52.5 -12t-18.5 -32q0 -13 12 -23.5
t34.5 -18t55.5 -14.5q59 -12 103 -27.5t69 -44t25 -82.5q1 -48 -25.5 -86t-74.5 -59t-114 -21z" />
    <glyph glyph-name="Euro" unicode="&#x20ac;" horiz-adv-x="791" 
d="M21 236v79h432v-79h-432zM21 384v80h432v-80h-432zM435 -12q-105 0 -181 45.5t-116.5 127t-40.5 188.5t40.5 189t116.5 128t181 46q128 0 209.5 -64t101.5 -180h-153q-13 56 -53 86.5t-106 30.5q-61 0 -104.5 -28.5t-67 -81.5t-23.5 -126t23.5 -125.5t67 -81t104.5 -28.5
q66 0 106 28.5t53 79.5h153q-20 -109 -101.5 -171.5t-209.5 -62.5z" />
    <glyph glyph-name="uni20B9" unicode="&#x20b9;" horiz-adv-x="613" 
d="M292 -12q-107 0 -164 57t-57 168v136q93 0 148 5t81.5 20.5t35 47.5t8.5 87v141h131v-139q0 -64 -14 -112t-45.5 -80t-84 -47.5t-129.5 -15.5v-58q0 -46 19 -74.5t68 -28.5q46 0 65.5 27t19.5 75h129q-3 -99 -56 -154t-155 -55zM43 438v88h534v-88h-534zM43 604v96h534
v-96h-534z" />
    <glyph glyph-name="uni20BA" unicode="&#x20ba;" horiz-adv-x="827" 
d="M381 -12q-50 0 -105.5 7t-116.5 19v686h143v-574q21 -4 40 -5.5t38 -1.5q70 0 115 23.5t70.5 66t36 102t10.5 129.5h142q0 -154 -37.5 -254t-119.5 -149t-216 -49zM20 216v90l433 88v-90zM18 380v87l435 92v-89z" />
    <glyph glyph-name="uni20BD" unicode="&#x20bd;" horiz-adv-x="657" 
d="M26 98v107h91v75h-91v109h91v311h257q85 0 140.5 -28t83 -75t27.5 -107q0 -56 -26 -104t-81.5 -77t-143.5 -29h-117v-75h180v-107h-180v-98h-140v98h-91zM257 389h112q60 0 87 28t27 73q0 46 -27 74.5t-87 28.5h-112v-204z" />
    <glyph glyph-name="uni2113" unicode="&#x2113;" horiz-adv-x="276" 
d="M68 -100v820h140v-820h-140z" />
    <glyph glyph-name="trademark" unicode="&#x2122;" horiz-adv-x="843" 
d="M27 617v83h273v-83h-85v-268h-104v268h-84zM352 349v351h137l86 -227l95 227h127v-351h-95v226l-95 -226h-71l-93 230v-230h-91z" />
    <glyph glyph-name="uni2126" unicode="&#x2126;" horiz-adv-x="788" 
d="M46 0v107h194l-22 -34q-64 28 -103.5 72t-58 100.5t-18.5 119.5q0 79 27 143t76 110t114 70t139 24q75 0 139.5 -24t113.5 -70t76.5 -110t27.5 -143q0 -63 -18.5 -119.5t-58 -100.5t-104.5 -72l-22 34h194v-107h-271v111q40 21 71.5 55t49 80.5t17.5 103.5q0 55 -16 98.5
t-44.5 73.5t-68 46t-86.5 16q-48 0 -87 -16t-67.5 -46.5t-44 -74t-15.5 -97.5q0 -57 17.5 -103.5t49 -80.5t70.5 -55v-111h-271z" />
    <glyph glyph-name="estimated" unicode="&#x212e;" horiz-adv-x="753" 
d="M385 -7q-98 0 -176.5 40t-123.5 116t-45 185q0 105 39 189.5t114 134.5t183 50q82 0 144.5 -27.5t105.5 -73.5t65 -104.5t22 -122.5v-62h-505v-173q36 -34 79 -51t98 -17q50 0 92 14t80.5 40t75.5 63l52 -59q-63 -67 -137.5 -104.5t-162.5 -37.5zM208 397h332v170
q-29 29 -71 44t-93 15q-52 0 -94.5 -17t-73.5 -51v-161z" />
    <glyph glyph-name="arrowleft" unicode="&#x2190;" horiz-adv-x="780" 
d="M739 285h-504l246 -219l-89 -89l-353 329v83l353 329l88 -88l-245 -220h504v-125z" />
    <glyph glyph-name="arrowup" unicode="&#x2191;" horiz-adv-x="880" 
d="M34 346l364 354h84l365 -354l-89 -88l-252 248v-506h-132v506l-252 -247z" />
    <glyph glyph-name="arrowright" unicode="&#x2192;" horiz-adv-x="780" 
d="M41 285v125h504l-245 220l88 88l353 -329v-83l-353 -329l-89 89l246 219h-504z" />
    <glyph glyph-name="arrowdown" unicode="&#x2193;" horiz-adv-x="893" 
d="M40 354l88 87l252 -247v506h132v-506l253 248l88 -88l-365 -354h-83z" />
    <glyph glyph-name="arrowboth" unicode="&#x2194;" horiz-adv-x="948" 
d="M40 304v84l290 315l88 -74l-206 -219h523l-205 219l87 74l291 -315v-84l-291 -315l-87 74l209 224h-530l209 -224l-88 -74z" />
    <glyph glyph-name="arrowupdn" unicode="&#x2195;" horiz-adv-x="812" 
d="M41 214l73 88l230 -150v398l-230 -150l-73 88l323 214h84l323 -214l-72 -88l-230 149v-396l230 149l72 -88l-323 -214h-84z" />
    <glyph glyph-name="uni2196" unicode="&#x2196;" horiz-adv-x="661" 
d="M526 44l-358 357v-353h-122v510l59 59h510v-122h-355l359 -359z" />
    <glyph glyph-name="uni2197" unicode="&#x2197;" horiz-adv-x="655" 
d="M135 56l-93 92l359 359h-355v122h510l59 -59v-510h-122v353z" />
    <glyph glyph-name="uni2198" unicode="&#x2198;" horiz-adv-x="661" 
d="M135 628l358 -357v353h122v-510l-59 -59h-510v122h355l-359 359z" />
    <glyph glyph-name="uni2199" unicode="&#x2199;" horiz-adv-x="661" 
d="M526 628l93 -92l-359 -359h355v-122h-510l-59 59v510h122v-353z" />
    <glyph glyph-name="partialdiff" unicode="&#x2202;" horiz-adv-x="598" 
d="M256 -8q-60 0 -110 26.5t-80 81.5t-30 139q0 68 20.5 126.5t57.5 102t86 68t106 24.5q26 0 48.5 -6.5t41 -21.5t31.5 -40q-5 49 -22 87t-49 59t-83 21q-16 0 -33.5 -2t-37.5 -7v74q30 9 57 12.5t52 3.5q82 0 138 -40t84.5 -114.5t28.5 -177.5q0 -129 -39 -222.5
t-108 -143.5t-159 -50zM270 112q31 0 57 16t44.5 44.5t28.5 66.5t10 81q0 62 -26 92t-67 30q-32 0 -57.5 -15t-44 -43t-28.5 -64.5t-10 -79.5q0 -67 27 -97.5t66 -30.5z" />
    <glyph glyph-name="uni2206" unicode="&#x2206;" horiz-adv-x="717" 
d="M22 0v107l279 593h115l279 -593v-107h-673zM165 107h387l-193 434z" />
    <glyph glyph-name="product" unicode="&#x220f;" horiz-adv-x="739" 
d="M100 0v593h-74v107h687v-107h-73v-593h-140v593h-260v-593h-140z" />
    <glyph glyph-name="summation" unicode="&#x2211;" horiz-adv-x="505" 
d="M44 -50v163l245 218l-244 207v162h433v-107h-315l258 -211v-101l-254 -224h310v-107h-433z" />
    <glyph glyph-name="minus" unicode="&#x2212;" horiz-adv-x="582" 
d="M79 236v117h424v-117h-424z" />
    <glyph glyph-name="uni2215" unicode="&#x2215;" horiz-adv-x="429" 
d="M22 -116l250 897h136l-250 -897h-136z" />
    <glyph glyph-name="radical" unicode="&#x221a;" horiz-adv-x="801" 
d="M19 229l198 116l127 -225l424 770h88l-514 -932h-68l-139 247l-76 -44z" />
    <glyph glyph-name="infinity" unicode="&#x221e;" horiz-adv-x="743" 
d="M197 124q-71 0 -118 42.5t-47 118.5q0 53 22.5 90t61 56.5t85.5 19.5q46 0 80.5 -17t61 -43.5t48 -56t42.5 -56t44.5 -43t53.5 -16.5q31 0 50 18.5t19 50.5q0 33 -18 50.5t-47 17.5q-38 0 -71.5 -27t-50.5 -72l-69 30q11 43 38 80.5t68.5 60.5t94.5 23q72 0 119 -42.5
t47 -118.5q0 -53 -22.5 -90t-61 -56.5t-86.5 -19.5q-46 0 -81.5 17t-64 43.5t-51.5 56t-44.5 56t-43.5 43t-49 16.5t-45.5 -18t-18.5 -51q0 -32 18.5 -50t47.5 -18q37 0 70.5 27t50.5 72l69 -30q-11 -42 -38 -79.5t-68 -61t-96 -23.5z" />
    <glyph glyph-name="integral" unicode="&#x222b;" horiz-adv-x="280" 
d="M-46 -239l12 118h18q21 0 30.5 11.5t12.5 37.5l89 839q7 63 32.5 99.5t67.5 51t94 14.5h19l-12 -118h-17q-20 0 -30.5 -11t-13.5 -36l-89 -839q-6 -63 -32 -100t-67 -52t-94 -15h-20z" />
    <glyph glyph-name="approxequal" unicode="&#x2248;" horiz-adv-x="582" 
d="M378 79q-32 0 -56.5 10t-45.5 23.5t-40.5 24t-41.5 10.5q-26 0 -42.5 -17.5t-21.5 -49.5h-104q10 67 34.5 109t60.5 62t80 20q32 0 57 -10.5t46.5 -23.5t41 -23.5t41.5 -10.5q27 0 43 17t20 50h105q-9 -66 -33.5 -108.5t-61 -62.5t-82.5 -20zM378 314q-32 0 -56.5 10
t-45.5 23.5t-40.5 24t-41.5 10.5q-26 0 -42.5 -17.5t-21.5 -49.5h-104q10 67 34.5 109t60.5 62t80 20q32 0 57 -10.5t46.5 -23.5t41 -23.5t41.5 -10.5q27 0 43 17t20 50h105q-9 -66 -33.5 -108.5t-61 -62.5t-82.5 -20z" />
    <glyph glyph-name="notequal" unicode="&#x2260;" horiz-adv-x="582" 
d="M94 48l253 482h108l-254 -482h-107zM75 340v123h432v-123h-432zM75 115v123h432v-123h-432z" />
    <glyph glyph-name="lessequal" unicode="&#x2264;" horiz-adv-x="582" 
d="M489 174h-177l-219 187v0l219 188h177l-217 -188zM488 0h-381v107h381v-107z" />
    <glyph glyph-name="greaterequal" unicode="&#x2265;" horiz-adv-x="582" 
d="M93 174l217 187l-217 188h177l219 -188v0l-219 -187h-177zM94 0v107h381v-107h-381z" />
    <glyph glyph-name="lozenge" unicode="&#x25ca;" horiz-adv-x="561" 
d="M281 97l-255 255l255 254l254 -254zM281 236l114 116l-114 115l-115 -115z" />
    <glyph glyph-name="Q.ss06" horiz-adv-x="785" 
d="M573 -137l-203 198l135 31l235 -229h-167zM392 -12q-102 0 -180 46t-122.5 127.5t-44.5 188.5t44.5 188.5t122.5 127.5t180 46q103 0 181.5 -46t122 -127.5t43.5 -188.5t-43.5 -188.5t-122 -127.5t-181.5 -46zM392 114q63 0 109 29t71 81.5t25 125.5t-25 125.5t-71 81.5
t-109 29q-62 0 -107.5 -29t-71 -81.5t-25.5 -125.5t25.5 -125.5t71 -81.5t107.5 -29z" />
    <glyph glyph-name="i.loclTRK" horiz-adv-x="271" 
d="M66 0v504h140v-504h-140zM136 571q-27 0 -46 18.5t-19 45.5q0 28 19 47t46 19q28 0 46.5 -19t18.5 -47q0 -27 -18.5 -45.5t-46.5 -18.5z" />
    <glyph glyph-name="a.ss02" horiz-adv-x="657" 
d="M290 -12q-68 0 -122.5 34t-86 93.5t-31.5 135.5q0 77 32 136.5t86.5 94t123.5 34.5q54 0 94.5 -20t65.5 -56l9 64h131v-504h-130l-10 68v0q-23 -32 -62 -56t-100 -24zM324 110q39 0 69 18t46.5 50t16.5 74t-16.5 74t-46.5 50t-69 18q-38 0 -68 -18t-46.5 -50t-16.5 -73
q0 -42 16.5 -74.5t46.5 -50.5t68 -18z" />
    <glyph glyph-name="aacute.ss02" horiz-adv-x="657" 
d="M290 -12q-68 0 -122.5 34t-86 93.5t-31.5 135.5q0 77 32 136.5t86.5 94t123.5 34.5q54 0 94.5 -20t65.5 -56l9 64h131v-504h-130l-10 68v0q-23 -32 -62 -56t-100 -24zM324 110q39 0 69 18t46.5 50t16.5 74t-16.5 74t-46.5 50t-69 18q-38 0 -68 -18t-46.5 -50t-16.5 -73
q0 -42 16.5 -74.5t46.5 -50.5t68 -18zM217 546l-13 92l221 125v0l16 -106z" />
    <glyph glyph-name="abreve.ss02" horiz-adv-x="657" 
d="M290 -12q-68 0 -122.5 34t-86 93.5t-31.5 135.5q0 77 32 136.5t86.5 94t123.5 34.5q54 0 94.5 -20t65.5 -56l9 64h131v-504h-130l-10 68v0q-23 -32 -62 -56t-100 -24zM324 110q39 0 69 18t46.5 50t16.5 74t-16.5 74t-46.5 50t-69 18q-38 0 -68 -18t-46.5 -50t-16.5 -73
q0 -42 16.5 -74.5t46.5 -50.5t68 -18zM322 562q-48 0 -84 19t-55.5 54t-19.5 84v17h73q0 -33 19 -52t67 -19q49 0 68 19t19 52h74v-17q0 -49 -20 -84.5t-56 -54t-85 -18.5z" />
    <glyph glyph-name="acircumflex.ss02" horiz-adv-x="657" 
d="M290 -12q-68 0 -122.5 34t-86 93.5t-31.5 135.5q0 77 32 136.5t86.5 94t123.5 34.5q54 0 94.5 -20t65.5 -56l9 64h131v-504h-130l-10 68v0q-23 -32 -62 -56t-100 -24zM324 110q39 0 69 18t46.5 50t16.5 74t-16.5 74t-46.5 50t-69 18q-38 0 -68 -18t-46.5 -50t-16.5 -73
q0 -42 16.5 -74.5t46.5 -50.5t68 -18zM174 549v99l149 80l148 -80v-99l-148 82z" />
    <glyph glyph-name="adieresis.ss02" horiz-adv-x="657" 
d="M290 -12q-68 0 -122.5 34t-86 93.5t-31.5 135.5q0 77 32 136.5t86.5 94t123.5 34.5q54 0 94.5 -20t65.5 -56l9 64h131v-504h-130l-10 68v0q-23 -32 -62 -56t-100 -24zM324 110q39 0 69 18t46.5 50t16.5 74t-16.5 74t-46.5 50t-69 18q-38 0 -68 -18t-46.5 -50t-16.5 -73
q0 -42 16.5 -74.5t46.5 -50.5t68 -18zM229 569q-28 0 -46.5 18.5t-18.5 45.5q0 28 18.5 47t46.5 19t46.5 -19t18.5 -47q0 -27 -18.5 -45.5t-46.5 -18.5zM415 569q-28 0 -46.5 18.5t-18.5 45.5q0 28 18.5 47t46.5 19q27 0 46 -19t19 -47q0 -27 -19 -45.5t-46 -18.5z" />
    <glyph glyph-name="agrave.ss02" horiz-adv-x="657" 
d="M290 -12q-68 0 -122.5 34t-86 93.5t-31.5 135.5q0 77 32 136.5t86.5 94t123.5 34.5q54 0 94.5 -20t65.5 -56l9 64h131v-504h-130l-10 68v0q-23 -32 -62 -56t-100 -24zM324 110q39 0 69 18t46.5 50t16.5 74t-16.5 74t-46.5 50t-69 18q-38 0 -68 -18t-46.5 -50t-16.5 -73
q0 -42 16.5 -74.5t46.5 -50.5t68 -18zM428 546l-224 111l16 106v0l221 -125z" />
    <glyph glyph-name="amacron.ss02" horiz-adv-x="657" 
d="M290 -12q-68 0 -122.5 34t-86 93.5t-31.5 135.5q0 77 32 136.5t86.5 94t123.5 34.5q54 0 94.5 -20t65.5 -56l9 64h131v-504h-130l-10 68v0q-23 -32 -62 -56t-100 -24zM324 110q39 0 69 18t46.5 50t16.5 74t-16.5 74t-46.5 50t-69 18q-38 0 -68 -18t-46.5 -50t-16.5 -73
q0 -42 16.5 -74.5t46.5 -50.5t68 -18zM132 593v98h381v-98h-381z" />
    <glyph glyph-name="aogonek.ss02" horiz-adv-x="657" 
d="M290 -12q-68 0 -122.5 34t-86 93.5t-31.5 135.5q0 77 32 136.5t86.5 94t123.5 34.5q54 0 94.5 -20t65.5 -56l9 64h131v-504h-130l-10 68v0q-23 -32 -62 -56t-100 -24zM324 110q39 0 69 18t46.5 50t16.5 74t-16.5 74t-46.5 50t-69 18q-38 0 -68 -18t-46.5 -50t-16.5 -73
q0 -42 16.5 -74.5t46.5 -50.5t68 -18zM507 -212q-37 0 -68.5 11.5t-50 35.5t-18.5 60q0 28 13.5 53t45 49.5t87.5 48.5l45 19l31 -65l-51 -25q-36 -18 -51 -34t-15 -33q0 -18 13.5 -28.5t36.5 -10.5q15 0 34 4t38 11v-82q-19 -6 -42 -10t-48 -4z" />
    <glyph glyph-name="aring.ss02" horiz-adv-x="657" 
d="M290 -12q-68 0 -122.5 34t-86 93.5t-31.5 135.5q0 77 32 136.5t86.5 94t123.5 34.5q54 0 94.5 -20t65.5 -56l9 64h131v-504h-130l-10 68v0q-23 -32 -62 -56t-100 -24zM324 110q39 0 69 18t46.5 50t16.5 74t-16.5 74t-46.5 50t-69 18q-38 0 -68 -18t-46.5 -50t-16.5 -73
q0 -42 16.5 -74.5t46.5 -50.5t68 -18zM322 569q-48 0 -82 30.5t-34 83.5t34 84t82 31t82.5 -31t34.5 -84t-34.5 -83.5t-82.5 -30.5zM322 630q21 0 36 14.5t15 38.5q0 25 -14.5 39t-36.5 14q-20 0 -35.5 -14t-15.5 -39q0 -24 15.5 -38.5t35.5 -14.5z" />
    <glyph glyph-name="atilde.ss02" horiz-adv-x="657" 
d="M290 -12q-68 0 -122.5 34t-86 93.5t-31.5 135.5q0 77 32 136.5t86.5 94t123.5 34.5q54 0 94.5 -20t65.5 -56l9 64h131v-504h-130l-10 68v0q-23 -32 -62 -56t-100 -24zM324 110q39 0 69 18t46.5 50t16.5 74t-16.5 74t-46.5 50t-69 18q-38 0 -68 -18t-46.5 -50t-16.5 -73
q0 -42 16.5 -74.5t46.5 -50.5t68 -18zM382 569q-29 0 -49.5 11t-38 22.5t-37.5 11.5q-17 0 -28.5 -11t-15.5 -34h-73q11 69 43 100t80 31q29 0 49 -11.5t38 -22.5t38 -11q17 0 28.5 11t14.5 34h74q-10 -69 -42.5 -100t-80.5 -31z" />
    <glyph glyph-name="ae.ss02" horiz-adv-x="1014" 
d="M296 -12q-71 0 -127 34t-87.5 93.5t-31.5 135.5q0 77 32 136.5t86.5 94t123.5 34.5q53 0 93 -19t64 -53l10 60h111v-49q31 31 70 46t85 15q73 0 128 -33t85.5 -89t30.5 -129q0 -10 -0.5 -22t-1.5 -26h-370q3 -35 18.5 -61t42 -40t58.5 -14q40 0 65 18t37 46h140
q-13 -50 -46 -90.5t-80.5 -64t-108.5 -23.5q-47 0 -85 13.5t-68 38.5v-40h-111l-10 48v0q-20 -21 -44.5 -34.5t-51.5 -19.5t-57 -6zM324 110q39 0 69 18t46.5 50.5t16.5 73.5q0 42 -16.5 74t-46.5 50t-69 18q-38 0 -68 -18t-46.5 -50t-16.5 -74q0 -41 16.5 -73.5t46.5 -50.5
t68 -18zM601 302h226q-2 46 -32.5 73.5t-76.5 27.5q-29 0 -53.5 -11.5t-41 -33.5t-22.5 -56z" />
    <glyph glyph-name="aeacute.ss02" horiz-adv-x="1014" 
d="M296 -12q-71 0 -127 34t-87.5 93.5t-31.5 135.5q0 77 32 136.5t86.5 94t123.5 34.5q53 0 93 -19t64 -53l10 60h111v-49q31 31 70 46t85 15q73 0 128 -33t85.5 -89t30.5 -129q0 -10 -0.5 -22t-1.5 -26h-370q3 -35 18.5 -61t42 -40t58.5 -14q40 0 65 18t37 46h140
q-13 -50 -46 -90.5t-80.5 -64t-108.5 -23.5q-47 0 -85 13.5t-68 38.5v-40h-111l-10 48v0q-20 -21 -44.5 -34.5t-51.5 -19.5t-57 -6zM324 110q39 0 69 18t46.5 50.5t16.5 73.5q0 42 -16.5 74t-46.5 50t-69 18q-38 0 -68 -18t-46.5 -50t-16.5 -74q0 -41 16.5 -73.5t46.5 -50.5
t68 -18zM601 302h226q-2 46 -32.5 73.5t-76.5 27.5q-29 0 -53.5 -11.5t-41 -33.5t-22.5 -56zM410 547l-13 92l221 125v0l16 -106z" />
    <glyph glyph-name="g.ss03" horiz-adv-x="666" 
d="M334 -232q-48 0 -93 11t-82.5 35.5t-62.5 62.5t-31 91h139q6 -24 23 -42t44 -27.5t59 -9.5q36 0 65 14t47 44t18 76v60q-15 -23 -37.5 -41.5t-54 -29t-71.5 -10.5q-71 0 -127 33.5t-88 92t-32 131.5t32 131t88.5 92t126.5 34q36 0 67 -10t55 -27t41 -39v0l14 64h126v-473
q0 -66 -21.5 -115t-58 -82t-84.5 -49.5t-102 -16.5zM326 122q41 0 70.5 18.5t46 49t16.5 68.5q0 39 -16.5 69.5t-46 48.5t-70.5 18q-40 0 -70 -18t-46.5 -48t-16.5 -69q0 -38 16.5 -69t46.5 -49.5t70 -18.5z" />
    <glyph glyph-name="gbreve.ss03" horiz-adv-x="666" 
d="M334 -232q-48 0 -93 11t-82.5 35.5t-62.5 62.5t-31 91h139q6 -24 23 -42t44 -27.5t59 -9.5q36 0 65 14t47 44t18 76v60q-15 -23 -37.5 -41.5t-54 -29t-71.5 -10.5q-71 0 -127 33.5t-88 92t-32 131.5t32 131t88.5 92t126.5 34q36 0 67 -10t55 -27t41 -39v0l14 64h126v-473
q0 -66 -21.5 -115t-58 -82t-84.5 -49.5t-102 -16.5zM326 122q41 0 70.5 18.5t46 49t16.5 68.5q0 39 -16.5 69.5t-46 48.5t-70.5 18q-40 0 -70 -18t-46.5 -48t-16.5 -69q0 -38 16.5 -69t46.5 -49.5t70 -18.5zM333 563q-48 0 -84 19t-55.5 54t-19.5 84v17h73q0 -33 19 -52
t67 -19q49 0 68 19t19 52h74v-17q0 -49 -20 -84.5t-56 -54t-85 -18.5z" />
    <glyph glyph-name="uni0123.ss03" horiz-adv-x="666" 
d="M334 -232q-48 0 -93 11t-82.5 35.5t-62.5 62.5t-31 91h139q6 -24 23 -42t44 -27.5t59 -9.5q36 0 65 14t47 44t18 76v60q-15 -23 -37.5 -41.5t-54 -29t-71.5 -10.5q-71 0 -127 33.5t-88 92t-32 131.5t32 131t88.5 92t126.5 34q36 0 67 -10t55 -27t41 -39v0l14 64h126v-473
q0 -66 -21.5 -115t-58 -82t-84.5 -49.5t-102 -16.5zM326 122q41 0 70.5 18.5t46 49t16.5 68.5q0 39 -16.5 69.5t-46 48.5t-70.5 18q-40 0 -70 -18t-46.5 -48t-16.5 -69q0 -38 16.5 -69t46.5 -49.5t70 -18.5zM394 785v-56q-23 0 -35 -9t-12 -28v-18h47v-108h-107
q-6 29 -9.5 52t-3.5 47q0 57 30 88.5t90 31.5z" />
    <glyph glyph-name="gdotaccent.ss03" horiz-adv-x="666" 
d="M334 -232q-48 0 -93 11t-82.5 35.5t-62.5 62.5t-31 91h139q6 -24 23 -42t44 -27.5t59 -9.5q36 0 65 14t47 44t18 76v60q-15 -23 -37.5 -41.5t-54 -29t-71.5 -10.5q-71 0 -127 33.5t-88 92t-32 131.5t32 131t88.5 92t126.5 34q36 0 67 -10t55 -27t41 -39v0l14 64h126v-473
q0 -66 -21.5 -115t-58 -82t-84.5 -49.5t-102 -16.5zM326 122q41 0 70.5 18.5t46 49t16.5 68.5q0 39 -16.5 69.5t-46 48.5t-70.5 18q-40 0 -70 -18t-46.5 -48t-16.5 -69q0 -38 16.5 -69t46.5 -49.5t70 -18.5zM333 571q-27 0 -46 18.5t-19 45.5q0 28 19 47t46 19
q28 0 46.5 -19t18.5 -47q0 -27 -18.5 -45.5t-46.5 -18.5z" />
    <glyph glyph-name="u.ss04" horiz-adv-x="617" 
d="M309 -12q-125 0 -186.5 63.5t-61.5 177.5v275h139v-264q0 -48 11.5 -80.5t35.5 -49t62 -16.5q39 0 62.5 16.5t34.5 49t11 80.5v264h140v-275q0 -114 -62 -177.5t-186 -63.5z" />
    <glyph glyph-name="uacute.ss04" horiz-adv-x="617" 
d="M309 -12q-125 0 -186.5 63.5t-61.5 177.5v275h139v-264q0 -48 11.5 -80.5t35.5 -49t62 -16.5q39 0 62.5 16.5t34.5 49t11 80.5v264h140v-275q0 -114 -62 -177.5t-186 -63.5zM204 547l-13 92l221 125v0l16 -106z" />
    <glyph glyph-name="ubreve.ss04" horiz-adv-x="617" 
d="M309 -12q-125 0 -186.5 63.5t-61.5 177.5v275h139v-264q0 -48 11.5 -80.5t35.5 -49t62 -16.5q39 0 62.5 16.5t34.5 49t11 80.5v264h140v-275q0 -114 -62 -177.5t-186 -63.5zM309 563q-48 0 -84 19t-55.5 54t-19.5 84v17h73q0 -33 19 -52t67 -19q49 0 68 19t19 52h74v-17
q0 -49 -20 -84.5t-56 -54t-85 -18.5z" />
    <glyph glyph-name="ucircumflex.ss04" horiz-adv-x="617" 
d="M309 -12q-125 0 -186.5 63.5t-61.5 177.5v275h139v-264q0 -48 11.5 -80.5t35.5 -49t62 -16.5q39 0 62.5 16.5t34.5 49t11 80.5v264h140v-275q0 -114 -62 -177.5t-186 -63.5zM161 550v99l149 80l148 -80v-99l-148 82z" />
    <glyph glyph-name="udieresis.ss04" horiz-adv-x="617" 
d="M309 -12q-125 0 -186.5 63.5t-61.5 177.5v275h139v-264q0 -48 11.5 -80.5t35.5 -49t62 -16.5q39 0 62.5 16.5t34.5 49t11 80.5v264h140v-275q0 -114 -62 -177.5t-186 -63.5zM216 570q-28 0 -46.5 18.5t-18.5 45.5q0 28 18.5 47t46.5 19t46.5 -19t18.5 -47
q0 -27 -18.5 -45.5t-46.5 -18.5zM402 570q-28 0 -46.5 18.5t-18.5 45.5q0 28 18.5 47t46.5 19q27 0 46 -19t19 -47q0 -27 -19 -45.5t-46 -18.5z" />
    <glyph glyph-name="ugrave.ss04" horiz-adv-x="617" 
d="M309 -12q-125 0 -186.5 63.5t-61.5 177.5v275h139v-264q0 -48 11.5 -80.5t35.5 -49t62 -16.5q39 0 62.5 16.5t34.5 49t11 80.5v264h140v-275q0 -114 -62 -177.5t-186 -63.5zM415 547l-224 111l16 106v0l221 -125z" />
    <glyph glyph-name="uhungarumlaut.ss04" horiz-adv-x="617" 
d="M309 -12q-125 0 -186.5 63.5t-61.5 177.5v275h139v-264q0 -48 11.5 -80.5t35.5 -49t62 -16.5q39 0 62.5 16.5t34.5 49t11 80.5v264h140v-275q0 -114 -62 -177.5t-186 -63.5zM342 551l84 187h113l-109 -187h-88zM166 551l72 187h113l-97 -187h-88z" />
    <glyph glyph-name="umacron.ss04" horiz-adv-x="617" 
d="M309 -12q-125 0 -186.5 63.5t-61.5 177.5v275h139v-264q0 -48 11.5 -80.5t35.5 -49t62 -16.5q39 0 62.5 16.5t34.5 49t11 80.5v264h140v-275q0 -114 -62 -177.5t-186 -63.5zM118 594v98h381v-98h-381z" />
    <glyph glyph-name="uogonek.ss04" horiz-adv-x="617" 
d="M309 -12q-125 0 -186.5 63.5t-61.5 177.5v275h139v-264q0 -48 11.5 -80.5t35.5 -49t62 -16.5q39 0 62.5 16.5t34.5 49t11 80.5v264h140v-275q0 -114 -62 -177.5t-186 -63.5zM348 -202q-37 0 -68.5 11.5t-50 35.5t-18.5 60q0 28 13.5 53t45 49.5t87.5 48.5l45 19l31 -65
l-51 -25q-36 -18 -51 -34t-15 -33q0 -18 13.5 -28.5t36.5 -10.5q15 0 34 4t38 11v-82q-19 -6 -42 -10t-48 -4z" />
    <glyph glyph-name="uring.ss04" horiz-adv-x="617" 
d="M309 -12q-125 0 -186.5 63.5t-61.5 177.5v275h139v-264q0 -48 11.5 -80.5t35.5 -49t62 -16.5q39 0 62.5 16.5t34.5 49t11 80.5v264h140v-275q0 -114 -62 -177.5t-186 -63.5zM309 570q-48 0 -82 30.5t-34 83.5t34 84t82 31t82.5 -31t34.5 -84t-34.5 -83.5t-82.5 -30.5z
M309 631q21 0 36 14.5t15 38.5q0 25 -14.5 39t-36.5 14q-20 0 -35.5 -14t-15.5 -39q0 -24 15.5 -38.5t35.5 -14.5z" />
    <glyph glyph-name="utilde.ss04" horiz-adv-x="617" 
d="M309 -12q-125 0 -186.5 63.5t-61.5 177.5v275h139v-264q0 -48 11.5 -80.5t35.5 -49t62 -16.5q39 0 62.5 16.5t34.5 49t11 80.5v264h140v-275q0 -114 -62 -177.5t-186 -63.5zM369 570q-29 0 -49.5 11t-38 22.5t-37.5 11.5q-17 0 -28.5 -11t-15.5 -34h-73q11 69 43 100
t80 31q29 0 49 -11.5t38 -22.5t38 -11q17 0 28.5 11t14.5 34h74q-10 -69 -42.5 -100t-80.5 -31z" />
    <glyph glyph-name="y.ss05" horiz-adv-x="626" 
d="M313 -232q-42 0 -83.5 11t-76.5 34t-58.5 59t-28.5 87h139q5 -23 19 -40.5t36 -26.5t49 -9q37 0 61.5 15.5t37 47t12.5 79.5v49v0q-22 -33 -62 -53.5t-99 -20.5q-62 0 -107 25.5t-68.5 77t-23.5 128.5v273h140v-265q0 -61 25.5 -93.5t80.5 -32.5q37 0 62.5 16t38.5 46
t13 73v256h140v-480q0 -85 -33.5 -142t-89.5 -85.5t-124 -28.5z" />
    <glyph glyph-name="yacute.ss05" horiz-adv-x="626" 
d="M313 -232q-42 0 -83.5 11t-76.5 34t-58.5 59t-28.5 87h139q5 -23 19 -40.5t36 -26.5t49 -9q37 0 61.5 15.5t37 47t12.5 79.5v49v0q-22 -33 -62 -53.5t-99 -20.5q-62 0 -107 25.5t-68.5 77t-23.5 128.5v273h140v-265q0 -61 25.5 -93.5t80.5 -32.5q37 0 62.5 16t38.5 46
t13 73v256h140v-480q0 -85 -33.5 -142t-89.5 -85.5t-124 -28.5zM208 547l-13 92l221 125v0l16 -106z" />
    <glyph glyph-name="ycircumflex.ss05" horiz-adv-x="626" 
d="M313 -232q-42 0 -83.5 11t-76.5 34t-58.5 59t-28.5 87h139q5 -23 19 -40.5t36 -26.5t49 -9q37 0 61.5 15.5t37 47t12.5 79.5v49v0q-22 -33 -62 -53.5t-99 -20.5q-62 0 -107 25.5t-68.5 77t-23.5 128.5v273h140v-265q0 -61 25.5 -93.5t80.5 -32.5q37 0 62.5 16t38.5 46
t13 73v256h140v-480q0 -85 -33.5 -142t-89.5 -85.5t-124 -28.5zM165 550v99l149 80l148 -80v-99l-148 82z" />
    <glyph glyph-name="ydieresis.ss05" horiz-adv-x="626" 
d="M313 -232q-42 0 -83.5 11t-76.5 34t-58.5 59t-28.5 87h139q5 -23 19 -40.5t36 -26.5t49 -9q37 0 61.5 15.5t37 47t12.5 79.5v49v0q-22 -33 -62 -53.5t-99 -20.5q-62 0 -107 25.5t-68.5 77t-23.5 128.5v273h140v-265q0 -61 25.5 -93.5t80.5 -32.5q37 0 62.5 16t38.5 46
t13 73v256h140v-480q0 -85 -33.5 -142t-89.5 -85.5t-124 -28.5zM221 570q-28 0 -46.5 18.5t-18.5 45.5q0 28 18.5 47t46.5 19t46.5 -19t18.5 -47q0 -27 -18.5 -45.5t-46.5 -18.5zM407 570q-28 0 -46.5 18.5t-18.5 45.5q0 28 18.5 47t46.5 19q27 0 46 -19t19 -47
q0 -27 -19 -45.5t-46 -18.5z" />
    <glyph glyph-name="ygrave.ss05" horiz-adv-x="626" 
d="M313 -232q-42 0 -83.5 11t-76.5 34t-58.5 59t-28.5 87h139q5 -23 19 -40.5t36 -26.5t49 -9q37 0 61.5 15.5t37 47t12.5 79.5v49v0q-22 -33 -62 -53.5t-99 -20.5q-62 0 -107 25.5t-68.5 77t-23.5 128.5v273h140v-265q0 -61 25.5 -93.5t80.5 -32.5q37 0 62.5 16t38.5 46
t13 73v256h140v-480q0 -85 -33.5 -142t-89.5 -85.5t-124 -28.5zM419 547l-224 111l16 106v0l221 -125z" />
    <glyph glyph-name="uni1EF9.ss05" horiz-adv-x="626" 
d="M313 -232q-42 0 -83.5 11t-76.5 34t-58.5 59t-28.5 87h139q5 -23 19 -40.5t36 -26.5t49 -9q37 0 61.5 15.5t37 47t12.5 79.5v49v0q-22 -33 -62 -53.5t-99 -20.5q-62 0 -107 25.5t-68.5 77t-23.5 128.5v273h140v-265q0 -61 25.5 -93.5t80.5 -32.5q37 0 62.5 16t38.5 46
t13 73v256h140v-480q0 -85 -33.5 -142t-89.5 -85.5t-124 -28.5zM373 570q-29 0 -49.5 11t-38 22.5t-37.5 11.5q-17 0 -28.5 -11t-15.5 -34h-73q11 69 43 100t80 31q29 0 49 -11.5t38 -22.5t38 -11q17 0 28.5 11t14.5 34h74q-10 -69 -42.5 -100t-80.5 -31z" />
    <glyph glyph-name="one.ss07" horiz-adv-x="432" 
d="M147 0v539l-117 -27v110l177 78h85v-700h-145zM36 110h366v-110h-366v110z" />
    <glyph glyph-name="three.ss07" horiz-adv-x="608" 
d="M302 -6q-70 0 -126.5 25t-90 75.5t-37.5 128.5h137q4 -50 33 -81t85 -31q53 0 83.5 30.5t30.5 82.5q0 54 -34 85.5t-92 31.5h-100v92l195 181l45 -33h-344v119h434v-106l-219 -202l-62 41h69q112 0 177 -55.5t65 -157.5q0 -68 -30.5 -119t-86.5 -79t-132 -28z" />
    <glyph glyph-name="four.ss07" horiz-adv-x="659" 
d="M382 0v130h-335v112l288 458h149l-288 -449h196v156l130 30v-186h90v-121h-90v-130h-140z" />
    <glyph glyph-name="six.ss07" horiz-adv-x="612" 
d="M307 -12q-77 0 -135 32t-90 88t-32 128q0 55 18.5 108.5t59.5 113.5l163 242h157l-212 -303l-6 48q27 8 52.5 14.5t54.5 6.5q66 0 116.5 -28t79.5 -79.5t29 -123.5q0 -74 -33.5 -130t-91 -86.5t-130.5 -30.5zM307 107q56 0 89 34.5t33 91.5q0 38 -15 66.5t-42 44
t-65 15.5q-37 0 -65 -15.5t-42.5 -43.5t-14.5 -67q0 -57 33 -91.5t89 -34.5z" />
    <glyph glyph-name="nine.ss07" horiz-adv-x="612" 
d="M164 0l212 303l6 -48q-27 -8 -52.5 -14.5t-54.5 -6.5q-65 0 -116 28t-80 80t-29 123q0 75 33.5 130.5t91 86t129.5 30.5q78 0 136 -32t90 -88t32 -128q0 -54 -18 -107.5t-60 -114.5l-163 -242h-157zM304 341q38 0 66 15.5t42.5 44t14.5 66.5q0 57 -33 91.5t-90 34.5
q-56 0 -88.5 -34.5t-32.5 -91.5q0 -38 15 -66.5t42.5 -44t63.5 -15.5z" />
    <glyph glyph-name="one.dnom" horiz-adv-x="241" 
d="M93 0v252l-70 -16v66l117 50h60v-352h-107z" />
    <glyph glyph-name="two.dnom" horiz-adv-x="364" 
d="M38 0v79l118 80q28 20 44 40.5t16 44.5q0 19 -10 29t-25 10q-18 0 -28 -11.5t-13 -32.5h-106q3 52 43 87t113 35q47 0 78 -16t46 -41t15 -53q0 -38 -26.5 -66.5t-83.5 -60.5l-68 -40h176v-84h-289z" />
    <glyph glyph-name="three.dnom" horiz-adv-x="358" 
d="M179 -4q-78 0 -117 31t-43 85h109q2 -14 8 -23t16 -13t22 -4q19 0 31 10.5t12 29.5q0 21 -14 31.5t-36 10.5h-38v51h34q23 0 36 10t13 31q0 17 -11.5 27t-31.5 10q-19 0 -30 -9t-14 -27h-101q2 30 19 56t51.5 42t85.5 16q65 0 105 -30t40 -74q0 -31 -17.5 -50.5
t-49.5 -26.5v-3q34 -10 53 -29.5t19 -52.5q0 -44 -41 -71.5t-110 -27.5z" />
    <glyph glyph-name="four.dnom" horiz-adv-x="353" 
d="M191 0v60h-164v70l153 218h114v-216h37v-72h-37v-60h-103zM132 132h67v103v0z" />
    <glyph glyph-name="one.numr" horiz-adv-x="241" 
d="M93 352v252l-70 -16v66l117 50h60v-352h-107z" />
    <glyph glyph-name="two.numr" horiz-adv-x="364" 
d="M38 352v79l118 80q28 20 44 40.5t16 44.5q0 19 -10 29t-25 10q-18 0 -28 -11.5t-13 -32.5h-106q3 52 43 87t113 35q47 0 78 -16t46 -41t15 -53q0 -38 -26.5 -66.5t-83.5 -60.5l-68 -40h176v-84h-289z" />
    <glyph glyph-name="three.numr" horiz-adv-x="358" 
d="M179 348q-78 0 -117 31t-43 85h109q2 -14 8 -23t16 -13t22 -4q19 0 31 10.5t12 29.5q0 21 -14 31.5t-36 10.5h-38v51h34q23 0 36 10t13 31q0 17 -11.5 27t-31.5 10q-19 0 -30 -9t-14 -27h-101q2 30 19 56t51.5 42t85.5 16q65 0 105 -30t40 -74q0 -31 -17.5 -50.5
t-49.5 -26.5v-3q34 -10 53 -29.5t19 -52.5q0 -44 -41 -71.5t-110 -27.5z" />
    <glyph glyph-name="four.numr" horiz-adv-x="353" 
d="M191 352v60h-164v70l153 218h114v-216h37v-72h-37v-60h-103zM132 484h67v103v0z" />
    <glyph glyph-name="comma.ss01" horiz-adv-x="218" 
d="M52 -103v56q26 0 38 15t12 46v19h-58v109h116q9 -29 13 -56.5t4 -51.5q0 -64 -31.5 -100.5t-93.5 -36.5z" />
    <glyph glyph-name="semicolon.ss01" horiz-adv-x="258" 
d="M127 357q-38 0 -62 23.5t-24 56.5q0 34 24 57t62 23t62 -23t24 -57q0 -33 -24 -56.5t-62 -23.5zM69 -103v56q26 0 38 15t12 46v19h-58v109h116q9 -29 13 -56.5t4 -51.5q0 -64 -31.5 -100.5t-93.5 -36.5z" />
    <glyph glyph-name="quotesinglbase.ss01" horiz-adv-x="218" 
d="M52 -103v56q26 0 38 15t12 46v19h-58v109h116q9 -29 13 -56.5t4 -51.5q0 -64 -31.5 -100.5t-93.5 -36.5z" />
    <glyph glyph-name="quotedblbase.ss01" horiz-adv-x="386" 
d="M220 -103v56q26 0 38 15t12 46v19h-58v109h116q9 -29 13 -56.5t4 -51.5q0 -64 -31.5 -100.5t-93.5 -36.5zM52 -103v56q26 0 38 15t12 46v19h-58v109h116q9 -29 13 -56.5t4 -51.5q0 -64 -31.5 -100.5t-93.5 -36.5z" />
    <glyph glyph-name="quotedblleft.ss01" horiz-adv-x="374" 
d="M162 735v-56q-25 0 -37.5 -15t-12.5 -46v-19h57v-109h-115q-9 30 -13 57t-4 51q0 65 31 101t94 36zM330 735v-56q-25 0 -38 -15t-13 -46v-19h58v-109h-115q-9 30 -13 57t-4 51q0 65 31 101t94 36z" />
    <glyph glyph-name="quotedblright.ss01" horiz-adv-x="374" 
d="M213 491v56q26 0 38 15t12 46v19h-58v109h116q9 -29 13 -56.5t4 -51.5q0 -64 -31.5 -100.5t-93.5 -36.5zM45 491v56q26 0 38 15t12 46v19h-58v109h116q9 -29 13 -56.5t4 -51.5q0 -64 -31.5 -100.5t-93.5 -36.5z" />
    <glyph glyph-name="quoteleft.ss01" horiz-adv-x="206" 
d="M162 735v-56q-25 0 -37.5 -15t-12.5 -46v-19h57v-109h-115q-9 30 -13 57t-4 51q0 65 31 101t94 36z" />
    <glyph glyph-name="quoteright.ss01" horiz-adv-x="206" 
d="M45 490v56q26 0 38 15t12 46v19h-58v109h116q9 -29 13 -56.5t4 -51.5q0 -64 -31.5 -100.5t-93.5 -36.5z" />
    <glyph glyph-name="quotedblleft.ss08" horiz-adv-x="764" 
d="M382 -12q75 0 140.5 28t115.5 78t78 115.5t28 140.5t-28 140.5t-78 115.5t-115.5 78t-140.5 28t-140.5 -28t-115.5 -78t-78 -115.5t-28 -140.5t28 -140.5t78 -115.5t115.5 -78t140.5 -28zM362 484v-60q-28 0 -41.5 -16.5t-13.5 -50.5v-21h63v-118h-126q-9 33 -13 62.5
t-4 55.5q0 47 14.5 80t45 50.5t75.5 17.5zM544 484v-60q-28 0 -42 -16.5t-14 -50.5v-21h63v-118h-125q-9 33 -13.5 62.5t-4.5 55.5q0 47 15 80t45.5 50.5t75.5 17.5z" />
    <glyph glyph-name="quotedblright.ss08" horiz-adv-x="764" 
d="M382 712q-75 0 -140.5 -28t-115.5 -78t-78 -115.5t-28 -140.5t28 -140.5t78 -115.5t115.5 -78t140.5 -28t140.5 28t115.5 78t78 115.5t28 140.5t-28 140.5t-78 115.5t-115.5 78t-140.5 28zM402 216v60q29 0 42 16.5t13 50.5v21h-63v118h126q10 -32 14 -62t4 -56
q0 -46 -15 -79.5t-45 -51t-76 -17.5zM220 216v60q29 0 42.5 16.5t13.5 50.5v21h-63v118h125q10 -32 14 -62t4 -56q0 -46 -15 -79.5t-45 -51t-76 -17.5z" />
    <glyph glyph-name="arrowup.ss08" horiz-adv-x="764" 
d="M382 -12q-75 0 -140.5 28t-115.5 78t-78 115.5t-28 140.5t28 140.5t78 115.5t115.5 78t140.5 28t140.5 -28t115.5 -77.5t78 -115t28 -141.5q0 -75 -28 -140.5t-78 -115.5t-115.5 -78t-140.5 -28zM337 165h91v238l106 -105l58 59l-183 180h-54l-182 -180l57 -59l107 105
v-238z" />
    <glyph glyph-name="uni2197.ss08" horiz-adv-x="764" 
d="M382 -12q-75 0 -140.5 28t-115.5 78t-78 115.5t-28 140.5t28 140.5t78 115.5t115.5 78t140.5 28t140.5 -28t115.5 -77.5t78 -115.5t28 -141t-28 -140.5t-78 -115.5t-115.5 -78t-140.5 -28zM287 196l170 168v-163h80v267l-38 36h-266v-80h163l-169 -168z" />
    <glyph glyph-name="arrowright.ss08" horiz-adv-x="764" 
d="M382 -12q-75 0 -140.5 28t-115.5 78t-78 115.5t-28 140.5t28 140.5t78 115.5t115.5 78t140.5 28t140.5 -28t115.5 -78t78 -115.5t28 -140.5t-28 -140.5t-77.5 -115.5t-115.5 -78t-141 -28zM388 142l180 181v54l-180 182l-58 -57l110 -108h-244v-87h244l-110 -108z" />
    <glyph glyph-name="uni2198.ss08" horiz-adv-x="764" 
d="M382 712q75 0 140.5 -28t115.5 -78t78 -115.5t28 -140.5t-28 -141t-78 -115.5t-115.5 -77.5t-140.5 -28t-140.5 28t-115.5 78t-78 115.5t-28 140.5t28 140.5t78 115.5t115.5 78t140.5 28zM287 504l-60 -60l169 -168h-163v-80h266l38 36v267h-80v-163z" />
    <glyph glyph-name="arrowdown.ss08" horiz-adv-x="764" 
d="M382 712q75 0 140.5 -28t115.5 -78t78 -115.5t28 -140.5q0 -76 -28 -141.5t-78 -115t-115.5 -77.5t-140.5 -28t-140.5 28t-115.5 78t-78 115.5t-28 140.5t28 140.5t78 115.5t115.5 78t140.5 28zM337 535v-238l-107 105l-57 -59l182 -180h54l183 180l-58 59l-106 -105v238
h-91z" />
    <glyph glyph-name="uni2199.ss08" horiz-adv-x="764" 
d="M382 712q75 0 140.5 -28t115.5 -78t78 -115.5t28 -140.5t-28 -140.5t-78 -115.5t-115.5 -78t-140.5 -28t-140.5 28t-115.5 77.5t-78 115.5t-28 141t28 140.5t78 115.5t115.5 78t140.5 28zM477 504l-170 -168v163h-80v-267l38 -36h266v80h-163l169 168z" />
    <glyph glyph-name="arrowleft.ss08" horiz-adv-x="764" 
d="M382 -12q-75 0 -141 28t-115.5 78t-77.5 115.5t-28 140.5t28 140.5t78 115.5t115.5 78t140.5 28t140.5 -28t115.5 -78t78 -115.5t28 -140.5t-28 -140.5t-78 -115.5t-115.5 -78t-140.5 -28zM376 142l58 57l-110 108h244v87h-244l110 108l-58 57l-180 -182v-54z" />
    <glyph glyph-name="uni2196.ss08" horiz-adv-x="764" 
d="M382 -12q-75 0 -140.5 28t-115.5 78t-78 115.5t-28 140.5t28 141t78 115.5t115.5 77.5t140.5 28t140.5 -28t115.5 -78t78 -115.5t28 -140.5t-28 -140.5t-78 -115.5t-115.5 -78t-140.5 -28zM477 196l60 60l-169 168h163v80h-266l-38 -36v-267h80v163z" />
    <glyph glyph-name="arrowboth.ss08" horiz-adv-x="764" 
d="M382 -12q-75 0 -140.5 28t-115.5 78t-78 115.5t-28 140.5t28 140.5t78 115.5t115.5 78t140.5 28t140.5 -28t115.5 -77.5t78 -115.5t28 -141t-28 -140.5t-78 -115.5t-115.5 -78t-140.5 -28zM287 147l66 50l-90 108h243l-89 -108l66 -50l143 177v54l-144 175l-65 -49
l89 -109h-243l90 109l-66 49l-144 -175v-54z" />
    <glyph glyph-name="arrowupdn.ss08" horiz-adv-x="764" 
d="M382 -12q-75 0 -140.5 28t-115.5 78t-78 115.5t-28 140.5t28 140.5t78 115.5t115.5 78t140.5 28t140.5 -28t115.5 -78t78 -115.5t28 -140.5t-28 -140.5t-77.5 -115.5t-115.5 -78t-141 -28zM357 110h53l175 143l-49 65l-108 -88v240l108 -88l49 65l-175 143h-53l-177 -143
l50 -65l108 88v-240l-108 88l-50 -65z" />
    <glyph glyph-name="uni030C.alt" 
d="M0 506v56q24 0 35.5 8.5t11.5 27.5v18h-47v109h107q7 -29 10 -52t3 -47q0 -58 -30.5 -89t-89.5 -31z" />
    <glyph glyph-name="uni0308.case" 
d="M65 767q-28 0 -46.5 18.5t-18.5 45.5q0 28 18.5 47t46.5 19t46.5 -19t18.5 -47q0 -27 -18.5 -45.5t-46.5 -18.5zM251 767q-28 0 -46.5 18.5t-18.5 45.5q0 28 18.5 47t46.5 19q27 0 46 -19t19 -47q0 -27 -19 -45.5t-46 -18.5z" />
    <glyph glyph-name="uni0307.case" 
d="M65 763q-27 0 -46 19t-19 46q0 28 19 47t46 19q28 0 46.5 -19t18.5 -47q0 -27 -18.5 -46t-46.5 -19z" />
    <glyph glyph-name="gravecomb.case" 
d="M224 743l-224 111l16 106v0l221 -125z" />
    <glyph glyph-name="acutecomb.case" 
d="M13 743l-13 92l221 125v0l16 -106z" />
    <glyph glyph-name="uni030B.case" 
d="M176 747l84 187h113l-109 -187h-88zM0 747l72 187h113l-97 -187h-88z" />
    <glyph glyph-name="uni0302.case" 
d="M0 744v100l149 79l148 -79v-100l-148 83z" />
    <glyph glyph-name="uni030C.case" 
d="M149 744l-149 80v99l149 -86l148 86v-99z" />
    <glyph glyph-name="uni0306.case" 
d="M159 747q-48 0 -84 19t-55.5 54.5t-19.5 83.5v18h73q0 -34 19 -52.5t67 -18.5q49 0 68 18.5t19 52.5h74v-18q0 -49 -20 -84.5t-56 -54t-85 -18.5z" />
    <glyph glyph-name="uni030A.case" 
d="M116 748q-48 0 -82 30.5t-34 84.5q0 53 34 83.5t82 30.5t82.5 -30.5t34.5 -83.5q0 -54 -34.5 -84.5t-82.5 -30.5zM116 810q21 0 36 14.5t15 38.5t-14.5 38t-36.5 14q-20 0 -35.5 -13.5t-15.5 -38.5q0 -24 15.5 -38.5t35.5 -14.5z" />
    <glyph glyph-name="tildecomb.case" 
d="M242 750q-29 0 -49.5 11.5t-38 23t-37.5 11.5q-17 0 -28.5 -11t-15.5 -34h-73q11 69 43 100t80 31q29 0 49 -11.5t38 -23t38 -11.5q17 0 28.5 11.5t14.5 33.5h74q-10 -68 -42.5 -99.5t-80.5 -31.5z" />
    <glyph glyph-name="uni0304.case" 
d="M0 779v99h381v-99h-381z" />
    <glyph glyph-name="uni0327.case" 
d="M0 -264v79h117q25 0 37.5 8t12.5 26q0 17 -12.5 24.5t-37.5 7.5h-63v126h86v-53q33 0 62.5 -11t48.5 -34.5t19 -62.5q0 -37 -19 -61.5t-49 -36.5t-65 -12h-137z" />
    <glyph glyph-name="uni0328.case" 
d="M137 -212q-37 0 -68.5 11.5t-50 35.5t-18.5 60q0 28 13.5 53t45 49.5t87.5 48.5l45 19l31 -65l-51 -25q-36 -18 -51 -34t-15 -33q0 -18 13.5 -28.5t36.5 -10.5q15 0 34 4t38 11v-82q-19 -6 -42 -10t-48 -4z" />
    </font>
</defs>
</svg>
