<svg class="svg-icon" style="width: 1em;height: 1em;vertical-align: middle;fill: currentColor;overflow: hidden;" viewBox="0 0 1024 1024" version="1.1" xmlns="http://www.w3.org/2000/svg"><path d="M704.366497 59.859927l146.917891 149.993331s33.615641 31.79705 32.977113 87.619706v692.806321H133.983669V28.50338h493.250329s44.543351-0.634486 77.132499 31.356547z" fill="#FFFFFF" /><path d="M623.980741 16.165252h0.238437H136.384209a16.165252 16.165252 0 0 0-16.165252 16.165252v951.510969a16.165252 16.165252 0 0 0 16.165252 16.165252h741.908273a16.165252 16.165252 0 0 0 16.165252-16.165252v-685.406677c0.008083-0.590032 0.016165-1.167939 0.016165-1.749888 0-58.089832-33.409534-92.501612-37.268988-96.284281-0.084868-0.080826-145.200333-148.352557-145.200333-148.352557-36.816361-36.189957-85.946603-35.915148-88.023837-35.882818z" fill="#FFFFFF" /><path d="M624.396996 0H136.380168a32.330504 32.330504 0 0 0-32.330504 32.330504v951.510969a32.330504 32.330504 0 0 0 32.330504 32.330504h741.908273a32.330504 32.330504 0 0 0 32.330503-32.330504v-685.406677l-0.004041 0.371801c0.327346-28.204323-6.643918-55.923689-20.141904-80.159442-9.343516-16.759325-18.941634-26.842401-21.936246-29.780435L723.562733 40.740476a11.315676 11.315676 0 0 0-0.440503-0.440503c-16.74316-16.448144-38.440969-28.584207-62.765631-35.102845-18.004049-4.817245-32.083984-5.197128-35.959603-5.197128z m-488.016828 32.330504H624.396996c3.136059 0 45.064681 0.581949 76.049427 31.0292l145.236705 148.388929s32.722511 30.976664 32.613395 85.396985l-0.016165 1.289178v685.41476H136.380168V32.330504z m731.910065 156.305861l-0.379884-0.36776 0.379884 0.36776z" fill="#6E6E96" /><path d="M667.065178 24.373158s30.891796 17.612042 30.891796 130.049451V243.509312h126.016221s68.637659 0.448586 71.757553 73.386202c0 0-3.115852-44.094766-11.044909-59.965002C857.176622 201.964615 667.065178 24.373158 667.065178 24.373158z" fill="#FFFFFF" /><path d="M879.601868 318.035164a330.522821 330.522821 0 0 0-0.836552-9.375846c-6.886397-48.119913-52.9412-48.976672-54.901237-48.988796h-125.907105v-15.45398h-16.165252v-89.797974c0-79.735105-15.91469-107.115-21.637189-114.357033l-4.126181-3.875619 19.038626-25.85632c1.588236 0.901213 4.748543 3.051191 8.632244 7.492594 45.004061 42.425703 190.184188 181.410497 215.438352 231.874372 5.083972 10.171985 9.024252 28.705446 11.731932 55.091178 0.501123 3.681636 0.840593 7.520883 1.006287 11.416709l-32.273925 1.830715z m-165.479642-90.695145h109.850969c6.316572 0.040413 14.100141 1.010328 22.400997 3.285587-30.71802-37.289195-83.828955-91.733763-136.701452-143.175635 2.756175 18.040421 4.453527 40.073659 4.453527 66.968597v72.921451z" fill="#6E6E96" /><path d="M857.204911 196.359314c-0.084868-0.080826-145.200333-148.352557-145.200333-148.352557a117.222324 117.222324 0 0 0-20.5622-16.084426c39.709941 40.578823 125.280702 128.008588 125.349404 128.065166 2.925911 2.865291 22.720261 23.273921 32.209264 58.170659-52.088483 0.533453-100.584238 24.781331-153.121307 28.822644 82.232636 14.758875 146.727949 83.057064 158.164865 172.669137v523.786489a16.165252 16.165252 0 0 1-16.165251 16.165252H120.218957v20.206565a16.165252 16.165252 0 0 0 16.165252 16.165252h741.908273a16.165252 16.165252 0 0 0 16.165252-16.165252V294.393483c0.008083-0.590032 0.016165-1.167939 0.016165-1.749888 0-58.089832-33.409534-92.49353-37.268988-96.284281z" fill="#6E6E96" opacity=".15" /><path d="M372.045291 697.688227c5.48002 4.570725 9.044458 9.133367 9.044459 17.91514 0.274809 9.844638-6.579257 19.313435-14.253711 19.313435-4.659634 0-8.498881-3.160307-11.792551-5.969019l-112.671806-95.892274c-6.029639-4.914237-9.868886-8.777732-10.143695-18.953758 0-9.840597 4.114057-14.055686 10.143695-18.96184l112.946615-96.231744c3.289629-2.804671 7.128876-5.273913 11.238891-5.273914 7.949263 0 14.253711 9.137409 14.52852 18.961841 0 9.133367-4.380783 14.047604-9.594077 18.606204l-97.589625 82.89137 98.143285 83.594559zM463.334509 746.503246c-3.289629 7.379437-6.583299 12.293674-13.433324 12.293674-6.854067 0-13.708134-7.371355-13.708133-16.504722 0-6.672208 3.289629-12.645268 6.029639-18.270776l102.536192-225.109214c3.285587-7.023802 6.583299-13.352498 13.433324-13.352498 7.128876 0 13.433324 7.375396 13.433324 16.504722 0 5.63359-1.370005 9.844638-3.01886 13.712175l-105.272162 230.726639zM734.187345 614.101751l-97.589625-82.89137c-5.205211-4.566684-9.598118-9.48092-9.598119-18.606205 0.274809-9.836556 6.583299-18.96184 14.532562-18.96184 4.114057 0 7.957345 2.457118 11.246974 5.273913L765.713627 595.143952c6.037722 4.918278 10.151778 9.133367 10.151778 18.96184-0.274809 10.18815-4.114057 14.051645-10.151778 18.953758L653.041822 728.951824c-3.289629 2.796589-7.128876 5.969019-11.792551 5.969019-7.670412 0-14.524479-9.48092-14.24967-19.313434 0-8.781773 3.564438-13.344415 9.0485-17.915141l98.139244-83.590517z" fill="#79D4C9" /></svg>