<svg class="svg-icon" style="width: 1em;height: 1em;vertical-align: middle;fill: currentColor;overflow: hidden;" viewBox="0 0 1024 1024" version="1.1" xmlns="http://www.w3.org/2000/svg"><path d="M847.872 240.128v688c0 26.56-21.408 48-48 48h-576c-26.56 0-48-21.44-48-48v-832c0-26.592 21.44-48 48-48h432z" fill="#E9EDED" /><path d="M160 768.128v160c0 35.456 28.544 64 64 64h576c35.456 0 64-28.544 64-64v-160H160z" fill="#F8B84E" /><path d="M847.872 240.128h-144c-26.56 0-48-21.44-48-48v-144" fill="#F8B84E" /><path d="M272 288a16 16 0 0 0-16 16v64a16 16 0 0 0 16 16h160a16 16 0 0 0 16-16v-64a16 16 0 0 0-16-16h-160z m16 32h128v32H288v-32z m-16 96a16 16 0 0 0-16 16v64a16 16 0 0 0 16 16h160a16 16 0 0 0 16-16v-64a16 16 0 0 0-16-16h-160z m16 32h128v32H288v-32z" fill="#F8B84E" /><path d="M272 480a16 16 0 0 0-16 16v64a16 16 0 0 0 16 16h160a16 16 0 0 0 16-16v-64a16 16 0 0 0-16-16h-160z m16 32h128v32H288v-32z" fill="#F8B84E" /><path d="M272 544a16 16 0 0 0-16 16v64a16 16 0 0 0 16 16h160a16 16 0 0 0 16-16v-64a16 16 0 0 0-16-16h-160z m16 32h128v32H288v-32z" fill="#F8B84E" /><path d="M272 608a16 16 0 0 0-16 16v64a16 16 0 0 0 16 16h160a16 16 0 0 0 16-16v-64a16 16 0 0 0-16-16h-160z m16 32h128v32H288v-32z m304-352a16 16 0 0 0-16 16v64a16 16 0 0 0 16 16h160a16 16 0 0 0 16-16v-64a16 16 0 0 0-16-16h-160z m16 32h128v32h-128v-32z m-16 96a16 16 0 0 0-16 16v64a16 16 0 0 0 16 16h160a16 16 0 0 0 16-16v-64a16 16 0 0 0-16-16h-160z m16 32h128v32h-128v-32z" fill="#F8B84E" /><path d="M592 480a16 16 0 0 0-16 16v64a16 16 0 0 0 16 16h160a16 16 0 0 0 16-16v-64a16 16 0 0 0-16-16h-160z m16 32h128v32h-128v-32z" fill="#F8B84E" /><path d="M592 544a16 16 0 0 0-16 16v64a16 16 0 0 0 16 16h160a16 16 0 0 0 16-16v-64a16 16 0 0 0-16-16h-160z m16 32h128v32h-128v-32z" fill="#F8B84E" /><path d="M592 608a16 16 0 0 0-16 16v64a16 16 0 0 0 16 16h160a16 16 0 0 0 16-16v-64a16 16 0 0 0-16-16h-160z m16 32h128v32h-128v-32zM432 288a16 16 0 0 0-16 16v64a16 16 0 0 0 16 16h160a16 16 0 0 0 16-16v-64a16 16 0 0 0-16-16h-160z m16 32h128v32h-128v-32z m-16 96a16 16 0 0 0-16 16v64a16 16 0 0 0 16 16h160a16 16 0 0 0 16-16v-64a16 16 0 0 0-16-16h-160z m16 32h128v32h-128v-32z" fill="#F8B84E" /><path d="M432 480a16 16 0 0 0-16 16v64a16 16 0 0 0 16 16h160a16 16 0 0 0 16-16v-64a16 16 0 0 0-16-16h-160z m16 32h128v32h-128v-32z" fill="#F8B84E" /><path d="M432 544a16 16 0 0 0-16 16v64a16 16 0 0 0 16 16h160a16 16 0 0 0 16-16v-64a16 16 0 0 0-16-16h-160z m16 32h128v32h-128v-32z" fill="#F8B84E" /><path d="M432 608a16 16 0 0 0-16 16v64a16 16 0 0 0 16 16h160a16 16 0 0 0 16-16v-64a16 16 0 0 0-16-16h-160z m16 32h128v32h-128v-32z" fill="#F8B84E" /><path d="M590.816 799.808a16 16 0 0 0-13.696 21.824l48 128a16 16 0 0 0 30.016 0l48-128a16 16 0 0 0-30.016-11.2l-32.992 88-32.992-88a16 16 0 0 0-14.72-10.624 16 16 0 0 0-1.6 0zM334.24 800a16 16 0 0 0-3.36 0.672c-41.6 3.744-75.008 37.44-75.008 79.328 0 42.048 33.696 75.84 75.552 79.328a16 16 0 0 0 4.704 0.672h32a16 16 0 1 0 0-32h-29.76c-28.544 0-50.496-21.44-50.496-48s21.952-48 50.496-48h29.504a16 16 0 1 0 0-32h-32a16 16 0 0 0-1.6 0z m128.512 0a16 16 0 0 0-2.016 0.384c-24.64 1.92-44.352 22.528-44.352 47.616 0 25.28 20.064 46.08 44.992 47.68a16 16 0 0 0 3.008 0.32h32c9.12 0 16 6.848 16 16 0 9.152-6.88 16-16 16h-64a16 16 0 1 0 0 32h64a16 16 0 0 0 3.296-0.384 48.096 48.096 0 0 0 44.704-47.616c0-25.152-19.84-45.856-44.576-47.68a16 16 0 0 0-3.424-0.32h-30.88a16 16 0 0 0-1.12 0 15.616 15.616 0 0 1-16-16c0-9.152 6.848-16 16-16h64a16 16 0 1 0 0-32h-62.88a16 16 0 0 0-1.12 0 16 16 0 0 0-1.632 0z" fill="#E9EDED" /></svg>