<svg class="svg-icon" style="width: 1.017578125em;height: 1em;vertical-align: middle;fill: currentColor;overflow: hidden;" viewBox="0 0 1042 1024" version="1.1" xmlns="http://www.w3.org/2000/svg"><path d="M910.838508 236.246597h-287.160758l-142.478483-166.803119C456.782987 40.859629 406.030292 17.455785 368.430531 17.455785H85.83446C48.230335 17.455785 17.455785 48.221607 17.455785 85.825732V892.601577c0 62.666269 51.276369 113.942638 113.95573 113.942638h779.426993c62.661905 0 113.95573-51.272005 113.95573-113.942638V350.193599c0.004364-62.674997-51.280733-113.947002-113.95573-113.947002z" fill="#FFF2B5" /><path d="M982.965813 329.687415c-10.067624 16.290612 2.496177 521.814515-14.636676 567.073003-14.427206 28.767134-13.366768 56.089802-56.726938 56.089801H124.215368c-96.652683 0-115.107812-105.716599-115.107812-166.100524v105.432943c0 60.418837 51.800043 109.818709 115.107812 109.818709h787.382467c63.329589 0 115.112176-49.399872 115.112176-109.818709L1021.922762 350.206691c0.008728 20.187616-28.902416-36.827343-38.956949-20.519276zM176.997298 236.246597V193.017345h360.322318l36.92335 43.229252z" fill="#FF4D00" opacity=".15" /><path d="M904.104939 241.945911h-283.097924l-140.449248-166.790028c-24.08462-28.601304-74.117264-51.992056-111.18026-51.992056H90.770083c-37.06736 0-67.396787 30.765821-67.396787 68.365583v59.323486c0-37.599761 11.568822-105.886793 48.640546-105.886793h278.589968c37.06736 0 87.100004 23.395116 111.18026 51.992056l159.209853 204.315602h283.09356c61.776024 0 112.336706 51.272005 112.336706 113.947002v-59.30603c0.013092-62.679361-50.538862-113.968822-112.31925-113.968822z" fill="#FFF0A6" /><path d="M623.686478 297.651685H176.997298V245.354153h402.024189z" fill="#FFF0A6" /><path d="M176.997298 218.790812h446.68918v34.91157H176.997298z" fill="#6E6E96" /><path d="M910.838508 1024.004364H131.411515C58.948187 1024.004364 0 965.056177 0 892.601577V85.825732C0 38.503098 38.503098 0 85.83446 0h282.591707c42.867045 0 98.232431 25.524722 126.052589 58.110309l137.250475 160.680503h279.113641c72.458964 0 131.411515 58.948187 131.411515 131.402787V892.601577c0 72.4546-58.952551 131.402787-131.415879 131.402787zM85.83446 34.91157C57.756829 34.91157 34.91157 57.752465 34.91157 85.825732V892.601577c0 53.200869 43.290347 96.486853 96.499945 96.486853h779.426993c53.209597 0 96.499945-43.285983 96.499945-96.486853V350.193599c0-53.205233-43.290347-96.491217-96.499945-96.491217h-295.203511l-147.706491-172.921372C446.697908 55.915244 401.133944 34.91157 368.426167 34.91157H85.83446z" fill="#6E6E96" /></svg>