<svg class="svg-icon" style="width: 1em;height: 1em;vertical-align: middle;fill: currentColor;overflow: hidden;" viewBox="0 0 1024 1024" version="1.1" xmlns="http://www.w3.org/2000/svg"><path d="M832 345.6h-91.733333v113.066667h57.6l57.6 57.6h-170.666667v-170.666667h-91.733333l121.6-121.6 117.333333 121.6z m-548.266667 0h113.066667c10.666667 0 17.066667 0 23.466667 2.133333 4.266667 0 10.666667 2.133333 17.066666 6.4s10.666667 8.533333 12.8 17.066667 4.266667 19.2 4.266667 32h170.666667v57.6h-341.333334l-113.066666 198.4v-256h57.6c0-12.8 2.133333-25.6 4.266666-32s6.4-12.8 12.8-17.066667 12.8-4.266667 17.066667-6.4c4.266667-2.133333 12.8-2.133333 21.333333-2.133333z m341.333334 226.133333h136.533333l-136.533333 228.266667H170.666667l170.666666-283.733333h283.733334v55.466666z"  /></svg>