<svg class="svg-icon" style="width: 1em;height: 1em;vertical-align: middle;fill: currentColor;overflow: hidden;" viewBox="0 0 1024 1024" version="1.1" xmlns="http://www.w3.org/2000/svg"><path d="M704.367256 59.856122l146.918471 149.993923s33.615774 31.793134 32.977244 87.620052v692.809055H133.982177V28.503493h493.252275s44.543527-0.63853 77.132804 31.352629z" fill="#FFFFFF" /><path d="M623.981183 16.165316h0.238438H136.382726a16.165316 16.165316 0 0 0-16.165315 16.165315v951.514725a16.165316 16.165316 0 0 0 16.165315 16.165316h741.911202a16.165316 16.165316 0 0 0 16.165315-16.165316V298.431933c0.008083-0.590034 0.016165-1.167944 0.016166-1.753937 0-58.090062-33.413707-92.501977-37.269135-96.284661-0.084868-0.080827-145.204947-148.353143-145.204948-148.353143-36.812465-36.182018-85.9429-35.903166-88.020143-35.874876z" fill="#FFFFFF" /><path d="M624.397439 0H136.378685a32.330631 32.330631 0 0 0-32.330631 32.330631v951.514725a32.330631 32.330631 0 0 0 32.330631 32.330631h741.911201a32.330631 32.330631 0 0 0 32.330632-32.330631V298.431933l-0.004042 0.371802c0.327348-28.204434-6.647986-55.923909-20.141983-80.159759-9.343552-16.759391-18.941709-26.846548-21.936333-29.780552L723.563568 40.740637a8.963668 8.963668 0 0 0-0.440505-0.436464c-16.743226-16.448209-38.441121-28.584319-62.765879-35.107024-18.00412-4.813223-32.08411-5.197149-35.959745-5.197149z m-488.018754 32.330631H624.397439c3.136071 0 45.064859 0.585993 76.049728 31.033365l145.237278 148.389515s32.72264 30.976786 32.613524 85.397321l-0.016165 1.289183v685.417465H136.378685V32.330631z m731.912954 156.31052l-0.379885-0.371803c0.129323 0.12124 0.258645 0.24248 0.379885 0.371803z" fill="#6E6E96" /><path d="M667.06579 24.369213s30.891918 17.612111 30.891918 130.049964V243.506232h126.016718s68.646013 0.448588 71.761877 73.386491c0 0-3.115865-44.09494-11.036869-59.965238-27.52145-54.966114-217.633644-232.558272-217.633644-232.558272z" fill="#FFFFFF" /><path d="M879.60736 318.032378c-0.008083-0.113157-0.270769-3.815014-0.832514-9.363759-6.8743-48.136269-52.94545-48.988989-54.905495-49.001113h-125.911643v-15.454042h-16.165315v-89.798328c0-79.735419-15.914753-107.115423-21.637275-114.357484l-4.126197-3.875634 19.0387-25.856423c1.584201 0.901216 4.74452 3.047162 8.632279 7.492624 45.004239 42.425871 190.184938 181.407172 215.451326 231.871246 5.083992 10.180108 9.024287 28.713642 11.723895 55.111602 0.501125 3.677609 0.840596 7.51283 1.006291 11.400589l-32.274052 1.830722z m-165.484336-90.695503h109.851402c6.320638 0.040413 14.104238 1.006291 22.405127 3.281559-30.718141-37.289342-83.833327-91.730083-136.706032-143.172159 2.756186 18.040492 4.453544 40.073817 4.453544 66.968861v72.921739z" fill="#6E6E96" /><path d="M857.210315 196.360089c-0.084868-0.080827-145.204947-148.353143-145.204948-148.353143a117.190456 117.190456 0 0 0-20.562281-16.080448c39.710098 40.578984 125.281196 128.009093 125.35394 128.061631 2.921881 2.865302 22.71631 23.278054 32.20535 58.174929-52.088688 0.525373-100.584635 24.773346-153.121911 28.814675 82.241043 14.758933 146.728528 83.057392 158.173572 172.669819v523.788556a16.165316 16.165316 0 0 1-16.165316 16.165316H120.217411v20.206644a16.165316 16.165316 0 0 0 16.165315 16.165316h741.911202a16.165316 16.165316 0 0 0 16.165315-16.165316V294.390604c0.008083-0.590034 0.016165-1.167944 0.016166-1.753937 0-58.081979-33.409666-92.489853-37.265094-96.276578z" fill="#6E6E96" opacity=".15" /><path d="M573.500943 408.525815a71.293083 68.152971 0 1 0 142.586167 0 71.293083 68.152971 0 1 0-142.586167 0Z" fill="#FFA6A6" /><path d="M644.794026 492.844101c-48.229219 0-87.46244-37.826839-87.46244-84.318286s39.233221-84.318286 87.46244-84.318286c48.225178 0 87.458399 37.826839 87.458399 84.318286s-39.233221 84.318286-87.458399 84.318286z m0-136.305941c-30.398876 0-55.131809 23.322509-55.131808 51.987655s24.728892 51.987655 55.131808 51.987655c30.394835 0 55.127768-23.322509 55.127768-51.987655s-24.728892-51.987655-55.127768-51.987655z" fill="#6E6E96" /><path d="M479.463261 876.362173l163.770812-225.073731 158.707028 225.073731z" fill="#F0F0FF" /><path d="M802.021927 892.527488a0.266728 0.266728 0 0 1-0.080826 0H479.463261a16.173398 16.173398 0 0 1-13.069658-25.678604l163.766771-225.07373a16.165316 16.165316 0 0 1 13.069658-6.652028h0.117199a16.165316 16.165316 0 0 1 13.089864 6.850053l157.89472 223.913869c2.400549 2.820848 3.847345 6.482292 3.847345 10.475125a16.153192 16.153192 0 0 1-16.157233 16.165315z m-290.801903-32.330631h259.546266l-127.734283-181.148527-131.811983 181.148527z" fill="#6E6E96" /><path d="M214.230845 876.362173l113.31078-215.629145 178.174109 215.629145z" fill="#F0F0FF" /><path d="M505.79656 892.527488a0.270769 0.270769 0 0 0-0.080826 0H214.230845a16.161274 16.161274 0 0 1-14.310346-23.686229l113.31078-215.625103a16.157233 16.157233 0 0 1 12.641277-8.559535 16.11682 16.11682 0 0 1 14.128486 5.783142l177.301182 214.574358a16.157233 16.157233 0 0 1-11.505664 27.513367z m-264.812118-32.330631H471.384645l-140.836271-170.439005-89.563932 170.439005z" fill="#6E6E96" /><path d="M297.171038 876.362173l184.490706-375.205058 220.75355 375.205058z" fill="#F0F0FF" /><path d="M702.49612 892.527488a0.266728 0.266728 0 0 1-0.080826 0H297.171038a16.165316 16.165316 0 0 1-14.508371-23.298261l184.490706-375.205058a16.165316 16.165316 0 0 1 28.438832-1.062869l220.005904 373.93608a16.157233 16.157233 0 0 1-13.101989 25.630108z m-379.363585-32.330631h351.017705l-191.211436-324.995588-159.806269 324.995588z" fill="#6E6E96" /><path d="M481.661744 501.157115l114.393856 319.701446-115.109171-102.548721 55.216677 112.555052-170.317766 19.050824L451.945853 549.43483l-154.774815 326.927343 403.696427-2.145946zM327.541625 660.733028l-62.778003 190.1324 106.816364-153.897845 0.202066 8.967708-74.611014 170.426882H214.230845z" fill="#6E6E96" opacity=".24" /><path d="M616.763369 690.335762l102.827573 165.52879h37.430788l-113.787657-204.57611 158.707028 225.073731-101.073636-0.48496z" fill="#6E6E96" opacity=".24" /></svg>