<svg class="svg-icon" style="width: 1em;height: 1em;vertical-align: middle;fill: currentColor;overflow: hidden;" viewBox="0 0 1024 1024" version="1.1" xmlns="http://www.w3.org/2000/svg"><path d="M709.899677 60.316743l148.049076 151.148194s33.878535 32.037797 33.231018 88.294328v698.136467H135.129296V28.718768h497.048077c-0.004072 0 44.890382-0.639371 77.722304 31.597975z" fill="#FFFFFF" /><path d="M628.903141 16.289715h0.244345H137.548318a16.289715 16.289715 0 0 0-16.289715 16.289715v958.84114a16.289715 16.289715 0 0 0 16.289715 16.289715h747.620549a16.289715 16.289715 0 0 0 16.289715-16.289715V300.728503c0.008145-0.594575 0.012217-1.176932 0.012217-1.767434 0-58.537091-33.670841-93.20975-37.551866-97.025615-0.085521-0.077376-146.326439-149.494788-146.326438-149.494789-37.091681-36.460455-86.60427-36.179457-88.689354-36.15095z" fill="#FFFFFF" /><path d="M629.318528 0H137.544246a32.57943 32.57943 0 0 0-32.57943 32.57943v958.84114a32.57943 32.57943 0 0 0 32.57943 32.57943h747.620548a32.57943 32.57943 0 0 0 32.57943-32.57943V300.728503l-0.004072 0.374664c0.329867-28.42148-6.703218-56.354269-20.296985-80.776625-9.415455-16.892435-19.087474-27.053144-22.109216-30.009728l-146.086165-149.262659a11.353931 11.353931 0 0 0-0.447967-0.439823c-16.868-16.574785-38.736943-28.804289-63.248892-35.377189C647.412329 0.382808 633.232132 0 629.318528 0zM137.544246 32.57943h491.774282c3.164277 0 45.415726 0.590502 76.639038 31.272181l146.354945 149.53144s32.970383 31.215167 32.860428 86.054492l-0.012217 1.299105v690.692067H137.544246V32.57943z m737.549432 157.509328l-0.382809-0.374663 0.382809 0.374663z" fill="#6E6E96" /><path d="M672.319304 24.556746s31.133718 17.747645 31.133718 131.046685v89.77262h126.986474s69.170203 0.456112 72.310046 73.951235c0 0-3.139843-44.43427-11.121803-60.422626-27.73324-55.389104-219.308435-234.347914-219.308435-234.347914z" fill="#FFFFFF" /><path d="M886.492406 320.475711c-0.008145-0.114028-0.272853-3.844373-0.83892-9.435818-6.727652-47.113929-50.449248-49.284533-55.421684-49.378199H703.448949v-15.572968h-16.289715v-90.489367c0-80.344947-16.037225-107.93158-21.803783-115.229372l-4.15795-3.909532 19.189284-26.051327c1.596392 0.912224 4.781031 3.074684 8.698708 7.550283 45.350567 42.752357 191.648498 182.799111 217.105251 233.655601 5.123115 10.254376 9.093733 28.930534 11.814116 55.531639 0.504981 3.70591 0.847065 7.570645 1.014035 11.488322l-32.526489 1.840738zM719.738665 229.086336h110.696759c6.365206 0.040724 14.204632 1.014035 22.5694 3.306812-30.958604-37.5763-84.47439-92.435988-137.749903-144.265789 2.777396 18.179322 4.487817 40.374059 4.487816 67.476072v73.482905z" fill="#6E6E96" /><path d="M863.923006 197.87117c-0.085521-0.077376-146.326439-149.494788-146.326439-149.494788a118.137087 118.137087 0 0 0-20.720518-16.204195c40.019758 40.891257 126.249365 128.994182 126.322669 129.047124 2.944366 2.887352 22.88705 23.45719 32.453185 58.622612-52.493607 0.533488-101.362752 24.968061-154.304327 29.04049 82.873926 14.87251 147.861744 83.692484 159.39079 173.994519v527.823422a16.289715 16.289715 0 0 1-16.289715 16.289715H121.258603v20.362144a16.289715 16.289715 0 0 0 16.289715 16.289716h747.620549a16.289715 16.289715 0 0 0 16.289715-16.289716V296.656075c0.008145-0.594575 0.012217-1.176932 0.012217-1.767434 0-58.528946-33.658624-93.201605-37.547793-97.017471z" fill="#6E6E96" opacity=".15" /><path d="M504.095416 199.072536H233.026411a16.289715 16.289715 0 0 1 0-32.57943h271.069005a16.289715 16.289715 0 0 1 0 32.57943z" opacity=".4" /><path d="M782.804297 875.095714h-549.777886a16.289715 16.289715 0 0 1 0-32.57943h549.777886a16.289715 16.289715 0 0 1 0 32.57943zM649.175691 763.503021H233.026411a16.289715 16.289715 0 0 1 0-32.579431h416.153353a16.289715 16.289715 0 1 1-0.004073 32.579431zM782.804297 651.926617h-549.777886a16.289715 16.289715 0 0 1 0-32.579431h549.777886a16.289715 16.289715 0 0 1 0 32.579431zM473.5522 540.342068H233.026411a16.289715 16.289715 0 0 1 0-32.57943h240.525789a16.289715 16.289715 0 0 1 0 32.57943zM641.539887 428.757519H233.026411a16.289715 16.289715 0 0 1 0-32.57943h408.513476a16.289715 16.289715 0 0 1 0 32.57943zM511.73122 317.172971H233.026411a16.289715 16.289715 0 0 1 0-32.57943h278.708881a16.289715 16.289715 0 1 1-0.004072 32.57943z" opacity=".12" /></svg>